<svg width="26" height="26" viewBox="0 0 26 26" fill="none" xmlns="http://www.w3.org/2000/svg">
<path opacity="0.2" d="M13 26C20.1797 26 26 20.1797 26 13C26 5.8203 20.1797 0 13 0C5.8203 0 0 5.8203 0 13C0 20.1797 5.8203 26 13 26Z" fill="#767DFF"/>
<path fill-rule="evenodd" clip-rule="evenodd" d="M14.783 6H11.217C10.9655 5.99988 10.7334 6.13193 10.6102 6.34533L5.08865 15.9268C4.97045 16.1322 4.97045 16.3825 5.08865 16.5879L6.85481 19.6539C6.9778 19.8676 7.20989 20 7.46165 20H18.5383C18.7898 19.9997 19.0215 19.8673 19.1444 19.6539L20.9114 16.5879C21.0295 16.3825 21.0295 16.1322 20.9114 15.9268L15.3898 6.34533C15.2666 6.13193 15.0345 5.99988 14.783 6ZM9.27978 16.2573L13 9.81189L16.7202 16.2573H9.27978Z" fill="#767DFF"/>
</svg>
