<svg width="26" height="26" viewBox="0 0 26 26" fill="none" xmlns="http://www.w3.org/2000/svg">
<path opacity="0.2" d="M13 26C20.1797 26 26 20.1797 26 13C26 5.8203 20.1797 0 13 0C5.8203 0 0 5.8203 0 13C0 20.1797 5.8203 26 13 26Z" fill="#5FBCD3"/>
<path fill-rule="evenodd" clip-rule="evenodd" d="M16.7148 14.2967C18.2243 10.0425 17.7812 6.01584 15.7251 5.30283C13.6689 4.58982 10.7783 7.46049 9.26877 11.7147C7.75921 15.9688 8.20231 19.9955 10.2585 20.7085C12.3146 21.4215 15.2052 18.5509 16.7148 14.2967Z" fill="#5FBCD3"/>
<path fill-rule="evenodd" clip-rule="evenodd" d="M15.361 16.1258C19.0075 13.4182 20.9027 9.82714 19.5941 8.1048C18.2854 6.38245 14.2685 7.18109 10.6221 9.8886C6.97559 12.5961 5.08038 16.1872 6.389 17.9096C7.69761 19.6319 11.7145 18.8333 15.361 16.1258Z" fill="#2C89A0"/>
<path fill-rule="evenodd" clip-rule="evenodd" d="M13.7433 16.6771C18.2812 16.2287 21.7842 14.1276 21.5674 11.9842C21.3506 9.8408 17.4962 8.46681 12.9584 8.91528C8.4205 9.36375 4.91755 11.4649 5.13431 13.6082C5.35107 15.7516 9.20545 17.1256 13.7433 16.6771Z" fill="#164450"/>
<path fill-rule="evenodd" clip-rule="evenodd" d="M13.9342 13.1623C14.0014 13.8136 14.4747 14.1392 15.3542 14.1389C15.874 14.143 16.3872 14.0229 16.85 13.7888V14.7773C16.3261 15.0053 15.6915 15.1192 14.9462 15.1192C14.0432 15.1192 13.3751 14.8584 12.9421 14.3366H12.9217C12.4494 14.8584 11.8418 15.1192 11.0987 15.1192C10.5412 15.1206 10.1056 15.0005 9.79166 14.7588C9.47778 14.5172 9.32083 14.1822 9.32083 13.7538C9.32083 13.3271 9.48291 12.9853 9.80708 12.7286C10.1312 12.4718 10.5954 12.3228 11.1996 12.2817L12.4887 12.1939C12.4887 11.6362 12.1799 11.3573 11.5621 11.3573C10.9787 11.3573 10.4012 11.5136 9.82958 11.8261V10.7922C10.4201 10.5485 11.053 10.4205 11.6929 10.4153C12.4787 10.4153 13.0226 10.611 13.3246 11.0023H13.345C13.7879 10.611 14.2975 10.3844 14.9379 10.2811C15.6204 10.1719 16.485 10.1773 16.8962 10.5657C17.1293 10.7879 17.2808 11.0805 17.3271 11.3973C17.4229 12.1325 16.92 12.8138 16.0804 12.9119L13.9342 13.1623ZM12.4887 13.1973V13L11.7029 13.0568C11.0854 13.1008 10.7765 13.2922 10.7762 13.631C10.7763 13.7771 10.85 13.9136 10.9729 13.9947C11.1037 14.0906 11.275 14.1386 11.4867 14.1389C11.7756 14.1389 12.0147 14.0521 12.2042 13.8786C12.3936 13.705 12.4885 13.4779 12.4887 13.1973ZM14.0646 12.4349L14.0758 12.238C14.0919 11.9598 14.1997 11.7381 14.3992 11.5728C14.5986 11.4075 14.8425 11.331 15.1308 11.3433C15.3419 11.351 15.5101 11.406 15.6354 11.5081C15.7534 11.5945 15.8193 11.7339 15.8108 11.8788C15.7917 12.2174 15.4722 12.3951 14.8525 12.4118L14.0646 12.4349Z" fill="white"/>
</svg>
