<svg width="26" height="26" viewBox="0 0 26 26" fill="none" xmlns="http://www.w3.org/2000/svg">
<path d="M13 26C20.1797 26 26 20.1797 26 13C26 5.8203 20.1797 0 13 0C5.8203 0 0 5.8203 0 13C0 20.1797 5.8203 26 13 26Z" fill="#0086B6"/>
<mask id="mask0_1_895" style="mask-type:luminance" maskUnits="userSpaceOnUse" x="0" y="0" width="26" height="26">
<path d="M13 26C20.1797 26 26 20.1797 26 13C26 5.8203 20.1797 0 13 0C5.8203 0 0 5.8203 0 13C0 20.1797 5.8203 26 13 26Z" fill="white"/>
</mask>
<g mask="url(#mask0_1_895)">
<path fill-rule="evenodd" clip-rule="evenodd" d="M7.43398 8.27833C9.03438 7.4249 11.0551 6.99879 13.4962 7C15.9365 7 17.9572 7.42611 19.5585 8.27833C19.8399 8.42824 20.0055 8.71373 19.9856 9.01482L19.6635 13.8655C19.5262 15.9244 18.3465 17.8005 16.4846 18.9211L13.9607 20.4411C13.678 20.6113 13.3143 20.6113 13.0316 20.4411L10.5078 18.9211C8.64591 17.8006 7.46626 15.9245 7.32902 13.8655L7.00691 9.01482C6.98702 8.71373 7.15257 8.42824 7.43398 8.27833Z" stroke="white" stroke-width="0.5"/>
<path d="M7.5033 8.28091L13.2412 17.9201C13.2971 18.014 13.4035 18.0721 13.5188 18.0718C13.6341 18.0715 13.7402 18.0129 13.7956 17.9188L19.4891 8.23349" stroke="white" stroke-width="0.5"/>
<path d="M7.94608 16.2118L13.3877 7.17807C13.4215 7.12198 13.4855 7.08741 13.5546 7.08783C13.6237 7.08826 13.6871 7.1236 13.7201 7.1801L19.0147 16.2516" stroke="white" stroke-width="0.5"/>
<path d="M16.75 13.36C17.1252 13.36 17.4294 13.0556 17.4294 12.68C17.4294 12.3044 17.1252 12 16.75 12C16.3748 12 16.0706 12.3044 16.0706 12.68C16.0706 13.0556 16.3748 13.36 16.75 13.36Z" fill="white"/>
<path d="M13.5 18.86C13.8752 18.86 14.1794 18.5556 14.1794 18.18C14.1794 17.8044 13.8752 17.5 13.5 17.5C13.1248 17.5 12.8206 17.8044 12.8206 18.18C12.8206 18.5556 13.1248 18.86 13.5 18.86Z" fill="white"/>
<path d="M10 13.36C10.3752 13.36 10.6794 13.0556 10.6794 12.68C10.6794 12.3044 10.3752 12 10 12C9.62479 12 9.32063 12.3044 9.32063 12.68C9.32063 13.0556 9.62479 13.36 10 13.36Z" fill="white"/>
<path d="M13.5 18.375V20.125" stroke="white" stroke-width="0.5" stroke-linecap="square"/>
<path d="M7.92857 16.1875C8.39621 16.291 10.9089 17.8117 13.7351 18.4565L19.0714 16.1875" stroke="white" stroke-width="0.5"/>
</g>
</svg>
