<svg width="26" height="26" viewBox="0 0 26 26" fill="none" xmlns="http://www.w3.org/2000/svg">
<path opacity="0.2" d="M13 26C20.1797 26 26 20.1797 26 13C26 5.8203 20.1797 0 13 0C5.8203 0 0 5.8203 0 13C0 20.1797 5.8203 26 13 26Z" fill="#2B5EBA"/>
<path fill-rule="evenodd" clip-rule="evenodd" d="M17.8582 15.6515C19.5934 15.6515 21 14.2236 21 12.4621C21 10.7007 19.5934 9.27274 17.8582 9.27274C16.123 9.27274 14.7164 10.7007 14.7164 12.4621C14.7164 14.2236 16.123 15.6515 17.8582 15.6515Z" fill="#2B5EBA"/>
<path fill-rule="evenodd" clip-rule="evenodd" d="M13.8881 8.07576C14.7247 8.07576 15.403 7.38723 15.403 6.53788C15.403 5.68853 14.7247 5 13.8881 5C13.0514 5 12.3731 5.68853 12.3731 6.53788C12.3731 7.38723 13.0514 8.07576 13.8881 8.07576Z" fill="#2B5EBA"/>
<path fill-rule="evenodd" clip-rule="evenodd" d="M13.8881 19.9318C14.7247 19.9318 15.403 19.2433 15.403 18.3939C15.403 17.5446 14.7247 16.856 13.8881 16.856C13.0514 16.856 12.3731 17.5446 12.3731 18.3939C12.3731 19.2433 13.0514 19.9318 13.8881 19.9318Z" fill="#2B5EBA"/>
<path fill-rule="evenodd" clip-rule="evenodd" d="M12.8284 11.5985C12.7612 11.5303 12.7015 11.447 12.6567 11.3636C12.6567 11.3636 11.9179 9.78789 9.38806 10.803C9.25373 10.8712 9.1194 10.9318 8.98507 10.9773H8.97761C8.18656 11.2349 7.2985 11.0455 6.67164 10.4091C5.77612 9.50759 5.78358 8.03789 6.67164 7.13637C7.5597 6.23486 9 6.23486 9.89552 7.14395C10.194 7.44698 10.3955 7.81819 10.4925 8.21213C10.4925 8.21213 11.1045 10.6061 13.1493 10.0303C13.194 10.0076 13.2463 9.99243 13.291 9.98486H13.2985C13.597 9.91668 13.9254 10 14.1642 10.2424C14.5373 10.6136 14.5373 11.2197 14.1642 11.5985C13.7985 11.9773 13.2015 11.9773 12.8284 11.5985ZM13.4776 14.8106C13.3806 14.8106 13.2836 14.7955 13.194 14.7652C13.194 14.7652 11.5746 14.1894 10.4851 16.7273C10.4403 16.8712 10.3881 17.0076 10.3209 17.1364V17.1439C9.94776 17.8864 9.1791 18.3939 8.2985 18.3939C7.03731 18.3939 6.01492 17.3561 6.01492 16.0758C6.01492 14.7955 7.03731 13.7576 8.2985 13.7576C8.73134 13.7576 9.12686 13.8788 9.47015 14.0833C9.47015 14.0833 11.5672 15.3333 12.6119 13.4621C12.6269 13.4167 12.6493 13.3712 12.6791 13.3333V13.3258C12.8507 13.0606 13.1418 12.8864 13.4776 12.8864C14 12.8864 14.4254 13.3182 14.4254 13.8485C14.4254 14.3788 14 14.8106 13.4776 14.8106Z" fill="#2B5EBA"/>
</svg>
