<svg width="26" height="26" viewBox="0 0 26 26" fill="none" xmlns="http://www.w3.org/2000/svg">
<path opacity="0.2" d="M13 26C20.1797 26 26 20.1797 26 13C26 5.8203 20.1797 0 13 0C5.8203 0 0 5.8203 0 13C0 20.1797 5.8203 26 13 26Z" fill="#188DBE"/>
<path fill-rule="evenodd" clip-rule="evenodd" d="M9.8131 17.7557V15.7184H6.37028V13.4715H9.8131V8.18186H15.2076C17.3627 8.30781 18.9365 10.8267 16.5557 12.4136C19.4917 14.0348 17.534 17.7557 15.2076 17.7557H9.8131Z" fill="#188DBE"/>
<path fill-rule="evenodd" clip-rule="evenodd" d="M14.466 10.0599C15.8625 10.7471 15.2086 11.807 14.3552 11.9904H12.2191V10.0599H14.466ZM14.8076 13.5481H12.338V15.7184H14.6846C15.6207 15.5118 16.339 14.3259 14.8076 13.5481Z" fill="#1B3B4C"/>
</svg>
