<svg width="26" height="26" viewBox="0 0 26 26" fill="none" xmlns="http://www.w3.org/2000/svg">
<path opacity="0.2" d="M13 26C20.1797 26 26 20.1797 26 13C26 5.8203 20.1797 0 13 0C5.8203 0 0 5.8203 0 13C0 20.1797 5.8203 26 13 26Z" fill="#0048A1"/>
<path fill-rule="evenodd" clip-rule="evenodd" d="M12.4542 6.94144C12.4378 6.94599 12.4214 6.95054 12.405 6.95467C12.3929 6.95831 12.3807 6.96179 12.3686 6.96527C12.3594 6.96793 12.3502 6.97057 12.341 6.97328C12.3273 6.97668 12.3136 6.97982 12.2999 6.98295C12.2923 6.98469 12.2847 6.98643 12.2771 6.98821C12.2598 6.99303 12.2426 6.99772 12.2253 7.0024C12.1944 7.01079 12.1636 7.01916 12.1328 7.02833C12.1211 7.02993 12.1094 7.0317 12.0978 7.03346C12.08 7.03939 12.0622 7.04494 12.0445 7.05047C12.0363 7.05303 12.0281 7.05559 12.0199 7.05818C11.9773 7.06764 11.9351 7.07872 11.8932 7.09011C11.876 7.09418 11.859 7.09855 11.842 7.10292C11.8261 7.10698 11.8103 7.11103 11.7945 7.11483C11.7639 7.12358 11.733 7.1315 11.7021 7.13942C11.6629 7.14948 11.6237 7.15954 11.5849 7.17132L11.529 7.17677L11.5306 7.19298L11.5083 7.19073C11.5151 7.22022 11.5229 7.24946 11.5308 7.27877C11.532 7.28312 11.5331 7.28748 11.5343 7.29184C11.5523 7.35154 11.5682 7.41188 11.5825 7.4727L11.5825 7.47276C11.6098 7.57417 11.6371 7.67557 11.6633 7.77713C11.6689 7.798 11.6742 7.81902 11.6795 7.84004C11.6843 7.85719 11.6887 7.87444 11.6931 7.89171C11.6941 7.89578 11.6952 7.89985 11.6962 7.90391C11.701 7.92132 11.7054 7.93883 11.7098 7.95636C11.7109 7.96049 11.7119 7.96462 11.7129 7.96875C11.7295 8.02813 11.7449 8.08782 11.7595 8.14784C11.7651 8.16855 11.7704 8.18957 11.7757 8.21059C11.7812 8.23097 11.7867 8.25152 11.7918 8.27206C11.7962 8.2878 11.8002 8.30346 11.8043 8.31921C11.8059 8.32546 11.8075 8.33173 11.8092 8.33802C11.8255 8.39788 11.8411 8.45806 11.8561 8.5184C11.8675 8.56012 11.8785 8.60185 11.8892 8.64373C11.8959 8.67044 11.904 8.69689 11.9121 8.72336C11.9299 8.78133 11.9477 8.83936 11.9512 8.90018C11.9051 8.90689 11.8596 8.91755 11.8143 8.92816L11.8104 8.92907C11.7759 8.93957 11.7411 8.94893 11.7063 8.95829C11.6773 8.96609 11.6483 8.97389 11.6194 8.98235C11.5923 8.98941 11.5653 8.99679 11.5382 9.00417C11.5112 9.01155 11.4842 9.01894 11.457 9.026C11.4422 9.0303 11.4274 9.03418 11.4125 9.03807C11.4068 9.03955 11.4012 9.04103 11.3955 9.04253C11.3692 9.05096 11.3427 9.05873 11.3161 9.06649C11.2831 9.07616 11.2501 9.08582 11.2175 9.09677C11.1802 9.10672 11.1426 9.11603 11.1043 9.11924C11.092 9.03111 11.0691 8.94518 11.0461 8.85925C11.034 8.81405 11.0219 8.76885 11.0114 8.72333C11.0066 8.70708 11.0021 8.69072 10.9976 8.67438C10.9947 8.66393 10.9919 8.65348 10.9889 8.64309C10.979 8.59943 10.9675 8.55619 10.9559 8.51298C10.9474 8.48091 10.9388 8.44885 10.9309 8.41665C10.926 8.39911 10.9214 8.38168 10.9169 8.36418C10.916 8.36071 10.9151 8.35723 10.9142 8.35374C10.9083 8.33272 10.9028 8.31138 10.8977 8.29019C10.8929 8.27357 10.8886 8.25675 10.8843 8.24004C10.8831 8.23545 10.882 8.23088 10.8808 8.22632C10.8761 8.20878 10.8719 8.19102 10.8677 8.17331C10.8668 8.16931 10.8658 8.16531 10.8649 8.16133C10.8421 8.0806 10.821 7.99924 10.8011 7.91771C10.7968 7.90348 10.7927 7.88915 10.7885 7.87482C10.7853 7.86363 10.7821 7.85245 10.7788 7.84133C10.775 7.82472 10.7709 7.80815 10.7667 7.79158C10.7626 7.77501 10.7585 7.75844 10.7547 7.74183C10.7505 7.72738 10.7466 7.71294 10.7426 7.6985C10.7394 7.68694 10.7363 7.67539 10.733 7.66383C10.7296 7.65044 10.726 7.63706 10.7224 7.62368C10.7087 7.57245 10.695 7.52114 10.6896 7.46821C10.6826 7.45547 10.6691 7.43057 10.6613 7.41622L10.6598 7.41332C10.6325 7.41644 10.6063 7.42353 10.5801 7.4306C10.5726 7.43263 10.5651 7.43466 10.5576 7.43659C10.52 7.44831 10.4821 7.45874 10.4439 7.46805C10.4308 7.47165 10.4178 7.47506 10.4048 7.47846C10.3911 7.48204 10.3774 7.48561 10.3639 7.48939C10.3431 7.49469 10.3224 7.49998 10.302 7.50592C10.232 7.52365 10.1622 7.54175 10.0923 7.55984C10.0224 7.57794 9.95252 7.59603 9.88257 7.61376C9.84289 7.6254 9.80268 7.63513 9.76247 7.64485C9.7068 7.65831 9.65114 7.67177 9.59694 7.69031C9.60176 7.71342 9.60706 7.73621 9.61285 7.75916C9.61735 7.77539 9.62201 7.79157 9.62667 7.80778C9.63165 7.82507 9.63663 7.84238 9.64144 7.85978C9.64642 7.88 9.6514 7.90022 9.65606 7.9206C9.65961 7.93216 9.66301 7.94377 9.66642 7.95541C9.67087 7.9706 9.67533 7.98583 9.68016 8.001L9.68578 8.03535C9.69831 8.07739 9.70955 8.11992 9.72016 8.16261C9.72594 8.18411 9.73156 8.20578 9.73702 8.2276C9.74265 8.24863 9.74795 8.26965 9.75325 8.29083C9.75903 8.31202 9.76449 8.33304 9.76995 8.35438C9.77348 8.36709 9.77682 8.37991 9.78017 8.39275C9.78231 8.40099 9.78446 8.40923 9.78666 8.41745C9.79116 8.4343 9.79566 8.45148 9.79999 8.46849C9.82811 8.56991 9.85477 8.67166 9.87999 8.77372C9.89188 8.81907 9.90385 8.86439 9.91582 8.90971C9.93621 8.98693 9.9566 9.06412 9.97654 9.14139C9.98265 9.16337 9.98827 9.18552 9.99389 9.20766C9.99919 9.22756 10.0042 9.24762 10.009 9.26768C10.0132 9.28144 10.0172 9.29528 10.0212 9.30914C10.025 9.32228 10.0288 9.33544 10.0328 9.34857C10.0375 9.36744 10.0427 9.38625 10.0479 9.40508C10.0506 9.41491 10.0533 9.42474 10.0559 9.43459C10.0255 9.44486 9.99485 9.45481 9.96433 9.46443C9.92239 9.47451 9.88075 9.48571 9.83912 9.4969C9.80518 9.50602 9.77124 9.51515 9.73718 9.52365C9.69991 9.53456 9.66265 9.545 9.62506 9.55446C9.61212 9.55848 9.59919 9.56237 9.58626 9.56626C9.57333 9.57015 9.5604 9.57404 9.54746 9.57806C9.52801 9.58251 9.50873 9.58747 9.48942 9.59244C9.47603 9.59588 9.46263 9.59932 9.44915 9.60261C9.35299 9.63006 9.25584 9.65424 9.15871 9.67843C9.13204 9.68507 9.10536 9.69171 9.07871 9.69842C9.0575 9.70435 9.03614 9.70997 9.01477 9.71543C8.99278 9.7212 8.97078 9.7265 8.94878 9.73179L8.94875 9.7318C8.90104 9.74415 8.85349 9.75651 8.80626 9.77063C8.79084 9.77336 8.77542 9.77609 8.76016 9.77898C8.73847 9.78524 8.71678 9.79101 8.69493 9.79679C8.6567 9.8069 8.61847 9.81701 8.58008 9.82664C8.5633 9.83132 8.54642 9.83557 8.52952 9.83983C8.52554 9.84084 8.52156 9.84184 8.51759 9.84285C8.49606 9.84863 8.47453 9.85392 8.45301 9.85906C8.43164 9.86468 8.41028 9.86981 8.38891 9.87495C8.36755 9.88088 8.34634 9.88634 8.32497 9.8918C8.30361 9.89741 8.28224 9.90271 8.26088 9.90784C8.23951 9.91378 8.21831 9.9194 8.19694 9.92502C8.17701 9.93011 8.15694 9.93478 8.13699 9.93942L8.13269 9.94042C8.12244 9.94342 8.11216 9.94631 8.1019 9.9492C8.09075 9.95233 8.07963 9.95546 8.06859 9.95872C8.0469 9.96337 8.02506 9.96754 8.00337 9.97156C7.99477 9.97425 7.98617 9.97689 7.97758 9.97953C7.95952 9.98507 7.94149 9.99061 7.92353 9.99659L7.90971 10.0009C7.92046 10.0486 7.93375 10.0956 7.94703 10.1427C7.94943 10.1512 7.95183 10.1596 7.95421 10.1681C7.95951 10.1897 7.96433 10.2113 7.96915 10.233C7.97243 10.2432 7.97562 10.2534 7.97883 10.2637C7.9838 10.2796 7.98878 10.2955 7.99405 10.3113L7.99871 10.3468C8.00546 10.3676 8.01188 10.3888 8.01831 10.41C8.02377 10.4315 8.02891 10.4532 8.03405 10.4748C8.03967 10.4946 8.04514 10.5145 8.05044 10.5344C8.05606 10.5562 8.0612 10.5782 8.06634 10.6002C8.07244 10.6215 8.07855 10.6428 8.08449 10.6644C8.08867 10.6809 8.09269 10.6976 8.09654 10.7144C8.10225 10.7342 8.10754 10.7545 8.1128 10.7746L8.11389 10.7788C8.11967 10.8001 8.12497 10.8218 8.13028 10.8435C8.14152 10.8815 8.15196 10.9198 8.16128 10.9585C8.16453 10.9714 8.16774 10.9843 8.17095 10.9972C8.18299 11.0456 8.19501 11.0939 8.20883 11.1419C8.23811 11.1344 8.26728 11.1264 8.29644 11.1183C8.31655 11.1128 8.33665 11.1072 8.35678 11.1018C8.37327 11.0967 8.38983 11.0918 8.4064 11.0869C8.41647 11.0839 8.42655 11.0809 8.43662 11.0779C8.45202 11.0741 8.46731 11.0701 8.48259 11.0661C8.49984 11.0616 8.51708 11.057 8.53445 11.0529C8.55486 11.0468 8.57542 11.0414 8.59584 11.0359L8.59967 11.0349C8.65552 11.0186 8.71162 11.0035 8.76764 10.9883C8.77511 10.9863 8.78257 10.9843 8.79004 10.9823C8.82753 10.9735 8.86454 10.9636 8.9017 10.9537C8.90737 10.9522 8.91304 10.9507 8.91871 10.9492C8.95144 10.9441 8.984 10.9374 9.01651 10.9308C9.02772 10.9285 9.03892 10.9262 9.05012 10.924C9.10248 10.9121 9.1563 10.9109 9.20963 10.9099C9.26939 10.9086 9.32835 10.9173 9.38586 10.9332C9.41204 10.9441 9.43855 10.9547 9.46506 10.9649C9.55164 11.0144 9.62393 11.0859 9.67839 11.1692C9.69094 11.1944 9.70371 11.2195 9.71652 11.2447C9.71912 11.2498 9.72173 11.2549 9.72433 11.2601L9.73461 11.3226C9.75805 11.4006 9.77794 11.4795 9.79784 11.5585C9.80372 11.5819 9.8096 11.6052 9.81558 11.6285C9.82152 11.6494 9.82714 11.6704 9.83277 11.6916C9.83733 11.7081 9.84143 11.7247 9.84556 11.7413C9.8468 11.7463 9.84805 11.7514 9.84931 11.7564C9.85389 11.7726 9.85799 11.7888 9.86213 11.8051C9.86336 11.81 9.8646 11.8149 9.86586 11.8198C9.88208 11.8792 9.89799 11.9389 9.91261 11.9988C9.91823 12.0196 9.92369 12.0406 9.92899 12.0618C9.93477 12.0833 9.94024 12.105 9.94554 12.1268L9.94557 12.1269C9.95134 12.1478 9.95711 12.1686 9.96273 12.1896C9.97301 12.2279 9.98297 12.2664 9.99244 12.3051C10.0042 12.3468 10.0154 12.3889 10.0262 12.4311C10.0422 12.4924 10.0585 12.5537 10.0748 12.615C10.1068 12.7355 10.1388 12.856 10.169 12.9769C10.1734 12.9921 10.1775 13.0075 10.1816 13.0229C10.1832 13.0289 10.1847 13.0348 10.1863 13.0408C10.192 13.0624 10.1971 13.0843 10.2021 13.1064C10.2031 13.11 10.2041 13.1136 10.2052 13.1171C10.21 13.1339 10.2148 13.1508 10.2194 13.1677C10.2234 13.1831 10.227 13.1986 10.2306 13.2141C10.232 13.2201 10.2334 13.2261 10.2349 13.2321C10.2389 13.2457 10.2427 13.2595 10.2466 13.2732C10.2502 13.2862 10.2538 13.2993 10.2577 13.3123C10.2617 13.3299 10.2661 13.3473 10.2704 13.3648C10.2743 13.3802 10.2781 13.3957 10.2818 13.4112C10.2877 13.4322 10.2935 13.4535 10.2993 13.4749C10.3049 13.4969 10.31 13.519 10.3152 13.5413C10.3325 13.5986 10.3486 13.6564 10.3629 13.7146C10.3659 13.7252 10.3688 13.7359 10.3718 13.7466C10.376 13.7622 10.3803 13.7778 10.3849 13.7933C10.3938 13.831 10.4037 13.8685 10.4135 13.9061C10.4234 13.9441 10.4334 13.9821 10.4424 14.0203C10.4813 14.1645 10.519 14.309 10.5552 14.454C10.5608 14.4739 10.5663 14.4938 10.5716 14.514C10.5768 14.5344 10.5816 14.5549 10.5864 14.5756L10.5883 14.5835C10.5944 14.6037 10.6003 14.6241 10.6063 14.6446C10.6106 14.6611 10.6148 14.6782 10.619 14.6952C10.6249 14.7157 10.6305 14.7367 10.6361 14.7578C10.6416 14.7791 10.6467 14.8009 10.6519 14.8227C10.658 14.8436 10.6641 14.8648 10.67 14.8861C10.6752 14.9072 10.68 14.9285 10.6848 14.95C10.6957 14.9877 10.706 15.0256 10.7157 15.0638C10.7468 15.1764 10.7758 15.2898 10.8048 15.4031C10.8127 15.4341 10.8206 15.4651 10.8286 15.4961C10.8561 15.598 10.8829 15.7003 10.9089 15.8025L10.9258 15.8636C10.9311 15.8853 10.9357 15.9071 10.9402 15.9293C10.9479 15.9505 10.9558 15.9716 10.9639 15.993C10.9732 16.067 10.9745 16.1425 10.96 16.216C10.9544 16.2323 10.9492 16.2489 10.9443 16.2656C10.9139 16.3237 10.8736 16.3764 10.8206 16.4157C10.7333 16.4646 10.6379 16.4953 10.5414 16.52C10.3963 16.5588 10.2508 16.5961 10.1047 16.6314L10.0419 16.6477C10.0153 16.6537 9.98859 16.6588 9.96192 16.6638C9.93815 16.6697 9.91437 16.6753 9.8906 16.6808C9.89108 16.7193 9.89236 16.7583 9.89413 16.7972C9.90582 16.8491 9.9083 16.9024 9.91077 16.9556C9.91125 16.966 9.91173 16.9764 9.91228 16.9868C9.91598 17.0039 9.91823 17.0213 9.92049 17.0387C9.92235 17.053 9.92422 17.0674 9.9269 17.0817L9.93317 17.0733C9.93377 17.0853 9.93162 17.0969 9.92947 17.1085C9.92702 17.1218 9.92456 17.135 9.9261 17.1489C9.94393 17.2658 9.95357 17.384 9.95935 17.5021C9.97092 17.5602 9.97349 17.6195 9.97574 17.6785C9.99116 17.7894 9.99903 17.9016 10.0059 18.0136C10.0519 18.0085 10.097 17.998 10.1417 17.9863C10.1582 17.9805 10.1749 17.9752 10.1916 17.9701C10.2132 17.964 10.2349 17.9587 10.2565 17.9536C10.3705 17.9221 10.4851 17.8929 10.5996 17.8638L10.6233 17.8578C10.639 17.8534 10.6549 17.8494 10.6708 17.8454C10.6816 17.8426 10.6924 17.8399 10.7031 17.8371L10.7651 17.8191C10.8157 17.8072 10.8659 17.7941 10.9162 17.781C10.9632 17.7688 11.0102 17.7565 11.0575 17.7453C11.0757 17.74 11.0942 17.7353 11.1126 17.7305C11.116 17.7297 11.1194 17.7288 11.1227 17.7279C11.1431 17.7225 11.1637 17.7174 11.1844 17.7127C11.2036 17.7069 11.223 17.7015 11.2423 17.6961C11.2496 17.694 11.2569 17.692 11.2643 17.6899C11.2824 17.6858 11.3005 17.6812 11.3185 17.6767C11.3339 17.6729 11.3493 17.669 11.3648 17.6654C11.3857 17.6593 11.4067 17.6538 11.4279 17.6487C11.4492 17.6426 11.4707 17.6373 11.4922 17.632C11.5137 17.6262 11.5354 17.6214 11.5571 17.6167C11.5773 17.6106 11.5977 17.6047 11.6183 17.5992C11.6394 17.5938 11.6606 17.589 11.6819 17.5846C11.7034 17.5785 11.7253 17.5732 11.7473 17.5681C11.7679 17.5625 11.7887 17.5572 11.8096 17.5524C11.8312 17.5463 11.8527 17.5408 11.8745 17.5355C11.8962 17.5298 11.9181 17.5248 11.9402 17.5201C11.9785 17.5092 12.0172 17.4989 12.0559 17.4895C12.0733 17.4842 12.0907 17.4793 12.1082 17.4743C12.1222 17.4703 12.1363 17.4663 12.1504 17.4622C12.1549 17.4712 12.164 17.4888 12.1689 17.4983L12.1693 17.4991C12.1735 17.5202 12.1784 17.5414 12.1833 17.5625C12.1871 17.5792 12.191 17.5959 12.1945 17.6127C12.2109 17.6726 12.2265 17.7326 12.2416 17.7929C12.2474 17.8138 12.2527 17.8351 12.258 17.8565C12.2697 17.9003 12.2815 17.944 12.2934 17.9878C12.3193 18.0836 12.3453 18.1796 12.3695 18.276C12.3863 18.3389 12.403 18.4018 12.4183 18.4652C12.4231 18.4821 12.4275 18.499 12.4319 18.5163C12.433 18.5205 12.4341 18.5247 12.4352 18.5289C12.4394 18.5436 12.4431 18.5584 12.4468 18.5733C12.4484 18.5796 12.4499 18.586 12.4516 18.5923C12.4684 18.6522 12.4839 18.7127 12.4983 18.7733C12.5102 18.815 12.5218 18.8573 12.5317 18.8998L12.55 18.962C12.5542 18.9791 12.5582 18.9966 12.5621 19.0142C12.582 19.0855 12.601 19.1572 12.6133 19.2305C12.6408 19.2262 12.6683 19.2211 12.6956 19.215L12.7288 19.2071C12.7497 19.1999 12.7708 19.193 12.792 19.1864C12.813 19.1814 12.8342 19.1771 12.8556 19.1728C12.893 19.1612 12.9308 19.1508 12.9688 19.1413C13.1131 19.103 13.2573 19.0651 13.4021 19.0291C13.4189 19.0242 13.436 19.0196 13.4531 19.015C13.4627 19.0124 13.4723 19.0098 13.4819 19.0071C13.4955 19.0038 13.509 19.0004 13.5225 18.997C13.5705 18.9849 13.6185 18.9728 13.6673 18.9648L13.6662 18.9508L13.6892 18.9543C13.6811 18.9124 13.6697 18.8713 13.6584 18.8302C13.6541 18.8148 13.6499 18.7995 13.6458 18.7841C13.6418 18.7706 13.638 18.7571 13.6342 18.7436C13.6306 18.7309 13.627 18.7182 13.6233 18.7056C13.6119 18.6586 13.5997 18.6119 13.5875 18.5652C13.5744 18.5153 13.5613 18.4655 13.5494 18.4154C13.5459 18.4032 13.5426 18.3911 13.5394 18.379C13.5355 18.3647 13.5316 18.3505 13.5275 18.3363C13.5207 18.3094 13.5137 18.2825 13.5066 18.2556C13.494 18.2075 13.4814 18.1594 13.4699 18.111C13.458 18.068 13.4467 18.025 13.4366 17.9817C13.4305 17.9608 13.4251 17.9401 13.4198 17.9194C13.4085 17.881 13.3981 17.8425 13.3888 17.8039C13.3828 17.7823 13.3773 17.7612 13.3722 17.7401C13.3663 17.7188 13.361 17.6976 13.3558 17.6766C13.3499 17.6554 13.3444 17.6344 13.3393 17.6135C13.3333 17.5914 13.328 17.5696 13.3227 17.5477C13.3123 17.5102 13.302 17.4726 13.2925 17.4349C13.2808 17.3929 13.2697 17.351 13.2591 17.3088C13.2352 17.2234 13.2138 17.1372 13.1958 17.0504C13.1899 17.029 13.1846 17.0079 13.1796 16.9867C13.1738 16.9647 13.1688 16.9427 13.164 16.9209C13.1582 16.8994 13.1531 16.878 13.1483 16.8569C13.1339 16.8024 13.1208 16.7477 13.1077 16.693C13.103 16.6735 13.0984 16.6541 13.0936 16.6346C13.088 16.6131 13.0822 16.5917 13.076 16.5709C13.0732 16.5531 13.0708 16.5356 13.0684 16.5181C13.0623 16.4971 13.0567 16.476 13.0514 16.4552C13.045 16.4306 13.0396 16.4059 13.0342 16.3815L13.0336 16.3788C13.0278 16.3574 13.0228 16.3359 13.018 16.3147C13.0127 16.2948 13.0082 16.2752 13.0038 16.2556C13.0031 16.2526 13.0024 16.2495 13.0018 16.2465C12.9981 16.2336 12.9946 16.2206 12.9911 16.2076C12.9875 16.194 12.9838 16.1804 12.9799 16.1668C12.9759 16.1469 12.9715 16.1272 12.967 16.1076C12.9631 16.0901 12.9591 16.0727 12.9555 16.0552C12.9511 16.0395 12.9471 16.0239 12.943 16.0083C12.9402 15.9976 12.9375 15.987 12.9346 15.9763C12.9268 15.9412 12.9179 15.9065 12.9091 15.8717C12.9029 15.8476 12.8967 15.8235 12.8909 15.7993C12.8839 15.7744 12.8772 15.7495 12.8706 15.7245C12.8645 15.7019 12.8585 15.6794 12.8522 15.6569C12.8405 15.6089 12.8279 15.5611 12.8154 15.5133C12.8024 15.464 12.7895 15.4148 12.7775 15.3653C12.7717 15.3443 12.7664 15.3236 12.7613 15.3027C12.7573 15.2888 12.7535 15.2747 12.7497 15.2607C12.7463 15.2483 12.7429 15.2358 12.7394 15.2235C12.7353 15.2064 12.7308 15.1895 12.7264 15.1727C12.7222 15.157 12.7181 15.1413 12.7142 15.1256C12.7085 15.1056 12.7034 15.0858 12.6982 15.0661L12.6972 15.062C12.6914 15.0405 12.6863 15.0193 12.6811 14.998C12.675 14.9765 12.6696 14.9551 12.6641 14.9338C12.659 14.9152 12.6545 14.8964 12.6501 14.878C12.6495 14.8754 12.6489 14.8729 12.6483 14.8704C12.6428 14.8509 12.6375 14.8312 12.6322 14.8116C12.6244 14.7829 12.6167 14.7542 12.6082 14.7258C12.6064 14.7141 12.6045 14.7024 12.6029 14.691C12.5977 14.6752 12.5928 14.6593 12.588 14.6435C12.5864 14.6384 12.5849 14.6332 12.5833 14.6281C12.5784 14.6078 12.5738 14.5874 12.5693 14.5672L12.5683 14.5628C12.551 14.505 12.5357 14.4469 12.5216 14.3885C12.5139 14.3612 12.5066 14.3338 12.4993 14.3064C12.4939 14.2863 12.4886 14.2662 12.483 14.2461C12.4733 14.205 12.4625 14.1642 12.4518 14.1233C12.4425 14.0882 12.4332 14.053 12.4246 14.0176C12.4164 13.9897 12.409 13.9616 12.4016 13.9335C12.3964 13.9139 12.3913 13.8943 12.3859 13.8748C12.3819 13.8578 12.3777 13.841 12.3735 13.8242C12.3695 13.8079 12.3654 13.7916 12.3616 13.7753C12.3579 13.7625 12.3543 13.7498 12.3508 13.737C12.347 13.7236 12.3432 13.7101 12.3393 13.6967C12.3283 13.6586 12.3169 13.6207 12.3047 13.583C12.3078 13.5794 12.3127 13.5731 12.317 13.5677C12.3191 13.565 12.3211 13.5626 12.3226 13.5607L12.3434 13.5594C12.369 13.5518 12.3947 13.5448 12.4203 13.5378C12.4423 13.5318 12.4643 13.5258 12.4861 13.5195C12.5115 13.5125 12.537 13.5053 12.5625 13.4982C12.5906 13.4903 12.6188 13.4825 12.6469 13.4747C12.6636 13.4697 12.6806 13.4652 12.6977 13.4611C12.7367 13.4487 12.776 13.4369 12.8152 13.4251C12.8459 13.4159 12.8767 13.4067 12.9073 13.3972C12.9122 13.3955 12.917 13.3937 12.9219 13.392C12.9641 13.3768 13.0062 13.3617 13.049 13.3479C13.0714 13.3393 13.0939 13.3309 13.1164 13.3225C13.1416 13.3131 13.1668 13.3037 13.1918 13.294C13.2528 13.2706 13.3134 13.2458 13.3739 13.2211C13.3834 13.2172 13.393 13.2133 13.4026 13.2094L13.4165 13.2062C13.4482 13.1915 13.4805 13.1777 13.5128 13.164C13.5288 13.157 13.5447 13.1498 13.5607 13.1426C13.5926 13.1283 13.6245 13.1139 13.6569 13.1005C13.6936 13.0852 13.7296 13.0685 13.7657 13.0517C13.7774 13.0463 13.7891 13.0409 13.8008 13.0355C13.8631 13.012 13.923 12.9828 13.9817 12.9509L14.0022 12.9541L14.0043 12.9419C14.0195 12.9363 14.0346 12.9304 14.0498 12.9245C14.058 12.9213 14.0663 12.9181 14.0745 12.9149C14.0959 12.9036 14.1176 12.8925 14.1394 12.8816C14.144 12.8792 14.1486 12.8769 14.1532 12.8746C14.1869 12.8575 14.2206 12.8404 14.2538 12.8222L14.2761 12.8251L14.2787 12.8047L14.3075 12.8111L14.3104 12.789L14.3394 12.7935L14.3412 12.7819C14.4074 12.7549 14.4697 12.7199 14.532 12.6849C14.5677 12.6649 14.6033 12.6449 14.6397 12.6264C14.7353 12.5763 14.825 12.5162 14.9145 12.4562C14.9294 12.4462 14.9443 12.4362 14.9592 12.4263C15.33 12.1665 15.6514 11.842 15.9288 11.4854C16.0482 11.326 16.1476 11.15 16.1998 10.9569C16.2043 10.934 16.2088 10.911 16.2145 10.8885C16.215 10.8854 16.2155 10.8823 16.216 10.8792C16.2207 10.8498 16.2255 10.8205 16.2324 10.7916C16.2343 10.7701 16.2353 10.7484 16.2363 10.7268C16.2383 10.6844 16.2402 10.6421 16.2485 10.6005L16.2496 10.553C16.2397 10.5019 16.2379 10.4502 16.236 10.3985C16.2354 10.3802 16.2347 10.3619 16.2337 10.3436C16.2209 10.2798 16.2096 10.2156 16.2005 10.1515C16.1942 10.1298 16.1887 10.1083 16.1836 10.0866C16.178 10.0653 16.173 10.0438 16.1685 10.0224C16.1634 10.0069 16.1587 9.99125 16.1539 9.97568C16.1507 9.96508 16.1474 9.95449 16.1441 9.94395C16.1423 9.93783 16.1404 9.93173 16.1386 9.92563C16.1322 9.90423 16.1259 9.88295 16.12 9.86147C16.1128 9.84296 16.1057 9.8244 16.0986 9.80585C16.0894 9.78191 16.0802 9.75798 16.0708 9.7342C16.0602 9.70676 16.05 9.67932 16.04 9.65188C16.0302 9.63631 16.0206 9.6209 16.0111 9.6055C16.0117 9.59988 16.0133 9.58881 16.0141 9.58319L15.9939 9.5803L15.9974 9.55671L15.974 9.52574C15.9218 9.42159 15.8564 9.32498 15.7851 9.23302C15.6114 9.02423 15.3897 8.85637 15.1386 8.75158C15.0493 8.71467 14.9579 8.68369 14.8652 8.65673C14.8434 8.65224 14.8217 8.64758 14.8003 8.64261C14.7902 8.63974 14.7802 8.63698 14.7701 8.63422C14.7582 8.63096 14.7464 8.62771 14.7346 8.62431C14.703 8.61982 14.6716 8.61485 14.6408 8.60795C14.4863 8.58243 14.3304 8.56718 14.1738 8.56574C14.1279 8.55718 14.0814 8.55735 14.0352 8.55753L14.0283 8.55755C14.0195 8.55771 14.0108 8.55785 14.0021 8.55799C13.9842 8.55828 13.9665 8.55857 13.9488 8.559C13.8926 8.56976 13.8355 8.57053 13.7784 8.57131C13.7486 8.57171 13.7189 8.57211 13.6893 8.57392C13.5972 8.58383 13.505 8.59423 13.4128 8.60462C13.3557 8.61107 13.2985 8.61751 13.2414 8.62383C13.2091 8.63073 13.1765 8.63679 13.144 8.64285C13.1115 8.64891 13.079 8.65497 13.0466 8.66187L13.0246 8.62945L13.0218 8.5935C13.0151 8.572 13.009 8.55033 13.0032 8.52867C12.9952 8.49641 12.9869 8.46419 12.9786 8.43198C12.9704 8.39976 12.9621 8.36754 12.9541 8.33529C12.9493 8.31819 12.945 8.30121 12.9408 8.28424C12.9399 8.28066 12.939 8.27708 12.9381 8.2735C12.9324 8.25296 12.9269 8.23242 12.9218 8.21188C12.9098 8.16602 12.8975 8.12029 12.8852 8.07457C12.8653 8.00106 12.8455 7.92759 12.8273 7.85368C12.8161 7.81196 12.8051 7.77007 12.7952 7.72803C12.7901 7.70904 12.7849 7.69006 12.7798 7.67108C12.7514 7.56603 12.723 7.46097 12.6972 7.35523C12.6922 7.33823 12.6878 7.32103 12.6833 7.30387C12.6823 7.29996 12.6813 7.29606 12.6803 7.29216C12.6749 7.27194 12.6699 7.25172 12.6651 7.23134C12.6593 7.21162 12.6539 7.19177 12.6485 7.17204L12.6472 7.16714L12.6451 7.15894C12.6292 7.09796 12.6134 7.03695 12.6006 6.97521C12.5949 6.95467 12.5894 6.93396 12.5844 6.91342C12.5399 6.9176 12.497 6.92952 12.4542 6.94144ZM12.7175 10.0754C12.7209 10.075 12.7243 10.0747 12.7277 10.0743C12.9234 10.0492 13.1227 10.0349 13.3192 10.0595C13.3505 10.0623 13.3814 10.0674 13.4124 10.0726C13.4352 10.0764 13.458 10.0802 13.481 10.0831C13.5704 10.1044 13.6596 10.1306 13.741 10.1741L13.7613 10.1744L13.7651 10.1845C13.9365 10.2694 14.0773 10.4154 14.1549 10.5902L14.1648 10.5949L14.1666 10.6141C14.1875 10.6584 14.204 10.7048 14.2183 10.7518C14.2191 10.7545 14.2198 10.7572 14.2206 10.7599C14.2267 10.7822 14.233 10.8047 14.24 10.8269C14.2429 10.8486 14.2459 10.8706 14.2492 10.8924C14.2707 11.0031 14.2636 11.1177 14.2419 11.228C14.2268 11.2759 14.2116 11.3239 14.1942 11.3713C14.1881 11.3841 14.1822 11.3971 14.1765 11.4103L14.1727 11.4152C14.1398 11.479 14.0985 11.5377 14.0561 11.5953C13.9814 11.681 13.8967 11.7574 13.8061 11.8261C13.7718 11.8511 13.7359 11.8738 13.7001 11.8964C13.6692 11.9159 13.6384 11.9354 13.6085 11.9564L13.5876 11.9548L13.5859 11.9753L13.5563 11.9712L13.5534 11.9906L13.5341 11.9912C13.5018 12.01 13.4689 12.0273 13.4353 12.0432C13.4075 12.0569 13.3799 12.0711 13.3528 12.0859L13.3309 12.0841L13.3292 12.0955C13.299 12.1069 13.2689 12.1188 13.239 12.1307L13.2265 12.1363C13.1906 12.1517 13.1539 12.1656 13.1172 12.1796C13.1054 12.1841 13.0936 12.1886 13.0818 12.1931C13.0019 12.2228 12.9208 12.2488 12.8395 12.2746C12.8281 12.2781 12.8167 12.2816 12.8052 12.2851C12.79 12.2898 12.7748 12.2945 12.7595 12.299C12.7241 12.3097 12.6886 12.3198 12.6532 12.3299L12.6461 12.3319C12.6087 12.3428 12.5712 12.3534 12.5335 12.3629C12.5231 12.3658 12.5127 12.3685 12.5023 12.3713C12.4861 12.3757 12.4698 12.38 12.4536 12.3847C12.4421 12.3876 12.4306 12.3905 12.4191 12.3933C12.366 12.4066 12.3129 12.4199 12.2602 12.4346C12.2442 12.4369 12.2283 12.4393 12.2124 12.4418C12.1916 12.4479 12.1709 12.454 12.1502 12.4598C12.1065 12.4722 12.0623 12.4834 12.0175 12.4903L12.0075 12.4306C12.0018 12.4086 11.9966 12.3866 11.9918 12.3647C11.9892 12.3557 11.9866 12.3467 11.984 12.3378C11.9788 12.3196 11.9736 12.3014 11.9679 12.2835L11.9608 12.2384C11.9539 12.2172 11.9475 12.1958 11.9414 12.1746C11.9361 12.1535 11.9312 12.1323 11.9267 12.1113C11.9099 12.0514 11.8936 11.9914 11.8784 11.931C11.8592 11.866 11.8424 11.8003 11.8256 11.7346C11.8098 11.6724 11.7939 11.6101 11.7759 11.5484C11.7599 11.4823 11.7426 11.4164 11.7254 11.3505C11.7117 11.2981 11.6981 11.2458 11.685 11.1933C11.6745 11.1559 11.6648 11.1183 11.6552 11.0807C11.6481 11.0531 11.641 11.0255 11.6336 10.998C11.6306 10.9866 11.6276 10.9753 11.6246 10.9639C11.618 10.9391 11.6115 10.9144 11.6053 10.8895C11.5997 10.8707 11.5947 10.8517 11.5897 10.833C11.589 10.8306 11.5884 10.8283 11.5878 10.826C11.5833 10.8096 11.5792 10.7931 11.5752 10.7767C11.574 10.7719 11.5728 10.7671 11.5716 10.7622C11.5664 10.7431 11.5617 10.7238 11.5571 10.7047C11.5566 10.7026 11.556 10.7004 11.5555 10.6982C11.5447 10.6599 11.5345 10.6215 11.5251 10.583C11.5192 10.5616 11.5139 10.5405 11.5086 10.5191C11.5051 10.5078 11.5016 10.4965 11.4981 10.4852C11.488 10.452 11.4778 10.4187 11.4665 10.3859C11.4686 10.3842 11.4706 10.3825 11.4727 10.3807C11.4817 10.3732 11.4906 10.3656 11.4998 10.3583C11.5617 10.3495 11.6215 10.3317 11.6814 10.3138C11.7189 10.3026 11.7564 10.2914 11.7945 10.2824C11.8908 10.2537 11.9873 10.2259 12.085 10.2022C12.1068 10.1964 12.1288 10.191 12.1507 10.1855C12.1772 10.1789 12.2037 10.1724 12.23 10.1653C12.2536 10.1606 12.277 10.1555 12.3005 10.1504C12.3194 10.1463 12.3384 10.1422 12.3574 10.1383C12.3839 10.1319 12.4109 10.1269 12.4379 10.1221C12.4649 10.1161 12.492 10.1113 12.5194 10.1065C12.5508 10.0996 12.5828 10.0946 12.6148 10.09C12.6487 10.0833 12.6832 10.0793 12.7175 10.0754Z" fill="white"/>
<path fill-rule="evenodd" clip-rule="evenodd" d="M16.2324 11.8246C16.2638 11.8254 16.2951 11.8277 16.3266 11.8306C16.3741 11.8487 16.4225 11.8651 16.4712 11.881C16.663 11.9532 16.8439 12.054 17.0031 12.1835C17.1206 12.2862 17.231 12.3984 17.3229 12.5251C17.4162 12.6562 17.4943 12.7981 17.559 12.9454C17.5716 12.9766 17.5844 13.0079 17.5981 13.0387C17.6114 13.0772 17.6252 13.1155 17.6387 13.1542C17.652 13.1959 17.6646 13.2382 17.6776 13.2802C17.6824 13.3019 17.6879 13.3237 17.6937 13.3454C17.6986 13.3665 17.7039 13.3879 17.7097 13.4092C17.7147 13.4299 17.7197 13.4505 17.7258 13.4713C17.7447 13.5726 17.7602 13.6745 17.7764 13.7764C17.7783 13.8303 17.7822 13.8842 17.7921 13.9375C17.7966 14.0712 17.796 14.2051 17.7907 14.3389C17.7772 14.4135 17.7671 14.4888 17.7582 14.5642C17.747 14.6072 17.7367 14.6505 17.7266 14.694C17.7144 14.7311 17.7028 14.7687 17.6922 14.8064C17.6871 14.8221 17.6822 14.8382 17.6776 14.8544C17.667 14.8815 17.6569 14.9089 17.6474 14.9367C17.6326 14.9681 17.6178 14.9994 17.6021 15.0306C17.6022 15.036 17.6029 15.0471 17.6031 15.0526L17.5838 15.0561C17.5849 15.0631 17.5873 15.0773 17.5886 15.0843L17.5687 15.0872C17.5688 15.0925 17.5692 15.1033 17.5693 15.1086C17.4182 15.3809 17.2106 15.6195 16.9656 15.8115C16.9441 15.8275 16.9227 15.8437 16.9012 15.8598C16.7579 15.9694 16.6043 16.0655 16.4453 16.1507L16.4434 16.1624C16.4381 16.162 16.4273 16.1612 16.422 16.1607C16.3651 16.1971 16.3051 16.2282 16.2448 16.2586C16.2394 16.2579 16.2286 16.257 16.2231 16.2565L16.2201 16.2759C16.2145 16.2754 16.2034 16.2746 16.1977 16.2741C16.1883 16.2796 16.1692 16.2903 16.1595 16.2958L16.1558 16.3017C16.146 16.3054 16.1266 16.3128 16.1169 16.3167C16.1091 16.3221 16.0933 16.3332 16.0855 16.3387C16.0811 16.3383 16.0724 16.3379 16.0681 16.3375C16.0357 16.3536 16.0029 16.369 15.9706 16.385L15.959 16.3874C15.8781 16.4226 15.7961 16.455 15.7142 16.4874C15.6087 16.5296 15.501 16.5662 15.3947 16.6062C15.3296 16.6277 15.2639 16.6474 15.1997 16.671C15.1814 16.6737 15.1631 16.6768 15.1451 16.6798C15.1452 16.6964 15.1455 16.7132 15.146 16.7301C15.1695 16.7922 15.1857 16.8567 15.2032 16.9206C15.2313 17.0401 15.2655 17.1581 15.2946 17.2773C15.3001 17.298 15.3057 17.319 15.3112 17.3401C15.3186 17.3664 15.3253 17.393 15.333 17.4197C15.3418 17.4577 15.3521 17.4957 15.3622 17.5338C15.3679 17.5546 15.3738 17.5755 15.3801 17.5965C15.3849 17.6174 15.3899 17.6382 15.3957 17.6591C15.401 17.6809 15.4064 17.7026 15.4127 17.7246C15.422 17.7628 15.4321 17.801 15.4426 17.839C15.4482 17.8603 15.454 17.8818 15.4601 17.9035C15.4651 17.9245 15.47 17.9459 15.476 17.9671C15.4811 17.9884 15.4864 18.0101 15.4924 18.0316C15.4975 18.052 15.5031 18.0723 15.5091 18.0929C15.5226 18.1473 15.5378 18.2014 15.5512 18.2561C15.5621 18.2941 15.5725 18.3323 15.5835 18.3707C15.5902 18.3978 15.5953 18.4256 15.6005 18.4535C15.5693 18.4636 15.5378 18.4731 15.5067 18.4827C15.4628 18.491 15.4198 18.5018 15.3769 18.5135C15.3553 18.519 15.334 18.5244 15.3128 18.5307C15.2911 18.5356 15.2699 18.5409 15.2487 18.5469C15.2268 18.552 15.2055 18.5576 15.1843 18.5637C15.1637 18.5687 15.1436 18.574 15.1235 18.5796C15.0471 18.5981 14.9714 18.6188 14.8953 18.6382C14.8683 18.6457 14.8411 18.6525 14.8143 18.6602C14.7933 18.665 14.7725 18.6701 14.7518 18.6759C14.6806 18.6936 14.6108 18.7157 14.5393 18.7326C14.4973 18.5734 14.4565 18.4138 14.4125 18.2553C14.4067 18.2343 14.401 18.2136 14.3952 18.193C14.3897 18.1709 14.3844 18.149 14.3786 18.1274C14.3592 18.0524 14.3388 17.9776 14.3198 17.9025C14.2953 17.8176 14.2757 17.7315 14.2504 17.6469C14.2451 17.6257 14.2397 17.6047 14.2342 17.584C14.2292 17.567 14.2241 17.5501 14.219 17.5336C14.2137 17.5116 14.2087 17.4899 14.2031 17.4684C14.1974 17.4481 14.1918 17.4282 14.186 17.4083C14.1655 17.3264 14.1443 17.2449 14.1213 17.1637C14.1161 17.1425 14.1113 17.1218 14.1057 17.1011C14.0924 17.047 14.0771 16.9937 14.0631 16.94C14.0508 16.8965 14.0394 16.8527 14.0267 16.8095C14.0212 16.7888 14.0157 16.7683 14.0101 16.748C13.9907 16.6723 13.9695 16.5972 13.9516 16.5211C13.9436 16.495 13.9364 16.4686 13.9287 16.4428C13.9237 16.4211 13.919 16.4 13.9137 16.3788C13.8986 16.325 13.8834 16.2713 13.8705 16.2168C13.8582 16.1745 13.8463 16.1321 13.8339 16.0899C13.8283 16.0676 13.8228 16.0453 13.8169 16.0233C13.8116 16.0026 13.8059 15.9822 13.8005 15.9618C13.7806 15.8729 13.7489 15.7869 13.7298 15.6979C13.7733 15.6771 13.8202 15.6654 13.8665 15.6523C13.8829 15.6475 13.8993 15.6428 13.9158 15.638C13.9428 15.6298 13.97 15.6213 13.9971 15.613C14.0291 15.6016 14.0614 15.5908 14.0938 15.5802C14.1304 15.5672 14.1675 15.5545 14.2042 15.5412C14.2434 15.5266 14.2826 15.5119 14.3222 15.4987C14.347 15.4878 14.3719 15.477 14.3969 15.4663C14.4263 15.4549 14.4561 15.4441 14.4859 15.4339L14.4877 15.4209C14.4949 15.4221 14.5094 15.425 14.5166 15.4265L14.5197 15.4061C14.5248 15.4064 14.5353 15.4071 14.5406 15.4075C14.5801 15.3876 14.6206 15.3693 14.662 15.3535L14.6651 15.3488C14.6745 15.3435 14.6935 15.3332 14.7028 15.3281C14.7068 15.3276 14.7149 15.3267 14.7189 15.3262C14.876 15.243 15.0284 15.1509 15.1688 15.0416C15.3708 14.8828 15.5396 14.6713 15.6039 14.4188C15.6172 14.3293 15.6304 14.2391 15.6226 14.1484C15.6148 14.1107 15.6101 14.0727 15.6064 14.0345C15.595 13.9915 15.5839 13.9484 15.574 13.9053C15.5515 13.8454 15.5287 13.7857 15.4994 13.7289C15.4991 13.7252 15.4982 13.718 15.4977 13.7145C15.4014 13.554 15.2683 13.4128 15.0983 13.3301L15.0945 13.3186C15.0872 13.3197 15.0731 13.3221 15.0659 13.3232L15.0643 13.3094C15.0128 13.2889 14.9614 13.269 14.9092 13.2512C14.8887 13.2454 14.8681 13.2399 14.8475 13.2348C14.8257 13.228 14.8039 13.2219 14.7823 13.2155C14.7455 13.2101 14.7086 13.2059 14.6724 13.1987C14.6418 13.1948 14.6111 13.1918 14.5804 13.1889C14.582 13.1778 14.5836 13.1667 14.5855 13.156C14.8297 13.0168 15.0688 12.8679 15.2962 12.7026C15.3836 12.6392 15.4683 12.5722 15.5531 12.5056C15.729 12.3629 15.8855 12.1987 16.044 12.0376C16.1112 11.9707 16.1719 11.8975 16.2324 11.8246Z" fill="white"/>
</svg>
