<svg width="26" height="26" viewBox="0 0 26 26" fill="none" xmlns="http://www.w3.org/2000/svg">
<path opacity="0.2" d="M13 26C20.1797 26 26 20.1797 26 13C26 5.8203 20.1797 0 13 0C5.8203 0 0 5.8203 0 13C0 20.1797 5.8203 26 13 26Z" fill="#FF18A2"/>
<path fill-rule="evenodd" clip-rule="evenodd" d="M18.9687 11.0301C19.2181 9.45413 17.9472 8.60691 16.2095 8.04177L16.7739 5.90703L15.3969 5.58315L14.8461 7.66187C14.4883 7.57675 14.1199 7.49715 13.7518 7.41759L13.7518 7.41759L13.7454 7.41621L14.2972 5.32388L12.9222 5L12.3593 7.13474L9.58423 6.48538L9.21796 7.87353C9.21796 7.87353 10.239 8.09458 10.2178 8.10839C10.775 8.23982 10.8762 8.58851 10.8591 8.86418L9.31477 14.7125C9.24656 14.8725 9.0737 15.1126 8.68412 15.0203C8.69811 15.0393 7.68403 14.7835 7.68403 14.7835L7 16.2733L9.77171 16.9334L9.20207 19.094L10.5765 19.4177L11.1408 17.2813C11.5171 17.3775 11.8808 17.4664 12.2373 17.55L11.6751 19.6761L13.052 20L13.6217 17.8445C15.9684 18.2646 17.7333 18.0947 18.4751 16.0916C19.0727 14.478 18.4453 13.5472 17.2105 12.9398C18.1095 12.7432 18.7868 12.185 18.9675 11.0311L18.9687 11.0301ZM11.8548 15.7825L11.8548 15.7825L11.8548 15.7825C11.7538 15.7573 11.6636 15.7348 11.5865 15.7167L12.3424 12.856C12.4364 12.8782 12.5514 12.9026 12.6818 12.9302L12.6818 12.9302C13.8432 13.1766 16.2216 13.681 15.8231 15.194L15.8233 15.1942C15.4321 16.6747 12.9784 16.0627 11.8548 15.7825ZM12.9178 11.6038C13.8557 11.8397 15.8941 12.3522 16.2495 11.0073H16.2491C16.6128 9.63157 14.6282 9.21602 13.6583 9.01296C13.5492 8.9901 13.4529 8.96994 13.3743 8.9514L12.6892 11.5475C12.7546 11.5628 12.8316 11.5822 12.9178 11.6038Z" fill="#FF18A2"/>
<path d="M6.74996 13.5888L6.94796 13.293C7.11505 13.3958 7.22592 13.5183 7.28057 13.6606C7.33469 13.8019 7.3358 13.9618 7.28388 14.1404C7.21964 14.3613 7.09156 14.521 6.89962 14.6195C6.70692 14.7178 6.47966 14.7289 6.21784 14.6528C5.94089 14.5722 5.74678 14.4383 5.6355 14.2508C5.52347 14.0631 5.50133 13.8528 5.56908 13.6197C5.62826 13.4161 5.73648 13.2683 5.89376 13.1761C5.98688 13.1212 6.10554 13.0941 6.24972 13.095L6.23249 13.4506C6.1405 13.4452 6.06041 13.4667 5.99221 13.515C5.92423 13.5625 5.87726 13.6309 5.8513 13.7202C5.81544 13.8435 5.83056 13.9567 5.89666 14.0596C5.96297 14.1618 6.09526 14.2417 6.29351 14.2993C6.50388 14.3605 6.6647 14.3662 6.77599 14.3165C6.88728 14.2668 6.96052 14.1814 6.99572 14.0603C7.02168 13.971 7.01563 13.8859 6.97758 13.8051C6.93952 13.7243 6.86365 13.6522 6.74996 13.5888ZM6.69903 12.9806C6.52953 12.9314 6.39464 12.8647 6.29436 12.7805C6.22061 12.718 6.15952 12.6445 6.11109 12.5598C6.06288 12.4744 6.03384 12.388 6.02396 12.3006C6.01021 12.1842 6.02302 12.0582 6.0624 11.9228C6.13367 11.6776 6.2667 11.5037 6.46147 11.4012C6.65647 11.2978 6.88941 11.2855 7.16031 11.3643C7.42894 11.4424 7.61807 11.5766 7.72771 11.7668C7.8366 11.9569 7.85551 12.1741 7.78446 12.4185C7.71252 12.6659 7.58003 12.8408 7.38699 12.9431C7.19319 13.0451 6.96387 13.0576 6.69903 12.9806ZM6.78832 12.6311C6.97674 12.6859 7.13241 12.684 7.25532 12.6253C7.37747 12.5665 7.45802 12.4701 7.49696 12.3362C7.5359 12.2022 7.51974 12.0785 7.4485 11.9651C7.37672 11.8507 7.24435 11.7654 7.05139 11.7093C6.8607 11.6539 6.70624 11.6545 6.58799 11.7112C6.46996 11.7672 6.39081 11.8644 6.35056 12.0029C6.3103 12.1414 6.32552 12.2668 6.39623 12.3793C6.46618 12.4915 6.59688 12.5755 6.78832 12.6311ZM8.06692 11.341L6.40293 10.8573L6.60851 10.1502C6.66021 9.97233 6.71285 9.84771 6.76643 9.7763C6.81948 9.70391 6.89126 9.65461 6.98177 9.6284C7.07227 9.60219 7.16671 9.60338 7.26508 9.63198C7.38994 9.66828 7.48256 9.73501 7.54294 9.83217C7.60257 9.9291 7.62175 10.0537 7.60048 10.2059C7.66398 10.1456 7.72789 10.0993 7.79223 10.0671C7.85679 10.0342 7.96542 9.99643 8.11814 9.95384L8.50183 9.84504L8.38502 10.2468L7.95232 10.3845C7.79785 10.4331 7.69934 10.4685 7.65681 10.4906C7.61352 10.5125 7.58065 10.5395 7.5582 10.5715C7.535 10.6033 7.51218 10.6578 7.48974 10.735L7.46994 10.8031L8.16459 11.0051L8.06692 11.341ZM7.20434 10.7259L7.2766 10.4773C7.32346 10.3161 7.34591 10.2135 7.34395 10.1695C7.34199 10.1254 7.32766 10.0872 7.30096 10.0548C7.27427 10.0224 7.23595 9.99896 7.18601 9.98444C7.13001 9.96816 7.08059 9.97021 7.03774 9.99058C6.99435 10.01 6.96019 10.0456 6.93527 10.0974C6.92357 10.1236 6.89792 10.2047 6.85832 10.3409L6.7821 10.6031L7.20434 10.7259ZM8.55495 9.66229L6.89097 9.17855L7.24966 7.94475L7.53115 8.02658L7.27014 8.92441L7.63903 9.03165L7.88189 8.19625L8.16225 8.27776L7.91939 9.11315L8.37227 9.24481L8.64252 8.31521L8.92288 8.39671L8.55495 9.66229Z" fill="#FF18A2"/>
</svg>
