<svg width="26" height="26" viewBox="0 0 26 26" fill="none" xmlns="http://www.w3.org/2000/svg">
<path opacity="0.2" d="M13 26C20.1797 26 26 20.1797 26 13C26 5.8203 20.1797 0 13 0C5.8203 0 0 5.8203 0 13C0 20.1797 5.8203 26 13 26Z" fill="#35BAEB"/>
<path fill-rule="evenodd" clip-rule="evenodd" d="M9 5L13.1795 8.85393V13.7235C12.9895 13.7603 12.7875 13.8461 12.6214 13.956C12.2176 13.5401 9.78361 11.0195 9.01181 10.2119C9 10.0651 9 5 9 5ZM16.4446 11.8638C15.7205 11.2154 14.8061 10.787 13.785 10.7383V13.7113C14.0106 13.7479 14.2244 13.8461 14.4023 13.9683L16.4446 11.8638ZM15.1031 15.0572H17.9883C17.917 14.0047 17.5013 13.0628 16.8961 12.3164L14.8538 14.4208C14.9843 14.6044 15.0672 14.8247 15.1031 15.0572ZM12.1346 14.4085L9 11.1785V15.0572H11.8851C11.9209 14.8247 12.016 14.6044 12.1346 14.4085ZM9 15.6932H11.8851C11.9208 15.9136 12.0039 16.1337 12.1346 16.3051L10.0922 18.434C9.47493 17.6999 9.07127 16.7456 9 15.6932ZM10.5317 18.8745C11.256 19.523 12.1702 19.951 13.1911 20V17.027C12.9657 16.9902 12.7519 16.8925 12.5741 16.7702L10.5317 18.8745ZM13.785 20V17.027C14.0107 16.9909 14.2258 16.9032 14.4143 16.7702L16.4446 18.8622C15.7322 19.5106 14.8062 19.9267 13.785 20ZM14.8774 16.2807L16.9315 18.385C17.5371 17.6388 17.9289 16.709 18 15.6811H15.0912C15.0575 15.8932 14.985 16.0966 14.8774 16.2807Z" fill="#35BAEB"/>
</svg>
