<svg width="26" height="26" viewBox="0 0 26 26" fill="none" xmlns="http://www.w3.org/2000/svg">
<path opacity="0.2" d="M13 26C20.1797 26 26 20.1797 26 13C26 5.8203 20.1797 0 13 0C5.8203 0 0 5.8203 0 13C0 20.1797 5.8203 26 13 26Z" fill="#0D65AE"/>
<path fill-rule="evenodd" clip-rule="evenodd" d="M15.7854 5.07538C17.5292 7.52767 19.2251 10.0163 20.9287 12.4972C20.8989 12.4816 20.8393 12.4504 20.8096 12.4348C18.7483 11.3588 16.6327 10.388 14.5365 9.38345C14.933 7.94223 15.389 6.5166 15.7854 5.07538Z" fill="#0D65AE"/>
<path fill-rule="evenodd" clip-rule="evenodd" d="M5.58688 13.5213C7.71806 14.4856 9.81296 15.5317 11.9143 16.561C11.5062 17.9996 11.0735 19.4317 10.6641 20.8703C8.96567 18.4232 7.28405 15.9671 5.58688 13.5213Z" fill="#0D65AE"/>
<path opacity="0.71" fill-rule="evenodd" clip-rule="evenodd" d="M5.68146 12.4231C8.6353 11.4147 11.5879 10.4075 14.5365 9.38345C16.6327 10.388 18.7483 11.3588 20.8096 12.4348C16.1663 12.4764 11.5231 12.4374 6.87984 12.453C6.48081 12.4543 6.08049 12.4569 5.68146 12.4231Z" fill="#4382B6"/>
<path opacity="0.71" fill-rule="evenodd" clip-rule="evenodd" d="M5.48195 13.4771C10.6084 13.5005 15.7349 13.5057 20.8614 13.4836C19.7148 13.8007 18.6162 14.2595 17.4787 14.6077C15.6326 15.2835 13.7488 15.8527 11.9143 16.561C9.81296 15.5317 7.71806 14.4856 5.58689 13.5213L5.48195 13.4771Z" fill="#4382B6"/>
</svg>
