<svg width="26" height="26" viewBox="0 0 26 26" fill="none" xmlns="http://www.w3.org/2000/svg">
<path opacity="0.2" fill-rule="evenodd" clip-rule="evenodd" d="M26 13C26 20.1797 20.1797 26 13 26C5.8203 26 0 20.1797 0 13C0 5.8203 5.8203 0 13 0C20.1797 0 26 5.8203 26 13ZM19.5477 12.7634C19.5477 16.2729 16.7027 19.1179 13.1932 19.1179C9.68372 19.1179 6.83872 16.2729 6.83872 12.7634C6.83872 9.25396 9.68372 6.40896 13.1932 6.40896C16.7027 6.40896 19.5477 9.25396 19.5477 12.7634Z" fill="black"/>
<path fill-rule="evenodd" clip-rule="evenodd" d="M13 4C8.02948 4 4 8.02948 4 13C4 17.9705 8.02948 22 13 22C17.9705 22 22 17.9706 22 13C22 8.02939 17.9706 4 13 4ZM16.6557 10.4777C16.6805 11.9798 15.3708 12.4019 15.3708 12.4019C15.3708 12.4019 15.9046 11.886 15.8797 10.5647C15.8549 9.2434 14.8618 8.59081 14.8618 8.59081C14.8618 8.59081 16.631 8.97556 16.6557 10.4777ZM8.95486 17.6219L10.7674 17.5349V8.43538L8.95486 8.34862V8.49748C8.95486 8.49748 10.0639 8.78296 10.0639 10.43V15.3998C10.0639 17.3446 8.95486 17.4564 8.95486 17.4564V17.6219ZM13.6639 17.628C12.8756 17.6343 11.4128 17.5266 11.4128 17.5266V8.44798C11.7744 8.44329 12.0478 8.42203 12.2903 8.40317L12.2903 8.40317C12.6943 8.37176 13.0122 8.34704 13.5087 8.41684C14.3031 8.52853 14.986 9.30451 15.1722 10.0804C15.3584 10.8563 15.1599 11.5949 14.9052 11.9983C14.6505 12.4017 14.0921 12.6812 14.0921 12.6812C14.0921 12.6812 14.9363 12.9667 15.2344 13.2149C15.5325 13.4631 16.1096 14.1398 15.8861 15.6109C15.6627 17.082 14.4521 17.6219 13.6638 17.628H13.6639ZM16.5806 15.0753C16.6184 16.5605 15.7589 17.293 15.7589 17.293C15.7589 17.293 17.4127 16.8273 17.3942 15.0583C17.3756 13.2894 15.7589 12.892 15.7589 12.892C15.7589 12.892 16.5428 13.5901 16.5806 15.0753Z" fill="black"/>
<path fill-rule="evenodd" clip-rule="evenodd" d="M15.7589 17.293C15.7589 17.293 16.6184 16.5605 16.5806 15.0753C16.5428 13.5901 15.7589 12.892 15.7589 12.892C15.7589 12.892 17.3756 13.2893 17.3942 15.0583C17.4127 16.8272 15.7589 17.293 15.7589 17.293Z" fill="white"/>
<path fill-rule="evenodd" clip-rule="evenodd" d="M13.6639 17.628C12.8756 17.6343 11.4128 17.5266 11.4128 17.5266V8.44797C12.377 8.43546 12.7142 8.30514 13.5087 8.41683C14.3031 8.52852 14.986 9.3045 15.1722 10.0804C15.3584 10.8563 15.1599 11.5949 14.9052 11.9983C14.6505 12.4017 14.0921 12.6812 14.0921 12.6812C14.0921 12.6812 14.9363 12.9667 15.2344 13.2149C15.5325 13.4631 16.1096 14.1398 15.8861 15.6109C15.6626 17.082 14.4521 17.6219 13.6638 17.628" fill="white"/>
<path fill-rule="evenodd" clip-rule="evenodd" d="M10.7674 17.5349L8.95486 17.6219V17.4563C8.95486 17.4563 10.0639 17.3446 10.0639 15.3998V10.43C10.0639 8.78296 8.95486 8.49748 8.95486 8.49748V8.34862L10.7674 8.43538V17.5349Z" fill="white"/>
<path fill-rule="evenodd" clip-rule="evenodd" d="M16.6557 10.4777C16.6805 11.9798 15.3708 12.4019 15.3708 12.4019C15.3708 12.4019 15.9046 11.886 15.8797 10.5647C15.8549 9.2434 14.8618 8.59081 14.8618 8.59081C14.8618 8.59081 16.631 8.97556 16.6557 10.4777Z" fill="white"/>
<path d="M14.1232 11.965C14.7024 11.2119 14.5205 9.79464 13.8191 9.30999C13.1177 8.82534 12.3791 9.06798 12.2363 9.20442C12.0934 9.34086 12.1 12.5197 12.1 12.5197C12.1 12.5197 13.5439 12.7184 14.1232 11.965Z" fill="black"/>
<path d="M14.2307 13.3182C13.6886 13.0823 12.0997 13.1444 12.0997 13.1444C12.0997 13.1444 12.0751 13.9471 12.1328 15.4493C12.1904 16.9515 12.7039 16.9433 13.2377 16.9638C13.7715 16.9843 14.7896 16.9472 15.1247 15.6519C15.4599 14.3567 14.773 13.5542 14.2307 13.3184" fill="black"/>
</svg>
