<svg width="26" height="26" viewBox="0 0 26 26" fill="none" xmlns="http://www.w3.org/2000/svg">
<path opacity="0.2" d="M13 26C20.1797 26 26 20.1797 26 13C26 5.8203 20.1797 0 13 0C5.8203 0 0 5.8203 0 13C0 20.1797 5.8203 26 13 26Z" fill="#1366AA"/>
<path fill-rule="evenodd" clip-rule="evenodd" d="M10.1184 8.2376C10.1256 7.9752 10.372 7.756 10.6352 7.7824C11.7576 7.7752 12.8808 7.776 14.0032 7.7824C14.8672 7.7768 15.7 8.2152 16.24 8.8784C16.768 9.4888 16.9544 10.3256 16.9176 11.1168C16.96 11.9408 16.708 12.8008 16.128 13.4024C15.5736 14.0184 14.7512 14.3816 13.9232 14.3736C13.1536 14.3744 12.3848 14.3728 11.6152 14.3744C11.6096 14.044 11.6104 13.7136 11.6136 13.384C12.4104 13.3736 13.208 13.384 14.0048 13.376C14.7 13.3592 15.3512 12.9296 15.6872 12.3288C15.9696 11.784 15.9416 11.148 15.9048 10.5544C15.8176 9.628 15.016 8.8168 14.0768 8.78C13.0872 8.7616 12.096 8.776 11.1056 8.7696C11.1136 9.5488 11.1104 10.3272 11.1096 11.1064C10.7768 11.1304 10.44 11.1264 10.1136 11.2032C10.1336 10.2144 10.1064 9.2256 10.1184 8.2376Z" fill="#1366AA"/>
<path fill-rule="evenodd" clip-rule="evenodd" d="M10.2344 11.748C10.3848 11.6704 10.5456 11.6096 10.7176 11.6208C11.8664 11.6144 13.0144 11.6168 14.1632 11.624C14.5728 11.6232 14.9712 11.7328 15.3448 11.8944C15.196 12.2232 14.9656 12.5064 14.6536 12.6912C14.4376 12.6496 14.22 12.6096 13.9992 12.6144C13.0336 12.6192 12.068 12.6128 11.1024 12.6168C11.124 14.2352 11.1152 15.8544 11.108 17.4728C12.1 17.4816 13.0928 17.4776 14.0848 17.4752C14.8944 17.4888 15.6736 16.9696 15.9976 16.232C16.2232 15.76 16.172 15.2264 16.1744 14.7192C16.176 14.5208 16.1448 14.3248 16.0992 14.1328C16.3752 13.8904 16.6056 13.6048 16.8584 13.34C17.032 13.7504 17.1784 14.184 17.172 14.6352C17.1632 15.1656 17.22 15.7096 17.0576 16.224C16.712 17.52 15.4256 18.5112 14.0776 18.4664C12.856 18.4664 11.6344 18.4816 10.4128 18.4576C10.2768 18.3392 10.1128 18.2056 10.1184 18.0064C10.1152 16.056 10.1216 14.1048 10.1168 12.1536C10.1144 12.0096 10.1864 11.88 10.2344 11.748Z" fill="#1366AA"/>
</svg>
