<svg width="26" height="26" viewBox="0 0 26 26" fill="none" xmlns="http://www.w3.org/2000/svg">
<path fill-rule="evenodd" clip-rule="evenodd" d="M12.9819 14.8287C14.0038 14.8287 14.8322 14.01 14.8322 13C14.8322 11.99 14.0038 11.1713 12.9819 11.1713C11.9599 11.1713 11.1315 11.99 11.1315 13C11.1315 14.01 11.9599 14.8287 12.9819 14.8287Z" fill="white" stroke="#1F4F77" stroke-width="1.57638"/>
<path fill-rule="evenodd" clip-rule="evenodd" d="M8.48299 16.9084C9.26446 16.9084 9.89796 16.2823 9.89796 15.51C9.89796 14.7376 9.26446 14.1116 8.48299 14.1116C7.70153 14.1116 7.06803 14.7376 7.06803 15.51C7.06803 16.2823 7.70153 16.9084 8.48299 16.9084Z" fill="white" stroke="#2C76B7" stroke-width="0.862245"/>
<path fill-rule="evenodd" clip-rule="evenodd" d="M8.48299 11.8526C9.24442 11.8526 9.86168 11.2426 9.86168 10.49C9.86168 9.73752 9.24442 9.12749 8.48299 9.12749C7.72157 9.12749 7.10431 9.73752 7.10431 10.49C7.10431 11.2426 7.72157 11.8526 8.48299 11.8526Z" fill="white" stroke="#2C76B7" stroke-width="0.840136"/>
<path fill-rule="evenodd" clip-rule="evenodd" d="M12.9819 9.28885C13.7533 9.28885 14.3787 8.67079 14.3787 7.90837C14.3787 7.14595 13.7533 6.52789 12.9819 6.52789C12.2104 6.52789 11.585 7.14595 11.585 7.90837C11.585 8.67079 12.2104 9.28885 12.9819 9.28885Z" fill="white" stroke="#2C76B7" stroke-width="0.85119"/>
<path fill-rule="evenodd" clip-rule="evenodd" d="M17.4989 11.8347C18.2603 11.8347 18.8776 11.2246 18.8776 10.4721C18.8776 9.71959 18.2603 9.10956 17.4989 9.10956C16.7374 9.10956 16.1202 9.71959 16.1202 10.4721C16.1202 11.2246 16.7374 11.8347 17.4989 11.8347Z" fill="white" stroke="#2C76B7" stroke-width="0.840136"/>
<path fill-rule="evenodd" clip-rule="evenodd" d="M17.4989 16.9084C18.2703 16.9084 18.8957 16.2903 18.8957 15.5279C18.8957 14.7655 18.2703 14.1474 17.4989 14.1474C16.7274 14.1474 16.102 14.7655 16.102 15.5279C16.102 16.2903 16.7274 16.9084 17.4989 16.9084Z" fill="white" stroke="#2C76B7" stroke-width="0.85119"/>
<path fill-rule="evenodd" clip-rule="evenodd" d="M12.9819 19.6514C13.7733 19.6514 14.415 19.0173 14.415 18.2351C14.415 17.4528 13.7733 16.8187 12.9819 16.8187C12.1904 16.8187 11.5488 17.4528 11.5488 18.2351C11.5488 19.0173 12.1904 19.6514 12.9819 19.6514Z" fill="white" stroke="#2C76B7" stroke-width="0.873299"/>
<path fill-rule="evenodd" clip-rule="evenodd" d="M5.79819 17.9123C6.23901 17.9123 6.59637 17.5592 6.59637 17.1235C6.59637 16.6878 6.23901 16.3347 5.79819 16.3347C5.35736 16.3347 5 16.6878 5 17.1235C5 17.5592 5.35736 17.9123 5.79819 17.9123Z" fill="#2C76B7"/>
<path fill-rule="evenodd" clip-rule="evenodd" d="M12.9819 22C13.4227 22 13.78 21.6468 13.78 21.2111C13.78 20.7755 13.4227 20.4223 12.9819 20.4223C12.541 20.4223 12.1837 20.7755 12.1837 21.2111C12.1837 21.6468 12.541 22 12.9819 22Z" fill="#2C76B7"/>
<path fill-rule="evenodd" clip-rule="evenodd" d="M20.2018 17.9123C20.6426 17.9123 21 17.5592 21 17.1235C21 16.6878 20.6426 16.3347 20.2018 16.3347C19.761 16.3347 19.4036 16.6878 19.4036 17.1235C19.4036 17.5592 19.761 17.9123 20.2018 17.9123Z" fill="#2C76B7"/>
<path fill-rule="evenodd" clip-rule="evenodd" d="M20.2018 9.70119C20.6426 9.70119 21 9.34802 21 8.91235C21 8.47668 20.6426 8.1235 20.2018 8.1235C19.761 8.1235 19.4036 8.47668 19.4036 8.91235C19.4036 9.34802 19.761 9.70119 20.2018 9.70119Z" fill="#2C76B7"/>
<path fill-rule="evenodd" clip-rule="evenodd" d="M12.9819 5.57769C13.4227 5.57769 13.78 5.22451 13.78 4.78884C13.78 4.35318 13.4227 4 12.9819 4C12.541 4 12.1837 4.35318 12.1837 4.78884C12.1837 5.22451 12.541 5.57769 12.9819 5.57769Z" fill="#2C76B7"/>
<path fill-rule="evenodd" clip-rule="evenodd" d="M5.79819 9.70119C6.23901 9.70119 6.59637 9.34802 6.59637 8.91235C6.59637 8.47668 6.23901 8.1235 5.79819 8.1235C5.35736 8.1235 5 8.47668 5 8.91235C5 9.34802 5.35736 9.70119 5.79819 9.70119Z" fill="#2C76B7"/>
<path d="M6.07434 9.34517L7.09021 9.91887L7.33609 9.4835L6.32021 8.9098L6.07434 9.34517ZM6.35765 17.0931L7.37353 16.5122L7.12534 16.0782L6.10946 16.6591L6.35765 17.0931ZM13.3013 20.9279V19.7733H12.8013V20.9279H13.3013ZM19.9268 16.6591L18.9109 16.0782L18.6628 16.5122L19.6786 17.0931L19.9268 16.6591ZM19.6129 8.92449L18.6333 9.55557L18.9041 9.97589L19.8837 9.34482L19.6129 8.92449ZM12.765 5.21553V6.37011H13.265V5.21553H12.765ZM10.1291 9.81526L11.798 8.8794L11.5535 8.44329L9.88453 9.37915L10.1291 9.81526ZM14.2767 8.94311L15.9384 9.88973L16.1859 9.45528L14.5242 8.50866L14.2767 8.94311ZM17.1913 12.1968V14.0936H17.6913V12.1968H17.1913ZM15.9384 16.182L14.2767 17.1286L14.5242 17.563L16.1859 16.6164L15.9384 16.182ZM11.6144 17.0927L9.95277 16.1461L9.70528 16.5806L11.367 17.5272L11.6144 17.0927ZM8.80241 14.0219V12.1251H8.30241V14.0219H8.80241Z" fill="#2C76B7"/>
</svg>
