<svg width="26" height="26" viewBox="0 0 26 26" fill="none" xmlns="http://www.w3.org/2000/svg">
<path opacity="0.2" d="M13 26C20.1797 26 26 20.1797 26 13C26 5.8203 20.1797 0 13 0C5.8203 0 0 5.8203 0 13C0 20.1797 5.8203 26 13 26Z" fill="#1C9EF8"/>
<path fill-rule="evenodd" clip-rule="evenodd" d="M11.5376 6.54613C11.2509 6.61326 10.9607 6.6656 10.6694 6.70201L10.6615 6.77141C10.3349 6.84992 10.0152 6.9546 9.71144 7.09909C9.58514 7.17532 9.45316 7.24245 9.32004 7.30731C9.17668 7.37899 9.03787 7.45863 8.89906 7.53941C8.8433 7.5805 8.7883 7.62237 8.73334 7.66421C8.63916 7.7359 8.54508 7.80752 8.44737 7.87506C7.70098 8.39502 7.13096 9.14482 6.71908 9.94923C6.64513 10.1267 6.5689 10.3042 6.48925 10.4794C6.45057 10.6364 6.41075 10.7934 6.37094 10.9504L6.37092 10.9505C6.35613 11.0085 6.32655 11.1234 6.31176 11.1803C6.18205 11.7663 6.18091 12.3909 6.30721 12.9769C6.40392 13.4194 6.53476 13.8541 6.71339 14.2705C7.16282 15.1489 7.81704 15.9191 8.62258 16.4903C8.65579 16.5184 8.69225 16.5457 8.72932 16.5734C8.865 16.675 9.00895 16.7828 9.03218 16.9579C9.04792 17.2329 9.04602 17.5081 9.04411 17.7832C9.0416 18.1444 9.03909 18.5056 9.07656 18.866C9.33597 18.8842 9.58856 18.8455 9.81042 18.7033C9.91205 18.6115 10.0231 18.5313 10.1336 18.4515L10.1472 18.4416C10.2728 18.3633 10.396 18.2812 10.5193 18.1991C10.6216 18.1309 10.7239 18.0628 10.8276 17.9967C11.2167 17.5826 11.8175 17.6838 12.3113 17.8044C12.9693 17.8735 13.6182 17.7397 14.261 17.607C14.4018 17.578 14.5422 17.549 14.6824 17.5223C16.3731 17.0273 17.8909 15.8907 18.7158 14.3183C18.7187 14.2876 18.7226 14.2415 18.7266 14.1954C18.7306 14.1493 18.7346 14.1033 18.7374 14.0725L18.8489 14.0828C18.8648 14.0045 18.8811 13.9263 18.8974 13.8482C18.9289 13.697 18.9604 13.5459 18.9889 13.3944L19.0856 13.399C19.0901 13.2107 19.0984 13.0209 19.1068 12.8303C19.1454 11.9548 19.1846 11.0647 18.8501 10.2405C18.6771 9.85024 18.4678 9.47932 18.2345 9.12206C17.6838 8.36203 16.9341 7.79655 16.1547 7.2891C16.0932 7.27772 15.9704 7.25383 15.9089 7.24132L15.9087 7.24116C15.8495 7.19788 15.7314 7.11156 15.6723 7.06724C15.3503 6.95232 15.0271 6.83513 14.7097 6.70884C13.6732 6.47559 12.5877 6.32085 11.5376 6.54613ZM10.2983 7.89949C10.3212 7.89105 10.3442 7.88263 10.3668 7.87392C10.996 7.66457 11.6445 7.45522 12.3158 7.47684C12.4338 7.47771 12.5523 7.47652 12.671 7.47532C13.1683 7.47032 13.6693 7.46527 14.1488 7.61223C15.6654 7.93195 17.0547 8.88768 17.8022 10.2598C17.9478 10.5909 18.0639 10.9323 18.1674 11.277C18.2175 11.8539 18.2266 12.433 18.1629 13.0087C18.1117 13.1908 18.0639 13.3728 18.0184 13.556C17.7066 14.2022 17.33 14.8371 16.793 15.3218C16.3299 15.7132 15.827 16.0614 15.2672 16.3014C15.1603 16.3503 15.0534 16.4004 14.9465 16.4504L14.9464 16.4505C14.7907 16.4931 14.6346 16.5335 14.4783 16.5741C14.4049 16.5931 14.3314 16.6121 14.258 16.6314C13.3985 16.9101 12.4895 16.8266 11.5979 16.7447C11.4084 16.7273 11.2197 16.71 11.0324 16.6962C10.7138 16.9602 10.3725 17.2037 9.97654 17.3368C9.97017 17.1213 9.96671 16.9064 9.96326 16.6917C9.96239 16.6379 9.96152 16.584 9.96061 16.5301C9.91627 16.4142 9.87307 16.2982 9.82986 16.1822L9.82977 16.182C8.85697 15.6529 8.01387 14.869 7.5269 13.8632C7.50588 13.8045 7.48395 13.7458 7.46197 13.687C7.3519 13.3926 7.24075 13.0953 7.23791 12.7766C7.23576 12.6882 7.23287 12.5994 7.22997 12.5104C7.21135 11.9391 7.1924 11.3575 7.36762 10.8082C7.41082 10.7051 7.45333 10.6013 7.4957 10.4978C7.508 10.4677 7.5203 10.4377 7.53259 10.4078C7.78063 9.97767 8.03435 9.54076 8.38706 9.18578C8.67076 8.87684 9.01304 8.63646 9.35483 8.39642C9.4599 8.32263 9.56493 8.24887 9.6682 8.17316C9.73078 8.16292 9.85594 8.1413 9.91851 8.12992C10.0125 8.00455 10.1563 7.9517 10.2983 7.89949Z" fill="#1C9EF8"/>
<path fill-rule="evenodd" clip-rule="evenodd" d="M9.36897 11.591C9.65341 11.5706 9.93786 11.566 10.2234 11.5762C10.3315 11.698 10.4419 11.8197 10.5523 11.9392C10.55 12.1736 10.5432 12.408 10.5306 12.6423C10.4396 12.7379 10.3486 12.8335 10.2598 12.9313C9.95947 12.97 9.65796 12.97 9.35759 12.937C9.25974 12.8107 9.16189 12.6844 9.06177 12.5604C9.06518 12.3704 9.07201 12.1793 9.07997 11.9893C9.17782 11.8573 9.27453 11.7253 9.36897 11.591Z" fill="#1C9EF8"/>
<path fill-rule="evenodd" clip-rule="evenodd" d="M12.3784 11.5683C12.6583 11.566 12.937 11.5717 13.2158 11.5899C13.3114 11.7128 13.4081 11.8357 13.5071 11.9574C13.5139 12.1668 13.5207 12.3761 13.5275 12.5866C13.2863 12.8699 12.9734 13.094 12.5855 13.0827C12.3909 12.9291 12.202 12.7698 12.0211 12.6014C12.0257 12.3795 12.0291 12.1588 12.0336 11.9381C12.1486 11.8152 12.2635 11.6912 12.3784 11.5683Z" fill="#1C9EF8"/>
<path fill-rule="evenodd" clip-rule="evenodd" d="M15.1659 11.5922C15.4447 11.5728 15.7246 11.566 16.0045 11.566C16.1228 11.6866 16.2411 11.8084 16.3606 11.929C16.3583 12.1668 16.3515 12.4057 16.3401 12.6446C16.2468 12.7402 16.1547 12.8358 16.0648 12.9336C15.7644 12.97 15.4618 12.9678 15.1614 12.9348C15.067 12.8062 14.9702 12.6788 14.8735 12.5525C14.8724 12.3875 14.8724 12.2225 14.8724 12.0575C14.9714 11.9028 15.0692 11.7481 15.1659 11.5922Z" fill="#1C9EF8"/>
<path fill-rule="evenodd" clip-rule="evenodd" d="M19.2324 13.548C19.6863 13.8234 19.7808 14.374 19.9753 14.8257C19.9867 15.3161 20.0846 15.8372 19.898 16.306C19.8934 16.3356 19.8866 16.3947 19.8832 16.4243C19.5896 17.2162 19.0412 17.9387 18.2982 18.354C18.2744 18.7955 18.2789 19.238 18.2744 19.6806C17.6622 19.7717 17.2981 19.1937 16.7827 18.9946C15.9863 18.9536 15.1455 19.0992 14.3877 18.7784C13.9906 18.6123 13.5401 18.4723 13.2977 18.0866C13.8302 17.9751 14.4218 17.6884 14.9304 18.0297C15.5733 18.1811 16.2343 18.2038 16.8794 18.0548C16.9272 18.1128 17.0228 18.2288 17.0706 18.288C17.1764 18.296 17.3869 18.3108 17.4927 18.3187C17.4904 18.2197 17.4859 18.0206 17.4836 17.9216C17.85 17.578 18.3142 17.3311 18.5986 16.9045C18.808 16.6212 18.94 16.2901 19.0207 15.9487C19.0776 15.6961 19.089 15.4356 19.0628 15.1773C18.9126 14.8485 18.8774 14.4423 19.0583 14.1192C19.1174 13.9292 19.1789 13.7403 19.2324 13.548Z" fill="#1C9EF8"/>
</svg>
