<svg width="26" height="26" viewBox="0 0 26 26" fill="none" xmlns="http://www.w3.org/2000/svg">
<path opacity="0.2" d="M13 26C20.1797 26 26 20.1797 26 13C26 5.8203 20.1797 0 13 0C5.8203 0 0 5.8203 0 13C0 20.1797 5.8203 26 13 26Z" fill="#EC1550"/>
<path fill-rule="evenodd" clip-rule="evenodd" d="M20.9944 14.5881L18.6665 16.9358H16.4547C16.2048 16.9366 16.0017 17.1405 16.0017 17.3924V18.7303C15.9993 18.8765 15.8808 18.9943 15.7349 18.9943H14.0462C13.8987 18.9943 13.7794 18.8741 13.7794 18.7254V15.4752L15.1618 14.082C15.2666 13.9829 15.4302 13.9846 15.5326 14.0869L16.1428 14.7019H17.742L18.7737 13.6629V12.2989L17.717 11.2291H16.2951L10.6423 16.9261H7.34801L5 14.5613V11.3704L7.35043 9.00162H10.5633L11.9562 10.4054C12.0553 10.5093 12.0553 10.6742 11.9562 10.7782L10.7721 11.9675C10.6778 12.0772 10.5125 12.0894 10.4037 11.9943C10.3973 11.9886 10.3908 11.9821 10.3844 11.9764L9.64605 11.2348H8.26771L7.21582 12.2949V13.6385L8.26448 14.697H9.72423L15.3778 9H18.6351L20.9944 11.3777V14.5881Z" fill="#EC1550"/>
</svg>
