<svg width="26" height="26" viewBox="0 0 26 26" fill="none" xmlns="http://www.w3.org/2000/svg">
<path opacity="0.3" d="M13 26C20.1797 26 26 20.1797 26 13C26 5.8203 20.1797 0 13 0C5.8203 0 0 5.8203 0 13C0 20.1797 5.8203 26 13 26Z" fill="#101429"/>
<path fill-rule="evenodd" clip-rule="evenodd" d="M12.098 10.4765C12.432 10.0008 12.7209 9.49091 12.9922 8.97272C13.0867 9.16439 13.2072 9.34394 13.272 9.55151C13.2058 9.81742 13.024 10.0288 12.8943 10.2621C12.2509 11.2985 11.4053 12.2962 10.2587 12.6591C9.46101 12.928 8.62312 12.7371 7.83175 12.5477C8.6344 13.9174 9.42295 15.297 10.2193 16.6705C10.0621 16.747 9.90567 16.825 9.74852 16.9008C9.56319 16.6417 9.4152 16.3561 9.25524 16.0795C8.3645 14.5068 7.45967 12.9424 6.57386 11.3667C7.60906 11.8682 8.72037 12.425 9.88665 12.228C10.838 12.0621 11.5462 11.2697 12.098 10.4765Z" fill="white"/>
<path fill-rule="evenodd" clip-rule="evenodd" d="M13.9535 11.4091C13.7723 11.2068 14.0507 10.9841 14.1247 10.7955C14.6342 11.4333 15.2353 12.0864 16.0408 12.2333C17.2261 12.3947 18.3832 11.9136 19.4219 11.3492C18.5601 12.9023 17.6637 14.4341 16.7878 15.9795C16.6073 16.2849 16.4502 16.6068 16.2402 16.8917C15.9351 16.775 15.6511 16.603 15.3431 16.4947C14.3446 16.1288 13.2699 16.0379 12.2234 16.1439C11.9676 16.1591 11.7153 16.2598 11.4588 16.2333C11.351 16.0856 11.2869 15.9083 11.2122 15.7402C12.1593 15.5295 13.1381 15.4879 14.0972 15.625C14.7624 15.7258 15.4354 15.8621 16.0365 16.1985C16.7567 14.9735 17.4509 13.7303 18.1823 12.5129C17.4389 12.7167 16.6574 12.9402 15.8893 12.7508C15.1141 12.5773 14.4876 12.0068 13.9535 11.4091Z" fill="white"/>
</svg>
