<svg width="26" height="26" viewBox="0 0 26 26" fill="none" xmlns="http://www.w3.org/2000/svg">
<path opacity="0.2" d="M13 26C20.1797 26 26 20.1797 26 13C26 5.8203 20.1797 0 13 0C5.8203 0 0 5.8203 0 13C0 20.1797 5.8203 26 13 26Z" fill="#CECCCC"/>
<path fill-rule="evenodd" clip-rule="evenodd" d="M16.1241 13L19.2188 14.7827C19.5759 14.9846 19.8378 15.3242 19.9454 15.7247C20.0531 16.1252 19.9973 16.5529 19.7907 16.9111C19.3595 17.6563 18.404 17.9116 17.6571 17.4814L14.5617 15.6987V19.2642C14.5617 20.1246 13.8624 20.8222 13 20.8222C12.1376 20.8222 11.4383 20.1246 11.4383 19.2642V15.6987L8.3429 17.4814C7.596 17.9116 6.6405 17.6563 6.2093 16.9111C6.00278 16.5528 5.9471 16.1251 6.05486 15.7246C6.16261 15.324 6.4247 14.9845 6.7819 14.7827L9.8759 13L6.7819 11.2172C6.42482 11.0153 6.16288 10.6758 6.05526 10.2753C5.94764 9.87475 6.00342 9.44709 6.21 9.08888C6.6405 8.34363 7.596 8.08834 8.3429 8.51856L11.4383 10.3013V6.73581C11.4383 5.87536 12.1376 5.17776 13 5.17776C13.8624 5.17776 14.5617 5.87536 14.5617 6.7351V10.3013L17.6571 8.51856C18.404 8.08834 19.3595 8.34363 19.7907 9.08888C19.9973 9.44709 20.0531 9.87475 19.9454 10.2753C19.8378 10.6758 19.5759 11.0153 19.2188 11.2172L16.1241 13ZM11.9381 6.73581C11.9381 6.15056 12.4141 5.67625 13 5.67625C13.5866 5.67625 14.0619 6.15056 14.0619 6.73581V10.5886L13 11.2009L11.9381 10.5893V6.73581ZM6.53741 10.145C6.61051 10.4173 6.78846 10.6482 7.0311 10.7856L10.3757 12.712L11.4383 12.1004V10.8773L8.093 8.95021C7.58598 8.65792 6.94199 8.83031 6.6426 9.33848C6.50223 9.58202 6.46431 9.87272 6.53741 10.145ZM8.093 17.0498C7.58598 17.3421 6.94199 17.1697 6.6426 16.6615C6.50223 16.418 6.46431 16.1273 6.53741 15.855C6.61051 15.5827 6.78846 15.3518 7.0311 15.2144L10.3757 13.2873L11.4383 13.8995V15.1227L8.093 17.0498ZM17.907 17.0498C18.4138 17.3422 19.0578 17.1701 19.3574 16.6622V16.6615C19.6507 16.1552 19.4771 15.5067 18.9689 15.2144L15.6243 13.288L14.5617 13.8995V15.1227L17.907 17.0498ZM13 20.3237C13.5866 20.3237 14.0619 19.8494 14.0619 19.2642V15.4107L13 14.7991L11.9381 15.4107V19.2642C11.9381 19.8494 12.4134 20.3237 13 20.3237ZM15.1245 13L14.5617 12.6764V13.3235L15.1245 13ZM13.4998 11.4889L14.0619 11.1646V11.8124L13.4998 11.4889ZM12.5002 11.4889L11.9381 11.1653V11.8124L12.5002 11.4889ZM11.4383 13.3235L10.8755 13L11.4383 12.6764V13.3235ZM11.9381 14.8354L12.5002 14.5111L11.9381 14.1875V14.8354ZM14.0619 14.1875V14.8347L13.4998 14.5111L14.0619 14.1875ZM11.9381 13.6115L13 14.2231L14.0619 13.6115V12.3884L13 11.7769L11.9381 12.3884V13.6115ZM17.907 8.95021C18.414 8.65792 19.058 8.83031 19.3574 9.33848C19.6514 9.84479 19.4764 10.4933 18.9689 10.7856L15.6243 12.7127L14.5617 12.1004V10.8773L17.907 8.95021Z" fill="black"/>
<path fill-rule="evenodd" clip-rule="evenodd" d="M16.1241 13L19.2188 14.7827C19.5759 14.9846 19.8378 15.3242 19.9454 15.7247C20.0531 16.1252 19.9973 16.5529 19.7907 16.9111C19.3595 17.6563 18.404 17.9116 17.6571 17.4814L14.5617 15.6987V19.2642C14.5617 20.1246 13.8624 20.8222 13 20.8222C12.1376 20.8222 11.4383 20.1246 11.4383 19.2642V15.6987L8.3429 17.4814C7.596 17.9116 6.6405 17.6563 6.2093 16.9111C6.00278 16.5528 5.9471 16.1251 6.05486 15.7246C6.16261 15.324 6.4247 14.9845 6.7819 14.7827L9.8759 13L6.7819 11.2172C6.42482 11.0153 6.16288 10.6758 6.05526 10.2753C5.94764 9.87475 6.00342 9.44709 6.21 9.08888C6.6405 8.34363 7.596 8.08834 8.3429 8.51856L11.4383 10.3013V6.73581C11.4383 5.87536 12.1376 5.17776 13 5.17776C13.8624 5.17776 14.5617 5.87536 14.5617 6.7351V10.3013L17.6571 8.51856C18.404 8.08834 19.3595 8.34363 19.7907 9.08888C19.9973 9.44709 20.0531 9.87475 19.9454 10.2753C19.8378 10.6758 19.5759 11.0153 19.2188 11.2172L16.1241 13ZM11.9381 6.73581C11.9381 6.15056 12.4141 5.67625 13 5.67625C13.5866 5.67625 14.0619 6.15056 14.0619 6.73581V10.5886L13 11.2009L11.9381 10.5893V6.73581ZM6.53741 10.145C6.61051 10.4173 6.78846 10.6482 7.0311 10.7856L10.3757 12.712L11.4383 12.1004V10.8773L8.093 8.95021C7.58598 8.65792 6.94199 8.83031 6.6426 9.33848C6.50223 9.58202 6.46431 9.87272 6.53741 10.145ZM8.093 17.0498C7.58598 17.3421 6.94199 17.1697 6.6426 16.6615C6.50223 16.418 6.46431 16.1273 6.53741 15.855C6.61051 15.5827 6.78846 15.3518 7.0311 15.2144L10.3757 13.2873L11.4383 13.8995V15.1227L8.093 17.0498ZM17.907 17.0498C18.4138 17.3422 19.0578 17.1701 19.3574 16.6622V16.6615C19.6507 16.1552 19.4771 15.5067 18.9689 15.2144L15.6243 13.288L14.5617 13.8995V15.1227L17.907 17.0498ZM13 20.3237C13.5866 20.3237 14.0619 19.8494 14.0619 19.2642V15.4107L13 14.7991L11.9381 15.4107V19.2642C11.9381 19.8494 12.4134 20.3237 13 20.3237ZM15.1245 13L14.5617 12.6764V13.3235L15.1245 13ZM13.4998 11.4889L14.0619 11.1646V11.8124L13.4998 11.4889ZM12.5002 11.4889L11.9381 11.1653V11.8124L12.5002 11.4889ZM11.4383 13.3235L10.8755 13L11.4383 12.6764V13.3235ZM11.9381 14.8354L12.5002 14.5111L11.9381 14.1875V14.8354ZM14.0619 14.1875V14.8347L13.4998 14.5111L14.0619 14.1875ZM11.9381 13.6115L13 14.2231L14.0619 13.6115V12.3884L13 11.7769L11.9381 12.3884V13.6115ZM17.907 8.95021C18.414 8.65792 19.058 8.83031 19.3574 9.33848C19.6514 9.84479 19.4764 10.4933 18.9689 10.7856L15.6243 12.7127L14.5617 12.1004V10.8773L17.907 8.95021Z" fill="white"/>
</svg>
