<svg width="26" height="26" viewBox="0 0 26 26" fill="none" xmlns="http://www.w3.org/2000/svg">
<path opacity="0.2" d="M13 26C20.1797 26 26 20.1797 26 13C26 5.8203 20.1797 0 13 0C5.8203 0 0 5.8203 0 13C0 20.1797 5.8203 26 13 26Z" fill="#1C1E2B"/>
<path fill-rule="evenodd" clip-rule="evenodd" d="M20.7561 15.1031C21.523 12.11 20.4461 8.7091 18.024 6.78128C16.4131 5.51572 14.3179 4.7937 12.2669 5.05214C10.5242 5.18863 8.82737 5.95911 7.56014 7.16652C5.41275 9.11614 4.53179 12.3063 5.24089 15.1104C5.77573 17.0681 7.03413 18.8408 8.79203 19.8625C11.2992 21.3808 14.5829 21.3534 17.123 19.9344C18.9114 18.8941 20.2333 17.1109 20.7561 15.1031ZM7.88297 16.5746C6.34751 14.5224 6.41738 11.4696 7.99781 9.46342C8.90125 8.23663 10.3002 7.41365 11.7834 7.14067L12.1553 7.10595C12.1538 7.42657 12.1568 7.7474 12.1598 8.06825V8.0683V8.06835V8.06836V8.06838C12.1652 8.65913 12.1707 9.24996 12.1488 9.83978C12.0031 9.92216 11.8519 9.99607 11.7005 10.07C11.34 10.2463 10.9788 10.4229 10.6881 10.7153C10.0071 11.4227 9.63846 12.4234 9.74848 13.4079C9.9091 14.6202 10.7346 15.771 11.9111 16.1635C11.9437 16.1779 11.9795 16.1897 12.0153 16.2014C12.1856 16.2575 12.3549 16.3132 12.1585 16.6368L12.1594 17.0197V17.0198V17.0198C12.161 17.7006 12.1627 18.3815 12.1553 19.0629C10.4656 18.8828 8.8884 17.9476 7.88297 16.5746ZM13.8537 9.83897L13.9555 9.88888C14.6833 10.2454 15.4634 10.6274 15.8309 11.409C16.7592 12.908 16.1441 15.0401 14.648 15.9083C14.4694 16.012 14.2781 16.0869 14.087 16.1617C14.01 16.1918 13.9331 16.222 13.857 16.254C13.8369 17.0341 13.8419 17.8153 13.8469 18.5963V18.5964C13.8479 18.7525 13.8489 18.9085 13.8497 19.0645C16.1995 18.7859 18.3083 17.0737 18.9974 14.7857C19.4872 13.2116 19.2037 11.447 18.4184 10.0175C17.4772 8.39816 15.7201 7.25374 13.8513 7.10675C13.8337 8.01696 13.8433 8.92796 13.8537 9.83897ZM11.9058 13.1888C11.7755 12.9867 11.6439 12.7827 11.7545 12.5171C11.8132 11.9848 12.1215 11.4034 12.6668 11.2531C13.9324 10.7984 14.8511 12.6802 13.9485 13.5105C13.9674 13.8087 14.08 14.0836 14.1927 14.3588C14.2711 14.5503 14.3495 14.7418 14.3966 14.9416C14.0245 14.9386 13.6525 14.9402 13.2807 14.9419C12.7449 14.9442 12.2094 14.9466 11.6742 14.9351C11.6852 14.7409 11.7713 14.5679 11.8579 14.3942C11.9422 14.2249 12.027 14.0548 12.0428 13.8634C12.1701 13.5985 12.0386 13.3946 11.9058 13.1888Z" fill="#D6D6D7"/>
</svg>
