<svg width="26" height="26" viewBox="0 0 26 26" fill="none" xmlns="http://www.w3.org/2000/svg">
<path opacity="0.2" d="M13 26C20.1797 26 26 20.1797 26 13C26 5.8203 20.1797 0 13 0C5.8203 0 0 5.8203 0 13C0 20.1797 5.8203 26 13 26Z" fill="#0A49AF"/>
<path fill-rule="evenodd" clip-rule="evenodd" d="M11.2945 4.22885C12.3108 4.0434 13.36 4.03243 14.3771 4.21922C14.5834 5.28857 14.7931 6.35765 14.9906 7.42861C13.5756 7.42941 12.1603 7.42861 10.7449 7.42888C10.9215 6.36113 11.1116 5.29552 11.2945 4.22885Z" fill="#0A49AF"/>
<path fill-rule="evenodd" clip-rule="evenodd" d="M15.0469 4.368C16.2968 4.69367 17.4724 5.31291 18.4496 6.16309C17.5042 6.54417 16.5573 6.92042 15.6124 7.30256C15.4186 6.32553 15.2391 5.34556 15.0469 4.368Z" fill="#0A49AF"/>
<path fill-rule="evenodd" clip-rule="evenodd" d="M7.28805 6.16338C8.25176 5.33059 9.40159 4.7159 10.6284 4.38594C10.458 5.35922 10.2955 6.33384 10.1203 7.30632C9.17752 6.92204 8.23132 6.54605 7.28805 6.16338Z" fill="#0A49AF"/>
<path fill-rule="evenodd" clip-rule="evenodd" d="M6.82955 6.66193C7.81955 7.05343 8.80265 7.46314 9.79424 7.8509C9.7746 7.88355 9.75389 7.91593 9.72681 7.94295C9.15309 8.51429 8.5884 9.09526 8.01336 9.66526C7.62044 8.66335 7.22486 7.6625 6.82955 6.66193Z" fill="#0A49AF"/>
<path fill-rule="evenodd" clip-rule="evenodd" d="M15.9278 7.86374C16.9199 7.45671 17.9171 7.06146 18.9116 6.65952C18.5134 7.66036 18.1175 8.66201 17.7193 9.66285C17.1225 9.06288 16.5331 8.45515 15.9278 7.86374Z" fill="#0A49AF"/>
<path fill-rule="evenodd" clip-rule="evenodd" d="M19.4043 7.12247C20.2337 8.092 20.8419 9.25448 21.168 10.4919C20.2061 10.3171 19.2432 10.1499 18.28 9.98424C18.3172 9.84027 18.383 9.70647 18.4345 9.56785C18.7579 8.75272 19.0812 7.93759 19.4043 7.12247Z" fill="#0A49AF"/>
<path fill-rule="evenodd" clip-rule="evenodd" d="M4.55752 10.5561C4.8761 9.29435 5.49522 8.11234 6.33362 7.123C6.63708 7.88809 6.93708 8.65451 7.24079 9.41906C7.31008 9.61093 7.39955 9.79531 7.45663 9.99147C6.49026 10.1793 5.52309 10.364 4.55752 10.5561Z" fill="#0A49AF"/>
<path fill-rule="evenodd" clip-rule="evenodd" d="M10.8817 8.06899C12.2075 8.06658 13.5331 8.06738 14.8587 8.06872C14.2733 9.2494 13.6804 10.4266 13.0926 11.6059C13.0183 11.7526 12.9506 11.9027 12.8686 12.0451C12.2067 10.7194 11.5414 9.39578 10.8817 8.06899Z" fill="#0A49AF"/>
<path fill-rule="evenodd" clip-rule="evenodd" d="M15.465 8.2804C15.8574 8.67779 16.2511 9.07358 16.6441 9.47017C16.8636 9.69683 17.0938 9.91333 17.3065 10.1467C16.0653 10.7734 14.8279 11.4071 13.5875 12.0354C14.2117 10.7828 14.8372 9.53092 15.465 8.2804Z" fill="#0A49AF"/>
<path fill-rule="evenodd" clip-rule="evenodd" d="M8.43947 10.1451C9.05354 9.52208 9.66867 8.90017 10.2878 8.282C10.9101 9.53359 11.5411 10.7804 12.1592 12.0338C10.9188 11.405 9.68115 10.7713 8.43947 10.1451Z" fill="#0A49AF"/>
<path fill-rule="evenodd" clip-rule="evenodd" d="M4.41362 11.235C5.47185 11.0234 6.53194 10.8208 7.59097 10.6126C7.58858 12.0421 7.59389 13.4717 7.59442 14.901C6.53752 14.7147 5.48141 14.5242 4.42318 14.347C4.23973 13.3207 4.22832 12.2616 4.41362 11.235Z" fill="#0A49AF"/>
<path fill-rule="evenodd" clip-rule="evenodd" d="M18.1544 10.6062C19.2097 10.7865 20.2627 10.9805 21.318 11.1604C21.5096 12.1864 21.5173 13.2485 21.3288 14.2753C20.2706 14.4795 19.2121 14.6815 18.1555 14.8943C18.152 13.4647 18.1542 12.0354 18.1544 10.6062Z" fill="#0A49AF"/>
<path fill-rule="evenodd" clip-rule="evenodd" d="M8.22496 10.7483C8.38504 10.8165 8.53611 10.9037 8.69142 10.9821C9.80434 11.5455 10.9151 12.1125 12.0273 12.6774C12.0748 12.702 12.1215 12.7283 12.1648 12.7604C10.8506 13.4254 9.53938 14.096 8.22575 14.7623C8.22257 13.4243 8.22389 12.0863 8.22496 10.7483Z" fill="#0A49AF"/>
<path fill-rule="evenodd" clip-rule="evenodd" d="M13.5742 12.7486C14.8908 12.0844 16.201 11.4084 17.5186 10.7469C17.5188 12.0836 17.5207 13.4203 17.5178 14.757C16.5442 14.2756 15.5816 13.7725 14.6112 13.2849C14.3688 13.1655 14.132 13.0357 13.8896 12.9172C13.7837 12.8626 13.6733 12.8155 13.5742 12.7486Z" fill="#0A49AF"/>
<path fill-rule="evenodd" clip-rule="evenodd" d="M11.6452 13.731C11.8133 13.6424 11.9821 13.5557 12.1536 13.4743C11.5329 14.727 10.9037 15.9754 10.2835 17.2283C9.66495 16.6102 9.04982 15.988 8.43549 15.3655C9.5038 14.8175 10.5748 14.2748 11.6452 13.731Z" fill="#0A49AF"/>
<path fill-rule="evenodd" clip-rule="evenodd" d="M12.3137 14.5635C12.5041 14.199 12.6758 13.8249 12.8688 13.4618C13.5336 14.7875 14.1973 16.1135 14.8576 17.4411C13.5307 17.4411 12.2038 17.4413 10.8769 17.4411C11.3548 16.4812 11.8364 15.5234 12.3137 14.5635Z" fill="#0A49AF"/>
<path fill-rule="evenodd" clip-rule="evenodd" d="M13.5862 13.4711C14.8255 14.1 16.0634 14.7318 17.3014 15.3637C16.6924 15.9896 16.0725 16.6051 15.4637 17.231C14.8393 15.977 14.2066 14.727 13.5862 13.4711Z" fill="#0A49AF"/>
<path fill-rule="evenodd" clip-rule="evenodd" d="M18.6809 15.4351C19.5153 15.2713 20.3497 15.1075 21.1849 14.9478C20.9065 16.034 20.4111 17.0627 19.7418 17.9586C19.6337 18.1004 19.5291 18.2455 19.4043 18.3731C19.0311 17.4301 18.6623 16.4852 18.2856 15.5435C18.2906 15.532 18.3007 15.5087 18.3057 15.4969C18.4326 15.4897 18.5564 15.4594 18.6809 15.4351Z" fill="#0A49AF"/>
<path fill-rule="evenodd" clip-rule="evenodd" d="M4.56893 15.0117C5.53477 15.1844 6.50061 15.3562 7.46725 15.5234C7.09265 16.4777 6.71141 17.429 6.33283 18.3817C5.50504 17.4103 4.89707 16.2489 4.56893 15.0117Z" fill="#0A49AF"/>
<path fill-rule="evenodd" clip-rule="evenodd" d="M8.01734 15.8408C8.6184 16.4416 9.21336 17.0488 9.81654 17.6471C8.82309 18.0496 7.82725 18.4459 6.83194 18.8436C7.22353 17.8414 7.62946 16.8446 8.01734 15.8408Z" fill="#0A49AF"/>
<path fill-rule="evenodd" clip-rule="evenodd" d="M16.802 16.7616C17.1095 16.4523 17.4153 16.1413 17.7241 15.833C18.1202 16.8366 18.5171 17.8395 18.9111 18.8436C17.9203 18.4414 16.9284 18.0413 15.9357 17.6431C16.2164 17.3415 16.5142 17.0565 16.802 16.7616Z" fill="#0A49AF"/>
<path fill-rule="evenodd" clip-rule="evenodd" d="M10.7471 18.0812C12.1621 18.0788 13.5774 18.0801 14.9927 18.0807C14.9524 18.4211 14.8783 18.7569 14.825 19.0957C14.6981 19.823 14.5749 20.5509 14.4469 21.278C13.4311 21.4608 12.3841 21.4704 11.3673 21.2882C11.1549 20.2204 10.9592 19.1489 10.7471 18.0812Z" fill="#0A49AF"/>
<path fill-rule="evenodd" clip-rule="evenodd" d="M9.06655 18.6333C9.4231 18.4925 9.77619 18.3426 10.1351 18.2083C10.321 19.1851 10.5156 20.1602 10.6913 21.1388C9.44593 20.8086 8.27354 20.195 7.29814 19.3467C7.88487 19.1026 8.47717 18.872 9.06655 18.6333Z" fill="#0A49AF"/>
<path fill-rule="evenodd" clip-rule="evenodd" d="M15.6185 18.1987C16.5639 18.5752 17.5064 18.9589 18.4491 19.3416C17.4894 20.1757 16.3388 20.7894 15.1138 21.1166C15.2805 20.1436 15.4494 19.1711 15.6185 18.1987Z" fill="#0A49AF"/>
</svg>
