<svg width="26" height="26" viewBox="0 0 26 26" fill="none" xmlns="http://www.w3.org/2000/svg">
<path opacity="0.2" d="M13 26C20.1797 26 26 20.1797 26 13C26 5.8203 20.1797 0 13 0C5.8203 0 0 5.8203 0 13C0 20.1797 5.8203 26 13 26Z" fill="#00CBA0"/>
<path fill-rule="evenodd" clip-rule="evenodd" d="M12.9941 25.9646C20.1575 25.9646 25.9645 20.1575 25.9645 12.9941C25.9645 5.83072 20.1575 0.0236511 12.9941 0.0236511C5.83071 0.0236511 0.0236359 5.83072 0.0236359 12.9941C0.0236359 20.1575 5.83071 25.9646 12.9941 25.9646Z" fill="#002352"/>
<path fill-rule="evenodd" clip-rule="evenodd" d="M7.71789 10.5849H14.3893C14.3893 10.5849 16.692 10.5636 15.0995 13.5097C15.0995 13.5097 13.9374 15.8154 11.0536 15.7727L12.6095 11.8364C12.6472 11.741 12.6354 11.6334 12.578 11.5483C12.5206 11.4632 12.4248 11.4113 12.3216 11.4094L10.2788 11.3748L7.69637 17.6087C7.69637 17.6087 8.55719 17.6941 9.03065 17.6514L8.7724 18.2918H9.99262C10.0612 18.2918 10.1225 18.2496 10.1467 18.1859L10.3649 17.6087L10.8814 17.566L10.5801 18.2918H11.7681C11.8565 18.2918 11.9359 18.2381 11.9682 18.1565L12.3022 17.3098C12.3022 17.3098 15.9177 16.712 17.5533 13.8086C17.5533 13.8086 19.7484 10.4355 17.1659 9.23998C16.6626 9.0111 16.1244 8.86681 15.5734 8.813L15.8772 8.07604C15.8959 8.03071 15.8905 7.97915 15.863 7.93853C15.8354 7.89791 15.7893 7.87358 15.7399 7.87366H14.626L14.2817 8.7703H13.8082L14.0755 8.07391C14.0929 8.02846 14.0867 7.97742 14.0589 7.93742C14.031 7.89742 13.9851 7.87357 13.9361 7.87366H12.817L12.4727 8.7703H8.99535C8.80457 8.76974 8.62921 8.87415 8.53998 9.04143L7.71789 10.5849Z" fill="white"/>
</svg>
