<svg width="26" height="26" viewBox="0 0 26 26" fill="none" xmlns="http://www.w3.org/2000/svg">
<path opacity="0.2" d="M13 26C20.1797 26 26 20.1797 26 13C26 5.8203 20.1797 0 13 0C5.8203 0 0 5.8203 0 13C0 20.1797 5.8203 26 13 26Z" fill="#507CA5"/>
<path fill-rule="evenodd" clip-rule="evenodd" d="M5.39607 10.7478V10H4V11.4955H5.39607V10.7478ZM14.0685 15.7682C15.1295 15.3195 15.7368 14.1456 15.6391 12.7473C15.5623 11.7004 15.1086 10.9003 14.3547 10.4666C13.8032 10.16 13.3216 10.0778 11.9814 10.0778H10.8436V16L12.2606 15.9701C13.524 15.9402 13.7125 15.9252 14.0685 15.7682ZM12.0554 13.1795V14.9442L12.7185 14.9143C13.3118 14.8918 13.4095 14.8619 13.6748 14.6675C14.0936 14.346 14.296 13.8674 14.303 13.1869C14.31 11.9756 13.7865 11.4222 12.6347 11.4148H12.0554V13.1795ZM20.5812 10.8255L18.6686 13.4053C17.1329 15.4691 16.721 15.985 16.5884 15.985H16.4279V10.0778H16.8467V15.1849L18.7384 12.65C20.3159 10.5339 20.658 10.1152 20.8046 10.1152H20.9791L20.986 13.0464L21 15.985H20.6161L20.6021 13.4053L20.5812 10.8255ZM7.49019 10V10.7478V11.4955H6.09411V10H7.49019ZM9.51449 10.7478V10H8.18822V11.4955H9.51449V10.7478ZM7.49019 13.664H6.84101H6.09411V12.1685H7.49019V13.664ZM9.52147 13.664V12.1685H8.18822V13.6715L9.52147 13.664ZM9.49704 14.4267V15.9596H8.18822V14.4192H8.83391L9.49704 14.4267Z" fill="#F9F9F9"/>
</svg>
