<svg width="26" height="26" viewBox="0 0 26 26" fill="none" xmlns="http://www.w3.org/2000/svg">
<path opacity="0.2" d="M13 26C20.1797 26 26 20.1797 26 13C26 5.8203 20.1797 0 13 0C5.8203 0 0 5.8203 0 13C0 20.1797 5.8203 26 13 26Z" fill="#DC9638"/>
<path fill-rule="evenodd" clip-rule="evenodd" d="M14.9634 5.6424C15.1231 5.51321 15.3785 5.56472 15.4919 5.73234C15.5497 5.81111 15.5591 5.91305 15.5575 6.00844C15.5554 6.6056 15.5589 7.20303 15.5556 7.80046C14.5661 8.47475 13.5828 9.15859 12.5944 9.83479C12.5664 9.85332 12.5427 9.8773 12.5196 9.90156C13.1919 10.3709 13.8702 10.8321 14.5452 11.2978C14.6441 11.369 14.7503 11.4308 14.8403 11.5145C15.0876 11.6584 15.3175 11.8337 15.5567 11.9923C15.5562 12.7494 15.5591 13.5069 15.5554 14.2643C14.9903 13.9609 14.4247 13.6587 13.8581 13.3589C13.7027 13.2708 13.5425 13.1918 13.3871 13.1038C13.3223 13.0642 13.2659 13.0127 13.2083 12.9634L13.2016 13.0116C13.1995 12.9945 13.1952 12.9604 13.193 12.9432C13.1642 12.9544 13.1366 12.9915 13.103 12.9768C13.0887 12.9432 13.1234 12.9152 13.1339 12.8863C13.046 12.8334 12.9551 12.7832 12.8809 12.7107C12.0401 12.0667 11.204 11.4148 10.3672 10.7647C10.3597 10.1599 10.3653 9.55433 10.3645 8.94899C11.9 7.85061 13.4293 6.74296 14.9634 5.6424Z" fill="#DC9638"/>
<path fill-rule="evenodd" clip-rule="evenodd" d="M10.3694 15.2893C11.3737 14.5592 12.3782 13.8279 13.3871 13.1038C13.5425 13.1918 13.7027 13.2708 13.8581 13.3589C14.4247 13.6587 14.9903 13.9609 15.5554 14.2643C14.5395 14.9481 13.521 15.6273 12.5051 16.3109C13.5207 17.0042 14.5392 17.6924 15.5554 18.3847C15.5554 19.0658 15.5565 19.7469 15.5548 20.428C15.5616 20.6551 15.329 20.8377 15.114 20.7908C15.0089 20.7747 14.9301 20.6987 14.8473 20.6382C13.9551 19.971 13.0642 19.3018 12.1715 18.6355C11.572 18.1811 10.964 17.7377 10.3677 17.2798C10.3634 16.6167 10.3602 15.9522 10.3694 15.2893Z" fill="#1F3850"/>
</svg>
