<svg width="26" height="26" viewBox="0 0 26 26" fill="none" xmlns="http://www.w3.org/2000/svg">
<path opacity="0.2" d="M13 26C20.1797 26 26 20.1797 26 13C26 5.8203 20.1797 0 13 0C5.8203 0 0 5.8203 0 13C0 20.1797 5.8203 26 13 26Z" fill="#0175B0"/>
<path fill-rule="evenodd" clip-rule="evenodd" d="M8.90964 10.9667C9.49658 10.0044 10.0321 9.01118 10.624 8.05133C11.8062 8.05378 12.9892 8.05215 14.1714 8.05215C13.6259 9.05681 13.0464 10.0427 12.4844 11.0384C11.3445 11.0319 10.2037 11.049 9.06466 11.0303C9.0257 11.0148 8.9486 10.983 8.90964 10.9667Z" fill="#0175B0"/>
<path fill-rule="evenodd" clip-rule="evenodd" d="M8.70155 12.0203C9.87875 12.0162 11.0551 12.0195 12.2315 12.0187C12.1353 12.2419 12.03 12.4619 11.9074 12.6721C11.4597 13.4389 11.0327 14.2162 10.5842 14.9821C9.66404 14.9821 8.74383 14.9821 7.82362 14.9821C7.55171 14.9813 7.27647 15.0001 7.00787 14.9479C7.57078 13.971 8.12456 12.9891 8.70155 12.0203Z" fill="#0175B0"/>
<path fill-rule="evenodd" clip-rule="evenodd" d="M6.56767 16.1449C6.61989 16.0528 6.68622 15.9347 6.8172 15.9632C7.95627 15.9616 9.09534 15.964 10.2344 15.9624C9.68974 16.9678 9.10694 17.9521 8.5457 18.9487C7.41492 18.947 6.28331 18.9503 5.15254 18.947C5.01326 18.987 4.97513 18.8085 5.06466 18.7368C5.57285 17.8772 6.06943 17.011 6.56767 16.1449Z" fill="#0175B0"/>
<path fill-rule="evenodd" clip-rule="evenodd" d="M14.1714 8.05215C15.3022 8.05296 16.4338 8.05296 17.5646 8.05215C17.0166 9.056 16.4379 10.0436 15.8734 11.0376C14.7434 11.0384 13.6135 11.0376 12.4844 11.0384C13.0464 10.0427 13.6259 9.05681 14.1714 8.05215Z" fill="#00A2D0"/>
<path fill-rule="evenodd" clip-rule="evenodd" d="M12.2315 12.0187C13.3681 12.0187 14.5055 12.0179 15.6421 12.0195C15.1098 13.0217 14.537 14.0044 13.9583 14.9813C12.8342 14.983 11.7092 14.9813 10.5843 14.9821C11.0327 14.2162 11.4597 13.4389 11.9074 12.6721C12.0301 12.4619 12.1353 12.2419 12.2315 12.0187Z" fill="#00A2D0"/>
<path fill-rule="evenodd" clip-rule="evenodd" d="M10.2344 15.9624C11.3594 15.964 12.4844 15.9616 13.6093 15.964C13.0887 16.9776 12.4918 17.9513 11.9389 18.9479C10.8081 18.9495 9.67731 18.9479 8.5457 18.9487C9.10694 17.9521 9.68974 16.9679 10.2344 15.9624Z" fill="#00A2D0"/>
<path fill-rule="evenodd" clip-rule="evenodd" d="M17.5646 8.05215C18.697 8.05541 19.8294 8.04563 20.961 8.05785C20.9718 8.20778 20.8574 8.31941 20.7919 8.44245C20.3368 9.23689 19.8825 10.0313 19.4323 10.8274C19.3768 10.9187 19.3204 11.0629 19.1836 11.0384C18.0802 11.0384 16.9768 11.0376 15.8734 11.0376C16.4379 10.0436 17.0166 9.056 17.5646 8.05215Z" fill="#00CCFF"/>
<path fill-rule="evenodd" clip-rule="evenodd" d="M15.6421 12.0195C16.7845 12.0293 17.9277 11.995 19.0684 12.0366C18.5619 13.0299 17.9683 13.9799 17.4394 14.9618C16.2812 15.009 15.119 14.9699 13.9583 14.9813C14.537 14.0044 15.1098 13.0217 15.6421 12.0195Z" fill="#00CCFF"/>
<path fill-rule="evenodd" clip-rule="evenodd" d="M13.6093 15.964C14.6655 15.9607 15.7225 15.964 16.7787 15.9616C16.8856 15.9412 17.1028 15.9884 16.9851 16.1351C16.4429 17.0713 15.9214 18.0198 15.366 18.9495C14.2236 18.947 13.0812 18.9495 11.9389 18.9478C12.4918 17.9513 13.0887 16.9776 13.6093 15.964Z" fill="#00CCFF"/>
</svg>
