<svg width="26" height="26" viewBox="0 0 26 26" fill="none" xmlns="http://www.w3.org/2000/svg">
<path opacity="0.2" d="M13 26C20.1797 26 26 20.1797 26 13C26 5.8203 20.1797 0 13 0C5.8203 0 0 5.8203 0 13C0 20.1797 5.8203 26 13 26Z" fill="#BEA9D2"/>
<path fill-rule="evenodd" clip-rule="evenodd" d="M9.00081 6H16.879L21 12.9746L16.9419 20H9.00081L5 13L9.00081 6ZM9.87339 18.4893H16.0726L19.2347 13.018L16.0202 7.57715H9.87339L6.75323 13.0328L9.87339 18.4893Z" fill="#BEA9D2"/>
<path fill-rule="evenodd" clip-rule="evenodd" d="M10.0186 11.3129H12.2766V12.3898H10.0186V13.6815H13.5476V11.3129H14.6065V14.6149H10.0186V15.9074H15.8774V9.94821H10.0186V11.3129Z" fill="#BEA9D2"/>
</svg>
