<svg width="26" height="26" viewBox="0 0 26 26" fill="none" xmlns="http://www.w3.org/2000/svg">
<path opacity="0.2" d="M13 26C20.1797 26 26 20.1797 26 13C26 5.8203 20.1797 0 13 0C5.8203 0 0 5.8203 0 13C0 20.1797 5.8203 26 13 26Z" fill="white"/>
<path fill-rule="evenodd" clip-rule="evenodd" d="M20.7329 8.35637C20.7142 8.34583 20.6955 8.33529 20.6741 8.32211C19.9178 7.89498 19.1624 7.46686 18.4074 7.03897C17.9279 6.76722 17.4486 6.49556 16.9693 6.2243C16.4778 5.94637 15.9868 5.66806 15.4958 5.3898L15.4957 5.38977L15.4957 5.38973L15.4953 5.38953L15.4948 5.38923C14.6919 4.93417 13.8892 4.47925 13.0855 4.02635L13.0401 4L12.992 4.01845C12.9065 4.05007 12.8397 4.0817 12.7783 4.11596C11.6511 4.76691 10.5239 5.41786 9.39933 6.06618C8.90738 6.35055 8.4151 6.6346 7.92319 6.91843C7.01554 7.44215 6.10914 7.96514 5.20835 8.48814C5.03562 8.5668 5.04002 8.74458 5.0427 8.8528L5.04274 8.85447C5.04274 8.86219 5.04302 8.87018 5.04331 8.87837C5.04391 8.89534 5.04454 8.91312 5.04274 8.93089C5.04007 10.976 5.0374 13.0211 5.03205 15.0662L5.02671 17.3432C5.01603 17.4802 5.07746 17.5962 5.18164 17.6436C6.78698 18.5423 8.39232 19.4436 9.99766 20.3449L12.8371 21.9394C12.9012 21.9789 12.9653 22 13.024 22C13.0748 22 13.1202 21.9842 13.1576 21.9552L17.2765 19.6149C17.7902 19.3233 18.304 19.0312 18.817 18.7394L18.8178 18.7389L18.8186 18.7385L18.8195 18.738L18.8203 18.7376L18.8211 18.7371C19.4751 18.3652 20.1279 17.994 20.7783 17.6252C20.9092 17.5672 20.9866 17.4381 20.9706 17.3168L20.984 8.69898C21.0027 8.50132 20.8344 8.40908 20.7329 8.35637ZM13.0107 8.89927L16.3977 10.8442L13.016 12.7681L11.8648 12.125C11.4855 11.9129 11.1062 11.7014 10.727 11.49C10.3476 11.2784 9.96832 11.0669 9.58898 10.8548L13.0107 8.89927ZM13.1816 8.46969L16.8598 10.5807L20.2868 8.63045C19.8274 8.36953 19.3679 8.10927 18.9084 7.849C18.449 7.58877 17.9896 7.32854 17.5302 7.06764C16.0237 6.2164 14.5199 5.36515 13.016 4.50864C11.376 5.45212 9.73856 6.39561 8.10117 7.34173L5.7399 8.70425L9.12421 10.5912L12.8504 8.46179C12.9466 8.39854 13.0801 8.39854 13.1816 8.46969ZM5.50751 9.09956L8.87579 10.9813L8.94524 15.1321C8.93723 15.2612 9.00134 15.3772 9.10284 15.422C9.55815 15.6812 10.0145 15.9394 10.4712 16.1979L10.4715 16.1981L10.4718 16.1983L10.4723 16.1986L10.4726 16.1987L10.4728 16.1988L10.473 16.1989C10.7632 16.3632 11.0535 16.5275 11.3439 16.6922L12.781 17.5066L12.7783 21.3833L5.49149 17.2931L5.50751 9.09956ZM12.7863 13.1634L9.34324 11.2422L9.40735 15.0688L12.781 16.9821L12.7863 13.1634ZM13.2457 17.5092L14.6855 16.6949C15.0719 16.4752 15.459 16.2563 15.8469 16.037L15.8475 16.0367C16.1994 15.8377 16.552 15.6383 16.9052 15.4378L16.9265 15.4246C16.9666 15.4009 17.02 15.3693 17.0574 15.3165L17.0788 15.2876V15.2533C17.0708 14.3388 17.0708 13.4059 17.0735 12.5045C17.0735 12.3359 17.0738 12.1672 17.074 11.9985C17.0746 11.6612 17.0752 11.3239 17.0735 10.9865L20.5192 9.02577L20.5139 12.3701L20.5058 17.2536C19.5294 17.8072 18.5529 18.3619 17.5758 18.917L17.5729 18.9186C17.0113 19.2376 16.4496 19.5567 15.8875 19.8758L13.2404 21.3807L13.2457 17.5092ZM13.2484 13.1634L13.2457 16.9848C14.3783 16.3417 15.5109 15.7013 16.6407 15.0635V11.2343L13.2484 13.1634Z" fill="white"/>
<path fill-rule="evenodd" clip-rule="evenodd" d="M12.9119 4.95931C12.813 4.96985 12.7249 5.0331 12.6795 5.12534C12.6341 5.22285 12.6394 5.32827 12.6955 5.40733C12.7489 5.49167 12.8477 5.54174 12.9546 5.54174C12.9733 5.54174 12.9947 5.5391 13.016 5.53647C13.1416 5.51538 13.2351 5.43105 13.2564 5.323C13.2831 5.22812 13.2591 5.12798 13.187 5.05418C13.1175 4.97776 13.0107 4.94086 12.9119 4.95931ZM13.1068 6.21641C13.0027 6.16107 12.8798 6.1637 12.789 6.22432C12.7089 6.26912 12.6554 6.35345 12.6447 6.45096C12.6367 6.54847 12.6768 6.63808 12.7409 6.68815C12.797 6.74086 12.8691 6.76721 12.9466 6.76721C12.992 6.76721 13.0374 6.75667 13.0801 6.73822C13.195 6.68815 13.2644 6.58537 13.2618 6.47732C13.2671 6.3719 13.2083 6.27175 13.1068 6.21641ZM12.797 7.44189C12.8932 7.38654 13.0187 7.38918 13.1202 7.45243C13.2164 7.51304 13.2698 7.61319 13.2618 7.72124C13.2564 7.82402 13.1897 7.91363 13.0828 7.96107C13.0401 7.97951 12.9947 7.99006 12.9493 7.99006C12.8798 7.99006 12.813 7.96897 12.7596 7.9268C12.6821 7.87673 12.6367 7.77659 12.6447 7.6738C12.6528 7.57102 12.7089 7.48669 12.797 7.44189ZM8.15994 15.5248C8.05576 15.5537 7.97563 15.6381 7.95159 15.7488C7.92755 15.8621 7.96762 15.9754 8.04775 16.036C8.0985 16.0808 8.16261 16.1045 8.22938 16.1045C8.25075 16.1045 8.27479 16.1019 8.29616 16.0966C8.39232 16.0756 8.47246 16.0097 8.50184 15.9306C8.55259 15.8278 8.53389 15.704 8.45109 15.6117C8.3763 15.5248 8.26411 15.4931 8.15994 15.5248ZM17.6638 16.0966C17.6371 16.1046 17.613 16.1072 17.589 16.1072C17.5195 16.1072 17.4528 16.0835 17.4047 16.0334C17.3272 15.9728 17.2871 15.8621 17.3085 15.7488C17.3299 15.6381 17.4073 15.5511 17.5089 15.5221C17.613 15.4879 17.7279 15.5195 17.808 15.6065C17.8908 15.7013 17.9122 15.8278 17.8588 15.9332C17.8347 16.007 17.7599 16.0729 17.6638 16.0966ZM7.09683 16.1467C6.98999 16.1836 6.91787 16.2785 6.90718 16.3971C6.8965 16.5183 6.95526 16.6316 7.04875 16.6843C7.09149 16.7107 7.14224 16.7265 7.19299 16.7265C7.23573 16.7265 7.2758 16.716 7.31853 16.6975C7.41202 16.6554 7.47613 16.571 7.48414 16.4867C7.50818 16.3839 7.46545 16.2679 7.3773 16.1968C7.29449 16.1256 7.19032 16.1072 7.09683 16.1467ZM18.7296 16.7054C18.6948 16.7186 18.6601 16.7239 18.6254 16.7239C18.5613 16.7239 18.4972 16.7002 18.4464 16.6606C18.3663 16.6 18.3235 16.4893 18.3422 16.376C18.3609 16.2653 18.4357 16.1783 18.5346 16.1441C18.6307 16.1072 18.7429 16.1309 18.823 16.2047C18.9085 16.2811 18.9432 16.3918 18.9139 16.4946C18.9032 16.5816 18.8311 16.6685 18.7296 16.7054ZM6.2955 16.7819C6.20468 16.7318 6.1005 16.7318 6.01503 16.7819C5.92154 16.8319 5.86277 16.9321 5.86277 17.0454C5.86277 17.1614 5.92688 17.2615 6.0177 17.3063C6.05777 17.33 6.10317 17.3406 6.14858 17.3406C6.20201 17.3406 6.2581 17.3248 6.30885 17.2931C6.40501 17.2325 6.45843 17.1245 6.44775 17.0322C6.45042 16.9294 6.39166 16.8346 6.2955 16.7819ZM19.6671 17.3406C19.603 17.3406 19.5416 17.3168 19.4935 17.2747C19.4214 17.2272 19.376 17.1297 19.3813 17.027C19.3866 16.9215 19.4427 16.8319 19.5282 16.7819C19.619 16.7239 19.7339 16.7265 19.8274 16.7898C19.9289 16.8556 19.9823 16.9716 19.9609 17.0849C19.9556 17.1772 19.8835 17.272 19.7793 17.3168C19.7419 17.3327 19.7045 17.3406 19.6671 17.3406Z" fill="white"/>
</svg>
