<svg width="26" height="26" viewBox="0 0 26 26" fill="none" xmlns="http://www.w3.org/2000/svg">
<path opacity="0.2" d="M13 26C20.1797 26 26 20.1797 26 13C26 5.8203 20.1797 0 13 0C5.8203 0 0 5.8203 0 13C0 20.1797 5.8203 26 13 26Z" fill="#2D475B"/>
<path fill-rule="evenodd" clip-rule="evenodd" d="M11.2739 11.0073H17.9478V12.5026H11.2739V11.0073Z" fill="white"/>
<path fill-rule="evenodd" clip-rule="evenodd" d="M17.9478 13.4985H11.2739V14.9938H16.2309V16.3978C15.5662 16.9702 14.2647 17.2657 14.2647 17.2657C10.4432 17.9303 9.22471 14.6626 9.22471 14.6626C8.11702 10.8965 10.8032 9.40111 10.8032 9.40111C14.0986 7.40726 16.5632 9.95495 16.5632 9.95495L17.7262 8.81957C15.7878 6.60418 12.797 7.01957 12.797 7.01957C7.95086 7.51803 7.31394 11.5888 7.31394 11.5888C6.51086 14.8565 8.72625 17.0996 8.72625 17.0996C12.7693 21.198 17.9755 17.4319 17.9755 17.4319V13.4985H17.9478Z" fill="white"/>
</svg>
