<svg width="26" height="26" viewBox="0 0 26 26" fill="none" xmlns="http://www.w3.org/2000/svg">
<path opacity="0.2" d="M13 26C20.1797 26 26 20.1797 26 13C26 5.8203 20.1797 0 13 0C5.8203 0 0 5.8203 0 13C0 20.1797 5.8203 26 13 26Z" fill="#8BC53E"/>
<path fill-rule="evenodd" clip-rule="evenodd" d="M9.02943 7.60655C10.0543 6.78909 11.3256 6.24218 12.6561 6.15273C14.5313 6.02473 16.4094 6.65382 17.9168 7.71855C18.0104 7.78473 18.1812 7.89673 18.0711 8.02182C17.8396 8.30764 17.5669 8.55927 17.3317 8.84218C17.1466 9.03709 16.9915 9.26182 16.7773 9.42837C16.599 9.48218 16.4679 9.328 16.3323 9.24509C15.4333 8.59055 14.3125 8.232 13.1888 8.24291C11.9931 8.20073 10.8229 8.74764 10.0176 9.58982C8.51251 11.2407 8.45183 13.8844 9.70967 15.6858C10.1165 16.2647 10.6911 16.736 11.3608 17.0029C11.9369 17.2458 12.5647 17.3302 13.1835 17.4C14.2886 17.3978 15.3778 17.0662 16.3263 16.5229C16.5383 16.3396 16.4424 16.0371 16.4521 15.7978C16.4229 15.4938 16.4941 15.184 16.4364 14.8844C16.354 14.656 16.0738 14.7345 15.8865 14.7324C14.98 14.7142 14.0728 14.728 13.1686 14.6924C13.1528 14.3716 13.1656 14.0516 13.1588 13.7316C14.9943 13.7309 16.8297 13.7295 18.6652 13.7324C18.6584 14.9484 18.6734 16.1644 18.6712 17.3811C17.2081 18.5753 15.3411 19.3251 13.418 19.3469C11.8118 19.4073 10.1539 18.9913 8.88259 18.0102C7.86523 17.2575 7.15427 16.1578 6.8134 14.968C6.42384 13.5665 6.3699 12.048 6.82614 10.6553C7.21496 9.44946 8.01656 8.39127 9.02943 7.60655Z" fill="#8BC53E"/>
<path fill-rule="evenodd" clip-rule="evenodd" d="M13.1678 12.2727C14.9965 12.2713 16.8252 12.2705 18.6539 12.2735C18.6487 12.5949 18.6502 12.9171 18.6524 13.2393C16.8245 13.2356 14.9965 13.2473 13.1686 13.2436C13.1693 12.92 13.1701 12.5964 13.1678 12.2727Z" fill="#8BC53E"/>
</svg>
