<svg width="26" height="26" viewBox="0 0 26 26" fill="none" xmlns="http://www.w3.org/2000/svg">
<path opacity="0.2" d="M13 26C20.1797 26 26 20.1797 26 13C26 5.8203 20.1797 0 13 0C5.8203 0 0 5.8203 0 13C0 20.1797 5.8203 26 13 26Z" fill="#1666AE"/>
<path fill-rule="evenodd" clip-rule="evenodd" d="M13 22C17.9706 22 22 17.9706 22 13C22 8.02944 17.9706 4 13 4C8.02944 4 4 8.02944 4 13C4 17.9706 8.02944 22 13 22Z" fill="#1666AE"/>
<path fill-rule="evenodd" clip-rule="evenodd" d="M8.98703 6.29898C8.91623 6.40437 8.93329 6.54572 9.02713 6.63125C9.12097 6.71677 9.2633 6.72066 9.36168 6.6404C9.46006 6.56014 9.48482 6.41993 9.41988 6.31083C9.35495 6.20172 9.2199 6.15663 9.10244 6.20483L8.58087 5.6997L7.75061 5.69373C7.68259 5.74282 7.61528 5.7928 7.54869 5.84367L8.52284 5.85106L8.98703 6.29898ZM5.68919 15.9319C5.72041 16.0549 5.65686 16.1822 5.5398 16.2311L5.52818 16.9571L5.13389 17.3584C5.10826 17.3122 5.08305 17.2658 5.05825 17.219L5.37998 16.8913L5.39168 16.2461C5.26718 16.2217 5.17935 16.1098 5.18524 15.983C5.19112 15.8563 5.28893 15.753 5.41517 15.7401C5.5414 15.7273 5.65797 15.8089 5.68919 15.9319ZM9.73891 19.4298C9.67401 19.5389 9.53901 19.584 9.42159 19.5358L8.72708 20.2303H7.64641C7.57966 20.1807 7.51366 20.1303 7.4484 20.0789H8.66888L9.30618 19.4416C9.23541 19.3363 9.25248 19.195 9.34629 19.1095C9.44011 19.024 9.58238 19.0201 9.68072 19.1004C9.77907 19.1806 9.80382 19.3207 9.73891 19.4298ZM9.06748 7.52029C9.09837 7.50769 9.13143 7.50123 9.16479 7.50128V7.50111C9.28237 7.50113 9.38485 7.58118 9.41334 7.69526C9.44182 7.80934 9.389 7.92817 9.28523 7.98346C9.18146 8.03875 9.05337 8.01631 8.97458 7.92903C8.89578 7.84175 8.8865 7.71205 8.95208 7.61445L8.48772 7.16652L6.47426 7.15822V7.00686L8.54592 7.01516L9.06748 7.52029ZM9.03668 17.2177C8.9422 17.2178 8.85545 17.2699 8.81098 17.3533C8.76651 17.4366 8.77153 17.5377 8.82405 17.6162L8.35969 18.0646L6.34615 18.0729V18.2242L8.41789 18.2159L8.93946 17.7109C9.03519 17.7501 9.14511 17.7278 9.21807 17.6545C9.29104 17.5812 9.31273 17.4711 9.27305 17.3756C9.23338 17.2801 9.14013 17.2178 9.03668 17.2177ZM16.9598 9.97661L16.8527 10.0836L16.8514 10.0823L16.851 9.86785L16.9598 9.97661ZM16.0828 9.09961L14.6582 9.08799C14.6092 8.97099 14.482 8.90748 14.3591 8.9387C14.2361 8.96991 14.1546 9.08644 14.1674 9.21262C14.1802 9.3388 14.2835 9.43658 14.4102 9.44248C14.5368 9.44839 14.6487 9.36063 14.6732 9.23619L16.0169 9.24781L16.6792 9.91011V9.69599L16.0828 9.09961ZM12.8262 9.65373C12.7952 9.66646 12.762 9.673 12.7284 9.67299C12.6103 9.67298 12.5074 9.59258 12.4787 9.47799C12.4501 9.3634 12.5032 9.24403 12.6074 9.18848C12.7116 9.13292 12.8403 9.15544 12.9194 9.24308C12.9986 9.33073 13.008 9.46102 12.9421 9.55908L13.3348 9.94681H14.9884V10.0989H13.2763L12.8262 9.65373Z" fill="#7290C9"/>
<path fill-rule="evenodd" clip-rule="evenodd" d="M16.0737 7.5187L16.0621 5.93117H16.0622C15.9452 5.88221 15.8817 5.75496 15.9129 5.63204C15.9441 5.50911 16.0606 5.42758 16.1868 5.44038C16.313 5.45317 16.4108 5.55643 16.4167 5.68312C16.4226 5.80981 16.3348 5.92172 16.2104 5.9462L16.222 7.45286L16.8482 8.07913L16.8511 9.86784V10.0823L16.8536 11.6145H16.6792V8.1331L16.0737 7.5187ZM18.6041 8.94817C18.6979 9.03369 18.715 9.17504 18.6442 9.28043L19.3649 9.86842L21.4323 9.87614C21.4509 9.92645 21.4691 9.97696 21.4868 10.0277L19.3065 10.0194L18.5288 9.37458C18.4113 9.42278 18.2763 9.37769 18.2113 9.26859C18.1464 9.15948 18.1712 9.01928 18.2695 8.93902C18.3679 8.85875 18.5102 8.86265 18.6041 8.94817Z" fill="#7290C9"/>
<path fill-rule="evenodd" clip-rule="evenodd" d="M14.8132 6.19744L14.3273 5.65329H12.1151L11.7932 5.28482C11.6758 5.33302 11.5407 5.28793 11.4758 5.17882C11.4108 5.06972 11.4356 4.92951 11.534 4.84925C11.6324 4.76899 11.7747 4.77289 11.8685 4.85841C11.9624 4.94393 11.9794 5.08528 11.9086 5.19067L12.1733 5.50193H14.3855L14.9286 6.10329C15.0461 6.05509 15.1811 6.10018 15.246 6.20928C15.311 6.31839 15.2862 6.45859 15.1878 6.53885C15.0895 6.61911 14.9471 6.61522 14.8533 6.5297C14.7595 6.44418 14.7424 6.30283 14.8132 6.19744ZM18.7198 7.96165C18.7905 7.85629 18.7734 7.71506 18.6795 7.62966C18.5857 7.54426 18.4435 7.54045 18.3452 7.62069C18.247 7.70093 18.2223 7.84103 18.2872 7.95004C18.3521 8.05904 18.487 8.10407 18.6044 8.05589L19.3101 8.69212L20.8997 8.70324C20.8721 8.65226 20.8438 8.60159 20.8151 8.55122L19.3683 8.54076L18.7198 7.96165ZM21.3619 10.4699L19.0039 10.4616L18.1787 9.78075C18.2495 9.67536 18.2324 9.53401 18.1386 9.44849C18.0447 9.36297 17.9024 9.35907 17.804 9.43934C17.7056 9.5196 17.6809 9.6598 17.7458 9.76891C17.8107 9.87801 17.9458 9.9231 18.0632 9.8749L18.9457 10.6128L21.3565 10.6211C21.3437 10.5712 21.3457 10.5187 21.362 10.4698L21.3619 10.4699ZM5.38635 9.37055C5.38061 9.24371 5.46864 9.1318 5.59326 9.10749L5.54428 8.23921L5.43792 8.13236C5.46599 8.08891 5.49433 8.0457 5.52294 8.00275L5.69157 8.17354L5.74138 9.12269C5.85848 9.17179 5.92195 9.29924 5.89058 9.42227C5.85922 9.54531 5.74247 9.62681 5.61616 9.61385C5.48985 9.6009 5.39209 9.49739 5.38635 9.37055ZM14.7697 18.7749C14.6751 18.7749 14.5882 18.8271 14.5437 18.9106C14.4992 18.9941 14.5043 19.0953 14.5571 19.1739L14.2924 19.4851H12.0802L11.5371 20.0864C11.4197 20.0382 11.2847 20.0833 11.2198 20.1924C11.1549 20.3015 11.1796 20.4416 11.278 20.5218C11.3763 20.6021 11.5186 20.5982 11.6124 20.5127C11.7062 20.4272 11.7233 20.2859 11.6525 20.1806L12.1384 19.6365H14.3506L14.6725 19.268C14.7683 19.3074 14.8784 19.2853 14.9515 19.2119C15.0246 19.1385 15.0463 19.0283 15.0065 18.9327C14.9667 18.837 14.8733 18.7748 14.7697 18.7749ZM20.4203 14.1711C20.3534 14.238 20.3288 14.3363 20.3564 14.4268C20.384 14.5173 20.4591 14.5853 20.5519 14.6036L20.5616 15.5348L19.8124 16.1675L19.7837 17.0233C19.6667 17.0723 19.6032 17.1995 19.6344 17.3225C19.6656 17.4454 19.7822 17.5269 19.9083 17.5141C20.0345 17.5013 20.1323 17.3981 20.1382 17.2714C20.1441 17.1447 20.0564 17.0328 19.9319 17.0083L19.9606 16.2334L20.7098 15.6006L20.7001 14.5885C20.7956 14.5486 20.8577 14.4552 20.8575 14.3517C20.8573 14.2482 20.7948 14.155 20.6991 14.1155C20.6035 14.076 20.4935 14.0979 20.4203 14.1711ZM9.30754 18.9404C9.24287 19.0494 9.10807 19.0947 8.99068 19.0468L8.29625 19.7416H7.04456C6.98843 19.6918 6.93289 19.6414 6.87792 19.5903H8.23805L8.87528 18.9529C8.80438 18.8478 8.82116 18.7066 8.91474 18.621C9.00831 18.5355 9.15045 18.5313 9.24884 18.6113C9.34723 18.6913 9.3722 18.8313 9.30754 18.9404Z" fill="#7290C9"/>
<path fill-rule="evenodd" clip-rule="evenodd" d="M10.8481 5.75161L10.8473 5.75069L10.8482 5.74986L10.8463 4.26013C10.9042 4.24591 10.9623 4.23223 11.0207 4.21912V5.71034L11.7168 6.40618H12.9906C13.0151 6.28164 13.1271 6.19381 13.2538 6.1997C13.3806 6.2056 13.484 6.30345 13.4968 6.42972C13.5096 6.55599 13.428 6.6726 13.305 6.70382C13.1819 6.73505 13.0546 6.67147 13.0056 6.55438H11.6509L11.0207 5.92413V7.52944L11.5538 8.05566L11.5436 9.71277C11.6606 9.76167 11.7242 9.88892 11.6931 10.0119C11.6619 10.1349 11.5454 10.2165 11.4192 10.2038C11.293 10.1911 11.1951 10.0878 11.1891 9.96109C11.1831 9.83436 11.2709 9.72236 11.3954 9.69782L11.4056 8.1215L10.8505 7.59013L10.8481 5.75161ZM13.079 19.0449C12.9523 19.0508 12.8404 18.9631 12.8159 18.8386H11.5418L10.8457 19.5347V21.0919H10.6714L10.6735 19.495L10.6726 19.4941L10.6735 19.4932L10.6759 17.6547L11.231 17.1229L11.2208 15.5466C11.096 15.5221 11.0081 15.4099 11.014 15.283C11.0199 15.156 11.118 15.0525 11.2444 15.0397C11.3709 15.027 11.4876 15.1088 11.5188 15.232C11.55 15.3552 11.4862 15.4827 11.3689 15.5316L11.3792 17.1887L10.8461 17.7154V19.3207L11.4763 18.6904H12.831C12.8799 18.5734 13.0072 18.5099 13.1301 18.5411C13.253 18.5724 13.3345 18.6889 13.3217 18.8151C13.309 18.9412 13.2057 19.039 13.079 19.0449ZM16.678 18.9479C16.6254 18.8324 16.4961 18.7728 16.3741 18.8079C16.2521 18.8429 16.1741 18.9621 16.1909 19.088C16.2077 19.2138 16.3141 19.3084 16.441 19.3103C16.568 19.3122 16.6772 19.2208 16.6977 19.0955L18.1464 19.0962L18.8647 19.8206C18.9029 19.7874 18.9408 19.7542 18.9784 19.721L18.2075 18.9461L16.678 18.9479ZM17.8082 19.8517C17.907 19.7881 18.0365 19.7998 18.1222 19.8803C18.1465 19.9031 18.1661 19.9304 18.18 19.9606L18.6994 19.9597C18.6379 20.0101 18.5759 20.0597 18.5132 20.1085H18.1997C18.1806 20.2245 18.0851 20.3126 17.968 20.3223C17.8508 20.332 17.7421 20.2607 17.7044 20.1494C17.6666 20.0381 17.7094 19.9153 17.8082 19.8517ZM14.1516 18.0838C14.2164 18.0148 14.2379 17.9157 14.2074 17.8261C14.177 17.7365 14.0997 17.671 14.0063 17.6557L14.0069 16.1372L13.8567 16.1343L13.8587 17.6754C13.7645 17.7183 13.7055 17.8137 13.709 17.9171C13.7125 18.0205 13.7779 18.1116 13.8747 18.1481C13.9715 18.1846 14.0808 18.1592 14.1516 18.0838ZM6.30494 17.0761C6.36857 17.1749 6.3568 17.3043 6.2764 17.39C6.2536 17.4144 6.22624 17.434 6.19587 17.4478L6.16706 18.8475C6.11763 18.7897 6.06897 18.7313 6.0211 18.6723L6.04825 17.4675C5.9323 17.4484 5.84417 17.353 5.8345 17.2359C5.82483 17.1188 5.8961 17.0101 6.00736 16.9723C6.11863 16.9346 6.24132 16.9774 6.30494 17.0761ZM19.6823 7.41071C19.5966 7.33022 19.4671 7.3184 19.3682 7.38206C19.2694 7.44572 19.2265 7.56851 19.2643 7.67986C19.3021 7.79121 19.4109 7.86253 19.5281 7.85283C19.6453 7.84314 19.7408 7.75491 19.7598 7.63887H20.2208C20.1836 7.58905 20.146 7.53946 20.1079 7.49008L19.7401 7.49092C19.7262 7.46069 19.7066 7.43345 19.6823 7.41071ZM18.2975 6.46246C18.3962 6.39883 18.5255 6.41051 18.6111 6.49079C18.6355 6.5136 18.6552 6.541 18.669 6.5714L19.2894 6.56999C19.3396 6.61925 19.3892 6.66907 19.4383 6.71944L18.6887 6.71894C18.6697 6.83479 18.5743 6.92285 18.4573 6.93252C18.3403 6.9422 18.2317 6.87101 18.1939 6.75985C18.1561 6.6487 18.1988 6.52609 18.2975 6.46246ZM9.43371 5.99446C9.43728 6.11201 9.52043 6.21204 9.63535 6.23704C9.75028 6.26203 9.86746 6.20558 9.91954 6.10013C9.97161 5.99467 9.94521 5.86731 9.8555 5.79125C9.7658 5.71519 9.63583 5.70997 9.54031 5.77859L8.8023 5.03966C8.7563 5.06396 8.71052 5.08887 8.66497 5.11438L9.44981 5.8969C9.43814 5.92806 9.43267 5.9612 9.43371 5.99446ZM6.07091 8.17988C6.00725 8.08101 6.01906 7.9515 6.09956 7.86578C6.12242 7.84142 6.14983 7.82179 6.18026 7.80799L6.17884 7.13889C6.22789 7.08154 6.2777 7.02484 6.32829 6.96877L6.32771 7.78831C6.44376 7.8073 6.53198 7.90285 6.54168 8.02004C6.55137 8.13723 6.48005 8.24598 6.3687 8.28378C6.25736 8.32159 6.13457 8.27875 6.07091 8.17988ZM17.9513 16.8851L16.4219 16.8871C16.3693 16.7716 16.24 16.712 16.1179 16.7471C15.9959 16.7822 15.918 16.9013 15.9348 17.0272C15.9515 17.153 16.058 17.2476 16.1849 17.2495C16.3119 17.2514 16.4211 17.16 16.4416 17.0347L17.8902 17.0351L18.6316 17.7823L17.0739 17.7831C17.0213 17.6676 16.892 17.608 16.7699 17.6431C16.6479 17.6782 16.57 17.7973 16.5868 17.9232C16.6035 18.049 16.71 18.1436 16.8369 18.1455C16.9639 18.1474 17.0731 18.056 17.0936 17.9307L20.5201 17.9313C20.5527 17.8815 20.5847 17.8315 20.6163 17.7813L18.8444 17.7822L17.9513 16.8851ZM8.73886 10.0975C8.6377 10.1475 8.51576 10.1254 8.43856 10.0431C8.40369 10.0061 8.3807 9.95949 8.37255 9.90929L4.55519 9.90987C4.57357 9.85961 4.59239 9.80958 4.61165 9.75976L6.6217 9.76076L7.51481 8.86333L9.04423 8.86532C9.09701 8.75 9.22627 8.69069 9.34812 8.72589C9.46997 8.76109 9.54769 8.88019 9.53084 9.0059C9.51399 9.13161 9.40765 9.22604 9.28083 9.2279C9.15401 9.22977 9.04494 9.13852 9.02439 9.01336L7.57575 9.01394L6.83442 9.76117L8.39206 9.762C8.43866 9.65925 8.54699 9.59906 8.65886 9.61379C8.77072 9.62852 8.85978 9.71469 8.87819 9.82601C8.89661 9.93733 8.84003 10.0476 8.73886 10.0975ZM7.09611 17.4132C7.13099 17.3761 7.15398 17.3295 7.16212 17.2792L7.79569 17.2798C7.83365 17.4008 7.95443 17.4758 8.0797 17.4562C8.20498 17.4366 8.29705 17.3282 8.29621 17.2014C8.29536 17.0746 8.20187 16.9675 8.07634 16.9496C7.95082 16.9316 7.83105 17.0082 7.79469 17.1297L7.14244 17.1316C7.09568 17.029 6.98735 16.9691 6.87559 16.984C6.76384 16.9988 6.67495 17.085 6.65664 17.1963C6.63833 17.3075 6.69492 17.4176 6.79602 17.4675C6.89711 17.5174 7.01895 17.4954 7.09611 17.4132ZM7.99263 7.97828C8.02509 7.86985 8.12487 7.7956 8.23805 7.79562V7.79554C8.36947 7.79556 8.47954 7.89504 8.49282 8.02578C8.50611 8.15652 8.41829 8.2761 8.28957 8.30256C8.16085 8.32902 8.03298 8.25377 7.99362 8.12839L7.36005 8.12781C7.33953 8.2531 7.23034 8.34447 7.10338 8.34258C6.97643 8.34068 6.87001 8.2461 6.85323 8.12024C6.83646 7.99439 6.91438 7.87523 7.03641 7.84015C7.15843 7.80506 7.28775 7.86464 7.34038 7.98019L7.99263 7.97828ZM16.3283 14.2152C16.2108 14.167 16.0758 14.2121 16.0109 14.3212C15.946 14.4302 15.9708 14.5704 16.0691 14.6506C16.1675 14.7308 16.3097 14.727 16.4036 14.6415C16.4974 14.556 16.5144 14.4147 16.4437 14.3093L17.1293 13.6402L21.3553 13.6319V13.4806L17.0712 13.4889L16.3283 14.2152ZM16.0422 14.5312C16.0729 14.6051 16.1451 14.6533 16.2251 14.6533C16.3344 14.6533 16.423 14.5647 16.423 14.4554C16.423 14.3753 16.3748 14.3031 16.3008 14.2725C16.2268 14.2419 16.1417 14.2588 16.0851 14.3154C16.0285 14.3721 16.0115 14.4572 16.0422 14.5312ZM7.38313 16.4414L8.93422 16.4531C8.98318 16.5701 9.11043 16.6336 9.23335 16.6023C9.35628 16.5711 9.43781 16.4546 9.42502 16.3284C9.41222 16.2022 9.30896 16.1045 9.18227 16.0986C9.05558 16.0927 8.94367 16.1804 8.9192 16.3049L7.49539 16.2932L6.65566 15.3369H4.31741C4.33335 15.3965 4.34995 15.4558 4.36722 15.5149H6.59638L7.38313 16.4414ZM9.317 16.2162C9.23971 16.1389 9.1144 16.1389 9.03709 16.2162C8.99994 16.2533 8.97906 16.3037 8.97906 16.3562C8.97906 16.4087 8.99994 16.459 9.03709 16.4961C9.1144 16.5734 9.23971 16.5734 9.317 16.4961C9.39429 16.4188 9.39429 16.2935 9.317 16.2162Z" fill="#7290C9"/>
<path fill-rule="evenodd" clip-rule="evenodd" d="M21.3619 10.4699C21.3287 10.5695 21.3567 10.6793 21.4336 10.7507C21.5104 10.8222 21.6219 10.8423 21.7189 10.802C21.6756 10.6293 21.6274 10.4587 21.5743 10.2901C21.4755 10.3057 21.3936 10.375 21.3619 10.4699ZM9.12485 10.7583C8.97782 10.698 8.80877 10.7544 8.72747 10.8909C8.64616 11.0275 8.67713 11.203 8.80027 11.3035C8.9234 11.404 9.10155 11.3991 9.21904 11.2921C9.33653 11.1851 9.35792 11.0082 9.26931 10.8762L9.55368 10.662L9.46625 10.4871L9.12485 10.7583ZM10.6919 14.0416L11.0864 13.6751L13.0883 13.6786L13.7916 13L13.7334 12.8603L13.0232 13.5356H11.0167L10.5766 13.9475C10.4592 13.8992 10.3241 13.9443 10.259 14.0534C10.194 14.1625 10.2188 14.3028 10.3171 14.3831C10.4155 14.4634 10.5579 14.4596 10.6518 14.3741C10.7457 14.2886 10.7628 14.1472 10.692 14.0417L10.6919 14.0416ZM16.617 13.1512L15.9314 13.8203V13.8205C16.0022 13.9258 15.9851 14.0671 15.8913 14.1526C15.7975 14.2381 15.6552 14.242 15.5569 14.1618C15.4585 14.0815 15.4338 13.9414 15.4987 13.8323C15.5636 13.7232 15.6986 13.6781 15.816 13.7263L16.5587 13L18.6305 12.9917V13.1429L16.617 13.1512ZM15.5265 13.9663C15.5265 14.0757 15.6151 14.1643 15.7244 14.1643C15.7769 14.1643 15.8273 14.1435 15.8644 14.1063C15.9015 14.0692 15.9224 14.0189 15.9223 13.9663C15.9223 13.857 15.8337 13.7684 15.7244 13.7684C15.6151 13.7684 15.5265 13.857 15.5265 13.9663ZM10.2872 14.1876C10.2872 14.2969 10.3757 14.3855 10.485 14.3855H10.4851C10.5377 14.3855 10.5881 14.3646 10.6252 14.3275C10.6624 14.2903 10.6832 14.2398 10.6831 14.1873C10.6829 14.078 10.5942 13.9896 10.485 13.9897C10.3757 13.9898 10.2872 14.0784 10.2872 14.1876ZM8.79283 11.059C8.79283 11.1791 8.89018 11.2765 9.01027 11.2765V11.2768C9.068 11.2768 9.12334 11.2538 9.16412 11.213C9.20491 11.1721 9.22779 11.1168 9.22772 11.059C9.22772 10.9389 9.13037 10.8416 9.01027 10.8416C8.89018 10.8416 8.79283 10.9389 8.79283 11.059ZM5.46698 14.3156H6.04916V14.1413H5.57176L4.72182 13.2911H5.10607V13.0815H4.01179C4.01245 13.1554 4.014 13.2292 4.01644 13.3027H4.48902L5.46698 14.3156ZM5.86285 12.1853L5.8396 12.3596L4.73353 11.254H4.18058C4.18977 11.2073 4.19929 11.1607 4.20914 11.1142H4.79182L5.86285 12.1853ZM13.7102 14.3506H12.4412V14.5136H13.7102V14.3506Z" fill="#7290C9"/>
<path fill-rule="evenodd" clip-rule="evenodd" d="M14.661 10.9276V9.58862H19.7998V16.4114H13.5472V10.9276H14.661ZM14.9983 14.828H18.3484V11.172H14.9983V14.828Z" fill="#FFFFFA"/>
<path fill-rule="evenodd" clip-rule="evenodd" d="M10.6481 15.0839V16.4112H8.91289C8.91289 16.4112 7.16046 16.4343 6.13484 14.8567C5.59038 14.0177 5.42498 12.988 5.67928 12.0207C5.9296 11.0694 6.6247 9.94364 8.47044 9.58804H12.5339V10.8579H8.94834C8.94834 10.8579 7.05759 11.5074 7.08217 13.0756C7.09304 13.7655 7.48069 14.3907 8.07848 14.7352C8.3479 14.8898 8.64229 14.9961 8.94834 15.0491L10.6481 15.0839Z" fill="white"/>
<path fill-rule="evenodd" clip-rule="evenodd" d="M8.94826 12.3596V13.6054H11.207V16.4114H12.5343V12.3596H8.94826V12.3596Z" fill="white"/>
</svg>
