<svg width="26" height="26" viewBox="0 0 26 26" fill="none" xmlns="http://www.w3.org/2000/svg">
<path opacity="0.2" d="M13 26C20.1797 26 26 20.1797 26 13C26 5.8203 20.1797 0 13 0C5.8203 0 0 5.8203 0 13C0 20.1797 5.8203 26 13 26Z" fill="#505050"/>
<path fill-rule="evenodd" clip-rule="evenodd" d="M10.9588 7.00474C10.8751 7.00489 10.7914 7.00504 10.7077 7.00504L10.7157 7.05996C10.5976 7.05546 10.4797 7.06073 10.3619 7.066C10.273 7.06998 10.1842 7.07395 10.0952 7.07374C10.0963 7.08081 10.098 7.09171 10.0996 7.10243C10.101 7.11206 10.1025 7.12155 10.1035 7.12799C10.0391 7.12525 9.97497 7.12953 9.91083 7.13381C9.85663 7.13742 9.80244 7.14103 9.74815 7.14041C9.74997 7.15419 9.75362 7.18173 9.75561 7.19551C9.71035 7.19311 9.66537 7.19716 9.62042 7.2012C9.5738 7.20539 9.52721 7.20958 9.48036 7.20659L9.48073 7.21139C9.48243 7.23383 9.48414 7.25639 9.486 7.27881C9.44714 7.27846 9.4085 7.28166 9.36988 7.28486C9.33534 7.28773 9.30081 7.29059 9.26614 7.29091L9.26695 7.29682C9.26917 7.31302 9.2714 7.32932 9.27376 7.34549C9.23504 7.34408 9.19658 7.34774 9.15812 7.3514C9.12313 7.35473 9.08813 7.35807 9.0529 7.35759C9.05468 7.37441 9.0566 7.39124 9.05852 7.40819L9.05921 7.41419C9.02225 7.41218 8.98568 7.41604 8.94911 7.4199C8.92135 7.42282 8.89361 7.42575 8.8657 7.42611L8.87267 7.48137C8.84094 7.48253 8.80934 7.48514 8.77771 7.48776C8.75893 7.48931 8.74013 7.49087 8.72128 7.49212L8.72742 7.54755C8.6975 7.54805 8.66777 7.55124 8.63803 7.55443C8.59839 7.55868 8.55874 7.56293 8.51866 7.56082C8.52065 7.57474 8.52429 7.60256 8.52612 7.61652L8.52612 7.61658C8.5054 7.61759 8.48467 7.61893 8.46411 7.62044C8.43874 7.62699 8.41254 7.62817 8.38651 7.62917L8.39281 7.68326C8.38483 7.68426 8.37684 7.6853 8.36885 7.68635C8.33123 7.69128 8.29354 7.69622 8.25552 7.69636C8.25643 7.71192 8.25715 7.72748 8.25787 7.74308C8.25834 7.75324 8.25881 7.76342 8.25934 7.77362C8.23048 7.77463 8.20163 7.7753 8.17278 7.7758C8.17457 7.79284 8.17649 7.80987 8.17842 7.82702L8.17908 7.83291C8.17518 7.83283 8.17127 7.83271 8.16735 7.83259C8.13945 7.83177 8.11124 7.83093 8.08507 7.84198C8.06998 7.84248 8.03997 7.84383 8.02505 7.8445C8.02704 7.86297 8.02919 7.88145 8.03135 7.89992V7.89992C8.0051 7.90126 7.97905 7.90431 7.95299 7.90736C7.93657 7.90928 7.92014 7.9112 7.90367 7.91269L7.90881 7.96963C7.88096 7.96996 7.85327 7.9708 7.82558 7.97164C7.82707 7.99213 7.82873 8.01262 7.83038 8.03311L7.82735 8.03321C7.80232 8.03401 7.77719 8.0348 7.75328 8.04336L7.7047 8.04437L7.70851 8.10433C7.67618 8.10416 7.64368 8.1045 7.61151 8.10483C7.61251 8.126 7.61384 8.14716 7.61533 8.16832C7.58781 8.16954 7.56043 8.17272 7.53306 8.17591C7.51887 8.17756 7.50468 8.17921 7.49047 8.18058C7.49147 8.20393 7.4918 8.22744 7.49163 8.25096C7.47876 8.25822 7.4643 8.2597 7.44982 8.26118C7.43819 8.26237 7.42655 8.26356 7.41569 8.26775L7.41702 8.32352L7.41629 8.3235C7.39249 8.323 7.36886 8.32251 7.34506 8.32234L7.34533 8.32632C7.34673 8.34685 7.34814 8.3675 7.3497 8.38801C7.32615 8.38717 7.30261 8.38667 7.27923 8.38633C7.27987 8.40758 7.28081 8.42867 7.28176 8.45005L7.28188 8.45284C7.27932 8.45291 7.27675 8.45296 7.27417 8.45302C7.25142 8.45348 7.22832 8.45396 7.20777 8.46527C7.18588 8.46544 7.16399 8.46544 7.14227 8.46527V8.46527C7.14327 8.48828 7.14426 8.51129 7.14509 8.53447L7.07479 8.53195L7.08042 8.5899C7.05937 8.59023 7.03831 8.59141 7.01742 8.59292C6.9971 8.59943 6.99919 8.61801 7.00125 8.6363C7.00216 8.64443 7.00307 8.65251 7.002 8.65943C6.97944 8.65842 6.95689 8.65759 6.93451 8.65691C6.93484 8.6858 6.93534 8.71486 6.93617 8.74375C6.91476 8.74247 6.89335 8.74135 6.87208 8.74023L6.86868 8.74005C6.86885 8.76357 6.86918 8.78708 6.86968 8.8106C6.84646 8.80959 6.82342 8.80875 6.8002 8.80808C6.80103 8.83109 6.80203 8.85426 6.80319 8.87728C6.7808 8.87576 6.75859 8.87459 6.7362 8.87341C6.7362 8.8971 6.73653 8.9208 6.73686 8.94466L6.73686 8.94513C6.70901 8.94362 6.68115 8.94261 6.6533 8.94177C6.65346 8.96529 6.65363 8.9888 6.65412 9.01231C6.63262 9.01116 6.61096 9.01033 6.58945 9.0095L6.5883 9.00946C6.58797 9.03616 6.5878 9.06287 6.58763 9.08974L6.53159 9.0847C6.52894 9.10939 6.52595 9.13425 6.52264 9.15911C6.50771 9.15709 6.47787 9.1534 6.46278 9.15155C6.46371 9.17509 6.46421 9.19874 6.46472 9.2224C6.46484 9.22829 6.46497 9.23418 6.4651 9.24007L6.40027 9.23906C6.39842 9.25759 6.39557 9.27599 6.39273 9.2944C6.3892 9.31721 6.38567 9.34004 6.38402 9.36318C6.36346 9.36116 6.3429 9.35932 6.3225 9.35764C6.32167 9.38199 6.32118 9.40618 6.32085 9.43053L6.32003 9.43051C6.29858 9.43001 6.2773 9.42952 6.25585 9.42936L6.25684 9.5083C6.23098 9.50712 6.20528 9.50611 6.17958 9.5051H6.17958C6.18074 9.52879 6.1819 9.55264 6.18289 9.57649C6.16034 9.57632 6.13796 9.57615 6.11541 9.57582L6.11806 9.62217C6.10444 9.64829 6.10453 9.67768 6.10462 9.70664C6.10464 9.71046 6.10465 9.71428 6.10463 9.71808L6.05008 9.71136C6.04792 9.74025 6.04543 9.7693 6.04228 9.79819L5.98541 9.79114C5.98414 9.8187 5.98084 9.84613 5.97754 9.87354C5.97568 9.88907 5.97381 9.90459 5.97231 9.92013C5.95515 9.91842 5.93784 9.91686 5.92066 9.91531L5.91643 9.91492C5.91561 9.94314 5.91461 9.97153 5.91345 9.99991C5.89339 9.99806 5.87332 9.99622 5.85326 9.99454C5.85312 10.0326 5.8481 10.0705 5.84308 10.1083C5.84204 10.1162 5.84099 10.1241 5.84 10.1319L5.83543 10.1315C5.81857 10.1298 5.80183 10.1281 5.78495 10.1266C5.78495 10.1589 5.78154 10.191 5.77812 10.2231C5.77638 10.2396 5.77463 10.256 5.77334 10.2725C5.74996 10.2707 5.72658 10.2691 5.7032 10.2676C5.70169 10.2853 5.69973 10.3029 5.69777 10.3205C5.69455 10.3493 5.69134 10.3781 5.6901 10.4072L5.63522 10.4007C5.63439 10.421 5.6334 10.4413 5.63207 10.4618C5.62627 10.4878 5.62461 10.5144 5.62312 10.5411C5.60703 10.5391 5.59095 10.5373 5.57498 10.5355L5.56956 10.5349C5.56842 10.5591 5.56651 10.5832 5.5646 10.6074C5.56207 10.6394 5.55954 10.6714 5.55878 10.7037C5.54038 10.7015 5.52181 10.6995 5.5034 10.6976C5.50276 10.7283 5.49952 10.7587 5.49627 10.7892C5.49447 10.8062 5.49266 10.8232 5.4913 10.8402C5.47803 10.8384 5.45117 10.8347 5.43791 10.833C5.43858 10.8662 5.43507 10.8992 5.43155 10.9322C5.42814 10.9642 5.42473 10.9963 5.42514 11.0287L5.37175 11.0214C5.37067 11.05 5.36782 11.0784 5.36497 11.1068C5.36037 11.1526 5.35578 11.1983 5.35865 11.2445C5.33444 11.2426 5.31023 11.241 5.28619 11.2394C5.28536 11.2685 5.2831 11.2974 5.28084 11.3264C5.27771 11.3667 5.27457 11.407 5.27525 11.4475L5.22136 11.4397C5.22283 11.4795 5.21924 11.5191 5.21566 11.5586C5.21199 11.5991 5.20832 11.6395 5.21008 11.6802L5.1557 11.6728C5.15601 11.7251 5.15257 11.7773 5.14912 11.8294C5.14533 11.8868 5.14155 11.9441 5.14276 12.0016C5.12933 11.9998 5.10214 11.9958 5.08871 11.9937C5.08989 12.0533 5.08634 12.1127 5.08279 12.1721C5.07884 12.238 5.0749 12.3039 5.07743 12.37C5.06384 12.368 5.03664 12.3639 5.02305 12.3617C5.02298 12.4916 5.02026 12.6214 5.01754 12.7512C5.01384 12.9277 5.01014 13.1042 5.0131 13.2808C5.01092 13.4127 5.01409 13.5446 5.01725 13.6764C5.02012 13.7958 5.02299 13.9153 5.02189 14.0348L5.07611 14.0271C5.07386 14.0985 5.07791 14.1697 5.08195 14.2409C5.08568 14.3066 5.0894 14.3722 5.08821 14.4381C5.10045 14.4362 5.12385 14.4331 5.13831 14.4311L5.14276 14.4305C5.14081 14.4908 5.1446 14.551 5.14838 14.6112C5.15103 14.6534 5.15369 14.6956 5.15437 14.7379L5.20876 14.7303C5.20625 14.7772 5.2105 14.8238 5.21476 14.8705C5.21896 14.9166 5.22317 14.9627 5.22086 15.0091L5.27574 15.0022C5.27493 15.0427 5.27821 15.0831 5.2815 15.1234C5.28424 15.157 5.28697 15.1905 5.28735 15.2243C5.29912 15.2232 5.31089 15.2222 5.32267 15.2212C5.33444 15.2201 5.34621 15.2191 5.35798 15.2181C5.35589 15.2539 5.36003 15.2892 5.36417 15.3246C5.36758 15.3538 5.37099 15.3829 5.37092 15.4124L5.42514 15.4057C5.42293 15.4457 5.42717 15.4853 5.43142 15.5249C5.43514 15.5595 5.43886 15.5942 5.43824 15.6292L5.4913 15.6217C5.49275 15.6383 5.49458 15.6549 5.49642 15.6715C5.49983 15.7025 5.50326 15.7335 5.50423 15.7648L5.55779 15.7572C5.55899 15.7884 5.56176 15.8194 5.56454 15.8506C5.56636 15.8709 5.56818 15.8913 5.56956 15.9117C5.58729 15.9094 5.60518 15.9072 5.62307 15.9051L5.62361 15.905C5.62175 15.9492 5.62868 15.9927 5.6356 16.0362C5.63729 16.0468 5.63897 16.0573 5.64053 16.0679L5.68646 16.038C5.68796 16.0506 5.6896 16.0632 5.69125 16.0758C5.69596 16.1119 5.70069 16.148 5.70204 16.1847C5.72542 16.1828 5.7488 16.1813 5.77234 16.1798C5.77396 16.1971 5.77606 16.2143 5.77816 16.2316C5.78167 16.2605 5.78519 16.2894 5.78644 16.3185L5.84165 16.3118C5.84132 16.34 5.84116 16.3684 5.84099 16.3968L5.90516 16.3948C5.90511 16.3978 5.90505 16.4009 5.90499 16.404C5.90442 16.4325 5.90385 16.4613 5.91312 16.4888L5.91693 16.5478C5.92921 16.5464 5.94149 16.5452 5.95378 16.544C5.9599 16.5434 5.96602 16.5429 5.97215 16.5422C5.97371 16.5562 5.97558 16.5702 5.97745 16.5841C5.98131 16.6129 5.98518 16.6418 5.98641 16.6709L6.04311 16.6627C6.04612 16.6887 6.0479 16.7151 6.04969 16.7416L6.05024 16.7497L6.10446 16.744C6.10614 16.7593 6.10825 16.7745 6.11037 16.7898C6.1141 16.8169 6.11784 16.8439 6.11922 16.8713C6.13962 16.8691 6.16018 16.8672 6.18074 16.8657C6.1819 16.8958 6.18239 16.9262 6.18223 16.9568C6.20677 16.9549 6.23131 16.9534 6.25585 16.9521C6.25585 16.9788 6.25585 17.0056 6.25601 17.0327L6.32085 17.03C6.32229 17.0426 6.32395 17.0552 6.3256 17.0679C6.32946 17.0974 6.33333 17.1269 6.33461 17.1566L6.33473 17.1566C6.35591 17.1548 6.3771 17.1529 6.39828 17.1516C6.39878 17.1758 6.39894 17.2001 6.39878 17.2248C6.41983 17.2226 6.44089 17.2208 6.46212 17.2193C6.46295 17.2441 6.46344 17.2693 6.46394 17.2945L6.46394 17.2945L6.5228 17.2868C6.52595 17.3115 6.52894 17.3362 6.53143 17.3612C6.54983 17.3594 6.5684 17.3575 6.58681 17.356C6.58681 17.3825 6.58763 17.4092 6.58946 17.4359C6.59611 17.4557 6.614 17.4536 6.63171 17.4516C6.64007 17.4507 6.64838 17.4497 6.65545 17.4511C6.65429 17.4737 6.65313 17.4967 6.6523 17.5198C6.65934 17.5196 6.66637 17.5195 6.67341 17.5194C6.69456 17.5191 6.71571 17.5187 6.73686 17.5181C6.73653 17.5416 6.7362 17.5651 6.7362 17.5888L6.80352 17.5848C6.80253 17.6076 6.80153 17.6306 6.80087 17.6538L6.87067 17.6518C6.86968 17.6751 6.86885 17.6986 6.86819 17.7221C6.89024 17.7213 6.91229 17.7205 6.93434 17.7198C6.93318 17.742 6.93451 17.764 6.93799 17.786C6.95922 17.7873 6.98061 17.788 7.002 17.7882L7.00133 17.8406C7.01201 17.857 7.02976 17.8558 7.04738 17.8547C7.0552 17.8541 7.063 17.8536 7.07014 17.8547C7.06865 17.8795 7.06749 17.9045 7.06633 17.9297C7.09303 17.9299 7.11972 17.9306 7.14642 17.9314C7.14526 17.9529 7.14393 17.9746 7.14244 17.9963C7.17178 17.9956 7.20097 17.9956 7.23032 17.9963L7.22617 18.0609C7.24904 18.0623 7.27166 18.0654 7.29431 18.0685C7.31304 18.071 7.33178 18.0736 7.35069 18.0752C7.34953 18.0969 7.34854 18.1187 7.34771 18.1405L7.41884 18.139C7.41718 18.1588 7.41569 18.1788 7.4142 18.1991C7.44139 18.1991 7.46859 18.1995 7.49578 18.2C7.49462 18.2205 7.49329 18.2411 7.4918 18.262C7.51576 18.2634 7.53944 18.2668 7.56314 18.2702C7.58077 18.2727 7.5984 18.2752 7.61616 18.2769C7.615 18.2977 7.61384 18.3189 7.61284 18.3401C7.646 18.3401 7.67933 18.3401 7.71266 18.3404L7.70768 18.4131L7.71067 18.4132C7.73543 18.4138 7.76081 18.4145 7.78313 18.4271L7.83188 18.4257C7.82989 18.445 7.82806 18.4645 7.82624 18.4843C7.85426 18.4845 7.88261 18.4852 7.9108 18.4859L7.90633 18.5477C7.93715 18.5488 7.96767 18.5529 7.99819 18.557C8.01266 18.5589 8.02713 18.5608 8.04163 18.5624L8.03599 18.617C8.04716 18.6182 8.05834 18.6195 8.06952 18.6208C8.10644 18.6251 8.14341 18.6294 8.18058 18.6291L8.17461 18.6837C8.18506 18.685 8.19551 18.6864 8.20596 18.6878C8.24097 18.6924 8.27607 18.6971 8.31157 18.6975C8.30991 18.7173 8.30842 18.7373 8.30692 18.7574C8.32114 18.7582 8.33536 18.7591 8.34958 18.76C8.38097 18.7619 8.41239 18.7639 8.44388 18.7642C8.44206 18.7883 8.4404 18.8127 8.43891 18.8372C8.44258 18.8377 8.44626 18.8381 8.44994 18.8385C8.49222 18.8435 8.53464 18.8485 8.57719 18.8488L8.57006 18.9037C8.5961 18.9041 8.62229 18.9051 8.64833 18.9066C8.67431 18.9126 8.70094 18.9141 8.72742 18.9157L8.72758 18.9157C8.72526 18.9333 8.72294 18.9511 8.72079 18.9691C8.74729 18.9705 8.77374 18.973 8.80022 18.9755C8.82461 18.9778 8.84901 18.9801 8.8735 18.9815C8.87118 18.9993 8.86885 19.0173 8.8667 19.0354C8.89306 19.0364 8.91943 19.0379 8.94546 19.0423C8.98343 19.047 9.02157 19.0482 9.05987 19.0473C9.05804 19.0665 9.05622 19.0858 9.05456 19.1053C9.09177 19.1044 9.1288 19.1076 9.16584 19.1108C9.20209 19.1139 9.23834 19.117 9.27476 19.1164L9.2668 19.1708C9.30168 19.1706 9.33638 19.1739 9.37109 19.1772C9.40963 19.1808 9.44817 19.1844 9.487 19.1834L9.4797 19.2386C9.5328 19.236 9.58565 19.2399 9.63853 19.2438C9.68207 19.247 9.72564 19.2502 9.76937 19.2497C9.76722 19.2737 9.76523 19.2978 9.76324 19.3221C9.82665 19.3198 9.88981 19.3245 9.95296 19.3293C10.0249 19.3347 10.0968 19.3401 10.169 19.3351L10.1607 19.39C10.2313 19.3909 10.3019 19.3935 10.3725 19.396C10.4873 19.4001 10.6021 19.4042 10.717 19.4016L10.7089 19.4563C10.82 19.4562 10.9313 19.4563 11.0425 19.4564C11.2155 19.4565 11.3886 19.4567 11.5616 19.456L11.5532 19.4019C11.668 19.4042 11.7828 19.4001 11.8975 19.396C11.985 19.3929 12.0725 19.3898 12.16 19.3895C12.158 19.3759 12.1541 19.3485 12.1522 19.3349C12.2122 19.3377 12.2719 19.3332 12.3316 19.3287C12.3899 19.3243 12.4482 19.3199 12.5067 19.3223C12.5046 19.2978 12.5026 19.2734 12.5008 19.2492C12.5096 19.2494 12.5184 19.2495 12.5272 19.2497C12.5448 19.25 12.5624 19.2503 12.58 19.2507C12.5802 19.2227 12.5805 19.1948 12.5809 19.1671C12.5993 19.1689 12.6178 19.171 12.6364 19.1733C12.6376 19.1423 12.6413 19.1116 12.645 19.081C12.6465 19.0688 12.648 19.0567 12.6493 19.0445C12.6674 19.046 12.6856 19.0475 12.7039 19.0494C12.7052 19.0374 12.7067 19.0254 12.7082 19.0134C12.7124 18.9796 12.7166 18.9459 12.7175 18.912C12.7352 18.914 12.753 18.9162 12.7709 18.9185C12.7739 18.8891 12.7775 18.8602 12.7812 18.8313L12.837 18.8392C12.8365 18.7984 12.8409 18.7579 12.8453 18.7175C12.8466 18.706 12.8478 18.6945 12.849 18.683C12.8733 18.6842 12.898 18.6852 12.9228 18.6867C12.9224 18.6748 12.9221 18.651 12.9219 18.639C12.9324 18.6175 12.9331 18.5939 12.9337 18.5707C12.9338 18.5672 12.9339 18.5636 12.934 18.5601L12.9891 18.5666C12.9894 18.5374 12.9899 18.5082 12.9906 18.4791C13.0105 18.4805 13.0304 18.482 13.0504 18.4837C13.0516 18.4608 13.0544 18.438 13.0572 18.4153C13.0604 18.39 13.0635 18.3647 13.0644 18.3392L13.0671 18.3395C13.0839 18.3413 13.1009 18.343 13.1181 18.3451C13.1195 18.3317 13.1212 18.3182 13.1229 18.3048C13.127 18.2723 13.131 18.2399 13.1318 18.2072L13.1929 18.2112L13.1939 18.1264C13.2126 18.1281 13.2313 18.1301 13.2502 18.1321C13.2514 18.1038 13.2548 18.0756 13.2581 18.0475C13.2598 18.0327 13.2616 18.0179 13.263 18.0031C13.2814 18.0048 13.2998 18.0067 13.3184 18.0087L13.3184 18.0082C13.3187 17.9807 13.319 17.9531 13.3195 17.9259C13.3466 17.9266 13.3738 17.9276 13.4008 17.9291C13.3975 17.8765 13.4005 17.8238 13.4121 17.7725L13.4661 17.7809C13.4676 17.7557 13.4704 17.7306 13.4733 17.7055C13.4754 17.6872 13.4775 17.669 13.479 17.6506C13.4971 17.6526 13.5154 17.6545 13.5338 17.6566L13.5372 17.5967C13.545 17.5731 13.5461 17.5484 13.5471 17.524C13.5472 17.5223 13.5473 17.5207 13.5474 17.5191L13.6077 17.524L13.6097 17.437C13.6279 17.439 13.6465 17.4412 13.6651 17.4435C13.6644 17.4043 13.6693 17.3655 13.6741 17.3268C13.6754 17.3172 13.6766 17.3075 13.6777 17.2979C13.6956 17.2994 13.7137 17.3011 13.7317 17.3029C13.7332 17.2896 13.7348 17.2763 13.7365 17.263C13.7405 17.2306 13.7446 17.1983 13.7455 17.1657C13.7657 17.1672 13.7863 17.1687 13.8069 17.1704C13.8072 17.142 13.8077 17.1138 13.8082 17.0858C13.8321 17.0871 13.8563 17.0886 13.8805 17.0905C13.8818 17.0657 13.8848 17.0411 13.8878 17.0165C13.89 16.9985 13.8922 16.9804 13.8937 16.9623L13.9488 16.9682C13.9493 16.9426 13.9504 16.9171 13.9519 16.8919C13.9594 16.8676 13.9605 16.8423 13.9616 16.8173L13.9617 16.8135C13.9788 16.8148 13.9959 16.8162 14.0132 16.8176L14.0217 16.8184C14.0222 16.7896 14.0227 16.7613 14.0234 16.7329C14.042 16.7345 14.0607 16.7364 14.0796 16.7384C14.081 16.7153 14.0839 16.6924 14.0867 16.6695C14.0892 16.6497 14.0917 16.6299 14.0932 16.6101L14.1469 16.616C14.1482 16.6043 14.1496 16.5926 14.151 16.5809C14.155 16.5464 14.1591 16.5119 14.1599 16.4772L14.1669 16.4777C14.185 16.4789 14.2034 16.4801 14.2217 16.4814L14.2217 16.4804C14.2219 16.4467 14.222 16.4133 14.222 16.3798C14.2408 16.3815 14.2594 16.3833 14.2783 16.3855C14.29 16.2943 14.2957 16.2028 14.2789 16.1118C14.261 16.1136 14.2433 16.1156 14.2257 16.1178C14.224 16.1017 14.2218 16.0857 14.2196 16.0697C14.216 16.0433 14.2124 16.017 14.2111 15.9905C14.1912 15.9918 14.1713 15.9933 14.1516 15.9949L14.1516 15.9944C14.1511 15.96 14.1506 15.9257 14.1504 15.8916C14.1317 15.8934 14.1129 15.8953 14.0945 15.8974C14.0931 15.8696 14.0895 15.8421 14.0858 15.8145C14.0838 15.7995 14.0817 15.7845 14.0801 15.7695C14.0624 15.7715 14.0448 15.7735 14.0274 15.7757C14.0257 15.7572 14.0234 15.7388 14.0211 15.7205C14.0177 15.6925 14.0142 15.6646 14.0128 15.6364C13.9942 15.6385 13.9758 15.6405 13.9576 15.6426C13.9572 15.6144 13.9571 15.5864 13.9571 15.5583C13.9359 15.5592 13.915 15.5604 13.8941 15.5619C13.8931 15.5383 13.8908 15.5148 13.8884 15.4913C13.886 15.4665 13.8835 15.4417 13.8826 15.4167L13.8102 15.4206C13.8091 15.4117 13.808 15.4029 13.8068 15.394C13.8022 15.3577 13.7976 15.3215 13.7966 15.2851L13.7359 15.2903C13.7349 15.2612 13.7342 15.2322 13.7337 15.2033C13.7155 15.2053 13.6973 15.2075 13.679 15.2098C13.6777 15.1818 13.6744 15.1541 13.6712 15.1263C13.6694 15.1111 13.6676 15.0959 13.6661 15.0807C13.6482 15.0825 13.6303 15.0844 13.6125 15.0864C13.6115 15.0779 13.6103 15.0694 13.6092 15.061C13.6035 15.0181 13.5979 14.9752 13.5993 14.9318L13.5364 14.9359C13.5359 14.9073 13.5354 14.8791 13.5353 14.8509C13.5167 14.8529 13.4983 14.8549 13.48 14.8573C13.4787 14.8288 13.4752 14.8006 13.4716 14.7724C13.4694 14.7544 13.4671 14.7365 13.4655 14.7185L13.4097 14.7236L13.4104 14.6757C13.4013 14.6529 13.4007 14.6285 13.4 14.6044C13.3999 14.6017 13.3999 14.599 13.3998 14.5963C13.3744 14.5974 13.3491 14.5984 13.324 14.5994L13.3212 14.5995C13.321 14.5716 13.3209 14.5437 13.3209 14.516C13.3016 14.5177 13.2826 14.5195 13.2637 14.5214C13.2638 14.4868 13.2598 14.4527 13.2558 14.4186C13.2541 14.4042 13.2524 14.3899 13.2511 14.3756C13.2328 14.3774 13.2146 14.3794 13.1963 14.3814L13.1924 14.3213C13.1852 14.296 13.1841 14.2696 13.1831 14.2437L13.1221 14.2484C13.1211 14.2192 13.1204 14.1901 13.1202 14.1613L13.066 14.1686C13.066 14.1674 13.0659 14.1661 13.0658 14.1649C13.0646 14.1394 13.0633 14.1137 13.0528 14.0902L13.0539 14.0412C13.0361 14.0427 13.0186 14.0444 13.0009 14.0461L12.9967 14.0465C12.9954 14.0245 12.9934 14.0026 12.9914 13.9808C12.9887 13.9512 12.986 13.9217 12.9851 13.892L12.9211 13.893C12.9213 13.866 12.9216 13.8391 12.9221 13.8122C12.8974 13.8134 12.8727 13.8149 12.8481 13.8166C12.8469 13.7937 12.8447 13.7708 12.8425 13.748C12.8406 13.7276 12.8386 13.7072 12.8374 13.6868C12.8185 13.6885 12.7997 13.6901 12.781 13.692C12.7803 13.6639 12.7798 13.636 12.7793 13.6082C12.7586 13.6095 12.738 13.611 12.7176 13.6127C12.7166 13.5835 12.714 13.5545 12.7114 13.5255C12.7095 13.5035 12.7075 13.4815 12.7062 13.4595C12.6873 13.4609 12.6684 13.4624 12.6497 13.4641C12.6481 13.446 12.6461 13.4281 12.644 13.4103C12.6411 13.3852 12.6383 13.3601 12.6369 13.3349L12.5817 13.3416L12.5802 13.2551C12.56 13.2565 12.5397 13.258 12.5195 13.2597C12.5185 13.2335 12.5173 13.2072 12.5107 13.1819C12.5096 13.1671 12.5076 13.1377 12.5066 13.1231C12.4878 13.1246 12.4693 13.1263 12.4509 13.1281C12.4495 13.115 12.448 13.1018 12.4465 13.0887C12.4423 13.0535 12.4382 13.0185 12.4386 12.9832C12.4142 12.9847 12.39 12.9862 12.366 12.9879C12.3655 12.9595 12.365 12.931 12.3646 12.9027C12.3442 12.9039 12.3238 12.9054 12.3036 12.9071C12.3025 12.8809 12.3011 12.8547 12.295 12.8293L12.2907 12.7685C12.2724 12.7706 12.2544 12.7726 12.2365 12.7748C12.2349 12.7539 12.2321 12.7333 12.2294 12.7126C12.2265 12.6907 12.2236 12.6688 12.222 12.6468C12.2035 12.6486 12.1851 12.6505 12.1667 12.6526L12.1663 12.5677C12.1453 12.5688 12.1242 12.5702 12.1033 12.5717C12.1044 12.5283 12.099 12.4853 12.0936 12.4425C12.0926 12.4342 12.0915 12.4259 12.0906 12.4177C12.0717 12.4192 12.0527 12.4209 12.0342 12.4227L12.0343 12.3628C12.0712 12.3567 12.1083 12.3508 12.1458 12.351C12.6698 12.3516 13.1938 12.3515 13.7177 12.3515C14.051 12.3514 14.3843 12.3514 14.7177 12.3515C15.0167 12.3521 15.3158 12.3517 15.6149 12.3514C16.1315 12.3507 16.6481 12.3501 17.1647 12.3545C17.1787 12.273 17.1737 12.1913 17.1688 12.1096C17.1654 12.0535 17.162 11.9974 17.1647 11.9413L17.1105 11.9491C17.1106 11.896 17.1067 11.8431 17.1028 11.7903C17.0994 11.7443 17.096 11.6984 17.0952 11.6525C17.0829 11.661 17.0586 11.6782 17.0465 11.6869C17.046 11.6394 17.0425 11.5921 17.0389 11.5448C17.035 11.4924 17.0311 11.44 17.0314 11.3874C17.0131 11.3898 16.9951 11.3921 16.9772 11.3946C16.9771 11.3617 16.974 11.3289 16.9709 11.2962C16.9674 11.2596 16.9639 11.223 16.9647 11.1862L16.9093 11.1928C16.9091 11.1526 16.9065 11.1125 16.9038 11.0725C16.9027 11.0552 16.9015 11.0378 16.9005 11.0204C16.882 11.0226 16.8637 11.0248 16.8455 11.0271C16.8469 10.9932 16.843 10.9597 16.8392 10.9262C16.8357 10.895 16.8321 10.8638 16.8327 10.8323C16.8201 10.8337 16.8074 10.8353 16.7948 10.8368C16.7892 10.8375 16.7837 10.8382 16.7782 10.8389C16.7775 10.8 16.7744 10.7613 16.7712 10.7226C16.7703 10.7108 16.7693 10.6989 16.7684 10.687C16.7439 10.6884 16.7195 10.6897 16.6953 10.6914C16.6956 10.6591 16.6956 10.6266 16.6883 10.5952L16.6847 10.5345C16.6661 10.5365 16.6477 10.5387 16.6294 10.5409C16.6293 10.5029 16.6255 10.4651 16.6217 10.4274C16.6207 10.4178 16.6197 10.4081 16.6188 10.3985L16.5651 10.405L16.565 10.4029C16.5639 10.377 16.5628 10.3511 16.5558 10.3261L16.5525 10.2663L16.497 10.2722C16.496 10.2445 16.4936 10.2169 16.4912 10.1893C16.4891 10.1653 16.487 10.1413 16.4859 10.1173L16.43 10.1218C16.4287 10.1107 16.4272 10.0995 16.4258 10.0884C16.4218 10.0569 16.4178 10.0254 16.4165 9.9937L16.3612 10.0001C16.3608 9.98101 16.3607 9.96194 16.3605 9.94293C16.3604 9.9333 16.3603 9.92368 16.3602 9.91408C16.3396 9.91526 16.3192 9.9166 16.299 9.91811C16.2977 9.89227 16.2945 9.86654 16.2913 9.84083C16.2892 9.82427 16.2871 9.80772 16.2856 9.79114L16.2131 9.79551L16.2111 9.71153C16.1905 9.71287 16.17 9.71455 16.1498 9.71623C16.1505 9.6812 16.1457 9.64662 16.141 9.61203C16.1392 9.59885 16.1373 9.58566 16.1358 9.57246L16.0791 9.57749C16.079 9.55062 16.079 9.52392 16.0791 9.49738C16.0569 9.49805 16.0349 9.49906 16.013 9.50023C16.0131 9.47538 16.0135 9.45069 16.0138 9.426C15.9927 9.42734 15.972 9.42885 15.9514 9.43036C15.9513 9.42772 15.9513 9.42507 15.9512 9.42241C15.9504 9.39872 15.9497 9.37465 15.9369 9.35411L15.9388 9.30557L15.8742 9.3101C15.8735 9.28592 15.8734 9.26173 15.8735 9.23771C15.8601 9.23788 15.8334 9.23822 15.8201 9.23822C15.8035 9.22126 15.8043 9.19731 15.8051 9.17373C15.8055 9.16227 15.8058 9.1509 15.8042 9.14047L15.7327 9.15894C15.7322 9.13173 15.7319 9.10452 15.7317 9.07748C15.7094 9.07815 15.6871 9.07899 15.6649 9.08C15.6651 9.05615 15.6654 9.03213 15.6658 9.00845C15.6437 9.00963 15.6217 9.01097 15.5999 9.01248L15.5996 8.93976C15.5774 8.9411 15.5553 8.94278 15.5333 8.94446L15.5333 8.94446L15.5366 8.87543C15.5129 8.8761 15.4895 8.87677 15.4661 8.87778L15.4681 8.80707C15.4452 8.80808 15.4225 8.80908 15.4 8.81026L15.4029 8.74123C15.3797 8.74173 15.3565 8.74257 15.3335 8.74358C15.3341 8.72206 15.3344 8.70063 15.3348 8.6793C15.3349 8.672 15.335 8.6647 15.3351 8.65742C15.3064 8.65775 15.2783 8.65842 15.2499 8.65926L15.25 8.6565C15.251 8.63524 15.2519 8.61383 15.2531 8.59259C15.2292 8.59309 15.2056 8.59359 15.1821 8.59426C15.1826 8.57075 15.1831 8.5474 15.1837 8.52406C15.161 8.52456 15.1385 8.52523 15.1163 8.52607C15.1173 8.50541 15.1184 8.48476 15.1196 8.4641H15.0413C15.0423 8.44243 15.0435 8.42076 15.045 8.3991C15.0206 8.39893 14.9962 8.39842 14.972 8.39775C14.9735 8.37676 14.9752 8.35593 14.9771 8.3351C14.9512 8.33375 14.9254 8.33021 14.8996 8.32667C14.8838 8.32449 14.868 8.32232 14.8521 8.32066L14.8554 8.25633C14.8233 8.25616 14.7913 8.25616 14.7594 8.25616C14.7604 8.2303 14.7616 8.2046 14.7629 8.17907L14.7157 8.17974C14.6942 8.16975 14.6711 8.16889 14.6483 8.16804C14.645 8.16792 14.6418 8.1678 14.6386 8.16765C14.6399 8.14615 14.6412 8.12482 14.6427 8.10332C14.6183 8.10349 14.594 8.10399 14.5697 8.1045C14.5712 8.08451 14.5729 8.06452 14.5746 8.04454L14.4915 8.04386C14.4926 8.02337 14.4941 8.00288 14.4958 7.98239C14.4648 7.98128 14.4342 7.97703 14.4037 7.97278C14.3926 7.97123 14.3814 7.96968 14.3703 7.96828C14.3718 7.94998 14.3736 7.93167 14.3754 7.91336C14.3489 7.91232 14.3225 7.90933 14.2961 7.90634C14.2716 7.90357 14.2471 7.9008 14.2225 7.89959C14.2244 7.88078 14.2264 7.86197 14.2285 7.84315L14.1441 7.84164C14.1454 7.82082 14.1469 7.80016 14.1486 7.7795C14.1123 7.77936 14.0764 7.77493 14.0406 7.77051C14.0311 7.76933 14.0216 7.76816 14.0121 7.76707C14.0135 7.74305 14.0149 7.71903 14.0168 7.69501C13.9908 7.69379 13.965 7.69084 13.9393 7.68788C13.919 7.68555 13.8987 7.68323 13.8783 7.68175L13.885 7.62733C13.8528 7.62749 13.8205 7.62766 13.7893 7.6196C13.7691 7.61843 13.7488 7.61742 13.7289 7.61658L13.7352 7.56048C13.7042 7.56137 13.6735 7.55745 13.6428 7.55354C13.6099 7.54934 13.577 7.54514 13.5437 7.54687C13.5459 7.52857 13.5482 7.51009 13.5505 7.49178C13.5428 7.49104 13.5351 7.49027 13.5273 7.48951C13.4879 7.48558 13.4484 7.48165 13.4087 7.48137L13.4152 7.42578C13.378 7.42755 13.3411 7.42345 13.3042 7.41934C13.2679 7.4153 13.2316 7.41126 13.195 7.41284C13.1973 7.3947 13.1998 7.37656 13.2025 7.35842C13.1749 7.35719 13.1475 7.35498 13.1201 7.35277C13.0954 7.35077 13.0707 7.34878 13.046 7.34751L13.0547 7.29275C13.0072 7.29342 12.9598 7.28971 12.9124 7.28601C12.8641 7.28224 12.8159 7.27847 12.7676 7.27932C12.7692 7.25513 12.7712 7.23094 12.7732 7.20693C12.7309 7.20857 12.6889 7.20458 12.6469 7.20059C12.6031 7.19643 12.5593 7.19227 12.5152 7.1945L12.5233 7.13924C12.4735 7.14014 12.4238 7.13704 12.3741 7.13395C12.3219 7.1307 12.2697 7.12745 12.2174 7.12883C12.219 7.1168 12.2223 7.094 12.2244 7.07936L12.2252 7.07407C12.136 7.07452 12.0468 7.0706 11.9577 7.06668C11.8451 7.06174 11.7325 7.05679 11.6197 7.06063L11.6283 7.00638C11.4051 7.00394 11.1819 7.00434 10.9588 7.00474ZM9.40757 10.6036L9.40077 10.5491C9.4095 10.549 9.41823 10.5488 9.42696 10.5486C9.49683 10.5472 9.56671 10.5459 9.63672 10.5466L9.63059 10.6049C9.65944 10.6042 9.68812 10.6041 9.71714 10.6042L9.71731 10.618C9.73024 10.6173 9.75594 10.6156 9.76887 10.6148L9.74931 10.6882C9.77584 10.6894 9.80237 10.6902 9.82906 10.6909L9.8294 10.77L9.88511 10.7646C9.88671 10.7811 9.88884 10.7975 9.89097 10.814C9.89434 10.84 9.89772 10.866 9.89904 10.8923C9.91943 10.8906 9.93999 10.8893 9.96055 10.8881L9.96155 10.97L10.0189 10.9657C10.0201 10.9761 10.0214 10.9865 10.0227 10.9969C10.0266 11.0289 10.0305 11.0608 10.0315 11.0932C10.0579 11.0916 10.0844 11.0905 10.1109 11.0896C10.1113 11.1197 10.1113 11.1501 10.1108 11.1805C10.1297 11.1785 10.1487 11.1765 10.1676 11.1748C10.1681 11.2025 10.169 11.2304 10.17 11.2584C10.1907 11.2569 10.2114 11.2554 10.2323 11.2537C10.2333 11.2793 10.2348 11.3049 10.2375 11.3306C10.2429 11.355 10.2486 11.3794 10.2544 11.4037L10.2625 11.3782L10.302 11.379C10.3021 11.4055 10.3026 11.4322 10.3031 11.459L10.3031 11.4596L10.3651 11.4551C10.3661 11.4886 10.3702 11.5219 10.3742 11.5552C10.3757 11.567 10.3771 11.5788 10.3784 11.5906C10.3975 11.5891 10.4167 11.5878 10.4359 11.5866C10.4353 11.6167 10.4351 11.6469 10.4353 11.6773L10.4978 11.6733C10.4991 11.6967 10.5021 11.72 10.5051 11.7432C10.5075 11.7622 10.51 11.7812 10.5115 11.8003C10.5301 11.7988 10.5487 11.7977 10.5675 11.7966C10.573 11.7962 10.5785 11.7959 10.584 11.7956C10.584 11.8233 10.5843 11.851 10.5847 11.8787L10.6468 11.8752C10.6483 11.8983 10.6512 11.9213 10.6542 11.9443C10.6567 11.9636 10.6592 11.9829 10.6608 12.0023C10.6793 12.0003 10.6979 11.9985 10.7166 11.9968C10.7168 12.0241 10.7171 12.0517 10.7175 12.0792C10.7385 12.0782 10.7596 12.0771 10.7808 12.0757C10.7808 12.1062 10.7844 12.1365 10.7879 12.1668C10.7899 12.1837 10.7919 12.2007 10.7933 12.2176C10.814 12.217 10.8347 12.2181 10.8553 12.2212C10.8569 12.2474 10.8581 12.2737 10.8584 12.3001C10.8763 12.2979 10.8942 12.2957 10.9123 12.2937C10.9135 12.3203 10.9148 12.3473 10.9254 12.3723C10.9249 12.3844 10.9242 12.4084 10.9239 12.4205C10.9453 12.4192 10.9669 12.418 10.9884 12.417C10.9891 12.4444 10.9897 12.4719 10.9902 12.4995C10.9985 12.499 11.0067 12.4985 11.0149 12.498C11.0309 12.497 11.0469 12.496 11.063 12.4949C11.0635 12.5217 11.0666 12.5483 11.0697 12.5748C11.0722 12.5957 11.0746 12.6166 11.0758 12.6377C11.0972 12.6375 11.1184 12.6375 11.1398 12.6379L11.1383 12.7176C11.1572 12.716 11.1763 12.7145 11.1953 12.7129C11.1968 12.7249 11.1985 12.7369 11.2001 12.7489C11.2043 12.7791 11.2084 12.8092 11.2096 12.8398C11.2297 12.8381 11.2497 12.8366 11.27 12.8354C11.2703 12.8622 11.2708 12.889 11.2713 12.9159L11.2713 12.9172C11.2913 12.9158 11.3114 12.9147 11.3316 12.9137C11.331 12.9383 11.3305 12.9632 11.3301 12.9882L11.3935 12.9842C11.3935 12.9894 11.3934 12.9946 11.3933 12.9999C11.3929 13.0267 11.3924 13.0539 11.4038 13.0789L11.4036 13.1278C11.423 13.1263 11.4427 13.1248 11.4623 13.1234C11.4626 13.1504 11.4631 13.1774 11.4636 13.2045L11.4636 13.2062C11.4897 13.2052 11.5157 13.2042 11.5419 13.2029C11.543 13.2317 11.5467 13.2602 11.5504 13.2888C11.5522 13.3025 11.554 13.3161 11.5555 13.3299C11.5739 13.3278 11.5923 13.326 11.6109 13.3243C11.6112 13.3524 11.6117 13.3804 11.6125 13.4085C11.6306 13.4071 11.6485 13.4057 11.6667 13.4042L11.6747 13.4036C11.6759 13.43 11.6783 13.4562 11.6807 13.4824C11.6831 13.5086 11.6855 13.5348 11.6866 13.5611C11.705 13.559 11.7234 13.5568 11.7419 13.5548C11.7423 13.588 11.7429 13.6213 11.7435 13.6545C11.7454 13.7575 11.7473 13.8606 11.743 13.9636C11.7248 13.961 11.7065 13.9587 11.6883 13.9565C11.6891 13.9973 11.6855 14.0379 11.6819 14.0786C11.6809 14.0899 11.6799 14.1013 11.679 14.1127C11.6617 14.1112 11.6444 14.1098 11.6272 14.1084L11.623 14.108C11.6212 14.1242 11.6188 14.1403 11.6164 14.1564C11.6126 14.1819 11.6088 14.2075 11.6074 14.2333C11.5853 14.232 11.5634 14.231 11.5416 14.2303C11.5421 14.2533 11.5429 14.2763 11.5439 14.2995C11.5405 14.2994 11.5372 14.2993 11.5339 14.2992C11.5059 14.2982 11.4774 14.2973 11.451 14.3086C11.4361 14.3092 11.4063 14.3106 11.3913 14.3111C11.3933 14.3297 11.3953 14.3484 11.3976 14.3673C11.2174 14.3825 11.0365 14.3783 10.8563 14.3672L10.8626 14.3109C10.843 14.3097 10.8236 14.3086 10.8042 14.307C10.7795 14.2985 10.7535 14.2976 10.7278 14.2976C10.7279 14.2748 10.7279 14.2521 10.7279 14.2294C10.706 14.2306 10.6841 14.2321 10.6624 14.2338C10.661 14.2083 10.6575 14.183 10.6539 14.1577C10.6516 14.1409 10.6492 14.1242 10.6475 14.1073C10.6293 14.109 10.6114 14.111 10.5934 14.1131C10.5931 14.1101 10.5927 14.1071 10.5924 14.1041C10.5866 14.055 10.5808 14.0061 10.5825 13.9568C10.5745 13.9574 10.5665 13.9578 10.5585 13.9583C10.5424 13.9593 10.5264 13.9603 10.5104 13.9614C10.509 13.9401 10.5071 13.9188 10.5052 13.8976C10.5027 13.8686 10.5001 13.8397 10.4988 13.8107C10.4805 13.8127 10.4625 13.8148 10.4446 13.8169C10.4433 13.7911 10.4406 13.7655 10.4378 13.7399C10.4356 13.7188 10.4334 13.6978 10.432 13.6767L10.3776 13.6829C10.3769 13.6462 10.3736 13.6097 10.3703 13.5732C10.3693 13.5625 10.3684 13.5517 10.3675 13.541C10.3489 13.5428 10.3305 13.5448 10.3121 13.5469C10.3126 13.5143 10.3124 13.4815 10.3054 13.4498C10.3039 13.4291 10.3026 13.4086 10.3018 13.3881L10.2471 13.3954C10.2475 13.3645 10.2436 13.334 10.2396 13.3036C10.2352 13.2698 10.2308 13.236 10.2325 13.2019C10.2144 13.2041 10.1963 13.2064 10.1784 13.2088L10.1784 13.2083C10.1724 13.1612 10.1665 13.1144 10.1663 13.067L10.1611 13.0676C10.1446 13.0696 10.1279 13.0716 10.1114 13.0737C10.1106 13.0479 10.1096 13.022 10.1086 12.9963C10.1046 12.9693 10.1028 12.942 10.1015 12.9148L10.0289 12.9187C10.028 12.9089 10.027 12.8992 10.026 12.8894C10.0224 12.853 10.0188 12.8167 10.0183 12.7801C10.0002 12.7821 9.98227 12.7843 9.96437 12.7867C9.96271 12.7636 9.9604 12.7406 9.9581 12.7176C9.95533 12.69 9.95256 12.6624 9.95093 12.6347C9.93319 12.6367 9.91545 12.6389 9.89771 12.6412C9.89635 12.6195 9.89408 12.5978 9.89183 12.5762C9.88859 12.5452 9.88536 12.5143 9.88478 12.4832C9.8667 12.4854 9.84879 12.4875 9.83089 12.4899C9.83075 12.45 9.82666 12.4102 9.82259 12.3705C9.82187 12.3634 9.82114 12.3564 9.82044 12.3493L9.76523 12.3549C9.76407 12.3275 9.76224 12.3003 9.75793 12.2734C9.7571 12.2585 9.75511 12.2284 9.75412 12.2134C9.73571 12.2155 9.71747 12.2176 9.69923 12.2198C9.6997 12.1865 9.69597 12.1535 9.69224 12.1205C9.68806 12.0836 9.68389 12.0466 9.68564 12.0094C9.66756 12.0114 9.64949 12.0136 9.63142 12.0159C9.63044 12.007 9.6294 11.9981 9.62837 11.9891C9.62398 11.9512 9.61958 11.9132 9.61931 11.875L9.54785 11.8805C9.54685 11.8602 9.54569 11.8401 9.54453 11.8199C9.53906 11.7932 9.5374 11.7663 9.53608 11.7395L9.48285 11.746C9.4816 11.7301 9.48002 11.7141 9.47844 11.6982C9.47477 11.6613 9.47111 11.6245 9.47158 11.5873C9.4535 11.5893 9.43543 11.5913 9.41752 11.5935C9.41597 11.5753 9.41395 11.5571 9.41193 11.539C9.40875 11.5104 9.40557 11.4819 9.40426 11.4533L9.3507 11.4598C9.34916 11.4346 9.34678 11.4096 9.34441 11.3846C9.34193 11.3585 9.33946 11.3324 9.33793 11.3063C9.32019 11.3085 9.30245 11.3108 9.28487 11.3133C9.28424 11.2772 9.2801 11.2414 9.27596 11.2056C9.2747 11.1947 9.27343 11.1838 9.27227 11.1729L9.21739 11.179C9.21942 11.1403 9.21531 11.1019 9.2112 11.0635C9.20726 11.0267 9.20333 10.99 9.20479 10.9529L9.15073 10.9608C9.15122 10.936 9.15155 10.9111 9.15187 10.8865L9.15189 10.8847C9.16499 10.8867 9.19152 10.8911 9.20462 10.8933C9.20339 10.8585 9.2068 10.8241 9.21022 10.7896C9.21322 10.7594 9.21622 10.7291 9.21606 10.6986L9.28554 10.6991C9.28454 10.6721 9.28338 10.6452 9.28205 10.6183C9.30263 10.6167 9.32309 10.6139 9.34357 10.611C9.36483 10.6081 9.38612 10.6052 9.40757 10.6036Z" fill="#FCF9FE"/>
<path fill-rule="evenodd" clip-rule="evenodd" d="M13.3152 13.0606C13.939 13.0717 14.563 13.0601 15.1867 13.067C15.1859 13.0907 15.1854 13.1145 15.1849 13.1384C15.199 13.137 15.2269 13.1342 15.2408 13.1328C15.2448 13.1755 15.2519 13.2178 15.2542 13.2608C15.2776 13.259 15.301 13.2573 15.3247 13.2558C15.33 13.3016 15.3371 13.3475 15.3378 13.394C15.3582 13.3923 15.3787 13.3908 15.3993 13.3897C15.4003 13.4189 15.4016 13.4483 15.4034 13.4777C15.4169 13.4725 15.4437 13.4622 15.4572 13.457C15.458 13.5097 15.4668 13.562 15.4693 13.6149C15.4834 13.6132 15.5114 13.6098 15.5253 13.6083C15.5248 13.6357 15.5245 13.6633 15.5242 13.691C15.5455 13.6906 15.5671 13.6901 15.5888 13.6898C15.5896 13.736 15.5964 13.7818 15.6014 13.8279C15.6147 13.8263 15.6415 13.8232 15.655 13.8216C15.6585 13.8646 15.6664 13.9073 15.6691 13.9506C15.683 13.9486 15.7105 13.9448 15.7245 13.9427C15.7278 13.9777 15.7304 14.0124 15.7322 14.0477C15.7556 14.0459 15.7792 14.0442 15.8029 14.0423C15.8037 14.0684 15.8039 14.0951 15.8132 14.1199C15.814 14.1349 15.8156 14.1646 15.8165 14.1796C15.8346 14.1775 15.8528 14.1757 15.8712 14.1739C15.8752 14.2165 15.8821 14.259 15.8843 14.3022C15.9044 14.3005 15.9246 14.2992 15.945 14.2981C15.9453 14.326 15.9456 14.3541 15.9461 14.3823C15.9649 14.3804 15.9838 14.3786 16.0028 14.3769C16.0052 14.4256 16.0136 14.474 16.0151 14.5229C16.033 14.521 16.0509 14.5192 16.0692 14.5175C16.0737 14.5637 16.0809 14.6095 16.0829 14.6561C16.0965 14.6544 16.1236 14.6512 16.1372 14.6495C16.1386 14.6787 16.1401 14.7081 16.1431 14.7374C16.1576 14.7355 16.1864 14.7318 16.2008 14.7298C16.2023 14.7762 16.2103 14.822 16.2157 14.868C16.2388 14.8663 16.262 14.8648 16.2854 14.8633C16.291 14.9114 16.2993 14.9592 16.2987 15.0079C16.3171 15.0056 16.3355 15.0034 16.354 15.0014C16.3545 15.0304 16.3552 15.0595 16.3564 15.0887C16.3761 15.087 16.3962 15.0855 16.4162 15.0839C16.4177 15.1294 16.4257 15.1742 16.4313 15.2194C16.4492 15.2177 16.4674 15.2162 16.4857 15.2147C16.4907 15.2575 16.4971 15.3002 16.4978 15.3435C16.5165 15.3415 16.5353 15.3395 16.5543 15.3378C16.5542 15.3659 16.5543 15.3941 16.5547 15.4225C16.5754 15.4211 16.5963 15.4199 16.6172 15.4186C16.616 15.4707 16.6245 15.5221 16.6301 15.5736C16.6479 15.5716 16.6656 15.5698 16.6837 15.5681C16.6878 15.6106 16.6948 15.6529 16.6968 15.6957C16.7225 15.6942 16.7483 15.693 16.7744 15.6922C16.7744 15.7204 16.7747 15.7488 16.775 15.7772C16.7936 15.7752 16.8125 15.7733 16.8314 15.7715C16.8329 15.8145 16.8394 15.8571 16.8442 15.9001C16.8622 15.8983 16.8806 15.8966 16.8991 15.8953C16.9009 15.947 16.9095 15.9984 16.912 16.0503C16.9264 16.0486 16.9551 16.0451 16.9695 16.0432C16.9723 16.0721 16.9745 16.1012 16.9767 16.1304C16.9903 16.1286 17.0173 16.125 17.0309 16.1233C17.0345 16.1925 17.0445 16.2614 17.0403 16.3311C17.0199 16.3296 16.9997 16.3281 16.9796 16.3267C16.9783 16.3528 16.9775 16.3792 16.9702 16.4045C16.9684 16.4299 16.9672 16.4554 16.9665 16.4809C16.9481 16.4789 16.9297 16.4771 16.9115 16.4752C16.9082 16.5184 16.901 16.5612 16.8986 16.6047C16.8848 16.603 16.8573 16.5998 16.8433 16.5982C16.843 16.6266 16.8425 16.6548 16.8423 16.6835C16.8213 16.682 16.8004 16.6806 16.7798 16.6791C16.779 16.7251 16.7729 16.7707 16.7681 16.8165C16.744 16.815 16.7201 16.8137 16.6964 16.8123C16.691 16.86 16.6813 16.9075 16.6822 16.9559C16.6636 16.9536 16.645 16.9514 16.6266 16.9495C16.626 16.9784 16.6253 17.0073 16.6248 17.0365C16.6047 17.0349 16.5847 17.0333 16.5648 17.0317C16.5636 17.0577 16.5623 17.0839 16.5563 17.1094C16.5552 17.1244 16.553 17.1541 16.5518 17.1689C16.5333 17.167 16.5147 17.1654 16.4965 17.1637C16.4932 17.2069 16.4865 17.2497 16.4844 17.293C16.4653 17.2912 16.4462 17.2893 16.4275 17.2876C16.4275 17.3152 16.4275 17.3429 16.4277 17.3706C16.4064 17.3696 16.3852 17.3688 16.3642 17.3679C16.3645 17.3995 16.3665 17.4321 16.3555 17.4627C16.3549 17.4776 16.3534 17.5078 16.3527 17.5229C16.3345 17.5208 16.3164 17.5187 16.2983 17.5167C16.2948 17.5594 16.287 17.6017 16.2847 17.6447C16.2602 17.6427 16.236 17.6412 16.2119 17.6398C16.2118 17.6679 16.2116 17.6958 16.2118 17.7242C16.1914 17.7232 16.171 17.7223 16.1508 17.7215C16.1486 17.7636 16.1401 17.8053 16.1353 17.8474C16.1176 17.8451 16.1 17.8429 16.0826 17.8411C16.0814 17.8936 16.0718 17.9457 16.069 17.9984C16.0554 17.9966 16.0281 17.9929 16.0143 17.991C16.014 18.0199 16.0131 18.0488 16.0125 18.0779C15.9917 18.0762 15.9713 18.0747 15.9511 18.073C15.9503 18.1189 15.943 18.1642 15.9375 18.2097C15.9191 18.2079 15.9009 18.2064 15.8826 18.2049C15.8785 18.248 15.8719 18.291 15.87 18.3345C15.8561 18.3327 15.8284 18.3286 15.8145 18.3266C15.8105 18.3609 15.8074 18.3952 15.806 18.4299C15.7823 18.4282 15.7586 18.4267 15.7351 18.4252C15.7336 18.4511 15.7319 18.4773 15.7263 18.503C15.7254 18.5183 15.7235 18.5488 15.7226 18.564C15.7042 18.5619 15.6862 18.5599 15.6682 18.5581C15.6643 18.6007 15.6563 18.6431 15.6541 18.6861C15.6356 18.684 15.6172 18.6822 15.5989 18.6807C15.5978 18.6958 15.5955 18.726 15.5941 18.7412C15.5878 18.7722 15.5873 18.8041 15.5883 18.8359C15.5671 18.8342 15.546 18.8329 15.525 18.8319C15.5242 18.8596 15.5238 18.8878 15.5237 18.916C15.5099 18.9145 15.4822 18.9115 15.4684 18.91C15.4645 18.9531 15.4578 18.9961 15.4558 19.0396C15.4371 19.0373 15.4185 19.0352 15.4001 19.0334C15.3998 19.0613 15.3996 19.0895 15.3996 19.1177C15.3784 19.1164 15.3575 19.115 15.3366 19.1137C15.3355 19.1597 15.3287 19.2052 15.324 19.2512C15.3 19.2496 15.2761 19.2482 15.2526 19.2469C15.2516 19.2954 15.2431 19.3435 15.2403 19.392C15.2187 19.39 15.1973 19.3883 15.176 19.3868C15.1753 19.4101 15.1748 19.4338 15.1748 19.4575C14.5596 19.4573 13.9441 19.4562 13.329 19.4582C13.33 19.412 13.3247 19.366 13.3194 19.3204C13.3461 19.3209 13.3729 19.322 13.4 19.3235C13.3991 19.2716 13.4081 19.2203 13.4136 19.1691C13.4311 19.1708 13.4489 19.1726 13.4668 19.1747C13.4708 19.1317 13.4781 19.0892 13.4802 19.0462C13.4988 19.048 13.5175 19.05 13.5363 19.052C13.5363 19.0237 13.5364 18.9954 13.5366 18.9674C13.5571 18.9684 13.5779 18.9697 13.5986 18.9714C13.6003 18.9283 13.6067 18.8856 13.6112 18.8429C13.6293 18.8446 13.6473 18.8463 13.6658 18.8483C13.6676 18.7967 13.6774 18.746 13.68 18.6946C13.6997 18.6963 13.7196 18.698 13.7395 18.6997C13.7404 18.6708 13.741 18.6421 13.7417 18.6135C13.7601 18.6152 13.7787 18.6172 13.7974 18.6194C13.7996 18.5764 13.8067 18.5339 13.8107 18.4914C13.8342 18.4927 13.8578 18.4941 13.8816 18.4958C13.8879 18.4442 13.8956 18.3928 13.8937 18.3407C13.9125 18.3428 13.9312 18.3448 13.9501 18.3468C13.9504 18.3182 13.9509 18.2898 13.9516 18.2616C13.972 18.2628 13.9924 18.2643 14.0131 18.2662C14.0148 18.223 14.0216 18.1803 14.0257 18.1375C14.0441 18.1392 14.0625 18.1412 14.0811 18.1432C14.0814 18.1148 14.0821 18.0868 14.0831 18.0587C14.1038 18.0601 14.1247 18.0618 14.1458 18.0636C14.1459 18.0178 14.1496 17.9719 14.1519 17.9264C14.1721 17.9274 14.1924 17.9287 14.2128 17.9302C14.2118 17.8783 14.221 17.8273 14.2265 17.7761C14.2443 17.7776 14.262 17.7794 14.2801 17.7814C14.2844 17.7386 14.2909 17.6963 14.2927 17.6535C14.3184 17.6546 14.3441 17.6556 14.3701 17.657C14.3704 17.6286 14.3709 17.6005 14.3716 17.5725C14.3902 17.5742 14.4089 17.576 14.4278 17.5782C14.4301 17.5349 14.4371 17.4922 14.4407 17.4494C14.4587 17.4511 14.4766 17.4529 14.4948 17.4549C14.4956 17.4034 14.5061 17.3528 14.5084 17.3014C14.5293 17.3017 14.5503 17.3023 14.5714 17.3029C14.5706 17.2749 14.5701 17.2472 14.5696 17.2196C14.5885 17.2213 14.6074 17.2231 14.6266 17.2253C14.6284 17.182 14.6352 17.1393 14.6394 17.0965C14.6575 17.098 14.6757 17.0997 14.6939 17.1015C14.6991 17.0557 14.7062 17.0102 14.7072 16.9642C14.7273 16.9658 14.7475 16.9675 14.7679 16.969C14.7684 16.9354 14.7692 16.9018 14.7694 16.8684C14.7938 16.8696 14.8185 16.8709 14.843 16.8728C14.8453 16.8294 14.8518 16.7868 14.8549 16.7438C14.8729 16.7455 14.8908 16.7473 14.909 16.7493C14.9145 16.7035 14.9221 16.6578 14.9228 16.6116C14.943 16.6131 14.9632 16.6148 14.9836 16.6163C14.9843 16.5876 14.9849 16.5589 14.9856 16.5305C15.0038 16.5323 15.0222 16.5343 15.0408 16.5367C15.0438 16.4878 15.0528 16.4396 15.0538 16.3907C15.072 16.3926 15.0904 16.3946 15.109 16.3966C15.1098 16.3818 15.1113 16.3521 15.1121 16.3372C15.1222 16.3066 15.1214 16.274 15.1219 16.2424C15.1352 16.2446 15.1615 16.2488 15.1746 16.2508C15.1745 16.231 15.1745 16.2112 15.1748 16.1915C15.1607 16.1934 15.1325 16.1967 15.1183 16.1986C15.1179 16.1695 15.1174 16.1405 15.1171 16.1116C15.0962 16.1128 15.0756 16.1143 15.0551 16.1158C15.0544 16.0699 15.0466 16.0246 15.0411 15.9792C15.0229 15.9808 15.0048 15.9824 14.9869 15.9843C14.9849 15.9356 14.9763 15.8875 14.9742 15.839C14.9538 15.8407 14.9334 15.8422 14.9133 15.8439C14.9123 15.8145 14.9117 15.7854 14.9115 15.7564C14.8932 15.7587 14.8752 15.7611 14.8571 15.7634C14.8553 15.7206 14.8476 15.6783 14.8432 15.6358C14.8198 15.6373 14.7964 15.6386 14.7734 15.6403C14.7681 15.5944 14.7603 15.5491 14.7591 15.5029C14.7384 15.5044 14.718 15.5058 14.6976 15.5073C14.6971 15.473 14.6966 15.4389 14.6966 15.4048C14.678 15.4068 14.6595 15.4089 14.641 15.4112C14.6384 15.3635 14.6301 15.3165 14.626 15.2693C14.6135 15.2753 14.5885 15.2873 14.5759 15.2933C14.5732 15.2711 14.5707 15.249 14.5684 15.227C14.5628 15.2016 14.5613 15.1756 14.5603 15.15C14.5392 15.1512 14.5182 15.1525 14.4973 15.1539C14.4971 15.1255 14.497 15.0973 14.497 15.0691C14.4786 15.0711 14.4601 15.0733 14.4419 15.0756C14.4389 15.0267 14.43 14.9785 14.4291 14.9298C14.4107 14.9313 14.3925 14.933 14.3744 14.9349C14.3691 14.8894 14.362 14.8442 14.3608 14.7983C14.335 14.7997 14.3091 14.8007 14.2834 14.802C14.2827 14.7733 14.2822 14.7447 14.2819 14.7162C14.2633 14.718 14.2449 14.7202 14.2265 14.7224C14.2245 14.6792 14.2174 14.6367 14.2133 14.5939C14.1949 14.5954 14.1764 14.5971 14.1582 14.599C14.1517 14.5474 14.1446 14.496 14.1463 14.4441C14.1327 14.4458 14.1053 14.4491 14.0917 14.4508C14.0884 14.4214 14.0848 14.392 14.0816 14.3628C14.068 14.3648 14.0408 14.3689 14.0272 14.3709C14.0247 14.3274 14.0176 14.2844 14.014 14.241C13.9957 14.2429 13.9773 14.2449 13.9592 14.2469C13.9584 14.232 13.9566 14.2019 13.9558 14.187C13.9466 14.1619 13.9463 14.1352 13.9455 14.1092C13.9274 14.1114 13.9097 14.1136 13.8919 14.1159C13.8891 14.0865 13.8861 14.0575 13.8835 14.0282C13.8591 14.0299 13.8349 14.0319 13.8108 14.0341C13.8112 13.9852 13.8024 13.9374 13.7979 13.889C13.7797 13.8908 13.7618 13.8927 13.7438 13.8947C13.7384 13.8485 13.7316 13.8027 13.7312 13.7563C13.7109 13.7578 13.6905 13.7592 13.6701 13.7607C13.6696 13.732 13.6692 13.7034 13.6691 13.6748C13.6503 13.6767 13.6318 13.6787 13.6132 13.6807C13.611 13.6377 13.6037 13.5952 13.5994 13.5526C13.581 13.5544 13.5626 13.5563 13.5444 13.5581C13.5435 13.5323 13.5426 13.5066 13.5412 13.481C13.5321 13.4563 13.5319 13.4301 13.5309 13.4044C13.5107 13.4059 13.4907 13.4075 13.4706 13.409C13.4701 13.3802 13.4698 13.3517 13.4696 13.3231C13.4507 13.325 13.432 13.3268 13.4134 13.3289C13.4111 13.2859 13.4041 13.2432 13.4008 13.2004C13.3766 13.2019 13.3525 13.2034 13.3287 13.2051C13.328 13.1903 13.3267 13.1607 13.326 13.1461C13.3199 13.1179 13.3174 13.0892 13.3152 13.0606Z" fill="#FCF9FE"/>
<path fill-rule="evenodd" clip-rule="evenodd" d="M16.0781 13.0668C16.6996 13.0633 17.3214 13.0655 17.943 13.066C17.941 13.0858 17.9392 13.1056 17.9375 13.1256C17.9588 13.1241 17.9803 13.1229 18.002 13.1218C18.0024 13.1498 18.0027 13.1779 18.0032 13.2061C18.0219 13.2041 18.0407 13.2022 18.0597 13.2004C18.0616 13.2435 18.0675 13.2865 18.071 13.3297C18.0952 13.3282 18.1194 13.3268 18.144 13.3258C18.1451 13.3401 18.1474 13.3687 18.1484 13.3829C18.1541 13.4086 18.1556 13.435 18.1569 13.4615C18.1768 13.4597 18.1969 13.4582 18.2171 13.457C18.2174 13.4911 18.2179 13.5254 18.2182 13.5596C18.2368 13.5576 18.2556 13.5558 18.2743 13.5537C18.2763 13.5969 18.2832 13.6396 18.2872 13.6827C18.3051 13.6807 18.3232 13.679 18.3414 13.6774C18.3467 13.7229 18.354 13.7684 18.3552 13.8146C18.3754 13.8129 18.396 13.8114 18.4167 13.8101C18.4171 13.8384 18.4174 13.8668 18.4179 13.8954C18.4363 13.8932 18.4549 13.8913 18.4736 13.8893C18.4764 13.938 18.4849 13.9864 18.4859 14.0353C18.5048 14.0336 18.5238 14.0319 18.5432 14.0304C18.5432 14.0581 18.5436 14.086 18.5441 14.1141C18.5696 14.1129 18.5955 14.1119 18.6213 14.1104C18.6222 14.1362 18.6235 14.1623 18.63 14.1875C18.6311 14.2026 18.6334 14.2328 18.6346 14.2478C18.6525 14.2457 18.6707 14.2437 18.6893 14.2419C18.6918 14.2849 18.6991 14.3277 18.7024 14.3709C18.7205 14.3687 18.7389 14.3668 18.7575 14.365C18.7583 14.3801 18.7601 14.4103 18.7609 14.4255C18.7719 14.4555 18.7699 14.4876 18.7694 14.5192C18.79 14.5175 18.8105 14.5162 18.8314 14.515C18.8314 14.5425 18.8316 14.5702 18.8321 14.5981C18.851 14.5966 18.8702 14.5951 18.8896 14.5937C18.8936 14.6367 18.9001 14.6796 18.902 14.7229C18.9196 14.7206 18.9374 14.7185 18.9554 14.7165C18.9611 14.7625 18.9684 14.8089 18.9692 14.8556C18.9893 14.8536 19.0095 14.8517 19.0299 14.8502C19.0309 14.8781 19.0317 14.9062 19.0325 14.9344C19.0567 14.9329 19.081 14.9315 19.1055 14.93C19.1057 14.979 19.1133 15.0276 19.1163 15.0765C19.1348 15.0744 19.1536 15.0728 19.1726 15.0711C19.1728 15.099 19.1733 15.1272 19.1741 15.1554C19.1944 15.1537 19.2149 15.1522 19.2357 15.1507C19.236 15.1971 19.2433 15.2427 19.2491 15.2888C19.2668 15.2867 19.2847 15.2847 19.303 15.283C19.3061 15.3259 19.3134 15.3685 19.3162 15.4117C19.33 15.4102 19.3577 15.4072 19.3715 15.4057C19.3728 15.4403 19.3749 15.475 19.3786 15.5096C19.3968 15.5073 19.4154 15.5051 19.4341 15.5029C19.435 15.5293 19.4356 15.5562 19.4439 15.5817C19.4446 15.5966 19.4461 15.6264 19.4469 15.6413C19.465 15.6393 19.4834 15.6374 19.5019 15.6356C19.5051 15.6784 19.5122 15.7211 19.515 15.7641C19.5386 15.7621 19.5623 15.7604 19.5863 15.7589C19.5872 15.7789 19.5885 15.7992 19.5903 15.8195C19.5976 15.8445 19.5985 15.8706 19.5996 15.8966C19.6195 15.8949 19.6397 15.8934 19.6601 15.8921C19.6603 15.9263 19.6603 15.9606 19.6606 15.995C19.6792 15.993 19.6978 15.991 19.7167 15.9891C19.7193 16.032 19.7273 16.0741 19.7309 16.117C19.749 16.1151 19.7674 16.1133 19.786 16.1116C19.787 16.1265 19.7891 16.1563 19.7901 16.1712C19.8095 16.2455 19.7901 16.3217 19.7835 16.3964C19.7654 16.3944 19.7473 16.3926 19.7296 16.3907C19.7281 16.4393 19.719 16.4871 19.7163 16.5357C19.6963 16.534 19.6764 16.5325 19.6567 16.5313C19.656 16.5597 19.6555 16.5884 19.6552 16.6171C19.6363 16.6151 19.6177 16.6133 19.5993 16.6116C19.5971 16.6541 19.5892 16.6961 19.5849 16.7386C19.5615 16.7367 19.5383 16.7352 19.5152 16.7339C19.5106 16.7801 19.5033 16.8261 19.5015 16.8728C19.4877 16.8713 19.4602 16.8681 19.4462 16.8666C19.4451 16.9013 19.4421 16.9363 19.4384 16.971C19.4247 16.969 19.3973 16.965 19.3836 16.963C19.3811 17.0061 19.3734 17.0486 19.3693 17.0918C19.3507 17.0898 19.3323 17.0878 19.3141 17.0861C19.3138 17.1143 19.3134 17.1425 19.3133 17.1709C19.2922 17.1694 19.2713 17.168 19.2507 17.1665C19.2504 17.2127 19.2436 17.2584 19.2383 17.3044C19.2197 17.3024 19.2015 17.3006 19.1834 17.2989C19.1803 17.3476 19.1717 17.3958 19.1712 17.4448C19.1529 17.4428 19.1348 17.441 19.1169 17.4393C19.112 17.4852 19.105 17.531 19.104 17.5774C19.0776 17.5757 19.0514 17.5743 19.0256 17.5735C19.0244 17.6016 19.0238 17.6296 19.0234 17.658C19.0048 17.6556 18.9863 17.6536 18.968 17.6516C18.966 17.6985 18.9584 17.7447 18.9543 17.7915C18.941 17.7898 18.9145 17.7865 18.9011 17.7848C18.8966 17.8333 18.8888 17.8817 18.8891 17.9307C18.8679 17.9292 18.8468 17.9281 18.8258 17.9272C18.8256 17.9548 18.8254 17.9825 18.8254 18.0104C18.8065 18.0083 18.7878 18.0063 18.7692 18.0047C18.7669 18.0476 18.7599 18.0903 18.7563 18.1335C18.7382 18.1315 18.7202 18.1296 18.7026 18.1279C18.6971 18.1735 18.6893 18.219 18.6877 18.265C18.6676 18.2631 18.6477 18.2615 18.628 18.2599C18.627 18.2883 18.6263 18.3169 18.626 18.3456C18.6014 18.3439 18.5771 18.3424 18.553 18.3409C18.5532 18.3896 18.5454 18.4378 18.5407 18.4862C18.5225 18.4842 18.5046 18.4823 18.4867 18.4808C18.4812 18.5263 18.4738 18.5718 18.4726 18.618C18.4522 18.6162 18.432 18.6145 18.4121 18.6132C18.4111 18.6414 18.4104 18.6699 18.4101 18.6985C18.3912 18.6965 18.3726 18.6945 18.3542 18.6926C18.3511 18.7415 18.3428 18.7899 18.3423 18.8391C18.3234 18.8371 18.3046 18.8352 18.2859 18.8337C18.2852 18.8617 18.2846 18.8898 18.2841 18.9182C18.2635 18.9165 18.2431 18.915 18.2229 18.9135C18.2224 18.96 18.2156 19.0062 18.2103 19.0525C18.1922 19.0505 18.1743 19.0485 18.1567 19.0467C18.1542 19.0892 18.1461 19.1312 18.1421 19.1738C18.1186 19.172 18.0952 19.1705 18.0722 19.1693C18.0655 19.2202 18.0571 19.2714 18.0589 19.3233C18.038 19.3216 18.0174 19.3201 17.9971 19.3189C17.9966 19.346 17.9962 19.373 17.9962 19.4002C17.9702 19.4007 17.9442 19.4017 17.9185 19.4032C17.9256 19.416 17.9402 19.4417 17.9475 19.4545C17.3255 19.461 16.7032 19.455 16.0813 19.4575C16.0828 19.4153 16.0826 19.3733 16.0813 19.3315C16.1002 19.3334 16.1192 19.3352 16.1385 19.3374C16.1383 19.3028 16.139 19.2684 16.1396 19.2343C16.1597 19.2356 16.1801 19.2371 16.2005 19.2391C16.2015 19.2128 16.2022 19.1864 16.2103 19.1614C16.2111 19.1464 16.2129 19.1164 16.2138 19.1014C16.2375 19.1029 16.2612 19.1044 16.2851 19.1065C16.2874 19.0631 16.2942 19.0205 16.2977 18.9776C16.3159 18.9793 16.3343 18.9812 16.3529 18.9832C16.3539 18.9684 16.3559 18.9388 16.3569 18.9239C16.3642 18.8985 16.3651 18.8722 16.3663 18.8463C16.3862 18.8478 16.4063 18.8495 16.4265 18.8513C16.4273 18.8174 16.4283 18.7836 16.4288 18.7502C16.4476 18.7516 16.4663 18.7532 16.4852 18.7553C16.4888 18.7119 16.4953 18.6689 16.4975 18.6258C16.5159 18.6276 16.5346 18.6296 16.5533 18.6318C16.5533 18.6033 16.5537 18.5749 16.554 18.5467C16.5746 18.5477 16.5951 18.5492 16.616 18.5509C16.6167 18.5045 16.6233 18.4585 16.6283 18.4128C16.6465 18.4145 16.6649 18.4163 16.6835 18.4183C16.6833 18.3696 16.6925 18.3218 16.6964 18.2736C16.7198 18.2751 16.7435 18.2764 16.7674 18.2781C16.7732 18.2324 16.78 18.1869 16.7803 18.1409C16.8007 18.1424 16.8213 18.1439 16.8419 18.1454C16.8423 18.1167 16.8432 18.0883 16.8435 18.0599C16.8574 18.0614 16.8851 18.0646 16.8991 18.0663C16.9015 18.0228 16.9082 17.9798 16.911 17.9365C16.9296 17.9381 16.9481 17.9398 16.9669 17.9417C16.9667 17.9146 16.967 17.8876 16.9684 17.8607C16.9672 17.8285 17.0111 17.8478 17.0302 17.8432C17.031 17.8174 17.0325 17.7917 17.0387 17.7668C17.0397 17.7519 17.0417 17.7221 17.0426 17.7072C17.0607 17.709 17.0791 17.7109 17.0975 17.7129C17.1007 17.6699 17.1081 17.6274 17.111 17.5846C17.129 17.5863 17.1471 17.5881 17.1655 17.5901C17.1712 17.5443 17.1779 17.4988 17.1783 17.4527C17.2043 17.4543 17.2303 17.4553 17.2569 17.4564C17.257 17.4228 17.2575 17.3893 17.2579 17.356C17.2764 17.3575 17.2952 17.3592 17.3139 17.361C17.3184 17.318 17.3254 17.2755 17.3273 17.2324C17.3456 17.2344 17.3642 17.2366 17.3827 17.2388C17.3829 17.21 17.3831 17.1813 17.3836 17.1528C17.4039 17.1539 17.4243 17.1553 17.4449 17.1571C17.4467 17.1141 17.4539 17.0716 17.4583 17.0291C17.4761 17.0308 17.4938 17.0328 17.5117 17.0349C17.5169 16.9828 17.5253 16.9312 17.5247 16.879C17.5434 16.8807 17.5623 16.8827 17.5814 16.8845C17.5815 16.8562 17.5822 16.8279 17.583 16.7997C17.6031 16.8011 17.6235 16.8026 17.6439 16.8044C17.6452 16.7582 17.6528 16.7127 17.658 16.667C17.6812 16.6684 17.7046 16.6699 17.7283 16.6716C17.7329 16.6291 17.7405 16.5871 17.7425 16.5446C17.7608 16.5464 17.7792 16.5486 17.7977 16.5508C17.7979 16.5216 17.7981 16.4927 17.7986 16.4638C17.8188 16.4651 17.8392 16.4665 17.8598 16.4682C17.8586 16.4196 17.8672 16.3718 17.8734 16.3241C17.8914 16.3259 17.9097 16.3278 17.9281 16.3299C17.9286 16.279 17.9301 16.2282 17.9309 16.1774C17.912 16.1793 17.8933 16.1811 17.8747 16.1833C17.872 16.1405 17.8639 16.0983 17.8601 16.0558C17.842 16.0575 17.8241 16.0594 17.8064 16.0614C17.7997 16.01 17.7921 15.9586 17.7943 15.9067C17.7727 15.9075 17.7513 15.9085 17.7301 15.9094C17.7298 15.8815 17.7298 15.8539 17.7299 15.8264C17.7056 15.8279 17.6815 15.8296 17.6575 15.8316C17.6552 15.7884 17.6489 15.7456 17.6457 15.7026C17.6261 15.7041 17.6069 15.7056 17.5877 15.7071C17.5875 15.6793 17.5873 15.6514 17.5873 15.6237C17.5668 15.6248 17.5464 15.6264 17.5262 15.628C17.5258 15.5815 17.5182 15.5357 17.5127 15.4898C17.4945 15.4917 17.4764 15.4937 17.4587 15.4959C17.4587 15.4468 17.45 15.3986 17.4459 15.3502C17.4272 15.3519 17.4086 15.3538 17.3904 15.3556C17.39 15.3274 17.3897 15.2992 17.3894 15.271C17.3685 15.2721 17.3477 15.2735 17.3272 15.2752C17.3272 15.2293 17.3204 15.184 17.3146 15.1388C17.296 15.1403 17.2774 15.142 17.259 15.1436C17.2559 15.1005 17.2496 15.0576 17.2473 15.0147C17.223 15.0163 17.1988 15.0178 17.175 15.0195C17.1748 14.9858 17.174 14.952 17.1733 14.9182C17.1527 14.9196 17.1322 14.9211 17.112 14.9229C17.1108 14.8964 17.1096 14.87 17.1028 14.8447C17.1018 14.8301 17.0999 14.8008 17.099 14.7862C17.0803 14.7877 17.0617 14.7894 17.0433 14.7914C17.0395 14.7481 17.0332 14.7051 17.0315 14.6616C17.0128 14.6636 16.9942 14.6656 16.976 14.6676C16.975 14.6389 16.9742 14.6104 16.9732 14.5818C16.9529 14.5833 16.933 14.585 16.9132 14.587C16.912 14.5605 16.9117 14.5338 16.903 14.5088C16.9015 14.4831 16.9005 14.4577 16.9001 14.4323C16.8816 14.4342 16.8632 14.436 16.8452 14.4382C16.8412 14.3952 16.8336 14.3527 16.8314 14.3097C16.8128 14.3117 16.7944 14.3139 16.7762 14.3161C16.7755 14.2872 16.7749 14.2585 16.7744 14.2298C16.7485 14.2308 16.7231 14.232 16.6976 14.2336C16.6964 14.2076 16.6954 14.1816 16.6883 14.1567C16.6873 14.1418 16.6853 14.1119 16.6843 14.0968C16.6658 14.0986 16.6472 14.1006 16.629 14.1026C16.6265 14.0465 16.617 13.9909 16.6137 13.935C16.6009 13.9426 16.5754 13.9577 16.5626 13.9652C16.5615 13.9355 16.5603 13.906 16.5591 13.8764C16.5388 13.8779 16.5185 13.8796 16.4985 13.8816C16.4973 13.8354 16.4903 13.7899 16.4854 13.7444C16.467 13.7459 16.4487 13.7476 16.4305 13.7494C16.4265 13.7064 16.4194 13.6639 16.4172 13.6208C16.3986 13.6229 16.3802 13.625 16.362 13.6271C16.3613 13.5983 16.3608 13.5694 16.3605 13.5406C16.3398 13.5418 16.3192 13.5433 16.2988 13.545C16.299 13.5133 16.3018 13.4805 16.2897 13.4506C16.2882 13.4308 16.2872 13.411 16.2866 13.3912C16.2627 13.3927 16.2388 13.3945 16.2151 13.3964C16.2113 13.3534 16.2038 13.311 16.2015 13.268C16.1831 13.2702 16.165 13.2724 16.1469 13.2748C16.1461 13.2457 16.1454 13.2168 16.1445 13.1881C16.1237 13.1894 16.1032 13.1911 16.0828 13.193C16.0831 13.1508 16.0809 13.1087 16.0781 13.0668Z" fill="#FCF9FE"/>
<path fill-rule="evenodd" clip-rule="evenodd" d="M18.8334 13.0697C19.1304 13.0596 19.4277 13.0677 19.7248 13.0652C20.0652 13.0668 20.4056 13.0618 20.7459 13.068C20.7495 13.11 20.7566 13.1517 20.7591 13.1938C20.7794 13.1921 20.7997 13.1908 20.8205 13.1895C20.8208 13.2183 20.8215 13.2472 20.822 13.2761C20.8399 13.2738 20.8581 13.2714 20.8764 13.2692C20.878 13.3122 20.8851 13.3547 20.8899 13.3976C20.9079 13.3957 20.9258 13.394 20.944 13.3925C20.95 13.4431 20.9586 13.4936 20.9573 13.5449C20.9841 13.544 21.0112 13.544 21.0385 13.5442C21.0377 13.5721 21.0374 13.6001 21.0372 13.6282C21.0509 13.6263 21.0788 13.6228 21.0926 13.6211C21.0942 13.6643 21.1012 13.7069 21.1058 13.7499C21.1241 13.7481 21.1425 13.7462 21.161 13.7446C21.162 13.7597 21.1639 13.7896 21.1649 13.8045C21.1722 13.8299 21.173 13.8564 21.1745 13.8828C21.1891 13.8808 21.2181 13.8771 21.2327 13.8752C21.235 13.9045 21.2365 13.9338 21.2383 13.9632C21.2521 13.9616 21.2793 13.958 21.2929 13.9563C21.2917 14.0086 21.3 14.0601 21.3063 14.1119C21.3239 14.11 21.3418 14.1082 21.3599 14.1065C21.364 14.1493 21.3708 14.192 21.3728 14.2353C21.3912 14.2333 21.4099 14.2313 21.4288 14.2295C21.429 14.2577 21.4293 14.2861 21.43 14.3144C21.4554 14.3133 21.4814 14.3123 21.5073 14.3109C21.5094 14.3536 21.517 14.3956 21.5212 14.4381C21.5389 14.436 21.557 14.4344 21.5752 14.4327C21.5772 14.4847 21.5864 14.5361 21.5883 14.5884C21.6018 14.5865 21.6288 14.583 21.6422 14.5813C21.6442 14.6102 21.6469 14.6394 21.6502 14.6687C21.6644 14.6668 21.693 14.6631 21.7072 14.6613C21.7087 14.7076 21.7152 14.7538 21.7198 14.8002C21.7379 14.7983 21.7561 14.7968 21.7745 14.7951C21.779 14.8378 21.7857 14.8803 21.7871 14.9235C21.8074 14.9218 21.8279 14.9204 21.8487 14.9193C21.8487 14.9535 21.8488 14.9878 21.8492 15.0222C21.8674 15.02 21.8858 15.018 21.9045 15.016C21.9064 15.0585 21.914 15.1007 21.9188 15.143C21.9422 15.1413 21.9659 15.14 21.9898 15.1388C21.9947 15.1841 22.002 15.2295 22.0025 15.2755C22.0231 15.2743 22.0438 15.2733 22.0649 15.2725C22.0647 15.3004 22.0649 15.3284 22.0652 15.3566C22.0836 15.3544 22.1025 15.3524 22.1214 15.3506C22.1242 15.3993 22.1325 15.4477 22.1337 15.4969C22.1516 15.4949 22.1697 15.4932 22.1881 15.4915C22.1932 15.5372 22.2007 15.5829 22.202 15.629C22.2206 15.6269 22.2393 15.6249 22.2584 15.6232C22.2585 15.6512 22.2589 15.6794 22.2594 15.7078C22.2796 15.7065 22.3 15.7051 22.3207 15.7038C22.3226 15.7501 22.33 15.796 22.334 15.8422C22.3474 15.8408 22.3743 15.8378 22.3875 15.8363C22.3934 15.8843 22.401 15.9324 22.4001 15.9811C22.426 15.9796 22.452 15.9786 22.4784 15.9777C22.4786 16.0056 22.4789 16.0338 22.4796 16.062C22.498 16.06 22.5169 16.058 22.5358 16.0563C22.5379 16.0993 22.5447 16.1422 22.5485 16.1853C22.5671 16.1833 22.5859 16.1815 22.6048 16.1798C22.6041 16.2261 22.6036 16.2727 22.6048 16.3192C22.5855 16.317 22.5665 16.3152 22.5477 16.3135C22.5469 16.3288 22.5451 16.3593 22.5442 16.3746C22.5345 16.4049 22.5358 16.4368 22.5361 16.4683C22.5149 16.4667 22.494 16.4653 22.4733 16.4643C22.4728 16.492 22.4726 16.5199 22.4726 16.548C22.4481 16.5463 22.4239 16.5449 22.4 16.5434C22.3968 16.5862 22.3894 16.6286 22.3866 16.6717C22.3681 16.6692 22.3499 16.667 22.332 16.665C22.3313 16.6937 22.3308 16.7225 22.3303 16.7513C22.3096 16.7498 22.2891 16.7483 22.2687 16.747C22.2683 16.7932 22.2605 16.8389 22.2547 16.8849C22.2367 16.8827 22.2186 16.8807 22.2008 16.8788C22.2008 16.9275 22.1919 16.9756 22.1877 17.0241C22.1688 17.0221 22.1503 17.0203 22.1319 17.0186C22.1312 17.047 22.1305 17.0755 22.1299 17.1041C22.1096 17.1024 22.0898 17.1007 22.07 17.0992C22.0687 17.1251 22.0675 17.1513 22.0614 17.1768C22.0602 17.1916 22.0579 17.2213 22.0568 17.2361C22.038 17.2342 22.0194 17.2326 22.0012 17.2309C21.9981 17.2739 21.9918 17.3167 21.9896 17.36C21.9651 17.3582 21.9409 17.3567 21.9168 17.3553C21.9165 17.3888 21.9165 17.4225 21.9166 17.4563C21.8954 17.4548 21.8745 17.4532 21.8538 17.4519C21.8533 17.4983 21.8467 17.5439 21.8414 17.59C21.823 17.588 21.8049 17.5861 21.7868 17.5844C21.7837 17.6273 21.7757 17.6696 21.7731 17.7124C21.7546 17.7104 21.7364 17.7085 21.7185 17.7069C21.7127 17.7526 21.7062 17.7986 21.7064 17.8449C21.6853 17.8432 21.6644 17.8419 21.6439 17.8406C21.6434 17.8738 21.6432 17.9071 21.6434 17.9407C21.624 17.9388 21.6049 17.9373 21.5862 17.9358C21.5824 17.9791 21.5764 18.0221 21.5746 18.0658C21.5558 18.0634 21.5373 18.0613 21.519 18.0594C21.5182 18.0876 21.5177 18.1162 21.5174 18.1447C21.4912 18.1434 21.4655 18.1424 21.4398 18.1409C21.4384 18.1664 21.4375 18.1923 21.4307 18.2173C21.4297 18.2324 21.4275 18.2628 21.4265 18.2781C21.4081 18.2761 21.39 18.2742 21.3721 18.2724C21.3663 18.3204 21.3574 18.3683 21.3582 18.4172C21.3393 18.415 21.3206 18.413 21.3022 18.4111C21.3017 18.4395 21.3013 18.4681 21.3013 18.4969C21.2806 18.4954 21.26 18.4941 21.2396 18.4927C21.2395 18.5198 21.2398 18.5473 21.2289 18.5729C21.2292 18.5846 21.23 18.6083 21.2304 18.6202C21.2161 18.619 21.1876 18.6169 21.1733 18.6157C21.1692 18.6617 21.1615 18.7076 21.1597 18.7541C21.141 18.7519 21.1224 18.7497 21.104 18.748C21.1038 18.782 21.1032 18.8161 21.1028 18.8503C21.0821 18.8488 21.0617 18.8471 21.0417 18.8456C21.0403 18.8718 21.0395 18.8985 21.0322 18.9242C21.0314 18.9388 21.0297 18.9681 21.0289 18.9827C21.0047 18.981 20.9806 18.9797 20.9568 18.9781C20.9526 19.0206 20.9453 19.063 20.9433 19.106C20.9246 19.1038 20.906 19.1018 20.8876 19.0999C20.8873 19.1283 20.8873 19.1569 20.8875 19.1854C20.8666 19.1841 20.846 19.1827 20.8256 19.1814C20.8233 19.2331 20.8143 19.2843 20.8123 19.3364C20.7934 19.3342 20.7749 19.3324 20.7565 19.3305C20.7565 19.3549 20.7566 19.3794 20.757 19.4041C20.7343 19.4027 20.7117 19.4016 20.6893 19.4004C20.6911 19.4147 20.6948 19.4432 20.6964 19.4575C20.0926 19.4572 19.4888 19.4563 18.885 19.4578C18.8873 19.4096 18.8821 19.3599 18.8996 19.3142C18.8997 19.2916 18.8999 19.2692 18.8999 19.2469C18.9178 19.2489 18.936 19.2509 18.9544 19.2533C18.9591 19.2074 18.9665 19.1621 18.968 19.116C18.9891 19.1181 19.0097 19.1165 19.0297 19.1113C19.0309 19.0856 19.0315 19.0603 19.0315 19.0349C19.0556 19.0361 19.08 19.0374 19.1043 19.0393C19.1062 18.9959 19.1125 18.9531 19.1159 18.9101C19.1338 18.9118 19.1518 18.9135 19.17 18.9155C19.1768 18.8643 19.1853 18.8134 19.1839 18.7618C19.2037 18.7632 19.2237 18.7647 19.2439 18.7662C19.2443 18.7376 19.2448 18.7091 19.2454 18.6807C19.264 18.6822 19.2829 18.6839 19.302 18.6859C19.3041 18.6431 19.3118 18.6007 19.3159 18.5582C19.3345 18.5598 19.3534 18.5616 19.3723 18.5635C19.3723 18.5354 19.3726 18.5075 19.3731 18.4798C19.3937 18.4808 19.4144 18.4822 19.4353 18.4837C19.4348 18.4316 19.4423 18.3799 19.4484 18.3285C19.4661 18.3305 19.4842 18.3325 19.5023 18.3349C19.5031 18.287 19.5107 18.2398 19.5167 18.1926C19.5394 18.199 19.5625 18.2057 19.5855 18.2126C19.5863 18.1973 19.588 18.1666 19.589 18.1513C19.5975 18.1264 19.5978 18.1002 19.5991 18.0745C19.6127 18.0752 19.6396 18.0764 19.653 18.077C19.657 18.0487 19.6596 18.0204 19.6633 17.9924C19.6765 17.9931 19.7029 17.9946 19.716 17.9953C19.7185 17.9472 19.7276 17.9 19.7294 17.852C19.7475 17.8537 19.7658 17.8553 19.7842 17.8572C19.7893 17.8115 19.7968 17.7662 19.7979 17.7203C19.818 17.7218 19.8382 17.7235 19.8586 17.7252C19.8593 17.6963 19.8598 17.6677 19.8606 17.6392C19.8788 17.641 19.8972 17.6432 19.916 17.6454C19.918 17.6021 19.9248 17.5592 19.9289 17.5162C19.947 17.5181 19.9654 17.5199 19.984 17.5219C19.9846 17.507 19.9861 17.4774 19.9868 17.4625C19.9999 17.4329 19.9966 17.4002 19.9966 17.3688C20.0223 17.3703 20.048 17.3713 20.074 17.3728C20.0747 17.3439 20.0753 17.3152 20.076 17.2866C20.0942 17.2885 20.1128 17.2905 20.1315 17.2927C20.1339 17.2495 20.141 17.2069 20.1446 17.1639C20.163 17.1657 20.1816 17.1674 20.2005 17.1694C20.2007 17.1412 20.2013 17.113 20.2022 17.0851C20.2224 17.0863 20.243 17.0878 20.2637 17.0896C20.2643 17.0431 20.271 16.9971 20.2763 16.9512C20.2944 16.9529 20.3126 16.9549 20.3312 16.9569C20.3308 16.9081 20.34 16.8602 20.3443 16.8118C20.3622 16.8135 20.3804 16.8153 20.3987 16.8174C20.4036 16.7713 20.4104 16.7255 20.4116 16.6793C20.4315 16.6808 20.4517 16.6825 20.4721 16.6843C20.4728 16.6561 20.4736 16.6281 20.4743 16.6004C20.4985 16.6015 20.5228 16.6029 20.5475 16.6046C20.5499 16.5584 20.5563 16.5125 20.56 16.4665C20.5786 16.468 20.5971 16.4697 20.616 16.4715C20.6154 16.4406 20.6155 16.4097 20.616 16.3792C20.6364 16.3805 20.6571 16.382 20.6779 16.3839C20.6883 16.2969 20.6906 16.2104 20.679 16.1232C20.6601 16.1252 20.6416 16.1272 20.6232 16.1294C20.6227 16.101 20.6223 16.0728 20.6222 16.0447C20.6011 16.0459 20.5804 16.0473 20.56 16.0488C20.5578 15.9974 20.5497 15.9463 20.5475 15.8949C20.5235 15.8961 20.4996 15.8974 20.4759 15.8991C20.4718 15.8563 20.4646 15.814 20.4628 15.7711C20.4439 15.773 20.4253 15.7748 20.4068 15.7769C20.4059 15.7481 20.4054 15.7197 20.405 15.6914C20.3847 15.6925 20.3648 15.694 20.3451 15.6959C20.3431 15.6527 20.3361 15.6102 20.3318 15.5676C20.3184 15.5691 20.2914 15.5719 20.2778 15.5735C20.2725 15.5219 20.264 15.4705 20.2652 15.4184C20.2441 15.4198 20.2232 15.4209 20.2025 15.4223C20.2022 15.3942 20.2018 15.3662 20.2018 15.3383C20.1828 15.3402 20.164 15.342 20.1456 15.3442C20.1433 15.2973 20.1352 15.2513 20.1315 15.205C20.1183 15.2065 20.0917 15.2095 20.0785 15.2112C20.0745 15.1682 20.067 15.1258 20.0649 15.0828C20.0407 15.0847 20.0166 15.0862 19.9929 15.0879C19.9922 15.0592 19.9914 15.0306 19.9906 15.0022C19.9702 15.0036 19.9498 15.0053 19.9297 15.0071C19.9294 14.975 19.9329 14.9416 19.9195 14.9117C19.9195 14.8994 19.9196 14.8751 19.9196 14.8628C19.9007 14.8643 19.8822 14.866 19.8637 14.8679C19.8589 14.8218 19.8515 14.7762 19.8498 14.7301C19.8289 14.7313 19.8082 14.7327 19.7876 14.734C19.7873 14.7058 19.7871 14.6777 19.7871 14.6497C19.7682 14.6515 19.7495 14.6534 19.7309 14.6556C19.7294 14.6094 19.722 14.5637 19.7172 14.518C19.6988 14.5195 19.6807 14.5212 19.6626 14.523C19.6608 14.4742 19.653 14.4258 19.6513 14.3769C19.6301 14.3783 19.6092 14.3796 19.5885 14.3809C19.588 14.3529 19.5878 14.3249 19.5877 14.297C19.5635 14.2985 19.5394 14.3002 19.5155 14.3022C19.5136 14.2557 19.5058 14.2096 19.5016 14.1634C19.4884 14.165 19.4617 14.1681 19.4484 14.1697C19.4444 14.1267 19.4374 14.0842 19.4353 14.0412C19.4144 14.0425 19.3937 14.0437 19.3733 14.045C19.3729 14.0109 19.3729 13.977 19.3731 13.9432C19.3542 13.9451 19.3356 13.9471 19.3174 13.9493C19.3154 13.9061 19.308 13.8638 19.3035 13.8213C19.2854 13.823 19.2675 13.8247 19.2498 13.8267C19.2448 13.7805 19.2378 13.7348 19.2367 13.6885C19.2156 13.6898 19.1949 13.6911 19.1741 13.6927C19.1736 13.6641 19.1733 13.6359 19.1731 13.6075C19.1546 13.6097 19.136 13.6117 19.1178 13.614C19.1153 13.5616 19.1073 13.5096 19.1045 13.4572C19.0816 13.4631 19.0589 13.4693 19.0364 13.4758C19.0287 13.4298 19.0194 13.3838 19.0198 13.3371C18.9994 13.3386 18.9791 13.3403 18.9591 13.3418C18.9584 13.3124 18.9579 13.2832 18.9578 13.2539C18.9395 13.256 18.9214 13.2581 18.9035 13.2603C18.9004 13.2133 18.8903 13.1671 18.8873 13.1203C18.874 13.1219 18.8473 13.1255 18.8341 13.1271C18.8337 13.108 18.8336 13.0887 18.8334 13.0697Z" fill="#FCF9FE"/>
</svg>
