<svg width="26" height="26" viewBox="0 0 26 26" fill="none" xmlns="http://www.w3.org/2000/svg">
<path opacity="0.2" d="M13 26C20.1797 26 26 20.1797 26 13C26 5.8203 20.1797 0 13 0C5.8203 0 0 5.8203 0 13C0 20.1797 5.8203 26 13 26Z" fill="#EDAB20"/>
<path fill-rule="evenodd" clip-rule="evenodd" d="M18.6674 7.27487C16.78 7.21983 14.8887 7.23263 13.0013 7.26591C12.9755 8.10252 12.9842 8.93913 12.9929 9.77574C12.9945 9.92985 12.9961 10.084 12.9974 10.2381C13.252 10.2394 13.5065 10.2394 13.7624 10.2394C13.6516 11.2906 13.5226 12.34 13.3936 13.3894C13.2543 14.5224 13.115 15.6554 12.9987 16.7904C12.986 18.0883 12.9758 19.3875 13.0051 20.6854C14.5311 20.2784 16.0596 19.8701 17.5716 19.4118C17.6517 18.9383 17.689 18.4596 17.7262 17.9813C17.7481 17.6995 17.77 17.4178 17.8007 17.1373C17.8899 16.1262 17.9805 15.1153 18.071 14.1045C18.275 11.8281 18.4788 9.55208 18.6674 7.27487ZM14.2167 12.185C14.2244 11.7818 14.2244 11.3786 14.2218 10.9766C14.7618 11.3618 15.3153 11.727 15.8688 12.092C16.3029 12.3784 16.7369 12.6647 17.1644 12.9606C17.1618 13.328 17.1631 13.6954 17.1669 14.0627C16.6881 14.3877 16.2063 14.7078 15.7244 15.0279C15.2212 15.3622 14.7179 15.6965 14.218 16.0365C14.2218 15.6371 14.2244 15.2378 14.2218 14.8384C14.8824 14.3891 15.5505 13.9526 16.2225 13.5226C15.9545 13.3411 15.6836 13.1641 15.4127 12.987C15.0108 12.7243 14.609 12.4617 14.2167 12.185Z" fill="#EDAB20"/>
<path fill-rule="evenodd" clip-rule="evenodd" d="M18.6674 7.27487C16.78 7.21983 14.8887 7.23263 13.0013 7.26591C12.9755 8.10252 12.9842 8.93913 12.9929 9.77574C12.9945 9.92985 12.9961 10.084 12.9974 10.2381C13.252 10.2394 13.5065 10.2394 13.7624 10.2394C13.6516 11.2906 13.5226 12.34 13.3936 13.3894C13.2543 14.5224 13.115 15.6554 12.9987 16.7904C12.986 18.0883 12.9758 19.3875 13.0051 20.6854C14.5311 20.2784 16.0596 19.8701 17.5716 19.4118C17.6517 18.9383 17.689 18.4596 17.7262 17.9813C17.7481 17.6995 17.77 17.4178 17.8007 17.1373C17.8899 16.1262 17.9805 15.1153 18.071 14.1045C18.275 11.8281 18.4788 9.55208 18.6674 7.27487ZM14.2167 12.185C14.2244 11.7818 14.2244 11.3786 14.2218 10.9766C14.7618 11.3618 15.3153 11.727 15.8688 12.092C16.3029 12.3784 16.7369 12.6647 17.1644 12.9606C17.1618 13.328 17.1631 13.6954 17.1669 14.0627C16.6881 14.3877 16.2063 14.7078 15.7244 15.0279C15.2212 15.3622 14.7179 15.6965 14.218 16.0365C14.2218 15.6371 14.2244 15.2378 14.2218 14.8384C14.8824 14.3891 15.5505 13.9526 16.2225 13.5226C15.9545 13.3411 15.6836 13.1641 15.4127 12.987C15.0108 12.7243 14.609 12.4617 14.2167 12.185Z" fill="#F4C215"/>
<path fill-rule="evenodd" clip-rule="evenodd" d="M12.9975 10.2381C13.252 10.2393 13.5065 10.2393 13.7624 10.2393C13.532 12.4256 13.2227 14.6041 12.9987 16.7904C12.734 16.7955 12.4693 16.7968 12.2033 16.7993C12.4731 14.6131 12.7213 12.423 12.9975 10.2381Z" fill="#F7F7F6"/>
<path fill-rule="evenodd" clip-rule="evenodd" d="M8.94509 12.9632C9.91491 12.295 10.9089 11.6653 11.8736 10.992C11.8355 11.3952 11.936 11.8265 11.8278 12.2144C11.1927 12.6701 10.5271 13.0822 9.87291 13.511C10.5322 13.9616 11.2105 14.3827 11.8698 14.8333C11.8685 15.2301 11.8711 15.6269 11.8736 16.0224C10.9025 15.3632 9.91491 14.7245 8.94382 14.0627C8.95273 13.6966 8.95273 13.3293 8.94509 12.9632Z" fill="#F7F7F6"/>
<path fill-rule="evenodd" clip-rule="evenodd" d="M14.2218 10.9766C15.1853 11.664 16.192 12.2873 17.1644 12.9606C17.1618 13.328 17.1631 13.6953 17.1669 14.0627C16.1882 14.727 15.1967 15.3709 14.218 16.0365C14.2218 15.6371 14.2244 15.2377 14.2218 14.8384C14.8824 14.3891 15.5505 13.9526 16.2225 13.5225C15.5569 13.072 14.8735 12.6483 14.2167 12.1849C14.2244 11.7817 14.2244 11.3785 14.2218 10.9766Z" fill="#F7F7F6"/>
</svg>
