<svg width="26" height="26" viewBox="0 0 26 26" fill="none" xmlns="http://www.w3.org/2000/svg">
<path opacity="0.2" d="M13 26C20.1797 26 26 20.1797 26 13C26 5.8203 20.1797 0 13 0C5.8203 0 0 5.8203 0 13C0 20.1797 5.8203 26 13 26Z" fill="#417BA4"/>
<path fill-rule="evenodd" clip-rule="evenodd" d="M16.528 9.28222H16.4135C16.4135 9.23281 16.4514 9.18222 16.4514 9.18222H16.4892C16.528 9.23281 16.528 9.28222 16.528 9.28222Z" fill="#EFF3C9"/>
<path fill-rule="evenodd" clip-rule="evenodd" d="M12.3645 4.03778C12.5935 4.03778 12.8991 4 13.1281 4C13.9303 4 14.3126 4.30486 14.1594 4.91466C13.969 5.63862 12.9374 6.66753 11.6005 7.58219C11.3328 7.69643 11.0659 7.3537 11.1425 7.20087C11.1425 7.16309 11.1804 7.16309 11.1804 7.16309C12.3649 6.36249 13.2429 5.48669 13.4337 4.8382C13.5861 4.2284 13.0902 3.96132 12.2113 4.0376H12.3645" fill="#D37D41"/>
<path fill-rule="evenodd" clip-rule="evenodd" d="M16.9481 4.91467C17.4061 5.14316 17.5971 5.52447 17.4448 6.09641C16.9869 7.81149 13.6253 10.4412 9.95803 12.0035C9.27011 12.3084 8.58319 12.5367 7.97199 12.7275C7.62848 12.7653 7.58972 12.3084 7.74304 12.0799C7.7809 12.0034 7.81966 12.0034 7.85752 11.9656C8.43087 11.8136 9.04207 11.5843 9.69114 11.3179C13.1673 9.83125 16.3378 7.31665 16.7577 5.71572C16.9101 5.1437 16.6811 4.76328 16.1844 4.57257C16.4133 4.68591 16.719 4.80016 16.9479 4.9144" fill="#E8B521"/>
<path fill-rule="evenodd" clip-rule="evenodd" d="M21.7233 10.7075C21.7611 10.8982 21.7611 11.1266 21.6854 11.3938C21.2274 13.0702 18.3625 15.548 14.8864 17.3386C14.5042 17.4906 14.2752 17.2244 14.3518 16.9573C14.3897 16.8431 14.4663 16.7666 14.5429 16.7288C18.0569 14.8995 20.9985 12.384 21.4563 10.6697C21.5329 10.3648 21.5329 10.098 21.4563 9.86911C21.5708 10.1731 21.6852 10.478 21.7231 10.7073" fill="#417BA4"/>
<path fill-rule="evenodd" clip-rule="evenodd" d="M5.60378 8.64959C5.45046 8.87817 5.33598 9.06878 5.22151 9.29727L8.3154 8.91667C8.3154 8.91667 8.3154 8.57403 8.16307 8.61181C6.86405 9.03091 5.90942 9.03091 5.60378 8.64959ZM21.991 12.6124V12.3075H21.9913L21.9258 11.883C21.9232 11.859 21.9196 11.835 21.9147 11.8111L21.9258 11.883C21.9435 12.0474 21.9109 12.2119 21.8782 12.3764L21.8769 12.3831C21.6087 13.4507 20.3106 14.8222 18.5148 16.156C18.4761 16.1938 18.3616 16.3088 18.3237 16.4608C18.2859 16.6515 18.4383 16.9186 18.706 16.7279C20.4251 15.4319 21.6854 14.0982 21.9531 13.0693C21.991 12.8795 21.991 12.7644 21.991 12.6124Z" fill="#D37D41"/>
<path fill-rule="evenodd" clip-rule="evenodd" d="M8.3154 8.91595C8.3154 9.10666 8.27755 9.37284 6.63501 9.60222C6.17704 9.67868 5.52707 9.64 5.22151 9.29736" fill="#D37D41"/>
<path fill-rule="evenodd" clip-rule="evenodd" d="M15.3056 4.30486C15.8023 4.49557 15.9934 4.83821 15.8402 5.37155C15.4579 6.81983 12.593 9.06798 9.4612 10.4017C6.97852 11.4316 5.06828 11.6222 4.57245 10.8973C4.64906 10.6688 4.72478 10.4404 4.80139 10.211C5.25937 10.8587 7.01728 10.7066 9.27093 9.75416C12.1359 8.49686 14.7718 6.43905 15.1153 5.14307C15.2298 4.6475 14.8386 4.2401 14.4185 4.08717" fill="#417BA4"/>
<path fill-rule="evenodd" clip-rule="evenodd" d="M4.68602 12.6241C4.64816 12.7383 4.6094 12.8912 4.53369 12.8526C4.15143 12.6627 3.9982 12.3579 4.03696 11.9001C3.9991 12.1672 4.07481 12.3957 4.18928 12.5478C4.18748 12.3158 4.2659 12.0522 4.30376 11.8238C4.38037 11.9381 4.49484 12.0145 4.64726 12.0909C4.76263 12.2429 4.68602 12.6243 4.68602 12.6243" fill="#E8B521"/>
<path fill-rule="evenodd" clip-rule="evenodd" d="M18.2093 5.63861L18.5915 5.90569C18.8972 6.17277 19.0117 6.55337 18.8972 7.04884C18.4004 8.95463 14.6575 11.8884 10.5701 13.6035C6.67377 15.2804 3.84677 15.2044 4.03786 13.5657C4 13.8328 4.07571 14.0991 4.19018 14.2897C4.15233 14.0612 4.15233 13.7941 4.15233 13.5657C6.71163 16.271 18.2092 9.25948 18.3237 6.2871C18.3616 5.75376 18.056 5.56314 17.9036 5.4489L18.2092 5.6387" fill="#D37D41"/>
<path fill-rule="evenodd" clip-rule="evenodd" d="M4.46529 15.699C4.39509 15.547 4.32323 15.3942 4.39509 15.2035C4.32323 15.3942 4.39509 15.547 4.46529 15.699Z" fill="#417BA4"/>
<path fill-rule="evenodd" clip-rule="evenodd" d="M19.9663 7.23956C20.1952 7.50663 20.234 7.84936 20.1186 8.30624C19.584 10.3263 15.6491 13.4129 11.2948 15.2418C7.1696 17.0333 4.15143 16.9569 4.38145 15.204C4.3436 15.5089 4.41931 15.776 4.57254 15.9657C4.49592 15.7372 4.42021 15.5089 4.38145 15.2418C5.06927 16.1942 7.66643 15.9657 10.9903 14.5555C15.2299 12.764 19.0884 9.71593 19.6229 7.73377C19.7373 7.23821 19.6607 6.89557 19.3939 6.6284C19.5841 6.82001 19.7753 7.0484 19.9664 7.23911" fill="#417BA4"/>
<path fill-rule="evenodd" clip-rule="evenodd" d="M18.9728 12.232C19.0494 12.4605 18.9728 12.6133 18.8962 12.7275C17.2158 14.252 14.7319 15.7764 12.1351 16.8817C8.27673 18.4829 5.37393 18.5968 5.10614 17.2244C5.06828 17.1101 4.99167 17.0337 4.91505 16.9195C5.64073 17.872 8.31459 17.6813 11.7528 16.1956C14.35 15.0902 16.8335 13.528 18.5139 12.0414C18.8204 11.8884 18.935 12.1169 18.9728 12.2321" fill="#E8B521"/>
<path fill-rule="evenodd" clip-rule="evenodd" d="M9.30896 19.2057C9.34682 19.2822 9.38558 19.4342 9.23235 19.4728C7.85761 19.7013 6.86414 19.587 6.40526 19.0915C6.25293 18.9008 6.02299 18.6346 5.87067 18.4438C6.29079 18.9771 7.32184 19.1301 8.81223 18.9007C9.07993 18.9007 9.27021 19.1292 9.30896 19.2055" fill="#417BA4"/>
<path fill-rule="evenodd" clip-rule="evenodd" d="M13.5107 19.3577C13.5486 19.3954 13.5486 19.5484 13.3196 19.6625C10.6837 20.6914 8.62105 20.9198 7.7809 20.3488C7.58981 20.1968 7.32292 20.0061 7.13193 19.8532C7.93413 20.5395 10.1113 20.3101 12.9384 19.2055C13.3577 19.0913 13.5109 19.3576 13.5109 19.3576" fill="#D37D41"/>
<path fill-rule="evenodd" clip-rule="evenodd" d="M21.8765 14.6327C21.4185 16.2713 18.1714 18.8246 14.6186 20.3491C12.2883 21.3403 10.4168 21.6064 9.49996 21.2638C9.27102 21.1496 8.96537 21.0353 8.77428 20.9212C11.8237 22.1817 21.066 17.2298 21.9739 13.9776" fill="#417BA4"/>
<path fill-rule="evenodd" clip-rule="evenodd" d="M21.341 16.424C20.0041 19.1676 13.8163 22.2171 11.3714 21.8355C11.1037 21.7977 10.7602 21.7212 10.5313 21.6448C11.4102 21.9118 13.0527 21.607 15.0388 20.7679C18.2476 19.3963 21.1887 17.1092 21.6476 15.6234C21.571 15.8518 21.4556 16.1946 21.3411 16.424" fill="#E8B521"/>
<path fill-rule="evenodd" clip-rule="evenodd" d="M19.3551 19.167C19.3551 19.2048 17.1392 20.8057 15.9555 21.3012C14.9621 21.7203 14.0841 21.9489 13.4341 21.9875H12.4794C13.2429 22.0253 14.3509 21.759 15.6882 21.2258C17.0251 20.6537 19.4492 18.9998 19.487 18.9998C19.487 18.9998 19.3933 19.1294 19.3554 19.1671" fill="#417BA4"/>
<path fill-rule="evenodd" clip-rule="evenodd" d="M5.22151 9.29727C5.1449 9.18302 5.10704 9.07238 5.10704 8.88176C5.10704 8.84398 5.10704 8.8053 5.1449 8.72974C5.25937 8.53903 5.4126 8.34842 5.52716 8.15771C5.4893 8.3862 5.4893 8.53903 5.60378 8.65328C5.45055 8.91945 5.33607 9.06878 5.22151 9.29727Z" fill="#D37D41"/>
<path fill-rule="evenodd" clip-rule="evenodd" d="M4.57245 10.8973C4.45798 10.7453 4.41982 10.5546 4.45798 10.3253C4.45798 10.2488 4.45798 10.211 4.49583 10.1346C4.56837 9.91217 4.65786 9.69565 4.76354 9.48689C4.68692 9.75397 4.70134 10.0391 4.81581 10.2297C4.70044 10.4977 4.64456 10.6803 4.57245 10.8971" fill="#417BA4"/>
<path fill-rule="evenodd" clip-rule="evenodd" d="M4.19019 12.5503C4.07571 12.3596 3.9991 12.169 4.03696 11.9026L4.11357 11.4071L4.19019 11.1022C4.11357 11.4071 4.15233 11.6742 4.30466 11.8262C4.28122 12.0582 4.19019 12.3217 4.19019 12.5501" fill="#E8B521"/>
<path fill-rule="evenodd" clip-rule="evenodd" d="M4.19019 14.2619C4.07571 14.1476 4.03786 14.0226 4.03786 13.8321C4.03786 13.6036 4 13.2601 4 13.0315C4 13.26 4.07661 13.4128 4.15233 13.5648" fill="#D37D41"/>
<path fill-rule="evenodd" clip-rule="evenodd" d="M10.0934 6.68615C10.1007 6.6942 10.1067 6.70078 10.1112 6.70531C10.149 6.74309 10.1878 6.85733 10.1111 6.93388C9.72881 7.16237 9.30878 7.39076 8.85081 7.54369C7.51392 8.11562 6.44203 8.19118 6.17433 7.81076C6.14342 7.7173 6.12755 7.50878 6.14342 7.41496C6.14639 7.08141 6.75724 6.5907 6.90722 6.47754C6.79275 6.62956 6.6945 6.76081 6.65574 6.91373C6.64502 6.92228 6.59644 7.16282 6.67206 7.23937L6.67287 7.23838C6.9019 7.54351 7.74205 7.46704 8.81205 7.01016C9.15555 6.85814 9.49987 6.70531 9.80552 6.5146C9.90669 6.48124 10.038 6.62536 10.0934 6.68615ZM4.42012 15.6991C4.45798 15.8142 4.49583 15.8897 4.57245 15.9662V15.966C4.52748 15.8319 4.49555 15.6978 4.46172 15.5557C4.43791 15.4558 4.41316 15.3518 4.38226 15.2411C4.30565 15.127 4.22903 15.0127 4.19118 14.8985C4.22947 15.0127 4.26754 15.1557 4.30561 15.2987C4.3437 15.4417 4.3818 15.5848 4.42012 15.6991Z" fill="#417BA4"/>
<path fill-rule="evenodd" clip-rule="evenodd" d="M5.11605 8.80181C5.11605 8.72534 5.18366 8.58501 5.22151 8.50954C5.25937 8.3953 5.67949 7.7478 5.83272 7.59488C5.83272 7.59488 5.64163 7.86196 5.52707 8.1669C5.4126 8.35761 5.25937 8.54822 5.14481 8.73893" fill="#D37D41"/>
</svg>
