<svg width="26" height="26" viewBox="0 0 26 26" fill="none" xmlns="http://www.w3.org/2000/svg">
<path opacity="0.2" d="M13 26C20.1797 26 26 20.1797 26 13C26 5.8203 20.1797 0 13 0C5.8203 0 0 5.8203 0 13C0 20.1797 5.8203 26 13 26Z" fill="#3D92EF"/>
<path fill-rule="evenodd" clip-rule="evenodd" d="M15.4091 8.24904V5.37701C18.7247 6.43142 20.9757 9.51188 20.9787 12.9939C20.9726 16.4728 18.7217 19.5471 15.4091 20.6015V17.7418C17.1947 16.8314 18.3171 14.9985 18.3171 12.9939C18.3141 10.9893 17.1916 9.15939 15.4091 8.24904ZM5 12.9939C5.00304 9.51495 7.25703 6.43755 10.5696 5.38621V8.24291C8.78403 9.15019 7.6616 10.9862 7.6616 12.9908C7.66464 14.9954 8.78707 16.8253 10.5696 17.7356V20.6077C7.25399 19.5533 5 16.4759 5 12.9939Z" fill="#3D92EF"/>
<path fill-rule="evenodd" clip-rule="evenodd" d="M12.9878 5C12.4008 5.00307 11.8167 5.07356 11.2449 5.20536V7.96398C11.8046 7.76475 12.3947 7.6636 12.9878 7.66054C13.581 7.6636 14.1711 7.76475 14.7308 7.96092V5.19923C14.1589 5.0705 13.5749 5.00307 12.9878 5ZM12.9878 10.2077C12.3521 10.2077 11.7376 10.4284 11.2449 10.8268V15.1579C11.7376 15.5563 12.3551 15.777 12.9878 15.777C13.6236 15.777 14.238 15.5563 14.7308 15.1579V10.8268C14.238 10.4284 13.6236 10.2077 12.9878 10.2077ZM12.9909 18.3241C13.584 18.3211 14.1741 18.2199 14.7338 18.0207V20.7793C14.162 20.9111 13.5779 20.9816 12.9909 20.9847C12.4038 20.9816 11.8198 20.9172 11.2479 20.7854V18.0238C11.8076 18.2199 12.3977 18.3211 12.9909 18.3241Z" fill="#81BFFF"/>
<path fill-rule="evenodd" clip-rule="evenodd" d="M11.2418 12.2644C11.8167 12.1908 12.4008 12.154 12.9878 12.151C13.5749 12.154 14.1589 12.1908 14.7308 12.2613V20.7916C14.1589 20.8651 13.5749 20.9019 12.9878 20.905C12.4008 20.9019 11.8137 20.8651 11.2418 20.7946V12.2644Z" fill="#81BFFF"/>
</svg>
