<svg width="26" height="26" viewBox="0 0 26 26" fill="none" xmlns="http://www.w3.org/2000/svg">
<path opacity="0.2" d="M13 26C20.1797 26 26 20.1797 26 13C26 5.8203 20.1797 0 13 0C5.8203 0 0 5.8203 0 13C0 20.1797 5.8203 26 13 26Z" fill="#195047"/>
<path fill-rule="evenodd" clip-rule="evenodd" d="M20.5916 10.7212V11.5346L12.8266 16.4558L6.97483 13.4962L6.98601 13.0404L12.8042 15.9942L20.2 11.3096V10.975L13.2182 7.50192L5.43077 12.4692V14.6904L12.8042 18.4519L20.5021 13.5827L20.7203 13.9288L12.8266 18.9135L5.03916 14.9442V12.2442L13.1958 7.04039L20.5916 10.7212Z" fill="white"/>
<path fill-rule="evenodd" clip-rule="evenodd" d="M20.4607 14.5875L20.5865 13.8L19.8187 13.6688L19.8691 13.3625L20.9453 13.5438L20.7691 14.6375L20.4607 14.5875Z" fill="white"/>
</svg>
