<svg width="26" height="26" viewBox="0 0 26 26" fill="none" xmlns="http://www.w3.org/2000/svg">
<path opacity="0.2" d="M13 26C20.1797 26 26 20.1797 26 13C26 5.8203 20.1797 0 13 0C5.8203 0 0 5.8203 0 13C0 20.1797 5.8203 26 13 26Z" fill="#298181"/>
<path fill-rule="evenodd" clip-rule="evenodd" d="M6.76461 8.99953H6.98847V11.9672H6.76461V8.99953Z" fill="white"/>
<path fill-rule="evenodd" clip-rule="evenodd" d="M9.11655 15.4381L9.22729 15.2379L16.8799 19.7217L16.7691 19.9219L9.11655 15.4381Z" fill="white"/>
<path fill-rule="evenodd" clip-rule="evenodd" d="M9.56483 14.6609L9.67499 14.4603L16.9356 18.6851L16.8254 18.8857L9.56483 14.6609Z" fill="white"/>
<path fill-rule="evenodd" clip-rule="evenodd" d="M10.4324 14.113L10.543 13.9126L16.8968 17.6294L16.7862 17.8297L10.4324 14.113Z" fill="white"/>
<path fill-rule="evenodd" clip-rule="evenodd" d="M9.10037 19.7548L12.0888 18.0116L12.1992 18.2121L9.21074 19.9553L9.10037 19.7548Z" fill="white"/>
<path fill-rule="evenodd" clip-rule="evenodd" d="M15.7338 9.9724C15.6829 9.97239 15.6383 9.93703 15.6254 9.88633C15.6125 9.83563 15.6344 9.78233 15.6788 9.7566L18.9975 7.83301C19.0325 7.81055 19.0766 7.80966 19.1124 7.8307C19.1482 7.85174 19.1699 7.8913 19.1689 7.93372C19.1679 7.97613 19.1443 8.01454 19.1075 8.03372L15.7885 9.95754C15.7718 9.9673 15.753 9.97242 15.7338 9.9724Z" fill="white"/>
<path fill-rule="evenodd" clip-rule="evenodd" d="M14.8381 9.48255C14.7873 9.48256 14.7428 9.44733 14.7298 9.39674C14.7167 9.34614 14.7385 9.29287 14.7827 9.26698L18.1296 7.31439C18.1644 7.29408 18.2071 7.29444 18.2416 7.31534C18.2761 7.33624 18.2972 7.37449 18.2969 7.41569C18.2965 7.4569 18.2749 7.49479 18.24 7.51509L14.8931 9.46745C14.8764 9.47738 14.8574 9.48259 14.8381 9.48255Z" fill="white"/>
<path fill-rule="evenodd" clip-rule="evenodd" d="M18.9961 11.8507L19.0136 9.06067L19.2374 9.06215L19.2199 11.8522L18.9961 11.8507Z" fill="white"/>
<path fill-rule="evenodd" clip-rule="evenodd" d="M18.2125 11.3895L18.2301 9.43506L18.4539 9.43719L18.4363 11.3916L18.2125 11.3895Z" fill="white"/>
<path fill-rule="evenodd" clip-rule="evenodd" d="M17.4571 9.86391H17.6809V11.0453H17.4571V9.86391Z" fill="white"/>
<path fill-rule="evenodd" clip-rule="evenodd" d="M8.30415 9.8349H8.52802V11.0163H8.30415V9.8349Z" fill="white"/>
<path fill-rule="evenodd" clip-rule="evenodd" d="M7.54848 9.48915H7.77234V11.3908H7.54848V9.48915Z" fill="white"/>
<path fill-rule="evenodd" clip-rule="evenodd" d="M13.9042 8.94033C13.8534 8.94024 13.809 8.90497 13.796 8.8544C13.7831 8.80384 13.8048 8.75063 13.8489 8.72476L17.1959 6.7724C17.2493 6.74417 17.3149 6.76434 17.3445 6.81812C17.3741 6.8719 17.3573 6.94016 17.3063 6.97287L13.9594 8.92547C13.9425 8.93524 13.9235 8.94035 13.9042 8.94033Z" fill="white"/>
<path fill-rule="evenodd" clip-rule="evenodd" d="M9.08929 18.6946L11.1886 17.4845L11.298 17.6855L9.19867 18.8956L9.08929 18.6946Z" fill="white"/>
<path fill-rule="evenodd" clip-rule="evenodd" d="M12.869 14.3139L14.4924 13.3918L14.6006 13.5936L12.9772 14.5156L12.869 14.3139Z" fill="white"/>
<path fill-rule="evenodd" clip-rule="evenodd" d="M13.8194 14.8641L15.5033 13.893L15.6127 14.094L13.9288 15.0651L13.8194 14.8641Z" fill="white"/>
<path fill-rule="evenodd" clip-rule="evenodd" d="M14.7164 15.3816L16.4238 14.431L16.5303 14.6337L14.8229 15.5843L14.7164 15.3816Z" fill="white"/>
<path fill-rule="evenodd" clip-rule="evenodd" d="M15.6064 15.9203L16.8189 15.2165L16.9289 15.4172L15.7164 16.121L15.6064 15.9203Z" fill="white"/>
<path fill-rule="evenodd" clip-rule="evenodd" d="M9.08973 17.6282L10.2934 16.9367L10.4025 17.1379L9.19884 17.8294L9.08973 17.6282Z" fill="white"/>
<path fill-rule="evenodd" clip-rule="evenodd" d="M11.3276 13.5938L11.4383 13.3935L16.8797 16.5804L16.769 16.7807L11.3276 13.5938Z" fill="white"/>
<path fill-rule="evenodd" clip-rule="evenodd" d="M9.17223 16.5049L9.28368 16.305L10.8482 17.2295L10.7367 17.4294L9.17223 16.5049Z" fill="white"/>
<path fill-rule="evenodd" clip-rule="evenodd" d="M12.9627 8.4165C12.9118 8.41641 12.8675 8.38114 12.8545 8.33058C12.8416 8.28001 12.8633 8.2268 12.9074 8.20094L16.2532 6.24952C16.2881 6.22711 16.3322 6.22621 16.3679 6.24715C16.4037 6.2681 16.4254 6.30754 16.4245 6.34988C16.4236 6.39222 16.4003 6.43065 16.3637 6.44999L13.0176 8.40164C13.0009 8.41143 12.9819 8.41655 12.9627 8.4165Z" fill="white"/>
<path fill-rule="evenodd" clip-rule="evenodd" d="M9.22183 20.9774C9.19303 20.977 9.16482 20.9689 9.14003 20.9538C9.08996 20.9242 9.05916 20.8693 9.05937 20.8099V14.8821C9.05945 14.8013 9.10172 14.7268 9.17004 14.687L12.956 12.4731L13.0683 12.6741L9.28369 14.8866V20.7014L12.9567 18.5585L13.0671 18.7592L9.3018 20.9554C9.27742 20.9697 9.24988 20.9773 9.22183 20.9774Z" fill="white"/>
<path fill-rule="evenodd" clip-rule="evenodd" d="M8.37495 20.4271C8.31307 20.4271 8.26291 20.3755 8.26291 20.3118V14.2915C8.2629 14.2106 8.30518 14.136 8.37358 14.0962L12.0143 11.9667C12.0678 11.9373 12.1344 11.9572 12.1644 12.0115C12.1944 12.0659 12.1769 12.1349 12.1249 12.1672L8.48723 14.295V20.3118C8.48723 20.3424 8.47539 20.3718 8.45433 20.3934C8.43327 20.4151 8.40471 20.4272 8.37495 20.4271Z" fill="white"/>
<path fill-rule="evenodd" clip-rule="evenodd" d="M7.68825 19.8325C7.62637 19.8325 7.5762 19.7809 7.5762 19.7172V13.6441C7.57629 13.5632 7.61865 13.4886 7.6871 13.4488L11.1312 11.4061C11.1659 11.384 11.2096 11.3831 11.2452 11.4038C11.2808 11.4245 11.3026 11.4635 11.3022 11.5055C11.3017 11.5476 11.279 11.586 11.243 11.6059L7.80029 13.6476V19.7165C7.80048 19.7472 7.78875 19.7767 7.76772 19.7985C7.74669 19.8203 7.71808 19.8325 7.68825 19.8325Z" fill="white"/>
<path fill-rule="evenodd" clip-rule="evenodd" d="M6.93256 19.1698C6.87068 19.1698 6.82052 19.1182 6.82052 19.0545V12.9814C6.82051 12.9004 6.8629 12.8258 6.93142 12.7861L10.2369 10.8868C10.2718 10.8667 10.3145 10.8674 10.3488 10.8885C10.3831 10.9096 10.4039 10.9479 10.4033 10.9891C10.4027 11.0302 10.3809 11.0679 10.346 11.088L7.04438 12.9851V19.0545C7.04444 19.085 7.03269 19.1144 7.01171 19.136C6.99074 19.1576 6.96226 19.1698 6.93256 19.1698Z" fill="white"/>
<path fill-rule="evenodd" clip-rule="evenodd" d="M6.14848 18.5649C6.11878 18.5649 6.09031 18.5527 6.06933 18.5311C6.04835 18.5094 6.0366 18.4801 6.03666 18.4495V12.3762C6.03696 12.2951 6.07971 12.2206 6.14848 12.1811L9.31348 10.3396C9.36708 10.3107 9.43332 10.3307 9.46311 10.385C9.49289 10.4392 9.47544 10.508 9.4237 10.5403L6.26167 12.38V18.4495C6.26167 18.4803 6.24971 18.5098 6.22845 18.5315C6.20719 18.5532 6.17839 18.5652 6.14848 18.5649Z" fill="white"/>
<path fill-rule="evenodd" clip-rule="evenodd" d="M16.7772 20.963C16.7493 20.9629 16.7218 20.9554 16.6975 20.9413L10.6837 17.3969C10.649 17.3765 10.6275 17.3386 10.6273 17.2974C10.6272 17.2562 10.6484 17.2181 10.6829 17.1974C10.7175 17.1767 10.7601 17.1765 10.7948 17.1969L16.7158 20.6875V14.8733L6.24677 8.74953V18.4351C6.24864 18.4775 6.22772 18.5176 6.19232 18.5394C6.15692 18.5611 6.11276 18.5611 6.07736 18.5394C6.04196 18.5176 6.02105 18.4775 6.02291 18.4351V8.64269C6.02287 8.58307 6.05358 8.52791 6.10357 8.49781C6.15357 8.46771 6.21533 8.4672 6.26579 8.49646L16.8288 14.6733C16.897 14.7132 16.9392 14.7877 16.9392 14.8684V20.7958C16.9396 20.8554 16.9087 20.9105 16.8584 20.9401C16.8337 20.9549 16.8058 20.9627 16.7772 20.963Z" fill="white"/>
<path fill-rule="evenodd" clip-rule="evenodd" d="M19.9762 18.4495H19.7523V8.76367L16.6998 10.5118L16.591 10.3104L19.7337 8.5106C19.7842 8.48155 19.8459 8.48222 19.8957 8.51234C19.9456 8.54247 19.9762 8.59755 19.9762 8.65706V18.4495Z" fill="white"/>
<path fill-rule="evenodd" clip-rule="evenodd" d="M17.5691 20.4406C17.5059 20.4406 17.4546 20.3878 17.4546 20.3226V14.1639L6.82053 8.00825C6.78475 7.98752 6.76244 7.94873 6.76199 7.90647C6.76155 7.86422 6.78303 7.82493 6.81836 7.80341C6.85369 7.78188 6.89749 7.78139 6.93326 7.80212L17.5698 13.9594C17.6404 13.9999 17.6842 14.0765 17.6844 14.1597V20.3222C17.6845 20.3536 17.6724 20.3839 17.6508 20.4061C17.6291 20.4283 17.5997 20.4408 17.5691 20.4406Z" fill="white"/>
<path fill-rule="evenodd" clip-rule="evenodd" d="M18.3528 19.9219C18.2895 19.9219 18.2382 19.8691 18.2382 19.804V13.6455L7.60438 7.48985C7.54902 7.4578 7.52937 7.38563 7.5605 7.32864C7.59163 7.27166 7.66175 7.25144 7.71712 7.28348L18.3537 13.441C18.4242 13.4814 18.4681 13.5579 18.4682 13.641V19.8035C18.4684 19.835 18.4562 19.8653 18.4345 19.8876C18.4128 19.9098 18.3834 19.9222 18.3528 19.9219Z" fill="white"/>
<path fill-rule="evenodd" clip-rule="evenodd" d="M19.1084 19.2592C19.0452 19.2592 18.9939 19.2064 18.9939 19.1413V12.9828L8.35984 6.82711C8.30447 6.79507 8.28483 6.7229 8.31596 6.66591C8.34709 6.60892 8.41721 6.5887 8.47257 6.62074L19.1094 12.7783C19.1799 12.8187 19.2237 12.8952 19.2239 12.9783V19.141C19.224 19.1725 19.2118 19.2027 19.1901 19.2249C19.1684 19.2471 19.139 19.2594 19.1084 19.2592Z" fill="white"/>
<path fill-rule="evenodd" clip-rule="evenodd" d="M19.8644 18.6552C19.8011 18.6552 19.7498 18.6024 19.7498 18.5373V12.3776L9.11597 6.22193C9.08016 6.2012 9.05781 6.16238 9.05734 6.12009C9.05688 6.0778 9.07836 6.03847 9.11371 6.01691C9.14906 5.99534 9.19289 5.99483 9.22871 6.01556L19.865 12.1733C19.9357 12.2137 19.9795 12.2902 19.9796 12.3733V18.5358C19.98 18.5675 19.968 18.598 19.9463 18.6204C19.9246 18.6428 19.8951 18.6554 19.8644 18.6552Z" fill="white"/>
</svg>
