<svg width="26" height="26" viewBox="0 0 26 26" fill="none" xmlns="http://www.w3.org/2000/svg">
<path opacity="0.2" d="M13 26C20.1797 26 26 20.1797 26 13C26 5.8203 20.1797 0 13 0C5.8203 0 0 5.8203 0 13C0 20.1797 5.8203 26 13 26Z" fill="#505050"/>
<path fill-rule="evenodd" clip-rule="evenodd" d="M5.50692 21.1137C6.72904 21.0895 7.69995 20.0894 7.6755 18.8798C7.65105 17.6703 6.64051 16.7094 5.41838 16.7336C4.19626 16.7578 3.22536 17.7579 3.2498 18.9675C3.27425 20.177 4.28479 21.1379 5.50692 21.1137Z" fill="#DE2813"/>
<path fill-rule="evenodd" clip-rule="evenodd" d="M3.50301 15.9799C4.3331 15.9799 5.00602 15.3139 5.00602 14.4924C5.00602 13.6708 4.3331 13.0048 3.50301 13.0048C2.67292 13.0048 2 13.6708 2 14.4924C2 15.3139 2.67292 15.9799 3.50301 15.9799Z" fill="#E71619"/>
<path fill-rule="evenodd" clip-rule="evenodd" d="M4.36549 11.0026C5.09751 11.0026 5.69093 10.4153 5.69093 9.6908C5.69093 8.96631 5.09751 8.379 4.36549 8.379C3.63347 8.379 3.04005 8.96631 3.04005 9.6908C3.04005 10.4153 3.63347 11.0026 4.36549 11.0026Z" fill="#EB6617" fill-opacity="0.01"/>
<path fill-rule="evenodd" clip-rule="evenodd" d="M7.14954 6.8538C7.77999 6.8538 8.29107 6.34798 8.29107 5.72402C8.29107 5.10006 7.77999 4.59424 7.14954 4.59424C6.5191 4.59424 6.00802 5.10006 6.00802 5.72402C6.00802 6.34798 6.5191 6.8538 7.14954 6.8538Z" fill="#EC6816"/>
<path fill-rule="evenodd" clip-rule="evenodd" d="M11.8298 4.71978C12.3096 4.71978 12.6986 4.33479 12.6986 3.85989C12.6986 3.38498 12.3096 3 11.8298 3C11.35 3 10.961 3.38498 10.961 3.85989C10.961 4.33479 11.35 4.71978 11.8298 4.71978Z" fill="#F2961B"/>
<path fill-rule="evenodd" clip-rule="evenodd" d="M16.7003 5.25329C17.0996 5.25329 17.4233 4.93294 17.4233 4.53776C17.4233 4.14259 17.0996 3.82224 16.7003 3.82224C16.301 3.82224 15.9773 4.14259 15.9773 4.53776C15.9773 4.93294 16.301 5.25329 16.7003 5.25329Z" fill="#F1C621"/>
<path fill-rule="evenodd" clip-rule="evenodd" d="M4.49617 11.7908C5.67124 11.7264 6.57107 10.7314 6.50599 9.56839C6.44091 8.40541 5.43557 7.51485 4.2605 7.57926C3.08543 7.64367 2.18561 8.63866 2.25069 9.80164C2.31577 10.9646 3.3211 11.8552 4.49617 11.7908Z" fill="#EB6617"/>
<path fill-rule="evenodd" clip-rule="evenodd" d="M9.19795 11.4796L10.9673 10.4817L10.961 16.2875L9.19795 17.2729V11.4796H9.19795Z" fill="white"/>
<path fill-rule="evenodd" clip-rule="evenodd" d="M16.25 11.4796L18.0194 10.4817L18.0131 16.2875L16.25 17.2729V11.4796Z" fill="white"/>
<path fill-rule="evenodd" clip-rule="evenodd" d="M12.7177 11.4796L14.487 10.4817L14.4807 16.2875L12.7177 17.2729V11.4796Z" fill="white"/>
<path fill-rule="evenodd" clip-rule="evenodd" d="M7.48566 10.444L9.21698 9.43347L10.9673 10.4817L9.19795 11.4796L7.48566 10.444Z" fill="white"/>
<path fill-rule="evenodd" clip-rule="evenodd" d="M10.999 10.444L12.7303 9.43347L14.4807 10.4817L12.7177 11.4796L10.999 10.444Z" fill="white"/>
<path fill-rule="evenodd" clip-rule="evenodd" d="M14.5378 10.4503L16.2691 9.43976L18.0194 10.4879L16.25 11.4859L14.5378 10.4503Z" fill="white"/>
</svg>
