<svg width="26" height="26" viewBox="0 0 26 26" fill="none" xmlns="http://www.w3.org/2000/svg">
<path opacity="0.2" d="M13 26C20.1797 26 26 20.1797 26 13C26 5.8203 20.1797 0 13 0C5.8203 0 0 5.8203 0 13C0 20.1797 5.8203 26 13 26Z" fill="#00AEEF"/>
<path fill-rule="evenodd" clip-rule="evenodd" d="M12.2475 18.23C9.69307 17.8559 7.73267 15.6538 7.73267 12.9929C7.73267 10.3319 9.69307 8.12981 12.2475 7.75589V5C8.18059 5.389 5 8.81898 5 12.9929C5 17.1667 8.18059 20.5965 12.2475 20.9857V18.23ZM13.8317 7.76124C16.1089 8.11276 17.9053 9.91698 18.2475 12.1998H21C20.6293 8.40481 17.6192 5.38503 13.8317 5.00377V7.76124ZM13.8317 18.2243C16.1089 17.8732 17.9053 16.068 18.2475 13.7859L21 13.7849C20.6293 17.5807 17.6192 20.6007 13.8317 20.982V18.2243Z" fill="#00AEEF"/>
</svg>
