<svg width="26" height="26" viewBox="0 0 26 26" fill="none" xmlns="http://www.w3.org/2000/svg">
<path opacity="0.2" d="M13 26C20.1797 26 26 20.1797 26 13C26 5.8203 20.1797 0 13 0C5.8203 0 0 5.8203 0 13C0 20.1797 5.8203 26 13 26Z" fill="#2BB673"/>
<path fill-rule="evenodd" clip-rule="evenodd" d="M9.08255 10.2224C9.34529 10.1101 9.63433 10.0924 9.91631 10.0723C10.1335 10.0574 10.353 10.0731 10.5655 10.1214C10.7736 10.1862 10.9405 10.3378 11.0949 10.4859C11.7028 11.1229 11.9742 11.9916 12.1521 12.8344C12.2872 13.5606 12.3677 14.2997 12.3453 15.0392C12.3359 15.1629 12.1733 15.1609 12.0834 15.1959C11.7319 15.2564 11.3722 15.2768 11.0179 15.2277C10.8526 15.2061 10.6381 15.208 10.5333 15.0572C10.529 14.6999 10.5109 14.3433 10.4893 13.9871C10.0879 13.9761 9.68617 13.9847 9.28441 13.9827C9.19566 13.9945 9.13832 13.9195 9.08648 13.8614C8.9879 13.7451 8.86812 13.6375 8.821 13.4879C9.35353 13.4946 9.88568 13.4926 10.4182 13.4895C10.4072 13.1808 10.32 12.8823 10.2776 12.5776C9.8146 12.5489 9.34607 12.6102 8.88697 12.541C8.76287 12.3922 8.62345 12.2536 8.53156 12.0808C9.0586 12.0753 9.58642 12.0831 10.1139 12.0776C10.1044 11.9131 10.0133 11.7701 9.97129 11.6134C9.75804 11.1296 9.47292 10.652 9.02993 10.3457C8.93921 10.3001 9.02914 10.2412 9.08255 10.2224Z" fill="white"/>
<path fill-rule="evenodd" clip-rule="evenodd" d="M11.4648 10.2373C11.9353 10.0673 12.4518 10.0315 12.9446 10.1085C13.0998 10.125 13.2227 10.2275 13.3452 10.3143C13.5781 10.4898 13.7489 10.7302 13.9135 10.9674C14.4024 11.7662 14.6008 12.7021 14.7127 13.621C14.7382 13.8696 14.7751 14.1175 14.772 14.3684C14.7665 14.5942 14.8285 14.8173 14.8054 15.0431C14.7551 15.1511 14.6184 15.17 14.5155 15.199C14.1644 15.2591 13.8047 15.2725 13.4509 15.2273C13.2859 15.2092 13.0817 15.1994 12.9721 15.0584C12.9489 13.8677 12.8468 12.6487 12.3779 11.5392C12.1729 11.0891 11.8988 10.6528 11.4927 10.3579C11.4456 10.3343 11.468 10.2774 11.4648 10.2373Z" fill="white"/>
<path fill-rule="evenodd" clip-rule="evenodd" d="M13.7741 10.2931C13.9437 10.1697 14.1578 10.1379 14.3592 10.1034C14.7755 10.068 15.2405 10.0028 15.612 10.2408C16.1041 10.5982 16.4183 11.1429 16.6351 11.7006C16.7309 11.9433 16.7914 12.1978 16.8731 12.4452C17.0659 13.2821 17.1621 14.1406 17.1594 14.9995C17.1767 15.1381 17.0015 15.1609 16.9025 15.1935C16.3936 15.2775 15.8536 15.2944 15.3607 15.1236C15.332 14.9783 15.3316 14.8302 15.3285 14.683C15.2947 13.9179 15.2291 13.1497 15.03 12.4075C14.8344 11.604 14.4708 10.7828 13.7741 10.2931Z" fill="white"/>
<path fill-rule="evenodd" clip-rule="evenodd" d="M11.7944 5.63145C11.7062 5.64768 11.618 5.6639 11.5296 5.67734C11.1302 5.75627 10.7328 5.85681 10.355 6.01115C8.47343 6.72317 6.9414 8.26305 6.1799 10.1183C6.15477 10.1831 6.12845 10.2479 6.10018 10.3119C6.09148 10.3382 6.08255 10.3644 6.0736 10.3906C6.05914 10.433 6.04465 10.4755 6.03106 10.5185C5.83705 11.0769 5.73219 11.6625 5.66347 12.2484C5.65011 12.6408 5.65208 13.0339 5.66268 13.4266C5.74437 14.0954 5.86258 14.7658 6.09979 15.3993C6.10875 15.4216 6.11745 15.4442 6.12618 15.4668C6.13619 15.4928 6.14624 15.5188 6.15673 15.5446C6.2718 15.8466 6.40336 16.1427 6.56045 16.4259C7.34866 17.8955 8.68393 19.0505 10.2332 19.6584C11.8568 20.3131 13.7081 20.3783 15.3701 19.8253C15.391 19.8181 15.4118 19.8108 15.4327 19.8035C15.4818 19.7863 15.5309 19.7691 15.5802 19.7523C17.5863 19.0151 19.18 17.3201 19.8912 15.316C20.0985 14.7709 20.2011 14.1952 20.2929 13.6226C20.2951 13.5394 20.2976 13.4561 20.3001 13.3727C20.3156 12.8643 20.3311 12.353 20.2501 11.8506C20.1728 11.3279 20.0495 10.8103 19.8586 10.317C19.8437 10.2789 19.8299 10.24 19.8166 10.2016C19.4568 9.27864 18.9105 8.42721 18.2119 7.72384C17.2968 6.77069 16.1053 6.09323 14.8266 5.76806C14.4378 5.67773 14.0451 5.6039 13.6484 5.55834C13.3794 5.55053 13.1102 5.55158 12.8409 5.55264C12.7175 5.55312 12.594 5.5536 12.4706 5.55323C12.2424 5.54901 12.0183 5.59025 11.7944 5.63145ZM12.2937 6.19956C12.3945 6.19233 12.4953 6.18509 12.5951 6.16982C12.8739 6.1439 13.1555 6.15293 13.4336 6.18513C14.5148 6.25268 15.5708 6.60339 16.5008 7.15438C17.5219 7.76861 18.3639 8.67542 18.9082 9.7346C19.4207 10.6968 19.6803 11.7858 19.7031 12.8729C19.6803 14.152 19.3131 15.4315 18.6101 16.5044C17.9232 17.5852 16.9143 18.4508 15.7554 18.9912C14.6377 19.5029 13.3747 19.6816 12.1576 19.5218C11.21 19.3984 10.287 19.0788 9.46939 18.5843C8.55708 18.0467 7.80461 17.2596 7.25951 16.3556C6.34131 14.8165 6.02909 12.9067 6.48819 11.1669C6.85814 9.79351 7.68012 8.55131 8.78525 7.65864C9.67282 6.92739 10.7516 6.42155 11.8913 6.24797C12.0238 6.21895 12.1587 6.20926 12.2937 6.19956Z" fill="#046838"/>
<path fill-rule="evenodd" clip-rule="evenodd" d="M13.4336 6.18512C13.1555 6.15292 12.8739 6.14389 12.5951 6.16981C12.4953 6.18508 12.3945 6.19232 12.2937 6.19955C12.1587 6.20925 12.0238 6.21894 11.8913 6.24796C10.7516 6.42154 9.67282 6.92738 8.78525 7.65863C7.68012 8.5513 6.85814 9.7935 6.48819 11.1669C6.02909 12.9066 6.34131 14.8165 7.25951 16.3556C7.80461 17.2596 8.55708 18.0467 9.46938 18.5843C10.287 19.0788 11.21 19.3984 12.1576 19.5217C13.3747 19.6816 14.6377 19.5029 15.7554 18.9912C16.9143 18.4508 17.9232 17.5852 18.6101 16.5044C19.3131 15.4315 19.6803 14.152 19.7031 12.8729C19.6803 11.7858 19.4207 10.6968 18.9082 9.73459C18.3639 8.67541 17.5219 7.7686 16.5008 7.15437C15.5708 6.60338 14.5148 6.25267 13.4336 6.18512ZM9.02992 10.3457C8.9392 10.3001 9.02914 10.2412 9.08255 10.2224C9.33773 10.1133 9.61773 10.0935 9.89197 10.0741H9.89197L9.91631 10.0723C10.1335 10.0574 10.353 10.0731 10.5655 10.1214C10.7736 10.1862 10.9405 10.3378 11.0949 10.4859C11.7028 11.1229 11.9742 11.9916 12.1521 12.8344C12.2872 13.5605 12.3677 14.2997 12.3453 15.0392C12.3383 15.1319 12.2452 15.154 12.1611 15.174C12.133 15.1807 12.1059 15.1871 12.0834 15.1959C11.7319 15.2563 11.3721 15.2768 11.0179 15.2277C10.9933 15.2245 10.9676 15.2218 10.9414 15.219C10.7912 15.2033 10.6225 15.1856 10.5333 15.0572C10.529 14.6998 10.5109 14.3432 10.4893 13.987C10.2287 13.9799 9.96789 13.981 9.70705 13.9822C9.56618 13.9828 9.4253 13.9834 9.28441 13.9827C9.20274 13.9936 9.14767 13.9309 9.09901 13.8756L9.08647 13.8614C9.06599 13.8372 9.04458 13.8134 9.02311 13.7896C8.94125 13.6986 8.85832 13.6064 8.82099 13.4879C9.35353 13.4946 9.88567 13.4926 10.4182 13.4895C10.4113 13.2951 10.3742 13.1048 10.337 12.9145L10.337 12.9144L10.337 12.9144C10.3152 12.8024 10.2933 12.6904 10.2776 12.5775C10.0886 12.5658 9.89865 12.5691 9.70881 12.5724H9.70881H9.7088C9.43362 12.5772 9.15864 12.5819 8.88697 12.541C8.85737 12.5055 8.82689 12.4706 8.7964 12.4356C8.69906 12.3241 8.60153 12.2123 8.53155 12.0807C8.79505 12.078 9.05874 12.0786 9.32248 12.0792H9.3225H9.32253H9.32261C9.58636 12.0798 9.85015 12.0804 10.1138 12.0776C10.108 11.975 10.0704 11.8809 10.0327 11.7865L10.0327 11.7865L10.0327 11.7865C10.0099 11.7295 9.98712 11.6724 9.97129 11.6134C9.75804 11.1296 9.47292 10.652 9.02992 10.3457ZM11.4648 10.2373C11.4657 10.2479 11.4647 10.2597 11.4637 10.2718C11.461 10.3052 11.4581 10.3405 11.4927 10.3578C11.8988 10.6528 12.1729 11.0891 12.3779 11.5392C12.8468 12.6486 12.9489 13.8677 12.9721 15.0584C13.0729 15.1881 13.2537 15.2068 13.4104 15.223L13.4509 15.2273C13.8047 15.2724 14.1644 15.2591 14.5155 15.199C14.5304 15.1948 14.5461 15.1908 14.562 15.1867C14.6562 15.1626 14.7624 15.1354 14.8054 15.0431C14.8183 14.9172 14.8047 14.7921 14.7911 14.6669C14.7803 14.5676 14.7696 14.4683 14.772 14.3684C14.7744 14.1729 14.7526 13.9794 14.7307 13.7859C14.7245 13.731 14.7183 13.676 14.7127 13.621C14.6008 12.702 14.4024 11.7662 13.9135 10.9674C13.7489 10.7302 13.5781 10.4898 13.3452 10.3143C13.3301 10.3035 13.3149 10.2926 13.2997 10.2815C13.1918 10.2034 13.0806 10.1229 12.9446 10.1085C12.4518 10.0315 11.9353 10.0672 11.4648 10.2373ZM15.03 12.4075C14.8344 11.604 14.4708 10.7828 13.7741 10.293C13.9357 10.1755 14.1377 10.1411 14.3307 10.1082C14.3402 10.1066 14.3498 10.105 14.3592 10.1034C14.3923 10.1006 14.4258 10.0976 14.4594 10.0945C14.8489 10.0596 15.2701 10.0218 15.612 10.2408C16.1041 10.5982 16.4183 11.1429 16.6351 11.7006C16.695 11.8523 16.7411 12.0086 16.7871 12.1649C16.8148 12.2586 16.8424 12.3524 16.8731 12.4452C17.0659 13.2821 17.1621 14.1406 17.1594 14.9995C17.174 15.1166 17.0512 15.151 16.9531 15.1786C16.9351 15.1836 16.9179 15.1884 16.9025 15.1935C16.3936 15.2775 15.8536 15.2944 15.3607 15.1236C15.3346 14.9912 15.3319 14.8565 15.3293 14.7223C15.329 14.7092 15.3288 14.6961 15.3285 14.683C15.2947 13.9179 15.2291 13.1497 15.03 12.4075Z" fill="#2BB673"/>
</svg>
