<svg width="26" height="26" viewBox="0 0 26 26" fill="none" xmlns="http://www.w3.org/2000/svg">
<path opacity="0.2" d="M13 26C20.1797 26 26 20.1797 26 13C26 5.8203 20.1797 0 13 0C5.8203 0 0 5.8203 0 13C0 20.1797 5.8203 26 13 26Z" fill="#00AAA6"/>
<path fill-rule="evenodd" clip-rule="evenodd" d="M20.9978 12.8242C20.9994 12.8784 21 12.9317 21 12.9855C21.002 14.2638 20.695 15.5237 20.105 16.6583L15.743 18.4151L15.7519 18.3953L20.9978 12.8242Z" fill="#0F6089"/>
<path fill-rule="evenodd" clip-rule="evenodd" d="M20.9978 12.8224L15.7528 18.3953L20.6251 10.5635C20.858 11.2945 20.9835 12.0554 20.9978 12.8224Z" fill="#078FA4"/>
<path fill-rule="evenodd" clip-rule="evenodd" d="M20.6251 10.5635L15.7528 18.3953L15.7396 18.4164L15.1554 8.28127L20.0539 10.1106L20.6251 10.5635Z" fill="#00AAA6"/>
<path fill-rule="evenodd" clip-rule="evenodd" d="M20.6251 10.5635L20.0539 10.1105L20.5317 10.2885C20.5651 10.3795 20.5967 10.4715 20.6251 10.5635Z" fill="#00AAA6"/>
<path fill-rule="evenodd" clip-rule="evenodd" d="M15.8106 5.5074H15.8099L15.5638 6.55087L20.0539 10.1105L20.5317 10.2885C19.7367 8.08089 18.0107 6.33293 15.8106 5.5074Z" fill="#1EAAE2"/>
<path fill-rule="evenodd" clip-rule="evenodd" d="M15.743 18.4151L20.1044 16.657C19 18.7832 16.9983 20.3029 14.6505 20.7978L15.6973 18.5162L15.743 18.4151Z" fill="#0C7392"/>
<path fill-rule="evenodd" clip-rule="evenodd" d="M20.0539 10.1106L15.1554 8.28127L15.5638 6.55087L20.0539 10.1106Z" fill="#1EAAE2"/>
<path fill-rule="evenodd" clip-rule="evenodd" d="M15.8099 5.5074L15.5635 6.55087L13.6384 5.02551C14.3814 5.08302 15.1125 5.24526 15.8099 5.5074Z" fill="#ABCF3A"/>
<path fill-rule="evenodd" clip-rule="evenodd" d="M15.7594 18.4736L15.8014 18.4066L15.7734 18.4696L15.7594 18.4736Z" fill="#CD1685"/>
<path fill-rule="evenodd" clip-rule="evenodd" d="M15.744 18.4151L15.6973 18.5162L10.0411 14.3981L10.1143 14.3332L15.1554 8.28127L15.7396 18.4164L15.744 18.4151Z" fill="#8F9990"/>
<path fill-rule="evenodd" clip-rule="evenodd" d="M15.6973 18.5162L14.6505 20.7978C14.1081 20.9119 13.5553 20.9691 13.0009 20.9685C12.78 20.9685 12.5639 20.9597 12.3493 20.9424L7.37286 16.6243L7.51771 16.6557L15.6973 18.5162Z" fill="#CD1685"/>
<path fill-rule="evenodd" clip-rule="evenodd" d="M15.6973 18.5162L7.51771 16.657L10.0411 14.3981L15.6973 18.5162Z" fill="#EC1076"/>
<path fill-rule="evenodd" clip-rule="evenodd" d="M15.5638 6.55087L15.1554 8.28126L13.6384 5.02551L15.5638 6.55087Z" fill="#ABCF3A"/>
<path fill-rule="evenodd" clip-rule="evenodd" d="M13.6384 5.02551L15.1551 8.28126L9.58446 5.76157C10.6523 5.25816 11.819 4.99802 13 5C13.2149 5 13.4273 5.00881 13.6384 5.02551Z" fill="#E0E224"/>
<path fill-rule="evenodd" clip-rule="evenodd" d="M15.1554 8.28127L10.1143 14.3332L7.92229 11.6353L15.1554 8.28127V8.28127Z" fill="#F9A516"/>
<path fill-rule="evenodd" clip-rule="evenodd" d="M15.1554 8.28126L7.92229 11.6353L9.58446 5.76283L15.1554 8.28126Z" fill="#FDCD11"/>
<path fill-rule="evenodd" clip-rule="evenodd" d="M12.425 21.0336L12.325 20.9436L12.3682 20.9506L12.425 21.0336Z" fill="#CD1685"/>
<path fill-rule="evenodd" clip-rule="evenodd" d="M12.3483 20.9424L7.37286 16.6242L7.33783 16.5934L6.78998 18.0176C8.15911 19.7036 10.1581 20.7591 12.325 20.9402L12.3483 20.9424Z" fill="#B9204A"/>
<path fill-rule="evenodd" clip-rule="evenodd" d="M7.92229 11.6353L10.1143 14.3332L10.0411 14.3981L6.16229 14.3165L7.92229 11.6353V11.6353Z" fill="#F05B28"/>
<path fill-rule="evenodd" clip-rule="evenodd" d="M10.0411 14.3981L7.51771 16.657L6.16229 14.3165L10.0411 14.3981Z" fill="#F05B28"/>
<path fill-rule="evenodd" clip-rule="evenodd" d="M9.58446 5.76251L7.92229 11.6353L6.16229 14.3165L6.16891 14.2601L5.01325 12.5474C5.17389 9.5433 6.9989 6.98172 9.58446 5.76251Z" fill="#FDCD11"/>
<path fill-rule="evenodd" clip-rule="evenodd" d="M7.51771 16.657L6.16229 14.3165L7.37286 16.6242L6.16229 14.3172L5.89499 16.657C6.14605 17.1398 6.44594 17.5957 6.78998 18.0176L7.33783 16.5927L7.37286 16.6242L7.51771 16.657Z" fill="#AB1F25"/>
<path fill-rule="evenodd" clip-rule="evenodd" d="M5.01168 12.5474L6.16892 14.2601L6.16229 14.3165L5.89499 16.6564L5.01168 12.5474Z" fill="#CB0010"/>
<path fill-rule="evenodd" clip-rule="evenodd" d="M5.01325 12.5474L5.89688 16.6564C5.30627 15.5222 4.9986 14.2625 5 12.9842C5 12.8378 5.00347 12.6926 5.01325 12.5474V12.5474Z" fill="#CB0010"/>
<path fill-rule="evenodd" clip-rule="evenodd" d="M17.4933 14.3332L17.8574 12.8019C18.0077 12.3872 18.0825 11.949 18.0783 11.508C18.0783 11.2154 17.9674 10.9335 17.7678 10.7191L17.7135 10.6608C17.3405 10.2595 16.6721 10.0309 16.1224 10.0309H15.9302C15.4322 10.0306 14.9526 10.2184 14.5877 10.5565L14.1336 10.9789L14.0559 10.8013C14.0155 10.7077 13.9583 10.6223 13.8871 10.5493C13.5131 10.1707 13.0025 9.95772 12.4698 9.95812C12.0767 9.95805 11.6924 10.0741 11.3653 10.2917L10.9178 10.6145V10.583C10.9176 10.2777 10.6696 10.0302 10.3636 10.0302H5.51124L5.0729 11.6353L9.0912 11.7084L8.50075 14.8756C8.40039 15.3068 8.674 15.7317 9.11582 15.7849C9.46908 15.8288 9.80249 15.6118 9.90477 15.2715L11.0039 11.8825C11.1226 11.4872 11.6572 11.2359 12.0675 11.2895C12.3107 11.3211 12.528 11.4568 12.6629 11.6612C12.7978 11.8656 12.8369 12.1185 12.7699 12.354L12.1912 14.8715C12.1144 15.1415 12.1689 15.4318 12.3385 15.6557C12.5081 15.8796 12.7731 16.0111 13.0543 16.011C13.4371 16.011 13.6318 15.7688 13.7564 15.4076L14.8594 12.1354C14.9875 11.7647 15.442 11.5439 15.8282 11.6173C16.0482 11.6593 16.2399 11.7922 16.3561 11.9833C16.4722 12.1743 16.5017 12.4055 16.4373 12.6195L15.8522 14.7679C15.763 15.0593 15.8175 15.3757 15.9991 15.6207C16.1808 15.8656 16.4681 16.0101 16.7734 16.0101L20.5516 15.9373L20.9899 14.3332H17.4933Z" fill="white"/>
</svg>
