<svg width="26" height="26" viewBox="0 0 26 26" fill="none" xmlns="http://www.w3.org/2000/svg">
<path opacity="0.2" d="M13 26C20.1797 26 26 20.1797 26 13C26 5.8203 20.1797 0 13 0C5.8203 0 0 5.8203 0 13C0 20.1797 5.8203 26 13 26Z" fill="#4A90E2"/>
<path fill-rule="evenodd" clip-rule="evenodd" d="M6.15145 16.9981C6.78737 16.9981 7.30289 16.4723 7.30289 15.8236C7.30289 15.1749 6.78737 14.649 6.15145 14.649C5.51552 14.649 5 15.1749 5 15.8236C5 16.4723 5.51552 16.9981 6.15145 16.9981Z" fill="#4A90E2"/>
<path fill-rule="evenodd" clip-rule="evenodd" d="M13.012 12.3491H13.1082C13.6835 12.3981 14.1394 12.8877 14.1635 13.4745C14.1635 14.1349 13.6594 14.6491 13.012 14.6491C12.3646 14.6491 11.8606 14.1104 11.8606 13.4745C11.8606 12.6425 11.597 12.3245 10.7091 12.3245C9.82127 12.3245 9.55768 12.6425 9.55768 13.4991V13.5726C9.53364 14.1594 9.02959 14.6491 8.43028 14.6491C7.78289 14.6491 7.27884 14.1104 7.27884 13.4745C7.27884 12.8632 7.73479 12.3736 8.31005 12.3245H8.40624C9.41341 12.3245 9.55768 12.1047 9.55768 11.1745C9.55768 10.5142 10.0858 10 10.7091 10C11.3565 10 11.8606 10.5387 11.8606 11.1745C11.8606 12.1047 12.0049 12.3491 13.012 12.3491ZM18.7212 11.1745C18.7212 10.5142 19.2492 10 19.8726 10C20.4959 10 21 10.5142 21 11.1255C21 11.7858 20.4719 12.3 19.8486 12.3C18.9607 12.3 18.6971 12.6179 18.6971 13.4745V13.5481C18.6731 14.1594 18.169 14.6491 17.5697 14.6491H17.5457C16.6818 14.6736 16.4183 14.9915 16.4183 15.8236V15.9217C16.3942 16.5085 15.8902 16.9981 15.2909 16.9981C14.6435 16.9981 14.1394 16.4594 14.1394 15.8236C14.1394 15.2368 14.5954 14.7472 15.1706 14.6736C15.1947 14.6491 15.2428 14.6491 15.2909 14.6491C16.274 14.6491 16.4423 14.4292 16.4423 13.5236V13.4991C16.4423 12.8877 16.8983 12.3981 17.4735 12.3491H17.5697C18.5769 12.3491 18.7212 12.1047 18.7212 11.1745Z" fill="#4A90E2"/>
</svg>
