<svg width="26" height="26" viewBox="0 0 26 26" fill="none" xmlns="http://www.w3.org/2000/svg">
<path opacity="0.2" d="M13 26C20.1797 26 26 20.1797 26 13C26 5.8203 20.1797 0 13 0C5.8203 0 0 5.8203 0 13C0 20.1797 5.8203 26 13 26Z" fill="#415CA8"/>
<path fill-rule="evenodd" clip-rule="evenodd" d="M8.7251 10.8637V10.5286L5.34073 8.65237C5.11869 9.01858 5.0007 9.44093 5 9.87201V12.9194L5.00829 12.924L8.7251 10.8637Z" fill="#3377B5"/>
<path fill-rule="evenodd" clip-rule="evenodd" d="M5.00838 12.9241L8.7251 14.9844V10.8638L5.00838 12.9241Z" fill="#4F6CB0"/>
<path fill-rule="evenodd" clip-rule="evenodd" d="M20.6812 8.69178L17.3678 10.5286V10.8637L21 12.8772V9.87202C21 9.45177 20.8863 9.04732 20.6812 8.6917" fill="#504CA1"/>
<path fill-rule="evenodd" clip-rule="evenodd" d="M8.7251 15.1481V14.9845L5.00829 12.9242L5 12.9289V15.9279C5 16.3779 5.13016 16.8102 5.36369 17.183L8.73165 15.316L8.7251 15.1481Z" fill="#3B9CC7"/>
<path fill-rule="evenodd" clip-rule="evenodd" d="M17.0259 10.3082V6.2621L13.3766 8.28512L17.0259 10.3082Z" fill="#5465AD"/>
<path fill-rule="evenodd" clip-rule="evenodd" d="M17.3678 10.4977V10.5285L20.6812 8.69169C20.4616 8.31102 20.1371 7.9869 19.731 7.76153L17.026 6.2621V10.3082" fill="#513D9A"/>
<path fill-rule="evenodd" clip-rule="evenodd" d="M13.0444 16.9851L16.6712 14.9746V14.9347L13.0444 12.9241V16.9851" fill="#214688"/>
<path fill-rule="evenodd" clip-rule="evenodd" d="M9.0204 15.4885V19.5635L9.06409 19.5877L12.7396 17.5502L9.0204 15.4885" fill="#4395C4"/>
<path fill-rule="evenodd" clip-rule="evenodd" d="M8.73214 15.3286L8.73173 15.316L5.36377 17.183C5.5818 17.5311 5.88978 17.8283 6.26889 18.0382L9.02072 19.5635V15.4885L8.73214 15.3286Z" fill="#54A4CB"/>
<path fill-rule="evenodd" clip-rule="evenodd" d="M13.0697 8.11512L13.3765 8.28495L17.0257 6.26185L14.2686 4.73338C13.8926 4.5263 13.4734 4.41488 13.0465 4.40849V8.12777L13.0697 8.11512Z" fill="#7F6FB3"/>
<path fill-rule="evenodd" clip-rule="evenodd" d="M12.7396 8.29803L13.0463 8.1282V4.40849C12.649 4.40096 12.2551 4.48403 11.893 4.65169L9.02744 6.24028L12.7396 8.29803Z" fill="#5054A4"/>
<path fill-rule="evenodd" clip-rule="evenodd" d="M9.02744 6.24028L9.02031 6.2441V10.3598L12.7395 8.29803L9.02744 6.24028Z" fill="#50479E"/>
<path fill-rule="evenodd" clip-rule="evenodd" d="M8.7251 10.5246L8.88261 10.4359L9.0199 10.3595V6.24419L6.11379 7.85554C5.80055 8.05784 5.53623 8.33033 5.34073 8.65246L8.7251 10.5286V10.5246Z" fill="#5057A6"/>
<path fill-rule="evenodd" clip-rule="evenodd" d="M13.0697 17.7332L13.0465 17.7204V21.3915C13.4735 21.385 13.8928 21.2735 14.2689 21.0664L16.9824 19.5622L13.3766 17.5634L13.0697 17.7332Z" fill="#2C7AB6"/>
<path fill-rule="evenodd" clip-rule="evenodd" d="M12.7396 17.5501L9.06409 19.5881L11.7309 21.0665C12.1349 21.2888 12.5879 21.4007 13.0464 21.3915V17.7203" fill="#4FA2CA"/>
<path fill-rule="evenodd" clip-rule="evenodd" d="M13.3766 17.563L16.9824 19.5618L17.0259 19.5376V15.5401L13.3766 17.563" fill="#4D8DC0"/>
<path fill-rule="evenodd" clip-rule="evenodd" d="M17.3678 15.3505L17.026 15.54V19.5376L19.7309 18.0381C20.1241 17.8202 20.4414 17.5098 20.6607 17.145L17.3678 15.3193" fill="#4488BE"/>
<path fill-rule="evenodd" clip-rule="evenodd" d="M17.3678 15.3196L20.6607 17.1452C20.8818 16.7795 20.9993 16.358 21 15.9278V12.971L17.3678 14.9845" fill="#6687BE"/>
<path fill-rule="evenodd" clip-rule="evenodd" d="M17.3678 14.9845L21 12.971V12.8772L17.3678 10.8636V14.9845Z" fill="#415CA8"/>
<path fill-rule="evenodd" clip-rule="evenodd" d="M16.6711 14.9346V10.9137L13.0444 12.9241L16.6711 14.9346Z" fill="#5D62AC"/>
</svg>
