<svg width="26" height="26" viewBox="0 0 26 26" fill="none" xmlns="http://www.w3.org/2000/svg">
<path opacity="0.2" d="M13 26C20.1797 26 26 20.1797 26 13C26 5.8203 20.1797 0 13 0C5.8203 0 0 5.8203 0 13C0 20.1797 5.8203 26 13 26Z" fill="#0E2140"/>
<path fill-rule="evenodd" clip-rule="evenodd" d="M10.9798 9.18538C11.6576 9.18458 12.3353 9.18525 13.0131 9.18512C13.4863 10.2013 13.9537 11.2202 14.4263 12.2366C14.4322 12.2558 14.4537 12.2764 14.4409 12.297C14.2462 12.637 14.0454 12.974 13.8543 13.316C13.7728 13.183 13.7071 13.0405 13.6314 12.9038C13.2129 12.1143 12.7936 11.325 12.3739 10.5359C12.1621 10.5371 11.9504 10.5364 11.7385 10.5362C10.9311 11.9059 10.129 13.2787 9.32188 14.6486C9.16898 14.9064 9.02104 15.1671 8.86546 15.4231C9.38137 15.4251 9.89715 15.4228 10.4131 15.4242C10.4318 15.421 10.461 15.4321 10.4712 15.4099C10.7328 14.99 10.9965 14.5716 11.2585 14.1519C11.6727 15.0255 12.0823 15.9012 12.4957 16.7751C10.5816 16.7751 8.66754 16.776 6.75343 16.7746C7.25461 15.8809 7.74894 14.9834 8.24958 14.0893C8.7738 13.1509 9.294 12.2103 9.81836 11.2718C10.2068 10.577 10.5924 9.88068 10.9798 9.18538Z" fill="#01EBFE"/>
<path fill-rule="evenodd" clip-rule="evenodd" d="M13.5308 9.18524C15.445 9.18524 17.3594 9.18431 19.2736 9.18578C18.9808 9.70424 18.6942 10.2263 18.4042 10.7462C17.7769 11.8711 17.1503 12.996 16.5247 14.1216C16.031 15.0053 15.5392 15.8903 15.047 16.7748C14.3691 16.7758 13.6913 16.775 13.0135 16.7752C12.5333 15.7438 12.0597 14.7093 11.5788 13.6782C11.7209 13.4262 11.8686 13.1771 12.0125 12.9259C12.0692 12.8328 12.1172 12.7338 12.1798 12.6445C12.643 13.5328 13.119 14.4145 13.5863 15.3008C13.6082 15.3422 13.6299 15.3836 13.6529 15.4244C13.8646 15.4232 14.0764 15.4238 14.2883 15.4242C15.058 14.1188 15.8221 12.8101 16.5917 11.5046C16.7826 11.1828 16.9674 10.8572 17.1619 10.5376C16.6283 10.5364 16.0945 10.5343 15.5611 10.5387C15.3006 10.9642 15.0315 11.3846 14.7683 11.8086C14.3541 10.935 13.9449 10.059 13.5308 9.18524Z" fill="white"/>
</svg>
