<svg width="26" height="26" viewBox="0 0 26 26" fill="none" xmlns="http://www.w3.org/2000/svg">
<path opacity="0.2" d="M13 26C20.1797 26 26 20.1797 26 13C26 5.8203 20.1797 0 13 0C5.8203 0 0 5.8203 0 13C0 20.1797 5.8203 26 13 26Z" fill="#093475"/>
<path fill-rule="evenodd" clip-rule="evenodd" d="M12.583 4.30653C12.8503 4.30297 13.1176 4.30297 13.3849 4.31099C13.3823 4.51416 13.3796 4.71733 13.3769 4.92139C13.1141 4.92228 12.8521 4.92406 12.5901 4.92673C12.5856 4.72 12.5839 4.51327 12.583 4.30653Z" fill="#F8B017"/>
<path fill-rule="evenodd" clip-rule="evenodd" d="M10.7295 4.57208L10.8391 4.53376C10.8587 4.55337 10.8997 4.59079 10.9193 4.6104C10.9808 4.78861 11.0298 4.97129 11.0815 5.15307C10.8231 5.22346 10.5664 5.29743 10.3098 5.37317C10.2581 5.17535 10.2064 4.97752 10.1556 4.7797C10.349 4.71822 10.5406 4.6496 10.7295 4.57208Z" fill="#F8B017"/>
<path fill-rule="evenodd" clip-rule="evenodd" d="M15.029 4.5498C15.2946 4.59792 15.5539 4.67277 15.8087 4.7601C15.7535 4.95079 15.7018 5.14238 15.6474 5.33307C15.3944 5.28228 15.1448 5.21366 14.8927 5.15574C14.9319 4.95257 14.9809 4.75119 15.029 4.5498Z" fill="#F8B017"/>
<path fill-rule="evenodd" clip-rule="evenodd" d="M17.0161 5.97109C17.1275 5.79911 17.2398 5.62802 17.3539 5.45782C17.5695 5.59327 17.7851 5.7296 17.9999 5.86683C17.909 6.0397 17.8359 6.23129 17.6871 6.36495C17.4367 6.3097 17.238 6.09762 17.0161 5.97109Z" fill="#F8B017"/>
<path fill-rule="evenodd" clip-rule="evenodd" d="M7.93683 5.93455C8.15247 5.76436 8.38594 5.61911 8.63188 5.49703C8.73257 5.67168 8.83237 5.84723 8.92594 6.02723C8.71297 6.15465 8.51069 6.30436 8.28079 6.40059C8.14534 6.26158 8.04643 6.09317 7.93683 5.93455Z" fill="#F8B017"/>
<path fill-rule="evenodd" clip-rule="evenodd" d="M18.8313 7.38436C18.9854 7.25782 19.1396 7.13129 19.2946 7.00475C19.431 7.13663 19.5709 7.26406 19.717 7.38525C19.7277 7.39594 19.75 7.41554 19.7616 7.42624C19.7901 7.70871 19.521 7.83792 19.3428 7.99742C19.1752 7.7898 19.0042 7.58663 18.8313 7.38436Z" fill="#F8B017"/>
<path fill-rule="evenodd" clip-rule="evenodd" d="M6.27227 7.41109C6.41663 7.29525 6.5494 7.16515 6.68306 7.03683C6.82653 7.16158 6.97801 7.2801 7.09831 7.42891C7.02167 7.5902 6.90583 7.7301 6.78197 7.85752C6.55029 8.17208 6.23217 7.73099 6.16177 7.49663C6.1894 7.47525 6.24464 7.43247 6.27227 7.41109Z" fill="#F8B017"/>
<path fill-rule="evenodd" clip-rule="evenodd" d="M5.23682 9.06317C5.40435 9.15941 5.66544 9.16386 5.75722 9.3501C5.72158 9.59871 5.57009 9.81168 5.46316 10.0336C5.28227 9.94891 5.0996 9.86604 4.91603 9.78673C5.01049 9.5399 5.12009 9.29931 5.23682 9.06317Z" fill="#F8B017"/>
<path fill-rule="evenodd" clip-rule="evenodd" d="M20.1982 9.2503C20.3836 9.1701 20.568 9.08812 20.7543 9.00792C20.8532 9.23426 20.9761 9.45525 21.0216 9.7003C20.8915 9.84376 20.6758 9.9596 20.4798 9.92752C20.3666 9.7101 20.2829 9.47931 20.1982 9.2503Z" fill="#F8B017"/>
<path fill-rule="evenodd" clip-rule="evenodd" d="M15.2429 10.439C15.9192 10.2341 16.6 10.0416 17.2719 9.82059C15.0183 11.3354 12.722 12.787 10.4524 14.2787C9.47039 14.8945 8.52851 15.5761 7.52158 16.15C7.40306 14.1468 7.28276 12.1446 7.16603 10.1414C7.78801 10.848 8.39752 11.5653 9.00435 12.2845C11.0931 11.7026 13.1613 11.0467 15.2429 10.439Z" fill="#F8B017"/>
<path fill-rule="evenodd" clip-rule="evenodd" d="M16.6437 11.0236C17.2576 10.6359 17.852 10.2171 18.4784 9.85C18.604 11.8327 18.727 13.8153 18.8277 15.7989C18.514 15.5503 18.2841 15.2188 18.0204 14.9212C17.6809 14.5229 17.3325 14.1326 17.0045 13.7245C14.2386 14.5157 11.4887 15.3632 8.72989 16.1821C11.3595 14.4498 14.0087 12.7469 16.6437 11.0236Z" fill="#F8B017"/>
<path fill-rule="evenodd" clip-rule="evenodd" d="M4.41702 11.4254C4.62465 11.437 4.83227 11.4504 5.04079 11.4638C5.02475 11.732 4.98999 11.9993 4.93742 12.2631C4.74851 12.2461 4.55871 12.2292 4.3698 12.2141C4.37603 11.9503 4.39564 11.6874 4.41702 11.4254Z" fill="#F8B017"/>
<path fill-rule="evenodd" clip-rule="evenodd" d="M20.9494 11.4433C21.157 11.4103 21.3638 11.3747 21.5723 11.3452C21.5981 11.6117 21.6222 11.8781 21.6373 12.1454C21.4448 12.1633 21.2524 12.1802 21.0599 12.198C21.0153 11.9476 20.9779 11.6963 20.9494 11.4433Z" fill="#F8B017"/>
<path fill-rule="evenodd" clip-rule="evenodd" d="M4.37247 13.8786C4.56049 13.8376 4.75297 13.826 4.94455 13.8064C4.99089 14.0586 5.02742 14.3126 5.05683 14.5683C4.8492 14.6057 4.64158 14.6387 4.43217 14.6619C4.40633 14.4017 4.37069 14.1415 4.37247 13.8786Z" fill="#F8B017"/>
<path fill-rule="evenodd" clip-rule="evenodd" d="M21.0715 13.736C21.2764 13.7646 21.4814 13.7984 21.6845 13.8394C21.6391 14.0862 21.6026 14.334 21.5758 14.5835C21.37 14.5701 21.1641 14.5532 20.9592 14.5362C20.9859 14.268 21.026 14.0016 21.0715 13.736Z" fill="#F8B017"/>
<path fill-rule="evenodd" clip-rule="evenodd" d="M20.5386 15.9789C20.7195 16.0627 20.9022 16.1429 21.0875 16.2186C20.9975 16.4726 20.8888 16.7194 20.7641 16.9582C20.5832 16.8736 20.4023 16.7898 20.2223 16.7043C20.3078 16.4548 20.4183 16.2142 20.5386 15.9789Z" fill="#F8B017"/>
<path fill-rule="evenodd" clip-rule="evenodd" d="M4.97931 16.2988C5.12188 16.1509 5.33396 16.1108 5.51931 16.0431C5.61198 16.2837 5.71624 16.5189 5.82763 16.7524C5.63515 16.8388 5.44178 16.9235 5.24485 16.9983C5.14772 16.7693 5.02208 16.5474 4.97931 16.2988Z" fill="#F8B017"/>
<path fill-rule="evenodd" clip-rule="evenodd" d="M18.883 18.6103C19.0246 18.3786 19.2082 18.1754 19.4025 17.9865C19.5504 18.1166 19.701 18.2441 19.8525 18.3706C19.6965 18.5827 19.5237 18.7823 19.3392 18.9703C19.1877 18.8491 19.0362 18.7288 18.883 18.6103Z" fill="#F8B017"/>
<path fill-rule="evenodd" clip-rule="evenodd" d="M6.20544 18.392C6.35782 18.2708 6.50931 18.1469 6.6599 18.024C6.82832 18.2253 7.00297 18.4214 7.1794 18.6165C7.02614 18.7457 6.87465 18.8758 6.72584 19.0104C6.51822 18.8357 6.33376 18.6326 6.20544 18.392Z" fill="#F8B017"/>
<path fill-rule="evenodd" clip-rule="evenodd" d="M17.0839 19.9879C17.2995 19.8471 17.5187 19.7108 17.7486 19.5941C17.852 19.7536 17.9553 19.914 18.0596 20.0735C17.8538 20.2526 17.6221 20.3978 17.3752 20.5119C17.2737 20.339 17.173 20.167 17.0839 19.9879Z" fill="#F8B017"/>
<path fill-rule="evenodd" clip-rule="evenodd" d="M7.99564 20.1367C8.099 19.9532 8.21128 19.775 8.33781 19.6074C8.55168 19.7527 8.76821 19.8944 8.98653 20.0325C8.8796 20.208 8.76821 20.3818 8.65415 20.5529C8.43405 20.4156 8.21395 20.2775 7.99564 20.1367Z" fill="#F8B017"/>
<path fill-rule="evenodd" clip-rule="evenodd" d="M14.9738 20.8362C15.2161 20.7792 15.4558 20.7142 15.6982 20.6589C15.749 20.8496 15.8007 21.0403 15.8497 21.2328C15.6029 21.3183 15.3525 21.395 15.1003 21.4609C15.0299 21.2586 14.988 21.0492 14.9738 20.8362Z" fill="#F8B017"/>
<path fill-rule="evenodd" clip-rule="evenodd" d="M10.1904 21.2363C10.2545 21.0448 10.316 20.8541 10.3811 20.6634C10.6288 20.7338 10.8765 20.8059 11.1234 20.8799C11.0743 21.0742 11.02 21.2684 10.9674 21.4627C10.701 21.4137 10.4417 21.3361 10.1904 21.2363Z" fill="#F8B017"/>
<path fill-rule="evenodd" clip-rule="evenodd" d="M12.6578 21.1134C12.9064 21.0635 13.1613 21.0848 13.4135 21.0795C13.417 21.2862 13.4197 21.4921 13.4224 21.6988C13.1524 21.7015 12.8824 21.7006 12.6124 21.6926C12.6204 21.4983 12.615 21.3032 12.6578 21.1134Z" fill="#F8B017"/>
</svg>
