<svg width="26" height="26" viewBox="0 0 26 26" fill="none" xmlns="http://www.w3.org/2000/svg">
<path fill-rule="evenodd" clip-rule="evenodd" d="M13 21C17.4183 21 21 17.4183 21 13C21 8.58172 17.4183 5 13 5C8.58172 5 5 8.58172 5 13C5 17.4183 8.58172 21 13 21Z" fill="#213648"/>
<path fill-rule="evenodd" clip-rule="evenodd" d="M12.6829 5H13.4447C13.636 5.03234 13.8274 5.06719 14.0218 5.08247C14.6755 5.1203 15.3093 5.31394 15.9226 5.53522C16.9301 5.92847 17.8603 6.5312 18.619 7.31042C19.1653 7.85267 19.6379 8.48855 19.9578 9.1942C19.4913 9.05862 19.0388 8.85633 18.555 8.78858C17.9121 8.68663 17.2554 8.74233 16.6192 8.86571C14.1508 9.35121 11.8614 10.5579 9.91892 12.1551C9.63121 12.3725 9.38409 12.6418 9.08407 12.8409C8.96092 12.9325 8.8185 12.8134 8.68991 12.7914C8.28967 12.6388 7.83276 12.9612 7.76283 13.3716C7.70729 13.6024 7.86185 13.8131 7.86305 14.0403C7.82309 14.1716 7.7327 14.2766 7.64999 14.3816C7.10917 15.0365 6.58945 15.73 6.2804 16.5312C6.22006 16.6899 6.13854 16.8389 6.05103 16.9839C5.55424 16.0299 5.20715 14.9894 5.06801 13.9189C4.88651 12.5181 5.11988 11.0709 5.71648 9.79434C6.1976 8.75947 6.85134 7.79123 7.68251 7.01201C8.89154 5.86597 10.5074 5.18078 12.159 5.07576C12.3346 5.05983 12.5085 5.02749 12.6829 5Z" fill="#6CB2F7"/>
<path fill-rule="evenodd" clip-rule="evenodd" d="M13.1489 10.8473C14.0187 10.6019 14.9568 10.4144 15.8459 10.6757C16.269 10.8016 16.6493 11.1154 16.7863 11.5496C16.9662 12.1075 16.8092 12.7068 16.5992 13.2327C16.3384 13.8605 15.9274 14.4082 15.4891 14.9193C14.2264 16.4078 12.5664 17.5397 10.7375 18.1876C10.1966 18.3735 9.64975 18.5563 9.07872 18.6161C8.7612 18.6534 8.43936 18.715 8.1208 18.6521C7.61314 18.5856 7.07288 18.4068 6.76743 17.9649C6.43976 17.5051 6.47348 16.8858 6.64068 16.3704C6.86701 15.648 7.3566 15.0599 7.76587 14.4395C7.84252 14.3333 7.91676 14.2038 8.05143 14.1678C8.23069 14.1873 8.40307 14.2795 8.58625 14.2532C8.93215 14.2221 9.22186 13.9088 9.23936 13.5601C9.25446 13.3915 9.18621 13.2341 9.1337 13.0783C10.3179 12.0943 11.6706 11.2852 13.1489 10.8473Z" fill="#6CB2F7"/>
<path fill-rule="evenodd" clip-rule="evenodd" d="M20.6478 12.0284C20.6987 11.9271 20.7578 11.8302 20.8247 11.7389C21.0413 12.382 21.0034 13.0757 20.9532 13.7425C20.748 15.4756 20.0538 17.1763 18.8665 18.4581C17.754 19.6538 16.2758 20.4903 14.6834 20.8183C13.1623 21.1395 11.544 21.0204 10.1031 20.4171C12.5714 19.8803 14.8362 18.6256 16.7985 17.0439C17.7909 16.247 18.715 15.3469 19.4406 14.291C19.9343 13.5904 20.2892 12.8045 20.6478 12.0284Z" fill="#6CB2F7"/>
<path opacity="0.2" d="M13 26C20.1797 26 26 20.1797 26 13C26 5.8203 20.1797 0 13 0C5.8203 0 0 5.8203 0 13C0 20.1797 5.8203 26 13 26Z" fill="#6CB2F7"/>
</svg>
