<svg width="26" height="26" viewBox="0 0 26 26" fill="none" xmlns="http://www.w3.org/2000/svg">
<path opacity="0.2" d="M13 26C20.1797 26 26 20.1797 26 13C26 5.8203 20.1797 0 13 0C5.8203 0 0 5.8203 0 13C0 20.1797 5.8203 26 13 26Z" fill="#216CDA"/>
<path fill-rule="evenodd" clip-rule="evenodd" d="M7.60931 6.29794C8.12012 5.88551 9.00346 5.93995 9.424 6.44279C10.1436 7.29901 10.8468 8.16743 11.56 9.02794C12.472 10.1402 13.3994 11.2419 14.3007 12.3614C12.7335 14.2207 11.1878 16.0948 9.62961 17.9603C9.39033 18.2339 9.18615 18.542 8.87773 18.7562C8.58687 18.9581 8.19498 19.0214 7.84287 18.9465C7.50364 18.8693 7.20704 18.6387 7.08024 18.3368C6.99642 18.1606 6.99785 17.9649 7.01218 17.7769C7.05588 17.5066 7.21313 17.2655 7.39331 17.0536C8.75307 15.5029 10.1075 13.9481 11.4687 12.398C11.1513 12.0133 10.8103 11.6438 10.4839 11.265C9.54973 10.2022 8.6191 9.13683 7.68704 8.07241C7.49075 7.8553 7.31272 7.61246 7.24143 7.33365C7.1526 6.96147 7.29552 6.54837 7.60931 6.29794Z" fill="#216CDA"/>
<path fill-rule="evenodd" clip-rule="evenodd" d="M16.9263 6.23657C17.1907 6.05642 17.5339 5.99934 17.8562 6.03563C18.2463 6.09601 18.6002 6.3504 18.7356 6.69586C18.8936 7.08355 18.7611 7.52337 18.486 7.83683C17.3999 9.09096 16.3023 10.3365 15.2209 11.5936C15.1629 11.5583 15.1299 11.4996 15.0862 11.4521C14.6571 10.935 14.2179 10.4246 13.7945 9.90396C14.6442 8.88507 15.4885 7.86256 16.336 6.84203C16.5173 6.62855 16.6806 6.39363 16.9263 6.23657Z" fill="#216CDA"/>
<path fill-rule="evenodd" clip-rule="evenodd" d="M15.0923 13.2592C15.1342 13.2147 15.1611 13.1543 15.2202 13.1262C16.3174 14.3979 17.4242 15.6629 18.5257 16.9312C18.7073 17.1348 18.8825 17.3542 18.9584 17.6122C19.063 17.9679 18.9574 18.3714 18.6801 18.639C18.2008 19.1079 17.2767 19.095 16.8267 18.5955C16.5122 18.2451 16.2235 17.8755 15.9187 17.5179C15.1947 16.6402 14.4536 15.7738 13.7368 14.8915C14.1928 14.3504 14.6399 13.8026 15.0923 13.2592Z" fill="#216CDA"/>
</svg>
