<svg width="26" height="26" viewBox="0 0 26 26" fill="none" xmlns="http://www.w3.org/2000/svg">
<path opacity="0.2" d="M13 26C20.1797 26 26 20.1797 26 13C26 5.8203 20.1797 0 13 0C5.8203 0 0 5.8203 0 13C0 20.1797 5.8203 26 13 26Z" fill="#0D65AE"/>
<g opacity="0.3">
<path d="M20 16V16.9866C20 18.4168 17.1222 20 13 20C8.87778 20 6 18.4168 6 16.9866V16C7.61 17.1625 10.2156 17.8509 13 17.8509C15.7844 17.8509 18.3978 17.1625 20 16Z" fill="#FCFDFD"/>
<path d="M20 12V12.9923C19.9183 13.6047 19.5571 14.1462 19.02 14.4615C17.7056 15.4385 15.4578 16 13 16C10.5422 16 8.33333 15.4154 6.97222 14.4615C6.43975 14.1428 6.08218 13.6025 6 12.9923V12.0154C8.0892 13.3205 10.5311 13.9645 13 13.8615C15.469 13.9469 17.9072 13.2985 20 12Z" fill="#FCFDFD"/>
<path d="M20 9C19.9657 9.42878 19.7621 9.82758 19.4322 10.1117C18.2656 11.2538 15.7378 12 13 12C8.87778 12 6 10.4162 6 9C6 7.58376 8.87778 6 13 6C17.1222 6 20 7.57614 20 9Z" fill="#FCFDFD"/>
</g>
</svg>
