<svg width="26" height="26" viewBox="0 0 26 26" fill="none" xmlns="http://www.w3.org/2000/svg">
<path opacity="0.2" d="M13 26C20.1797 26 26 20.1797 26 13C26 5.8203 20.1797 0 13 0C5.8203 0 0 5.8203 0 13C0 20.1797 5.8203 26 13 26Z" fill="#F2C869"/>
<path fill-rule="evenodd" clip-rule="evenodd" d="M15.8141 6C13.505 6 11.6324 6.64322 11.6324 7.43739V8.71276C11.856 9.17043 13.4352 9.74926 15.8141 9.74926C18.1931 9.74926 19.7715 9.16904 19.9951 8.71276V7.43739C19.9958 6.64322 18.1239 6 15.8141 6Z" fill="#F2C869"/>
<path fill-rule="evenodd" clip-rule="evenodd" d="M7.22579 17.3371L7.16655 17.2173V17.0747C6.91476 17.2595 6.76947 17.4652 6.76947 17.6854V18.9607C6.99305 19.4184 8.57219 19.9972 10.9511 19.9972C13.3301 19.9972 14.9085 19.417 15.1328 18.9607V18.2988C14.2893 18.5564 13.177 18.7073 11.9449 18.7073C9.56101 18.7045 7.62005 18.143 7.22579 17.3371Z" fill="#EFD98B"/>
<path fill-rule="evenodd" clip-rule="evenodd" d="M7.759 16.7119V17.0837C7.98257 17.5413 9.56172 18.1202 11.9407 18.1202C14.3196 18.1202 15.898 17.54 16.1223 17.0837V15.8083C16.1195 15.7148 16.0927 15.6227 16.0447 15.5417V15.7411L15.9855 15.8616C15.5905 16.6669 13.6531 17.2291 11.2678 17.2291C9.87557 17.2291 8.63355 17.0345 7.759 16.7119Z" fill="#E1AB4C"/>
<path fill-rule="evenodd" clip-rule="evenodd" d="M14.3626 13.6231V12.3485C14.3626 11.555 12.4901 10.9111 10.181 10.9111C7.87184 10.9111 6 11.5543 6 12.3485V13.6238C6.22287 14.0815 7.80272 14.6603 10.1817 14.6603C12.5606 14.6603 14.1397 14.0794 14.3626 13.6231Z" fill="#FFD97A"/>
<path fill-rule="evenodd" clip-rule="evenodd" d="M14.9586 13.655V13.7582L14.8993 13.8779C14.5044 14.6832 12.5669 15.2454 10.1817 15.2454C8.99748 15.2454 7.92191 15.1062 7.09249 14.8674V15.6082C7.31607 16.0659 8.89521 16.6447 11.2742 16.6447C13.6531 16.6447 15.2315 16.0645 15.4558 15.6082V14.3322C15.4558 14.087 15.2746 13.8558 14.9586 13.655V13.655Z" fill="#FAC04A"/>
<path fill-rule="evenodd" clip-rule="evenodd" d="M11.6331 9.50346V10.4133C12.8963 10.5656 14.0361 10.9249 14.594 11.5114C14.972 11.546 15.3804 11.5654 15.8148 11.5654C18.193 11.5654 19.7722 10.9852 19.9958 10.5289V9.50346C19.1233 10.0511 17.4617 10.3343 15.8141 10.3343C14.1665 10.3343 12.5056 10.0511 11.6331 9.50346Z" fill="#F4CE83"/>
<path fill-rule="evenodd" clip-rule="evenodd" d="M14.9332 12.1221C14.9494 12.1975 14.9579 12.2744 14.9579 12.3512V12.9917C15.1751 13.0956 15.3782 13.2264 15.5609 13.3808H15.8134C18.1916 13.3808 19.7708 12.8006 19.9944 12.3443V11.3196C19.1219 11.868 17.461 12.1511 15.8134 12.1511C15.52 12.1498 15.2231 12.1408 14.9332 12.1221Z" fill="#FFDA7F"/>
<path fill-rule="evenodd" clip-rule="evenodd" d="M16.0511 14.3328V14.7074C16.2373 14.8334 16.3981 14.9934 16.5243 15.1775C18.5034 15.0765 19.7955 14.5669 19.9958 14.1604V13.1343C19.1529 13.6633 17.5752 13.9451 15.9848 13.9631C16.0278 14.0815 16.0504 14.2068 16.0511 14.3328Z" fill="#E8C278"/>
<path fill-rule="evenodd" clip-rule="evenodd" d="M16.7204 15.8083V16.9819C18.5866 16.858 19.8018 16.3712 19.9951 15.9752V14.9525C19.282 15.3998 18.0435 15.6705 16.7155 15.755C16.7176 15.7716 16.7204 15.7924 16.7204 15.8083Z" fill="#FFD166"/>
<path fill-rule="evenodd" clip-rule="evenodd" d="M15.7274 18.0772V18.9407H15.8141C18.1232 18.9407 19.9951 18.2974 19.9951 17.5033V16.7645C19.2418 17.2374 17.8961 17.513 16.4855 17.5794C16.2683 17.792 16.0102 17.9609 15.7274 18.0772H15.7274Z" fill="#E0C390"/>
</svg>
