<svg width="26" height="26" viewBox="0 0 26 26" fill="none" xmlns="http://www.w3.org/2000/svg">
<path opacity="0.2" d="M13 26C20.1797 26 26 20.1797 26 13C26 5.8203 20.1797 0 13 0C5.8203 0 0 5.8203 0 13C0 20.1797 5.8203 26 13 26Z" fill="#008FBB"/>
<path fill-rule="evenodd" clip-rule="evenodd" d="M20.0933 10.9347H16.1959C15.8321 10.9347 15.5463 11.225 15.5463 11.5944C15.5463 11.9639 15.8321 12.2542 16.1959 12.2542H20.0933C20.4571 12.2542 20.7429 11.9639 20.7429 11.5944C20.7429 11.225 20.4571 10.9347 20.0933 10.9347ZM7.62154 13.3757H6.06256C5.6988 13.3757 5.41299 13.666 5.41299 14.0354C5.41299 14.4049 5.6988 14.6951 6.06256 14.6951H7.62154C7.9853 14.6951 8.27111 14.4049 8.27111 14.0354C8.27111 13.666 7.9853 13.3757 7.62154 13.3757Z" fill="#008FBB"/>
<path fill-rule="evenodd" clip-rule="evenodd" d="M13.3424 11.0781C13.2236 10.9847 13.0769 10.9347 12.9221 10.9347H11.2851C10.9214 10.9215 10.6226 11.225 10.6096 11.5944C10.6096 11.9639 10.9214 12.2674 11.2851 12.2542H12.6362L16.04 14.4972L16.0178 14.4597C16.1394 14.653 16.3625 14.7611 16.5856 14.7611H18.2226C18.5863 14.7743 18.8851 14.4708 18.8981 14.1014C18.8981 13.7319 18.5863 13.4285 18.2226 13.4417H17.0014L13.3424 11.0781ZM8.01128 11.0667L11.519 13.4417H12.6882C13.052 13.4417 13.3378 13.7319 13.3378 14.1014C13.3378 14.4708 13.052 14.7611 12.6882 14.7611H11.1292C10.908 14.7611 10.71 14.6548 10.5903 14.4646L10.6096 14.4972L7.36171 12.2542H6.06256C5.6988 12.2542 5.41299 11.9639 5.41299 11.5944C5.41299 11.225 5.6988 10.9347 6.06256 10.9347H7.62154C7.76602 10.9347 7.9105 10.9847 8.02241 11.078L8.01128 11.0667ZM19.4438 13.059V11.5813C19.4438 11.225 19.7296 10.9347 20.0803 10.9347H20.1063C20.4571 10.9347 20.7429 11.225 20.7429 11.5813V13.059C20.7429 13.4153 20.4571 13.7056 20.1063 13.7056H20.0803C19.7166 13.7056 19.4438 13.4153 19.4438 13.059Z" fill="#008FBB"/>
</svg>
