<svg width="26" height="26" viewBox="0 0 26 26" fill="none" xmlns="http://www.w3.org/2000/svg">
<path opacity="0.2" d="M13 26C20.1797 26 26 20.1797 26 13C26 5.8203 20.1797 0 13 0C5.8203 0 0 5.8203 0 13C0 20.1797 5.8203 26 13 26Z" fill="#1A53F0"/>
<path fill-rule="evenodd" clip-rule="evenodd" d="M11.04 7.00925C9.66387 7.00837 8.4775 7.98037 8.204 9.333C7.9305 10.6856 8.64537 12.0441 9.9125 12.5812C11.1834 13.115 12.6544 12.6799 13.4303 11.5406C14.2062 10.4013 14.0724 8.87319 13.1102 7.88612H13.9299V7.00925H11.04ZM17.2132 7.00937C15.6169 7.00937 14.3226 8.30725 14.3226 9.90825C14.3226 11.5092 15.6169 12.8071 17.2132 12.8071C18.8096 12.8071 20.1039 11.5092 20.1039 9.90825C20.1039 8.30725 18.8099 7.00925 17.2134 7.00925L17.2132 7.00937ZM8.1495 16.0919C8.1495 14.4909 9.44362 13.193 11.04 13.193H11.0401C12.6366 13.193 13.9307 14.4909 13.9307 16.0919C13.9307 17.6929 12.6365 18.9907 11.0401 18.9907C9.44375 18.9907 8.1495 17.6929 8.1495 16.0919ZM9.02487 16.0929C9.02487 17.2091 9.9275 18.1139 11.04 18.1139C12.1522 18.1125 13.0534 17.2081 13.0552 16.0929C13.0552 14.9766 12.1529 14.0719 11.04 14.0719C9.92712 14.0719 9.02487 14.9766 9.02487 16.0929ZM15.1981 9.90925C15.1981 11.0255 16.1007 11.9302 17.2132 11.9302L17.2134 11.9301C18.325 11.9282 19.2267 11.025 19.2286 9.90925C19.2286 8.793 18.3267 7.88825 17.2134 7.88825C16.1 7.88825 15.1981 8.793 15.1981 9.90925ZM11.0401 11.9291C12.1531 11.9291 13.0554 11.0242 13.0554 9.90812V9.9085H13.0564C13.0544 8.79262 12.1529 7.8875 11.04 7.8875C9.92712 7.8875 9.025 8.792 9.025 9.90812C9.025 11.0242 9.92712 11.9291 11.0401 11.9291Z" fill="white"/>
</svg>
