<svg width="26" height="26" viewBox="0 0 26 26" fill="none" xmlns="http://www.w3.org/2000/svg">
<path opacity="0.2" d="M13 26C20.1797 26 26 20.1797 26 13C26 5.8203 20.1797 0 13 0C5.8203 0 0 5.8203 0 13C0 20.1797 5.8203 26 13 26Z" fill="#5E4778"/>
<path fill-rule="evenodd" clip-rule="evenodd" d="M9.42222 18.6316L7.8 17.0526L7 15.8684V7.57894L12.9998 6.39473L18.6 7.57894V16.2632L17.4 18.2368L14.6 19.8158L12.9998 20.6053L9.42222 18.6316Z" fill="white"/>
<path fill-rule="evenodd" clip-rule="evenodd" d="M7 7.27886L12.9939 6L18.9999 7.27886V15.7591C18.9999 18.4037 13.3403 20.8621 13.0972 20.9552L12.9999 20.9927L12.9027 20.9552C11.7598 20.4151 10.6532 19.7943 9.59572 19.0866C8.24619 18.174 7 17.0007 7 15.7591V7.27886ZM12.9939 20.2165C14.6171 19.5646 18.5137 17.6091 18.5137 15.7591L18.5141 15.7591L18.508 7.73208L13.0182 6.83208H12.9696L7.47971 7.73208V15.8385C7.47971 15.8429 7.47894 15.8458 7.47822 15.8485C7.47692 15.8533 7.47577 15.8576 7.47971 15.8696C7.48603 15.8876 7.49012 15.9064 7.4919 15.9254C7.4919 15.9311 7.49314 15.9355 7.4945 15.9403C7.49616 15.9462 7.49799 15.9527 7.49799 15.9629C7.49799 15.9732 7.49984 15.9834 7.5015 15.9926C7.50286 16.0002 7.50409 16.007 7.50409 16.0126C7.50355 16.0254 7.50563 16.0381 7.51018 16.0501C7.51323 16.0594 7.51476 16.0672 7.51628 16.0749C7.5178 16.0827 7.51933 16.0904 7.52237 16.0998C7.52504 16.108 7.52655 16.1149 7.5279 16.1212C7.52964 16.1293 7.53114 16.1363 7.53457 16.1433C7.5414 16.1568 7.54555 16.1716 7.54676 16.1867C7.54676 16.193 7.5498 16.2007 7.55285 16.2085C7.5559 16.2162 7.55895 16.224 7.55895 16.2302C7.56016 16.2454 7.5643 16.2602 7.57114 16.2737C7.57831 16.2877 7.5844 16.3022 7.58935 16.3172C7.59239 16.3266 7.59545 16.3328 7.59851 16.3391C7.60152 16.3453 7.60454 16.3514 7.60756 16.3606C7.61262 16.3776 7.6187 16.3942 7.62578 16.4103C7.63307 16.4222 7.63918 16.4347 7.64399 16.4478C7.64704 16.4572 7.65161 16.465 7.65618 16.4728C7.66072 16.4805 7.66526 16.4883 7.6683 16.4975L7.68651 16.535C7.69213 16.5527 7.70032 16.5695 7.71082 16.5847L7.73513 16.6222C7.74249 16.6296 7.7476 16.6394 7.75318 16.6501C7.75684 16.6571 7.7607 16.6645 7.76553 16.6719L7.78375 16.7094L7.82047 16.7652L7.83868 16.7963L7.8754 16.8521L7.89971 16.8831L7.94223 16.939L7.96654 16.97L8.00906 17.0259L8.03337 17.0507L8.08198 17.1127L8.1002 17.1376L8.15491 17.1996L8.17312 17.2244L8.22783 17.2865L8.24605 17.3113L8.30685 17.3734L8.32507 17.392L8.39197 17.454L8.41018 17.4726L8.47709 17.5409L8.4953 17.5595L8.5622 17.6278L8.58042 17.6403L8.65334 17.7085L8.66553 17.721L8.74455 17.7893L8.75674 17.8017L8.84186 17.87L8.85405 17.8762L8.94526 17.9445L8.95745 17.9507L9.05469 18.0253L9.06078 18.0315L9.15816 18.1054L9.16426 18.1116L9.26149 18.1861L9.26759 18.1924L9.37092 18.2669L9.48034 18.3476L9.58977 18.4221C10.5138 19.0553 11.5654 19.5954 12.3739 19.9617H12.38L12.4712 19.9992H12.4772L12.5562 20.0302L12.5684 20.0364L12.6413 20.0675L12.6595 20.0737L12.7264 20.1047L12.7447 20.1109L12.7994 20.1358L12.8298 20.1482L12.8845 20.173L12.9149 20.1855L12.9939 20.2165Z" fill="#5E4778"/>
<path fill-rule="evenodd" clip-rule="evenodd" d="M12.9939 7.4527L8.83599 8.13561L7.97873 8.27219V15.5418C7.97873 17.2242 11.5228 19.0059 12.9939 19.5957C13.851 19.2543 15.4073 18.5093 16.5562 17.6154C16.5846 17.5926 16.6136 17.5698 16.6427 17.5471C16.7008 17.5015 16.7589 17.456 16.8116 17.4105C17.2067 17.0815 17.535 16.7338 17.7478 16.38C17.9119 16.1068 18.0092 15.8274 18.0092 15.5479V8.27219L12.9939 7.4527ZM10.5744 11.3079H13.4984V11.9287H10.5744V11.3079ZM13.8875 14.021C15.2735 14.021 16.2766 13.071 16.2766 11.5997H16.2764C16.2764 10.1284 15.2734 9.20959 13.8813 9.20959H11.073V9.91732L12.9939 9.91109H13.7965C14.8178 9.91109 15.4926 10.5319 15.4926 11.5997C15.4926 12.6799 14.8178 13.3193 13.7844 13.3193H11.2067V17.125H11.9666V14.021H13.8875Z" fill="#5E4778"/>
<path fill-rule="evenodd" clip-rule="evenodd" d="M12.9939 6V6.83208H13.0182L18.508 7.73208V15.7526C18.508 17.6026 14.6113 19.5582 12.9882 20.21V20.9861L13.0854 20.9486C13.3286 20.8555 18.9882 18.3971 18.9882 15.7524V7.27886L12.9939 6Z" fill="#5E4778"/>
<path fill-rule="evenodd" clip-rule="evenodd" d="M11.9666 14.0146H13.8813V14.0147C15.2734 14.0147 16.2703 13.0647 16.2703 11.5934C16.2703 10.1346 15.2673 9.20959 13.8813 9.20959H11.0729V9.91732L12.9939 9.91109H13.7967C14.818 9.91109 15.4928 10.5319 15.4928 11.5997C15.4928 12.6799 14.818 13.3193 13.7846 13.3193H11.2068V13.667C9.60805 11.9349 9.03052 9.73111 8.83598 8.13561L13 7.4527L18.0152 8.27219V15.5416C18.0152 15.8211 17.9179 16.1005 17.7538 16.3737C15.7659 16.2806 14.2097 15.8025 13 15.0948C12.6376 14.885 12.2921 14.6462 11.9666 14.3808V14.0146ZM13.492 11.3079H12.9939H10.5744V11.9287H13.492V11.3079Z" fill="#5E4778"/>
<path fill-rule="evenodd" clip-rule="evenodd" d="M12.921 20.1855L12.8906 20.173L12.8359 20.1544L12.8055 20.142L12.7507 20.1172L12.7325 20.1109L12.6656 20.0799L12.6474 20.0737L12.5745 20.0427L12.5623 20.0364L12.4833 19.999H12.4712L12.38 19.9615H12.3739C11.5715 19.5952 10.5198 19.0551 9.59579 18.4157L9.48636 18.3412L9.37694 18.2543L9.27361 18.1798L9.26752 18.1735L9.17028 18.099L9.16419 18.0928L9.06695 18.0183L9.06086 18.0121L8.96362 17.9376L8.95143 17.9313L8.86022 17.863L8.84803 17.8568L8.76291 17.7885L8.7508 17.7766L8.67177 17.7083L8.65958 17.6959L8.58666 17.6276L8.56845 17.6151L8.50154 17.5469L8.48333 17.5283L8.41643 17.46L8.39821 17.4414L8.33131 17.3793L8.3131 17.3607L8.25229 17.2987L8.23408 17.2738L8.17936 17.2118L8.16115 17.187L8.10644 17.1249L8.08823 17.1001L8.03351 17.0504L8.0092 17.0256L7.96668 16.9697L7.94237 16.9387L7.89985 16.8828L7.87554 16.8518L7.83882 16.796L7.82061 16.7649L7.78389 16.7091L7.76568 16.678C7.75349 16.6594 7.74747 16.6406 7.73528 16.6283L7.71097 16.5909L7.68666 16.5412L7.66845 16.5037C7.66235 16.4851 7.65023 16.4726 7.64414 16.454C7.63932 16.4409 7.63322 16.4283 7.62592 16.4165C7.61885 16.4003 7.61277 16.3837 7.60771 16.3668C7.60162 16.3482 7.59552 16.342 7.5895 16.3233C7.58455 16.3084 7.57846 16.2938 7.57129 16.2798C7.56366 16.2666 7.55946 16.2517 7.55909 16.2364C7.55909 16.2178 7.5469 16.1989 7.5469 16.1867C7.5457 16.1715 7.54155 16.1567 7.53471 16.1432C7.52862 16.1307 7.52862 16.1184 7.52252 16.0997C7.51643 16.081 7.51643 16.0687 7.51033 16.05C7.50577 16.0381 7.5037 16.0253 7.50424 16.0125C7.50424 16.0001 7.49814 15.9815 7.49814 15.9628C7.49814 15.9442 7.49204 15.938 7.49204 15.9253C7.49027 15.9063 7.48617 15.8875 7.47985 15.8695C7.47376 15.8509 7.47985 15.8509 7.47985 15.8385V7.73208L12.9696 6.83208H12.9939V6L7 7.27886V15.7591C7 17.0007 8.24619 18.174 9.59572 19.0866C10.6532 19.7943 11.7598 20.4151 12.9027 20.9552L12.9999 20.9927V20.2165L12.9209 20.1855" fill="#3D3144"/>
<path fill-rule="evenodd" clip-rule="evenodd" d="M12.9939 15.0948C12.6315 14.885 12.286 14.6462 11.9605 14.3808V17.1244H11.2007V13.6669C9.60181 11.9287 9.03038 9.72481 8.83599 8.1356L7.97873 8.27219V15.5418C7.97873 17.2242 11.5228 19.0059 12.9939 19.5957C13.851 19.2543 15.4073 18.5093 16.5562 17.6154C16.6413 17.5471 16.7325 17.4788 16.8116 17.4105C17.2067 17.0815 17.535 16.7338 17.7478 16.38C15.7599 16.2744 14.2098 15.7964 12.994 15.0949" fill="#3D3144"/>
</svg>
