<svg width="26" height="26" viewBox="0 0 26 26" fill="none" xmlns="http://www.w3.org/2000/svg">
<path opacity="0.2" d="M13 26C20.1797 26 26 20.1797 26 13C26 5.8203 20.1797 0 13 0C5.8203 0 0 5.8203 0 13C0 20.1797 5.8203 26 13 26Z" fill="#105B2F"/>
<path fill-rule="evenodd" clip-rule="evenodd" d="M9.53728 10.1185C9.65817 9.47256 9.78559 8.82799 9.91302 8.18338C9.97703 7.85954 10.0411 7.53569 10.1042 7.21165C11.0747 7.20595 12.0452 7.20349 13.0159 7.20427L13.0767 7.20414C13.9494 7.20216 14.8229 7.20019 15.6932 7.26844C16.2189 7.30993 16.745 7.36942 17.2576 7.49515C17.7886 7.62187 18.292 7.90411 18.6431 8.32612C18.9614 8.71312 19.1119 9.211 19.1544 9.70393C19.1915 9.96979 19.2008 10.2413 19.16 10.5072C19.0995 11.3048 18.8361 12.094 18.3578 12.7392C17.9645 13.2779 17.415 13.6882 16.8148 13.9715C16.1531 14.2821 15.4297 14.4416 14.7043 14.5072C14.258 14.5487 13.8095 14.5478 13.3615 14.5468C13.2576 14.5466 13.1538 14.5463 13.05 14.5467C12.8083 14.5462 12.5665 14.5463 12.3248 14.5463C11.7902 14.5464 11.2557 14.5464 10.7212 14.5416C10.5332 15.4768 10.356 16.4142 10.1788 17.3517C10.0905 17.8188 10.0022 18.286 9.91255 18.7529C9.23455 18.7492 8.55637 18.746 7.87801 18.7432C8.32255 16.4021 8.78627 14.0644 9.24997 11.7269L9.29155 11.5173C9.06857 11.5163 8.84556 11.5169 8.62256 11.5176C8.44259 11.5181 8.26262 11.5186 8.08267 11.5182C8.15088 11.1779 8.21406 10.8365 8.27721 10.4952C8.30013 10.3714 8.32304 10.2475 8.34619 10.1238C8.52505 10.1221 8.70397 10.122 8.88288 10.1218C9.10106 10.1216 9.31922 10.1214 9.53728 10.1185ZM11.6551 9.75241C11.6912 9.56909 11.7272 9.38579 11.7608 9.202C12.3185 9.19521 12.8763 9.19611 13.4343 9.19701C13.8071 9.19761 14.18 9.19821 14.5529 9.19651C14.6147 9.19844 14.6767 9.20016 14.7387 9.20189C15.2146 9.2151 15.6933 9.22839 16.1587 9.337C16.4923 9.41719 16.8006 9.64399 16.9327 9.967C17.0227 10.19 17.0431 10.4362 17.0317 10.6746C16.9946 11.2274 16.6499 11.7096 16.2341 12.0534C15.7486 12.453 15.1005 12.5754 14.4869 12.5844C13.7364 12.5855 12.9858 12.5851 12.2354 12.5848C11.8603 12.5846 11.4853 12.5844 11.1104 12.5844C11.1439 12.3655 11.1873 12.1482 11.2308 11.9309C11.2583 11.793 11.2859 11.655 11.311 11.5166C11.6248 11.5165 11.9387 11.5167 12.2526 11.5169C12.9082 11.5173 13.5637 11.5178 14.2193 11.5153C14.2973 11.0757 14.3816 10.6371 14.4659 10.1984C14.4709 10.1723 14.4759 10.1463 14.4809 10.1203C13.9796 10.1192 13.4784 10.1192 12.9772 10.1192C12.5127 10.1191 12.0482 10.1191 11.5838 10.1183C11.6071 9.99623 11.6311 9.87432 11.6551 9.75241Z" fill="#FEFEFE"/>
</svg>
