<svg width="26" height="26" viewBox="0 0 26 26" fill="none" xmlns="http://www.w3.org/2000/svg">
<path opacity="0.2" d="M13 26C20.1797 26 26 20.1797 26 13C26 5.8203 20.1797 0 13 0C5.8203 0 0 5.8203 0 13C0 20.1797 5.8203 26 13 26Z" fill="#05BCA9"/>
<path fill-rule="evenodd" clip-rule="evenodd" d="M20.9158 13.1386C20.9777 13.108 21.0113 13.036 20.9966 12.9653V12.9646C20.9833 12.9023 20.9351 12.8551 20.8754 12.8461L19.2766 11.1489L19.9099 8.64096C19.9305 8.55846 19.8851 8.47446 19.8072 8.45196L17.4299 7.77548L16.8348 5.41754C16.8332 5.40728 16.8306 5.39723 16.8271 5.38754L16.8108 5.32304C16.801 5.28352 16.7767 5.24976 16.7433 5.22922C16.71 5.20867 16.6703 5.20303 16.633 5.21354L14.3081 5.87502L12.5818 4.04357C12.5243 3.98548 12.4338 3.98548 12.3763 4.04357L10.6706 5.85403L8.42217 5.21429C8.34432 5.19237 8.26441 5.24138 8.24366 5.32379L7.62453 7.77623L5.24793 8.45271C5.17009 8.47469 5.1238 8.55928 5.14451 8.64171L5.75725 11.0686L4.04227 12.8903C3.98591 12.9506 3.98591 13.0476 4.04227 13.1078L5.80613 14.9805L5.19338 17.4082C5.18322 17.4477 5.18834 17.4899 5.20762 17.5253C5.2269 17.5608 5.25875 17.5867 5.2961 17.5972L7.56857 18.2437L8.19619 20.7262C8.206 20.7655 8.23019 20.7991 8.26342 20.8195C8.29664 20.8399 8.33618 20.8454 8.37329 20.8349L10.6982 20.1734L12.3763 21.9546C12.4035 21.9837 12.4405 22 12.479 22C12.5176 22 12.5546 21.9837 12.5818 21.9546L14.2804 20.1524L16.6818 20.8349C16.7593 20.8563 16.8385 20.8073 16.8589 20.7254L17.4858 18.243L19.759 17.5972C19.8366 17.5749 19.8825 17.4904 19.8617 17.4082L19.2285 14.8995L20.862 13.1656L20.9158 13.1386ZM20.0948 13.5443L19.1413 14.5553V14.5561L19.0202 14.0746L20.0948 13.5443ZM19.4891 17.1255L18.9911 15.1515L18.0015 16.2015V16.2023L19.4891 17.1255ZM17.573 17.8995L17.9236 16.5105V16.5113L19.3475 17.3947L17.573 17.8995ZM16.65 20.3624L17.1621 18.3352L15.7638 18.7327L16.65 20.3624ZM14.517 19.9004L14.8762 19.5187L15.926 20.3009L14.517 19.9004ZM12.6243 21.4731L13.956 20.0594L12.6243 19.6807V21.4731ZM12.3331 19.7086L12.3338 19.7084H12.3331V19.7086ZM11.0226 20.0812L12.3331 19.7086V21.4731L11.0226 20.0812ZM8.65806 20.4344L10.4616 19.9222L9.49536 18.8962L8.65806 20.4344ZM8.29324 19.9207L7.89301 18.3352L8.41367 18.4837L8.29324 19.9207ZM5.70412 17.394L7.48215 17.8995L7.12796 16.4993L5.70412 17.394ZM6.04344 15.2325L6.98416 16.2315L5.56599 17.1225L6.04344 15.2325ZM4.51901 13.1791L5.89326 14.6371L6.26091 13.1791H4.51901ZM5.84438 11.4129L5.99243 11.9979L4.6869 12.6414L5.84438 11.4129ZM5.5164 8.92145L5.99456 10.8167L6.95087 9.80193L5.5164 8.92145ZM7.53811 8.12047L7.17259 9.56643L7.16338 9.57618L5.66091 8.65446L7.53811 8.12047ZM8.42783 5.78653L7.94897 7.68398L9.25734 7.31199L8.42783 5.78728V5.78653ZM10.4332 6.10602L10.0869 6.47351L9.076 5.71978L10.4332 6.10602ZM12.3338 4.52506L10.995 5.94627L12.3338 6.32726V4.52506ZM13.9843 5.96802L12.6243 6.35501V4.52506L13.9843 5.96802ZM16.4467 5.58703L14.5454 6.12702L15.564 7.20924L16.4467 5.58703ZM17.1062 7.68398L16.6613 7.55798L16.764 6.32876L17.1062 7.68398ZM19.3885 8.65296L19.3872 8.65258L19.3878 8.65221L19.3885 8.65296ZM19.3872 8.65258L17.8783 9.55443L17.517 8.12047L19.3872 8.65258ZM19.0393 10.8969L18.0249 9.82068L19.5401 8.9147L19.0393 10.8969ZM20.4632 12.8439L19.1902 11.4931L18.8488 12.8439H20.4632ZM18.943 13.7708L18.7871 13.1521H18.7878H20.1975L18.943 13.7708ZM18.5675 13.9561L18.5683 13.9557L18.5682 13.9561H18.5675ZM18.5683 13.9557L18.6285 13.7161L18.6759 13.9036L18.5683 13.9557ZM18.151 15.6053L18.4698 14.3446L18.7524 14.2051L18.904 14.8066L18.151 15.6053ZM17.5907 16.6373L15.9735 18.3532L17.2485 17.991L17.5907 16.6373ZM17.7409 16.0418L15.5598 18.357L14.4547 16.3253L18.1262 14.5141L17.7409 16.0418ZM15.4974 18.8595L15.0852 19.2967L16.1789 20.1119L15.4974 18.8595ZM14.8436 19.1167L14.7246 19.0282L15.0016 18.9487L14.8436 19.1167ZM14.3584 19.1317L13.089 19.4932L14.1933 19.8074L14.6353 19.3379L14.3591 19.1317H14.3584ZM9.92109 18.9112L11.9662 19.4932L10.7853 19.8292L9.92109 18.9112ZM8.7381 18.0922L8.72393 18.252L8.94849 18.3157L8.7381 18.0922ZM7.49986 16.7798L8.46963 17.8072V17.8087L8.43988 18.1725L7.80588 17.9925L7.49986 16.7798ZM6.93883 15.747L6.42596 13.7161L6.12986 14.8883L6.93883 15.747ZM6.21255 12.8701L6.21274 12.8708V12.8701H6.21255ZM6.21255 12.8701L6.06823 12.3001L4.91145 12.8701H6.21255ZM6.54143 12.0661L6.336 12.1681L6.42596 12.5251L6.54143 12.0661ZM7.02241 10.1619L6.63989 11.6784L6.25949 11.8659L6.08169 11.1609L7.02241 10.1619ZM7.58345 9.12994L7.58371 9.12967L7.58345 9.13069V9.12994ZM7.58371 9.12967L7.86184 8.02822L8.90032 7.73273L7.58371 9.12967ZM9.87859 6.69475L9.48473 7.11249L8.83302 5.91552L9.87859 6.69475ZM10.3064 7.0135L10.1201 6.87475L9.87221 7.13724L10.3064 7.0135ZM11.9662 6.54176L10.6727 6.90925L10.3284 6.65276L10.7577 6.19827L11.9662 6.54176ZM13.0882 6.54176L15.0504 7.09974L14.2216 6.22002L13.0882 6.54176ZM16.3503 7.78823L16.3305 8.02222L16.0223 7.69523L16.3503 7.78823ZM16.5983 8.30721L17.5064 9.27094L17.1926 8.02822L16.6351 7.86922L16.5983 8.30721ZM18.0677 10.3032L18.0674 10.3022V10.3029L18.0677 10.3032ZM18.6285 12.5251L18.0677 10.3032L18.9529 11.2419L18.6285 12.5251ZM13.9773 15.4478L14.3088 16.0575L18.2247 14.1263L18.4705 13.1528H16.1931L16.0776 14.5283C16.072 14.5946 16.0267 14.6495 15.9654 14.6644C15.9041 14.6792 15.8407 14.6506 15.8084 14.5936L15.1015 13.3261L13.9773 15.4478ZM14.0446 16.188L13.4219 16.4955L13.8115 15.7605L14.0446 16.188ZM10.9525 16.218L14.4143 18.798L15.3232 18.5392L14.1898 16.4565L13.1357 16.977C13.0783 17.0057 13.0098 16.9916 12.9668 16.9421C12.9238 16.8926 12.9162 16.8192 12.948 16.761L13.6089 15.5138L11.3208 15.5408L10.9525 16.2173V16.218ZM9.69441 18.5287L10.8066 16.4858L14.0481 18.9014L12.5279 19.3342L9.69441 18.5287ZM10.9829 15.5445L10.0642 15.5558L10.7138 16.0395L10.9829 15.5445ZM8.7714 17.6925L9.14825 13.1791H9.14896H9.86796L11.0155 15.2355L9.61011 15.2528C9.54701 15.2538 9.49169 15.2977 9.47299 15.3615C9.4543 15.4253 9.47647 15.4946 9.52794 15.5333L10.5678 16.3073L9.43302 18.3937L8.7714 17.6925ZM8.85782 13.1791H6.59101L7.34898 16.1828L8.50363 17.4075L8.85782 13.1791ZM9.24247 12.0594L9.69512 12.8708H9.17446L9.24247 12.0594ZM10.7223 10.0044L10.7217 10.0047L10.7216 10.0044H10.7223ZM10.7217 10.0047L6.8857 11.8974L6.63989 12.8708H8.88332L8.99312 11.5554C8.99962 11.4897 9.04486 11.4356 9.10568 11.4209C9.1665 11.4062 9.22944 11.434 9.2623 11.4901L9.9728 12.7629L11.0828 10.6682L10.7217 10.0047ZM9.42169 7.61498L10.5763 9.73668L6.98345 11.5089L7.43327 9.72618L9.42169 7.61498ZM14.1232 9.85818L10.6167 7.24449L9.69866 7.50623L10.8406 9.60618L11.974 9.0467C12.0314 9.01797 12.0998 9.03212 12.1428 9.08162C12.1859 9.13111 12.1935 9.20447 12.1617 9.26269L11.4986 10.5137L13.781 10.4867L14.1232 9.85818ZM15.3961 7.51748L14.2691 9.58968L10.9829 7.14099L12.5272 6.7015L15.3961 7.51748ZM14.1189 10.4822L14.1193 10.4822L14.1189 10.4829V10.4822ZM14.1193 10.4822L14.9477 10.4732L14.3619 10.0359L14.1193 10.4822ZM15.3416 13.1528H15.9012L15.8282 14.0243L15.3416 13.1528ZM11.2486 10.3554L11.6878 9.52818L10.9865 9.87392L11.2486 10.3562V10.3554ZM14.93 13.0201L13.7725 15.2055L13.7675 15.2046L13.7637 15.2038L13.7609 15.2034L13.7584 15.2033L11.3513 15.2318L10.1435 13.0696L11.3336 10.8242L13.6904 10.7964L13.6939 10.8047L14.93 13.0201ZM16.565 8.7077L16.2186 12.8446H18.4089L17.6566 9.86718L16.565 8.7077ZM16.2972 8.42271L15.9274 12.8446H15.9267H15.1702L14.0247 10.7919L15.4025 10.7762C15.466 10.7756 15.5219 10.7316 15.5407 10.6673C15.5594 10.6031 15.5368 10.5334 15.4847 10.4949L14.5071 9.76743L15.6264 7.71098L16.2972 8.42271ZM16.3758 7.47698L16.4892 6.12477L15.8375 7.32324L16.3758 7.47698ZM8.58155 19.9582L8.69843 18.5647L9.25451 18.7222L8.58155 19.9582Z" fill="#05BCA9"/>
</svg>
