<svg width="26" height="26" viewBox="0 0 26 26" fill="none" xmlns="http://www.w3.org/2000/svg">
<path opacity="0.2" d="M13 26C20.1797 26 26 20.1797 26 13C26 5.8203 20.1797 0 13 0C5.8203 0 0 5.8203 0 13C0 20.1797 5.8203 26 13 26Z" fill="#505050"/>
<path fill-rule="evenodd" clip-rule="evenodd" d="M8.7243 6H15.6227C17.5304 6.11174 19.6302 6.89043 20.4734 8.7C21.5281 11.0043 21.004 14.2436 18.6275 15.5585C16.4366 16.8032 13.8159 16.3117 11.4101 16.4138C11.345 17.5915 11.6771 18.9606 10.8504 19.9564C10.518 20.4319 8.99448 21 8.99448 21C8.99448 21 8.85407 19.7219 8.80258 16.8447C8.77004 16.05 8.90021 15.1596 9.58715 14.6426C10.3912 13.9564 11.5307 14.1703 12.5073 14.1351C13.982 14.0969 15.5316 14.3203 16.9315 13.7553C18.9856 12.9223 19.0606 9.51704 16.9901 8.6586C14.8773 7.84477 12.5431 8.58521 10.3717 8.13521C9.38517 7.86061 8.94203 6.89679 8.7243 6Z" fill="white"/>
<path fill-rule="evenodd" clip-rule="evenodd" d="M5 9.90956C6.8035 9.94148 8.61035 9.84574 10.4106 9.95426C11.7193 10.0532 12.5787 11.2309 12.7154 12.4341C10.8989 12.4245 9.07908 12.4916 7.26215 12.4117C6.14591 12.3479 5.32232 11.4479 5 10.4553V9.90956Z" fill="white"/>
</svg>
