<svg width="26" height="26" viewBox="0 0 26 26" fill="none" xmlns="http://www.w3.org/2000/svg">
<path opacity="0.2" d="M13 26C20.1797 26 26 20.1797 26 13C26 5.8203 20.1797 0 13 0C5.8203 0 0 5.8203 0 13C0 20.1797 5.8203 26 13 26Z" fill="#454545"/>
<path fill-rule="evenodd" clip-rule="evenodd" d="M18.2956 10.0804C18.9222 11.0418 19.2554 12.1649 19.2543 13.3125C19.2552 14.4602 18.9217 15.5833 18.2948 16.5446L20.625 18.8749L18.8749 20.625L16.5446 18.2948C15.6135 18.9001 14.5052 19.2543 13.3125 19.2543C12.1198 19.2543 11.0115 18.9001 10.0804 18.2948L7.75013 20.625L6 18.8749L8.33025 16.5446C7.72575 15.6135 7.37069 14.5052 7.37069 13.3125C7.37069 12.1198 7.72494 11.0115 8.33025 10.0804L6 7.75013L7.75013 6L10.0804 8.32944C11.0115 7.72494 12.1198 7.37069 13.3125 7.37069C14.5052 7.37069 15.6135 7.72494 16.5446 8.33025L18.8749 6L20.625 7.75013L18.2956 10.0804ZM13.3125 9.65625C11.2967 9.65625 9.65625 11.2967 9.65625 13.3125C9.65849 15.3309 11.2941 16.9665 13.3125 16.9688C13.8263 16.9687 14.3342 16.8596 14.8026 16.6486L12.3895 14.2355L14.2355 12.3887L16.6486 14.8018C16.8526 14.346 16.9688 13.8431 16.9688 13.3125C16.9688 11.2967 15.3283 9.65625 13.3125 9.65625Z" fill="white"/>
</svg>
