<svg width="26" height="26" viewBox="0 0 26 26" fill="none" xmlns="http://www.w3.org/2000/svg">
<path opacity="0.2" d="M13 26C20.1797 26 26 20.1797 26 13C26 5.8203 20.1797 0 13 0C5.8203 0 0 5.8203 0 13C0 20.1797 5.8203 26 13 26Z" fill="#45525B"/>
<path fill-rule="evenodd" clip-rule="evenodd" d="M12.4849 4H12.598C12.7757 4.221 13.0816 4.25925 13.2743 4.45475C13.2718 4.4794 13.2668 4.52955 13.2651 4.5542C13.0631 4.72505 12.8184 4.82705 12.5897 4.9537C11.326 5.68215 10.0782 6.43865 8.80698 7.15435C8.75084 7.06 8.69469 6.96565 8.63855 6.87045C8.23548 7.1144 7.8257 7.34645 7.42263 7.5904C7.36061 7.49605 7.2986 7.4017 7.23743 7.3065C6.51089 7.7094 5.8162 8.1718 5.07458 8.5441C5.17849 8.2364 5.50531 8.14375 5.75168 7.98735C7.70503 6.8373 9.66257 5.6966 11.6176 4.54995C11.9126 4.3757 12.2193 4.21845 12.4849 4Z" fill="white"/>
<path fill-rule="evenodd" clip-rule="evenodd" d="M5.53799 9.4774C8.2648 7.89385 10.9749 6.27715 13.7067 4.70465C13.9866 4.8398 14.2397 5.02255 14.5095 5.17555C13.4067 5.8717 12.2603 6.4973 11.1416 7.1688C10.7536 7.3864 10.3816 7.63375 9.98436 7.8335C9.92235 7.7434 9.86033 7.65245 9.79916 7.56235C9.00894 8.0392 8.20028 8.48545 7.41508 8.97165C7.35642 8.87135 7.2986 8.77105 7.23994 8.6716C6.53101 9.0881 5.82039 9.5029 5.10978 9.91685C5.10056 9.6576 5.36285 9.5879 5.53799 9.4774Z" fill="white"/>
<path fill-rule="evenodd" clip-rule="evenodd" d="M11.9268 7.10506C12.9156 6.53981 13.8827 5.93291 14.8849 5.39401C15.1254 5.56996 15.4841 5.64136 15.6391 5.90316C14.1416 6.77356 12.6542 7.66096 11.1534 8.52456C11.0922 8.42936 11.031 8.33501 10.969 8.24066C9.7933 8.95466 8.58743 9.61681 7.42011 10.3436C7.35559 10.2424 7.29106 10.1421 7.22654 10.0418C6.52849 10.4668 5.81955 10.8723 5.1148 11.2845C5.11145 11.1494 5.16927 11.0542 5.28743 10.9981C7.49721 9.69501 9.7162 8.40726 11.9268 7.10506Z" fill="white"/>
<path fill-rule="evenodd" clip-rule="evenodd" d="M16.0296 6.05954C16.3061 6.22274 16.5844 6.38084 16.8584 6.54829C15.35 7.44164 13.8433 8.34094 12.3156 9.20029C12.2553 9.11104 12.1941 9.02264 12.1338 8.93424C10.5642 9.85564 8.98799 10.7668 7.42765 11.7027C7.35642 11.6083 7.28603 11.514 7.2148 11.4205C6.51508 11.8302 5.82207 12.2509 5.1148 12.6462C5.07542 12.477 5.23045 12.4107 5.3352 12.3368C8.89832 10.2407 12.4757 8.17009 16.0296 6.05954Z" fill="white"/>
<path fill-rule="evenodd" clip-rule="evenodd" d="M16.3983 7.22576C16.6715 7.06511 16.9363 6.88916 17.2237 6.75571C17.4659 6.93591 17.802 7.02006 17.9855 7.25976C16.4964 8.14036 15.0081 9.02436 13.5031 9.87606C13.4553 9.78001 13.4075 9.68481 13.3589 9.58961C11.3813 10.7422 9.40531 11.8982 7.43352 13.061C7.34218 12.982 7.27179 12.7363 7.11844 12.8536C6.44134 13.2293 5.79022 13.6526 5.10559 14.013C5.08296 13.8167 5.27318 13.7521 5.39804 13.6662C9.06676 11.5234 12.7304 9.37031 16.3983 7.22576Z" fill="white"/>
<path fill-rule="evenodd" clip-rule="evenodd" d="M5.39721 15.0356C9.72961 12.506 14.0528 9.96021 18.3869 7.43231C18.6274 7.62696 18.9676 7.70261 19.1628 7.94656C17.6654 8.81356 16.1821 9.70946 14.6763 10.562C14.626 10.4702 14.5757 10.3784 14.5254 10.2875C12.1413 11.6441 9.78994 13.0602 7.41508 14.4338C7.36061 14.3428 7.30615 14.2527 7.25168 14.1618C6.50838 14.5264 5.83464 15.0237 5.08799 15.3832C5.1014 15.1996 5.2648 15.1172 5.39721 15.0356Z" fill="white"/>
<path fill-rule="evenodd" clip-rule="evenodd" d="M13.529 11.6432C15.5453 10.4753 17.5405 9.27169 19.5668 8.12164C19.6925 8.19814 19.819 8.27464 19.9464 8.34944C19.9506 8.51604 19.9547 8.68264 19.9573 8.84924C18.2075 9.87519 16.4545 10.8969 14.7089 11.9296C14.6369 11.8378 14.5648 11.7452 14.4919 11.6542C12.138 13.0448 9.77654 14.4227 7.41592 15.8014C7.35726 15.7096 7.2986 15.6178 7.23994 15.5268C6.51173 15.9153 5.82626 16.3828 5.08799 16.7508C5.11313 16.6174 5.18436 16.5213 5.3 16.4627C8.04525 14.8604 10.7855 13.2488 13.529 11.6432Z" fill="white"/>
<path fill-rule="evenodd" clip-rule="evenodd" d="M6.31397 17.2362C10.8651 14.5859 15.3961 11.8999 19.9531 9.26065C19.9564 9.5828 19.9547 9.9058 19.9531 10.228C18.1791 11.2514 16.4168 12.2952 14.6486 13.3305C14.5933 13.2293 14.5388 13.1273 14.4835 13.027C12.1263 14.4193 9.76481 15.8048 7.39581 17.1767C7.32374 17.0943 7.2852 16.9693 7.18212 16.9209C6.75978 17.1164 6.40363 17.4606 5.95196 17.583L5.90251 17.504C6.02821 17.3977 6.17151 17.3161 6.31397 17.2362Z" fill="white"/>
<path fill-rule="evenodd" clip-rule="evenodd" d="M7.49134 17.9188C11.6453 15.4869 15.7975 13.0525 19.9506 10.6198C19.9556 10.9411 19.9547 11.2633 19.9556 11.5846C18.1983 12.6309 16.4193 13.6399 14.6696 14.6981C14.6042 14.6004 14.5397 14.5026 14.476 14.4049C12.5268 15.5643 10.555 16.6837 8.61341 17.855C8.53715 17.7692 8.46257 17.6825 8.38715 17.5966C7.93547 17.8074 7.54581 18.1457 7.06648 18.2919C7.11927 18.0871 7.33548 18.0225 7.49134 17.9188Z" fill="white"/>
<path fill-rule="evenodd" clip-rule="evenodd" d="M8.81955 18.5095C12.5293 16.3318 16.2466 14.1669 19.9522 11.9824C19.9556 12.3054 19.9539 12.6284 19.9581 12.9514C18.2017 13.9952 16.4293 15.0118 14.6746 16.0598C14.6075 15.968 14.5405 15.8762 14.4735 15.7853C12.8913 16.6931 11.3251 17.6306 9.74721 18.5469C9.69022 18.4526 9.63408 18.3574 9.5771 18.263C9.12374 18.4857 8.7257 18.8266 8.23631 18.9694C8.33017 18.7135 8.61508 18.6455 8.81955 18.5095Z" fill="white"/>
<path fill-rule="evenodd" clip-rule="evenodd" d="M9.45978 19.5074C12.9542 17.4504 16.4587 15.4095 19.9547 13.3525C19.9547 13.6747 19.9539 13.9968 19.9581 14.319C18.2008 15.3636 16.4318 16.3879 14.6679 17.4215C14.605 17.3331 14.5422 17.2447 14.4793 17.1563C13.2751 17.8218 12.1112 18.5613 10.9045 19.2218C10.8475 19.13 10.7897 19.0373 10.7327 18.9464C10.364 19.1512 10.0112 19.3824 9.63911 19.5805C9.56201 19.6672 9.30391 19.6332 9.45978 19.5074Z" fill="white"/>
<path fill-rule="evenodd" clip-rule="evenodd" d="M11.2774 19.8083C14.1709 18.1159 17.0603 16.4159 19.9573 14.727C19.9556 15.0525 19.9547 15.3781 19.9522 15.7045C18.1816 16.7194 16.4352 17.7768 14.6612 18.7857C14.5983 18.6956 14.5363 18.6064 14.4735 18.5163C13.6715 18.977 12.8821 19.4598 12.0751 19.9111C12.0232 19.8159 11.9704 19.7199 11.9176 19.6247C11.4475 19.8397 11.0545 20.2418 10.5366 20.331C10.721 20.0794 11.0201 19.9647 11.2774 19.8083Z" fill="white"/>
<path fill-rule="evenodd" clip-rule="evenodd" d="M12.6131 20.3957C15.0584 18.9609 17.5036 17.5261 19.9539 16.0989C19.9556 16.4253 19.9556 16.7509 19.9514 17.0764C18.1791 18.093 16.426 19.1436 14.6553 20.1628C14.5966 20.0676 14.538 19.9732 14.4802 19.8789C14.083 20.1203 13.6757 20.3455 13.2785 20.5878C13.2064 20.4968 13.1344 20.405 13.0623 20.3149C12.676 20.5495 12.2872 20.7799 11.8933 21H11.6813C11.967 20.7603 12.2913 20.5776 12.6131 20.3957Z" fill="white"/>
</svg>
