<svg width="26" height="26" viewBox="0 0 26 26" fill="none" xmlns="http://www.w3.org/2000/svg">
<path opacity="0.2" d="M13 26C20.1797 26 26 20.1797 26 13C26 5.8203 20.1797 0 13 0C5.8203 0 0 5.8203 0 13C0 20.1797 5.8203 26 13 26Z" fill="#231F20"/>
<path fill-rule="evenodd" clip-rule="evenodd" d="M13.0056 6.35496C12.8307 6.35496 12.6574 6.36383 12.4849 6.37753V5.01854C12.6574 5.00806 12.8283 5 13.0056 5C13.2676 5.00081 13.5288 5.0137 13.7899 5.0395V6.40091C13.5296 6.37028 13.2676 6.35496 13.0056 6.35496ZM6.55486 11.4C5.67224 14.9611 7.84373 18.5633 11.4048 19.4459V20.8348C8.25965 20.1956 5.80202 17.7371 5.16202 14.5919C4.28181 10.2635 7.07637 6.04141 11.4048 5.16121V6.55003C9.01411 7.14247 7.14731 9.00927 6.55486 11.4Z" fill="#231F20"/>
<path fill-rule="evenodd" clip-rule="evenodd" d="M14.8692 6.62015V5.22086L14.87 5.22489C17.7903 5.92856 20.0706 8.20806 20.7735 11.1284C21.8069 15.4222 19.1638 19.741 14.87 20.7751V19.3766C16.9923 18.7536 18.6665 17.1173 19.3387 15.0103H17.8774C17.4195 16.117 16.599 17.0351 15.5495 17.613C13 19.0171 9.79597 18.0894 8.39184 15.5398C6.98771 12.9903 7.91547 9.7863 10.465 8.38217C13.0145 6.97803 16.2185 7.9066 17.6227 10.4553H19.1445C18.3715 8.59657 16.8005 7.18761 14.8692 6.62015ZM12.7058 14.2341L14.247 16.4225L14.2526 16.4233H16.1524L14.3856 14.0188C14.3856 14.0188 15.7591 13.6553 15.7591 11.8304C15.7591 10.0055 14.205 9.5735 13.2273 9.5735H10.141V10.8293H13.0733C13.8197 10.8293 14.1526 11.3307 14.1526 11.8796C14.1526 12.4285 13.8883 12.8896 13.1523 12.8896H10.1402V14.2341H12.7058Z" fill="#D31F26"/>
<path fill-rule="evenodd" clip-rule="evenodd" d="M13.7899 19.5951C13.5296 19.6257 13.2676 19.641 13.0056 19.641C12.8283 19.641 12.6574 19.6321 12.4849 19.6184V20.9758C12.6574 20.9871 12.8307 20.9944 13.0056 20.9944C13.2724 20.9944 13.532 20.9807 13.7899 20.9549V19.5951V19.5951Z" fill="#231F20"/>
</svg>
