<svg width="26" height="26" viewBox="0 0 26 26" fill="none" xmlns="http://www.w3.org/2000/svg">
<path opacity="0.2" d="M13 26C20.1797 26 26 20.1797 26 13C26 5.8203 20.1797 0 13 0C5.8203 0 0 5.8203 0 13C0 20.1797 5.8203 26 13 26Z" fill="#BB1B21"/>
<path fill-rule="evenodd" clip-rule="evenodd" d="M11.8983 4.58409C12.2695 4.41759 12.5913 4.13679 12.9781 4.01349C13.0814 4.60569 13.0155 5.20869 13.0329 5.80539C13.0256 6.69729 13.0594 7.59009 13.011 8.48019C12.3646 8.81679 11.7456 9.20379 11.1138 9.56649C10.4309 9.95079 9.73051 10.3072 9.07954 10.7437C9.14537 10.7995 9.21394 10.8535 9.28434 10.9039C9.23497 10.9174 9.13531 10.9444 9.08594 10.9579C8.98263 11.2351 9.06217 11.5474 9.0384 11.8372C9.00823 12.9721 9.07314 14.1097 9 15.2437C8.08206 15.6964 7.2144 16.2436 6.31749 16.7368C5.89691 17.0005 5.44251 17.2102 5.03109 17.4892L5.03017 17.4901C5.04023 14.4886 5.01554 11.4808 5.04389 8.48289C7.32594 7.17969 9.61714 5.88999 11.8983 4.58409Z" fill="#D11D23"/>
<path fill-rule="evenodd" clip-rule="evenodd" d="M16.8519 10.6942C16.9159 10.7815 16.8729 10.9165 16.8903 11.02C16.883 12.4231 16.8738 13.8271 16.9022 15.2311C15.9449 15.8863 14.8917 16.3921 13.8923 16.9825C13.5751 17.1499 13.2871 17.3776 12.947 17.4982C12.9067 17.4829 12.8263 17.4514 12.7861 17.4352C12.9022 17.4118 12.9534 17.3443 12.9406 17.2309C12.9662 15.8224 12.9543 14.413 12.957 13.0036C13.4526 12.703 13.9655 12.4321 14.472 12.1513C15.1623 11.7481 15.8434 11.3314 16.5502 10.9579C16.6718 10.8967 16.7659 10.7968 16.8519 10.6942Z" fill="#D11D23"/>
<path fill-rule="evenodd" clip-rule="evenodd" d="M12.9781 4.01349C13.3666 4.15749 13.6848 4.44369 14.0697 4.59759C16.3399 5.91159 18.6293 7.19229 20.9049 8.49009C20.9433 8.89959 20.9205 9.31809 20.9177 9.72939C20.8693 9.88419 20.8592 10.0471 20.8629 10.2082C20.8592 12.5221 20.8757 14.836 20.872 17.149C20.8629 17.2192 20.8446 17.3596 20.8354 17.4289C19.5106 16.7224 18.2315 15.9304 16.9022 15.2311C16.8738 13.8271 16.883 12.4231 16.8903 11.02C16.8729 10.9165 16.9159 10.7815 16.8519 10.6942C16.2073 10.381 15.6158 9.97419 14.9749 9.65469C14.333 9.24249 13.6309 8.92569 13.011 8.48019C13.0594 7.59009 13.0256 6.69729 13.0329 5.80539C13.0155 5.20869 13.0814 4.60569 12.9781 4.01349Z" fill="#BB1B21"/>
<path fill-rule="evenodd" clip-rule="evenodd" d="M9.08594 10.9579C9.13531 10.9444 9.23497 10.9174 9.28434 10.9039C10.0706 11.3332 10.8368 11.7958 11.6121 12.2422C12.0811 12.46 12.509 12.7498 12.957 13.0036C12.9543 14.413 12.9662 15.8224 12.9406 17.2309C12.9534 17.3443 12.9022 17.4118 12.7861 17.4352C11.5381 16.681 10.2416 16.0078 9 15.2437C9.07314 14.1097 9.00823 12.9721 9.0384 11.8372C9.06217 11.5474 8.98263 11.2351 9.08594 10.9579Z" fill="#BB1B21"/>
<path fill-rule="evenodd" clip-rule="evenodd" d="M11.1138 9.56649C11.7456 9.20379 12.3646 8.81679 13.011 8.48019C13.6309 8.92569 14.333 9.24249 14.9749 9.65469C15.6158 9.97419 16.2073 10.381 16.8519 10.6942C16.7659 10.7968 16.6718 10.8967 16.5502 10.9579C15.8434 11.3314 15.1623 11.7481 14.472 12.1513C13.9655 12.4321 13.4526 12.703 12.957 13.0036C12.509 12.7498 12.0811 12.46 11.6121 12.2422C10.8368 11.7958 10.0706 11.3332 9.28434 10.9039C9.21394 10.8535 9.14537 10.7995 9.07954 10.7437C9.73052 10.3072 10.4309 9.95079 11.1138 9.56649Z" fill="#ED4340"/>
<path fill-rule="evenodd" clip-rule="evenodd" d="M20.8629 10.2082C20.8592 10.0471 20.8693 9.8842 20.9177 9.7294C20.9195 12.2917 20.9232 14.8549 20.9223 17.419C20.8793 17.5279 20.7696 17.563 20.6782 17.6206C18.1447 19.084 15.5902 20.5051 13.0549 21.9676C12.6261 21.9415 12.3042 21.55 11.8974 21.415C9.62171 20.0866 7.30126 18.8212 5.03109 17.4892C5.44251 17.2102 5.89691 17.0005 6.31749 16.7368C7.2144 16.2436 8.08206 15.6964 9 15.2437C10.2416 16.0078 11.5381 16.681 12.7861 17.4352C12.8263 17.4514 12.9067 17.4829 12.947 17.4982C13.2871 17.3776 13.5751 17.1499 13.8923 16.9825C14.8917 16.3921 15.9449 15.8863 16.9022 15.2311C18.2315 15.9304 19.5106 16.7224 20.8354 17.4289C20.8446 17.3596 20.8629 17.2192 20.872 17.149C20.8757 14.836 20.8592 12.5221 20.8629 10.2082Z" fill="#ED4340"/>
</svg>
