<svg width="26" height="26" viewBox="0 0 26 26" fill="none" xmlns="http://www.w3.org/2000/svg">
<path opacity="0.2" d="M13 26C20.1797 26 26 20.1797 26 13C26 5.8203 20.1797 0 13 0C5.8203 0 0 5.8203 0 13C0 20.1797 5.8203 26 13 26Z" fill="#1976D2"/>
<path fill-rule="evenodd" clip-rule="evenodd" d="M7.52872 7.17457C8.85636 5.91306 10.6363 5.13724 12.4645 5.02489C14.541 4.87342 16.6551 5.58595 18.2295 6.9456C17.9031 7.83022 17.3577 8.63306 16.7355 9.34062C14.9748 11.3189 12.2356 12.3301 9.61085 12.0748C8.10401 11.9433 6.62703 11.4306 5.37192 10.5844C5.7993 9.29511 6.52747 8.09902 7.52872 7.17457Z" fill="#1976D2"/>
<path fill-rule="evenodd" clip-rule="evenodd" d="M20.3956 9.97351C20.5371 10.2658 20.6196 10.5815 20.7177 10.8894C20.1993 12.0059 19.4519 13.0213 18.5104 13.8171C17.2233 14.9214 15.5877 15.6091 13.9003 15.7691C12.1737 15.9376 10.4059 15.5337 8.8976 14.6846C7.39574 13.8476 6.15342 12.5662 5.33849 11.0544C5.28374 10.9705 5.26667 10.878 5.288 10.7756C5.82347 11.437 6.38098 12.0905 7.06436 12.606C8.49582 13.7396 10.2843 14.408 12.1061 14.5083C13.8334 14.6114 15.5884 14.1925 17.086 13.3243C18.4564 12.5257 19.6389 11.3716 20.3956 9.97351Z" fill="#1976D2"/>
<path fill-rule="evenodd" clip-rule="evenodd" d="M15.9931 11.2343C17.2951 10.3923 18.349 9.19342 19.0729 7.82666C19.3353 8.07484 19.5394 8.39626 19.7385 8.70133C19.2073 9.9671 18.3547 11.0985 17.2802 11.9525C16.0855 12.9118 14.6206 13.5305 13.0996 13.7118C10.2316 14.0851 7.24427 12.904 5.33849 10.7436C5.33067 10.5303 5.48854 10.7223 5.55182 10.7799C7.08782 11.9817 9.01991 12.68 10.9726 12.6864C12.7412 12.7205 14.5132 12.2021 15.9931 11.2343Z" fill="#0D47A1"/>
<path fill-rule="evenodd" clip-rule="evenodd" d="M5.25884 11.4988C5.26097 11.5067 5.26453 11.523 5.26666 11.5316C5.24177 11.5621 5.19271 11.6233 5.16782 11.6539C5.50844 13.5269 6.4528 15.2869 7.848 16.584C9.02631 17.7026 10.5182 18.4869 12.1068 18.8268C14.8695 19.4363 17.9081 18.6398 19.9909 16.7177C20.0372 16.6658 20.0898 16.6224 20.1502 16.589C19.4306 18.0183 18.2757 19.2251 16.8734 19.998C15.395 20.8222 13.6485 21.1522 11.971 20.9289C10.3348 20.722 8.76533 19.9909 7.56426 18.8596C6.45777 17.8405 5.65208 16.5001 5.27093 15.0452C4.98151 13.9543 4.93457 12.8023 5.11306 11.6887C5.12444 11.6048 5.2112 11.5614 5.25884 11.4988Z" fill="#0D47A1"/>
<path fill-rule="evenodd" clip-rule="evenodd" d="M5.21618 11.0537C5.32284 11.0885 5.33849 11.2286 5.38542 11.3168C6.48907 13.8953 8.88338 15.8643 11.6219 16.4624C14.1563 17.054 16.9317 16.451 18.9989 14.8723C19.7797 14.2978 20.4389 13.5753 20.9986 12.7881C20.9893 13.0711 21.01 13.3591 20.9616 13.6386C20.3636 14.6988 19.5536 15.6432 18.5751 16.3692C17.1365 17.4537 15.3353 18.051 13.5333 18.029C11.2457 18.0332 9.0064 17.0099 7.43698 15.3602C6.42009 14.2857 5.64355 12.9644 5.26667 11.5315C5.26453 11.523 5.26098 11.5067 5.25884 11.4988C5.15858 11.3623 5.22969 11.2023 5.21618 11.0537Z" fill="#42A5F5"/>
</svg>
