<svg width="26" height="26" viewBox="0 0 26 26" fill="none" xmlns="http://www.w3.org/2000/svg">
<path opacity="0.2" d="M13 26C20.1797 26 26 20.1797 26 13C26 5.8203 20.1797 0 13 0C5.8203 0 0 5.8203 0 13C0 20.1797 5.8203 26 13 26Z" fill="#505050"/>
<path fill-rule="evenodd" clip-rule="evenodd" d="M15.9472 18.6907C16.1392 18.6032 16.3365 18.5285 16.5371 18.4635C16.5765 18.5307 16.6555 18.6629 16.6949 18.7301C16.4453 18.7248 16.1957 18.7152 15.9472 18.6907Z" fill="#181818"/>
<path fill-rule="evenodd" clip-rule="evenodd" d="M8.92 18.7717C9.09493 18.632 9.304 18.5563 9.52693 18.5435C9.5408 18.6043 9.56746 18.7248 9.58026 18.7856C9.36053 18.7835 9.13973 18.7803 8.92 18.7717Z" fill="#181818"/>
<path fill-rule="evenodd" clip-rule="evenodd" d="M14.6373 6.11146C15.5195 5.75733 16.616 6.24053 16.9509 7.128C17.3701 8.05173 16.8272 9.24426 15.8619 9.54613C14.8368 9.944 13.5984 9.176 13.4757 8.0912C13.3317 7.26133 13.8523 6.39733 14.6373 6.11146Z" fill="#F59F18"/>
<path fill-rule="evenodd" clip-rule="evenodd" d="M18.1616 17.3147C18.4389 17.2795 18.7184 17.2997 18.9968 17.3083C18.7056 18.1787 18.3461 19.0277 17.9717 19.8651C17.6987 19.8587 17.4256 19.8544 17.1525 19.8459C17.4341 18.9829 17.7808 18.1371 18.1616 17.3147Z" fill="#F59F18"/>
<path fill-rule="evenodd" clip-rule="evenodd" d="M19.3275 17.3008C19.6123 17.2976 19.8971 17.2997 20.1819 17.3072C19.9312 18.0976 19.5835 18.8539 19.2805 19.624C19.1653 20.0357 18.6405 19.7968 18.3387 19.8501C18.5979 18.9755 19.0032 18.1531 19.3275 17.3008Z" fill="#F59F18"/>
<path fill-rule="evenodd" clip-rule="evenodd" d="M13.9536 17.4832C14.4571 17.3307 15.0512 17.3424 15.4843 17.6741C15.2933 17.8139 15.1184 17.9888 14.8976 18.0805C14.6032 18.0837 14.2693 17.9472 14.0421 18.2117C14.3515 18.3781 14.7547 18.4368 14.9637 18.744C15.0192 18.9712 14.9893 19.2315 14.8229 19.4075C14.3835 19.9387 13.6027 19.9899 12.9755 19.8373C12.8144 19.7776 12.5733 19.7435 12.5851 19.5216C12.7536 19.368 12.9413 19.2251 13.1547 19.1397C13.4704 19.2027 13.8427 19.3989 14.1008 19.0896C13.7957 18.9157 13.3797 18.8688 13.1781 18.5541C13.0565 18.0464 13.5099 17.624 13.9536 17.4832Z" fill="#F59F18"/>
<path fill-rule="evenodd" clip-rule="evenodd" d="M17.1376 18.1477C16.6661 17.9227 16.0645 18.0101 15.6325 18.2928C15.2549 18.5445 14.9445 19.032 15.1088 19.4949C15.368 19.9728 16.0059 19.9323 16.4656 19.8555C16.5031 19.8418 16.5462 19.8303 16.5908 19.8185C16.7617 19.7731 16.9546 19.7218 16.9403 19.5163C16.8461 19.4375 16.745 19.369 16.6437 19.3004C16.6188 19.2835 16.5939 19.2667 16.5691 19.2496C16.3749 19.2933 16.1797 19.3317 15.9835 19.3616C15.9408 19.3072 15.8533 19.1984 15.8096 19.144C16.1531 19.1337 16.4967 19.1335 16.8402 19.1334C16.9948 19.1333 17.1494 19.1333 17.304 19.1323C17.4 18.8037 17.5013 18.3504 17.1376 18.1477ZM16.6949 18.7301C16.4453 18.7248 16.1957 18.7152 15.9472 18.6907C16.1392 18.6032 16.3365 18.5285 16.5371 18.4635C16.5568 18.4971 16.5864 18.5469 16.616 18.5968C16.6456 18.6467 16.6752 18.6965 16.6949 18.7301Z" fill="#F59F18"/>
<path fill-rule="evenodd" clip-rule="evenodd" d="M14.4592 10.9616C15.8757 10.6746 17.2912 11.2538 18.4421 12.0442C18.9083 12.3802 19.3936 12.7152 19.7616 13.1621C20.12 13.656 19.6272 14.3866 19.0459 14.2992C18.6107 14.1989 18.3493 13.7946 17.9963 13.5536C17.0715 12.8538 15.9355 12.1925 14.7301 12.4261C13.7285 12.6629 13.0928 13.5578 12.2075 14.0197C11.2144 14.601 10.0069 14.5765 8.9104 14.3653C7.92373 14.1605 6.95093 13.7626 6.1936 13.0842C5.82026 12.7557 5.91946 12.057 6.3888 11.8682C6.6448 11.721 6.9584 11.8 7.17386 11.9813C8.10826 12.7589 9.36586 13.0597 10.5605 13.0085C11.5792 12.9296 12.2597 12.0933 13.0608 11.5674C13.4843 11.2805 13.9579 11.0661 14.4592 10.9616Z" fill="white"/>
<path fill-rule="evenodd" clip-rule="evenodd" d="M12.4336 17.4352C12.7312 17.2581 13.0907 17.2933 13.4203 17.3221C13.3637 17.497 13.2987 17.6698 13.2325 17.8416C13.1163 17.8544 12.9989 17.8672 12.8827 17.88C12.8251 17.9632 12.7685 18.0474 12.7109 18.1317C12.8091 18.1413 13.0064 18.1616 13.1056 18.1712C13.0459 18.3376 12.984 18.504 12.9232 18.6704C12.792 18.6704 12.6608 18.6714 12.5296 18.6714C12.3589 19.0629 12.2021 19.4586 12.0421 19.8544C11.7744 19.8576 11.5067 19.8565 11.24 19.848C11.3531 19.4768 11.5024 19.1194 11.6517 18.7621C11.5152 18.5978 11.5589 18.3941 11.5813 18.201C11.6528 18.1829 11.7957 18.1466 11.8672 18.1285C12.0176 17.8714 12.1595 17.5813 12.4336 17.4352Z" fill="white"/>
<path fill-rule="evenodd" clip-rule="evenodd" d="M7.23466 17.5109C7.64746 17.4032 8.072 17.5291 8.4496 17.6997C8.28106 17.8875 8.0848 18.0432 7.88533 18.1957C7.6432 18.1125 7.39253 18.0443 7.14826 18.1605C7.15573 18.2053 7.1696 18.2939 7.17706 18.3387C7.53013 18.4464 7.90773 18.5925 8.04106 18.9723C7.784 19.9888 6.44213 20.1285 5.656 19.6624C5.66666 19.6219 5.68906 19.5419 5.69973 19.5013C5.88213 19.3808 6.0624 19.2581 6.24373 19.1376C6.42613 19.2112 6.61173 19.2763 6.7984 19.3339C6.90933 19.2773 7.0192 19.2197 7.12906 19.1611C6.86026 18.9179 6.40373 18.92 6.23733 18.5691C6.16373 18.0005 6.72266 17.5803 7.23466 17.5109Z" fill="white"/>
<path fill-rule="evenodd" clip-rule="evenodd" d="M11.0245 17.3946C11.2987 17.3914 11.5739 17.3946 11.848 17.4138C11.5461 18.2352 11.2091 19.0448 10.8784 19.8554C10.6053 19.8576 10.3312 19.8565 10.0581 19.8469C10.3419 19.016 10.6939 18.2085 11.0245 17.3946Z" fill="white"/>
<path fill-rule="evenodd" clip-rule="evenodd" d="M10.0336 18.1978C9.37866 17.8885 8.504 18.2064 8.17546 18.8474C8.0112 19.1333 8.0016 19.5472 8.30986 19.7392C8.80373 20.0325 9.44266 19.9056 9.92693 19.6517C9.90854 19.6296 9.89044 19.6067 9.8722 19.5836C9.78464 19.4726 9.69396 19.3576 9.5536 19.3178C9.42808 19.3172 9.30334 19.3304 9.17867 19.3436C9.09568 19.3524 9.01272 19.3612 8.9296 19.3658C8.89653 19.3146 8.82933 19.2122 8.79626 19.1621C8.95963 19.1592 9.123 19.1598 9.28636 19.1603C9.60726 19.1613 9.92816 19.1623 10.2491 19.1376C10.2528 19.1101 10.257 19.0816 10.2614 19.0525C10.307 18.7439 10.364 18.3587 10.0336 18.1978ZM9.58026 18.7856C9.36053 18.7834 9.13973 18.7802 8.92 18.7717C9.09493 18.632 9.304 18.5562 9.52693 18.5434C9.5408 18.6042 9.56746 18.7248 9.58026 18.7856Z" fill="white"/>
</svg>
