<svg width="26" height="26" viewBox="0 0 26 26" fill="none" xmlns="http://www.w3.org/2000/svg">
<path opacity="0.2" d="M13 26C20.1797 26 26 20.1797 26 13C26 5.8203 20.1797 0 13 0C5.8203 0 0 5.8203 0 13C0 20.1797 5.8203 26 13 26Z" fill="#E2A53E"/>
<path fill-rule="evenodd" clip-rule="evenodd" d="M15.5751 13.096L13.0282 19.0992L10.4125 13.096L8.96697 12.4607L12.274 20.2174C12.3381 20.3695 12.4245 20.5106 12.5302 20.6359C12.6272 20.7496 12.7574 20.8747 12.9125 20.956C12.9857 20.9947 13.0728 20.9942 13.1456 20.9544C13.3058 20.8668 13.5957 20.6477 13.7862 20.1591L17.1599 12.4605L8.96697 9.84822L8.27858 8.152H17.7778L16.8829 10.3416L17.847 10.6946L18.9483 8.1531C18.9483 8.1531 19.1358 7.57623 18.7376 7.2156C18.5925 7.08813 18.4071 7.01928 18.2162 7.02192H7.80626C7.62152 7.0199 7.44251 7.08776 7.30342 7.21253C7.13345 7.36875 6.96477 7.62728 7.0395 8.01069L8.0516 10.4124C8.10845 10.5469 8.21887 10.6499 8.3548 10.6952L15.5751 13.096Z" fill="#E2A53E"/>
</svg>
