<svg width="26" height="26" viewBox="0 0 26 26" fill="none" xmlns="http://www.w3.org/2000/svg">
<path opacity="0.2" d="M13 26C20.1797 26 26 20.1797 26 13C26 5.8203 20.1797 0 13 0C5.8203 0 0 5.8203 0 13C0 20.1797 5.8203 26 13 26Z" fill="#2DC0CB"/>
<path fill-rule="evenodd" clip-rule="evenodd" d="M7.89899 10.6436L13.5926 4.95L19.2675 10.625L13.5739 16.3186L7.89899 10.6436Z" fill="#2DC0CB"/>
<path fill-rule="evenodd" clip-rule="evenodd" d="M7.82484 16.319L13.4998 10.644L19.1748 16.319L13.4998 21.994L7.82484 16.319Z" fill="#964A9C"/>
<path fill-rule="evenodd" clip-rule="evenodd" d="M10.6997 13.4444L13.5001 10.6441L16.3747 13.5187L13.5743 16.3191L10.6997 13.4444Z" fill="#2E5670"/>
<path fill-rule="evenodd" clip-rule="evenodd" d="M7.89911 10.6439L10.6996 13.4444L13.5 10.6439H7.89911Z" fill="#79CDD0"/>
<path fill-rule="evenodd" clip-rule="evenodd" d="M19.1751 16.319L16.3746 13.5185L13.5742 16.319H19.1751Z" fill="#B28ABF"/>
</svg>
