<svg width="26" height="26" viewBox="0 0 26 26" fill="none" xmlns="http://www.w3.org/2000/svg">
<path opacity="0.2" d="M13 26C20.1797 26 26 20.1797 26 13C26 5.8203 20.1797 0 13 0C5.8203 0 0 5.8203 0 13C0 20.1797 5.8203 26 13 26Z" fill="#0072FF"/>
<path fill-rule="evenodd" clip-rule="evenodd" d="M15.0955 7.33966L9.69804 19H9.49441C8.99315 19 8.51427 18.9039 8.07343 18.7341L13.5045 7C14.0706 7.00223 14.6077 7.12291 15.0955 7.33966ZM7.82727 18.6313C6.45552 17.9989 5.5 16.6134 5.5 15C5.5 12.7899 7.28797 11 9.49441 11C9.49441 8.88603 11.1324 7.16089 13.2046 7.01341L7.82727 18.6313ZM15.825 19H14.4287L18.1076 11.0514C18.5394 11.1207 18.9467 11.2547 19.3204 11.4492L15.825 19ZM12.2692 19H13.782L17.4855 11C17.4855 10.2514 17.2773 9.55419 16.9193 8.95531L12.2692 19ZM21.2337 13.6302C21.3903 14.0592 21.4799 14.5196 21.4799 15.0022C21.4799 16.7229 20.3901 18.1888 18.8617 18.752L21.2337 13.6302ZM17.8748 18.9799L20.7705 12.7274C20.5333 12.381 20.2401 12.0793 19.909 11.8246L16.5881 19H17.4855C17.6152 19 17.7473 18.9933 17.8748 18.9799ZM10.1098 19H11.7411L16.6038 8.49497C16.2815 8.09497 15.8832 7.75754 15.4312 7.50503L10.1098 19Z" fill="#0072FF"/>
</svg>
