<svg width="26" height="26" viewBox="0 0 26 26" fill="none" xmlns="http://www.w3.org/2000/svg">
<path opacity="0.2" d="M13 26C20.1797 26 26 20.1797 26 13C26 5.8203 20.1797 0 13 0C5.8203 0 0 5.8203 0 13C0 20.1797 5.8203 26 13 26Z" fill="#FFC53B"/>
<path fill-rule="evenodd" clip-rule="evenodd" d="M10.9257 5.26208C12.8157 4.7984 14.8543 4.9928 16.6314 5.79056C18.4229 6.59552 19.9371 8.0096 20.8629 9.752C21.8729 11.624 22.17 13.8661 21.7129 15.944C21.27 18.0306 20.0414 19.9285 18.3471 21.2029C16.7871 22.3952 14.8214 23.0374 12.8629 22.9885C10.4143 22.9813 8.00571 21.8667 6.37857 20.0278C4.95286 18.4482 4.11714 16.3414 4.08571 14.2059C4.03286 12.2389 4.64714 10.2618 5.81286 8.68208C7.04714 6.98432 8.88857 5.74016 10.9257 5.26208ZM8.21571 8.25008C6.62 9.57344 5.66428 11.5851 5.53143 13.6544C6.16143 12.4506 7.14 11.4138 8.38428 10.8536C10.1071 10.0486 12.2043 10.1768 13.8357 11.1517C14.3886 10.7946 14.8357 10.1523 14.7057 9.46544C14.6014 8.92976 13.7886 8.5352 13.4886 9.1328L13.5377 9.15597C13.776 9.26763 14.1054 9.422 14.02 9.74336C13.9129 10.2762 13.1957 10.1523 12.9229 9.82688C12.4314 9.33152 12.6814 8.46032 13.2357 8.12624C14.0314 7.64384 15.1314 8.14928 15.4629 8.98016C15.7143 9.50864 15.5814 10.1005 15.43 10.6362C16.2453 10.0734 17.0674 9.52075 17.8892 8.96829L17.8894 8.96819L18.2057 8.75552C17.5914 9.70016 16.9743 10.6434 16.3314 11.5693C16.8514 11.4094 17.4343 11.2842 17.9557 11.5117C18.7386 11.8141 19.2443 12.7861 18.9271 13.5925C18.6829 14.2419 17.7786 14.6034 17.2129 14.144C16.8786 13.8978 16.6757 13.2037 17.1529 13.0078C17.5214 12.8264 17.7257 13.2584 17.85 13.5277C18.37 13.2152 18.09 12.4592 17.5771 12.3123C16.8743 12.1323 16.1886 12.5874 15.8371 13.1778C16.5671 14.4378 16.8443 15.9656 16.5357 17.397C16.1914 19.1811 14.9571 20.7392 13.3343 21.5211C16.3029 21.4088 19.0714 19.3424 20.0343 16.5099C20.7471 14.5155 20.56 12.2216 19.53 10.3741C18.4586 8.40848 16.4771 6.97424 14.2814 6.60128C12.1486 6.21104 9.86571 6.83744 8.21571 8.25008ZM6.99428 14.0706C7.64 12.8768 8.86286 12.0258 10.1986 11.8414C12.4243 11.4627 14.7329 13.1115 15.1129 15.3536C15.5686 17.4445 14.2629 19.7182 12.2429 20.3706C10.32 21.0805 8.00857 20.1862 7.02143 18.3862C6.27286 17.0816 6.26143 15.3853 6.99428 14.0706Z" fill="#1E1E1E"/>
<path fill-rule="evenodd" clip-rule="evenodd" d="M10.4786 15.427C11.0043 15.152 11.6871 15.6445 11.6343 16.2277C11.64 16.8944 10.74 17.2947 10.2657 16.8181C9.80571 16.4509 9.93 15.633 10.4786 15.427Z" fill="#1E1E1E"/>
<path fill-rule="evenodd" clip-rule="evenodd" d="M8.21571 8.25007C9.86571 6.83743 12.1486 6.21103 14.2814 6.60127C16.4771 6.97423 18.4586 8.40847 19.53 10.3741C20.56 12.2216 20.7471 14.5155 20.0343 16.5099C19.0714 19.3424 16.3029 21.4088 13.3343 21.5211C14.9571 20.7392 16.1914 19.1811 16.5357 17.397C16.8443 15.9656 16.5671 14.4378 15.8371 13.1778C16.1886 12.5874 16.8743 12.1323 17.5771 12.3123C18.09 12.4592 18.37 13.2152 17.85 13.5277C17.7257 13.2584 17.5214 12.8264 17.1529 13.0078C16.6757 13.2037 16.8786 13.8978 17.2129 14.144C17.7786 14.6034 18.6829 14.2419 18.9271 13.5925C19.2443 12.7861 18.7386 11.8141 17.9557 11.5117C17.4343 11.2842 16.8514 11.4094 16.3314 11.5693C16.9743 10.6434 17.5914 9.70015 18.2057 8.75551C17.2786 9.37903 16.35 10.0011 15.43 10.6362C15.5814 10.1005 15.7143 9.50863 15.4629 8.98015C15.1314 8.14927 14.0314 7.64383 13.2357 8.12623C12.6814 8.46031 12.4314 9.33151 12.9229 9.82687C13.1957 10.1523 13.9129 10.2762 14.02 9.74335C14.1114 9.39919 13.7271 9.24655 13.4886 9.13279C13.7886 8.53519 14.6014 8.92975 14.7057 9.46543C14.8357 10.1523 14.3886 10.7946 13.8357 11.1517C12.2043 10.1768 10.1071 10.0486 8.38428 10.8536C7.14 11.4138 6.16143 12.4506 5.53143 13.6544C5.66428 11.5851 6.62 9.57343 8.21571 8.25007Z" fill="#FFC53B"/>
<path fill-rule="evenodd" clip-rule="evenodd" d="M15.1129 15.3536C14.7329 13.1115 12.4243 11.4627 10.1986 11.8414C8.86285 12.0258 7.64 12.8768 6.99428 14.0706C6.26143 15.3853 6.27285 17.0816 7.02143 18.3862C8.00857 20.1862 10.32 21.0805 12.2429 20.3706C14.2629 19.7182 15.5686 17.4445 15.1129 15.3536ZM10.2657 16.8181C9.80571 16.4509 9.93 15.633 10.4786 15.427C11.0043 15.152 11.6871 15.6445 11.6343 16.2277C11.64 16.8944 10.74 17.2947 10.2657 16.8181Z" fill="#FFC53B"/>
</svg>
