<svg width="26" height="26" viewBox="0 0 26 26" fill="none" xmlns="http://www.w3.org/2000/svg">
<path opacity="0.2" d="M13 26C20.1797 26 26 20.1797 26 13C26 5.8203 20.1797 0 13 0C5.8203 0 0 5.8203 0 13C0 20.1797 5.8203 26 13 26Z" fill="#0082C6"/>
<path fill-rule="evenodd" clip-rule="evenodd" d="M14.5307 12.8254C22.4035 14.2485 11.6924 22.2441 4 15.0058C13.0725 20.8105 17.7453 15.3557 14.4627 12.9734C14.4246 12.9455 14.4164 12.8933 14.4454 12.8568C14.4654 12.8315 14.498 12.8193 14.5307 12.8254Z" fill="#0082C6"/>
<path fill-rule="evenodd" clip-rule="evenodd" d="M10.149 9.64148C3.33713 11.8201 11.1411 16.9599 11.8184 14.3634C11.8302 14.319 11.803 14.2729 11.7559 14.2616C11.7405 14.2572 11.7232 14.2581 11.7078 14.2625C10.7058 14.588 5.18429 13.0448 10.149 9.64148Z" fill="#0082C6"/>
<path fill-rule="evenodd" clip-rule="evenodd" d="M21.9937 10.9506C16.0958 6.74477 5.02831 10.2133 10.7375 13.1823C10.7801 13.2041 10.8327 13.1884 10.8554 13.1475C10.8681 13.1248 10.869 13.097 10.8581 13.0735C8.53582 8.16875 20.3297 9.66063 21.9937 10.9506Z" fill="#0082C6"/>
<path fill-rule="evenodd" clip-rule="evenodd" d="M17.0996 17.0617C20.2172 15.6438 17.6818 10.793 13.5577 11.7296C13.5105 11.7392 13.4643 11.7104 13.4543 11.666C13.4471 11.6356 13.4588 11.6042 13.4842 11.5842C16.6934 9.17233 22.7164 14.8013 17.0996 17.0617Z" fill="#0082C6"/>
</svg>
