<svg width="26" height="26" viewBox="0 0 26 26" fill="none" xmlns="http://www.w3.org/2000/svg">
<path opacity="0.2" d="M13 26C20.1797 26 26 20.1797 26 13C26 5.8203 20.1797 0 13 0C5.8203 0 0 5.8203 0 13C0 20.1797 5.8203 26 13 26Z" fill="#2C58A7"/>
<path fill-rule="evenodd" clip-rule="evenodd" d="M11.8498 5.29427C12.739 5.2954 13.6283 5.29313 14.5176 5.2954C14.3104 6.21567 14.1144 7.13707 13.915 8.05847C15.0003 8.0562 16.0856 8.05847 17.1698 8.05733C16.9827 8.82913 16.808 9.60547 16.6243 10.3784C15.5413 10.375 14.4582 10.3818 13.3752 10.3739C13.0582 11.8087 12.7536 13.2457 12.44 14.6805C12.3762 15.0194 12.3123 15.4047 12.5083 15.713C12.6797 15.9884 13.0213 16.0757 13.3237 16.0734C14.1984 16.0779 15.0742 16.0711 15.9501 16.0745C15.7586 16.8656 15.5872 17.6623 15.4024 18.4545C14.3451 18.4489 13.289 18.4625 12.2317 18.4489C11.404 18.4126 10.4878 18.212 9.93568 17.5343C9.49104 16.9937 9.47424 16.2366 9.60416 15.5781C9.98048 13.8441 10.3534 12.109 10.7298 10.375C9.76992 10.3784 8.80896 10.3773 7.84912 10.3761C8.02496 9.6032 8.19408 8.82913 8.37216 8.05733C9.33088 8.0596 10.2896 8.0528 11.2472 8.06073C11.451 7.13933 11.6482 6.2168 11.8498 5.29427Z" fill="#2C58A7"/>
<path fill-rule="evenodd" clip-rule="evenodd" d="M15.2926 5.16393C15.4326 5.4688 15.5726 5.77253 15.7182 6.074C15.6242 6.49107 15.5346 6.90927 15.4472 7.32747C15.2344 7.32973 15.0216 7.32973 14.8077 7.33087C14.9757 6.60893 15.1134 5.88247 15.2926 5.16393Z" fill="#2C58A7"/>
<path fill-rule="evenodd" clip-rule="evenodd" d="M17.9325 7.92474C18.0803 8.23414 18.2259 8.54467 18.367 8.85747C18.1419 9.81627 17.9123 10.7751 17.6973 11.7361C16.6131 11.7441 15.5301 11.7361 14.4459 11.7407C14.1928 12.9488 13.9195 14.1513 13.6686 15.3594C13.4659 15.356 13.2621 15.3345 13.0661 15.2767C13.3382 13.8827 13.6563 12.4977 13.9565 11.1094C15.035 11.1151 16.1147 11.106 17.1933 11.1139C17.4419 10.052 17.6995 8.9912 17.9325 7.92474Z" fill="#2C58A7"/>
<path fill-rule="evenodd" clip-rule="evenodd" d="M7.55344 11.1083C8.3128 11.1139 9.07328 11.1105 9.83376 11.1117C9.78672 11.3202 9.73968 11.5299 9.69376 11.7395C9.2536 11.7305 8.81232 11.7599 8.37328 11.7293C8.07312 11.5627 7.8256 11.3168 7.55344 11.1083Z" fill="#2C58A7"/>
<path fill-rule="evenodd" clip-rule="evenodd" d="M15.9758 19.1912C16.2155 18.1055 16.4854 17.0277 16.7038 15.9385C16.8472 16.2491 17.041 16.5437 17.1261 16.8792C16.9424 17.8641 16.6814 18.8342 16.4754 19.8145C15.1829 19.8134 13.8893 19.8293 12.5957 19.8009C11.4488 19.7601 10.2347 19.3091 9.60416 18.2845C9.9928 18.5633 10.4016 18.8285 10.8664 18.9589C11.7725 19.2626 12.7368 19.1538 13.6742 19.1799C14.4414 19.2082 15.2086 19.2025 15.9758 19.1912Z" fill="#2C58A7"/>
</svg>
