<svg width="26" height="26" viewBox="0 0 26 26" fill="none" xmlns="http://www.w3.org/2000/svg">
<path opacity="0.2" d="M13 26C20.1797 26 26 20.1797 26 13C26 5.8203 20.1797 0 13 0C5.8203 0 0 5.8203 0 13C0 20.1797 5.8203 26 13 26Z" fill="#4B5892"/>
<path fill-rule="evenodd" clip-rule="evenodd" d="M21.9375 9.15119L21.9018 8.57675L21.7246 9.05856L20.7285 9.89544L19.5878 10.0653L19.2465 9.74919L20.2467 8.42237L21.2704 8.125L20.1622 8.14775L18.551 9.27062L17.0406 9.16663L14.9199 8.125L13.6671 8.36794L9.75812 11.4928L7.87475 12.0754L7.09963 12.8318L5.7135 12.8505L5.02694 14.0774L4.0625 14.3439L4.97413 14.4633L5.82156 13.364L7.13131 13.6264L7.10694 14.8029L6.45287 16.4962L6.07912 18.0627L5.67694 18.6875L6.69744 18.4714L6.58125 17.8311L7.449 16.1102L9.1195 15.4627L9.76625 14.4324L10.8591 13.6687L13.0284 13.9734L15.2133 13.0512L14.8436 14.5096L13.8718 14.5941L13.5948 15.7901L14.4259 15.2579L15.8039 14.6835L16.8805 13.0593L16.9487 12.2915L17.5273 12.8659L19.2099 13.8808L20.1663 13.4444L20.1102 11.3003L19.8323 10.4707L21.0819 10.166L21.9375 9.15119Z" fill="white"/>
</svg>
