<svg width="26" height="26" viewBox="0 0 26 26" fill="none" xmlns="http://www.w3.org/2000/svg">
<path opacity="0.2" d="M13 26C20.1797 26 26 20.1797 26 13C26 5.8203 20.1797 0 13 0C5.8203 0 0 5.8203 0 13C0 20.1797 5.8203 26 13 26Z" fill="#0052CC"/>
<path fill-rule="evenodd" clip-rule="evenodd" d="M12.6587 5.16973C13.0325 4.93557 13.5337 5.15486 13.7125 5.52902C15.635 8.83203 17.5662 12.1313 19.4837 15.438C19.8087 15.9411 19.32 16.6398 18.735 16.558C18.2612 16.4973 18.0737 16.0216 17.8625 15.6648C16.9137 14.043 15.9812 12.4113 15.0175 10.7982C14.7825 10.3671 14.085 10.3547 13.8275 10.7685C13.1962 11.7683 12.6575 12.8251 12.0162 13.8188C11.7012 14.2821 10.9287 14.1644 10.7287 13.6577C10.5212 13.234 10.865 12.8412 11.0562 12.4857C11.8525 11.0956 12.6937 9.72902 13.46 8.32406C13.4512 7.95734 13.1762 7.66743 13.0187 7.3515C12.7962 6.95628 12.55 6.57468 12.3387 6.17327C12.1512 5.82389 12.2912 5.34194 12.6587 5.16973Z" fill="#0052CC"/>
<path fill-rule="evenodd" clip-rule="evenodd" d="M10.8137 8.04406C10.97 7.74548 11.2512 7.46176 11.62 7.50512C12.1788 7.51132 12.54 8.21504 12.2063 8.66725C11.19 10.429 10.155 12.1796 9.1375 13.9389C8.8475 14.3453 9.09 14.997 9.61 15.0478C10.7812 15.1085 11.9575 15.0416 13.13 15.075C13.615 15.0465 14.035 15.5867 13.8612 16.0414C13.7712 16.3536 13.4587 16.5717 13.1337 16.568C11.325 16.6014 9.51125 16.537 7.705 16.5965C7.27625 16.9334 7.105 17.4897 6.80875 17.9333C6.55625 18.3099 6.3925 18.8885 5.87375 18.9653C5.465 19.0471 5.1075 18.7336 5 18.3619V18.103C5.22125 17.5765 5.545 17.1007 5.82625 16.6051C7.4875 13.7506 9.155 10.8998 10.8137 8.04406Z" fill="#0052CC"/>
<path fill-rule="evenodd" clip-rule="evenodd" d="M14.0363 12.4671C14.4075 12.2267 14.915 12.4212 15.1025 12.8003C15.9525 14.2412 16.7875 15.692 17.6325 17.1366C17.725 17.2828 17.8263 17.4699 18.0275 17.465C18.7688 17.517 19.5125 17.4538 20.2525 17.491C20.64 17.5133 20.9875 17.8713 20.9638 18.2603C20.9625 18.6791 20.5588 19.0322 20.14 18.9814C16.2975 18.9839 12.455 18.9839 8.61376 18.9814C8.20126 19.0248 7.81626 18.6692 7.81376 18.2628C7.78751 17.8366 8.19251 17.4625 8.61501 17.4835C10.7 17.4749 12.7863 17.4922 14.87 17.4761C15.37 17.4848 15.7363 16.8628 15.4613 16.4403C14.9125 15.4579 14.3263 14.4965 13.7713 13.5189C13.5388 13.1745 13.6625 12.6591 14.0363 12.4671Z" fill="#0052CC"/>
</svg>
