<svg width="26" height="26" viewBox="0 0 26 26" fill="none" xmlns="http://www.w3.org/2000/svg">
<path opacity="0.1" d="M13 26C20.1797 26 26 20.1797 26 13C26 5.8203 20.1797 0 13 0C5.8203 0 0 5.8203 0 13C0 20.1797 5.8203 26 13 26Z" fill="#BEBEBE"/>
<path fill-rule="evenodd" clip-rule="evenodd" d="M6.50831 7.6953C7.11971 7.68893 7.73047 7.68893 8.34123 7.69466C8.34123 9.42295 8.32737 11.1512 8.32611 12.8795C8.33304 13.434 8.34754 14.0438 8.69609 14.5041C8.9854 14.8796 9.48397 14.9853 9.93086 14.986C10.367 14.9872 10.8549 14.9045 11.1574 14.5569C11.4852 14.166 11.5577 13.6288 11.5551 13.1335C11.5577 11.3199 11.5457 9.50698 11.5438 7.69339C12.1552 7.69021 12.766 7.69021 13.3774 7.69339C13.3748 9.50825 13.366 11.3231 13.3616 13.1386C13.3591 14.0387 13.1832 15.0261 12.5164 15.6785C11.8369 16.3431 10.841 16.5048 9.93212 16.5182C9.04087 16.4991 8.06768 16.3406 7.39893 15.6925C6.89469 15.2291 6.66967 14.5448 6.57513 13.8815C6.45978 12.6752 6.52029 11.4613 6.50957 10.2505C6.52092 9.39876 6.50894 8.54703 6.50831 7.6953Z" fill="white"/>
<path fill-rule="evenodd" clip-rule="evenodd" d="M15.9824 10.267C16.3606 9.92903 16.8711 9.7667 17.3728 9.7858C17.9899 9.7597 18.6246 9.9564 19.0835 10.3823C19.4585 10.7458 19.5764 11.2926 19.6003 11.798C19.6066 12.828 19.5884 13.8579 19.6142 14.8873C19.6092 15.3533 19.6161 15.8199 19.6155 16.2865C19.0457 16.2909 18.4759 16.2903 17.9061 16.2865C17.9036 14.8816 17.9193 13.4766 17.901 12.0724C17.8891 11.7051 17.6546 11.3346 17.2934 11.2334C16.8825 11.1188 16.3997 11.1487 16.0524 11.4199C15.7694 11.651 15.6219 12.0189 15.5872 12.3779C15.5519 13.6797 15.5834 14.9834 15.5765 16.2858C15.0199 16.2903 14.4627 16.2928 13.9062 16.2852C13.915 15.1782 13.915 14.0706 13.9188 12.9636C13.9308 11.9578 13.9106 10.9514 13.9125 9.94494C14.4482 9.94431 14.9846 9.94112 15.5204 9.94685C15.5153 10.2448 15.5122 10.5427 15.5128 10.8406C15.6622 10.6439 15.7977 10.4332 15.9824 10.267Z" fill="white"/>
<path fill-rule="evenodd" clip-rule="evenodd" d="M7.75757 17.9314C7.84077 17.9326 7.9246 17.9346 8.00843 17.9365C8.01852 18.3369 7.99898 18.7379 8.01726 19.1383C8.02482 19.3267 8.14269 19.5476 8.35195 19.5521C8.5776 19.5966 8.85304 19.498 8.89086 19.2414C8.92237 18.8086 8.89527 18.3732 8.90346 17.9396C8.98729 17.9365 9.07112 17.9333 9.15495 17.9314C9.16 18.3496 9.16945 18.7685 9.14676 19.1861C9.1373 19.4591 8.94191 19.722 8.67025 19.7723C8.42254 19.8207 8.12252 19.8029 7.94225 19.6024C7.78278 19.4458 7.75631 19.2071 7.75505 18.9944C7.75253 18.6399 7.74938 18.2853 7.75757 17.9314Z" fill="white"/>
<path fill-rule="evenodd" clip-rule="evenodd" d="M11.7978 17.9282C11.7178 17.932 11.6384 17.9371 11.5583 17.9428C11.5602 18.0276 11.5597 18.1124 11.5592 18.1971V18.1972C11.558 18.4002 11.5568 18.6031 11.5879 18.8047C11.4499 18.4954 11.0881 18.2808 10.7603 18.4171C10.3481 18.5743 10.2813 19.1339 10.4509 19.491C10.599 19.8309 11.0799 19.8876 11.349 19.6667C11.4158 19.603 11.4617 19.5229 11.5074 19.4432C11.5239 19.4144 11.5403 19.3858 11.5577 19.3579C11.5583 19.4884 11.5652 19.6189 11.5835 19.7481C11.6078 19.7478 11.6442 19.7477 11.6806 19.7475C11.717 19.7474 11.7534 19.7472 11.7776 19.7469L11.8029 19.6202C11.9812 19.8385 12.3367 19.8449 12.5258 19.638C12.7408 19.3783 12.8151 18.9543 12.6172 18.6679C12.626 18.6616 12.6349 18.6543 12.6441 18.647C12.6957 18.6054 12.754 18.5584 12.8183 18.6335C12.8261 18.7561 12.8217 18.8804 12.8174 19.0047V19.0047C12.8091 19.242 12.8008 19.4795 12.8769 19.7055C13.0193 19.7749 13.1927 19.8061 13.3143 19.6794C13.5286 19.8742 13.8703 19.794 14.0518 19.5922C14.1171 19.8103 14.3237 19.7782 14.5113 19.7491C14.5701 19.7399 14.627 19.7311 14.677 19.7303C14.6796 19.6304 14.6772 19.5297 14.6749 19.4291C14.6702 19.2291 14.6656 19.0288 14.6991 18.8328C14.759 18.6252 14.989 18.5883 15.1706 18.631C15.1803 18.6476 15.1913 18.664 15.2025 18.6806C15.239 18.735 15.2766 18.7908 15.2708 18.8601C15.2755 19.03 15.2748 19.1999 15.274 19.3699V19.3699V19.37C15.2735 19.4942 15.273 19.6186 15.2746 19.7431L15.3924 19.7453L15.5072 19.7475C15.5046 19.6287 15.5069 19.5095 15.5093 19.3902C15.5139 19.1516 15.5185 18.9128 15.4845 18.6768C15.405 18.319 14.8857 18.3044 14.6896 18.5686C14.6821 18.4247 14.5718 18.4031 14.452 18.405C14.4362 18.6378 14.4384 18.8713 14.4406 19.1048V19.1048V19.1048C14.4422 19.2716 14.4438 19.4383 14.4388 19.6049L14.3672 19.5842L14.2957 19.5635C14.2733 19.4247 14.2782 19.283 14.2831 19.1416C14.2895 18.9561 14.2959 18.7711 14.2409 18.5934C14.0285 18.3025 13.4832 18.3101 13.2935 18.6252L13.2763 18.5469C13.2672 18.5052 13.2575 18.4608 13.2513 18.433C13.1845 18.4215 13.1177 18.4126 13.0502 18.4069C13.0521 18.2847 13.049 18.1631 13.0383 18.0415L12.812 18.0682C12.8139 18.179 12.8158 18.2898 12.8183 18.4005L12.616 18.4565L12.6903 18.5788C12.6717 18.573 12.6439 18.5641 12.616 18.5552L12.616 18.5552L12.6159 18.5552C12.588 18.5463 12.5602 18.5374 12.5416 18.5317C12.3443 18.3159 11.997 18.3496 11.7991 18.5469C11.8003 18.3407 11.7997 18.1344 11.7978 17.9282ZM13.2935 18.6252L13.2674 18.7271L13.2412 18.8289L13.4467 18.834C13.5078 18.4998 14.1003 18.5081 14.0688 18.8843C13.9647 18.9339 13.8498 18.9482 13.7355 18.9625C13.584 18.9814 13.4334 19.0002 13.3105 19.1008C13.1933 19.1961 13.1905 19.3481 13.1879 19.4901C13.1873 19.5205 13.1868 19.5505 13.1851 19.5795L13.1183 19.5435L13.0515 19.5075C13.0499 19.3605 13.0498 19.2136 13.0496 19.0667C13.0494 18.9198 13.0493 18.7729 13.0477 18.6259C13.1296 18.6246 13.2116 18.6246 13.2935 18.6252ZM11.8117 19.3006C11.7606 19.0606 11.7713 18.6984 12.0569 18.6195C12.2378 18.5571 12.4281 18.6959 12.4634 18.878C12.5132 19.0982 12.5025 19.3923 12.2983 19.5317C12.1098 19.6527 11.847 19.519 11.8117 19.3006ZM10.8814 18.6112C10.6381 18.6653 10.5965 18.9703 10.6091 19.1803C10.6091 19.3936 10.7742 19.6215 11.0055 19.5858C11.3125 19.5521 11.3623 19.1733 11.3264 18.9263C11.3194 18.7054 11.0919 18.5342 10.8814 18.6112ZM13.6503 19.5877C13.4606 19.6176 13.3547 19.3547 13.499 19.2332C13.6133 19.1562 13.7509 19.1472 13.8871 19.1382C13.9448 19.1344 14.0022 19.1307 14.0575 19.1218C14.1041 19.3719 13.9037 19.6062 13.6503 19.5877Z" fill="white"/>
<path fill-rule="evenodd" clip-rule="evenodd" d="M15.5777 17.9326C15.6572 17.9352 15.7366 17.9377 15.8166 17.9403C15.816 18.023 15.8154 18.1058 15.8154 18.1892C15.7366 18.1917 15.6578 18.1943 15.579 18.1968C15.5777 18.1083 15.5777 18.0205 15.5777 17.9326Z" fill="white"/>
<path fill-rule="evenodd" clip-rule="evenodd" d="M9.48397 18.5749C9.65289 18.4012 9.93716 18.3152 10.1515 18.4572C10.3147 18.5539 10.3242 18.7653 10.3437 18.9346C10.3582 19.2045 10.3172 19.4738 10.3317 19.7443C10.2504 19.7437 10.1697 19.7437 10.0891 19.7424C10.0828 19.428 10.1036 19.1122 10.0771 18.799C10.0494 18.5864 9.77643 18.5756 9.63209 18.6685C9.51486 18.7608 9.49595 18.9168 9.48649 19.0562C9.47578 19.286 9.48649 19.5164 9.47956 19.7462C9.40329 19.7462 9.32703 19.745 9.25013 19.7443C9.24887 19.3032 9.24698 18.862 9.25139 18.4215C9.37934 18.4088 9.52179 18.3929 9.48397 18.5749Z" fill="white"/>
<path fill-rule="evenodd" clip-rule="evenodd" d="M18.0321 18.5858C18.1809 18.4012 18.4607 18.3178 18.6675 18.4534C18.8062 18.5361 18.8421 18.7118 18.8389 18.8633C18.8396 19.1587 18.8389 19.4541 18.8358 19.7494C18.7772 19.7481 18.6599 19.7462 18.6007 19.745C18.5887 19.4114 18.6158 19.0766 18.5862 18.7449C18.5168 18.531 18.1506 18.5972 18.1097 18.8035C18.0303 19.1109 18.0908 19.4356 18.07 19.7494C18.0139 19.7488 17.901 19.7481 17.8443 19.7475C17.804 19.3796 17.9181 18.983 17.7725 18.6348C17.6218 18.596 17.4264 18.6144 17.3647 18.785C17.2701 19.0944 17.3394 19.426 17.3079 19.7443C17.2518 19.7462 17.1403 19.7501 17.0848 19.752C17.0728 19.3064 17.0753 18.8595 17.0829 18.4139C17.2222 18.3827 17.3382 18.4298 17.3357 18.5851C17.4844 18.3286 17.8872 18.3229 18.0321 18.5858Z" fill="white"/>
<path fill-rule="evenodd" clip-rule="evenodd" d="M15.5815 18.4152C15.6401 18.419 15.758 18.4279 15.8166 18.4317C15.8154 18.8678 15.8147 19.3032 15.8154 19.7386C15.7568 19.7424 15.6395 19.7494 15.5809 19.7526C15.5752 19.307 15.5746 18.8608 15.5815 18.4152Z" fill="white"/>
<path fill-rule="evenodd" clip-rule="evenodd" d="M15.9295 18.419C16.0145 18.4203 16.099 18.4254 16.1835 18.4336C16.1904 18.7659 16.1564 19.1014 16.2011 19.4311C16.2162 19.5406 16.3467 19.5444 16.4242 19.589C16.5572 19.5489 16.7035 19.4789 16.7262 19.3229C16.7879 19.0275 16.7419 18.7226 16.7583 18.4234C16.8327 18.4209 16.9077 18.4183 16.9821 18.4164C17.0192 18.8557 16.9884 19.2975 16.9991 19.738C16.9442 19.7386 16.8346 19.7405 16.7797 19.7411C16.7741 19.7023 16.7621 19.6247 16.7564 19.5858C16.568 19.8818 16.0038 19.8487 15.9471 19.4642C15.9036 19.1186 15.9339 18.7666 15.9295 18.419Z" fill="white"/>
<path fill-rule="evenodd" clip-rule="evenodd" d="M21.36 4.63275C21.4866 4.53663 21.7344 4.57801 21.8003 4.70086C21.919 4.8982 21.9052 5.12482 21.867 5.33425C21.8376 5.48639 21.6434 5.64808 21.4181 5.58061C21.2179 5.47748 21.1962 5.27951 21.191 5.11527C21.1988 4.95167 21.1988 4.7607 21.36 4.63275Z" fill="#3B3B3B"/>
</svg>
