<svg width="26" height="26" viewBox="0 0 26 26" fill="none" xmlns="http://www.w3.org/2000/svg">
<path opacity="0.2" d="M13 26C20.1797 26 26 20.1797 26 13C26 5.8203 20.1797 0 13 0C5.8203 0 0 5.8203 0 13C0 20.1797 5.8203 26 13 26Z" fill="#8200FE"/>
<path fill-rule="evenodd" clip-rule="evenodd" d="M6.74526 8.5135C7.53289 8.34624 8.30799 8.12668 9.09341 7.95132C9.39476 7.91375 9.64969 8.20699 9.64821 8.49581C9.65705 9.12356 9.65411 9.75278 9.64674 10.3813C9.34539 10.4564 9.01384 10.477 8.7567 10.6671C8.48261 10.8543 8.29841 11.1777 8.30873 11.5137C8.3021 12.7397 8.31389 13.9657 8.30357 15.191C7.80771 15.3148 7.31627 15.4555 6.81747 15.5668C6.61264 15.6095 6.37244 15.6456 6.1934 15.5101C6.04015 15.3819 6.00921 15.1697 6.01436 14.9818C6.01584 13.0624 6.01731 11.1438 6.01436 9.2245C6.02173 9.07198 6.01215 8.89294 6.12857 8.77579C6.29655 8.61959 6.52791 8.56286 6.74526 8.5135Z" fill="#8200FE"/>
<path fill-rule="evenodd" clip-rule="evenodd" d="M13.2239 8.35657C13.7322 8.20111 14.2583 8.1149 14.7689 7.96754C15.0879 7.86808 15.4453 8.15543 15.4232 8.48993C15.435 9.13462 15.4666 9.78521 15.3981 10.4269C15.0563 10.4741 14.6893 10.5662 14.4668 10.8521C14.1905 11.177 14.231 11.6316 14.2296 12.0295C14.2266 13.0794 14.2414 14.1286 14.2215 15.1778C13.6063 15.2802 13.0176 15.5042 12.4016 15.5985C12.1054 15.6589 11.7775 15.4438 11.7797 15.1269C11.7694 13.1604 11.7797 11.1932 11.7739 9.22672C11.7702 9.02852 11.807 8.78464 12.0089 8.69181C12.3839 8.4914 12.8208 8.47372 13.2239 8.35657Z" fill="#8200FE"/>
<path fill-rule="evenodd" clip-rule="evenodd" d="M20.5343 8.01101C20.8843 7.82166 21.3816 8.08395 21.3543 8.49729C21.361 10.4373 21.3551 12.3772 21.3573 14.3179C21.3588 14.5301 21.3344 14.8153 21.1046 14.9044C20.4768 15.1247 19.8152 15.2227 19.1786 15.4113C18.8434 15.4909 18.5066 15.6051 18.1581 15.6007C17.8833 15.5911 17.6792 15.3244 17.7021 15.0569C17.6888 13.1634 17.7006 11.2691 17.6962 9.37555C17.6991 9.19577 17.694 9.00936 17.7595 8.83843C18.0999 8.48919 18.6253 8.50835 19.0644 8.37941C19.5492 8.23426 20.0473 8.14437 20.5343 8.01101Z" fill="#8200FE"/>
<path fill-rule="evenodd" clip-rule="evenodd" d="M16.0937 10.7644C16.4731 10.6929 16.8371 10.5603 17.2062 10.4513C17.2349 11.9602 17.2069 13.4706 17.2209 14.9803C17.2202 15.3163 17.313 15.6832 17.5879 15.9006C17.7949 16.1194 18.1206 16.084 18.3947 16.1268C18.3924 16.4185 18.4271 16.714 18.3792 17.0043C18.3276 17.3152 17.9673 17.3911 17.7109 17.4581C16.9365 17.6018 16.1791 17.8184 15.4114 17.9894C15.2007 18.0601 14.9546 17.9599 14.8337 17.7786C14.6812 17.5082 14.7387 17.1877 14.7306 16.8923C14.7335 15.1218 14.7254 13.352 14.7306 11.5822C14.7129 11.3619 14.8455 11.1483 15.0474 11.0606C15.3782 10.9095 15.7407 10.8432 16.0937 10.7644Z" fill="#03FEDC"/>
<path fill-rule="evenodd" clip-rule="evenodd" d="M8.92542 11.1328C9.66369 10.8093 10.4756 10.7342 11.2463 10.5183C11.2758 11.8814 11.2515 13.2452 11.2588 14.6082C11.2692 14.8838 11.2235 15.1675 11.292 15.4379C11.4032 15.6309 11.5698 15.7871 11.7385 15.9308C11.9249 16.1142 12.2063 16.0825 12.4451 16.1194C12.4266 16.4782 12.5342 16.8783 12.3522 17.2069C11.9691 17.467 11.4895 17.4736 11.0577 17.6011C10.5596 17.747 10.0527 17.8597 9.54359 17.9621C9.32771 17.993 9.04036 18.01 8.91069 17.7948C8.82596 17.6048 8.82743 17.3918 8.82596 17.1877C8.8348 15.5174 8.81859 13.8471 8.8289 12.1768C8.83701 11.8276 8.78249 11.4636 8.92542 11.1328Z" fill="#03FEDC"/>
</svg>
