<svg width="26" height="26" viewBox="0 0 26 26" fill="none" xmlns="http://www.w3.org/2000/svg">
<path opacity="0.2" d="M13 26C20.1797 26 26 20.1797 26 13C26 5.8203 20.1797 0 13 0C5.8203 0 0 5.8203 0 13C0 20.1797 5.8203 26 13 26Z" fill="#5783CB"/>
<path fill-rule="evenodd" clip-rule="evenodd" d="M13.6723 4H12.997C10.7064 4.1184 8.41262 4.9504 6.73821 6.528C4.93588 8.2112 3.92864 10.676 4.00394 13.1216C4.03066 14.7848 4.59096 16.4176 5.50103 17.8096C6.22245 18.9056 7.13415 19.9056 8.27498 20.5856C9.61499 21.4304 11.1777 21.8784 12.7549 22H13.7241C15.4795 21.9008 17.2373 21.3544 18.6291 20.272C19.4882 19.572 20.2209 18.724 20.8055 17.7888C21.5229 16.6304 22.0532 15.3008 21.9957 13.9224C21.9936 13.8857 21.9916 13.8488 21.9896 13.8118C21.9671 13.3991 21.9438 12.9724 21.7439 12.6016C21.4698 12.677 21.4238 12.982 21.3858 13.2334C21.3803 13.2701 21.3749 13.3057 21.369 13.3392C21.0913 15.8592 19.6768 18.3016 17.4267 19.5848C15.6398 20.616 13.4431 20.9248 11.4368 20.4248C9.71296 20.0184 8.126 19.0328 7.05075 17.636C6.00384 16.2744 5.45245 14.5768 5.36581 12.8784C5.28242 11.2624 5.87915 9.6736 6.81675 8.3688C7.51226 7.3376 8.46039 6.4712 9.57694 5.9024C10.8497 5.2392 12.312 5.0608 13.7322 5.0656C15.4382 5.1112 17.1336 5.7008 18.4599 6.7688C18.4817 6.78497 18.504 6.80221 18.5266 6.81979C18.6745 6.93439 18.8405 7.06312 19.0364 7C19.3084 6.9128 19.3262 6.5216 19.1198 6.356C17.6883 4.9288 15.7013 4.0856 13.6723 4ZM21.8332 8.59971C21.4734 7.96637 20.5109 7.78495 19.9758 8.29734C19.5646 8.64629 19.4814 9.2641 19.7098 9.74053C18.9259 11.227 17.9299 12.6065 16.7479 13.8012L16.5636 13.798C15.9746 13.2897 15.5276 12.6261 15.269 11.8914C15.4166 11.5588 15.455 11.1633 15.2902 10.8282C15.0267 10.2202 14.2183 9.95218 13.6465 10.2889C13.0763 10.5798 12.8642 11.3406 13.1579 11.9012C12.5771 13.3019 11.6904 14.558 10.6397 15.6449C9.56785 14.5106 8.73417 13.1573 8.16724 11.7043C8.36628 11.3643 8.46008 10.9394 8.28715 10.5692C8.05385 9.93421 7.22425 9.62285 6.6353 9.95872C6.06347 10.2398 5.8212 11.0203 6.14504 11.5719C6.36529 12.0091 6.86533 12.2265 7.33764 12.2069C8.26512 13.3983 9.0262 14.7239 9.55969 16.1376C9.40552 16.4335 9.30518 16.7767 9.40878 17.1068C9.56295 17.768 10.3558 18.1872 10.984 17.9167C11.6104 17.6952 11.9547 16.8748 11.5982 16.2929C11.8114 15.7059 12.1555 15.1857 12.4986 14.6671C12.603 14.5091 12.7074 14.3513 12.8079 14.1919C13.193 13.579 13.6693 13.0322 14.1726 12.5158C14.2021 12.5175 14.2324 12.5177 14.263 12.5178C14.3738 12.5182 14.4878 12.5187 14.5748 12.5975C15.1173 12.9979 15.5855 13.57 15.7168 14.245C15.6926 14.3166 15.6609 14.3862 15.6292 14.4557C15.5657 14.5948 15.5023 14.7339 15.499 14.8898C15.4574 15.3719 15.7437 15.8581 16.1842 16.0559C16.6802 16.2945 17.3263 16.1352 17.6428 15.68C17.9071 15.3376 17.9168 14.8669 17.7676 14.4738C18.4422 12.9423 19.3958 11.5286 20.6022 10.3665C20.9138 10.3681 21.2483 10.3444 21.5028 10.1434C21.9849 9.81244 22.1595 9.09739 21.8332 8.59971Z" fill="#5783CB"/>
</svg>
