<svg width="26" height="26" viewBox="0 0 26 26" fill="none" xmlns="http://www.w3.org/2000/svg">
<path opacity="0.2" d="M13 26C20.1797 26 26 20.1797 26 13C26 5.8203 20.1797 0 13 0C5.8203 0 0 5.8203 0 13C0 20.1797 5.8203 26 13 26Z" fill="#23B852"/>
<path fill-rule="evenodd" clip-rule="evenodd" d="M15.1654 15.4236H17.2366V17.2351H11.0136L18.7388 9.5034C18.9907 9.25127 19.0653 8.86842 18.9347 8.5416C18.7947 8.21477 18.4775 8 18.1137 8H8.88634C8.39186 8 8 8.39219 8 8.8871V15.4236L11.8346 11.5857H9.76336V9.76486H15.9771L8.26124 17.4966C8.00933 17.7487 7.93469 18.1316 8.06531 18.4584C8.20526 18.7852 8.52248 19 8.88634 19H18.1137C18.5988 19 19 18.6078 19 18.1129V11.5857L15.1654 15.4236Z" fill="#23B852"/>
</svg>
