<svg width="26" height="26" viewBox="0 0 26 26" fill="none" xmlns="http://www.w3.org/2000/svg">
<path opacity="0.2" d="M13 26C20.1797 26 26 20.1797 26 13C26 5.8203 20.1797 0 13 0C5.8203 0 0 5.8203 0 13C0 20.1797 5.8203 26 13 26Z" fill="#49C1BF"/>
<path fill-rule="evenodd" clip-rule="evenodd" d="M18.9678 12.1854L16.7394 13.1465L10.8278 16.0572L16.7394 18.8066V14.262L18.9678 13.2906V20.0046L16.7394 20.9657L8.03523 16.9359V14.7941L14.0604 11.9348L8.03523 9.13387V6.9611L10.2991 6L18.9678 10.0366V12.1854Z" fill="#49C1BF"/>
<path fill-rule="evenodd" clip-rule="evenodd" d="M8.03523 6.9611L16.7394 10.9977L18.9678 10.0366L10.2991 6L8.03523 6.9611Z" fill="#077A8F"/>
<path fill-rule="evenodd" clip-rule="evenodd" d="M16.7395 10.9886L18.9679 10.0275V12.1763L16.7395 13.1374V10.9886V10.9886Z" fill="#298E97"/>
<path fill-rule="evenodd" clip-rule="evenodd" d="M8.03523 6.96301V9.13578L14.0604 11.9367L8.03523 14.796V16.9378L16.7394 20.9676V18.812L10.8278 16.0591L16.7394 13.1484V10.9996L8.03523 6.96301Z" fill="#49C1BF"/>
<path fill-rule="evenodd" clip-rule="evenodd" d="M16.7395 20.9516L18.9679 19.9905V13.2765L16.7395 14.2479V20.9516Z" fill="#298E97"/>
</svg>
