<svg width="199" height="488" viewBox="0 0 199 488" fill="none" xmlns="http://www.w3.org/2000/svg">
<path fill-rule="evenodd" clip-rule="evenodd" d="M55.7231 5.20831C56.7817 5.86216 59.5742 4.93888 61.9285 3.15851C67.1147 -0.764581 68.8717 -0.960852 70.8066 2.16786C72.2824 4.5533 72.1185 99.0198 70.6032 120.423C64.9359 200.428 69.7259 304.067 78.8306 298.443C79.9275 297.766 80.1565 298.953 79.3384 301.081C78.3378 303.689 78.7051 304.424 80.4667 303.336C82.1866 302.275 82.6119 302.945 81.709 305.295C79.8067 310.249 104.169 334.595 109.125 332.695C111.459 331.8 112.145 332.222 111.102 333.908C110.015 335.666 111.061 336.085 114.373 335.22C117.051 334.52 118.673 334.868 117.977 335.993C117.282 337.117 118.213 338.038 120.046 338.038C121.879 338.038 124.95 338.639 126.87 339.376C129.974 340.566 130.462 331.115 131.273 254.247C132.165 169.652 132.472 161.088 134.539 163.154C136.327 164.94 157.622 152.736 156.34 150.661C155.66 149.561 156.846 149.331 158.975 150.148C161.585 151.149 162.321 150.781 161.232 149.02C160.143 147.259 160.879 146.891 163.489 147.892C166.324 148.979 166.865 148.578 165.514 146.391C164.34 144.494 164.542 143.945 166.068 144.887C169.224 146.837 175.972 144.199 174.387 141.635C173.71 140.54 174.898 140.311 177.026 141.127C179.636 142.128 180.372 141.76 179.283 140C178.194 138.239 181.54 138.872 181.54 138.872C181.54 138.872 184.855 139.456 184.013 138.095C183.243 136.85 183.838 135.676 185.335 135.484C193.642 134.422 197.033 133.933 198.307 135.339C199.227 136.355 199.044 138.358 198.81 141.846C198.52 146.186 198.303 151.768 198.328 154.248C199.286 246.621 198.927 348.626 197.646 347.835C196.715 347.261 195.878 349.135 195.786 351.998C195.576 358.518 194.4 365.521 191.212 379.241C189.657 385.929 189.503 391.048 190.805 392.771C191.212 398.22 188.733 399.381 188.733 399.381C187.472 400.16 185.279 402.592 186.111 403.938C186.981 405.345 186.582 405.742 185.175 404.873C182.616 403.292 173.729 413.437 175.369 416.091L165.021 424.673C158.566 430.773 153.91 436.862 154.673 438.203C155.437 439.546 155.258 439.918 154.275 439.031C151.633 436.648 143.672 441.58 145.47 444.487C146.403 445.997 145.975 446.34 144.384 445.356C140.957 443.24 132.329 445.992 133.986 448.673C134.69 449.812 133.527 450.073 131.393 449.255C128.784 448.254 128.047 448.622 129.136 450.382C130.225 452.143 129.489 452.51 126.88 451.51C124.27 450.509 123.535 450.877 124.624 452.638C125.712 454.397 124.977 454.765 122.367 453.764C119.533 452.677 118.99 453.08 120.343 455.267C121.517 457.167 121.313 457.712 119.78 456.765C117.573 455.403 82.161 474.024 82.161 476.472C80.4644 475.822 78.3088 476.53 77.371 478.047C77.0704 478.533 76.9438 479.122 76.8299 479.651C76.6212 480.621 76.4556 481.39 75.3398 480.962C71.742 479.584 62.2062 484.047 63.6751 486.422C64.2108 487.289 62.3701 488 59.5835 488C51.1005 488 55.2629 481.71 68.4685 474.57C75.1562 470.955 80.0182 467.013 79.2745 465.811C78.511 464.576 79.1002 464.352 80.6271 465.294C83.7774 467.241 90.4314 462.493 88.6313 459.581C87.9608 458.496 88.8242 458.149 90.551 458.813C92.1625 459.43 96.6822 454.931 98.7039 452.515C98.8605 452.354 99.0079 452.199 99.1456 452.052C102.123 453.744 110.579 444.217 108.802 441.125C107.938 439.62 108.073 439.152 109.102 440.086C111.716 442.455 122.177 424.26 120.587 420.115C119.746 417.929 120.212 417.302 121.901 418.345C123.663 419.433 124.031 418.698 123.029 416.091C122.05 413.539 122.408 412.754 124.077 413.785C125.815 414.859 126.289 413.161 125.588 408.384C125.026 404.553 125.25 401.841 126.088 402.359C127.743 403.381 130.518 375.589 130.518 357.992C130.518 344.973 130.333 344.944 109.541 354.63C100.602 358.796 89.5331 363.547 84.9453 365.188C80.3575 366.829 77.0399 368.877 77.5721 369.737C78.1043 370.599 73.2271 370.799 66.7336 370.183C60.24 369.568 52.7401 368.932 50.0662 368.772C47.3923 368.612 45.6748 367.72 46.25 366.79C47.2041 365.247 41.7982 364.101 37.272 364.887C36.2494 365.065 36.0553 364.17 36.8421 362.899C37.6276 361.629 37.1953 360.588 35.881 360.588C34.5668 360.588 32.7295 360.546 31.7987 360.495C28.7437 360.328 13.3442 344.113 14.4865 342.265C15.1 341.273 12.8456 335.096 9.47568 328.538C-1.51503 307.148 -3.71828 46.9315 6.98192 34.0473C8.53094 32.181 9.79872 30.0952 9.79872 29.4135C9.79872 28.7306 11.3222 28.0396 13.1838 27.877C18.671 27.3985 31.3676 18.7161 29.5351 16.6954C28.6089 15.6745 29.1295 15.5746 30.6936 16.4747C33.8091 18.2667 53.7988 9.2127 53.7988 6.00849C53.7988 4.91449 54.6656 4.55446 55.7231 5.20831ZM99.1456 452.052C100.732 450.349 101.023 449.58 99.1014 452.026C99.116 452.035 99.1307 452.043 99.1456 452.052ZM98.6866 452.532C98.6924 452.526 98.6981 452.52 98.7039 452.515C98.7998 452.4 98.8901 452.29 98.9742 452.186C98.8801 452.302 98.7842 452.418 98.6866 452.532ZM95.5432 455.301C96.7846 454.37 97.8614 453.376 98.6866 452.532C95.812 455.905 91.5612 458.285 95.5432 455.301ZM103.228 329.017C102.607 329.017 98.1335 324.957 93.2865 319.997C88.4396 315.036 84.9813 310.977 85.6019 310.977C86.2224 310.977 90.6951 315.036 95.5432 319.997C100.39 324.957 103.848 329.017 103.228 329.017ZM30.9923 358.333C31.6128 358.333 28.6763 354.781 24.4662 350.44C20.2561 346.099 16.3039 342.547 15.6834 342.547C15.0628 342.547 17.9994 346.099 22.2095 350.44C26.4196 354.781 30.3718 358.333 30.9923 358.333Z" fill="url(#paint0_linear_7_11)"/>
<defs>
<linearGradient id="paint0_linear_7_11" x1="40.7631" y1="0" x2="40.7631" y2="488" gradientUnits="userSpaceOnUse">
<stop stop-color="#424242"/>
<stop offset="1" stop-color="#19191B"/>
</linearGradient>
</defs>
</svg>
