<svg width="26" height="26" viewBox="0 0 26 26" fill="none" xmlns="http://www.w3.org/2000/svg">
<path opacity="0.2" d="M13 26C20.1797 26 26 20.1797 26 13C26 5.8203 20.1797 0 13 0C5.8203 0 0 5.8203 0 13C0 20.1797 5.8203 26 13 26Z" fill="#86DBDC"/>
<path fill-rule="evenodd" clip-rule="evenodd" d="M15.5657 5.30079C14.633 5.00659 13.6421 4.89389 12.6652 4.96526C11.7784 5.0296 10.9029 5.24732 10.0935 5.60926C8.87556 6.1493 7.81157 7.01463 7.03581 8.08235C6.19737 9.23145 5.70159 10.6189 5.6298 12.0311C5.57363 12.9834 5.70701 13.9467 6.01758 14.8506C6.47931 16.2036 7.34919 17.417 8.48432 18.3066C9.72116 19.2815 11.2764 19.8658 12.8615 19.9304C12.9595 19.9452 13.0585 19.9448 13.1573 19.9444C13.1872 19.9443 13.2172 19.9441 13.2471 19.9444C13.2881 19.9439 13.3291 19.9441 13.3702 19.9443C13.4916 19.9447 13.613 19.9452 13.7336 19.9291C14.4749 19.9106 15.2138 19.8079 15.9362 19.6426C15.9725 19.6347 16.0089 19.6268 16.0452 19.6188C16.4315 19.5346 16.8189 19.4502 17.2133 19.414C17.4818 19.4046 17.7516 19.404 18.0186 19.4359C18.7042 19.5109 19.3821 19.6396 20.0575 19.7755C20.2884 19.8275 20.5439 19.7395 20.6957 19.5614C20.8078 19.4363 20.8573 19.2683 20.8588 19.1038C20.859 17.6222 20.8589 16.1406 20.8589 14.6589C20.8588 13.918 20.8588 13.1772 20.8588 12.4363C20.848 12.0533 20.8274 11.6698 20.7653 11.2908C20.5482 9.88269 19.9069 8.54186 18.9455 7.47585C18.0448 6.47055 16.865 5.70853 15.5657 5.30079ZM10.0285 6.95115C10.9209 6.44349 11.9405 6.1576 12.9704 6.11606C13.8741 6.08262 14.7859 6.23131 15.6252 6.56428C16.9442 7.08131 18.0743 8.04358 18.7879 9.24913C19.54 10.5052 19.823 12.0213 19.5831 13.4584C19.3463 14.9384 18.5465 16.321 17.379 17.2839C16.862 17.714 16.2747 18.0621 15.6473 18.3128C14.7462 18.6722 13.7609 18.8275 12.7915 18.7591C11.2595 18.6656 9.77473 17.9986 8.69252 16.9302C7.68492 15.949 7.02388 14.6312 6.85038 13.2473C6.70117 12.1031 6.8751 10.9191 7.35483 9.86544C7.90288 8.64902 8.85409 7.61326 10.0285 6.95115Z" fill="#86DBDC"/>
<path fill-rule="evenodd" clip-rule="evenodd" d="M12.9107 7.89489C13.8728 7.82118 14.8544 8.06276 15.6746 8.56019C16.6041 9.11727 17.3203 10.0069 17.6553 11.0248C17.6996 11.1711 17.7627 11.3194 17.7473 11.4755C17.7336 11.6449 17.6382 11.8053 17.4959 11.9016C17.3138 12.0286 17.0557 12.0411 16.862 11.9314C16.7178 11.8526 16.6126 11.712 16.5746 11.5546C16.3888 10.8786 15.9821 10.2644 15.4293 9.82283C14.7976 9.31241 13.9769 9.02992 13.1584 9.054C12.5119 9.06614 11.871 9.26682 11.3332 9.61875C10.8723 9.91955 10.4885 10.332 10.2213 10.8075C9.89921 11.3782 9.74653 12.0411 9.79576 12.6922C9.84998 13.4616 10.1781 14.2115 10.7184 14.7724C11.228 15.3127 11.9227 15.6799 12.6613 15.8048C13.1604 15.8923 13.6785 15.8632 14.1665 15.7287C14.8926 15.5319 15.5462 15.0916 15.9984 14.5004C16.1986 14.2413 16.3586 13.9533 16.4773 13.65C16.5504 13.4627 16.7293 13.3202 16.9314 13.2908C17.1142 13.2586 17.3101 13.3198 17.4426 13.4474C17.6089 13.6057 17.669 13.8619 17.5846 14.0745C17.3166 14.7686 16.8739 15.3981 16.3046 15.8868C15.3298 16.7385 13.9737 17.155 12.6796 16.9882C11.8324 16.887 11.0176 16.5472 10.351 16.0244C9.74632 15.5538 9.26594 14.9309 8.96773 14.2322C8.60425 13.3892 8.50752 12.438 8.69555 11.5414C8.83587 10.8637 9.13581 10.2191 9.56349 9.6703C9.9916 9.12046 10.5475 8.6667 11.179 8.3593C11.7184 8.09642 12.31 7.93622 12.9107 7.89489Z" fill="#86DBDC"/>
<path fill-rule="evenodd" clip-rule="evenodd" d="M13.0201 10.6405C13.3673 10.6017 13.7399 10.6927 14.0042 10.9236C14.204 11.0978 14.3168 11.3633 14.2966 11.6257C14.2831 11.9506 14.0511 12.228 13.7711 12.3812C13.772 12.3869 13.7741 12.3982 13.775 12.4039C14.0316 12.5322 14.2552 12.7433 14.3512 13.0145C14.4369 13.2518 14.3961 13.5228 14.266 13.7369C14.1393 13.9467 13.9255 14.0956 13.6937 14.1755C13.4493 14.2629 13.1834 14.2735 12.927 14.2441C12.5971 14.1992 12.2673 14.056 12.0567 13.7953C12.0218 13.7567 12.0326 13.6981 12.0682 13.664C12.1621 13.5652 12.2632 13.4729 12.3584 13.3749C12.3853 13.3524 12.4082 13.3166 12.4471 13.3151C12.5048 13.3042 12.5473 13.3496 12.5922 13.3764C12.7372 13.47 12.8984 13.5477 13.0719 13.5714C13.3085 13.5856 13.5568 13.4016 13.5668 13.1604C13.5692 12.9896 13.4304 12.8498 13.2766 12.791C13.0689 12.7062 12.8387 12.7356 12.6199 12.7246C12.5709 12.7252 12.5455 12.6704 12.5475 12.6287C12.5462 12.4864 12.5449 12.3437 12.5481 12.2014C12.546 12.1558 12.5807 12.1132 12.6282 12.111C12.7837 12.1031 12.9405 12.1174 13.0955 12.0976C13.2037 12.0786 13.3118 12.0373 13.3935 11.9632C13.4941 11.869 13.5323 11.7156 13.4824 11.5874C13.4336 11.4419 13.2907 11.3396 13.1387 11.3198C12.9498 11.296 12.7579 11.3767 12.6316 11.5139C12.5932 11.5648 12.5093 11.571 12.4685 11.5201C12.3631 11.4163 12.2538 11.3162 12.1513 11.2101C12.1064 11.1669 12.1378 11.1019 12.1788 11.0691C12.408 10.8503 12.7008 10.685 13.0201 10.6405Z" fill="#86DBDC"/>
</svg>
