<svg width="26" height="26" viewBox="0 0 26 26" fill="none" xmlns="http://www.w3.org/2000/svg">
<path opacity="0.2" d="M13 26C20.1797 26 26 20.1797 26 13C26 5.8203 20.1797 0 13 0C5.8203 0 0 5.8203 0 13C0 20.1797 5.8203 26 13 26Z" fill="#DF491A"/>
<path fill-rule="evenodd" clip-rule="evenodd" d="M10.5439 9.39225C10.062 10.2178 9.58012 11.0433 9.09787 11.8685C8.9471 12.1295 8.79444 12.3894 8.64178 12.6493C8.39223 13.0742 8.14269 13.499 7.90139 13.9285L7.89403 13.9314C7.61503 14.4108 7.33514 14.8897 7.05523 15.3686C6.71073 15.9581 6.36621 16.5476 6.02335 17.1379C6.60032 16.6246 7.279 16.2283 8.01333 16.0097C8.91812 15.734 9.8952 15.7159 10.8086 15.9585C11.6926 16.1895 12.5146 16.665 13.1658 17.321C14.0751 18.3089 15.3662 18.9083 16.6874 18.9704C17.9114 19.0404 19.1351 18.6145 20.1176 17.8731C20.0049 17.785 19.8838 17.71 19.7628 17.635C19.662 17.5725 19.5612 17.51 19.4651 17.44C19.5662 17.4426 19.6666 17.4291 19.7642 17.4018C19.7175 17.4011 19.6708 17.4009 19.624 17.4008C19.4521 17.4003 19.2798 17.3999 19.1101 17.3673C18.6141 17.2792 18.1644 17.0147 17.7803 16.6887C17.2346 16.2312 16.8016 15.6541 16.389 15.0724C16.3417 15.0751 16.2915 15.0761 16.2515 15.0455C15.4007 14.4975 14.549 13.9507 13.6972 13.404C13.105 13.0238 12.5127 12.6436 11.9207 12.2629C11.8935 12.245 11.8655 12.2281 11.8375 12.2112C11.7705 12.1708 11.7034 12.1304 11.6472 12.0753C11.6216 12.0327 11.6441 11.9872 11.6645 11.946C11.6693 11.9362 11.674 11.9267 11.6779 11.9175C12.0036 11.3401 12.3357 10.7662 12.6678 10.1925C12.7978 9.96787 12.9278 9.74325 13.0574 9.51845C13.0813 9.44845 13.1376 9.52009 13.1536 9.55329C13.6526 10.4222 14.1547 11.2898 14.6613 12.1545C14.6953 12.0377 14.775 11.9499 14.8541 11.8628C14.8799 11.8344 14.9056 11.8061 14.9296 11.7769C15.1255 11.541 15.3238 11.3071 15.522 11.0732C15.7403 10.8157 15.9586 10.5582 16.1738 10.298C15.7401 9.55398 15.3059 8.81024 14.8717 8.06643C14.6043 7.60839 14.3369 7.15032 14.0696 6.69216C13.7456 6.13643 13.4216 5.5807 13.0954 5.02596C12.2437 6.48059 11.3938 7.93642 10.5439 9.39225Z" fill="url(#paint0_linear_1_1218)"/>
<path fill-rule="evenodd" clip-rule="evenodd" d="M13.0574 9.51845C13.0813 9.44845 13.1376 9.52009 13.1536 9.55329C13.6526 10.4222 14.1547 11.2898 14.6613 12.1545C15.1487 12.9751 15.6163 13.8085 16.0996 14.6321C16.1917 14.7819 16.2867 14.9298 16.389 15.0724C16.3417 15.0751 16.2915 15.0761 16.2515 15.0455C14.8091 14.1164 13.3641 13.191 11.9207 12.2629C11.8286 12.2021 11.7269 12.1535 11.6472 12.0753C11.6156 12.0227 11.6575 11.9655 11.6779 11.9175C12.1311 11.114 12.5968 10.3174 13.0574 9.51845Z" fill="url(#paint1_linear_1_1218)"/>
<path fill-rule="evenodd" clip-rule="evenodd" d="M19.7642 17.4018C20.188 17.3486 20.589 17.1964 20.9901 17.0548C20.7304 17.3601 20.4358 17.6338 20.1176 17.8731C19.911 17.7117 19.6765 17.5941 19.4651 17.44C19.5662 17.4426 19.6666 17.4291 19.7642 17.4018Z" fill="#F56417"/>
<path fill-rule="evenodd" clip-rule="evenodd" d="M14.9296 11.7769C15.3413 11.2813 15.7631 10.7946 16.1738 10.298C16.6954 11.1932 17.2203 12.0864 17.74 12.983C18.0336 13.4785 18.3112 13.9843 18.6297 14.4638C19.0145 15.0468 19.4287 15.6114 19.8975 16.1267C20.2238 16.4787 20.5756 16.8149 20.9901 17.0548C20.589 17.1964 20.188 17.3486 19.7642 17.4018C19.5461 17.3982 19.326 17.4087 19.1101 17.3673C18.6141 17.2792 18.1644 17.0147 17.7803 16.6887C17.2346 16.2312 16.8016 15.6541 16.389 15.0724C16.2867 14.9298 16.1917 14.7819 16.0996 14.6321C15.6163 13.8085 15.1487 12.9751 14.6613 12.1545C14.7064 11.9997 14.8318 11.8958 14.9296 11.7769Z" fill="url(#paint2_linear_1_1218)"/>
<defs>
<linearGradient id="paint0_linear_1_1218" x1="6.02335" y1="5.02596" x2="6.02335" y2="18.9779" gradientUnits="userSpaceOnUse">
<stop stop-color="#CF351C"/>
<stop offset="1" stop-color="#F76617"/>
</linearGradient>
<linearGradient id="paint1_linear_1_1218" x1="12.1806" y1="9.48882" x2="12.1806" y2="13.7935" gradientUnits="userSpaceOnUse">
<stop stop-color="#9F0F0C"/>
<stop offset="1" stop-color="#F76617"/>
</linearGradient>
<linearGradient id="paint2_linear_1_1218" x1="12.2519" y1="14.2537" x2="17.9593" y2="19.5981" gradientUnits="userSpaceOnUse">
<stop stop-color="#E14B1A"/>
<stop offset="1" stop-color="#F67C3A"/>
</linearGradient>
</defs>
</svg>
