<svg width="26" height="26" viewBox="0 0 26 26" fill="none" xmlns="http://www.w3.org/2000/svg">
<path opacity="0.2" d="M13 26C20.1797 26 26 20.1797 26 13C26 5.8203 20.1797 0 13 0C5.8203 0 0 5.8203 0 13C0 20.1797 5.8203 26 13 26Z" fill="#E7B64D"/>
<path fill-rule="evenodd" clip-rule="evenodd" d="M12.3659 5.82122C12.1284 5.82001 11.8909 5.81879 11.6537 5.82696C11.6493 5.92553 11.7363 5.94147 11.8128 5.95548L11.819 5.95662C11.7934 5.95859 11.742 5.96252 11.7164 5.96421C11.7767 6.08883 11.8432 6.21021 11.9097 6.33159L11.9097 6.33159C11.9777 6.45567 12.0456 6.57975 12.107 6.70727C12.1498 6.7805 12.1904 6.85504 12.2309 6.92958C12.2945 7.04658 12.3581 7.16356 12.4305 7.2754C12.6166 7.63797 12.8122 7.99567 13.0079 8.35338L13.0079 8.35339L13.0079 8.35342C13.1733 8.65581 13.3387 8.95821 13.4984 9.26355C13.952 10.0885 14.4009 10.9165 14.8447 11.7467C14.9837 11.9818 15.1119 12.2229 15.2359 12.4659C15.285 12.5697 15.3435 12.6687 15.402 12.7678L15.402 12.7678L15.402 12.7678C15.4827 12.9045 15.5634 13.0411 15.6193 13.1901C15.6744 13.2653 15.7171 13.3482 15.7598 13.4309C15.7775 13.4651 15.7951 13.4993 15.8136 13.5329C16.1253 14.0964 16.4313 14.6626 16.7373 15.2289L16.7374 15.2291L16.7376 15.2294L16.7377 15.2297C16.8822 15.4971 17.0267 15.7645 17.1718 16.0316C17.2547 16.1733 17.3315 16.3184 17.4084 16.4635C17.4869 16.6118 17.5655 16.7601 17.6505 16.9048C17.6737 16.9444 17.6929 16.9862 17.7121 17.028L17.7121 17.0281C17.7449 17.0993 17.7776 17.1705 17.8299 17.2302C17.852 17.2548 17.857 17.2871 17.862 17.3192V17.3192C17.8639 17.3317 17.8658 17.3441 17.8687 17.356C17.4959 17.3503 17.1232 17.3523 16.7505 17.3543H16.7505H16.7505L16.4844 17.3557C16.359 17.3579 16.2684 17.257 16.2161 17.1537C15.5186 15.8571 14.8155 14.5637 14.1123 13.2702L14.1122 13.2701L14.112 13.2696C13.8293 12.7497 13.5467 12.2297 13.2644 11.7096C13.2571 11.6952 13.2501 11.6805 13.243 11.6656L13.243 11.6656C13.2095 11.5949 13.175 11.5223 13.1018 11.4851C12.3752 12.8291 11.6461 14.1716 10.9171 15.5141C10.3839 16.4959 9.85068 17.4777 9.31844 18.4601L9.40787 18.4466L9.39929 18.4509L9.39928 18.4509C9.3647 18.4681 9.32994 18.4853 9.29566 18.5037C9.35524 18.5204 9.41608 18.5145 9.47702 18.5087C9.51618 18.505 9.55539 18.5013 9.59434 18.5035C9.86896 18.5084 10.1436 18.5079 10.4182 18.5074C10.5174 18.5072 10.6165 18.507 10.7157 18.5071C10.8251 18.4967 10.8673 18.3974 10.9078 18.3023C10.9239 18.2643 10.9398 18.227 10.9595 18.1963C11.1519 17.8528 11.3388 17.5062 11.5256 17.1596L11.5257 17.1596C11.7188 16.8013 11.912 16.443 12.1112 16.0881C12.205 15.9093 12.3016 15.7321 12.3981 15.5549L12.3981 15.5549L12.3982 15.5548L12.3982 15.5548L12.3982 15.5547C12.484 15.3972 12.5699 15.2396 12.6538 15.0809C12.7022 14.9955 12.7478 14.9085 12.7934 14.8215C12.8688 14.6776 12.9442 14.5338 13.0323 14.3972C13.0503 14.3662 13.0466 14.3309 13.0429 14.2961C13.0414 14.282 13.0399 14.2679 13.0399 14.2543C13.072 14.2559 13.104 14.2578 13.1363 14.2596L13.1364 14.2596L13.1364 14.2596L13.1423 14.26C13.1249 14.2816 13.1074 14.3033 13.09 14.3252C13.4098 14.8955 13.7205 15.4711 14.0312 16.0467L14.0313 16.0468L14.0313 16.0468L14.0313 16.0469C14.2389 16.4315 14.4465 16.816 14.6568 17.199C14.8377 17.5402 15.0194 17.8805 15.2084 18.2171C15.224 18.243 15.2376 18.2734 15.2515 18.3045C15.2935 18.3982 15.3387 18.4989 15.4497 18.5037C15.7661 18.5123 16.0826 18.51 16.3991 18.5078C16.5498 18.5067 16.7005 18.5056 16.8512 18.5057L18.2151 18.5059L19.5793 18.506C19.7109 18.5035 19.8434 18.5021 19.9744 18.5223C19.9721 18.5092 19.9701 18.496 19.9681 18.4828C19.9618 18.4409 19.9555 18.3991 19.9373 18.3606C17.7107 14.2524 15.4815 10.1456 13.2509 6.0393C13.2401 6.02094 13.2301 6.00019 13.2198 5.97892L13.2198 5.97891C13.1792 5.89492 13.1347 5.80276 13.0267 5.81712C12.8065 5.82348 12.5862 5.82235 12.3659 5.82122ZM10.2297 18.4943C9.96983 18.4919 9.71002 18.4895 9.45006 18.4931C9.46553 18.4609 9.481 18.4287 9.49675 18.3969C9.64485 18.4107 9.79322 18.4079 9.94166 18.4052C10.0514 18.4031 10.1613 18.4011 10.271 18.4057C10.3151 18.4077 10.3594 18.4069 10.4038 18.4061C10.5136 18.4041 10.6237 18.4021 10.73 18.4415L10.7253 18.4435L10.7252 18.4435C10.6596 18.4712 10.5925 18.4994 10.5222 18.4967C10.4247 18.4961 10.3272 18.4952 10.2297 18.4943ZM15.4775 18.4223L15.4902 18.5042C16.3175 18.4967 17.145 18.4977 17.9724 18.4988H17.9724C18.5988 18.4996 19.2252 18.5004 19.8515 18.4974C19.8178 18.4204 19.7556 18.4 19.6937 18.4049C18.9625 18.4053 18.2312 18.4053 17.5 18.4053C17.2865 18.4067 17.073 18.406 16.8595 18.4053C16.3987 18.4037 15.938 18.4022 15.4775 18.4223ZM11.5229 8.74774L11.5639 8.70612C11.6697 8.88121 11.7668 9.06146 11.864 9.24175L11.8641 9.24181C11.9367 9.37659 12.0094 9.51139 12.0857 9.64409C12.1095 9.69015 12.1359 9.73513 12.1623 9.78012L12.1623 9.78013C12.2145 9.8692 12.2668 9.95829 12.2997 10.0558C12.253 10.1793 12.1931 10.2986 12.1194 10.4082C11.9904 10.6592 11.8548 10.9067 11.7191 11.1541L11.7191 11.1541C11.5631 11.4386 11.4071 11.7231 11.2613 12.0131L11.2376 12.0301L11.2194 12.0431C11.2045 12.0316 11.1904 12.019 11.1778 12.0052C11.1689 12.0244 11.1559 12.0432 11.1428 12.062C11.1169 12.0994 11.0906 12.1372 11.0951 12.181C11.1311 12.2135 11.1512 12.1626 11.1652 12.1271C11.1683 12.1195 11.171 12.1125 11.1736 12.1073C11.1797 12.069 11.2177 12.087 11.2415 12.0982L11.2484 12.1014L11.2014 12.116C11.0996 12.2937 11.0032 12.4744 10.9068 12.6551L10.9068 12.6551C10.8119 12.833 10.717 13.0108 10.617 13.1859C10.4688 13.4548 10.3236 13.7254 10.1784 13.9961L10.1784 13.9961L10.1784 13.9961C10.0087 14.3125 9.83898 14.6288 9.66437 14.9426C9.63711 14.9905 9.61114 15.0393 9.58515 15.088L9.58515 15.088C9.5342 15.1836 9.48322 15.2792 9.4225 15.3692C9.29422 15.6357 9.151 15.8945 9.00775 16.1533L9.00774 16.1534C8.89627 16.3548 8.78477 16.5562 8.68028 16.7614C8.45735 17.1587 8.24296 17.5605 8.02858 17.9624L8.02844 17.9626C7.95969 18.0915 7.89094 18.2203 7.82191 18.3491C7.81442 18.3611 7.8073 18.3745 7.80001 18.3883C7.77116 18.4426 7.7397 18.5018 7.67256 18.5032C7.46995 18.5126 7.2669 18.5096 7.06388 18.5066C6.78272 18.5024 6.50164 18.4982 6.22187 18.5271L6.234 18.518L6.23404 18.518C6.26565 18.4944 6.29706 18.4709 6.32847 18.4469L6.2545 18.4568C6.92242 17.2257 7.59062 15.9947 8.25883 14.7636C9.34723 12.7585 10.4356 10.7533 11.5229 8.74774ZM6.39344 18.4972C6.43816 18.4957 6.48287 18.4946 6.52759 18.4936C6.68308 18.4959 6.83857 18.4954 6.99406 18.495C7.20138 18.4943 7.40871 18.4937 7.61603 18.4997L7.61912 18.4141C7.41233 18.4016 7.20531 18.4034 6.99833 18.4053H6.99831C6.81148 18.4069 6.62469 18.4086 6.43816 18.3997C6.43094 18.4151 6.4192 18.4408 6.40875 18.4637L6.39344 18.4972Z" fill="#E7B64D"/>
</svg>
