<svg width="26" height="26" viewBox="0 0 26 26" fill="none" xmlns="http://www.w3.org/2000/svg">
<path opacity="0.2" d="M13 26C20.1797 26 26 20.1797 26 13C26 5.8203 20.1797 0 13 0C5.8203 0 0 5.8203 0 13C0 20.1797 5.8203 26 13 26Z" fill="#17A326"/>
<path fill-rule="evenodd" clip-rule="evenodd" d="M12.225 11.1051C12.2871 10.8018 12.3521 10.4989 12.4181 10.1967L12.54 10.2105C12.7138 10.2303 12.8876 10.2501 13.0617 10.2659C13.0418 10.3913 13.0228 10.5169 13.0037 10.6426L13.0037 10.6426C12.979 10.806 12.9542 10.9694 12.9275 11.1326C12.9937 11.1444 13.0599 11.1555 13.1262 11.1666L13.1262 11.1666C13.2121 11.1809 13.298 11.1953 13.3837 11.2112C13.4188 11.0559 13.4503 10.8998 13.4818 10.7436L13.4818 10.7436C13.5106 10.6008 13.5395 10.4579 13.571 10.3156C13.6862 10.3231 13.8009 10.3351 13.9155 10.3471C14.0141 10.3575 14.1126 10.3678 14.2114 10.3752C14.1909 10.5247 14.1685 10.6739 14.1461 10.8232C14.1236 10.9735 14.101 11.1238 14.0804 11.2745L14.1716 11.3003L14.1716 11.3003C14.4621 11.3823 14.7557 11.4651 15.0207 11.6144C15.2441 11.7406 15.4257 11.9649 15.4502 12.2294C15.4744 12.4771 15.4419 12.7445 15.2885 12.9476C15.182 13.0979 15.0239 13.196 14.8658 13.2823C15.1001 13.406 15.3271 13.5739 15.4426 13.8227C15.5971 14.1439 15.5766 14.5434 15.3961 14.8496C15.2077 15.1771 14.8734 15.4032 14.5132 15.4913C14.1414 15.5813 13.7559 15.585 13.3758 15.5755C13.3453 15.7282 13.3159 15.8812 13.2865 16.0341L13.2864 16.0343C13.257 16.1873 13.2276 16.3403 13.1971 16.4931C13.0584 16.4844 12.9199 16.4706 12.7815 16.4568L12.7815 16.4568C12.7042 16.449 12.6269 16.4413 12.5495 16.4345C12.5662 16.3161 12.582 16.1975 12.5979 16.079L12.5979 16.0789C12.6221 15.8972 12.6464 15.7155 12.6737 15.5341C12.5839 15.5179 12.4933 15.5072 12.4026 15.4964C12.3424 15.4893 12.2822 15.4822 12.2221 15.4734C12.1909 15.6257 12.161 15.7782 12.1311 15.9308L12.1311 15.9308C12.1016 16.0814 12.0721 16.2321 12.0413 16.3826C11.8254 16.3577 11.6096 16.3354 11.3937 16.3131C11.4161 16.1694 11.4377 16.0256 11.4592 15.8819L11.4592 15.8818C11.4832 15.7218 11.5072 15.5618 11.5323 15.4021C11.2862 15.3706 11.0398 15.3428 10.7934 15.315C10.6107 15.2944 10.428 15.2738 10.2455 15.2517C10.2876 15.1448 10.3282 15.0373 10.3687 14.9298C10.412 14.8151 10.4552 14.7005 10.5003 14.5866C10.5624 14.5882 10.6247 14.5929 10.6869 14.5976C10.8132 14.6072 10.9396 14.6168 11.0656 14.6001C11.1833 14.5873 11.2288 14.4618 11.2414 14.359C11.3757 13.5918 11.5024 12.8235 11.6218 12.0538C11.6468 11.9312 11.6291 11.7699 11.4966 11.719C11.373 11.6713 11.2423 11.6529 11.1115 11.6345C11.027 11.6227 10.9425 11.6108 10.8599 11.591L10.8777 11.4871C10.9055 11.3247 10.9334 11.1621 10.9649 11.0005C11.3077 11.0322 11.6512 11.0595 11.9946 11.0868L11.9946 11.0868L12.225 11.1051ZM12.7516 12.3186L12.7516 12.3186C12.7177 12.5203 12.6838 12.722 12.6535 12.9241C12.9321 12.9739 13.2173 13.0196 13.5003 12.9838C13.6848 12.9618 13.8826 12.9355 14.0309 12.8115C14.1793 12.6966 14.2536 12.4741 14.1609 12.3015C14.1002 12.1709 13.9742 12.0889 13.8457 12.0388C13.5209 11.9133 13.1704 11.8796 12.8253 11.8709C12.8017 12.0203 12.7766 12.1695 12.7516 12.3186ZM12.4158 14.2973C12.4553 14.0552 12.4948 13.8132 12.5362 13.5713C12.9592 13.564 13.3862 13.6145 13.7873 13.7535C13.9555 13.8183 14.1251 13.931 14.1887 14.1099C14.2475 14.269 14.1933 14.4549 14.0731 14.5698C13.9443 14.7048 13.7562 14.7479 13.5812 14.7831C13.2029 14.8534 12.8186 14.8076 12.4399 14.7625C12.407 14.7586 12.3741 14.7547 12.3412 14.7509C12.3664 14.5997 12.3911 14.4485 12.4158 14.2973Z" fill="#FBFBFB"/>
<path fill-rule="evenodd" clip-rule="evenodd" d="M15.5777 6.32824C15.5464 6.38125 15.515 6.43426 15.482 6.48622C15.0604 7.19342 14.4951 7.82451 13.7923 8.25183C13.5561 8.40025 13.3024 8.51414 13.0488 8.62799C12.9323 8.68028 12.8159 8.73256 12.7011 8.78817C11.7345 9.23122 10.7794 9.71817 9.93146 10.3701C9.50769 10.691 9.10269 11.0407 8.74209 11.4337C8.32048 11.8972 7.99273 12.454 7.82055 13.0617C7.58159 13.8933 7.63032 14.7882 7.85051 15.6179C8.06095 16.3954 8.55186 17.0879 9.21531 17.5335C9.13931 17.7119 9.0608 17.8893 8.98227 18.0669C8.73032 18.6364 8.4781 19.2065 8.30749 19.8073C8.27103 19.9215 8.26489 20.0532 8.32554 20.16C8.39304 20.261 8.4923 20.3363 8.5977 20.393C8.88864 20.542 9.23083 20.5957 9.54992 20.52L9.55313 20.5049C9.73656 19.6411 9.92479 18.7547 10.3917 17.9952C11.6363 18.2206 12.9433 18.1478 14.1352 17.7073C15.3203 17.2774 16.3793 16.4941 17.1399 15.4767C17.8842 14.4937 18.335 13.2907 18.4422 12.0578C18.5512 10.8209 18.3098 9.55207 17.7452 8.44902C17.2767 7.50951 16.5696 6.70134 15.7318 6.08268C15.6762 6.1618 15.627 6.24502 15.5777 6.32824ZM11.9946 11.0868C12.0714 11.0929 12.1482 11.099 12.225 11.1051C12.2871 10.8018 12.3521 10.4989 12.4181 10.1967C12.4587 10.2013 12.4994 10.2059 12.54 10.2105C12.7138 10.2303 12.8876 10.2501 13.0617 10.2659C13.0418 10.3913 13.0228 10.5169 13.0037 10.6426C12.979 10.8059 12.9542 10.9694 12.9274 11.1326C12.9937 11.1444 13.0599 11.1555 13.1262 11.1666C13.2121 11.1809 13.298 11.1953 13.3837 11.2112C13.4188 11.0559 13.4503 10.8997 13.4818 10.7436C13.5106 10.6008 13.5395 10.4579 13.571 10.3156C13.6862 10.3231 13.8009 10.3351 13.9155 10.3471C14.0141 10.3575 14.1126 10.3678 14.2114 10.3752C14.1909 10.5247 14.1685 10.6739 14.1461 10.8232C14.1236 10.9735 14.101 11.1238 14.0804 11.2745C14.1107 11.2832 14.1412 11.2917 14.1716 11.3003C14.4621 11.3823 14.7557 11.4651 15.0207 11.6144C15.2441 11.7406 15.4257 11.9649 15.4502 12.2294C15.4744 12.4771 15.4419 12.7445 15.2885 12.9476C15.182 13.0979 15.0239 13.196 14.8658 13.2823C15.1001 13.406 15.3271 13.5739 15.4426 13.8227C15.5971 14.1439 15.5766 14.5434 15.3961 14.8496C15.2076 15.1771 14.8734 15.4032 14.5132 15.4913C14.1414 15.5813 13.7559 15.585 13.3758 15.5755C13.3453 15.7282 13.3158 15.8813 13.2864 16.0343C13.257 16.1873 13.2276 16.3403 13.1971 16.493C13.0584 16.4844 12.9199 16.4706 12.7815 16.4568C12.7042 16.449 12.6269 16.4413 12.5495 16.4345C12.5662 16.3161 12.582 16.1975 12.5979 16.0789C12.6221 15.8972 12.6464 15.7155 12.6737 15.5341C12.5839 15.5179 12.4933 15.5072 12.4026 15.4964C12.3424 15.4893 12.2822 15.4822 12.2221 15.4734C12.1909 15.6257 12.161 15.7782 12.1311 15.9308C12.1016 16.0814 12.0721 16.2321 12.0413 16.3826C11.8254 16.3577 11.6096 16.3354 11.3937 16.313C11.4161 16.1694 11.4377 16.0256 11.4592 15.8819C11.4832 15.7219 11.5072 15.5619 11.5323 15.4021C11.2863 15.3706 11.0398 15.3428 10.7934 15.315C10.6107 15.2944 10.428 15.2738 10.2455 15.2517C10.2876 15.1448 10.3282 15.0373 10.3687 14.9298C10.412 14.8151 10.4552 14.7005 10.5003 14.5866C10.5624 14.5882 10.6247 14.5929 10.6869 14.5976C10.8132 14.6072 10.9396 14.6168 11.0656 14.6001C11.1833 14.5873 11.2288 14.4618 11.2414 14.359C11.3757 13.5918 11.5024 12.8235 11.6218 12.0538C11.6468 11.9312 11.6291 11.7699 11.4966 11.719C11.373 11.6713 11.2423 11.6529 11.1115 11.6345C11.027 11.6227 10.9425 11.6108 10.8599 11.591C10.8658 11.5564 10.8717 11.5217 10.8777 11.4871C10.9055 11.3247 10.9334 11.1621 10.9649 11.0005C11.3077 11.0322 11.6512 11.0595 11.9946 11.0868Z" fill="#17A326"/>
<path fill-rule="evenodd" clip-rule="evenodd" d="M12.8253 11.8709C13.1704 11.8796 13.5209 11.9133 13.8457 12.0388C13.9742 12.0889 14.1002 12.1709 14.1609 12.3015C14.2536 12.4741 14.1793 12.6966 14.0309 12.8115C13.8826 12.9355 13.6847 12.9618 13.5003 12.9838C13.2173 13.0196 12.9321 12.9739 12.6535 12.9241C12.7062 12.5726 12.7697 12.2224 12.8253 11.8709Z" fill="#17A326"/>
<path fill-rule="evenodd" clip-rule="evenodd" d="M12.5362 13.5713C12.9592 13.564 13.3862 13.6145 13.7873 13.7535C13.9555 13.8183 14.1251 13.931 14.1887 14.1099C14.2475 14.269 14.1933 14.4549 14.0731 14.5698C13.9443 14.7048 13.7562 14.7479 13.5812 14.7831C13.17 14.8595 12.7517 14.7988 12.3412 14.7509C12.4066 14.3579 12.469 13.9643 12.5362 13.5713Z" fill="#17A326"/>
</svg>
