<svg width="26" height="26" viewBox="0 0 26 26" fill="none" xmlns="http://www.w3.org/2000/svg">
<path opacity="0.2" d="M13 26C20.1797 26 26 20.1797 26 13C26 5.8203 20.1797 0 13 0C5.8203 0 0 5.8203 0 13C0 20.1797 5.8203 26 13 26Z" fill="#D96100"/>
<path fill-rule="evenodd" clip-rule="evenodd" d="M17.0258 10.507C16.912 9.32593 15.8925 8.92999 14.6052 8.81721L14.6052 7.17893L13.6077 7.1791L13.6078 8.77421C13.3459 8.77417 13.0779 8.77935 12.8117 8.78466L12.8118 7.179L11.8152 7.17897L11.8148 8.81679C11.5989 8.82119 11.3869 8.8252 11.1801 8.82534L11.18 8.82026L9.80461 8.81979L9.80487 9.88484C9.80487 9.88484 10.5413 9.8708 10.529 9.88436C10.933 9.88449 11.0647 10.1189 11.1027 10.3213L11.1027 12.1877C11.1306 12.1878 11.167 12.189 11.2081 12.1946L11.1031 12.1947L11.1026 14.8093C11.0848 14.9365 11.0101 15.1391 10.7279 15.1396C10.7407 15.1509 10.003 15.1394 10.003 15.1394L9.80494 16.3306L11.1029 16.3305C11.2495 16.3307 11.3947 16.3323 11.5382 16.3338C11.6312 16.3348 11.7235 16.3358 11.8151 16.3364L11.8155 17.9936L12.8117 17.9938L12.8119 16.3543C13.0852 16.36 13.3499 16.3622 13.6083 16.362L13.6078 17.9938L14.605 17.9937L14.6053 16.3397C16.2819 16.2436 17.4555 15.8211 17.6008 14.2472C17.7184 12.9795 17.1223 12.4137 16.1706 12.1849C16.7486 11.89 17.1101 11.3713 17.0256 10.507L17.0258 10.507ZM15.6304 14.0499C15.6307 15.1865 13.845 15.1614 13.0287 15.15C12.9556 15.1489 12.8902 15.148 12.8347 15.148L12.8349 12.9527C12.9029 12.9527 12.9854 12.9508 13.0788 12.9486L13.0789 12.9486C13.9155 12.9288 15.63 12.8883 15.6307 14.0499L15.6304 14.0499ZM12.999 11.9498C13.6805 11.9609 15.1661 11.9853 15.1663 10.9527C15.1665 9.89636 13.7373 9.93433 13.0393 9.95287C12.9608 9.95496 12.8916 9.9568 12.8347 9.95681L12.8346 11.9479C12.8816 11.9479 12.937 11.9488 12.999 11.9498Z" fill="#D96100"/>
</svg>
