<svg width="26" height="26" viewBox="0 0 26 26" fill="none" xmlns="http://www.w3.org/2000/svg">
<path opacity="0.2" d="M13 26C20.1797 26 26 20.1797 26 13C26 5.8203 20.1797 0 13 0C5.8203 0 0 5.8203 0 13C0 20.1797 5.8203 26 13 26Z" fill="#4365E3"/>
<path fill-rule="evenodd" clip-rule="evenodd" d="M19.275 10.7297C19.4207 10.7273 19.5672 10.7289 19.7129 10.7336C19.8341 11.499 19.7159 12.2707 19.729 13.0407C19.5833 13.0691 19.3862 13.1637 19.2811 13.0021C18.9444 12.6057 18.5725 12.2415 18.2496 11.8316C18.2166 11.8245 18.1507 11.8088 18.1177 11.8009C18.1162 12.1729 18.1146 12.545 18.1123 12.917C18.0832 12.9604 18.0257 13.0463 17.9965 13.0896C17.8915 13.0896 17.7872 13.0896 17.6829 13.0888C17.656 13.0439 17.6016 12.9533 17.5739 12.9083C17.5701 12.3786 17.577 11.8498 17.5678 11.3209C17.5594 11.1159 17.5862 10.9118 17.6476 10.7171C17.7641 10.7202 17.8807 10.725 17.9973 10.7289C18.3892 11.1774 18.7834 11.6243 19.1814 12.0665C19.2129 11.6212 19.1676 11.1679 19.275 10.7297Z" fill="#FFFFFE"/>
<path fill-rule="evenodd" clip-rule="evenodd" d="M9.86643 9.21002C9.20305 9.18953 8.55194 9.59546 8.25207 10.2016C8.01203 10.6123 8.03887 11.1033 8.07261 11.5613C8.14393 11.741 8.21295 11.9215 8.28197 12.102L8.28198 12.102C8.16311 12.8232 7.71753 13.4885 7.06181 13.7951C6.92639 13.8731 6.77446 13.8755 6.62272 13.8778C6.46941 13.8802 6.3163 13.8826 6.18063 13.963C5.97433 14.0796 5.8033 14.2664 5.70437 14.4863C5.61924 14.8607 5.61848 15.3289 5.93751 15.5922C6.39613 16.0951 7.3195 15.8815 7.53807 15.2336C7.63764 15.0353 7.59978 14.828 7.56199 14.6212C7.54361 14.5206 7.52524 14.4201 7.52273 14.3208C7.68839 13.665 8.17001 13.0841 8.79428 12.8492C9.03691 12.8011 9.27496 12.8765 9.50806 12.9503C9.5763 12.9719 9.64412 12.9934 9.71151 13.0116C9.82109 13.0081 9.93464 12.9882 10.0489 12.9681C10.3233 12.9198 10.6017 12.8709 10.8389 13.0478C11.7692 13.5775 12.4187 14.5691 12.569 15.649C12.5813 16.2914 12.8183 16.9692 13.3666 17.3279C13.8613 17.6589 14.537 17.707 15.0608 17.4209C15.5646 17.1679 15.9327 16.6271 15.9634 16.0486C15.9765 15.7152 16.044 15.3794 16.2058 15.0878C16.4757 14.5636 17.0379 14.216 17.6131 14.2065C17.7694 14.2014 17.9189 14.2408 18.0686 14.2802C18.1709 14.3071 18.2731 14.334 18.3777 14.3468C19.0871 14.4343 19.8241 14.1608 20.3264 13.6414C20.7505 13.1937 21.0028 12.5796 21.0197 11.9546C21.035 10.8471 20.2321 9.77754 19.1684 9.55447C17.9704 9.22342 16.6383 10.0881 16.3546 11.3177C16.273 11.5975 16.2765 11.8857 16.28 12.174C16.2827 12.3926 16.2854 12.6112 16.251 12.8264C16.0754 13.6217 15.2862 14.3035 14.4733 14.1553C14.3681 14.1422 14.2619 14.1363 14.1555 14.1304C13.947 14.1187 13.7383 14.107 13.5377 14.0418C12.7684 13.8432 12.0974 13.2709 11.7699 12.5284C11.648 12.2376 11.5276 11.9191 11.6104 11.5991C11.6932 11.2208 11.707 10.8156 11.5675 10.4491C11.3228 9.73103 10.6157 9.1848 9.86643 9.21002ZM19.1958 11.6179C19.1997 11.3197 19.2035 11.0214 19.275 10.7297C19.4207 10.7273 19.5672 10.7289 19.7129 10.7336C19.7911 11.2279 19.7696 11.7248 19.748 12.2223C19.7362 12.4951 19.7244 12.768 19.729 13.0408C19.702 13.046 19.6732 13.0535 19.6436 13.0613C19.5134 13.0954 19.3667 13.1338 19.2811 13.0021C19.1409 12.8371 18.9947 12.6776 18.8483 12.5181C18.6432 12.2945 18.4381 12.0709 18.2496 11.8316C18.2166 11.8245 18.1507 11.8088 18.1177 11.8009L18.1177 11.8023C18.1162 12.1739 18.1146 12.5454 18.1123 12.917L17.9965 13.0896H17.9964C17.8914 13.0896 17.7871 13.0896 17.6829 13.0888C17.656 13.0439 17.6016 12.9533 17.5739 12.9083C17.5724 12.6964 17.5726 12.4847 17.5728 12.273C17.5731 11.9555 17.5733 11.6382 17.5678 11.3209C17.5594 11.1159 17.5862 10.9118 17.6476 10.7171C17.7253 10.7192 17.803 10.722 17.8807 10.7248C17.9196 10.7262 17.9584 10.7276 17.9973 10.7289C18.3892 11.1774 18.7834 11.6243 19.1814 12.0665C19.1919 11.9176 19.1939 11.7677 19.1958 11.6179Z" fill="#4365E3"/>
</svg>
