<svg width="26" height="26" viewBox="0 0 26 26" fill="none" xmlns="http://www.w3.org/2000/svg">
<path opacity="0.2" d="M13 26C20.1797 26 26 20.1797 26 13C26 5.8203 20.1797 0 13 0C5.8203 0 0 5.8203 0 13C0 20.1797 5.8203 26 13 26Z" fill="#464646"/>
<path fill-rule="evenodd" clip-rule="evenodd" d="M17.9968 6.74917C16.8286 6.17444 15.5079 5.96306 14.2187 6.03528C13.2104 6.08694 12.2128 6.30944 11.2667 6.66556C9.38051 7.37833 7.66876 8.62028 6.47761 10.2817C5.83816 11.1781 5.35434 12.2014 5.13983 13.2917C4.92395 14.3767 4.99891 15.5331 5.43339 16.5539C5.84797 17.5517 6.59237 18.3919 7.49704 18.9544C8.57533 19.6328 9.84688 19.9414 11.1053 19.9764C12.4096 20.0081 13.7144 19.7492 14.9284 19.2678C16.7825 18.5294 18.4599 17.2786 19.6156 15.6169C20.3074 14.6189 20.807 13.4644 20.9556 12.2458C21.0038 11.8886 20.997 11.5267 20.988 11.1669C20.9384 10.3286 20.6868 9.5025 20.2537 8.78722C19.7214 7.89861 18.9124 7.20083 17.9968 6.74917ZM9.5217 8.43861C10.5515 7.63472 11.8244 7.15833 13.121 7.10167C14.3528 7.05444 15.6036 7.38889 16.6301 8.09056C17.5097 8.68306 18.211 9.54417 18.6226 10.5333C19.0819 11.62 19.1773 12.855 18.9178 14.0061C18.6722 15.115 18.1107 16.1453 17.3331 16.9586C16.5911 17.7361 15.6532 18.315 14.6373 18.6361C13.4947 18.9992 12.2466 19.0197 11.0977 18.6722C10.0805 18.3683 9.14365 17.775 8.44722 16.9581C7.60007 15.9722 7.11053 14.6711 7.10726 13.3594C7.09118 12.3786 7.3384 11.3997 7.78405 10.5322C8.20354 9.71556 8.80375 8.99806 9.5217 8.43861Z" fill="white"/>
<path fill-rule="evenodd" clip-rule="evenodd" d="M10.8649 9.53166C10.9421 9.49333 11.0358 9.50666 11.1064 9.55444C12.843 10.6358 14.5801 11.7172 16.3169 12.7983C16.4769 12.8814 16.4734 13.1444 16.3123 13.2244C14.5717 14.3017 12.8313 15.3797 11.0901 16.4561C10.9443 16.5567 10.7188 16.4342 10.7292 16.2528C10.7267 14.0847 10.7262 11.9175 10.7287 9.74944C10.724 9.65583 10.7843 9.57139 10.8649 9.53166Z" fill="white"/>
</svg>
