<svg width="26" height="26" viewBox="0 0 26 26" fill="none" xmlns="http://www.w3.org/2000/svg">
<path opacity="0.2" d="M13 26C20.1797 26 26 20.1797 26 13C26 5.8203 20.1797 0 13 0C5.8203 0 0 5.8203 0 13C0 20.1797 5.8203 26 13 26Z" fill="#008ECC"/>
<path fill-rule="evenodd" clip-rule="evenodd" d="M10.3096 5.07563C10.5727 5.03818 10.8296 5.04546 11.0803 5.09748C11.2954 5.24573 11.5214 5.42362 11.5621 5.69983C11.6065 6.87123 11.575 8.04575 11.5797 9.21819C10.9828 9.21923 10.386 9.22756 9.7891 9.21299C9.77518 9.19843 9.7468 9.16982 9.73236 9.15577C9.71791 8.11909 9.72668 7.08293 9.72772 6.04625C9.71791 5.64625 9.9093 5.20567 10.3096 5.07563Z" fill="#008ECC"/>
<path fill-rule="evenodd" clip-rule="evenodd" d="M12.4118 6.00903C14.3629 5.7368 16.4168 6.25361 17.9829 7.46821C20.041 9.02543 21.2258 11.7112 20.8925 14.2989C20.706 16.0397 19.8984 17.7064 18.6402 18.9132C17.1815 20.3129 15.1442 21.1359 13.1254 20.9815C10.5046 20.9262 8.01774 19.297 6.8257 16.9534C6.39425 16.1346 6.15191 15.2345 6 14.3245V13.1631C6.21082 12.6968 6.76783 12.3626 7.25921 12.6014C7.65449 12.7182 7.89321 13.1615 7.86014 13.5625C7.86221 15.1547 8.59542 16.7354 9.80864 17.7513C10.7609 18.6113 12.0238 19.0525 13.285 19.1411C13.824 19.1322 14.3613 19.0488 14.8879 18.9335C16.7806 18.4491 18.3679 16.8804 18.8634 14.9711C19.4633 12.9628 18.7596 10.665 17.2234 9.27575C15.8851 8.04551 13.9475 7.52661 12.1834 7.96155C12.0408 8.04291 11.9716 7.73522 12.046 7.67055C12.0439 7.15269 12.0382 6.63431 12.0501 6.11698C12.1421 6.01737 12.2894 6.03823 12.4118 6.00903Z" fill="#008ECC"/>
<path fill-rule="evenodd" clip-rule="evenodd" d="M9.16671 7.31392C9.18836 7.30873 9.23168 7.29835 9.25334 7.29316C9.25643 7.91454 9.2652 8.53643 9.24973 9.15781C9.23581 9.17131 9.20744 9.19882 9.193 9.21232C8.57729 9.22737 7.96054 9.2201 7.34483 9.21699C7.48458 8.82298 7.83111 8.52293 8.10906 8.22029C8.42413 7.87768 8.77789 7.56725 9.16671 7.31392Z" fill="#008ECC"/>
<path fill-rule="evenodd" clip-rule="evenodd" d="M7.91909 9.64793C9.74425 9.63279 11.5699 9.63905 13.3946 9.64427C13.8687 9.71733 14.3672 9.72255 14.8097 9.9292C16.1183 10.414 17.0899 11.7045 17.1976 13.102C17.358 14.3627 16.7798 15.6663 15.7912 16.4402C15.0577 17.0366 14.1001 17.3012 13.1689 17.2386C11.9224 17.1306 10.7412 16.3687 10.1625 15.2436C10.0232 15.0813 10.0191 14.8538 9.89746 14.6831C9.6578 13.8247 9.72458 12.924 9.72147 12.0426C10.3411 12.0385 10.9612 12.0379 11.5813 12.0426C11.6222 12.8557 11.4265 13.7631 11.9048 14.4822C12.4116 15.3177 13.6083 15.576 14.4288 15.0662C15.0323 14.7468 15.3041 14.0491 15.3522 13.402C15.2797 13.1583 15.2627 12.8985 15.1534 12.6668C14.8392 12.0244 14.157 11.5855 13.4468 11.573C11.88 11.5625 10.3131 11.5819 8.74678 11.5646C8.54594 11.0407 8.25296 10.5575 8.02055 10.0471C7.99001 9.92659 7.75656 9.75229 7.91909 9.64793Z" fill="#008ECC"/>
</svg>
