<svg width="26" height="26" viewBox="0 0 26 26" fill="none" xmlns="http://www.w3.org/2000/svg">
<path opacity="0.2" d="M13 26C20.1797 26 26 20.1797 26 13C26 5.8203 20.1797 0 13 0C5.8203 0 0 5.8203 0 13C0 20.1797 5.8203 26 13 26Z" fill="#3CBAF3"/>
<path fill-rule="evenodd" clip-rule="evenodd" d="M13.2542 6.03471C13.1018 5.98937 12.9385 5.98822 12.7857 6.03261C12.5677 6.09772 12.3498 6.16341 12.1319 6.22909C11.8984 6.29949 11.6648 6.36989 11.4311 6.43958C11.3114 6.47559 11.1981 6.53465 11.1055 6.61791C10.9226 6.77642 10.819 7.01515 10.82 7.2535C10.8198 7.49956 10.82 7.74543 10.8202 7.9915V7.99178C10.736 8.01374 10.6504 8.02945 10.5649 8.04513L10.5566 8.04665C10.5526 7.99998 10.5529 7.95299 10.5532 7.90602C10.5537 7.83107 10.5542 7.75619 10.537 7.68275C10.4936 7.47165 10.3675 7.27598 10.1857 7.15366C9.98786 7.0161 9.72642 6.96828 9.49259 7.03478C9.44336 7.04887 9.39412 7.06291 9.34488 7.07694C9.19446 7.11983 9.04406 7.1627 8.8941 7.2072C8.55938 7.30951 8.3166 7.63531 8.30824 7.9773C8.30671 8.07373 8.30703 8.17017 8.30735 8.26656C8.30756 8.32957 8.30777 8.39256 8.30746 8.45552C8.31038 8.48105 8.30144 8.50468 8.2855 8.52468C8.27974 8.49583 8.27537 8.4667 8.271 8.43757C8.26239 8.38015 8.25379 8.32278 8.23457 8.26766C8.16032 8.03198 7.97585 7.83174 7.74221 7.73934C7.5593 7.66541 7.34976 7.66218 7.16258 7.72314C7.08437 7.74734 7.00589 7.77065 6.92742 7.79396C6.80694 7.82974 6.68647 7.86553 6.567 7.90452C6.24336 8.02093 6.02216 8.3473 6.02099 8.68301C6.02099 8.75551 6.02115 8.82802 6.02131 8.90054C6.02171 9.08189 6.0221 9.26331 6.02002 9.44473C6.01792 9.72525 6.0184 10.0058 6.01888 10.2864C6.01952 10.6539 6.02015 11.0214 6.01497 11.3888C6.01363 11.7192 6.01332 12.0494 6.013 12.3797C6.01276 12.6274 6.01252 12.8751 6.01186 13.1228C6.00557 13.5329 6.00628 13.9432 6.00698 14.3535C6.00737 14.5777 6.00775 14.802 6.007 15.0262C6.00073 15.439 6.00137 15.8519 6.00201 16.2649C6.00251 16.5953 6.00302 16.9257 6 17.2561C6.00097 17.531 6.1452 17.8027 6.37981 17.9549L6.38165 17.9561C8.43465 19.2635 10.4876 20.5708 12.5406 21.8778C12.8069 22.0434 13.1671 22.0403 13.4305 21.8708L19.4308 18.0919C19.4527 18.0777 19.4751 18.0639 19.4975 18.05C19.5888 17.9933 19.6809 17.9362 19.7528 17.8558C19.9 17.6998 19.9816 17.487 19.9799 17.2749C19.9804 17.012 19.9803 16.7492 19.9802 16.4864C19.9802 16.2475 19.9801 16.0086 19.9805 15.7698C19.9865 15.3322 19.986 14.8945 19.9854 14.4568C19.9852 14.2596 19.985 14.0623 19.9853 13.8651C19.9944 13.4479 19.9933 13.0306 19.9922 12.6133C19.9911 12.2304 19.9901 11.8475 19.997 11.4647C19.9959 10.8932 19.9971 10.3218 19.9983 9.75039C19.999 9.40753 19.9997 9.06469 19.9999 8.72188C20.0057 8.37855 19.7744 8.04227 19.4416 7.92967C19.3337 7.89468 19.225 7.86176 19.1164 7.82884C19.0327 7.80351 18.9492 7.77818 18.8659 7.75191C18.7734 7.72257 18.677 7.7039 18.5796 7.70924C18.2062 7.70409 17.8646 7.98569 17.777 8.33682C17.7671 8.36368 17.7639 8.39271 17.7608 8.42165C17.756 8.46601 17.7512 8.51016 17.7222 8.54602C17.7158 8.42813 17.7176 8.30999 17.7194 8.19193C17.7202 8.13293 17.7211 8.07395 17.721 8.01503C17.7134 7.738 17.5647 7.46727 17.3262 7.31694C17.2173 7.24596 17.0922 7.2115 16.9676 7.17714C16.9209 7.16428 16.8743 7.15144 16.8286 7.13671C16.7819 7.12461 16.7355 7.11023 16.689 7.09581C16.5632 7.05687 16.4369 7.01773 16.3038 7.02315C15.9702 7.02163 15.6573 7.24474 15.5368 7.54672C15.4716 7.6944 15.4697 7.85671 15.4679 8.01519C15.4678 8.02927 15.4676 8.04332 15.4674 8.05732C15.387 8.04457 15.3074 8.02709 15.228 8.00964L15.2135 8.00645L15.2127 8.00302C15.2108 7.99566 15.208 7.98468 15.2063 7.97883C15.2121 7.82657 15.2116 7.67424 15.2112 7.52192C15.2109 7.43885 15.2106 7.35578 15.2114 7.27274C15.2122 7.0302 15.1117 6.78519 14.9243 6.62381C14.8271 6.53751 14.7081 6.47673 14.5826 6.44091C14.3363 6.36603 14.0902 6.29061 13.8441 6.21519C13.6475 6.15495 13.4509 6.0947 13.2542 6.03471ZM12.4723 7.18389C12.6377 7.13425 12.8031 7.0846 12.9683 7.0342C13.011 7.01625 13.054 7.03055 13.0957 7.04447C13.1067 7.04813 13.1176 7.05177 13.1284 7.05478C13.3207 7.11427 13.5133 7.17308 13.7058 7.23189C13.8648 7.28043 14.0237 7.32898 14.1825 7.37791C14.1848 7.50687 14.1828 7.63578 14.1808 7.76467C14.1787 7.89914 14.1767 8.03358 14.1794 8.16802C14.1864 8.5264 14.4521 8.86477 14.8079 8.95394C14.9332 8.98214 15.0592 9.00811 15.1851 9.03409C15.2736 9.05233 15.362 9.07057 15.4503 9.08959C15.6196 9.12769 15.8015 9.11817 15.9629 9.05244C16.2006 8.95813 16.3872 8.75198 16.4579 8.51077C16.4954 8.38901 16.4967 8.26102 16.4981 8.13469C16.4982 8.12126 16.4984 8.10786 16.4986 8.09448C16.5284 8.10374 16.5584 8.11238 16.5884 8.12101C16.6226 8.13085 16.6568 8.14069 16.6906 8.15144C16.6903 8.24121 16.6903 8.33097 16.6903 8.42073C16.6904 8.49558 16.6904 8.57043 16.6902 8.64528C16.6856 8.88058 16.7847 9.11683 16.9594 9.27878C17.0819 9.3971 17.244 9.4714 17.4127 9.4996C17.4659 9.50922 17.5193 9.52119 17.5729 9.53321C17.7593 9.57494 17.9482 9.61725 18.1364 9.564C18.4962 9.4794 18.7611 9.1416 18.7765 8.78284C18.7947 8.78849 18.813 8.79418 18.8313 8.79987C18.8778 8.81435 18.9243 8.82886 18.971 8.84267C18.9737 9.09702 18.9715 9.35132 18.9694 9.60563C18.9674 9.83135 18.9655 10.0571 18.967 10.2828C18.9681 10.6745 18.9671 11.0662 18.9661 11.4577C18.9653 11.7269 18.9646 11.9961 18.9646 12.2653C18.966 12.6632 18.964 13.0611 18.9621 13.4591C18.9601 13.874 18.9581 14.289 18.9598 14.704C18.9615 14.9104 18.959 15.1167 18.9566 15.323C18.9543 15.5164 18.952 15.7098 18.9532 15.9033C18.9529 16.0585 18.953 16.2136 18.9531 16.3687C18.9532 16.6015 18.9533 16.8343 18.9524 17.0671C18.9578 17.096 18.9374 17.1141 18.9143 17.1273C18.0354 17.6942 17.1562 18.2607 16.277 18.8272C15.1781 19.5353 14.0792 20.2433 12.9809 20.9523L12.7062 20.7773C10.8151 19.5732 8.92379 18.369 7.03215 17.1658C7.03114 16.5738 7.03218 15.9818 7.03322 15.3899C7.03417 14.8436 7.03513 14.2973 7.03448 13.751C7.03965 13.3469 7.03947 12.9428 7.03929 12.5387C7.0391 12.0915 7.0389 11.6444 7.04595 11.1974C7.04448 10.6517 7.04604 10.106 7.0476 9.5603C7.04831 9.31226 7.04902 9.06422 7.04945 8.81619C7.09193 8.80205 7.13484 8.78909 7.17772 8.77613C7.19959 8.76953 7.22145 8.76293 7.24324 8.75617C7.26346 9.01738 7.39447 9.2744 7.61975 9.42167C7.81957 9.56019 8.08101 9.59753 8.31621 9.5377C8.37262 9.52402 8.43037 9.51331 8.48823 9.50256C8.6415 9.47411 8.79561 9.44551 8.92811 9.36128C9.17031 9.21343 9.32756 8.94212 9.33242 8.66243C9.33401 8.56007 9.33374 8.45764 9.33348 8.35522C9.33329 8.28207 9.3331 8.20893 9.33359 8.13582C9.38882 8.11679 9.4452 8.10143 9.50149 8.0861C9.51058 8.08363 9.51966 8.08115 9.52874 8.07866C9.53158 8.12015 9.53172 8.16196 9.53186 8.20378C9.53213 8.28775 9.53241 8.37177 9.55459 8.45343C9.61952 8.73521 9.84286 8.97699 10.1253 9.06196C10.2299 9.09149 10.3405 9.11226 10.4495 9.09778C10.5533 9.08268 10.6559 9.06107 10.7585 9.03946C10.8177 9.02699 10.877 9.01451 10.9364 9.00328C10.9731 8.99507 11.0102 8.98789 11.0474 8.98069C11.1742 8.95617 11.3018 8.93148 11.4136 8.86534C11.6723 8.72188 11.8407 8.44066 11.8485 8.14992C11.8489 8.02517 11.8488 7.90041 11.8487 7.77566C11.8486 7.6413 11.8484 7.50694 11.849 7.37258C12.0565 7.3087 12.2644 7.2463 12.4723 7.18389Z" fill="#3CBAF3"/>
</svg>
