<svg width="26" height="26" viewBox="0 0 26 26" fill="none" xmlns="http://www.w3.org/2000/svg">
<path opacity="0.2" d="M13 26C20.1797 26 26 20.1797 26 13C26 5.8203 20.1797 0 13 0C5.8203 0 0 5.8203 0 13C0 20.1797 5.8203 26 13 26Z" fill="#505050"/>
<path fill-rule="evenodd" clip-rule="evenodd" d="M10.6353 13.5103L10.2822 15.0113L6.02792 13.6569H8.75141L9.10458 12.0092H11.817L12.6083 7.7392H15.6704C17.7731 7.7392 18.53 8.53338 18.2304 10.1514L18.16 10.5273C17.9599 11.606 17.4292 12.2797 16.4617 12.6218L16.4559 12.6521C17.4804 12.9965 17.7603 13.7756 17.5549 14.8845L17.3967 15.738C17.097 17.3561 15.8839 18.2253 13.8551 18.2253H10.665L11.5377 13.5073L10.6353 13.5103ZM13.5689 13.5103L12.9719 16.7312H14.1356C14.818 16.7312 15.234 16.4764 15.3783 15.6973L15.5476 14.7833C15.728 13.8099 15.3958 13.5103 14.4736 13.5103H13.5689ZM13.8464 12.0121L14.3596 9.24029L15.3376 9.24669C16.0538 9.24669 16.3092 9.576 16.1702 10.3248L16.062 10.9066C15.9066 11.7421 15.3958 12.0121 14.6394 12.0121H13.8464Z" fill="white"/>
</svg>
