<svg width="26" height="26" viewBox="0 0 26 26" fill="none" xmlns="http://www.w3.org/2000/svg">
<path opacity="0.2" fill-rule="evenodd" clip-rule="evenodd" d="M13 26C20.1797 26 26 20.1797 26 13C26 5.8203 20.1797 0 13 0C5.8203 0 0 5.8203 0 13C0 20.1797 5.8203 26 13 26Z" fill="#F04086"/>
<path fill-rule="evenodd" clip-rule="evenodd" d="M16.3437 12.7675C17.196 12.8925 17.8485 13.205 18.3013 13.705C18.7599 14.2199 19.0092 14.8891 18.9997 15.58C18.9997 16.6246 18.6479 17.4764 17.8983 18.0529C17.1487 18.6293 16.0675 19 14.6537 19H9.0932V15.5714H11.5456V17.0714H14.4404C15.1026 17.0714 15.6016 16.8914 15.9332 16.6182C16.2648 16.345 16.4311 15.91 16.4311 15.4C16.4311 14.89 16.2627 14.545 15.9332 14.2782C15.6037 14.0114 15.1047 13.9643 14.4404 13.9643H6V12.0357H9.09213V7H14.4778C15.9033 7 16.9557 7.18536 17.6563 7.75C18.3568 8.31464 18.6959 9.0325 18.6959 10.0889C18.6996 10.7243 18.4798 11.3406 18.0753 11.8289C17.6765 12.3207 17.0901 12.6282 16.3437 12.7493V12.7675ZM11.5456 12.0314H14.1323C15.4619 12.0314 16.1262 11.5096 16.1262 10.4779C16.1262 9.44607 15.4619 8.92429 14.1323 8.92429H11.5456V12.0314Z" fill="#F04086"/>
</svg>
