<svg width="26" height="26" viewBox="0 0 26 26" fill="none" xmlns="http://www.w3.org/2000/svg">
<path opacity="0.2" d="M13 26C20.1797 26 26 20.1797 26 13C26 5.8203 20.1797 0 13 0C5.8203 0 0 5.8203 0 13C0 20.1797 5.8203 26 13 26Z" fill="#22AF53"/>
<path fill-rule="evenodd" clip-rule="evenodd" d="M9.2572 6.37648C9.26952 6.03011 9.65872 5.8012 9.93704 5.98337C11.5207 6.96614 13.1061 7.94532 14.6909 8.92569C14.8202 8.98861 14.8326 9.16299 14.757 9.27805C14.3885 9.96359 14.0166 10.6479 13.6582 11.3395C13.5787 11.5043 13.4925 11.6655 13.3805 11.8075C13.3026 11.7578 13.2343 11.693 13.1962 11.6037C12.9767 11.1771 12.7342 10.7642 12.5231 10.3327C12.5511 10.3118 12.6071 10.2698 12.6351 10.2488C12.8944 10.3795 13.2332 10.2141 13.2982 9.91445C13.3547 9.68614 13.2349 9.41348 13.0137 9.35236C12.4526 9.20794 11.9038 9.01019 11.3438 8.86157C11.1164 8.80344 10.8963 9.00479 10.8487 9.2355C10.7334 9.70532 10.604 10.1709 10.4774 10.6378C10.4186 10.8583 10.3822 11.1148 10.5021 11.3203C10.6432 11.5396 10.9596 11.6055 11.1573 11.4354C11.2855 11.3473 11.3225 11.1807 11.3578 11.0327C11.3869 11.0213 11.4451 10.9985 11.4748 10.9871C11.7358 11.436 11.9788 11.8974 12.2202 12.3588C12.2846 12.4523 12.1849 12.5566 12.0914 12.5374C11.2676 12.5374 10.4438 12.5176 9.61952 12.5266C9.49632 12.535 9.37704 12.5002 9.26784 12.4415C9.246 12.1994 9.25496 11.9561 9.2544 11.7134C9.25664 9.93483 9.25104 8.15505 9.2572 6.37648Z" fill="#22AF53"/>
<path fill-rule="evenodd" clip-rule="evenodd" d="M15.4206 9.88689C15.4922 9.76644 15.5628 9.60044 15.7151 9.58906C15.8523 9.64719 15.9733 9.73827 16.1015 9.81498C17.5799 10.7294 19.06 11.6421 20.5378 12.5589C20.7383 12.674 20.8806 12.9604 20.7596 13.1912C20.6801 13.3895 20.4846 13.4728 20.3222 13.5753C18.8192 14.5041 17.3162 15.4336 15.8142 16.3648C15.672 16.4822 15.5258 16.3276 15.4637 16.194C15.0398 15.3736 14.5727 14.5796 14.1499 13.7592C14.1673 13.7299 14.2026 13.6706 14.2205 13.6412C14.7267 13.6376 15.233 13.6502 15.7392 13.634C15.8562 13.8312 15.5785 13.9276 15.5824 14.1182C15.5326 14.3627 15.6742 14.6359 15.9055 14.6971C16.0522 14.7522 16.2158 14.6935 16.3222 14.5784C16.7058 14.1446 17.1241 13.7479 17.5138 13.3212C17.6914 13.1432 17.6594 12.8202 17.4903 12.6482C17.1627 12.2983 16.8413 11.9417 16.521 11.584C16.3843 11.4282 16.2096 11.2945 16.0063 11.2736C15.765 11.2891 15.5426 11.5085 15.5471 11.7751C15.541 11.9681 15.6776 12.1095 15.789 12.2407C15.7734 12.2707 15.7414 12.3294 15.7258 12.3594C15.2414 12.3522 14.757 12.3624 14.2726 12.3546C14.151 12.366 14.1449 12.1976 14.2054 12.1221C14.6102 11.3772 15.0263 10.6389 15.4206 9.88689Z" fill="#22AF53"/>
<path fill-rule="evenodd" clip-rule="evenodd" d="M9.2124 13.6748C9.1984 13.5531 9.2768 13.3979 9.40952 13.4321C10.3044 13.4333 11.1993 13.4279 12.0936 13.4327C12.1759 13.4147 12.2129 13.5082 12.2594 13.5597C11.9878 14.0415 11.7358 14.5359 11.4664 15.0195C11.2698 15.0111 11.3152 14.7606 11.1976 14.6485C11.0201 14.425 10.6594 14.4412 10.5026 14.6827C10.3621 14.8745 10.445 15.1285 10.4987 15.3389C10.6404 15.8363 10.7255 16.3504 10.8806 16.843C10.954 17.0845 11.2323 17.16 11.4401 17.0899C11.8405 16.9748 12.2409 16.8598 12.6435 16.7543C12.8496 16.6986 13.0742 16.6363 13.213 16.4499C13.3766 16.2174 13.2881 15.8464 13.0361 15.7332C12.8933 15.6523 12.7382 15.7212 12.5926 15.747C12.5685 15.7158 12.5209 15.6541 12.4968 15.6235C12.723 15.1891 12.9661 14.7654 13.1934 14.3321C13.2265 14.2692 13.2735 14.2165 13.3172 14.1631C13.3474 14.1799 13.4068 14.2141 13.437 14.2309C13.7786 14.8996 14.1365 15.5588 14.4887 16.221C14.5985 16.4349 14.7407 16.6357 14.8046 16.8718C14.8141 16.9844 14.7206 17.0354 14.6438 17.0827C13.0842 18.0517 11.528 19.0267 9.9628 19.9855C9.83344 20.07 9.66656 20.1137 9.52264 20.0442C9.3216 19.9627 9.20848 19.723 9.21016 19.5025C9.21296 17.5597 9.2096 15.6169 9.2124 13.6748Z" fill="black"/>
</svg>
