<svg width="26" height="26" viewBox="0 0 26 26" fill="none" xmlns="http://www.w3.org/2000/svg">
<path opacity="0.2" d="M13 26C20.1797 26 26 20.1797 26 13C26 5.8203 20.1797 0 13 0C5.8203 0 0 5.8203 0 13C0 20.1797 5.8203 26 13 26Z" fill="#27BBC0"/>
<path fill-rule="evenodd" clip-rule="evenodd" d="M13.1297 5H12.689C11.6108 5.03676 10.538 5.28144 9.5618 5.74306C7.91856 6.50486 6.5582 7.85405 5.77694 9.48793C5.27676 10.525 5.01297 11.6739 5 12.8249V13.1323C5.0436 14.5294 5.45405 15.9146 6.19784 17.0991C6.71351 17.9301 7.39099 18.6533 8.15387 19.2616C8.25294 19.3013 8.33902 19.363 8.42504 19.4247C8.46481 19.4533 8.50457 19.4818 8.54559 19.5081C9.44252 20.1013 10.4613 20.5092 11.5196 20.6977C13.3582 21.0281 15.3103 20.684 16.9178 19.7297C18.035 19.0732 18.9863 18.1377 19.6613 17.0314C20.5492 15.5906 20.9452 13.8584 20.7856 12.1748C20.6638 10.8414 20.1953 9.54126 19.435 8.43928C19.369 8.35027 19.3049 8.25946 19.2631 8.15604C18.6065 7.33045 17.8123 6.60649 16.8973 6.0764C15.7582 5.40757 14.449 5.04144 13.1297 5ZM6.30054 10.2638C6.85405 8.87784 7.85658 7.67532 9.12252 6.88432C10.3434 6.10775 11.8083 5.72829 13.253 5.80072C14.7402 5.86631 16.1986 6.4209 17.3578 7.35387C17.3662 7.36654 17.3804 7.38888 17.3915 7.40643C17.3953 7.41234 17.3987 7.41771 17.4014 7.42198C18.3232 8.12577 19.0245 9.09766 19.4764 10.1607C20.0562 11.5351 20.1805 13.0937 19.8386 14.5445C19.4645 16.1586 18.4973 17.6227 17.1697 18.6119C16.4101 19.1784 15.5384 19.5953 14.618 19.8209C13.2443 20.1596 11.7697 20.0804 10.4432 19.5877C9.26775 19.1459 8.18883 18.4043 7.42234 17.4025C7.4137 17.3968 7.40066 17.3882 7.38761 17.3797C7.37453 17.3711 7.36145 17.3625 7.35279 17.3568C6.61081 16.4332 6.1045 15.3211 5.9009 14.1535C5.67099 12.8533 5.80685 11.489 6.30054 10.2638Z" fill="#27BBC0"/>
<path fill-rule="evenodd" clip-rule="evenodd" d="M12.8454 7.1409C13.1885 7.20865 13.5402 7.24504 13.8778 7.33405L13.8739 7.34883C13.7867 7.71387 13.7348 8.08685 13.6728 8.45694C13.7402 8.46594 13.8083 8.47459 13.876 8.48468C14.0591 8.50991 14.2393 8.55315 14.418 8.59964C14.484 8.21766 14.551 7.8364 14.618 7.45477C14.9586 7.51315 15.2984 7.57585 15.6396 7.63171L15.6357 7.65549C15.5582 8.10631 15.4768 8.55676 15.3996 9.00793C15.4627 9.04829 15.5258 9.08829 15.5895 9.12757C15.6436 9.16108 15.6966 9.1964 15.7488 9.23279C15.7441 9.82775 15.7178 10.422 15.7085 11.0166C15.7081 11.0987 15.6998 11.1805 15.6861 11.2613C15.5532 11.0724 15.3885 10.911 15.2105 10.7658C15.1802 10.7312 15.1517 10.6951 15.1168 10.6656C14.5067 10.1932 13.7077 10.0018 12.9456 10.0695C11.8912 10.1532 10.911 10.8915 10.5679 11.8966C10.3146 12.644 10.3434 13.4998 10.711 14.205C10.8256 14.4104 10.9431 14.6241 11.1232 14.7798C11.4303 15.1517 11.8569 15.4126 12.3142 15.5575C12.9589 15.7582 13.6695 15.7859 14.315 15.5733C14.6832 15.4541 15.0198 15.2508 15.311 14.9975L15.3056 15.0393C15.2332 15.6025 15.1701 16.1672 15.1038 16.7315C15.0912 16.7708 15.1002 16.836 15.0497 16.8497C14.7859 16.9622 14.5142 17.0555 14.2368 17.1261C14.1701 17.1283 14.1686 17.2007 14.1571 17.2501C14.0764 17.7254 13.9939 18.2007 13.9077 18.6753C13.5777 18.627 13.2508 18.5571 12.9204 18.5103C12.9139 18.5016 12.9013 18.484 12.8948 18.4753C12.9485 18.12 13.0177 17.7668 13.0775 17.4123C13.0865 17.3575 13.0955 17.3031 13.1041 17.2483C12.8414 17.2371 12.5813 17.2022 12.3218 17.1625C12.2555 17.5629 12.1867 17.9629 12.1121 18.3618C11.7798 18.3103 11.4497 18.2458 11.1178 18.1917L11.0915 18.187C11.1643 17.756 11.2486 17.3272 11.3132 16.8951C10.8544 16.6703 10.4627 16.3308 10.102 15.9737C9.36829 15.2418 8.90054 14.2479 8.81477 13.2144C8.72649 12.2043 9.00144 11.1676 9.57874 10.3341C10.2685 9.32288 11.3996 8.63135 12.6126 8.47135C12.6908 8.02811 12.7679 7.5845 12.8454 7.1409Z" fill="#27BBC0"/>
<path fill-rule="evenodd" clip-rule="evenodd" d="M12.2382 10.5773C12.8688 10.3005 13.6 10.3153 14.2461 10.5304C14.5002 10.6234 14.755 10.7409 14.9589 10.92C14.9423 11.3773 14.9384 11.835 14.9258 12.2923C14.7928 12.1189 14.7009 11.9135 14.5305 11.7694C14.2858 11.4908 13.9193 11.3445 13.5586 11.2937C12.9679 11.2072 12.3258 11.4533 11.9827 11.9499C11.5474 12.5712 11.5841 13.5279 12.1723 14.0414C12.4775 14.3632 12.9286 14.5045 13.3629 14.515C13.6984 14.5243 14.0353 14.427 14.3139 14.24C14.4768 14.1359 14.6119 13.9971 14.7557 13.8695L14.7449 13.9344C14.6786 14.3431 14.5917 14.7481 14.5377 15.1586C13.8613 15.485 13.0573 15.4695 12.3571 15.2285C12.1225 15.1535 11.9168 15.018 11.7059 14.8951C11.2047 14.4919 10.853 13.8973 10.7741 13.2559C10.7171 12.7755 10.7726 12.2764 10.9658 11.8306C11.209 11.2699 11.6832 10.8241 12.2382 10.5773Z" fill="#27BBC0"/>
<path fill-rule="evenodd" clip-rule="evenodd" d="M9.12252 6.88433C10.3434 6.10776 11.8083 5.7283 13.253 5.80073C14.7402 5.86631 16.1986 6.42091 17.3578 7.35388C17.369 7.37082 17.3906 7.40505 17.4014 7.42199C16.7157 6.91136 15.9467 6.50992 15.1254 6.26812C13.6959 5.84109 12.1326 5.87785 10.7258 6.37478C9.45009 6.82235 8.31099 7.64433 7.47964 8.70992C6.71423 9.68721 6.21009 10.8681 6.04144 12.0984C5.84505 13.4933 6.06991 14.9463 6.69189 16.2115C6.89478 16.6321 7.14703 17.0263 7.42234 17.4025C7.40505 17.391 7.37009 17.3683 7.35279 17.3568C6.61081 16.4332 6.1045 15.3211 5.9009 14.1535C5.67099 12.8533 5.80685 11.489 6.30054 10.2638C6.85405 8.87785 7.85658 7.67532 9.12252 6.88433Z" fill="#007377"/>
<path fill-rule="evenodd" clip-rule="evenodd" d="M13.8739 7.34883C13.9355 7.40108 13.9932 7.45802 14.0465 7.51856C13.9856 7.83964 13.9323 8.16252 13.876 8.48469C13.8083 8.4746 13.7402 8.46595 13.6728 8.45694C13.7348 8.08685 13.7867 7.71388 13.8739 7.34883Z" fill="#007377"/>
<path fill-rule="evenodd" clip-rule="evenodd" d="M15.6357 7.6555C15.6973 7.70956 15.7564 7.76613 15.8162 7.82235C15.7445 8.25802 15.6652 8.69262 15.5895 9.12757C15.5258 9.0883 15.4627 9.0483 15.3996 9.00793C15.4768 8.55676 15.5582 8.10631 15.6357 7.6555Z" fill="#007377"/>
<path fill-rule="evenodd" clip-rule="evenodd" d="M19.2631 8.15604C20.3477 9.47387 20.9459 11.1668 21 12.8681V13.3449C20.9467 14.7917 20.5031 16.2241 19.702 17.4321C18.9802 18.5305 17.9809 19.445 16.8216 20.0652C15.7452 20.645 14.5326 20.9604 13.3117 21H12.8706C11.1676 20.947 9.47315 20.3467 8.15387 19.2616C8.29874 19.3196 8.41586 19.4249 8.54559 19.5081C9.44252 20.1013 10.4613 20.5092 11.5196 20.6977C13.3582 21.0281 15.3103 20.684 16.9178 19.7297C18.035 19.0732 18.9863 18.1377 19.6613 17.0314C20.5492 15.5906 20.9452 13.8584 20.7856 12.1748C20.6638 10.8414 20.1953 9.54126 19.435 8.43928C19.369 8.35027 19.3049 8.25946 19.2631 8.15604Z" fill="#007377"/>
<path fill-rule="evenodd" clip-rule="evenodd" d="M15.7488 9.2328C15.8079 9.29839 15.8699 9.36073 15.933 9.42235C15.9146 10.1006 15.8995 10.7787 15.8793 11.4566C15.8166 11.3914 15.7524 11.3279 15.685 11.2678L15.6861 11.2613C15.6998 11.1806 15.7081 11.0987 15.7085 11.0166C15.7178 10.422 15.7441 9.82776 15.7488 9.2328Z" fill="#007377"/>
<path fill-rule="evenodd" clip-rule="evenodd" d="M12.9456 10.0696C13.7077 10.0018 14.5067 10.1932 15.1168 10.6656C15.1517 10.6951 15.1802 10.7312 15.2105 10.7658C15.1088 10.7229 15.0216 10.6537 14.9243 10.6033C14.3413 10.289 13.6569 10.1813 13.0025 10.2627C12.3769 10.3427 11.7885 10.649 11.351 11.1013C10.4389 12.0292 10.3283 13.613 11.0652 14.6771C11.0861 14.7103 11.1056 14.7445 11.1232 14.7798C10.9431 14.6242 10.8256 14.4105 10.711 14.2051C10.3434 13.4998 10.3146 12.644 10.5679 11.8966C10.911 10.8915 11.8912 10.1532 12.9456 10.0696Z" fill="#007377"/>
<path fill-rule="evenodd" clip-rule="evenodd" d="M14.9589 10.92C15.0177 10.9777 15.0764 11.0357 15.1351 11.0937C15.1272 11.5506 15.116 12.0076 15.1067 12.4645C15.0422 12.4119 14.9798 12.356 14.9258 12.2923C14.9384 11.835 14.9423 11.3773 14.9589 10.92Z" fill="#007377"/>
<path fill-rule="evenodd" clip-rule="evenodd" d="M11.9827 11.9499C12.3258 11.4533 12.9679 11.2072 13.5586 11.2937C13.9193 11.3445 14.2858 11.4908 14.5305 11.7694C14.3031 11.6339 14.0591 11.5178 13.7939 11.4822C13.2468 11.3852 12.649 11.5712 12.2757 11.9877C11.9182 12.3827 11.7986 12.9596 11.911 13.4735C11.9542 13.6807 12.0616 13.8641 12.1723 14.0414C11.5841 13.5279 11.5474 12.5712 11.9827 11.9499Z" fill="#007377"/>
<path fill-rule="evenodd" clip-rule="evenodd" d="M14.7449 13.9344C14.76 13.9416 14.7906 13.9557 14.8061 13.9625C14.8404 14.0083 14.8742 14.0587 14.9333 14.075C14.8627 14.4969 14.7723 14.9157 14.7186 15.3402C14.075 15.6483 13.3175 15.649 12.6432 15.4443C12.2973 15.3326 11.9582 15.1607 11.7059 14.8951C11.9168 15.018 12.1225 15.1535 12.3571 15.2285C13.0573 15.4696 13.8613 15.485 14.5377 15.1586C14.5917 14.7481 14.6786 14.3431 14.7449 13.9344Z" fill="#007377"/>
<path fill-rule="evenodd" clip-rule="evenodd" d="M15.3056 15.0393C15.3665 15.0941 15.4256 15.151 15.484 15.2087C15.4155 15.809 15.3391 16.4083 15.2735 17.009C14.9791 17.1369 14.6764 17.249 14.3618 17.3168C14.2649 17.8296 14.1809 18.3445 14.089 18.8584C13.7542 18.8011 13.4198 18.7409 13.0847 18.6836C13.0292 18.6263 12.9737 18.5694 12.9204 18.5103C13.2508 18.5571 13.5777 18.627 13.9077 18.6753C13.9939 18.2007 14.0764 17.7254 14.1571 17.2501C14.1686 17.2007 14.1701 17.1283 14.2368 17.1261C14.5142 17.0555 14.7859 16.9622 15.0497 16.8497C15.1002 16.836 15.0912 16.7708 15.1038 16.7315C15.1701 16.1672 15.2332 15.6025 15.3056 15.0393Z" fill="#007377"/>
<path fill-rule="evenodd" clip-rule="evenodd" d="M12.3218 17.1625C12.5813 17.2022 12.8414 17.2371 13.1041 17.2483C13.0955 17.3031 13.0865 17.3575 13.0775 17.4123C12.8843 17.4054 12.6937 17.3701 12.5031 17.3395C12.4371 17.7416 12.3632 18.1427 12.2941 18.5445C11.9906 18.4923 11.6872 18.4379 11.3834 18.3863C11.2602 18.3838 11.1978 18.2667 11.1178 18.1917C11.4497 18.2458 11.7798 18.3103 12.1121 18.3618C12.1867 17.9629 12.2555 17.5629 12.3218 17.1625Z" fill="#007377"/>
</svg>
