<svg width="26" height="26" viewBox="0 0 26 26" fill="none" xmlns="http://www.w3.org/2000/svg">
<path opacity="0.2" d="M13 26C20.1797 26 26 20.1797 26 13C26 5.8203 20.1797 0 13 0C5.8203 0 0 5.8203 0 13C0 20.1797 5.8203 26 13 26Z" fill="#BD0908"/>
<path fill-rule="evenodd" clip-rule="evenodd" d="M9.42374 5.95975C10.1523 5.51434 10.9584 5.20603 11.7892 5.02347C11.7911 5.37965 11.7894 5.73632 11.7899 6.09274C11.792 6.23516 11.7806 6.38436 11.8336 6.51977C11.8806 6.6356 12.005 6.68468 12.1156 6.7166C12.8317 6.91126 13.5951 6.92045 14.3172 6.75046C14.4397 6.71926 14.5722 6.69387 14.6713 6.60851C14.7713 6.5159 14.7752 6.36719 14.779 6.23952C14.7826 5.8357 14.7797 5.43212 14.7807 5.0283C15.5632 5.19443 16.3235 5.47758 17.0159 5.88382C17.696 6.28038 18.3073 6.79253 18.8371 7.37722C18.692 7.49232 18.5282 7.57816 18.3698 7.67271C17.7103 8.05912 17.0496 8.44311 16.3934 8.83532C16.3242 8.87618 16.2528 8.92527 16.1697 8.92527C16.0813 8.92503 16.0087 8.86772 15.9409 8.81791C15.2575 8.31253 14.4363 7.99528 13.5908 7.93458C12.6524 7.86301 11.6944 8.10675 10.8999 8.61721C10.2743 9.01595 9.75207 9.57766 9.39365 10.2322C8.96599 11.0135 8.74941 11.922 8.83513 12.815C8.91751 13.7314 9.29169 14.6145 9.87409 15.3189C10.3708 15.9215 11.0219 16.3954 11.7517 16.6624C12.1798 16.8215 12.6337 16.902 13.0884 16.9233C13.8821 16.9637 14.6847 16.7806 15.3829 16.3964C15.6078 16.2745 15.8225 16.1338 16.0266 15.9793C16.0968 15.9302 16.1981 15.8954 16.2774 15.9425C17.1434 16.4356 18.0038 16.9385 18.8653 17.4395C18.3796 17.9841 17.8235 18.466 17.206 18.8512C16.4627 19.3177 15.6348 19.6385 14.7809 19.8245C14.7797 19.4064 14.7647 18.9878 14.7861 18.5697C14.7933 18.4462 14.7654 18.3103 14.6711 18.2242C14.5703 18.1285 14.4292 18.1045 14.3002 18.0709C13.57 17.8898 12.7935 17.9086 12.0724 18.1229C11.9845 18.1507 11.8999 18.201 11.8484 18.2798C11.792 18.3645 11.7791 18.4701 11.7839 18.57C11.803 18.9881 11.7899 19.4066 11.7884 19.825C11.0098 19.6562 10.2528 19.3755 9.562 18.9731C8.8614 18.5673 8.23292 18.0397 7.6904 17.4357C8.03998 17.2309 8.38144 17.0115 8.74201 16.8266C8.84874 16.7724 8.9488 16.6844 8.97936 16.563C9.01804 16.4177 8.96026 16.2728 8.92181 16.1345C8.70714 15.4096 8.31028 14.7359 7.75797 14.223C7.68705 14.1597 7.59846 14.1091 7.50175 14.1089C7.40791 14.1079 7.32099 14.151 7.24387 14.201C6.90264 14.4191 6.5447 14.6087 6.19584 14.8138C5.89712 13.8922 5.7634 12.9134 5.82858 11.9445C5.87061 11.2969 5.99788 10.6561 6.1913 10.0381C6.45444 10.1892 6.71711 10.341 6.98025 10.4924C7.13737 10.5771 7.28518 10.6849 7.45639 10.7393C7.56241 10.7741 7.66676 10.7142 7.74317 10.644C8.32485 10.1063 8.74034 9.39413 8.94999 8.62712C8.98055 8.50622 9.02449 8.37467 8.9784 8.25184C8.93065 8.14278 8.822 8.08185 8.72625 8.02212C8.38096 7.82021 8.03616 7.61782 7.69111 7.41567C8.19638 6.85032 8.77759 6.35244 9.42374 5.95975Z" fill="#BD0908"/>
<path fill-rule="evenodd" clip-rule="evenodd" d="M11.5642 11.9452C12.1313 11.2164 12.7166 10.5021 13.2952 9.78223C13.8769 10.506 14.4669 11.2229 15.0342 11.9583C15.2384 12.2288 15.4259 12.5178 15.5457 12.8377C15.635 13.0858 15.636 13.3699 15.5261 13.6115C15.3783 13.9416 15.0545 14.1742 14.7057 14.2373C14.4354 14.2869 14.1486 14.231 13.9151 14.0847C13.7945 14.0114 13.6947 13.9101 13.5889 13.818C13.5514 13.9067 13.5122 14.0001 13.522 14.0992C13.5344 14.2269 13.5929 14.3434 13.6476 14.4573C13.778 14.7141 13.9253 14.9615 14.0676 15.2118C13.5516 15.2118 13.0356 15.212 12.5196 15.2115C12.6894 14.9223 12.9074 14.6551 13.0048 14.3285C13.0578 14.1548 13.0669 13.9696 13.0382 13.7907C12.9083 13.8976 12.7916 14.0228 12.6435 14.1045C12.3744 14.2605 12.0413 14.2975 11.7459 14.2022C11.442 14.105 11.169 13.8801 11.0506 13.5759C10.951 13.3269 10.9672 13.0425 11.0616 12.7947C11.1805 12.4854 11.3601 12.2037 11.5642 11.9452Z" fill="#BD0908"/>
</svg>
