<svg width="26" height="26" viewBox="0 0 26 26" fill="none" xmlns="http://www.w3.org/2000/svg">
<path opacity="0.2" d="M13 26C20.1797 26 26 20.1797 26 13C26 5.8203 20.1797 0 13 0C5.8203 0 0 5.8203 0 13C0 20.1797 5.8203 26 13 26Z" fill="#4F99CA"/>
<path fill-rule="evenodd" clip-rule="evenodd" d="M11.9052 12.5195C12.1869 15.1599 12.6418 17.9699 12.7262 18.4826C12.8404 18.4704 12.9552 18.4643 13.07 18.4644H13.1319C13.2208 17.9106 13.641 15.1589 13.9059 12.6564C14.1822 10.0462 14.2036 7.45608 14.2036 6.72619V6.60755C13.9788 6.4023 13.4581 6 12.8202 6C12.1824 6 11.6733 6.4023 11.4512 6.60755V6.72167C11.4743 7.21527 11.5987 9.64754 11.9052 12.5205V12.5196V12.5195ZM14.4438 6.72537C14.4438 7.45977 14.4215 10.0617 14.1443 12.6847L14.1441 12.6848C13.9061 14.9303 13.5419 17.3744 13.4099 18.2608L13.3773 18.48C13.4921 18.4913 13.606 18.5099 13.7185 18.5356C13.9434 18.0567 15.0691 15.6535 15.5845 13.848C16.1745 11.7806 16.5148 9.02447 16.5246 7.90961V7.70887C16.3266 7.39409 15.9018 6.81929 15.3491 6.6642C14.8667 6.52915 14.5859 6.58752 14.4438 6.65049V6.72537ZM14.2882 18.7381C14.1784 18.6837 14.065 18.6374 13.9488 18.5994H13.9481C14.22 18.0255 15.3049 15.69 15.8123 13.9136C16.4067 11.8253 16.7524 9.03719 16.7621 7.90862V7.8986C17.1891 7.90278 17.6051 8.03849 17.9562 8.28818C18.4653 8.62849 18.7274 9.27718 18.8367 9.6257L18.7861 9.83095C18.6616 10.3328 17.7429 12.9183 16.7557 14.8671C15.9187 16.5193 14.5797 18.3467 14.2882 18.7381ZM14.5005 18.8576C14.6396 18.9446 14.7702 19.0451 14.8906 19.1578L14.9443 19.1027L14.9443 19.1027C15.3775 18.6586 16.788 17.2126 17.7384 15.9828C18.8864 14.4975 20.0282 12.4122 20.2148 11.9606L20.3116 11.7252C20.285 11.4259 20.2041 10.9507 19.9562 10.5984C19.7136 10.2789 19.3871 10.037 19.0152 9.9014C18.8589 10.5215 17.9082 13.1264 16.9716 14.9819C16.1417 16.6104 14.8367 18.4032 14.4997 18.8571H14.5006L14.5005 18.8576ZM12.1362 18.6094C11.9139 18.1167 10.9242 15.8842 10.2587 13.6463C9.51678 11.152 9.09115 8.83555 9.00248 8.10476L8.98988 8.00313L8.98987 8.0031L8.98986 8.00302C8.98434 7.958 8.97918 7.91594 8.97401 7.87668C9.16465 7.41952 9.50722 7.04673 9.94065 6.82479C10.5422 6.54015 11.0068 6.62135 11.2254 6.68062V6.72989C11.2379 7.22529 11.3631 9.66675 11.6697 12.547C11.9505 15.1827 12.4028 17.9854 12.4916 18.5182C12.3713 18.5405 12.2526 18.571 12.1362 18.6094ZM10.998 19.8037C11.1739 19.5062 11.7683 18.7089 13.07 18.7089V18.7091V18.71C14.3629 18.71 14.9581 19.5275 15.1385 19.8395C14.1585 20.5557 13.3605 21 13.0798 21C12.7991 21 12.0989 20.633 10.998 19.8037ZM20.4254 12.0698C20.2193 12.5552 19.073 14.6462 17.9227 16.1351C16.9212 17.4306 15.4214 18.9634 15.0563 19.3283C15.1573 19.4414 15.2483 19.5635 15.3281 19.6933C16.1098 19.106 16.8552 18.4695 17.5601 17.7874C19.44 15.9627 20.936 14.1609 20.9878 13.2512C21.0252 12.7814 20.8094 12.3281 20.4254 12.0698ZM11.2145 19.1576C10.0846 18.1381 9.03889 17.0243 8.08806 15.8276C6.90305 14.3351 6.08434 13.0076 5.65615 11.8932C5.58771 11.7153 5.53349 11.5629 5.49087 11.437C5.49013 11.1675 5.55357 10.9019 5.67566 10.6634C5.95016 10.1461 6.64414 9.90985 6.9196 9.83415V9.83916L6.94711 9.9477L6.94789 9.95055C7.14831 10.6783 7.6163 12.3778 8.84384 14.8322C9.57251 16.2972 10.4528 17.6773 11.4695 18.9487C11.3801 19.0125 11.295 19.0823 11.2145 19.1576ZM7.90327 15.9827C6.74817 14.5229 5.93249 13.2201 5.48288 12.1062C5.31408 12.2585 4.96394 12.6645 5.00312 13.3834C5.05373 14.3268 6.37323 15.8185 8.78563 17.9643C9.56044 18.6539 10.2357 19.2142 10.8106 19.6556C10.8816 19.5409 10.9618 19.4326 11.0505 19.3317C9.91341 18.306 8.86054 17.186 7.90255 15.9828H7.90343L7.90327 15.9827ZM9.05637 14.7169C7.83746 12.2842 7.37457 10.6 7.17731 9.88112L7.14613 9.7688C7.1159 9.65755 7.09191 9.56626 7.07328 9.48966C7.13549 9.18489 7.28654 8.72791 7.65883 8.44598C7.97786 8.20374 8.36879 8.08252 8.76508 8.10296V8.1312C8.85575 8.86929 9.28402 11.2053 10.0302 13.7151C10.6922 15.9403 11.6723 18.161 11.9121 18.6929C11.8305 18.7287 11.7507 18.7689 11.6731 18.8133C10.6584 17.5496 9.781 16.176 9.05637 14.7169Z" fill="url(#paint0_linear_1_2623)"/>
<defs>
<linearGradient id="paint0_linear_1_2623" x1="3.18429" y1="12.0834" x2="11.5138" y2="22.5886" gradientUnits="userSpaceOnUse">
<stop stop-color="white"/>
<stop offset="0.16" stop-color="#D5AC51"/>
<stop offset="0.18" stop-color="#D2A644"/>
<stop offset="0.26" stop-color="#CC9B2E"/>
<stop offset="0.29" stop-color="#E6DE5F"/>
<stop offset="0.45" stop-color="#9D9A62"/>
<stop offset="0.63" stop-color="#787864"/>
<stop offset="0.7" stop-color="#517E69" stop-opacity="0.96"/>
<stop offset="0.89" stop-color="#4F99CA"/>
</linearGradient>
</defs>
</svg>
