<svg width="26" height="26" viewBox="0 0 26 26" fill="none" xmlns="http://www.w3.org/2000/svg">
<path opacity="0.2" d="M13 26C20.1797 26 26 20.1797 26 13C26 5.8203 20.1797 0 13 0C5.8203 0 0 5.8203 0 13C0 20.1797 5.8203 26 13 26Z" fill="#F13D20"/>
<path fill-rule="evenodd" clip-rule="evenodd" d="M4 13C4 8.0374 8.0374 4 13 4C17.9625 4 22 8.0374 22 13C22 17.9626 17.9626 22 13 22C8.0374 22 4 17.9626 4 13ZM5.4112 13.0001C5.4112 17.1845 8.81554 20.5888 13 20.5888C17.185 20.5888 20.5888 17.1845 20.5888 13C20.5888 8.81554 17.1844 5.4112 13 5.4112C8.81563 5.4112 5.4112 8.81572 5.4112 13.0001Z" fill="#F13D20"/>
<path fill-rule="evenodd" clip-rule="evenodd" d="M13 8.95999C10.7723 8.95999 8.95999 10.7723 8.95999 13.0001C8.95999 14.2061 9.49153 15.2892 10.332 16.0299C10.7516 15.8124 11.1973 15.6494 11.6583 15.5449C10.7456 15.0616 10.1222 14.1026 10.1222 13.0002C10.1222 11.4133 11.4132 10.1223 13 10.1223C14.5868 10.1223 15.8778 11.4132 15.8778 13C15.8778 14.1025 15.2545 15.0615 14.3417 15.5447C14.8027 15.6492 15.2484 15.8122 15.6681 16.0298C16.5084 15.2891 17.0401 14.206 17.0401 13C17.0401 10.7722 15.2277 8.9599 13 8.9599" fill="#F13D20"/>
<path fill-rule="evenodd" clip-rule="evenodd" d="M13 6.38671C9.35329 6.38671 6.38653 9.35329 6.38653 13.0001C6.38653 14.8877 7.18267 16.5917 8.45527 17.7977C8.66785 17.4155 8.94847 17.0645 9.28588 16.756C8.31667 15.7973 7.71475 14.4678 7.71475 13C7.71475 10.0857 10.0857 7.71475 13 7.71475C15.9143 7.71475 18.2852 10.0857 18.2852 13C18.2852 14.4677 17.6832 15.7972 16.7138 16.756C17.0513 17.0645 17.3321 17.4155 17.5447 17.7977C18.8172 16.5917 19.6134 14.8877 19.6134 13.0001C19.6133 9.35329 16.6465 6.38671 13 6.38671" fill="#F13D20"/>
</svg>
