<svg width="26" height="26" viewBox="0 0 26 26" fill="none" xmlns="http://www.w3.org/2000/svg">
<path opacity="0.2" d="M13 26C20.1797 26 26 20.1797 26 13C26 5.8203 20.1797 0 13 0C5.8203 0 0 5.8203 0 13C0 20.1797 5.8203 26 13 26Z" fill="#45525B"/>
<path fill-rule="evenodd" clip-rule="evenodd" d="M25.415 14.287C25.454 13.858 25.48 13.442 25.48 13C25.48 6.10999 19.89 0.519989 13 0.519989C6.11 0.519989 0.52 6.10999 0.52 13C0.52 13.052 25.22 13.637 25.415 14.287Z" fill="#D7D1C7"/>
<path fill-rule="evenodd" clip-rule="evenodd" d="M0.467999 13.026C0.467999 19.916 6.058 25.506 12.948 25.506C19.838 25.506 24.719 21.268 25.428 14.586C25.4335 14.534 0.467999 12.597 0.467999 13.026Z" fill="#BFB5AF"/>
<path fill-rule="evenodd" clip-rule="evenodd" d="M8.164 3.76999C9.542 3.76999 10.66 4.88799 10.66 6.26599C10.66 7.64399 9.542 8.76199 8.164 8.76199C6.786 8.76199 5.668 7.64399 5.668 6.26599C5.668 4.88799 6.786 3.76999 8.164 3.76999Z" fill="#F47E33"/>
<path fill-rule="evenodd" clip-rule="evenodd" d="M5.148 6.266C5.148 7.93 6.5 9.282 8.164 9.282C9.815 9.282 11.18 7.93 11.18 6.266C11.18 4.602 9.828 3.25 8.164 3.25C6.5 3.25 5.148 4.602 5.148 6.266ZM6.188 6.266C6.188 5.17469 7.07268 4.29 8.164 4.29C9.243 4.29 10.14 5.174 10.14 6.266C10.14 7.35731 9.25531 8.242 8.164 8.242C7.07268 8.242 6.188 7.35731 6.188 6.266Z" fill="#35312E"/>
<path fill-rule="evenodd" clip-rule="evenodd" d="M16.276 3.65302C18.4371 3.65302 20.189 5.4049 20.189 7.56602C20.189 9.72714 18.4371 11.479 16.276 11.479C14.1149 11.479 12.363 9.72714 12.363 7.56602C12.363 5.4049 14.1149 3.65302 16.276 3.65302Z" fill="#F47E33"/>
<path fill-rule="evenodd" clip-rule="evenodd" d="M9.269 15.938L12.441 11.934L13.117 12.324L14.417 12.805L15.34 12.324L18.291 9.17801L19.318 10.556L19.812 10.153H20.462L22.1 12.441L23.27 12.246L25.376 14.638" fill="#BFB5AF"/>
<path fill-rule="evenodd" clip-rule="evenodd" d="M11.349 13.949L9.633 13L7.137 13.65L5.993 9.867H3.939L1.963 13.338L0.52 13.39" fill="#BFB5AF"/>
<path fill-rule="evenodd" clip-rule="evenodd" d="M5.668 14.677C5.668 14.677 4.732 17.407 4.732 17.459C4.732 17.719 5.148 17.927 5.668 17.927C6.188 17.927 6.604 17.719 6.604 17.459C6.591 17.42 5.668 14.677 5.668 14.677Z" fill="#F47E33"/>
<path fill-rule="evenodd" clip-rule="evenodd" d="M3.51 13.624C3.51 13.624 2.587 16.341 2.587 16.393C2.587 16.653 3.003 16.861 3.51 16.861C4.017 16.861 4.433 16.653 4.433 16.393C4.433 16.341 3.51 13.624 3.51 13.624Z" fill="#F47E33"/>
<path fill-rule="evenodd" clip-rule="evenodd" d="M20.449 13.91C20.449 14.963 15.444 14.963 15.444 13.91C15.444 12.857 16.562 11.999 17.94 11.999C19.318 11.999 20.449 12.844 20.449 13.91Z" fill="#D8A780"/>
<path fill-rule="evenodd" clip-rule="evenodd" d="M22.945 16.51C22.945 17.563 17.94 17.563 17.94 16.51C17.94 15.457 19.058 14.599 20.436 14.599C21.827 14.586 22.945 15.444 22.945 16.51Z" fill="#D8A780"/>
<path fill-rule="evenodd" clip-rule="evenodd" d="M17.94 19.604C17.94 20.657 12.935 20.657 12.935 19.604C12.935 18.551 14.053 17.693 15.431 17.693C16.809 17.693 17.94 18.551 17.94 19.604Z" fill="#D8A780"/>
<path fill-rule="evenodd" clip-rule="evenodd" d="M13.143 24.973C7.982 24.973 3.562 21.736 1.807 17.186C2.158 17.186 2.522 17.199 2.899 17.199C3.081 17.251 3.289 17.277 3.51 17.277C3.692 17.277 3.848 17.264 4.004 17.225C4.082 17.225 4.173 17.225 4.251 17.238C4.225 17.316 4.225 17.342 4.225 17.368C4.225 17.953 4.849 18.369 5.694 18.369C6.526 18.369 6.994 17.849 7.033 17.29C7.163 17.303 7.436 17.433 7.566 17.446C11.076 17.823 11.31 18.46 11.31 18.486C11.323 18.538 11.232 18.811 10.53 19.292C9.022 20.332 8.502 20.943 8.645 21.593C8.814 22.373 9.828 22.568 11.362 22.854C11.791 22.932 12.285 23.036 12.792 23.14C13.351 23.27 13.936 23.387 14.495 23.491C15.535 23.699 16.588 23.907 17.42 24.167C16.107 24.7 14.651 24.973 13.143 24.973Z" fill="#D7D1C7"/>
<path fill-rule="evenodd" clip-rule="evenodd" d="M0 13C0 5.837 5.837 0 13 0C20.163 0 26 5.837 26 13C26 20.163 20.163 26 13 26C5.837 26 0 20.163 0 13ZM22.347 11.882L23.465 11.687L24.96 13.377V13C24.96 6.409 19.591 1.04 13 1.04C6.461 1.04 1.118 6.318 1.04 12.844L1.651 12.831L3.64 9.347H6.37L7.488 13.013L9.711 12.441L10.868 13.078L12.311 11.258L13.338 11.856L14.378 12.233L15.015 11.908L15.08 11.843C13.221 11.31 11.843 9.594 11.843 7.566C11.843 5.122 13.845 3.146 16.289 3.146C18.733 3.146 20.722 5.135 20.722 7.579C20.7223 8.29882 20.5484 9.00802 20.215 9.646H20.735L22.347 11.882ZM15.444 19.877C16.562 19.877 17.238 19.669 17.42 19.539C17.368 18.811 16.484 18.213 15.444 18.213C14.404 18.213 13.52 18.811 13.468 19.539C13.65 19.669 14.326 19.877 15.444 19.877ZM20.449 15.106C21.489 15.106 22.373 15.704 22.425 16.432C22.243 16.562 21.554 16.77 20.449 16.77C19.344 16.77 18.655 16.562 18.473 16.432C18.525 15.704 19.409 15.106 20.449 15.106ZM17.94 14.17C19.045 14.17 19.734 13.962 19.916 13.832C19.864 13.104 18.98 12.506 17.94 12.506C16.9 12.506 16.016 13.104 15.964 13.832C16.146 13.962 16.835 14.17 17.94 14.17ZM19.123 9.425L18.343 8.372L15.925 10.959C14.222 10.777 12.896 9.334 12.896 7.579C12.896 5.707 14.417 4.186 16.289 4.186C18.161 4.186 19.682 5.707 19.682 7.579C19.6803 8.23577 19.4859 8.87762 19.123 9.425ZM14.7057 22.5347L14.7057 22.5347C16.2071 22.8347 17.6221 23.1173 18.564 23.582C21.866 21.84 24.245 18.616 24.817 14.82L23.062 12.831L21.866 13.039L20.176 10.712H19.981L19.201 11.336L18.226 10.023L16.601 11.752C16.6325 11.731 16.6725 11.7185 16.7072 11.7076L16.731 11.7C17.316 11.518 17.771 11.245 17.927 10.712C18.07 11.193 18.499 11.466 18.993 11.648C19.0255 11.661 19.058 11.6707 19.0905 11.6805L19.0905 11.6805C19.123 11.6903 19.1555 11.7 19.188 11.713H19.201C20.189 12.09 20.878 12.87 20.943 13.793C21.086 13.988 21.294 14.144 21.528 14.261L21.5801 14.2783C21.721 14.3248 21.8688 14.3736 21.996 14.443C22.0112 14.443 22.022 14.4475 22.0309 14.4512C22.0372 14.4538 22.0426 14.456 22.048 14.456H22.035C22.88 14.885 23.452 15.639 23.452 16.51C23.452 16.835 23.257 17.485 21.775 17.732C21.3036 17.8094 20.9572 18.2163 20.956 18.694V19.89C20.956 20.189 20.696 20.436 20.384 20.41C20.111 20.384 19.916 20.137 19.916 19.864V18.694C19.9148 18.2163 19.5684 17.8094 19.097 17.732C18.85 17.693 18.642 17.641 18.46 17.576V19.617C18.46 20.007 18.174 20.93 15.444 20.93C12.727 20.93 12.428 20.007 12.428 19.617C12.428 18.538 13.299 17.628 14.508 17.303C14.976 17.121 15.34 16.861 15.47 16.406C15.639 16.965 16.172 17.238 16.744 17.42H16.731C16.991 17.511 17.225 17.641 17.433 17.784V16.094C17.4318 15.6163 17.0854 15.2094 16.614 15.132C15.132 14.885 14.937 14.222 14.937 13.91C14.937 13.598 15.015 13.299 15.145 13.026L14.469 13.377L12.909 12.805L12.571 12.61L9.685 16.263L8.866 15.613L10.218 13.91L9.581 13.559L6.799 14.274L5.616 10.387H4.251L2.275 13.845L1.079 13.884C1.14357 14.6796 1.28285 15.4674 1.495 16.237H2.093C2.145 16.016 2.34 15.431 3.016 13.455L3.51 12.012L3.965 13.481L4.05452 13.7409C4.40318 14.7529 4.61194 15.3588 4.732 15.743C4.77555 15.6172 4.82091 15.4842 4.86941 15.3419L4.86943 15.3418C4.95121 15.102 5.04192 14.8359 5.148 14.534L5.642 13.091L6.136 14.534L6.38586 15.272L6.38605 15.2726L6.38621 15.273C6.55649 15.7757 6.68686 16.1606 6.786 16.458C7.072 16.484 7.345 16.51 7.605 16.536C10.491 16.848 11.908 17.394 12.181 18.291C12.48 19.253 11.375 20.007 11.011 20.254C9.997 20.943 9.711 21.281 9.62 21.424C9.893 21.58 10.738 21.749 11.44 21.879C11.882 21.957 12.376 22.048 12.883 22.165C13.429 22.282 14.001 22.399 14.547 22.503L14.7057 22.5347ZM5.317 17.368L5.668 16.315L6.019 17.368C5.79014 17.4373 5.54586 17.4373 5.317 17.368ZM3.25079 16.0218L3.25074 16.022L3.2507 16.0221C3.22131 16.1128 3.19496 16.1941 3.172 16.263C3.28088 16.263 3.38976 16.2662 3.50019 16.2694L3.50032 16.2694L3.5005 16.2694C3.61412 16.2727 3.72939 16.276 3.848 16.276C3.78463 16.0479 3.65948 15.6838 3.52074 15.2802L3.51 15.249C3.40914 15.5332 3.32122 15.8045 3.25079 16.0218ZM13 24.96C7.917 24.96 3.562 21.775 1.833 17.29C1.99872 17.29 2.1707 17.2931 2.34586 17.2963L2.34632 17.2963H2.3464C2.52831 17.2996 2.71365 17.303 2.899 17.303C3.09368 17.357 3.29499 17.3832 3.497 17.381C3.666 17.381 3.835 17.368 3.978 17.329C4.06054 17.3272 4.14311 17.3315 4.225 17.342C4.199 17.42 4.199 17.446 4.199 17.472C4.199 18.044 4.81 18.46 5.655 18.46C6.474 18.46 7.072 18.07 7.098 17.524C7.163 17.5305 7.23125 17.537 7.2995 17.5435C7.36775 17.55 7.436 17.5565 7.501 17.563C10.959 17.94 11.193 18.564 11.193 18.59C11.206 18.642 11.128 18.915 10.426 19.383C8.957 20.397 8.45 21.008 8.58 21.645C8.736 22.412 9.737 22.607 11.258 22.893C11.687 22.971 12.168 23.062 12.662 23.179C12.9894 23.2492 13.3308 23.3193 13.6722 23.3895L13.6728 23.3896C13.9006 23.4364 14.1284 23.4832 14.352 23.53L14.5386 23.5682C15.4926 23.7636 16.457 23.9611 17.238 24.193C15.883 24.7018 14.4473 24.9616 13 24.96Z" fill="#35312E"/>
</svg>
