<svg width="26" height="26" viewBox="0 0 26 26" fill="none" xmlns="http://www.w3.org/2000/svg">
<path opacity="0.2" d="M13 26C20.1797 26 26 20.1797 26 13C26 5.8203 20.1797 0 13 0C5.8203 0 0 5.8203 0 13C0 20.1797 5.8203 26 13 26Z" fill="#009A82"/>
<path fill-rule="evenodd" clip-rule="evenodd" d="M14.1378 9.56892C15.3171 10.1586 15.3171 11.8414 14.1378 12.4311L9.31554 14.8422C8.2517 15.3741 7 14.6006 7 13.4111L7 8.58886C7 7.39944 8.2517 6.62585 9.31554 7.15777L14.1378 9.56892Z" fill="#009A82"/>
<path fill-rule="evenodd" clip-rule="evenodd" d="M14.8622 16.4311C13.6829 15.8414 13.6829 14.1586 14.8622 13.5689L17.6845 12.1578C18.7483 11.6258 20 12.3994 20 13.5889V16.4111C20 17.6006 18.7483 18.3741 17.6845 17.8422L14.8622 16.4311Z" fill="#00BB62"/>
</svg>
