<svg width="26" height="26" viewBox="0 0 26 26" fill="none" xmlns="http://www.w3.org/2000/svg">
<path opacity="0.1" d="M13 26C20.1797 26 26 20.1797 26 13C26 5.8203 20.1797 0 13 0C5.8203 0 0 5.8203 0 13C0 20.1797 5.8203 26 13 26Z" fill="#662D91"/>
<mask id="mask0_1_167" style="mask-type:luminance" maskUnits="userSpaceOnUse" x="0" y="0" width="26" height="26">
<path d="M13 26C20.1797 26 26 20.1797 26 13C26 5.8203 20.1797 0 13 0C5.8203 0 0 5.8203 0 13C0 20.1797 5.8203 26 13 26Z" fill="white"/>
</mask>
<g mask="url(#mask0_1_167)">
<path fill-rule="evenodd" clip-rule="evenodd" d="M12.0041 19.9015L13.9791 17.7117C14.0124 17.6788 13.9902 17.6241 13.9347 17.6241H11.76C11.7489 17.6241 11.7267 17.6132 11.7156 17.6022L9.87374 15.5657C9.86265 15.5438 9.85155 15.5219 9.86265 15.5L12.9472 10.2774C12.9583 10.2555 12.9583 10.2336 12.9472 10.2226L11.6712 8.05476C11.649 8.02191 11.5935 8.02191 11.5714 8.05476L7.01109 15.7847C7 15.8066 7 15.8285 7.01109 15.8504L10.6726 19.9124C10.6837 19.9234 10.6948 19.9343 10.717 19.9343H11.9597C11.9708 19.9234 11.993 19.9124 12.0041 19.9015Z" fill="white"/>
<path d="M12.0707 7.20073C12.0596 7.22263 12.0596 7.24453 12.0707 7.25547L13.4021 9.51095L16.9305 15.4891C16.9416 15.5109 16.9416 15.5328 16.9194 15.5547L15.0554 17.6131L13.0693 19.8248C13.036 19.8577 13.0582 19.9124 13.1136 19.9124H16.0872C16.0983 19.9124 16.1205 19.9015 16.1316 19.8905L19.7931 15.8285C19.8042 15.8066 19.8153 15.7847 19.8042 15.7628L13.4465 5.03285C13.4354 4.98905 13.3799 4.98905 13.3577 5.03285L12.0707 7.20073Z" fill="white"/>
</g>
</svg>
