<svg width="26" height="26" viewBox="0 0 26 26" fill="none" xmlns="http://www.w3.org/2000/svg">
<path opacity="0.2" d="M13 26C20.1797 26 26 20.1797 26 13C26 5.8203 20.1797 0 13 0C5.8203 0 0 5.8203 0 13C0 20.1797 5.8203 26 13 26Z" fill="#3D6FC0"/>
<path fill-rule="evenodd" clip-rule="evenodd" d="M17.4968 10.1603L17.4968 10.1604L17.4971 10.1606C17.9379 10.5552 18.3722 10.944 18.7565 11.3067C23.1321 15.4542 19.3206 20.9592 12.8603 20.9592C6.40005 20.9592 2.59621 15.4542 6.97858 11.3075C7.37226 10.9341 7.8197 10.5335 8.27312 10.1275C9.62213 8.91965 11.0241 7.66432 11.2211 6.93834C11.4844 5.96834 10.7853 5.08334 10.7853 5.08334C11.8807 5.06584 12.5113 5.545 12.8642 6.08917C13.2238 5.545 13.8477 5.06584 14.9478 5.08334C14.9478 5.08334 14.2526 5.97584 14.514 6.93917C14.7114 7.66692 16.1348 8.94113 17.4968 10.1603ZM6.64014 16.04C7.29774 18.4817 10.2608 19.6908 12.8642 19.6908C15.4743 19.6908 18.4306 18.4817 19.095 16.04C19.735 13.6511 17.5541 11.9433 15.4635 10.3063C14.4803 9.53639 13.517 8.78211 12.8767 7.98L12.8632 7.96834L12.8497 7.98C12.6021 8.27501 12.3311 8.55484 12.0388 8.8175C12.7813 9.46417 13.5285 10.11 14.2768 10.7442C14.5562 10.9795 14.8716 11.221 15.1984 11.4711L15.1984 11.4711C16.7251 12.6399 18.4991 13.998 18.0083 15.8067C17.4751 17.7758 14.9411 18.6975 12.8642 18.6975C10.7872 18.6975 8.25328 17.7758 7.72007 15.8067C7.22822 14.003 8.99261 12.6502 10.517 11.4814L10.517 11.4814L10.5171 11.4814C10.8485 11.2273 11.1685 10.9819 11.4516 10.7425C11.5121 10.6902 11.5759 10.6366 11.6416 10.5815L11.6416 10.5815C11.711 10.5232 11.7823 10.4633 11.8537 10.4017C11.7361 10.3096 11.622 10.2142 11.5088 10.1194L11.5088 10.1194C11.4549 10.0743 11.4012 10.0293 11.3475 9.985L11.036 9.715C10.6685 10.0453 10.2521 10.3769 9.82459 10.7174C8.02875 12.1475 6.03579 13.7347 6.64014 16.04ZM14.8447 14.1792C14.7116 14.0413 14.5679 13.9112 14.4146 13.79L15.2207 13.06C16.3845 14.0892 17.4924 15.3758 15.7819 16.6325C15.0414 17.1775 13.9267 17.4225 12.8536 17.4225C11.7804 17.4225 10.6725 17.1775 9.93102 16.6325C8.21471 15.37 9.34285 14.0775 10.5096 13.0425L11.3127 13.7783C11.149 13.9 10.9983 14.0342 10.8625 14.1792C9.59547 15.5375 11.4506 16.3817 12.8497 16.3817C14.2488 16.3817 16.1117 15.5375 14.8447 14.1792ZM11.9221 15.0592C12.5065 15.3512 13.2262 15.3534 13.813 15.065L13.407 13.1083C13.7655 12.9409 13.9879 12.6163 13.9856 12.2642C13.9859 11.7926 13.5931 11.3894 13.0554 11.3093C12.5177 11.2292 11.9914 11.4955 11.8091 11.94C11.6268 12.3845 11.8415 12.8778 12.3175 13.1083L11.9221 15.0592Z" fill="#3D6FC0"/>
</svg>
