<svg width="26" height="26" viewBox="0 0 26 26" fill="none" xmlns="http://www.w3.org/2000/svg">
<path d="M25.9295 13.0002C25.9295 20.1422 20.1399 25.9318 12.9981 25.9318C5.8562 25.9318 0.0666046 20.1422 0.0666046 13.0002C0.0666046 5.85841 5.8562 0.0688171 12.9981 0.0688171C20.1399 0.0688171 25.9295 5.85841 25.9295 13.0002Z" fill="white"/>
<path fill-rule="evenodd" clip-rule="evenodd" d="M11.0095 9.58099H7.45438V10.7284H11.0095V9.58099ZM8.02778 14.859H16.3652C17.5464 14.8473 18.4982 15.7881 18.5211 16.9702C18.5211 18.1406 17.5119 19.1044 16.3536 19.1044H8.02778V14.859Z" fill="#014655"/>
<path fill-rule="evenodd" clip-rule="evenodd" d="M12.9935 0C5.81433 0 0 5.81724 0 13C0 20.1828 5.81433 26 12.9935 26C20.1727 26 25.987 20.1828 25.987 13C25.9984 5.81724 20.1725 0 12.9935 0ZM13.4179 5.79436H19.6107V7.05653H14.794V10.7281H18.3492V9.581H15.8261V8.31857H19.7253V11.9903H13.4179V5.79436ZM10.2067 5.90915H6.30757V7.40064H10.2067V5.90915ZM6.19283 8.3187H11.1241V5.79436H12.4998V11.9903H6.19283V8.3187ZM6.30757 20.7106H16.6518V20.7104C18.6587 20.7104 20.2988 19.0239 20.2988 16.9815C20.2988 14.9391 18.6589 13.2525 16.652 13.2525H6.30757V20.7106Z" fill="#014655"/>
<path d="M6.30757 5.90915H10.2067V7.40064H6.30757V5.90915Z" fill="#C39145"/>
</svg>
