<svg width="26" height="26" viewBox="0 0 26 26" fill="none" xmlns="http://www.w3.org/2000/svg">
<path opacity="0.2" d="M13 26C20.1797 26 26 20.1797 26 13C26 5.8203 20.1797 0 13 0C5.8203 0 0 5.8203 0 13C0 20.1797 5.8203 26 13 26Z" fill="#034DA2"/>
<path fill-rule="evenodd" clip-rule="evenodd" d="M13.0045 21.9876C17.4095 21.9876 20.9804 18.4151 20.9804 14.0083C20.9804 9.60141 17.4095 6.02895 13.0045 6.02895C8.59951 6.02895 5.02857 9.60141 5.02857 14.0083C5.02857 18.4151 8.59951 21.9876 13.0045 21.9876Z" fill="white" stroke="#034DA2" stroke-width="0.628612"/>
<path fill-rule="evenodd" clip-rule="evenodd" d="M14.229 7.73851L14.3196 11.8935V11.8919C15.0649 12.3506 15.5123 13.1768 15.4936 14.06C15.475 14.9431 14.993 15.7492 14.229 16.1751V20.2764C13.42 20.4335 12.589 20.4335 11.78 20.2764V16.1751C10.9838 15.731 10.4966 14.876 10.5152 13.9555C10.5338 13.035 11.0551 12.201 11.8686 11.7902L11.78 7.73851C12.589 7.58141 13.42 7.58141 14.229 7.73851ZM10.4331 16.9114C9.78073 16.3359 9.34113 15.5526 9.18653 14.6904H6.65592C6.90082 17.0057 8.38571 18.9538 10.4331 19.8584V16.9114ZM16.822 14.6904C16.6702 15.5373 16.2434 16.3086 15.6094 16.8817H15.6167V19.8382C17.6429 18.9286 19.1086 16.9916 19.3527 14.6904H16.822ZM10.4331 8.16022C8.38775 9.06275 6.90163 11.0092 6.65592 13.3261H9.18653C9.3414 12.4641 9.78096 11.6811 10.4331 11.1055V8.16022ZM15.6167 11.1423V8.17841C17.6429 9.08838 19.1086 11.0249 19.3527 13.3261H16.822C16.6709 12.4828 16.2468 11.7144 15.6167 11.1423Z" fill="#034DA2"/>
</svg>
