<svg width="26" height="26" viewBox="0 0 26 26" fill="none" xmlns="http://www.w3.org/2000/svg">
<path opacity="0.2" d="M13 26C20.1797 26 26 20.1797 26 13C26 5.8203 20.1797 0 13 0C5.8203 0 0 5.8203 0 13C0 20.1797 5.8203 26 13 26Z" fill="#3F4F59"/>
<path fill-rule="evenodd" clip-rule="evenodd" d="M8.80937 5.03891C10.1304 4.33824 11.6303 3.98267 13.1229 4.00522C14.9225 4.02616 16.7169 4.602 18.1818 5.65301C17.9287 6.35368 17.6929 7.06079 17.4353 7.75985C16.6325 8.05824 15.833 8.36468 15.0302 8.66267C14.0025 8.01435 12.8071 7.63824 11.5946 7.57421C10.4852 7.5122 9.36303 7.71676 8.3429 8.1577C6.97844 8.74603 5.80844 9.77126 5.03821 11.0433C4.52995 11.8737 4.20692 12.8099 4.05786 13.7707C3.86781 11.6764 4.44719 9.51958 5.6654 7.80536C6.47781 6.65327 7.56344 5.69529 8.80937 5.03891Z" fill="#29ABE2"/>
<path fill-rule="evenodd" clip-rule="evenodd" d="M21.9763 12.8115C22.0088 14.359 21.6404 15.9166 20.9043 17.2793C20.1216 18.7346 18.9283 19.9644 17.5008 20.7927C16.0716 21.6247 14.4075 22.0427 12.7565 21.9956C10.8099 21.948 8.8845 21.2449 7.37178 20.0143C7.66669 19.2037 7.97687 18.3988 8.277 17.5906C9.04441 17.3188 9.81303 17.0502 10.5796 16.776C11.552 17.5217 12.7143 18.0158 13.9269 18.1886C15.2444 18.3875 16.6108 18.195 17.8351 17.6731C18.4209 17.442 18.9593 17.0989 19.4555 16.7131C20.693 15.7362 21.5918 14.3421 21.9763 12.8115Z" fill="#29ABE2"/>
<path fill-rule="evenodd" clip-rule="evenodd" d="M19.3141 6.59973C20.9662 8.21732 21.9377 10.4981 21.9763 12.8115C21.5918 14.3421 20.693 15.7362 19.4555 16.7132C18.9593 17.0989 18.4209 17.442 17.8351 17.6732C18.2116 16.7764 18.4265 15.8075 18.4241 14.8334C18.445 12.9311 17.6736 11.0268 16.3167 9.69436C16.3244 9.68671 16.34 9.67141 16.3481 9.66376C17.0721 9.38953 17.7973 9.11933 18.5213 8.8451C18.7921 8.09933 19.0493 7.34792 19.3141 6.59973Z" fill="#3F4F59"/>
<path fill-rule="evenodd" clip-rule="evenodd" d="M5.03822 11.0434C5.80844 9.77127 6.97844 8.74604 8.34291 8.15771C7.90134 9.1761 7.69965 10.2988 7.75831 11.407C7.83666 12.9742 8.44014 14.5125 9.46067 15.704C8.70411 15.9682 7.94996 16.2376 7.1938 16.5025C6.88483 17.3192 6.58067 18.1378 6.27371 18.9553C4.99683 17.5322 4.21175 15.677 4.05786 13.7707C4.20692 12.8099 4.52996 11.8737 5.03822 11.0434Z" fill="#3F4F59"/>
</svg>
