<svg width="26" height="26" viewBox="0 0 26 26" fill="none" xmlns="http://www.w3.org/2000/svg">
<path opacity="0.2" d="M13 26C20.1797 26 26 20.1797 26 13C26 5.8203 20.1797 0 13 0C5.8203 0 0 5.8203 0 13C0 20.1797 5.8203 26 13 26Z" fill="#474847"/>
<path fill-rule="evenodd" clip-rule="evenodd" d="M13.5101 4H12.4409C12.3333 4.018 12.226 4.0342 12.1176 4.04464C10.3011 4.21384 8.54572 4.9648 7.1626 6.15388C5.65528 7.43476 4.58536 9.22252 4.18828 11.1618C4.12038 11.4636 4.08379 11.7702 4.04721 12.0768C4.03219 12.2026 4.01718 12.3284 4 12.4539V13.7258L4.02304 13.5519C4.11232 15.3663 4.79884 17.1407 5.92348 18.5642C7.06576 20.0207 8.66416 21.1158 10.4415 21.6378C11.0794 21.8333 11.7414 21.9312 12.4035 22H13.6185C13.7101 21.9881 13.8019 21.9769 13.8937 21.9657C14.2436 21.9229 14.5935 21.8802 14.9372 21.7995C15.7742 21.6166 16.5842 21.3124 17.3344 20.8995C19.327 19.8087 20.8815 17.9399 21.5734 15.7745C21.8092 15.0642 21.9309 14.3223 22 13.5789V12.3869C21.9852 12.2915 21.9719 12.1961 21.9618 12.1C21.8898 11.3505 21.7188 10.611 21.46 9.90436C20.7821 8.04172 19.4624 6.4264 17.7855 5.3734C16.6472 4.657 15.3454 4.20124 14.0084 4.0558C13.842 4.0396 13.6754 4.02268 13.5101 4ZM8.17456 7.45096C9.292 6.47248 10.7144 5.84824 12.1918 5.69128C13.2628 5.57608 14.3604 5.68876 15.3803 6.0376C16.4474 6.40084 17.4294 7.0132 18.2214 7.81564C19.057 8.6494 19.6823 9.69088 20.0322 10.818C20.5611 12.5288 20.4491 14.435 19.6982 16.0629C19.206 17.1472 18.4403 18.1023 17.4996 18.8309C16.5201 19.5884 15.3454 20.0945 14.12 20.2763C13.0191 20.4408 11.88 20.3616 10.8166 20.0319C9.68116 19.6787 8.63248 19.0466 7.79548 18.2013C6.86704 17.2786 6.1978 16.1 5.87416 14.8317C5.53432 13.4856 5.57572 12.0435 6.00592 10.7223C6.41416 9.46192 7.1734 8.31856 8.17456 7.45096Z" fill="#474847"/>
<path fill-rule="evenodd" clip-rule="evenodd" d="M12.339 5.83276C13.6703 5.70892 15.0362 5.962 16.2306 6.56536C17.4309 7.16584 18.4554 8.11012 19.1535 9.25636C20.07 10.746 20.4077 12.5774 20.0888 14.2967C19.8368 15.7014 19.1499 17.0226 18.1498 18.04C17.2282 18.9846 16.0424 19.669 14.7615 19.9883C12.9896 20.4398 11.0495 20.1809 9.4612 19.2741C8.23108 18.58 7.21408 17.5158 6.5776 16.2548C6.05596 15.2302 5.7892 14.0782 5.80324 12.9287C5.81368 11.5632 6.22552 10.2039 6.97648 9.06304C7.7656 7.85452 8.92588 6.89188 10.2618 6.34396C10.9232 6.07036 11.6262 5.899 12.339 5.83276ZM12.3614 6.88954L12.3614 6.88974C12.2995 7.16751 12.2376 7.4453 12.1734 7.7224C12.237 7.71896 12.3009 7.71585 12.3646 7.71276L12.3646 7.71276L12.3646 7.71276L12.3646 7.71276L12.3646 7.71276L12.3646 7.71276L12.3646 7.71276L12.3646 7.71276L12.3647 7.71275L12.3647 7.71275L12.3736 7.71232C12.3926 7.6266 12.4107 7.54088 12.4287 7.45515L12.4287 7.45515L12.4287 7.45514L12.4287 7.45513L12.4287 7.45512L12.4287 7.45512L12.4287 7.45511L12.4287 7.4551L12.4287 7.4551L12.4287 7.45509L12.4287 7.45508L12.4287 7.45507L12.4287 7.45507L12.4287 7.45506L12.4287 7.45505L12.4287 7.45505L12.4287 7.45504L12.4287 7.45503L12.4287 7.45502L12.4287 7.45502L12.4287 7.45501L12.4287 7.455L12.4287 7.455L12.4288 7.45499L12.4288 7.45498L12.4288 7.45497L12.4288 7.45497L12.4288 7.45496L12.4288 7.45495L12.4288 7.45495L12.4288 7.45494L12.4288 7.4548L12.4424 7.39048C12.5788 7.3786 12.7156 7.37176 12.8524 7.36564C12.8862 7.46788 12.9212 7.57012 12.9564 7.672L13.157 7.66336C13.0673 7.41195 12.9785 7.16012 12.8897 6.90827C12.8124 6.68914 12.7352 6.46999 12.6573 6.25108L12.5025 6.2608C12.4548 6.47009 12.4081 6.6797 12.3614 6.88934L12.3614 6.88954ZM13.3168 7.01064L13.3168 7.0105C13.3337 6.75781 13.3506 6.50511 13.3694 6.25252L13.5587 6.26332C13.5401 6.51903 13.523 6.77485 13.5059 7.0306L13.5058 7.03077L13.5058 7.03093C13.4909 7.25394 13.476 7.47691 13.4601 7.69972C13.3964 7.69648 13.333 7.69288 13.27 7.68928C13.2865 7.46312 13.3016 7.23688 13.3168 7.01064ZM14.008 6.44404C13.8618 6.55623 13.8263 6.74019 13.793 6.91253C13.7878 6.93927 13.7827 6.96573 13.7772 6.9916C13.7728 7.01628 13.768 7.04139 13.763 7.06681C13.7266 7.25457 13.6871 7.45878 13.8003 7.62556C13.891 7.78684 14.1131 7.85272 14.2758 7.76236C14.4006 7.70247 14.4654 7.5741 14.5246 7.4566L14.5264 7.45312L14.4998 7.44806C14.4441 7.4375 14.3883 7.4269 14.3327 7.41604C14.3243 7.42556 14.316 7.4355 14.3075 7.44555C14.2564 7.50626 14.2016 7.5713 14.1164 7.57408C13.9745 7.56472 13.8978 7.4074 13.9223 7.2796C13.9482 7.10104 13.976 6.92104 14.0314 6.74896C14.0674 6.6352 14.2046 6.54052 14.3201 6.60388C14.395 6.63747 14.4166 6.71827 14.4364 6.79233L14.4364 6.79238L14.4364 6.79244L14.4364 6.7925C14.4398 6.8049 14.443 6.81711 14.4465 6.82888C14.5109 6.84184 14.5757 6.85444 14.6405 6.86668C14.6308 6.72232 14.6121 6.5632 14.5037 6.45592C14.3738 6.32308 14.1437 6.31732 14.008 6.44404ZM11.3198 7.76326C11.218 7.3519 11.1162 6.94065 11.0189 6.52828C11.0842 6.51629 11.1492 6.498 11.2143 6.47969C11.3504 6.44139 11.487 6.40297 11.628 6.42172C11.8689 6.50308 11.9661 6.8494 11.807 7.04776C12.0824 7.15432 12.1558 7.59784 11.9146 7.77496C11.8032 7.82515 11.6834 7.85127 11.5636 7.87736C11.4953 7.89226 11.4269 7.90716 11.3602 7.92652L11.3198 7.76326ZM15.1319 6.67192C14.9897 6.72412 14.8929 6.85192 14.8396 6.98908C14.8278 7.01877 14.8159 7.04844 14.804 7.07813C14.7442 7.22667 14.6842 7.37583 14.6452 7.53124C14.5948 7.72996 14.6909 7.97872 14.8976 8.04244C15.0945 8.10364 15.3065 7.97728 15.3947 7.80088C15.4818 7.61872 15.5499 7.42756 15.615 7.2364C15.6683 7.08484 15.6489 6.90628 15.552 6.77596C15.4548 6.65572 15.2741 6.60748 15.1319 6.67192ZM10.6048 7.19068L10.6048 7.19066L10.6048 7.19064L10.6048 7.19062L10.6048 7.19061L10.6048 7.19059L10.6048 7.19057L10.6048 7.19055L10.6048 7.19054L10.6048 7.19052L10.6047 7.1905L10.6047 7.19048L10.6047 7.19047L10.6047 7.19045L10.6047 7.19043L10.6047 7.19041L10.6047 7.1904L10.6047 7.19038L10.6047 7.19036L10.6046 7.1903L10.6046 7.19017C10.5392 7.04546 10.4738 6.90078 10.4076 6.75652C10.4656 6.72988 10.5236 6.7036 10.5819 6.67768C10.642 6.81145 10.7024 6.94507 10.7629 7.07868C10.8336 7.23487 10.9042 7.39105 10.9743 7.54744C11.0362 7.68568 11.0571 7.85128 10.9883 7.99096C10.9235 8.13964 10.7504 8.22568 10.592 8.19544C10.4256 8.16772 10.2978 8.03524 10.2309 7.88656C10.1734 7.76193 10.1173 7.63676 10.0611 7.51161C9.98666 7.34575 9.91223 7.17991 9.83488 7.01536L9.83498 7.01531C9.89327 6.98905 9.95155 6.96278 10.0102 6.93616L10.092 7.11751L10.0922 7.1178C10.1863 7.32619 10.2804 7.53463 10.3738 7.74328C10.413 7.82968 10.4627 7.92256 10.5556 7.96C10.656 8.00752 10.7882 7.9438 10.8184 7.83832C10.8512 7.744 10.8098 7.6468 10.7727 7.56076C10.7164 7.43755 10.6606 7.3141 10.6048 7.19068ZM15.4343 8.26708C15.4678 8.28592 15.5015 8.30463 15.5352 8.32337L15.6003 8.3596C15.7133 8.15308 15.8247 7.9457 15.9361 7.7383L15.9362 7.73824C16.0522 7.5223 16.1682 7.30634 16.2861 7.09132C16.2303 7.06072 16.1741 7.02976 16.1187 6.9988C16.0103 7.19831 15.9029 7.39822 15.7954 7.59812L15.7954 7.59819L15.7953 7.5983L15.7953 7.5984L15.7952 7.59851L15.7952 7.59861L15.7951 7.59872L15.795 7.59883L15.795 7.59897L15.7949 7.59914L15.7948 7.59936C15.675 7.82214 15.5553 8.04491 15.4343 8.26708ZM15.948 8.56264C15.8962 8.5252 15.8444 8.48812 15.7925 8.45104C15.9108 8.28989 16.0293 8.12892 16.1479 7.96793L16.1479 7.96791L16.1479 7.96789L16.1479 7.96787L16.1479 7.96786L16.1479 7.96784L16.1479 7.96782L16.148 7.9678L16.148 7.96778L16.148 7.96776L16.148 7.96774L16.148 7.96773L16.148 7.96771L16.148 7.96769L16.1481 7.96767L16.1481 7.96765L16.1481 7.96763L16.1481 7.96761L16.1481 7.9676L16.1483 7.96736L16.1484 7.96716C16.3144 7.7418 16.4804 7.51641 16.6457 7.2904L16.7055 7.33332L16.789 7.39336C16.726 7.753 16.6648 8.113 16.6043 8.473C16.7161 8.32813 16.824 8.18031 16.932 8.03248L16.9321 8.03246L16.9321 8.03242L16.9321 8.03237L16.9322 8.0323C17.0166 7.91679 17.101 7.80126 17.1872 7.68712L17.2408 7.72694C17.274 7.75153 17.3073 7.77623 17.3405 7.80124C17.0543 8.18572 16.7706 8.57236 16.4877 8.95936C16.4394 8.9248 16.3916 8.8906 16.3433 8.8564C16.3651 8.72817 16.3874 8.60003 16.4097 8.4719L16.4097 8.4718L16.4097 8.47168C16.45 8.23981 16.4903 8.00797 16.5276 7.77568C16.3775 7.97516 16.2302 8.17675 16.0829 8.37835L15.948 8.56264ZM8.80276 7.68892C8.95912 7.91694 9.11787 8.1433 9.2766 8.36963L9.27661 8.36965L9.27662 8.36966L9.27663 8.36967L9.27664 8.36969L9.27665 8.3697L9.27666 8.36972L9.27667 8.36973L9.27668 8.36975L9.27669 8.36976L9.2767 8.36977L9.27671 8.36979L9.27672 8.3698L9.27673 8.36982L9.27674 8.36983L9.27675 8.36985L9.27676 8.36986L9.27677 8.36987L9.27678 8.36989L9.27679 8.3699L9.2768 8.36992L9.27681 8.36993L9.27682 8.36995L9.27683 8.36996C9.39394 8.53694 9.51104 8.7039 9.62716 8.87152C9.67254 8.83754 9.71989 8.80588 9.76726 8.77421L9.76726 8.77421C9.85591 8.71493 9.94462 8.65561 10.0206 8.581C10.17 8.39992 10.1121 8.13316 9.97924 7.95964C9.94832 7.91745 9.91852 7.87242 9.88837 7.82688C9.76831 7.64547 9.64288 7.45596 9.42016 7.4056C9.24327 7.36521 9.10522 7.47039 8.9698 7.57357C8.9145 7.61571 8.85964 7.6575 8.80276 7.68892ZM9.04396 10.5596C9.62428 9.62212 10.5434 8.89636 11.5974 8.56732C12.6141 8.24548 13.7409 8.28508 14.7309 8.6818C15.7965 9.1048 16.69 9.93928 17.19 10.9703C17.6804 11.9711 17.7858 13.1505 17.4942 14.2251C17.2307 15.2118 16.6241 16.0992 15.8102 16.7145C15.1481 17.2199 14.3464 17.5374 13.5188 17.6285C13.5188 17.5583 13.5191 17.4885 13.5195 17.4186H12.4874L12.4884 17.6282C11.3516 17.5076 10.2723 16.9442 9.51916 16.0852C8.84992 15.336 8.43664 14.363 8.36608 13.3607C8.28832 12.3869 8.527 11.3894 9.04396 10.5596ZM18.4148 13.819C18.404 13.8683 18.3932 13.9176 18.3827 13.9673C18.5181 14.0541 18.6534 14.1408 18.7866 14.2308C18.7006 14.2461 18.6143 14.2606 18.528 14.2751C18.4555 14.2873 18.3829 14.2995 18.3104 14.3122C18.2996 14.3608 18.2891 14.409 18.279 14.4576C18.3581 14.4433 18.4369 14.4277 18.5158 14.412L18.5158 14.412L18.5159 14.412L18.5159 14.412L18.5159 14.412L18.5159 14.412L18.5159 14.412L18.516 14.412L18.516 14.412L18.516 14.412L18.516 14.412L18.516 14.412L18.5161 14.412L18.5161 14.412L18.5161 14.412L18.5161 14.412L18.5161 14.412L18.5162 14.412L18.5162 14.412L18.5162 14.412L18.5162 14.412L18.5162 14.412C18.6473 14.3859 18.7785 14.3599 18.9108 14.3399C19.0106 14.3399 19.108 14.3632 19.2052 14.3864L19.2052 14.3864L19.2053 14.3864C19.2582 14.399 19.3111 14.4117 19.3644 14.4206L19.3932 14.2895C19.3397 14.2759 19.285 14.266 19.2303 14.2561C19.1344 14.2386 19.0385 14.2212 18.9486 14.184C18.829 14.1076 18.7126 14.0262 18.596 13.9447L18.596 13.9447L18.596 13.9447L18.5959 13.9447L18.5959 13.9447L18.5959 13.9447L18.5959 13.9446L18.5959 13.9446L18.5958 13.9446L18.5958 13.9446L18.5958 13.9446L18.5958 13.9446L18.5958 13.9446L18.5957 13.9445L18.5957 13.9445L18.5957 13.9445L18.5957 13.9445L18.5957 13.9445L18.5956 13.9445L18.5956 13.9445L18.5956 13.9444L18.5956 13.9444C18.5355 13.9024 18.4753 13.8604 18.4148 13.819ZM6.57249 14.1304L6.5578 14.066C6.75182 14.0783 6.94584 14.0915 7.13992 14.1047L7.14039 14.1048C7.31454 14.1167 7.48873 14.1285 7.663 14.1398C7.66186 14.1539 7.66429 14.17 7.66673 14.1862C7.67279 14.2264 7.67894 14.2672 7.63096 14.2805C7.50235 14.3535 7.37315 14.4253 7.24395 14.4972C7.06972 14.5941 6.89549 14.691 6.72268 14.7906L6.68704 14.6466C6.73994 14.6171 6.79304 14.5878 6.84604 14.5586L6.90232 14.5275C6.88719 14.4647 6.87275 14.4019 6.85831 14.339L6.8583 14.339L6.8583 14.339L6.8583 14.339L6.8583 14.3389L6.8583 14.3389L6.85829 14.3389L6.85829 14.3389L6.85829 14.3389L6.85829 14.3389L6.85829 14.3389L6.85828 14.3389L6.85828 14.3389L6.85828 14.3389L6.85828 14.3389L6.85827 14.3389L6.85827 14.3388L6.85827 14.3388L6.85827 14.3388L6.85827 14.3388L6.85826 14.3388C6.84936 14.3 6.84046 14.2613 6.8314 14.2226L6.71098 14.2163L6.59056 14.21L6.57249 14.1304ZM18.2736 14.638C18.1512 14.7125 18.1037 14.8868 18.1804 15.0102C18.2445 15.1408 18.3856 15.1892 18.5156 15.2339C18.5323 15.2396 18.5488 15.2453 18.5649 15.2511L18.6045 15.2645C18.7429 15.3118 18.8974 15.3646 19.034 15.2882C19.1826 15.2216 19.2334 15.0171 19.1398 14.8857C19.0652 14.7624 18.9281 14.717 18.797 14.6735C18.7681 14.6639 18.7394 14.6544 18.7118 14.6441C18.6929 14.698 18.6743 14.7519 18.6556 14.8059L18.6077 14.944C18.6588 14.9609 18.71 14.9778 18.7614 14.9955C18.7809 14.9382 18.8007 14.8814 18.8208 14.8248C18.8326 14.8311 18.8449 14.8372 18.8573 14.8433C18.9219 14.8754 18.9907 14.9094 19.0149 14.9825C19.0592 15.0902 18.9389 15.1989 18.8338 15.1787C18.6891 15.1499 18.5472 15.1013 18.4137 15.0383C18.332 14.9994 18.2751 14.8878 18.3334 14.8072C18.3629 14.7574 18.4188 14.7474 18.472 14.7379C18.487 14.7352 18.5017 14.7325 18.5156 14.7291L18.5157 14.7288C18.5322 14.6832 18.5487 14.6376 18.5649 14.5916L18.5283 14.5911C18.4407 14.5898 18.3491 14.5884 18.2736 14.638ZM6.80996 15.0609L6.7882 15.0059L6.99116 14.9301L6.99135 14.93C7.25342 14.832 7.51558 14.734 7.7782 14.6376C7.79272 14.6882 7.81331 14.7377 7.83394 14.7872C7.87416 14.884 7.91448 14.9809 7.90996 15.0858C7.861 15.3152 7.54996 15.3983 7.3714 15.2619C7.2508 15.3742 7.13092 15.4872 7.0132 15.6024L6.98314 15.5241L6.95308 15.4458C7.01248 15.3922 7.07233 15.339 7.13218 15.2858C7.19203 15.2326 7.25188 15.1794 7.31128 15.1258L7.25476 14.9822C7.19805 15.0036 7.14122 15.0249 7.08436 15.0461L7.08398 15.0462L7.08362 15.0464C7.00249 15.0767 6.92132 15.107 6.8404 15.138C6.83033 15.1122 6.82013 15.0865 6.80996 15.0609ZM18.0184 15.3245C17.8744 15.3764 17.8035 15.5578 17.8679 15.6957C17.9121 15.8206 18.0337 15.8836 18.1456 15.9414L18.1818 15.9603C18.2009 15.9696 18.2202 15.9794 18.2397 15.9892C18.3673 16.054 18.5029 16.1228 18.6488 16.0834C18.8064 16.0496 18.9044 15.8663 18.8439 15.7158C18.797 15.5733 18.6602 15.505 18.5334 15.4418C18.5152 15.4326 18.4971 15.4236 18.4796 15.4145L18.4588 15.404C18.3236 15.3351 18.1697 15.2567 18.0184 15.3245ZM7.1392 15.8692C7.11688 15.8246 7.09456 15.7803 7.07224 15.736C7.23076 15.7069 7.38842 15.6736 7.54602 15.6402L7.54606 15.6402C7.74387 15.5983 7.94157 15.5565 8.14072 15.5232C8.15826 15.5444 8.17428 15.5672 8.1903 15.5899L8.2084 15.6154C7.94488 15.8735 7.68244 16.1327 7.42072 16.393C7.39768 16.3494 7.37464 16.3059 7.35124 16.2623L7.5262 16.0935C7.47652 16.0017 7.42684 15.9099 7.37788 15.8181L7.25854 15.8436L7.1392 15.8692ZM7.54456 16.5802C7.57525 16.6197 7.60372 16.6612 7.6322 16.7027C7.68724 16.7829 7.74231 16.8632 7.81348 16.9294C8.0014 17.0439 8.27176 16.8732 8.27536 16.659C8.45968 16.7055 8.67388 16.5406 8.64652 16.3469C8.61347 16.2487 8.55019 16.1667 8.48701 16.0848C8.45591 16.0445 8.42483 16.0042 8.3974 15.9621C8.20342 16.1052 8.00792 16.246 7.81241 16.3869L7.81233 16.3869L7.81229 16.387L7.81224 16.387L7.81213 16.3871L7.812 16.3872C7.7228 16.4515 7.63361 16.5157 7.54456 16.5802ZM18.1933 16.8176L18.1933 16.8175L18.1933 16.8175L18.1932 16.8175L18.1932 16.8175L18.1932 16.8174L18.1931 16.8174L18.1931 16.8174L18.1931 16.8174L18.193 16.8173L18.193 16.8173L18.193 16.8173L18.1929 16.8173L18.1929 16.8173L18.1929 16.8172C17.9247 16.6351 17.6564 16.4529 17.3862 16.2731L17.3995 16.2532L17.3996 16.2531L17.3996 16.2531C17.4217 16.2199 17.4436 16.187 17.4658 16.1543L17.6845 16.3022L17.6845 16.3022L17.6846 16.3022L17.6846 16.3023L17.6847 16.3023L17.6847 16.3024L17.6848 16.3024L17.6848 16.3024L17.6849 16.3025L17.6849 16.3025L17.685 16.3025L17.6851 16.3026L17.6851 16.3026L17.6852 16.3027L17.6852 16.3027C17.8589 16.4202 18.0325 16.5377 18.207 16.654C18.2512 16.5878 18.2957 16.5217 18.3402 16.4556L18.3402 16.4555L18.3403 16.4555L18.4374 16.3109L18.5174 16.3655L18.5724 16.4031C18.499 16.5081 18.4275 16.6143 18.356 16.7205L18.3558 16.7209C18.3239 16.7682 18.292 16.8156 18.26 16.8628L18.1933 16.8176ZM17.1875 16.5431C17.0705 16.5917 16.9971 16.7256 17.0219 16.8509C17.0384 16.9852 17.1407 17.0758 17.2374 17.1614L17.2374 17.1615C17.2545 17.1766 17.2714 17.1916 17.2876 17.2066C17.3026 17.2192 17.3178 17.2323 17.3331 17.2456C17.4331 17.3325 17.5404 17.4258 17.68 17.4183C17.8438 17.424 17.9867 17.266 17.9594 17.1033C17.9431 16.9465 17.8227 16.8455 17.7073 16.7486L17.7073 16.7486L17.7073 16.7486L17.7072 16.7486L17.7072 16.7486L17.7072 16.7485L17.7072 16.7485L17.7072 16.7485L17.7072 16.7485L17.7071 16.7485L17.7071 16.7485L17.7071 16.7485L17.7071 16.7484L17.7071 16.7484L17.707 16.7484C17.6746 16.7212 17.6426 16.6943 17.6134 16.6666C17.5032 16.56 17.3402 16.478 17.1875 16.5431ZM8.15476 17.3628C8.12344 17.3268 8.09212 17.2912 8.0608 17.2556C8.20153 17.1346 8.34057 17.0115 8.47959 16.8884C8.60407 16.7782 8.72855 16.668 8.85424 16.5593L8.86512 16.5719C8.89216 16.603 8.91942 16.6345 8.9464 16.6659C8.85243 16.7486 8.75855 16.8314 8.66466 16.9142L8.66418 16.9147L8.66369 16.9151L8.66294 16.9158C8.49376 17.065 8.32455 17.2143 8.15476 17.3628ZM8.27248 17.5058L8.3848 17.6084C8.45284 17.5662 8.52052 17.5245 8.58892 17.4827L8.58905 17.4828C8.66496 17.5541 8.74088 17.6253 8.81788 17.6955C8.79696 17.7369 8.7758 17.7783 8.75462 17.8198L8.70664 17.914C8.74372 17.946 8.78116 17.9784 8.8186 18.0112C8.9223 17.7996 9.02781 17.5888 9.13327 17.378L9.1335 17.3775L9.13351 17.3775L9.13351 17.3775L9.13351 17.3775L9.13352 17.3775L9.13352 17.3775L9.13353 17.3775L9.13353 17.3775L9.13354 17.3775L9.13354 17.3775L9.13354 17.3775C9.19164 17.2614 9.24972 17.1453 9.30748 17.0291C9.27868 17.0025 9.24988 16.9758 9.22108 16.9496C8.90536 17.1357 8.58964 17.3218 8.27248 17.5058ZM16.8291 17.2229C16.7793 17.1646 16.7295 17.1064 16.6796 17.0482C16.7148 17.0169 16.7501 16.9859 16.7854 16.955C16.8976 17.0845 17.0089 17.2148 17.1201 17.3452L17.1202 17.3453L17.1203 17.3454L17.1204 17.3455L17.1205 17.3456L17.1206 17.3457L17.1207 17.3458L17.1208 17.3459L17.1209 17.346L17.1209 17.3461L17.121 17.3462C17.238 17.4832 17.3549 17.6202 17.473 17.7563L17.4645 17.7634L17.4643 17.7635C17.4323 17.7898 17.4006 17.816 17.369 17.8427C17.1184 17.7387 16.8675 17.6361 16.6155 17.5367L16.664 17.5935L16.6641 17.5936L16.6642 17.5938L16.6644 17.5939L16.6645 17.5941L16.6647 17.5943L16.6648 17.5944L16.6649 17.5946L16.6651 17.5948L16.6652 17.5949L16.6654 17.5951C16.8054 17.7589 16.9455 17.9229 17.0867 18.0857C17.0507 18.1163 17.0151 18.1473 16.9798 18.1782C16.8495 18.0289 16.7209 17.8781 16.5924 17.7274L16.5923 17.7274L16.5923 17.7273L16.5922 17.7272L16.5922 17.7272L16.5921 17.7271L16.5921 17.727L16.592 17.727L16.5919 17.7269L16.5919 17.7268L16.5918 17.7268C16.4925 17.6104 16.3933 17.494 16.2933 17.3783C16.325 17.3495 16.357 17.3207 16.389 17.2923C16.505 17.3376 16.6203 17.3846 16.7357 17.4315C16.8739 17.4877 17.0122 17.544 17.1515 17.5976C17.0432 17.4732 16.9362 17.3481 16.8291 17.2229ZM8.995 18.1552C9.03388 18.1826 9.0724 18.2103 9.11128 18.2384C9.15748 18.1725 9.20335 18.1064 9.24923 18.0403C9.34099 17.9082 9.43275 17.776 9.52708 17.6454L9.51886 17.7085C9.4867 17.9554 9.45452 18.2025 9.41836 18.449C9.45472 18.4752 9.49144 18.5019 9.5278 18.5285C9.72904 18.2402 9.93028 17.9518 10.1326 17.6642L10.0844 17.6312L10.0145 17.5835C9.96199 17.6603 9.90859 17.7365 9.8552 17.8126C9.77944 17.9207 9.70368 18.0288 9.6304 18.1386C9.62248 18.1422 9.607 18.1502 9.59944 18.1541C9.63054 17.9535 9.65617 17.7522 9.6818 17.551L9.68181 17.5508L9.68183 17.5507L9.68185 17.5506L9.68186 17.5504L9.68188 17.5503L9.6819 17.5502L9.68192 17.55L9.68193 17.5499L9.68195 17.5498C9.68979 17.4882 9.69764 17.4266 9.70564 17.365C9.67036 17.3405 9.63544 17.316 9.60052 17.2916C9.50597 17.4252 9.41237 17.5595 9.31875 17.6938C9.21132 17.8479 9.10388 18.0021 8.995 18.1552ZM16.2544 17.9033L16.2544 17.9032L16.2544 17.9032L16.2544 17.9032C16.1812 17.7865 16.1079 17.6696 16.033 17.5544C16.0632 17.5337 16.0938 17.5132 16.1244 17.4928L16.1507 17.4752C16.2472 17.6247 16.3418 17.7755 16.4364 17.9263L16.4365 17.9265C16.529 18.074 16.6216 18.2215 16.7159 18.368C16.6756 18.3932 16.6353 18.4187 16.595 18.4446C16.514 18.3154 16.433 18.1865 16.3516 18.0576C16.2716 18.1092 16.1908 18.16 16.1102 18.2107L16.1102 18.2107L16.1101 18.2107L16.1101 18.2107L16.1101 18.2107L16.1101 18.2107L16.1101 18.2108L16.11 18.2108L16.11 18.2108L16.0787 18.2304L16.1122 18.2837L16.1122 18.2837L16.1122 18.2838L16.1123 18.2839C16.1821 18.395 16.2518 18.5059 16.3228 18.6164L16.3227 18.6164C16.282 18.6412 16.2414 18.6661 16.2011 18.6916L16.0559 18.4606L16.0557 18.4603L16.0556 18.46L16.0554 18.4597L16.0552 18.4595L16.055 18.4592L16.0548 18.4589L16.0547 18.4586L16.0545 18.4583C15.9167 18.239 15.779 18.0198 15.6402 17.8013C15.6791 17.775 15.718 17.7491 15.7576 17.7232C15.7995 17.7877 15.8406 17.8526 15.8817 17.9176C15.9205 17.9789 15.9593 18.0402 15.9988 18.1012C16.0892 18.0436 16.1799 17.9864 16.2713 17.9302L16.2544 17.9033ZM10.1564 17.9684C10.0584 18.1062 9.98608 18.2614 9.91948 18.4162C9.841 18.5836 9.93352 18.8187 10.1243 18.8522C10.2644 18.8838 10.3817 18.7838 10.471 18.6902C10.4264 18.6671 10.3821 18.6448 10.3374 18.6225C10.2881 18.6513 10.2381 18.679 10.1877 18.7064C10.1074 18.6732 10.0232 18.6045 10.0448 18.5069C10.0819 18.3676 10.1558 18.2415 10.2281 18.1183L10.232 18.1116C10.2773 18.0242 10.4008 17.9687 10.4843 18.0378C10.5328 18.0726 10.5358 18.1303 10.5386 18.1854V18.1854C10.5395 18.2016 10.5403 18.2175 10.5423 18.2326C10.5851 18.2546 10.628 18.2765 10.6712 18.2985C10.6946 18.1692 10.7118 18.0116 10.6013 17.9154C10.4746 17.7912 10.2582 17.8352 10.1564 17.9684ZM15.34 18.7967C15.2586 18.6585 15.1928 18.5112 15.1377 18.3611C15.0653 18.1887 15.1737 17.95 15.3717 17.9356C15.5121 17.914 15.6194 18.0224 15.705 18.117C15.6716 18.132 15.6385 18.1474 15.6056 18.1628L15.6055 18.1628L15.6055 18.1628L15.6055 18.1628L15.6054 18.1629L15.5715 18.1786C15.5635 18.1732 15.5554 18.1674 15.547 18.1615C15.4875 18.1193 15.4179 18.0699 15.3476 18.1163C15.2622 18.1584 15.255 18.2704 15.2856 18.3496C15.3332 18.4745 15.3846 18.5998 15.4588 18.7118C15.5045 18.782 15.6057 18.8169 15.6806 18.7708C15.7284 18.7403 15.7376 18.6848 15.7463 18.6316C15.7494 18.6131 15.7523 18.595 15.7569 18.5782L15.7975 18.56C15.8277 18.5464 15.8581 18.5327 15.8886 18.5195C15.9063 18.6488 15.9084 18.8061 15.794 18.8939C15.6539 19.0152 15.4286 18.9476 15.34 18.7967ZM10.8814 18.0522C10.8236 18.2182 10.7649 18.3838 10.7063 18.5494C10.6476 18.715 10.5889 18.8806 10.5311 19.0466C10.5752 19.0613 10.6197 19.0763 10.6641 19.0914L10.6647 19.0916L10.6889 19.0225L10.689 19.0224C10.7312 18.9021 10.7735 18.7817 10.8173 18.6621L10.9266 18.7017L10.9267 18.7018C10.9917 18.7253 11.0567 18.7487 11.1215 18.773C11.091 18.8554 11.0615 18.9383 11.032 19.0212C11.011 19.0803 10.9899 19.1395 10.9685 19.1985C11.0128 19.2147 11.0574 19.2312 11.1021 19.2478L11.2195 18.9159L11.2197 18.9152C11.2978 18.6945 11.3758 18.4738 11.4542 18.2531L11.4536 18.2529C11.4092 18.2372 11.3647 18.2214 11.3206 18.206L11.1708 18.6279C11.0811 18.5951 10.9909 18.5629 10.9008 18.5308L10.8652 18.5181C10.8938 18.4419 10.9211 18.3654 10.9484 18.2888L10.9484 18.2888L10.9484 18.2888L10.9484 18.2887L10.9484 18.2887L10.9484 18.2887L10.9485 18.2887C10.971 18.2255 10.9935 18.1623 11.0168 18.0994C10.9718 18.0836 10.9264 18.0677 10.8814 18.0522ZM14.541 18.7544C14.4928 18.6006 14.4445 18.4469 14.3957 18.2934C14.5728 18.2391 14.7496 18.1836 14.926 18.1264C14.9422 18.1775 14.9588 18.2294 14.9753 18.2808C14.8439 18.323 14.7125 18.364 14.5808 18.404C14.6078 18.4954 14.6362 18.5865 14.6657 18.6776C14.778 18.6416 14.8907 18.6063 15.0034 18.5717C15.0182 18.62 15.0329 18.6689 15.0473 18.7179C14.9346 18.7521 14.8223 18.7877 14.71 18.8234C14.7402 18.9162 14.7698 19.0095 14.7986 19.1031C14.8474 19.0879 14.8962 19.0725 14.945 19.0572L14.9456 19.057C15.0285 19.0309 15.1115 19.0047 15.1946 18.9796L15.2156 19.0441C15.2251 19.0731 15.2345 19.1022 15.2442 19.1315L14.9427 19.227L14.7132 19.2996C14.6551 19.1181 14.5981 18.9362 14.541 18.7544ZM13.7135 18.4302L13.7448 18.5789L13.9734 18.5368C14.0067 18.7179 14.0411 18.8989 14.0754 19.0799C14.0972 19.1947 14.119 19.3094 14.1405 19.4242C14.1869 19.4138 14.2334 19.4037 14.2802 19.3936C14.2222 19.0991 14.1653 18.8043 14.1138 18.5087C14.1902 18.495 14.2661 18.481 14.3421 18.4662L14.3375 18.4441L14.3375 18.4441L14.3374 18.4441C14.3286 18.4015 14.3197 18.3591 14.3111 18.3165C14.112 18.3557 13.9126 18.3932 13.7135 18.4302ZM11.465 19.3457C11.4167 19.3342 11.3685 19.323 11.3202 19.3122C11.4236 19.1234 11.5244 18.9333 11.6252 18.7431L11.6253 18.7431C11.6959 18.61 11.7665 18.4769 11.8379 18.3442C11.8656 18.3492 11.9211 18.359 11.9488 18.3636C11.9723 18.5891 11.9919 18.8151 12.0114 19.0411L12.0114 19.0411L12.0114 19.0411C12.0236 19.1817 12.0358 19.3223 12.0489 19.4627C12 19.4519 11.9512 19.4415 11.9023 19.4311L11.902 19.431C11.897 19.3508 11.8916 19.2705 11.8862 19.1906C11.7839 19.1711 11.682 19.1499 11.5802 19.1279C11.5569 19.1717 11.5337 19.2156 11.5105 19.2595L11.465 19.3457ZM12.3588 18.4284C12.32 18.7794 12.2836 19.1304 12.2505 19.4822C12.2854 19.4843 12.3556 19.4894 12.3905 19.4919C12.4244 19.1438 12.4611 18.796 12.4982 18.4482C12.4517 18.4414 12.4053 18.4349 12.3588 18.4284ZM12.6614 18.9855C12.6582 18.811 12.6551 18.6365 12.6544 18.4619C12.6704 18.4672 12.6894 18.4682 12.7087 18.4692C12.7494 18.4713 12.791 18.4734 12.8067 18.5166C12.873 18.6323 12.9356 18.7501 12.9983 18.8679C13.055 18.9746 13.1118 19.0814 13.1714 19.1866C13.171 19.0591 13.1688 18.9317 13.1666 18.8043C13.1646 18.691 13.1627 18.5778 13.162 18.4644L13.3013 18.4634C13.3024 18.5219 13.3035 18.5804 13.3046 18.639C13.3102 18.9318 13.3158 19.2247 13.3164 19.5178C13.3014 19.5148 13.2839 19.5164 13.2661 19.518C13.2298 19.5212 13.1926 19.5244 13.175 19.4894C13.1047 19.3683 13.0391 19.2445 12.9736 19.1207C12.917 19.0137 12.8603 18.9067 12.8006 18.8014C12.8019 18.8818 12.8028 18.9622 12.8038 19.0426C12.8057 19.2034 12.8076 19.3642 12.8124 19.525C12.7643 19.5257 12.7166 19.5268 12.6688 19.5279L12.6684 19.5279C12.6679 19.3471 12.6646 19.1663 12.6614 18.9855Z" fill="#B39F5A"/>
<path fill-rule="evenodd" clip-rule="evenodd" d="M11.2508 6.68848C11.3433 6.66508 11.4354 6.63808 11.5308 6.62656C11.6961 6.62944 11.7616 6.89656 11.6291 6.98548C11.5391 7.02688 11.4387 7.03948 11.3429 7.06252C11.3134 6.9376 11.2824 6.81304 11.2508 6.68848Z" fill="#B39F5A"/>
<path fill-rule="evenodd" clip-rule="evenodd" d="M12.6008 6.59488C12.6666 6.77992 12.721 6.96892 12.7858 7.15468C12.6846 7.16188 12.5838 7.1698 12.483 7.177C12.5234 6.98332 12.5579 6.7882 12.6008 6.59488Z" fill="#B39F5A"/>
<path fill-rule="evenodd" clip-rule="evenodd" d="M15.1416 6.90556C15.2471 6.82492 15.4145 6.89656 15.434 7.02652C15.4617 7.18384 15.3746 7.32964 15.327 7.47436C15.2702 7.61044 15.2212 7.7944 15.0538 7.82752C14.9105 7.8556 14.8061 7.69252 14.8378 7.56472C14.8655 7.42612 14.9242 7.29616 14.9739 7.16404C15.0138 7.07008 15.0502 6.96244 15.1416 6.90556Z" fill="#B39F5A"/>
<path fill-rule="evenodd" clip-rule="evenodd" d="M11.393 7.26952C11.5053 7.2472 11.618 7.19572 11.7342 7.21192C11.861 7.26808 11.907 7.46284 11.8127 7.5676C11.7144 7.62484 11.5978 7.636 11.4894 7.66444C11.4588 7.53232 11.4268 7.40092 11.393 7.26952Z" fill="#B39F5A"/>
<path fill-rule="evenodd" clip-rule="evenodd" d="M9.085 7.76596C9.18292 7.70656 9.27508 7.59604 9.40108 7.61692C9.55984 7.64788 9.6358 7.80664 9.72544 7.924C9.80212 8.04712 9.92488 8.16556 9.91048 8.32252C9.88744 8.45392 9.74884 8.50612 9.65524 8.57992C9.46588 8.30812 9.27724 8.0356 9.085 7.76596Z" fill="#B39F5A"/>
<path fill-rule="evenodd" clip-rule="evenodd" d="M11.0362 8.99536C11.9924 8.52016 13.1224 8.4136 14.1534 8.68864C15.1643 8.95432 16.0694 9.59224 16.6659 10.4498C17.2635 11.2994 17.5472 12.3628 17.451 13.3971C17.3477 14.6841 16.6432 15.9027 15.5877 16.6443C15.5895 16.3998 15.5855 16.1558 15.5884 15.9113C15.5765 15.8508 15.6305 15.8145 15.6658 15.7767C16.4099 15.0743 16.8477 14.0591 16.847 13.036C16.8585 12.2818 16.6374 11.5262 16.2216 10.8969C15.731 10.1488 14.9746 9.57568 14.1153 9.3208C13.257 9.06268 12.3084 9.11308 11.4851 9.4684C10.5801 9.85396 9.83704 10.6024 9.45652 11.5096C9.09328 12.3657 9.05908 13.355 9.35824 14.2352C9.57172 14.8734 9.96016 15.4491 10.4634 15.8951C10.462 16.1561 10.4642 16.4168 10.4624 16.6778C9.61744 16.0874 8.97844 15.205 8.70376 14.21C8.43376 13.2455 8.49676 12.19 8.88916 11.268C9.30136 10.2856 10.079 9.463 11.0362 8.99536Z" fill="#B39F5A"/>
<path fill-rule="evenodd" clip-rule="evenodd" d="M12.8254 9.65452C12.8952 9.52204 13.1066 9.5224 13.1782 9.65308C13.2366 9.73007 13.1975 9.8244 13.1648 9.90301L13.162 9.90976C13.3183 10.245 13.4793 10.5782 13.6404 10.9114L13.6404 10.9114C13.7628 11.1646 13.8852 11.4178 14.0055 11.672C14.025 11.7278 14.0704 11.7605 14.116 11.7933C14.141 11.8113 14.166 11.8293 14.1869 11.8512C14.2214 11.8984 14.2149 11.9528 14.2083 12.0073C14.2019 12.0608 14.1955 12.1145 14.228 12.1616C14.272 12.2524 14.3157 12.3435 14.3595 12.4346L14.3595 12.4346C14.41 12.5399 14.4605 12.6452 14.5116 12.7502C14.5319 12.7955 14.5712 12.8228 14.6108 12.8504C14.6416 12.8718 14.6726 12.8934 14.6949 12.9237C14.7274 12.9741 14.7203 13.0334 14.7133 13.0908C14.7112 13.1085 14.7091 13.1259 14.7082 13.1429C14.7291 13.1859 14.7492 13.2293 14.7693 13.2726C14.8008 13.3408 14.8324 13.4089 14.867 13.4756C14.8868 13.5202 14.9288 13.5424 14.9709 13.5647C15.0145 13.5878 15.0582 13.6109 15.0776 13.6588C15.1046 13.705 15.0916 13.754 15.0787 13.8028C15.0658 13.8516 15.0529 13.9003 15.0801 13.9461C15.1311 14.0544 15.1835 14.162 15.2359 14.2696L15.2361 14.27C15.2656 14.3307 15.2952 14.3914 15.3245 14.4522C15.335 14.4567 15.3459 14.4612 15.3569 14.4656C15.4277 14.4943 15.5046 14.5254 15.5326 14.6024C15.5927 14.7395 15.4559 14.9246 15.3044 14.876C15.192 14.8601 15.1388 14.7518 15.1215 14.6513C14.9494 14.5224 14.7741 14.3982 14.5984 14.2744C14.5752 14.2812 14.5503 14.2845 14.5252 14.2877H14.5252C14.4719 14.2947 14.4182 14.3017 14.381 14.3428C14.2199 14.503 14.0597 14.6642 13.8995 14.8253L13.8995 14.8254L13.8994 14.8255C13.6943 15.0318 13.4892 15.2381 13.2822 15.4426C13.2418 15.4776 13.2211 15.5251 13.2003 15.5728C13.1861 15.6054 13.1718 15.6381 13.1512 15.6669C13.0799 15.7562 12.9248 15.7551 12.8535 15.6665C12.8356 15.6388 12.8225 15.6081 12.8094 15.5776C12.7873 15.5261 12.7653 15.4748 12.721 15.4376C12.3599 15.0783 11.9996 14.7176 11.6403 14.3565C11.5994 14.3027 11.5357 14.294 11.473 14.2855C11.4496 14.2823 11.4264 14.2792 11.4045 14.2737C11.3231 14.3333 11.2408 14.3918 11.1585 14.4504L11.1585 14.4504L11.1585 14.4504L11.1584 14.4504L11.1584 14.4504C11.0842 14.5032 11.01 14.556 10.9365 14.6096C10.8936 14.6364 10.876 14.6831 10.8584 14.7297C10.8387 14.7817 10.8191 14.8337 10.7644 14.8576C10.6208 14.9465 10.4238 14.7968 10.4627 14.6358C10.4789 14.5298 10.5861 14.4889 10.6736 14.4555L10.6794 14.4533L10.7012 14.4087L10.7012 14.4086C10.7772 14.2529 10.8531 14.0971 10.9264 13.9403C10.9476 13.8959 10.9372 13.8492 10.9268 13.8022C10.9161 13.7541 10.9054 13.7058 10.9286 13.6595C10.9492 13.6121 10.993 13.588 11.0367 13.5639C11.0838 13.538 11.1308 13.5121 11.1482 13.4572C11.1634 13.422 11.1814 13.3872 11.1995 13.3522C11.2565 13.2418 11.3142 13.1301 11.2886 13.0022C11.2848 12.9267 11.3387 12.889 11.3934 12.8508C11.4334 12.8229 11.4738 12.7947 11.4923 12.7512C11.5898 12.5494 11.687 12.3471 11.7842 12.1449L11.7842 12.1448L11.7842 12.1448L11.7842 12.1448L11.7842 12.1448L11.7842 12.1448L11.7842 12.1448L11.7842 12.1448L11.7842 12.1448L11.7842 12.1448L11.7842 12.1448L11.7842 12.1448L11.7842 12.1448L11.7842 12.1448L11.7842 12.1448L11.7842 12.1448L11.7842 12.1448L11.7842 12.1448L11.7842 12.1448L11.7842 12.1448L11.7842 12.1448L11.7842 12.1447L11.7842 12.1447L11.7842 12.1447L11.7842 12.1447L11.7842 12.1447L11.7842 12.1447L11.7842 12.1447L11.7842 12.1447L11.7842 12.1447L11.7842 12.1447L11.7842 12.1447L11.7843 12.1447L11.7843 12.1447L11.7843 12.1447L11.7843 12.1447L11.7843 12.1447L11.7843 12.1447L11.7843 12.1447L11.7843 12.1447L11.7843 12.1447L11.7843 12.1446L11.7843 12.1446C11.8082 12.1016 11.8023 12.0547 11.7964 12.0077C11.7908 11.9635 11.7852 11.9192 11.8044 11.8779C11.8253 11.8381 11.8613 11.812 11.8973 11.7859C11.9384 11.7561 11.9795 11.7264 11.9978 11.6763C12.1223 11.4148 12.2481 11.154 12.3739 10.8932C12.5319 10.5658 12.6899 10.2384 12.8452 9.90976C12.8092 9.83092 12.7682 9.73444 12.8254 9.65452ZM12.4683 11.0708C12.626 11.0268 12.7876 11.0585 12.9363 11.1183C12.8394 11.0243 12.7102 10.9854 12.5817 10.9566C12.6702 10.8855 12.7702 10.9404 12.8614 10.9904C12.8893 11.0057 12.9164 11.0205 12.942 11.0312C12.9181 11.003 12.8924 10.9764 12.8668 10.9498C12.8222 10.9036 12.7778 10.8575 12.7426 10.8036C12.8189 10.8248 12.8827 10.8719 12.9457 10.9185L12.9467 10.9192L12.8578 10.7982C12.9471 10.8299 13.0432 10.8375 13.1318 10.7986C13.1235 10.8166 13.1073 10.8526 13.0994 10.8706C13.1512 10.844 13.2059 10.8267 13.2635 10.8188C13.243 10.8395 13.2221 10.8598 13.2012 10.8802L13.2012 10.8802L13.2012 10.8802L13.2012 10.8802L13.2012 10.8802L13.2012 10.8802L13.2012 10.8802L13.2012 10.8802L13.2012 10.8802L13.2012 10.8802L13.2012 10.8802L13.2012 10.8802L13.2012 10.8802L13.2012 10.8802L13.2012 10.8802L13.2012 10.8802L13.2011 10.8802C13.1539 10.9262 13.1067 10.9721 13.0641 11.0225C13.0904 11.0125 13.1182 10.9978 13.1468 10.9827L13.1468 10.9827C13.2361 10.9357 13.3331 10.8846 13.4165 10.9563C13.2891 10.9851 13.1613 11.0254 13.0641 11.1176C13.1998 11.0686 13.3474 11.0157 13.4896 11.0772C13.4957 11.0423 13.5004 11.0049 13.482 10.9728L13.4709 10.9473C13.3763 10.766 13.2884 10.5814 13.2005 10.3967L13.2005 10.3967C13.1359 10.2609 13.0712 10.1252 13.004 9.99076C12.9259 10.1405 12.854 10.2934 12.782 10.4463C12.6827 10.6573 12.5835 10.8683 12.4683 11.0708ZM13.1494 11.1467C13.2444 11.1226 13.3416 11.1093 13.4399 11.114C13.4528 11.1179 13.4686 11.1149 13.4844 11.1119C13.5111 11.1069 13.5378 11.1019 13.5512 11.1294C13.6097 11.2441 13.6648 11.3606 13.7198 11.4771C13.77 11.5833 13.8201 11.6895 13.873 11.7944C13.6944 11.7975 13.5158 11.797 13.3374 11.7965L13.2038 11.7962C13.1663 11.7612 13.1285 11.7267 13.0907 11.6932C13.1156 11.6586 13.1404 11.6241 13.1649 11.5892C13.1109 11.5395 13.0612 11.484 13.0302 11.4171C13.1147 11.47 13.1742 11.5485 13.2335 11.6268C13.2554 11.6556 13.2772 11.6844 13.3002 11.7119C13.3055 11.6131 13.2433 11.5407 13.1825 11.4697L13.1825 11.4697L13.1824 11.4697L13.1824 11.4697C13.1595 11.4429 13.1367 11.4164 13.1177 11.3886C13.1869 11.4255 13.2446 11.4774 13.3024 11.5294C13.3367 11.5603 13.371 11.5912 13.4079 11.619C13.3842 11.4836 13.2676 11.4131 13.158 11.3468L13.158 11.3468L13.158 11.3468L13.158 11.3468L13.158 11.3468L13.158 11.3468L13.158 11.3468L13.158 11.3468L13.158 11.3468L13.158 11.3468L13.158 11.3468L13.158 11.3468L13.158 11.3468L13.158 11.3468L13.158 11.3468L13.1579 11.3468L13.1579 11.3468C13.1344 11.3325 13.1112 11.3185 13.0893 11.304C13.2371 11.3149 13.3543 11.4033 13.4679 11.4891L13.4889 11.5049C13.4542 11.3191 13.2319 11.2721 13.0717 11.2382L13.058 11.2353C13.2248 11.1899 13.3758 11.2679 13.5194 11.342L13.5533 11.3595C13.4905 11.2071 13.3103 11.1752 13.1655 11.1496L13.1494 11.1467ZM12.4395 11.1406C12.3757 11.296 12.3016 11.4471 12.2275 11.598L12.2275 11.598L12.2275 11.5981L12.2275 11.5981L12.2275 11.5981L12.2275 11.5981L12.2275 11.5981L12.2275 11.5981L12.2275 11.5981L12.2275 11.5981L12.2275 11.5982L12.2275 11.5982L12.2275 11.5982L12.2275 11.5982L12.2274 11.5982L12.2274 11.5982L12.2274 11.5982L12.2274 11.5982L12.2274 11.5982L12.2274 11.5983L12.2274 11.5983L12.2274 11.5983L12.2274 11.5983L12.2274 11.5983L12.2274 11.5983L12.2274 11.5983L12.2274 11.5983L12.2274 11.5983L12.2274 11.5984L12.2274 11.5984L12.2274 11.5984L12.2274 11.5984L12.2273 11.5984L12.2273 11.5984L12.2273 11.5984L12.2273 11.5984L12.2273 11.5984L12.2273 11.5985L12.2273 11.5985L12.2273 11.5985C12.1953 11.6638 12.1632 11.7291 12.132 11.7947C12.2866 11.7975 12.4412 11.7971 12.596 11.7967C12.6648 11.7966 12.7336 11.7964 12.8024 11.7965C12.8376 11.762 12.8733 11.7278 12.9093 11.6939C12.883 11.6604 12.8571 11.6273 12.8315 11.5938C12.8852 11.5384 12.9363 11.4804 12.978 11.4156C12.8891 11.464 12.8285 11.5434 12.7682 11.6224C12.745 11.6528 12.7219 11.6831 12.6972 11.7116C12.6942 11.6171 12.7509 11.5464 12.807 11.4765L12.807 11.4765C12.8303 11.4475 12.8534 11.4186 12.8722 11.3883C12.8108 11.4261 12.7578 11.4741 12.7047 11.5222C12.6677 11.5556 12.6308 11.5891 12.591 11.619C12.6148 11.4834 12.7331 11.4104 12.8429 11.3427L12.8429 11.3427L12.8429 11.3427L12.8429 11.3427L12.8429 11.3427L12.8429 11.3427L12.8429 11.3427L12.8429 11.3427L12.8429 11.3427L12.8429 11.3427L12.8429 11.3427L12.8429 11.3427L12.843 11.3427L12.843 11.3427L12.843 11.3427L12.843 11.3427L12.843 11.3427L12.843 11.3427L12.843 11.3427L12.843 11.3427L12.843 11.3427L12.843 11.3426L12.8431 11.3426C12.8628 11.3304 12.8824 11.3184 12.901 11.3062C12.758 11.3207 12.6432 11.405 12.5315 11.4871L12.5082 11.5042C12.5493 11.3116 12.7826 11.2655 12.9482 11.2356C12.7709 11.1892 12.6081 11.2733 12.4557 11.3521L12.4449 11.3577C12.5158 11.196 12.7116 11.1647 12.8664 11.15C12.7289 11.1129 12.5752 11.0931 12.4395 11.1406ZM12.963 11.9892C12.9262 11.9622 12.8876 11.9339 12.8934 11.884C12.8881 11.8341 12.9273 11.8065 12.9644 11.7805C12.9773 11.7714 12.9899 11.7625 13.0004 11.753C13.0092 11.7595 13.0186 11.7657 13.0281 11.7721C13.0701 11.8003 13.1143 11.8299 13.1199 11.8851C13.1117 11.9387 13.0686 11.9688 13.0272 11.9976C13.0175 12.0043 13.0079 12.011 12.9989 12.0179C12.9885 12.0079 12.9758 11.9987 12.963 11.9892ZM11.9621 11.8559C11.8966 11.8754 11.8523 11.9607 11.897 12.0204C11.9337 12.0989 12.0561 12.0968 12.0899 12.0168C12.1468 11.9376 12.0507 11.826 11.9621 11.8559ZM13.9464 12.0557C13.8845 12.0129 13.8881 11.9085 13.9518 11.8696C14.0177 11.8224 14.1232 11.8746 14.1236 11.956C14.1369 12.0442 14.0138 12.1205 13.9464 12.0557ZM12.8696 12.6824L12.8696 12.6824L12.9312 12.7426L12.9305 12.671C12.9286 12.4799 12.9268 12.2889 12.9226 12.0978C12.8984 12.0645 12.869 12.0356 12.8397 12.0068C12.8272 11.9945 12.8148 11.9823 12.8027 11.9697C12.737 11.9705 12.6713 11.9696 12.6056 11.9687H12.6055H12.6055H12.6055H12.6055H12.6055H12.6055H12.6055H12.6055H12.6055H12.6055H12.6055H12.6055H12.6055H12.6055H12.6055H12.6054H12.6054H12.6054H12.6054H12.6054H12.6054H12.6054H12.6054H12.6054H12.6054H12.6054H12.6054H12.6054H12.6054H12.6054H12.6054H12.6053H12.6053H12.6053H12.6053C12.4625 11.9668 12.3196 11.9648 12.1774 11.9801C12.3985 12.2231 12.6343 12.453 12.8695 12.6824L12.8695 12.6824L12.8696 12.6824ZM13.076 12.0924C13.1195 12.0525 13.1624 12.0118 13.2052 11.9708C13.2525 11.9705 13.2999 11.9699 13.3472 11.9693H13.3473H13.3473H13.3473H13.3473H13.3473H13.3473H13.3473H13.3473H13.3474H13.3474H13.3474H13.3474H13.3474H13.3474H13.3474H13.3475H13.3475H13.3475H13.3475H13.3475H13.3475H13.3475H13.3476H13.3476H13.3476H13.3476H13.3476H13.3476H13.3476H13.3476H13.3477H13.3477H13.3477H13.3477C13.5071 11.9671 13.6667 11.965 13.8258 11.9772C13.6734 12.1557 13.5053 12.3198 13.3372 12.484L13.3372 12.484L13.3372 12.484L13.3372 12.484L13.3372 12.484L13.3372 12.484L13.3372 12.484L13.3372 12.484L13.3372 12.484L13.3372 12.484L13.3372 12.484L13.3372 12.484L13.3371 12.484L13.3371 12.484L13.3371 12.484L13.3371 12.4841L13.3371 12.4841L13.3371 12.4841L13.3371 12.4841L13.3371 12.4841L13.3371 12.4841L13.3371 12.4841L13.3371 12.4841L13.3371 12.4841L13.3371 12.4841L13.3371 12.4841L13.3371 12.4841L13.3371 12.4841L13.3371 12.4841L13.337 12.4841L13.337 12.4841L13.337 12.4841L13.337 12.4841L13.337 12.4842L13.337 12.4842C13.2491 12.57 13.1612 12.6558 13.0756 12.7437C13.077 12.5266 13.077 12.3095 13.076 12.0924ZM11.6219 12.8841L11.6729 12.8851C11.7924 12.8874 11.9121 12.8897 12.0316 12.8862C12.0733 12.8924 12.1052 12.8675 12.1358 12.8438L12.1508 12.8322L12.0832 12.6065C12.0411 12.4659 11.9989 12.3253 11.9574 12.1846C11.8995 12.3082 11.84 12.431 11.7805 12.5539L11.7805 12.5539L11.7804 12.554L11.7804 12.554L11.7804 12.554L11.7804 12.554L11.7804 12.554L11.7804 12.554L11.7804 12.554L11.7804 12.5541L11.7804 12.5541L11.7804 12.5541L11.7804 12.5541L11.7804 12.5541L11.7804 12.5541L11.7804 12.5541L11.7803 12.5542L11.7803 12.5542L11.7803 12.5542L11.7803 12.5542L11.7803 12.5542L11.7803 12.5542L11.7803 12.5543L11.7803 12.5543L11.7803 12.5543L11.7803 12.5543L11.7803 12.5543L11.7803 12.5543L11.7803 12.5543L11.7803 12.5544L11.7802 12.5544L11.7802 12.5544L11.7802 12.5544L11.7802 12.5544L11.7802 12.5544L11.7802 12.5544L11.7802 12.5544L11.7802 12.5544L11.7802 12.5545L11.7802 12.5545L11.7802 12.5545L11.7802 12.5545L11.7802 12.5545L11.7802 12.5545L11.7802 12.5545L11.7802 12.5545L11.7802 12.5545L11.7802 12.5545L11.7802 12.5545L11.7802 12.5545L11.7802 12.5546L11.7802 12.5546L11.7802 12.5546L11.7801 12.5546L11.7801 12.5546L11.7801 12.5546L11.7801 12.5546L11.7801 12.5546L11.7801 12.5546L11.7801 12.5546L11.7801 12.5546L11.7801 12.5546L11.7801 12.5546L11.7801 12.5547L11.7801 12.5547L11.7801 12.5547L11.7801 12.5547C11.727 12.6643 11.674 12.7739 11.6219 12.8841ZM12.2413 12.5303C12.209 12.4234 12.1767 12.3166 12.1454 12.2094C12.3722 12.4337 12.5975 12.6598 12.8218 12.8862C12.7906 12.8861 12.7594 12.8867 12.7282 12.8872C12.6501 12.8886 12.572 12.8899 12.4946 12.8812C12.4666 12.863 12.4395 12.8437 12.4124 12.8244C12.3783 12.8001 12.3441 12.7758 12.3084 12.7538C12.2863 12.6792 12.2638 12.6047 12.2413 12.5303ZM13.1836 12.8866C13.2948 12.8873 13.4064 12.8873 13.518 12.8848C13.5411 12.8588 13.571 12.8381 13.6008 12.8175C13.6539 12.7808 13.7068 12.7442 13.7204 12.6778C13.7386 12.6172 13.7564 12.5565 13.7743 12.4958L13.7743 12.4958L13.7743 12.4958L13.7743 12.4958L13.7743 12.4958L13.7743 12.4958L13.7743 12.4958L13.7743 12.4957L13.7743 12.4957L13.7743 12.4957L13.7743 12.4957L13.7743 12.4957L13.7743 12.4957L13.7743 12.4957L13.7743 12.4957L13.7743 12.4957L13.7743 12.4957L13.7743 12.4957L13.7743 12.4957L13.7743 12.4957L13.7743 12.4957L13.7743 12.4957L13.7743 12.4957L13.7744 12.4957L13.7744 12.4957C13.8024 12.4004 13.8304 12.3053 13.8597 12.2105C13.6325 12.4341 13.4075 12.6598 13.1836 12.8866ZM13.8787 12.8507C13.8702 12.8447 13.8617 12.8388 13.8532 12.8337C13.8888 12.7207 13.9226 12.6072 13.9565 12.4937L13.9565 12.4937L13.9565 12.4937L13.9565 12.4937L13.9565 12.4937L13.9565 12.4937L13.9565 12.4937L13.9565 12.4937L13.9565 12.4937L13.9565 12.4937L13.9565 12.4937L13.9565 12.4937L13.9565 12.4937L13.9565 12.4937L13.9565 12.4937L13.9565 12.4937L13.9565 12.4937L13.9565 12.4937L13.9565 12.4937L13.9565 12.4937L13.9565 12.4936L13.9565 12.4936L13.9565 12.4936L13.9565 12.4936L13.9565 12.4936L13.9565 12.4936L13.9565 12.4936L13.9565 12.4936L13.9565 12.4936L13.9565 12.4936L13.9565 12.4936L13.9565 12.4936C13.9867 12.3924 14.0169 12.2912 14.0483 12.1904C14.1624 12.42 14.274 12.6515 14.3813 12.8848L14.285 12.8861C14.1797 12.8876 14.0746 12.8892 13.9695 12.8859C13.9341 12.8894 13.906 12.8698 13.8787 12.8507ZM12.2242 12.8798C12.1619 12.9183 12.1565 13.0238 12.2184 13.0655C12.3005 13.1472 12.4449 13.022 12.3858 12.9269C12.361 12.8654 12.2786 12.8434 12.2242 12.8798ZM12.946 12.8769C12.8178 12.9456 12.9431 13.166 13.0641 13.0688C13.1861 12.9971 13.0652 12.8002 12.946 12.8769ZM13.6624 12.8776C13.5278 12.9464 13.6667 13.1674 13.7837 13.0666C13.9007 12.9921 13.7801 12.8009 13.6624 12.8776ZM11.3966 13.0911C11.3523 13.0436 11.3778 12.9687 11.4264 12.9359C11.5067 12.8643 11.6406 12.9766 11.5917 13.067C11.5679 13.1508 11.4394 13.1649 11.3966 13.0911ZM14.4508 12.9395C14.328 13.0223 14.4767 13.2146 14.5876 13.1123C14.7053 13.0324 14.5548 12.8427 14.4508 12.9395ZM11.8634 13.508L11.8634 13.508L11.8634 13.508L11.8634 13.508L11.8634 13.508L11.8634 13.508L11.8634 13.508L11.8634 13.5079L11.8634 13.5079L11.8634 13.5079L11.8634 13.5079L11.8633 13.5079L11.8633 13.5079L11.8633 13.5079L11.8633 13.5079L11.8633 13.5079L11.8633 13.5079L11.8633 13.5079L11.8633 13.5079L11.8633 13.5079L11.8633 13.5079L11.8633 13.5078L11.8633 13.5078L11.8633 13.5078L11.8633 13.5078C11.7896 13.3951 11.7158 13.2824 11.6399 13.171C11.6594 13.1354 11.681 13.1015 11.7047 13.0688C11.8253 13.0547 11.9481 13.0594 12.0694 13.0655L12.1024 13.0875C12.1632 13.1279 12.2247 13.1686 12.2775 13.2192C12.2947 13.2666 12.2779 13.315 12.2614 13.3626C12.2536 13.3849 12.246 13.407 12.2418 13.4288C12.2275 13.4934 12.1725 13.5282 12.1191 13.562C12.1003 13.5739 12.0817 13.5857 12.0651 13.5987C12.0089 13.5843 11.9524 13.5706 11.8959 13.5576L11.8634 13.508ZM12.5342 13.2452C12.606 13.2071 12.6712 13.1584 12.7363 13.1099L12.7363 13.1099C12.7579 13.0937 12.7795 13.0776 12.8013 13.0619C12.7617 13.0626 12.7221 13.0622 12.6825 13.0618H12.6825H12.6825H12.6825H12.6825H12.6825H12.6825H12.6825H12.6825H12.6825H12.6825H12.6825H12.6825H12.6825H12.6825H12.6825H12.6825H12.6825H12.6825H12.6825H12.6825H12.6825H12.6825H12.6824C12.6184 13.0611 12.5544 13.0604 12.4906 13.0644C12.3916 13.0976 12.4348 13.2513 12.5342 13.2452ZM13.3879 13.1954C13.3257 13.1511 13.2636 13.1068 13.2023 13.0616C13.2291 13.0614 13.2559 13.0608 13.2828 13.0602C13.3686 13.0583 13.4547 13.0563 13.54 13.0684C13.6113 13.1393 13.545 13.2207 13.4741 13.257L13.3879 13.1954ZM13.7117 13.2664C13.7267 13.3015 13.738 13.338 13.7492 13.3745C13.7599 13.409 13.7706 13.4436 13.7844 13.477C13.8166 13.5112 13.8546 13.5388 13.8926 13.5664L13.8926 13.5664L13.8926 13.5664L13.8926 13.5664L13.8926 13.5664L13.8926 13.5664L13.8926 13.5664L13.8927 13.5664L13.8927 13.5665L13.8927 13.5665L13.8927 13.5665L13.8927 13.5665L13.8927 13.5665L13.8927 13.5665L13.8927 13.5665L13.8927 13.5665L13.8927 13.5665L13.8928 13.5665L13.8928 13.5665L13.8928 13.5665L13.8928 13.5665L13.8928 13.5665C13.9071 13.5769 13.9213 13.5873 13.9353 13.598C13.9925 13.5836 14.0498 13.5699 14.1077 13.5573C14.139 13.5061 14.1728 13.4564 14.2065 13.4066C14.2571 13.3321 14.3077 13.2576 14.35 13.1782C14.3403 13.1375 14.3262 13.0979 14.3079 13.0601C14.2657 13.0608 14.2234 13.0602 14.1812 13.0595C14.0979 13.0582 14.0147 13.0569 13.932 13.0662C13.9118 13.0818 13.8899 13.0962 13.8679 13.1107C13.8048 13.1523 13.7405 13.1946 13.7117 13.2664ZM13.0764 13.8656V13.8656V13.8656V13.8655V13.8655V13.8655V13.8655V13.8655V13.8655V13.8655V13.8655V13.8655V13.8655V13.8655V13.8655V13.8655V13.8655V13.8654V13.8654V13.8654V13.8654C13.0774 13.639 13.0785 13.4125 13.0749 13.1861C13.105 13.2121 13.1412 13.2344 13.1776 13.2568C13.2622 13.3087 13.3482 13.3616 13.3636 13.4648C13.3743 13.5084 13.3972 13.5467 13.4201 13.5848L13.4345 13.6091C13.3891 13.7673 13.3414 13.9248 13.2937 14.0822L13.2937 14.0822L13.2937 14.0822L13.2936 14.0822L13.2936 14.0822L13.2936 14.0823L13.2936 14.0823L13.2936 14.0823L13.2936 14.0823L13.2936 14.0823L13.2936 14.0823L13.2936 14.0824L13.2936 14.0824L13.2936 14.0824L13.2936 14.0824L13.2936 14.0824L13.2936 14.0824L13.2936 14.0824L13.2936 14.0824L13.2936 14.0825L13.2936 14.0825C13.2211 14.3216 13.1487 14.5606 13.0842 14.8022C13.0734 14.49 13.0749 14.1778 13.0764 13.8656V13.8656ZM12.6623 13.3773C12.6514 13.4529 12.6203 13.5222 12.5894 13.5912L12.5784 13.6156C12.6287 13.8166 12.6895 14.0151 12.7503 14.2137C12.8088 14.4046 12.8673 14.5955 12.9165 14.7888C12.9272 14.4887 12.9256 14.1885 12.9241 13.8883V13.8883V13.8883V13.8883V13.8883V13.8883V13.8883V13.8883V13.8883V13.8883V13.8882V13.8882V13.8882V13.8882V13.8882V13.8882V13.8882V13.8882V13.8882V13.8882C12.9229 13.6547 12.9216 13.4213 12.9262 13.1879C12.8376 13.2498 12.7494 13.3128 12.6623 13.3773ZM11.2956 13.6624C11.2889 13.6407 11.2822 13.619 11.2749 13.5976C11.3328 13.4694 11.3933 13.3427 11.4578 13.2182C11.5305 13.312 11.5953 13.4118 11.6601 13.5116C11.6914 13.5599 11.7228 13.6082 11.7551 13.6559C11.7461 13.715 11.7375 13.774 11.7299 13.8334C11.6932 13.8579 11.6565 13.8824 11.6194 13.9068C11.5481 13.895 11.4765 13.8917 11.4048 13.8924C11.3465 13.8267 11.321 13.7444 11.2956 13.6624ZM14.3007 13.58C14.2136 13.679 14.256 13.8446 14.3684 13.9061C14.3998 13.8971 14.4354 13.8961 14.4711 13.8951H14.4711C14.5427 13.893 14.6148 13.891 14.6549 13.8244C14.675 13.7826 14.6869 13.7376 14.6987 13.6925C14.7075 13.6593 14.7163 13.626 14.7284 13.594C14.6708 13.4666 14.6096 13.3409 14.5476 13.2156C14.4658 13.3273 14.3901 13.4432 14.3144 13.559L14.3144 13.559L14.3144 13.559L14.3143 13.5591L14.3007 13.58ZM12.3556 13.4954C12.3063 13.4435 12.3329 13.3571 12.3941 13.328C12.4787 13.27 12.5856 13.3766 12.55 13.4655C12.5252 13.5472 12.4031 13.5648 12.3556 13.4954ZM13.4846 13.3442C13.3805 13.4331 13.5173 13.603 13.6268 13.5191C13.7542 13.4356 13.5933 13.2297 13.4846 13.3442ZM12.3101 14.1968L12.3101 14.1967L12.3101 14.1967L12.3101 14.1967L12.31 14.1967L12.31 14.1967L12.31 14.1967L12.31 14.1967L12.31 14.1967L12.31 14.1966L12.31 14.1966L12.31 14.1966L12.31 14.1966L12.31 14.1966L12.31 14.1966C12.2437 14.0967 12.1775 13.9967 12.1119 13.8964C12.1227 13.7416 12.2544 13.6588 12.3819 13.6016C12.4465 13.7923 12.5028 13.9857 12.5591 14.1792C12.6284 14.4177 12.6978 14.6563 12.7829 14.8896L12.7599 14.8925C12.6153 14.6571 12.4627 14.4269 12.3101 14.1968ZM13.6217 13.6217C13.5275 13.8912 13.4474 14.1658 13.3673 14.4404C13.3225 14.5939 13.2777 14.7475 13.2304 14.9001C13.3817 14.6769 13.5287 14.4506 13.6757 14.2244L13.6758 14.2243C13.7466 14.1152 13.8175 14.0062 13.8888 13.8975L13.8478 13.742C13.8235 13.7291 13.8001 13.7103 13.7765 13.6913C13.729 13.6531 13.6807 13.6143 13.6217 13.6217ZM11.0312 13.8172C10.9912 13.7744 10.9977 13.7031 11.0398 13.6642C11.1136 13.5746 11.2666 13.68 11.223 13.7808C11.2032 13.8636 11.078 13.891 11.0312 13.8172ZM11.9006 13.6667C11.7512 13.7139 11.8595 13.9508 11.9909 13.8744C12.1162 13.8154 12.028 13.6142 11.9006 13.6667ZM14.0271 13.6664C13.8834 13.7128 13.9803 13.9518 14.1146 13.8741C14.2398 13.8161 14.1549 13.6152 14.0271 13.6664ZM14.8122 13.6653C14.705 13.7484 14.8493 13.9245 14.9526 13.8374C15.088 13.756 14.9159 13.5468 14.8122 13.6653ZM10.9616 14.2686C11.0104 14.1639 11.0592 14.0592 11.1179 13.9598C11.2148 13.8917 11.3426 14.0152 11.312 14.1171C11.224 14.1955 11.1272 14.2631 11.0304 14.3306L11.0304 14.3306L11.0304 14.3306C10.9802 14.3656 10.93 14.4006 10.881 14.4371C10.9089 14.3815 10.9352 14.325 10.9616 14.2686ZM14.996 14.3462L14.996 14.3462L14.9961 14.3462L14.9961 14.3462L14.9962 14.3463L14.9962 14.3463L14.9962 14.3463L14.9963 14.3463L14.9963 14.3464C15.0388 14.3759 15.0813 14.4055 15.1233 14.4357C15.0949 14.3774 15.0671 14.3188 15.0393 14.2603C15.0022 14.1823 14.9652 14.1043 14.9267 14.0267C14.9236 14.0212 14.9206 14.0154 14.9176 14.0094C14.9007 13.9766 14.8823 13.9408 14.84 13.9418C14.7388 13.9241 14.634 14.0814 14.7287 14.1509C14.8147 14.22 14.9054 14.2831 14.996 14.3462ZM11.4531 14.1858C11.3778 14.1441 11.3894 14.0246 11.466 13.9914C11.5308 13.9544 11.6255 14.0022 11.6252 14.0796C11.6428 14.1693 11.524 14.2438 11.4531 14.1858ZM11.713 14.1542C11.7193 14.1981 11.7508 14.2291 11.7818 14.2597L11.7818 14.2597C11.7932 14.2709 11.8045 14.2821 11.8145 14.2938C11.9584 14.4345 12.1003 14.5774 12.2422 14.7203C12.4329 14.9123 12.6236 15.1042 12.8193 15.291C12.5777 14.9148 12.3315 14.5415 12.0854 14.1682L12.0854 14.1682L11.9985 14.0364C11.9211 13.8899 11.682 14.0058 11.713 14.1542ZM13.6807 14.5324L13.6807 14.5324L13.6807 14.5323L13.6808 14.5323L13.6808 14.5322C13.7841 14.3754 13.8874 14.2185 13.99 14.0613C14.0296 13.9832 14.1264 13.9346 14.2038 13.9932C14.2697 14.0141 14.2823 14.0776 14.2941 14.1375C14.2969 14.1519 14.2997 14.166 14.3032 14.1794C14.1211 14.3559 13.9424 14.536 13.7638 14.7161C13.5725 14.9091 13.3811 15.1021 13.1854 15.2907C13.3485 15.0368 13.5146 14.7846 13.6807 14.5324ZM14.4562 13.9857C14.3216 14.0206 14.3806 14.237 14.5152 14.2042C14.6618 14.1704 14.5977 13.9342 14.4562 13.9857ZM10.597 14.5887C10.4764 14.6697 10.6222 14.8673 10.7334 14.7665C10.8602 14.6859 10.705 14.49 10.597 14.5887ZM15.2756 14.5865C15.1478 14.6607 15.2914 14.8641 15.4052 14.7687C15.5322 14.6909 15.3879 14.4951 15.2756 14.5865ZM12.9719 15.4192C12.8297 15.4541 12.8945 15.686 13.0364 15.6417C13.1688 15.5934 13.1127 15.3785 12.9719 15.4192Z" fill="#B39F5A"/>
<path fill-rule="evenodd" clip-rule="evenodd" d="M6.98944 14.2308C7.13704 14.2359 7.28428 14.2398 7.43152 14.2506C7.30228 14.3208 7.17088 14.3867 7.04092 14.4562C7.024 14.381 7.00672 14.3061 6.98944 14.2308Z" fill="#B39F5A"/>
<path fill-rule="evenodd" clip-rule="evenodd" d="M7.39696 14.9307C7.49236 14.8943 7.58812 14.8583 7.68352 14.8212C7.71196 14.9091 7.76416 14.9944 7.76236 15.0891C7.72492 15.1809 7.6036 15.214 7.5172 15.1744C7.44916 15.1118 7.43548 15.0117 7.39696 14.9307Z" fill="#B39F5A"/>
<path fill-rule="evenodd" clip-rule="evenodd" d="M18.0911 15.4674C18.2333 15.4163 18.3636 15.524 18.4878 15.5776C18.5879 15.6269 18.729 15.7083 18.6916 15.8415C18.6556 15.9495 18.5192 15.9671 18.4292 15.9203C18.3078 15.8667 18.1851 15.8116 18.0774 15.7338C17.9867 15.6712 17.986 15.516 18.0911 15.4674Z" fill="#B39F5A"/>
<path fill-rule="evenodd" clip-rule="evenodd" d="M7.53123 15.7821C7.67487 15.7472 7.81887 15.7133 7.96359 15.6831C7.85631 15.7842 7.74723 15.884 7.63959 15.9855C7.60359 15.9178 7.56723 15.8498 7.53123 15.7821Z" fill="#B39F5A"/>
<path fill-rule="evenodd" clip-rule="evenodd" d="M11.7885 15.9113C11.7499 15.9121 11.7113 15.9129 11.673 15.912C11.6722 16.0707 11.6724 16.2292 11.6725 16.3878C11.6727 16.5829 11.6728 16.7781 11.6712 16.9733C11.7142 16.9703 11.76 16.9722 11.8064 16.974C11.9377 16.9794 12.074 16.9849 12.1662 16.8812C12.2795 16.7608 12.2754 16.5954 12.2715 16.4376C12.2704 16.3949 12.2693 16.3526 12.2706 16.312C12.2782 16.1597 12.2098 15.9812 12.0564 15.9268C11.9685 15.9074 11.8783 15.9093 11.7885 15.9113ZM11.8179 16.5984C11.818 16.4246 11.8182 16.2506 11.8174 16.0766C11.8407 16.0793 11.8658 16.0788 11.8912 16.0783C11.9563 16.0769 12.0236 16.0756 12.0676 16.1284C12.1309 16.1942 12.1294 16.2847 12.128 16.3721C12.1275 16.4005 12.127 16.4285 12.1288 16.4553C12.128 16.4751 12.1282 16.496 12.1284 16.5175C12.1292 16.6191 12.1301 16.7318 12.0338 16.7883C11.9855 16.8051 11.9342 16.8053 11.8833 16.8054C11.8613 16.8055 11.8394 16.8056 11.8178 16.807C11.8178 16.7375 11.8178 16.6679 11.8179 16.5984Z" fill="#B39F5A"/>
<path fill-rule="evenodd" clip-rule="evenodd" d="M12.4679 15.912C12.5148 15.914 12.5623 15.9126 12.6098 15.9113C12.7107 15.9084 12.812 15.9055 12.9089 15.9344C13.0842 16.0244 13.0907 16.2926 12.9546 16.4214C13.1166 16.5604 13.0979 16.879 12.8895 16.9622C12.7963 16.9785 12.7015 16.9764 12.6069 16.9743H12.6069C12.56 16.9732 12.5131 16.9721 12.4665 16.9733C12.4678 16.7837 12.4676 16.5943 12.4674 16.4048C12.4673 16.2406 12.4671 16.0763 12.4679 15.912ZM12.6087 16.0704L12.6087 16.0715C12.609 16.1655 12.6094 16.2598 12.6101 16.3538C12.6333 16.3527 12.6568 16.3532 12.6804 16.3537C12.7349 16.3549 12.7897 16.3562 12.8412 16.3376C12.928 16.2857 12.9294 16.1327 12.8402 16.083C12.7876 16.0695 12.7331 16.0701 12.6788 16.0708C12.6553 16.071 12.6319 16.0713 12.6087 16.0704ZM12.609 16.8056C12.6094 16.7058 12.6094 16.6065 12.6087 16.5068C12.6304 16.5074 12.6521 16.5073 12.6739 16.5072C12.7288 16.5069 12.7838 16.5066 12.8376 16.5179C12.946 16.5615 12.946 16.7454 12.8434 16.7958C12.788 16.8062 12.7318 16.8058 12.6757 16.8054C12.6535 16.8052 12.6312 16.8051 12.609 16.8056Z" fill="#B39F5A"/>
<path fill-rule="evenodd" clip-rule="evenodd" d="M13.2408 15.9113C13.288 15.9117 13.3355 15.912 13.3827 15.9131C13.383 16.2666 13.3823 16.6202 13.383 16.974C13.3474 16.974 13.2761 16.974 13.2405 16.974C13.2412 16.6194 13.2401 16.2656 13.2408 15.9113Z" fill="#B39F5A"/>
<path fill-rule="evenodd" clip-rule="evenodd" d="M13.5011 15.9099C13.5695 15.9171 13.6451 15.8987 13.7103 15.9246C13.7902 16.0312 13.8482 16.1518 13.9202 16.2634C13.9907 16.1518 14.0483 16.0316 14.1282 15.9264C14.1916 15.8962 14.2697 15.9185 14.3381 15.9095C14.2316 16.0848 14.1196 16.2566 14.012 16.4312C14.1304 16.6108 14.2434 16.7937 14.3619 16.9733C14.2917 16.9733 14.2218 16.9737 14.1516 16.9737C14.075 16.8477 13.9979 16.722 13.9209 16.596C13.8406 16.7206 13.7643 16.8477 13.6869 16.974C13.617 16.9737 13.5468 16.9737 13.4774 16.9737C13.5926 16.793 13.7045 16.6101 13.8176 16.4279C13.7099 16.2562 13.6044 16.0838 13.5011 15.9099Z" fill="#B39F5A"/>
<path fill-rule="evenodd" clip-rule="evenodd" d="M10.9404 16.3196C10.9775 16.2422 11.0153 16.1648 11.0535 16.0881C11.0913 16.1655 11.1291 16.2429 11.1669 16.3206C11.2526 16.3332 11.3382 16.3462 11.4239 16.361C11.362 16.4196 11.2997 16.4787 11.2382 16.5377C11.2522 16.6238 11.2673 16.7098 11.2835 16.7955C11.2068 16.7548 11.1302 16.7141 11.0535 16.6734C10.9764 16.7138 10.8998 16.7544 10.8231 16.7955C10.8382 16.7091 10.8537 16.623 10.8677 16.5366C10.8054 16.4783 10.7432 16.42 10.6816 16.3613C10.7676 16.3466 10.854 16.3332 10.9404 16.3196Z" fill="#B39F5A"/>
<path fill-rule="evenodd" clip-rule="evenodd" d="M14.9843 16.0881C15.0236 16.1655 15.0628 16.2436 15.1031 16.3214C15.1877 16.3329 15.2723 16.3458 15.3569 16.3599C15.2954 16.4189 15.2334 16.478 15.1712 16.5363C15.1848 16.622 15.2 16.7076 15.2151 16.7933C15.1384 16.753 15.0617 16.713 14.985 16.6731C14.9084 16.7134 14.832 16.7534 14.7557 16.7937C14.7712 16.708 14.7863 16.6223 14.8 16.5366C14.7384 16.4776 14.6769 16.4186 14.6153 16.3599C14.7006 16.3455 14.786 16.3325 14.8716 16.3199C14.9091 16.2425 14.9465 16.1651 14.9843 16.0881Z" fill="#B39F5A"/>
<path fill-rule="evenodd" clip-rule="evenodd" d="M8.12416 16.3372C8.20228 16.28 8.2804 16.2231 8.35852 16.1662C8.40568 16.2368 8.46832 16.3012 8.49316 16.3844C8.48884 16.4794 8.37292 16.5644 8.28292 16.5273C8.21704 16.4758 8.17492 16.402 8.12416 16.3372Z" fill="#B39F5A"/>
<path fill-rule="evenodd" clip-rule="evenodd" d="M7.75696 16.6011C7.8394 16.5424 7.92112 16.483 8.00248 16.4232C8.05 16.4934 8.11048 16.5575 8.13964 16.6385C8.15152 16.7505 8.0086 16.8484 7.9096 16.7937C7.8484 16.7382 7.80664 16.6659 7.75696 16.6011Z" fill="#B39F5A"/>
<path fill-rule="evenodd" clip-rule="evenodd" d="M17.2638 16.6911C17.3949 16.6407 17.5004 16.7591 17.5914 16.8344C17.6778 16.9211 17.8125 17.001 17.8024 17.1411C17.7826 17.2534 17.6375 17.2984 17.5497 17.2325C17.4298 17.1512 17.3211 17.0522 17.2239 16.9452C17.1537 16.8718 17.1656 16.7339 17.2638 16.6911Z" fill="#B39F5A"/>
<path fill-rule="evenodd" clip-rule="evenodd" d="M8.72284 17.3978C8.85028 17.3211 8.97592 17.2415 9.10228 17.1634C9.03316 17.2952 8.96188 17.4258 8.89312 17.558C8.83588 17.505 8.77936 17.4514 8.72284 17.3978Z" fill="#B39F5A"/>
<path fill-rule="evenodd" clip-rule="evenodd" d="M11.6468 18.9872C11.7152 18.8554 11.7785 18.7218 11.8502 18.5919C11.8577 18.7395 11.8664 18.8867 11.8757 19.0343C11.7994 19.0185 11.7231 19.0026 11.6468 18.9872Z" fill="#B39F5A"/>
</svg>
