<svg width="26" height="26" viewBox="0 0 26 26" fill="none" xmlns="http://www.w3.org/2000/svg">
<path opacity="0.2" d="M13 26C20.1797 26 26 20.1797 26 13C26 5.8203 20.1797 0 13 0C5.8203 0 0 5.8203 0 13C0 20.1797 5.8203 26 13 26Z" fill="#614E80"/>
<path fill-rule="evenodd" clip-rule="evenodd" d="M13 9.88889C15.3196 9.88889 17.2 9.24219 17.2 8.44444C17.2 7.6467 15.3196 7 13 7C10.6804 7 8.8 7.6467 8.8 8.44444C8.8 9.24219 10.6804 9.88889 13 9.88889ZM13 15.6667C16.866 15.6667 20 14.6966 20 13.5C20 12.3034 16.866 11.3333 13 11.3333C9.13401 11.3333 6 12.3034 6 13.5C6 14.6966 9.13401 15.6667 13 15.6667ZM17.2 18.5556C17.2 19.3533 15.3196 20 13 20C10.6804 20 8.8 19.3533 8.8 18.5556C8.8 17.7578 10.6804 17.1111 13 17.1111C15.3196 17.1111 17.2 17.7578 17.2 18.5556Z" fill="#614E80"/>
</svg>
