<svg width="26" height="26" viewBox="0 0 26 26" fill="none" xmlns="http://www.w3.org/2000/svg">
<path opacity="0.2" d="M13 26C20.1797 26 26 20.1797 26 13C26 5.8203 20.1797 0 13 0C5.8203 0 0 5.8203 0 13C0 20.1797 5.8203 26 13 26Z" fill="#CECCCC"/>
<path fill-rule="evenodd" clip-rule="evenodd" d="M12.9286 21C14.1673 21 15.1714 19.9602 15.1714 18.6775C15.1714 17.3948 14.1673 16.355 12.9286 16.355C11.6899 16.355 10.6857 17.3948 10.6857 18.6775C10.6857 19.9602 11.6899 21 12.9286 21Z" fill="#22B24C"/>
<path fill-rule="evenodd" clip-rule="evenodd" d="M17.6429 18.2781C18.7553 18.2781 19.6571 17.3443 19.6571 16.1923C19.6571 15.0404 18.7553 14.1065 17.6429 14.1065C16.5304 14.1065 15.6286 15.0404 15.6286 16.1923C15.6286 17.3443 16.5304 18.2781 17.6429 18.2781Z" fill="#CECCCC"/>
<path fill-rule="evenodd" clip-rule="evenodd" d="M7.5 12.568C8.32843 12.568 9 11.8726 9 11.0148C9 10.1569 8.32843 9.46153 7.5 9.46153C6.67157 9.46153 6 10.1569 6 11.0148C6 11.8726 6.67157 12.568 7.5 12.568Z" fill="#CECCCC"/>
<path fill-rule="evenodd" clip-rule="evenodd" d="M15.2714 8.57396C15.9578 8.57396 16.5143 7.99776 16.5143 7.28698C16.5143 6.5762 15.9578 6 15.2714 6C14.585 6 14.0286 6.5762 14.0286 7.28698C14.0286 7.99776 14.585 8.57396 15.2714 8.57396Z" fill="#22B24C"/>
<path fill-rule="evenodd" clip-rule="evenodd" d="M18.5069 9.40236C18.0434 9.38216 17.5955 9.57748 17.2857 9.93491L17.2817 9.94083C17.2574 9.97041 17.234 9.99793 17.2117 10.0278C17.1851 10.0636 17.1577 10.0988 17.128 10.1317C16.8243 10.466 16.1011 11.0618 15.1194 10.563C14.9727 10.4878 14.8391 10.3878 14.724 10.2672C14.2499 9.77009 13.6032 9.49056 12.9286 9.49112C12.8866 9.49112 12.8446 9.49112 12.8029 9.49438C12.6834 9.50026 12.564 9.48135 12.4517 9.43876C11.888 9.22722 11.7297 8.74349 11.6963 8.37367C11.6806 8.16508 11.7099 7.95549 11.782 7.76006C11.9572 7.26497 11.823 6.70932 11.4434 6.35786C11.0639 6.00641 10.5156 5.93027 10.06 6.16572C9.60442 6.40117 9.3336 6.90058 9.37661 7.42597C9.41962 7.95136 9.76776 8.39643 10.2551 8.54911C11.5591 9.10148 11.1323 10.142 10.9503 10.4784V10.4817C10.5945 10.9439 10.4011 11.5177 10.4017 12.1089C10.4017 12.225 10.4092 12.3411 10.424 12.4562C10.4237 12.4592 10.4237 12.4621 10.424 12.4651C10.462 12.9124 10.4154 14.1243 8.81286 14.1654C8.71736 14.1667 8.62189 14.1612 8.52714 14.1488C8.45173 14.1401 8.37589 14.1358 8.3 14.1361C7.22803 14.1358 6.35531 15.0286 6.3425 16.1385C6.3297 17.2485 7.18157 18.1625 8.25324 18.1888C9.32492 18.215 10.2176 17.3437 10.2554 16.2343L10.2571 16.2367V16.2044V16.1627V16.1349C10.2666 15.7444 10.4169 14.374 12.0729 14.5746C12.0729 14.5746 12.6294 14.7278 12.93 14.7278C13.9532 14.7278 14.8756 14.0895 15.2671 13.1106C15.4277 12.7317 16.2651 11.7793 17.708 12.4358C17.7564 12.4629 17.8062 12.4873 17.8571 12.5089C18.432 12.7487 19.0895 12.6127 19.5312 12.1626C19.9729 11.7124 20.1149 11.0339 19.8925 10.4349C19.6702 9.83582 19.126 9.43032 18.5069 9.40236Z" fill="#343433"/>
</svg>
