<svg width="26" height="26" viewBox="0 0 26 26" fill="none" xmlns="http://www.w3.org/2000/svg">
<path opacity="0.2" d="M13 26C20.1797 26 26 20.1797 26 13C26 5.8203 20.1797 0 13 0C5.8203 0 0 5.8203 0 13C0 20.1797 5.8203 26 13 26Z" fill="#505050"/>
<path fill-rule="evenodd" clip-rule="evenodd" d="M7 9.78571L12.159 12.8079L13.0966 13.3571L19.9577 9.78571L16.3466 8L13.0966 9.78571L10.2077 8L7 9.78571ZM7.04226 14.4286L12.2012 17.4507L13.1389 18L20 14.4286L16.3889 12.6429L13.1389 14.4286L10.25 12.6429L7.04226 14.4286Z" fill="white"/>
</svg>
