<svg width="26" height="26" viewBox="0 0 26 26" fill="none" xmlns="http://www.w3.org/2000/svg">
<path opacity="0.2" d="M13 26C20.1797 26 26 20.1797 26 13C26 5.8203 20.1797 0 13 0C5.8203 0 0 5.8203 0 13C0 20.1797 5.8203 26 13 26Z" fill="#505050"/>
<path opacity="0.4" fill-rule="evenodd" clip-rule="evenodd" d="M12.9959 25.9919C20.1734 25.9919 25.9919 20.1734 25.9919 12.9959C25.9919 5.81848 20.1734 0 12.9959 0C5.81848 0 0 5.81848 0 12.9959C0 20.1734 5.81848 25.9919 12.9959 25.9919Z" fill="url(#paint0_linear_1_1111)"/>
<path fill-rule="evenodd" clip-rule="evenodd" d="M18.4831 9.73882C18.4831 10.0614 18.7698 10.3228 19.1241 10.3228C19.2014 10.3227 19.2782 10.3098 19.3513 10.2845V15.6128C19.257 15.5667 19.1533 15.543 19.0483 15.5436C18.694 15.5436 18.4073 15.8018 18.4073 16.1276C18.4125 16.3557 18.5508 16.5596 18.7608 16.6489L13.6027 19.3603C13.5289 19.072 13.2691 18.8703 12.9715 18.8703C12.6739 18.8703 12.4141 19.072 12.3403 19.3603L7.23756 16.6774C7.32139 16.5789 7.36782 16.454 7.36869 16.3247C7.36869 16.003 7.08118 15.7415 6.72688 15.7415C6.68149 15.7413 6.63619 15.7457 6.59167 15.7546V10.2878C6.62828 10.294 6.66532 10.2972 6.70244 10.2976C7.05593 10.2976 7.34344 10.0394 7.34344 9.71357C7.34235 9.56569 7.28224 9.42436 7.17647 9.32099L12.3582 6.59737C12.458 6.84924 12.7014 7.01465 12.9723 7.01465C13.2432 7.01465 13.4867 6.84924 13.5864 6.59737L18.7119 9.29412C18.5702 9.39828 18.4854 9.56291 18.4831 9.73882ZM14.2331 15.0566C14.2331 15.0566 13.4561 15.4874 12.1529 15.2911V15.2903C12.1529 15.2903 11.1348 15.0419 10.7447 14.4481L18.2379 10.6584C18.2379 10.6584 18.4244 10.5443 18.378 10.3814C18.3537 10.2977 18.2845 10.2347 18.1988 10.2186C18.0677 10.204 17.9356 10.2354 17.825 10.3073L16.2522 11.1137C15.8298 10.574 15.2825 10.1452 14.6575 9.86425C14.6575 9.86425 14.26 9.5857 13.2826 9.53846V7.81665C13.2834 7.76843 13.2672 7.72147 13.237 7.68389C13.1712 7.61363 13.0761 7.5786 12.9805 7.58941C12.9805 7.58941 12.7801 7.57964 12.7361 7.84434V9.55475C12.7361 9.55475 11.6862 9.53927 10.831 10.0434C10.3697 10.2835 9.95854 10.6098 9.61991 11.0045L8.08706 10.2462C8.08706 10.2462 7.7971 10.1184 7.64398 10.3277C7.64398 10.3277 7.50145 10.5362 7.77674 10.6787L9.29575 11.4557C8.99967 11.9653 8.85817 12.5499 8.88851 13.1385C8.88851 13.1385 8.8714 13.729 9.30389 14.5434L7.78977 15.3376C7.69036 15.3745 7.62507 15.4702 7.62688 15.5762C7.6307 15.6697 7.69801 15.7484 7.78977 15.7668C7.93546 15.7941 8.08603 15.7624 8.20842 15.6788L9.5629 15.0118C9.5629 15.0118 10.1135 15.836 11.0534 16.152C11.0534 16.152 12.0137 16.5137 12.6921 16.5593V18.0579C12.6917 18.1242 12.7088 18.1894 12.7418 18.2469C12.7878 18.3436 12.884 18.4064 12.991 18.4098C13.0837 18.4084 13.1676 18.3548 13.2077 18.2713C13.2386 18.2143 13.2543 18.1504 13.2533 18.0856V16.5283C13.2533 16.5283 14.4164 16.4713 15.1356 15.9419C15.1356 15.9419 15.845 15.5412 16.2661 14.9271L17.9765 15.7953C17.9765 15.7953 18.2412 15.8702 18.2957 15.7342C18.3518 15.5965 18.2888 15.4392 18.1532 15.3783L16.5137 14.5092C16.5137 14.5092 16.67 14.1859 16.6334 13.8951C16.6062 13.7106 16.4763 13.5577 16.2986 13.5009C16.272 13.4914 16.2448 13.4835 16.2172 13.4773C15.8834 13.4122 15.5465 13.5742 15.3889 13.8756C15.3326 13.9804 15.2844 14.0893 15.2447 14.2014C15.2447 14.2014 14.9018 14.8122 14.2331 15.0566Z" fill="white"/>
<path fill-rule="evenodd" clip-rule="evenodd" d="M11.6235 10.9361C11.6235 10.9361 10.1371 11.4517 10.3 13.4064L14.5622 11.2342C14.5622 11.2342 13.3665 10.2568 11.6235 10.9361Z" fill="white"/>
<path fill-rule="evenodd" clip-rule="evenodd" d="M6.78308 10.0646C6.95581 10.0646 7.09584 9.92459 7.09584 9.75185C7.09584 9.57912 6.95581 9.43909 6.78308 9.43909C6.61035 9.43909 6.47032 9.57912 6.47032 9.75185C6.47032 9.92459 6.61035 10.0646 6.78308 10.0646Z" fill="white"/>
<path fill-rule="evenodd" clip-rule="evenodd" d="M12.9959 6.7619C13.1687 6.7619 13.3087 6.62187 13.3087 6.44914C13.3087 6.27641 13.1687 6.13638 12.9959 6.13638C12.8232 6.13638 12.6832 6.27641 12.6832 6.44914C12.6832 6.62187 12.8232 6.7619 12.9959 6.7619Z" fill="white"/>
<path fill-rule="evenodd" clip-rule="evenodd" d="M12.9959 19.7936C13.1687 19.7936 13.3087 19.6535 13.3087 19.4808C13.3087 19.3081 13.1687 19.1681 12.9959 19.1681C12.8232 19.1681 12.6832 19.3081 12.6832 19.4808C12.6832 19.6535 12.8232 19.7936 12.9959 19.7936Z" fill="white"/>
<path fill-rule="evenodd" clip-rule="evenodd" d="M6.78308 16.5967C6.95581 16.5967 7.09584 16.4567 7.09584 16.284C7.09584 16.1112 6.95581 15.9712 6.78308 15.9712C6.61035 15.9712 6.47032 16.1112 6.47032 16.284C6.47032 16.4567 6.61035 16.5967 6.78308 16.5967Z" fill="white"/>
<path fill-rule="evenodd" clip-rule="evenodd" d="M19.0394 16.4412C19.2121 16.4412 19.3521 16.3011 19.3521 16.1284C19.3521 15.9557 19.2121 15.8157 19.0394 15.8157C18.8666 15.8157 18.7266 15.9557 18.7266 16.1284C18.7266 16.3011 18.8666 16.4412 19.0394 16.4412Z" fill="white"/>
<path fill-rule="evenodd" clip-rule="evenodd" d="M19.0394 10.0646C19.2121 10.0646 19.3521 9.92459 19.3521 9.75185C19.3521 9.57912 19.2121 9.43909 19.0394 9.43909C18.8666 9.43909 18.7266 9.57912 18.7266 9.75185C18.7266 9.92459 18.8666 10.0646 19.0394 10.0646Z" fill="white"/>
<defs>
<linearGradient id="paint0_linear_1_1111" x1="16.4388" y1="27.3756" x2="16.4388" y2="-5.50194" gradientUnits="userSpaceOnUse">
<stop stop-color="#7400D4"/>
<stop offset="1" stop-color="#CA00AA"/>
</linearGradient>
</defs>
</svg>
