<svg width="26" height="26" viewBox="0 0 26 26" fill="none" xmlns="http://www.w3.org/2000/svg">
<path opacity="0.2" d="M13 26C20.1797 26 26 20.1797 26 13C26 5.8203 20.1797 0 13 0C5.8203 0 0 5.8203 0 13C0 20.1797 5.8203 26 13 26Z" fill="#008200"/>
<path fill-rule="evenodd" clip-rule="evenodd" d="M13.4733 14.1749L16.2716 12.6908L16.5112 11.473L18.3357 11.4889C18.391 11.492 18.4463 11.4984 18.5016 11.5079L20.7286 10.325C20.1357 9.85249 19.374 9.60196 18.4494 9.57659L14.3702 9.57025H12.6071L11.1112 11.9994H13.8972L13.4733 14.1749Z" fill="#008200"/>
<path fill-rule="evenodd" clip-rule="evenodd" d="M19.4087 12.5134C19.4241 12.6022 19.4333 12.6941 19.4364 12.7861C19.4548 13.4901 19.292 14.0514 18.948 14.4669C18.604 14.8855 18.1217 15.098 17.4982 15.1075L15.8825 15.0916L16.036 14.3051L13.2377 15.7893L12.2302 20.9711H14.7367L15.5139 16.9944L17.3476 17.0007C18.6285 17.0007 19.6821 16.6677 20.5115 16.0018C21.3377 15.3358 21.8108 14.451 21.9275 13.3411C21.9982 12.58 21.8814 11.9204 21.5835 11.3591" fill="#008200"/>
<path fill-rule="evenodd" clip-rule="evenodd" d="M6.18974 14.3309L11.4884 11.5211L13.6355 8.43235H10.8495L10.014 9.86892L9.0341 6H6.26653L8.15253 11.5148L6.18974 14.3309V14.3309Z" fill="#008200"/>
<path fill-rule="evenodd" clip-rule="evenodd" d="M9.80703 14.2537L10.6671 17.6849H13.4807L11.9111 13.1374L9.80703 14.2537Z" fill="#008200"/>
<path fill-rule="evenodd" clip-rule="evenodd" d="M4.57133 16.9535L4 17.7685H6.99795L8.86553 14.6734L4.57133 16.9535Z" fill="#008200"/>
</svg>
