<svg width="26" height="26" viewBox="0 0 26 26" fill="none" xmlns="http://www.w3.org/2000/svg">
<path opacity="0.2" d="M13 26C20.1797 26 26 20.1797 26 13C26 5.8203 20.1797 0 13 0C5.8203 0 0 5.8203 0 13C0 20.1797 5.8203 26 13 26Z" fill="#DFCF2B"/>
<path fill-rule="evenodd" clip-rule="evenodd" d="M18.0017 5.82496C18.6345 6.10518 18.6887 7.10401 18.3181 7.68252C17.839 8.42825 16.1532 8.21131 16.4063 6.7334C16.3385 6.71081 16.3476 6.68369 16.2617 6.76052C13.9748 10.8553 14.0335 15.4653 12.0991 18.6832C11.6969 19.2391 11.3444 19.5013 10.8382 19.7905C10.332 20.0798 9.96588 20.2651 9.1388 20.3058C8.31171 20.3419 7.98178 19.9849 7.98178 19.9849C7.03718 19.3747 7.58405 18.2765 8.11285 18.055C8.64164 17.8335 8.98513 17.9239 9.26535 18.0505C9.55008 18.177 9.86645 18.6787 9.86645 18.6787C10.1964 17.8335 10.3365 17.3725 10.6935 16.0031C12.1398 10.0372 12.7906 4.82613 18.0017 5.82496Z" fill="#DECC28"/>
<path fill-rule="evenodd" clip-rule="evenodd" d="M10.2099 11.818H15.2674C15.6696 11.818 15.9996 12.1434 15.9996 12.5501C15.9996 12.9524 15.6741 13.2823 15.2674 13.2823H10.2099C9.8077 13.2823 9.47777 12.9569 9.47777 12.5501C9.48229 12.1479 9.8077 11.818 10.2099 11.818Z" fill="#DECC28"/>
<path fill-rule="evenodd" clip-rule="evenodd" d="M10.8608 9.43161H15.9182C16.3204 9.43161 16.6504 9.75702 16.6504 10.1638C16.6504 10.566 16.325 10.896 15.9182 10.896H10.8608C10.4585 10.896 10.1286 10.5705 10.1286 10.1638C10.1331 9.76154 10.4585 9.43161 10.8608 9.43161Z" fill="#DECC28"/>
</svg>
