<svg width="26" height="26" viewBox="0 0 26 26" fill="none" xmlns="http://www.w3.org/2000/svg">
<path opacity="0.2" d="M13 26C20.1797 26 26 20.1797 26 13C26 5.8203 20.1797 0 13 0C5.8203 0 0 5.8203 0 13C0 20.1797 5.8203 26 13 26Z" fill="#384A53"/>
<path fill-rule="evenodd" clip-rule="evenodd" d="M13 21.9963C17.9685 21.9963 21.9963 17.9685 21.9963 13C21.9963 8.03149 17.9685 4.00372 13 4.00372C8.03149 4.00372 4.00372 8.03149 4.00372 13C4.00372 17.9685 8.03149 21.9963 13 21.9963Z" fill="#7ABDC1" fill-opacity="0.01" stroke="white" stroke-width="0.822987" stroke-linejoin="bevel"/>
<path fill-rule="evenodd" clip-rule="evenodd" d="M8.11512 19.0765C8.11512 19.0765 9.39663 17.795 8.73824 17.3952C8.57364 17.0543 8.40905 17.3365 8.24445 17.9478C8.15039 18.3476 8.0681 17.1954 8.31499 17.1131C8.55013 17.019 7.49201 16.0785 7.28038 15.9962C7.057 15.9021 7.51552 15.6905 8.10337 16.2431C8.67946 16.7956 8.6677 16.9485 8.73824 16.8662C8.80878 16.7839 8.76175 16.49 8.65594 16.3606C8.55013 16.2313 8.0681 15.1967 8.13864 15.2202C8.20918 15.2437 8.87932 15.9844 9.06743 16.4782C9.2673 16.9602 9.25554 15.5612 9.25554 15.5612C9.25554 15.5612 9.40838 14.9968 9.47892 14.8322C9.54947 14.6676 9.69055 15.2085 9.69055 15.2085C9.69055 15.2085 9.79636 15.8668 10.1138 16.102C10.4312 16.3371 10.3489 15.7846 10.3489 15.7846L10.2314 13.1392L10.7839 12.6455C10.7839 12.6455 10.7252 14.7264 11.0543 14.6089C11.3835 14.4913 11.4423 13.5743 11.4423 13.5743C11.4423 13.5743 11.6657 12.0811 11.654 11.9988C11.6422 11.9165 11.9361 11.7519 11.9361 11.7519L12.6768 11.0818C12.6768 11.0818 12.6533 11.8225 12.959 11.9753C13.2646 12.1399 13.2764 11.2111 13.2764 11.2111L13.3822 10.3058C13.3822 10.3058 17.4031 7.07269 18.2143 6.88458C18.9197 7.60175 18.908 8.78919 18.614 9.1419C18.3319 9.49461 15.7218 13.0099 15.7218 13.0099C15.7218 13.0099 14.5697 12.9276 14.4286 13.2568C14.2875 13.586 15.3926 13.5037 15.3926 13.5037L13.5703 15.9256C12.3006 15.4201 10.5488 16.3019 10.3489 16.6193C10.3489 16.6193 10.2079 16.8192 10.6311 16.8427C11.0543 16.8662 14.0641 16.8897 14.0641 16.8897L12.8296 17.2189C12.8296 17.2189 10.4312 17.1954 10.2196 17.0778C10.008 16.9602 10.1373 17.2777 10.1373 17.2777C10.1373 17.2777 10.5606 18.0184 11.4071 18.2065C12.2536 18.3946 10.5606 18.1124 10.5606 18.1124C10.5606 18.1124 9.89042 17.9478 9.70231 17.4305C9.5142 16.925 9.47892 17.5716 9.47892 17.5716C9.47892 17.5716 9.81987 18.3593 10.4077 18.5239C10.9838 18.6885 10.0668 18.5357 10.0668 18.5357C10.0668 18.5357 9.27906 18.23 9.20852 18.0301C9.13797 17.8303 9.00865 18.2535 9.00865 18.2535C9.00865 18.2535 8.31499 19.1 8.12688 19.1235C7.93877 19.147 8.11512 19.0765 8.11512 19.0765Z" fill="white"/>
</svg>
