<svg width="26" height="26" viewBox="0 0 26 26" fill="none" xmlns="http://www.w3.org/2000/svg">
<path opacity="0.2" d="M13 26C20.1797 26 26 20.1797 26 13C26 5.8203 20.1797 0 13 0C5.8203 0 0 5.8203 0 13C0 20.1797 5.8203 26 13 26Z" fill="#45525B"/>
<path fill-rule="evenodd" clip-rule="evenodd" d="M13 26C20.1797 26 26 20.1797 26 13C26 5.8203 20.1797 0 13 0C5.8203 0 0 5.8203 0 13C0 20.1797 5.8203 26 13 26Z" fill="#002D64"/>
<path fill-rule="evenodd" clip-rule="evenodd" d="M15.4284 11.05C16.0706 10.4078 16.419 9.5628 16.419 8.6528C16.419 7.85838 16.1402 7.08917 15.6312 6.4792L17.602 4.5084L17.1626 4.082L15.1918 6.0528C14.5834 5.5458 13.8294 5.265 13.0312 5.265C11.661 5.26594 10.4261 6.09155 9.90162 7.35734C9.3771 8.62313 9.66609 10.0802 10.634 11.05C11.1956 11.6116 11.9288 11.9626 12.7166 12.0302V14.5288C11.9271 14.5943 11.1876 14.9423 10.634 15.509C9.31321 16.8342 9.31321 18.9782 10.634 20.3034C11.2762 20.9456 12.1212 21.294 13.0312 21.294C13.9304 21.2967 14.7934 20.9401 15.4284 20.3034C16.0706 19.6612 16.419 18.8162 16.419 17.9062C16.419 16.9962 16.0706 16.1512 15.4284 15.509C14.8668 14.9474 14.1336 14.5964 13.3458 14.5288V12.0302C14.1355 11.9653 14.8751 11.6172 15.4284 11.05ZM14.989 15.9458C15.5064 16.4736 15.8002 17.1626 15.8002 17.9036C15.8014 18.6382 15.5094 19.3429 14.989 19.8614C14.4716 20.3892 13.7722 20.6726 13.0312 20.6726C12.2966 20.6738 11.5919 20.3818 11.0734 19.8614C10.556 19.3336 10.2622 18.6446 10.2622 17.9036C10.261 17.169 10.553 16.4643 11.0734 15.9458C11.5908 15.418 12.2902 15.1346 13.0312 15.1346C13.7748 15.1372 14.4716 15.418 14.989 15.9458ZM11.0734 10.621C11.5919 11.1414 12.2966 11.4334 13.0312 11.4322C13.7748 11.4322 14.4716 11.1514 14.989 10.621C15.5094 10.1025 15.8014 9.3978 15.8002 8.6632C15.8002 7.9222 15.5168 7.2228 14.989 6.7054C14.4705 6.18501 13.7658 5.89302 13.0312 5.8942C12.2902 5.8942 11.5908 6.1776 11.0734 6.7054C10.5534 7.22417 10.2615 7.9287 10.2622 8.6632C10.2622 9.4042 10.556 10.0932 11.0734 10.621Z" fill="white"/>
</svg>
