<svg width="26" height="26" viewBox="0 0 26 26" fill="none" xmlns="http://www.w3.org/2000/svg">
<path opacity="0.2" d="M13 26C20.1797 26 26 20.1797 26 13C26 5.8203 20.1797 0 13 0C5.8203 0 0 5.8203 0 13C0 20.1797 5.8203 26 13 26Z" fill="#36435C"/>
<path fill-rule="evenodd" clip-rule="evenodd" d="M13.7709 4.99848C14.3941 4.91414 15.0309 4.9 15.6577 4.96126C15.9192 4.9622 16.1703 5.05314 16.4304 5.07341C16.7664 5.17047 17.1052 5.26754 17.4177 5.43388C17.8738 5.66053 18.2699 6.00309 18.5892 6.40974C18.9554 6.92241 19.2061 7.52084 19.3257 8.14801C19.4174 8.50142 19.4197 8.86943 19.4761 9.22896C19.4892 9.56681 19.4797 9.90513 19.4806 10.2435C18.4541 10.2524 17.4276 10.2472 16.4011 10.2463C16.4241 9.53571 16.4196 8.75822 16.0064 8.15508C15.6903 7.66503 15.1217 7.43508 14.5739 7.40398C14.4456 7.36534 14.3101 7.36676 14.1823 7.40587C13.4805 7.44498 12.7941 7.73571 12.2806 8.23848C11.6163 8.86754 11.2057 9.72702 10.8887 10.5884C10.6214 10.5978 10.3666 10.5017 10.1079 10.4451C9.36 10.2642 8.61258 10.0856 7.86425 9.90749C7.86245 9.80759 7.85206 9.70487 7.88277 9.60828C8.26213 8.68142 8.74355 7.78047 9.43 7.06142C10.5559 5.82356 12.1627 5.16058 13.7709 4.99848Z" fill="#FB441E"/>
<path fill-rule="evenodd" clip-rule="evenodd" d="M7.31329 11.4582C8.28155 11.6646 9.24394 11.904 10.2104 12.1203C10.2808 12.1368 10.3499 12.158 10.4186 12.1796C10.396 12.2701 10.3721 12.3596 10.3481 12.4496C9.53297 12.7649 8.71465 13.0712 7.89858 13.3836C7.55355 13.5042 7.21936 13.663 6.8662 13.7572C6.86981 13.6003 6.89194 13.4448 6.92807 13.2926C7.04052 12.6777 7.18187 12.0694 7.31329 11.4582Z" fill="#FCA029"/>
<path fill-rule="evenodd" clip-rule="evenodd" d="M12.8437 14.694C12.9517 14.1672 13.0542 13.6399 13.1662 13.1145C15.0752 13.1117 16.9837 13.1103 18.8926 13.115C18.4785 15.1195 18.0694 17.1249 17.6656 19.1318C16.9475 19.9371 16.0326 20.5369 15.0594 20.9497C14.2175 21.305 13.3175 21.5081 12.4111 21.5524C11.7188 21.5693 11.0233 21.5246 10.3436 21.3823C9.38845 21.1933 8.45 20.7513 7.78613 19.9931C7.17284 19.3047 6.83639 18.3943 6.70316 17.4755C6.62458 16.8794 6.58665 16.2758 6.62684 15.675C6.65213 15.4748 6.65213 15.2731 6.66568 15.0724C7.79742 14.6685 8.92555 14.2548 10.0573 13.8519C9.88749 15.0026 9.66981 16.174 9.84052 17.3393C9.92 17.794 10.0735 18.2596 10.401 18.5866C10.6543 18.8462 10.9944 19.0055 11.3412 19.0719C11.7088 19.1341 12.0855 19.1747 12.4563 19.1153C13.2394 19.0668 14.0134 18.8151 14.6701 18.3656C14.7726 18.31 14.7703 18.1781 14.7929 18.0763C14.9352 17.3601 15.0837 16.6457 15.2274 15.9299C15.2626 15.7188 15.3317 15.5134 15.3348 15.2976C14.7374 15.3028 14.1394 15.2943 13.5419 15.3028C13.2746 15.3348 13.0054 15.3193 12.7367 15.3235C12.7439 15.1091 12.8035 14.9027 12.8437 14.694Z" fill="#FEE734"/>
</svg>
