<svg width="26" height="26" viewBox="0 0 26 26" fill="none" xmlns="http://www.w3.org/2000/svg">
<path opacity="0.2" fill-rule="evenodd" clip-rule="evenodd" d="M13 26C20.1797 26 26 20.1797 26 13C26 5.8203 20.1797 0 13 0C5.8203 0 0 5.8203 0 13C0 20.1797 5.8203 26 13 26Z" fill="#5C9DD5"/>
<path fill-rule="evenodd" clip-rule="evenodd" d="M13 21C8.584 21 5 17.416 5 13C5 8.584 8.584 5 13 5C15.208 5 17.2112 5.896 18.6576 7.3424L17.3264 8.6736C16.2192 7.5664 14.6896 6.8816 13 6.8816C9.6208 6.8816 6.8816 9.6208 6.8816 13C6.8816 16.3792 9.6208 19.1184 13 19.1184C16.0592 19.1184 18.5872 16.872 19.0352 13.9408H13V12.0592H20.9424C20.9808 12.3664 21 12.68 21 13C21 17.416 17.416 21 13 21Z" fill="#003366"/>
</svg>
