<svg width="26" height="26" viewBox="0 0 26 26" fill="none" xmlns="http://www.w3.org/2000/svg">
<path opacity="0.2" d="M13 26C20.1797 26 26 20.1797 26 13C26 5.8203 20.1797 0 13 0C5.8203 0 0 5.8203 0 13C0 20.1797 5.8203 26 13 26Z" fill="#35A4F3"/>
<path fill-rule="evenodd" clip-rule="evenodd" d="M6.67298 6.76357C7.3741 5.99254 8.58729 5.78869 9.52182 6.22864C9.77494 6.34378 10.0012 6.51134 10.1974 6.70712C11.1369 7.63094 12.0705 8.56012 12.9943 9.50006C13.449 9.06136 13.8938 8.6123 14.3385 8.16326L14.3385 8.16322C14.8597 7.63688 15.381 7.11056 15.9184 6.60094C16.8619 5.72552 18.5029 5.82632 19.3501 6.78821C20.2098 7.67708 20.216 9.23842 19.359 10.1309C18.4128 11.0932 17.4564 12.0457 16.4999 12.9982C16.8849 13.3897 17.2741 13.7771 17.6634 14.1645L17.6635 14.1646C18.239 14.7373 18.8145 15.3101 19.3765 15.8964C20.2599 16.8162 20.1896 18.4416 19.2605 19.3049C18.4751 20.1028 17.1284 20.2216 16.1957 19.6172C15.9923 19.4918 15.824 19.323 15.6565 19.1547L15.6565 19.1547C15.6144 19.1125 15.5725 19.0704 15.53 19.0289C15.0458 18.5487 14.565 18.0653 14.0841 17.5819L14.0839 17.5818L14.0839 17.5817C13.726 17.222 13.3682 16.8623 13.0091 16.5039C12.5848 16.9156 12.1676 17.3343 11.7504 17.7531L11.7503 17.7531C11.1908 18.3146 10.6313 18.8762 10.0549 19.4205C9.09398 20.2924 7.43772 20.1584 6.60937 19.1669C5.86748 18.3578 5.80072 17.0366 6.42165 16.1388C6.53374 15.973 6.67512 15.8311 6.81608 15.6897L6.81614 15.6897C6.85376 15.6519 6.89135 15.6142 6.92834 15.5761C7.66754 14.8225 8.41615 14.0779 9.16924 13.3378L9.35242 13.5215L9.35244 13.5216C9.64247 13.8126 9.93252 14.1037 10.2256 14.392C9.89454 14.7311 9.55795 15.0648 9.22134 15.3986L9.22133 15.3986C8.70986 15.9057 8.19835 16.4129 7.70607 16.9389C7.34633 17.3207 7.46774 17.9703 7.84943 18.292C8.07522 18.5025 8.41078 18.5505 8.70377 18.4833C8.98329 18.4009 9.19318 18.193 9.39616 17.992L9.39629 17.9918C9.42522 17.9632 9.45401 17.9347 9.48284 17.9067C9.87149 17.5137 10.2618 17.1222 10.6521 16.7307L10.6522 16.7305L10.6526 16.7302C11.0818 16.2996 11.5111 15.8689 11.9383 15.4363C11.2363 14.7308 10.5314 14.0281 9.82651 13.3254L9.82644 13.3253L9.82638 13.3252C8.76907 12.2712 7.71179 11.2171 6.66402 10.1537C5.77429 9.25903 5.78415 7.65513 6.67298 6.76357ZM7.67337 7.89616C7.41039 8.2613 7.42338 8.82445 7.76969 9.13314C8.28784 9.67477 8.81934 10.2035 9.35082 10.7322L9.35083 10.7322C9.75309 11.1323 10.1553 11.5325 10.5518 11.9382C10.8146 11.691 11.0687 11.4346 11.3229 11.1781L11.3229 11.1781C11.5262 10.973 11.7296 10.7678 11.9374 10.5672L11.7562 10.3841L11.7562 10.3841C10.8956 9.51456 10.035 8.64503 9.16342 7.78685C9.01468 7.64079 8.82249 7.5382 8.61641 7.50325C8.26115 7.43291 7.87855 7.60181 7.67337 7.89616ZM14.0522 10.5664C14.9855 9.62945 15.9187 8.69246 16.8619 7.76534C17.063 7.57717 17.3412 7.46875 17.6176 7.48936C17.886 7.51579 18.1472 7.65199 18.308 7.87152C18.5101 8.14705 18.5665 8.53011 18.4335 8.8473C18.3777 8.98313 18.2756 9.09014 18.1755 9.195C18.1647 9.20635 18.1539 9.21768 18.1431 9.22901C17.6836 9.71373 17.2081 10.1829 16.7327 10.6521C16.302 11.0771 15.8713 11.5021 15.4525 11.9386C15.1327 11.6394 14.823 11.3293 14.5133 11.0192C14.472 10.9779 14.4307 10.9365 14.3893 10.8952C14.0435 11.2505 13.6941 11.6022 13.3397 11.9489C14.5973 13.2191 15.8634 14.4815 17.1295 15.7439C17.4108 16.0244 17.6921 16.3049 17.9734 16.5855C18.2269 16.8269 18.48 17.1173 18.5145 17.481C18.5235 17.7745 18.4079 18.0796 18.1767 18.2678C17.8327 18.567 17.2485 18.6118 16.9129 18.2758C16.1989 17.6024 15.5098 16.9031 14.8209 16.2041C14.5675 15.9469 14.3142 15.6898 14.0596 15.4341C14.2751 15.2238 14.487 15.0102 14.699 14.7965C14.8335 14.6609 14.968 14.5254 15.1035 14.3906C14.8522 14.1469 14.6052 13.899 14.3581 13.6511C14.2541 13.5467 14.1501 13.4423 14.0457 13.3382C13.8726 13.5134 13.6981 13.6874 13.5236 13.8613C13.3491 14.0352 13.1746 14.2092 13.0014 14.3843C12.5539 13.9249 12.0943 13.4776 11.6345 13.0301L11.6095 13.0058C12.4281 12.197 13.2401 11.3817 14.0522 10.5664Z" fill="#35A4F3"/>
</svg>
