<svg width="26" height="26" viewBox="0 0 26 26" fill="none" xmlns="http://www.w3.org/2000/svg">
<path opacity="0.2" d="M13 26C20.1797 26 26 20.1797 26 13C26 5.8203 20.1797 0 13 0C5.8203 0 0 5.8203 0 13C0 20.1797 5.8203 26 13 26Z" fill="#85F042"/>
<path fill-rule="evenodd" clip-rule="evenodd" d="M12.8 21.4C17.4944 21.4 21.3 17.5944 21.3 12.9C21.3 8.20558 17.4944 4.4 12.8 4.4C8.10558 4.4 4.3 8.20558 4.3 12.9C4.3 17.5944 8.10558 21.4 12.8 21.4Z" fill="url(#paint0_linear_1_2388)"/>
<rect x="8" y="8" width="3" height="10" fill="#F3F3F3"/>
<rect x="15" y="8" width="3" height="10" fill="#F3F3F3"/>
<path fill-rule="evenodd" clip-rule="evenodd" d="M17.2799 8.06909C17.3004 8.04546 17.322 8.0226 17.3439 8C17.3751 8.28587 17.3649 8.57483 17.3406 8.86096C17.3162 9.13502 17.3736 9.40753 17.3637 9.68211C17.3749 9.89349 17.3312 10.1041 17.3563 10.3152C17.3505 10.3491 17.3441 10.3833 17.3385 10.4175C17.2667 10.7747 17.1686 11.1338 16.9807 11.4482C16.8611 11.6408 16.7491 11.8394 16.6074 12.0166C16.3074 12.3975 15.9366 12.7147 15.5473 12.9983C15.1074 13.2973 14.6467 13.5662 14.1624 13.7845C13.6471 14.0598 13.0942 14.253 12.555 14.4741C12.0743 14.6557 11.5897 14.8276 11.1123 15.0182C10.9299 15.0831 10.7534 15.1628 10.5718 15.2293C10.457 15.2714 10.3422 15.3135 10.2333 15.3698C9.86755 15.5493 9.48762 15.7024 9.14349 15.9238C8.77777 16.1555 8.41841 16.429 8.19238 16.8089C8.15225 16.8762 8.11238 16.945 8.09054 17.0211C8.07657 17.0673 8.06412 17.1143 8.05168 17.1613C8.04279 17.1677 8.02501 17.1803 8.01612 17.1867C7.99962 16.8695 7.99428 16.5515 8.00723 16.2341C8.05092 15.3179 8.44304 14.4418 9.02184 13.7444C9.67022 12.9595 10.5103 12.3621 11.3858 11.8625C11.5369 11.7944 11.6753 11.7025 11.8211 11.6244C12.2282 11.4122 12.6378 11.2047 13.0571 11.018C13.1956 10.953 13.3286 10.8762 13.4726 10.8238C13.8505 10.6897 14.2074 10.503 14.5771 10.3486C14.7534 10.2739 14.9225 10.183 15.1016 10.1154C15.3403 10.0265 15.5666 9.90813 15.8028 9.81259C15.9288 9.76327 16.0428 9.68904 16.1528 9.61019C16.1357 9.55342 16.8166 8.51807 17.0612 8.31464C17.1463 8.24478 17.2143 8.15719 17.2799 8.06909Z" fill="#D8D8D8"/>
<path fill-rule="evenodd" clip-rule="evenodd" d="M17.2799 9.06909C17.3004 9.04546 17.322 9.0226 17.3439 9C17.3751 9.28587 17.3649 9.57483 17.3406 9.86096C17.3162 10.135 17.3736 10.4075 17.3637 10.6821C17.3749 10.8935 17.3312 11.1041 17.3563 11.3152C17.3505 11.3491 17.3441 11.3833 17.3385 11.4175C17.2667 11.7747 17.1686 12.1338 16.9807 12.4482C16.8611 12.6408 16.7491 12.8394 16.6074 13.0166C16.3074 13.3975 15.9366 13.7147 15.5473 13.9983C15.1074 14.2973 14.6467 14.5662 14.1624 14.7845C13.6471 15.0598 13.0942 15.253 12.555 15.4741C12.0743 15.6557 11.5897 15.8276 11.1123 16.0182C10.9299 16.0831 10.7534 16.1628 10.5718 16.2293C10.457 16.2714 10.3422 16.3135 10.2333 16.3698C9.86755 16.5493 9.48762 16.7024 9.14349 16.9238C8.77777 17.1555 8.41841 17.429 8.19238 17.8089C8.15225 17.8762 8.11238 17.945 8.09054 18.0211C8.07657 18.0673 8.06412 18.1143 8.05168 18.1613C8.04279 18.1677 8.02501 18.1803 8.01612 18.1867C7.99962 17.8695 7.99428 17.5515 8.00723 17.2341C8.05092 16.3179 8.44304 15.4418 9.02184 14.7444C9.67022 13.9595 10.5103 13.3621 11.3858 12.8625C11.5369 12.7944 11.6753 12.7025 11.8211 12.6244C12.2282 12.4122 12.6378 12.2047 13.0571 12.018C13.1956 11.953 13.3286 11.8762 13.4726 11.8238C13.8505 11.6897 14.2074 11.503 14.5771 11.3486C14.7534 11.2739 14.9225 11.183 15.1016 11.1154C15.3403 11.0265 15.5666 10.9081 15.8028 10.8126C15.9288 10.7633 16.0428 10.689 16.1528 10.6102C16.1357 10.5534 16.5 10.5 16.9758 9.5C17.0228 9.40138 17.2143 9.15719 17.2799 9.06909Z" fill="#FEFEFE"/>
<defs>
<linearGradient id="paint0_linear_1_2388" x1="17.9602" y1="2.24487" x2="2.54123" y2="6.63965" gradientUnits="userSpaceOnUse">
<stop stop-color="#8DF440"/>
<stop offset="1" stop-color="#09AC59"/>
</linearGradient>
</defs>
</svg>
