<svg width="26" height="26" viewBox="0 0 26 26" fill="none" xmlns="http://www.w3.org/2000/svg">
<path opacity="0.2" d="M13 26C20.1797 26 26 20.1797 26 13C26 5.8203 20.1797 0 13 0C5.8203 0 0 5.8203 0 13C0 20.1797 5.8203 26 13 26Z" fill="#0F242B"/>
<path fill-rule="evenodd" clip-rule="evenodd" d="M17.7248 6.63953H8.34633C8.34633 7.56127 8.3466 8.483 8.34688 9.40474C8.34759 11.8013 8.3483 14.1978 8.34419 16.5943C9.12246 17.2777 9.89743 17.9644 10.6724 18.6511C11.2924 19.2005 11.9123 19.7498 12.534 20.2975C12.5835 20.3402 12.6314 20.3854 12.6792 20.4306C12.7908 20.5361 12.9026 20.6418 13.037 20.7165C13.1766 20.6345 13.294 20.5234 13.4112 20.4126C13.4649 20.3618 13.5185 20.3111 13.5742 20.2633C14.2455 19.6732 14.9146 19.0804 15.5837 18.4876C16.2971 17.8554 17.0106 17.2233 17.727 16.5943C17.7228 14.1978 17.7236 11.8013 17.7243 9.40474C17.7246 8.483 17.7248 7.56127 17.7248 6.63953ZM8.81759 12.8311C8.81959 10.9382 8.82158 9.04519 8.80878 7.15249C8.97286 7.10407 9.14304 7.10732 9.31255 7.11055C9.36722 7.11159 9.42182 7.11263 9.47613 7.11194H17.0233C17.1037 7.11692 17.1841 7.13044 17.2624 7.15249C17.2495 9.20326 17.2517 11.2543 17.2538 13.3053C17.2549 14.309 17.256 15.3126 17.2553 16.3161C16.4422 17.0553 15.6191 17.7826 14.7959 18.5098C14.2079 19.0293 13.6199 19.5488 13.0356 20.0726C12.3001 19.4139 11.5598 18.7604 10.8197 18.1069C10.4902 17.816 10.1608 17.5252 9.83186 17.2339C9.72824 17.1396 9.6231 17.047 9.51799 16.9545C9.27814 16.7433 9.03844 16.5322 8.81732 16.3012C8.81516 15.1446 8.81638 13.9878 8.81759 12.8311Z" fill="white"/>
<path fill-rule="evenodd" clip-rule="evenodd" d="M9.83684 8.14569C10.4994 8.14854 11.1614 8.14774 11.8234 8.14694L12.3198 8.1464C12.3248 8.57077 12.3224 8.99525 12.3201 9.4197V9.41972C12.3164 10.1025 12.3127 10.7853 12.3391 11.4675C12.5943 11.2954 12.855 11.1316 13.1157 10.9678C13.3454 10.8234 13.5751 10.6791 13.8011 10.5291C13.8283 10.0405 13.8241 9.54975 13.8199 9.059V9.05898V9.05898V9.05898V9.05897V9.05897V9.05897C13.8173 8.75437 13.8147 8.44977 13.8196 8.14569C14.4402 8.14783 15.0611 8.14756 15.6822 8.14729L16.3033 8.14711C16.301 9.51791 16.3014 10.8887 16.3018 12.2594V12.2594V12.2595V12.2595V12.2596V12.2596C16.3022 13.4193 16.3025 14.579 16.3012 15.7384C16.2532 15.8232 16.1756 15.8851 16.0984 15.9468L16.0984 15.9468C16.0577 15.9792 16.0171 16.0116 15.981 16.0472C15.0604 16.8575 14.1426 17.67 13.2255 18.484C13.1622 18.5601 13.0662 18.5807 12.973 18.5907C12.149 17.8212 11.2987 17.0791 10.4489 16.3374L10.4488 16.3373L10.4488 16.3373L10.4488 16.3373L10.4488 16.3373L10.4488 16.3373L10.4488 16.3373C10.2449 16.1594 10.041 15.9814 9.83755 15.8032C9.83724 14.7091 9.83733 13.6152 9.83742 12.5214C9.83753 11.0629 9.83765 9.60439 9.83684 8.14569ZM10.3127 11.8666V11.8666L10.3121 12.7439C10.5015 12.6223 10.6919 12.5024 10.8823 12.3825L10.8823 12.3825L10.8823 12.3825L10.8824 12.3825L10.8824 12.3825L10.8824 12.3825C11.2068 12.1782 11.5313 11.9739 11.851 11.7613C11.8531 11.2595 11.8526 10.7575 11.8522 10.2554V10.2554V10.2553V10.2553V10.2552V10.2552C11.8517 9.71952 11.8513 9.18375 11.8538 8.64798C11.6538 8.64854 11.4538 8.64834 11.2537 8.64814C10.9394 8.64782 10.625 8.64751 10.3107 8.65012C10.3146 9.72229 10.3137 10.7945 10.3127 11.8666ZM14.2838 9.3754C14.2826 9.1329 14.2813 8.8904 14.2821 8.64798C14.4694 8.6485 14.6567 8.64827 14.844 8.64803H14.844C15.1719 8.64762 15.4998 8.64721 15.8281 8.65083C15.8252 9.57217 15.8231 10.4942 15.8288 11.4163C15.2545 11.8185 14.6528 12.1824 14.0528 12.5452L13.9996 12.5774C13.6494 12.8206 13.2885 13.0474 12.9273 13.2743L12.9273 13.2744C12.7242 13.402 12.5211 13.5296 12.3198 13.6602C12.3276 13.4532 12.3238 13.2446 12.32 13.036C12.3141 12.7086 12.3082 12.3813 12.3469 12.0602C12.6115 11.8775 12.886 11.7084 13.1604 11.5394L13.1604 11.5394C13.5412 11.3048 13.922 11.0703 14.2764 10.7994C14.2886 10.3252 14.2862 9.85029 14.2838 9.3754ZM14.284 14.7844V14.7858L14.2842 15.668C14.4622 15.667 14.6403 15.6675 14.8184 15.6681H14.8184C15.1547 15.6691 15.491 15.6702 15.8274 15.6609C15.8252 14.9374 15.8254 14.2138 15.8256 13.4903C15.8257 13.0079 15.8258 12.5255 15.8252 12.0431L15.6649 12.1432C15.2024 12.432 14.7396 12.721 14.2842 13.0213C14.2837 13.609 14.2839 14.1967 14.284 14.7844ZM10.3129 15.0211C10.3139 14.4717 10.3149 13.9224 10.3092 13.3728C10.6641 13.1054 11.0446 12.8729 11.4246 12.6407L11.4246 12.6407C11.5673 12.5535 11.7098 12.4664 11.851 12.3775C11.8531 13.0224 11.8527 13.6676 11.8523 14.3127V14.3127V14.3127C11.8521 14.7643 11.8518 15.2158 11.8524 15.6673C11.6997 15.6671 11.547 15.6675 11.3942 15.668C11.0333 15.6692 10.6725 15.6703 10.3121 15.6623C10.3121 15.4485 10.3125 15.2348 10.3129 15.0211ZM12.3204 15.1787V15.1787V15.1787C12.3211 15.3418 12.3218 15.5048 12.3206 15.668H13.8196C13.8178 15.3784 13.8187 15.0886 13.8197 14.7989V14.7989C13.8213 14.2993 13.823 13.7996 13.8104 13.3002C13.3273 13.6304 12.8307 13.9406 12.3298 14.2429C12.3177 14.555 12.319 14.8668 12.3204 15.1787ZM11.0587 16.1856L10.9844 16.1205C11.664 16.1148 12.3435 16.1169 13.0231 16.1189C13.7181 16.121 14.4131 16.123 15.1081 16.1169C14.4265 16.7338 13.7413 17.3463 13.0413 17.9418C12.3856 17.3506 11.7219 16.768 11.0587 16.1856Z" fill="white"/>
</svg>
