<svg width="26" height="26" viewBox="0 0 26 26" fill="none" xmlns="http://www.w3.org/2000/svg">
<path opacity="0.2" d="M13 26C20.1797 26 26 20.1797 26 13C26 5.8203 20.1797 0 13 0C5.8203 0 0 5.8203 0 13C0 20.1797 5.8203 26 13 26Z" fill="#4F9667"/>
<path fill-rule="evenodd" clip-rule="evenodd" d="M17.8326 16.0923C17.6912 16.0861 17.5508 16.0655 17.4137 16.0309C16.3612 15.7572 15.9369 14.7688 15.9369 14.7688C15.7468 14.3883 15.6477 13.9022 15.605 13.3914H17.1912V11.7544H15.6189C15.6572 11.2917 15.7139 10.8895 15.7566 10.6258C15.8006 10.3439 15.915 10.0773 16.0894 9.8499C17.1304 8.5053 19.0314 9.11819 19.0314 9.11819V7.4206C16.2392 7.2485 15.1193 8.59779 15.0309 8.71076L15.0173 8.72745C14.3133 9.54697 14.0709 10.7847 13.9968 11.7524H13.0427V7.26284H11.3835V11.7544H9.90643V7.02342H8.2475V11.7544H6.52687V13.3914H8.2475V19.9388H9.90643V13.3914H11.3835V16.8451H13.0427V13.3914H14.0051C14.1905 15.8143 15.7136 16.7848 15.7136 16.7848C17.0085 17.6831 19.3755 17.3638 19.3755 17.3638V16.0862C19.1753 16.152 18.1761 16.1084 17.8326 16.0923Z" fill="url(#paint0_linear_1_2206)"/>
<defs>
<linearGradient id="paint0_linear_1_2206" x1="6.52746" y1="9.39492" x2="19.3755" y2="9.39492" gradientUnits="userSpaceOnUse">
<stop stop-color="#58B27A"/>
<stop offset="0.05" stop-color="#56AA75"/>
<stop offset="0.32" stop-color="#4A875D"/>
<stop offset="0.46" stop-color="#467A54"/>
<stop offset="1" stop-color="#466454"/>
</linearGradient>
</defs>
</svg>
