<svg width="26" height="26" viewBox="0 0 26 26" fill="none" xmlns="http://www.w3.org/2000/svg">
<path opacity="0.2" d="M13 26C20.1797 26 26 20.1797 26 13C26 5.8203 20.1797 0 13 0C5.8203 0 0 5.8203 0 13C0 20.1797 5.8203 26 13 26Z" fill="#00838D"/>
<path fill-rule="evenodd" clip-rule="evenodd" d="M7.35089 8.09466C8.61218 7.87066 10.0139 8.13106 10.9883 9.07372C11.7051 9.75132 12.1169 10.7229 12.3383 11.7076C12.7812 11.6759 13.2154 11.7365 13.6522 11.786C13.9038 10.5633 14.5137 9.36119 15.5372 8.71626C16.4599 8.12266 17.5929 7.96679 18.6414 8.16279C18.3743 8.62479 18.1175 9.09426 17.8436 9.55159C17.2681 9.50306 16.6581 9.60292 16.1782 9.97159C15.5924 10.4065 15.2762 11.1597 15.1762 11.9036C15.4218 11.9036 15.6682 11.9036 15.9137 11.9055C16.1326 12.3488 16.3574 12.7884 16.5866 13.2252C16.1179 13.2243 15.6501 13.2252 15.1814 13.2243C15.3468 13.9121 15.6096 14.6177 16.1317 15.0788C16.6004 15.5016 17.2612 15.6276 17.8436 15.4493C18.1175 15.9057 18.3734 16.3733 18.6405 16.8335C17.6644 17.0472 16.5918 17.0117 15.7147 16.4508C14.6412 15.7853 14.002 14.544 13.6651 13.2924C13.2188 13.3288 12.7812 13.256 12.3392 13.2196C12.0049 14.4955 11.3674 15.7732 10.2724 16.4508C9.39963 17.0108 8.33218 17.0481 7.35951 16.8335C7.62658 16.3733 7.88246 15.9057 8.15643 15.4493C8.73711 15.6257 9.39704 15.4979 9.86314 15.076C10.3861 14.6168 10.6514 13.9121 10.8194 13.2243C10.3508 13.2252 9.88209 13.2243 9.41341 13.2252C9.64258 12.7884 9.86744 12.3479 10.0871 11.9045C10.331 11.9045 10.5748 11.9045 10.8186 11.9027C10.7161 11.1821 10.4257 10.4513 9.86831 10.0108C9.38412 9.61039 8.75003 9.50306 8.15557 9.55159C7.88074 9.06999 7.62831 8.57439 7.35089 8.09466Z" fill="white"/>
</svg>
