<svg width="26" height="26" viewBox="0 0 26 26" fill="none" xmlns="http://www.w3.org/2000/svg">
<path opacity="0.2" fill-rule="evenodd" clip-rule="evenodd" d="M13 26C20.1797 26 26 20.1797 26 13C26 5.8203 20.1797 0 13 0C5.8203 0 0 5.8203 0 13C0 20.1797 5.8203 26 13 26Z" fill="#56428E"/>
<path fill-rule="evenodd" clip-rule="evenodd" d="M12.4298 8H9.65909H9.65845C10.0054 8.52321 10.1865 9.14196 10.1771 9.77294C9.47518 9.77941 8.77327 9.77941 8.07073 9.77941C7.78181 10.3046 7.48732 10.8271 7.19278 11.3497C6.79058 12.0634 6.38829 12.7772 6 13.4981V13.5C6.4156 14.275 6.84732 15.0411 7.27912 15.8073L7.27913 15.8073L7.27916 15.8073C7.54422 16.2777 7.80932 16.748 8.07073 17.2206H9.95373V15.7239H9.33773C8.92027 14.9831 8.50536 14.2422 8.09173 13.5L9.33582 11.2761H14.3421V12.7449H11.9443V11.4637H10.137C10.1345 12.2849 10.1362 13.1061 10.138 13.9271V13.9272V13.9273V13.9274C10.1407 15.1874 10.1434 16.4471 10.1306 17.7059C10.1759 18.1274 9.89203 18.3855 9.60999 18.642C9.48373 18.7569 9.35783 18.8713 9.262 19H12.8237C12.2739 18.549 11.7992 18.01 11.8985 17.2271C13.1787 17.2192 14.458 17.2202 15.7371 17.2211H15.7375H15.7375H15.7376C16.5673 17.2217 17.3968 17.2224 18.2265 17.2206C18.3423 17.0184 18.4532 16.8118 18.5642 16.605L18.5643 16.605L18.5643 16.605C18.9623 15.8635 19.3621 15.1188 20 14.5592C19.4201 14.4801 18.8361 14.479 18.2524 14.4779H18.2524C18.006 14.4774 17.7597 14.4769 17.5137 14.4706C17.3705 14.9022 17.1911 15.3182 16.9894 15.7259C16.7125 15.7239 16.4357 15.7239 16.1621 15.7239C16.1649 14.7766 16.1631 13.829 16.1614 12.8813V12.8813V12.8813V12.8809C16.1591 11.6772 16.1569 10.4735 16.164 9.27018C16.1411 8.91779 16.3104 8.61964 16.4781 8.32424C16.5392 8.21663 16.6001 8.10937 16.6515 8H13.8616C14.2225 8.52412 14.3911 9.13429 14.3803 9.77294C13.5555 9.78135 12.7289 9.78135 11.9048 9.77294C11.8921 9.13041 12.0964 8.53706 12.4298 8ZM11.9449 15.7239V14.2551H14.3421V15.7239H11.9449ZM16.3454 9.77941H18.2226C18.3746 10.0279 18.5125 10.2878 18.6505 10.5479L18.6506 10.5479C18.9798 11.1682 19.3099 11.79 19.8326 12.2641C19.8411 12.2916 19.8532 12.335 19.8648 12.3765C19.8743 12.4102 19.8834 12.4427 19.8899 12.4647C19.4102 12.5289 18.9269 12.5242 18.4429 12.5195C18.1268 12.5164 17.8104 12.5133 17.4946 12.5294C17.3928 12.081 17.193 11.6688 16.9715 11.2741L16.3454 11.2761V9.77941ZM16.0736 17.4063C15.5187 17.4082 14.9619 17.4102 14.4076 17.4082C14.4494 18.0617 14.0187 18.4682 13.5969 18.8663C13.5497 18.9108 13.5026 18.9553 13.4563 19H17.0435C16.5566 18.5729 16.0609 18.1265 16.0736 17.4063Z" fill="white"/>
</svg>
