<svg width="26" height="26" viewBox="0 0 26 26" fill="none" xmlns="http://www.w3.org/2000/svg">
<path opacity="0.2" d="M13 26C20.1797 26 26 20.1797 26 13C26 5.8203 20.1797 0 13 0C5.8203 0 0 5.8203 0 13C0 20.1797 5.8203 26 13 26Z" fill="#008DAD"/>
<mask id="mask0_1_398" style="mask-type:luminance" maskUnits="userSpaceOnUse" x="0" y="0" width="26" height="26">
<path d="M13 26C20.1797 26 26 20.1797 26 13C26 5.8203 20.1797 0 13 0C5.8203 0 0 5.8203 0 13C0 20.1797 5.8203 26 13 26Z" fill="white"/>
</mask>
<g mask="url(#mask0_1_398)">
<path d="M13 22C17.9706 22 22 17.9706 22 13C22 8.02944 17.9706 4 13 4C8.02944 4 4 8.02944 4 13C4 17.9706 8.02944 22 13 22Z" fill="#008DAD"/>
<mask id="mask1_1_398" style="mask-type:luminance" maskUnits="userSpaceOnUse" x="4" y="4" width="18" height="18">
<path d="M13 22C17.9706 22 22 17.9706 22 13C22 8.02944 17.9706 4 13 4C8.02944 4 4 8.02944 4 13C4 17.9706 8.02944 22 13 22Z" fill="white"/>
</mask>
<g mask="url(#mask1_1_398)">
<path fill-rule="evenodd" clip-rule="evenodd" d="M17.0895 5.18079C16.8652 4.94037 16.5784 4.78415 16.2552 4.7224C15.889 4.66347 15.4966 4.68218 15.1641 4.85898C14.6419 5.13963 14.3298 5.73741 14.327 6.32115C14.448 6.29602 14.4914 6.19451 14.5345 6.09371C14.554 6.04821 14.5734 6.00285 14.5998 5.96473C14.9165 5.35105 15.8217 5.09473 16.3626 5.56621C16.8727 5.96567 16.8774 6.71593 16.6476 7.27068C16.2683 8.1912 15.5443 8.90872 14.8483 9.59817C13.845 8.96204 12.5876 8.82078 11.4366 9.04436C10.4324 9.24175 9.52712 9.86759 8.97781 10.7311C8.21364 11.9032 8.27249 13.5572 9.14597 14.6573C9.46453 15.0708 9.88959 15.3954 10.3576 15.6218C10.2801 15.6892 10.2009 15.7567 10.121 15.8247C9.48553 16.366 8.80829 16.9429 8.61908 17.7856C8.47428 18.4713 9.13849 18.8979 9.64389 19.1916C9.49012 19.3557 9.33377 19.5172 9.17738 19.6788C8.95753 19.9059 8.73762 20.133 8.52472 20.3675C8.42198 20.4866 8.32673 20.6126 8.23173 20.7382C8.2058 20.7725 8.17989 20.8068 8.15385 20.8409C8.49016 21.0158 8.83301 21.1767 9.18894 21.3077C9.18987 21.1075 9.21603 20.9082 9.27302 20.7165C9.47854 20.1729 9.84288 19.7052 10.2399 19.287C10.8565 19.3637 11.4759 19.4255 12.0962 19.4545C12.5902 19.497 13.0857 19.5106 13.5811 19.5242C14.2417 19.5424 14.9022 19.5606 15.5583 19.6472C15.9834 19.708 16.4561 19.7987 16.7326 20.1627C16.8288 20.375 16.7746 21.0785 16.7326 21.3077C17.0157 21.1552 17.3608 20.9403 17.6289 20.7635C17.6616 19.9231 17.6616 19.8558 17.6289 19.6472C17.4103 18.6724 16.4402 18.0812 15.4845 17.9586C14.6318 17.8395 13.7724 17.8146 12.9129 17.7898C12.2677 17.7711 11.6224 17.7525 10.9798 17.6939C10.6239 17.6499 10.14 17.5526 10.0596 17.1363C10.0605 16.5835 10.4959 16.1719 10.8817 15.8341C11.9075 16.1241 13.0238 16.1429 14.0393 15.7986C15.1687 15.4048 16.1113 14.4019 16.2945 13.1998C16.4206 12.3747 16.2888 11.4925 15.8376 10.7806C16.0386 10.781 16.2397 10.7808 16.4407 10.7806C16.7424 10.7802 17.0442 10.7799 17.3464 10.7816C17.4241 10.5614 17.4998 10.3405 17.5756 10.1195C17.6647 9.85968 17.7538 9.59975 17.8462 9.34091C17.7335 9.30611 17.671 9.38321 17.6088 9.45993C17.5807 9.49456 17.5527 9.52912 17.5201 9.55327C17.3131 9.7778 16.9897 9.78592 16.705 9.79306C16.6967 9.79327 16.6885 9.79348 16.6803 9.79369C16.1282 9.79837 15.5761 9.79743 15.0239 9.79369C15.3813 9.4559 15.7119 9.09144 16.0425 8.72716C16.1751 8.58095 16.3077 8.43477 16.4421 8.29036C16.8456 7.82542 17.2193 7.31277 17.4127 6.72154C17.5874 6.19767 17.5014 5.57276 17.0895 5.18079ZM10.7126 10.3924C10.9592 9.96395 11.3824 9.63559 11.8673 9.52614C12.4512 9.40733 13.1014 9.56824 13.5096 10.0173C14.1925 10.7385 14.3999 11.776 14.4223 12.7386C14.4382 13.5188 14.3737 14.4019 13.7955 14.9885C13.1602 15.6732 11.9672 15.6873 11.3049 15.0343C10.6687 14.4159 10.4211 13.5048 10.3651 12.6432C10.3231 11.8845 10.3305 11.0725 10.7126 10.3924Z" fill="white"/>
</g>
</g>
</svg>
