<svg width="26" height="26" viewBox="0 0 26 26" fill="none" xmlns="http://www.w3.org/2000/svg">
<path opacity="0.2" d="M13 26C20.1797 26 26 20.1797 26 13C26 5.8203 20.1797 0 13 0C5.8203 0 0 5.8203 0 13C0 20.1797 5.8203 26 13 26Z" fill="#45525B"/>
<path fill-rule="evenodd" clip-rule="evenodd" d="M5.06197 5.06424C5.26366 5.09241 5.47887 5.12058 5.61296 5.2941C6.20564 5.89917 6.7938 6.50987 7.38986 7.11269C7.54535 7.24001 7.58254 7.43607 7.61296 7.62424C7.52169 7.62649 7.34141 7.63213 7.25014 7.63551C6.57296 6.94818 5.90254 6.25297 5.2231 5.56677C5.07211 5.44283 5.09465 5.23663 5.06197 5.06424Z" fill="#5D67AB"/>
<path fill-rule="evenodd" clip-rule="evenodd" d="M8.05014 5.09467C8.1831 5.09579 8.31718 5.10255 8.45014 5.11607C8.91211 5.7234 9.31549 6.37354 9.76282 6.99213C9.91155 7.17354 9.97577 7.39889 10.0028 7.62875C9.91042 7.62875 9.72563 7.62988 9.63324 7.62988C9.18479 6.97072 8.73408 6.31269 8.27437 5.66143C8.14479 5.49805 8.09296 5.2941 8.05014 5.09467Z" fill="#5D67AB"/>
<path fill-rule="evenodd" clip-rule="evenodd" d="M11.2411 5.09466C11.3425 5.09353 11.5454 5.09128 11.6456 5.09015C11.8315 5.94536 12.1324 6.78254 12.1921 7.65916C12.093 7.6355 11.8946 7.58705 11.7955 7.56339C11.5983 6.74423 11.3639 5.92959 11.2411 5.09466Z" fill="#5D67AB"/>
<path fill-rule="evenodd" clip-rule="evenodd" d="M5.08338 8.07156C5.31662 8.10086 5.53634 8.19325 5.71775 8.34424C6.29014 8.78593 6.89747 9.18368 7.46535 9.63213C7.60958 9.72565 7.55549 9.92058 7.58366 10.0625C7.13859 10.0625 6.83324 9.71663 6.49409 9.48227C6.0231 9.14875 5.56113 8.80508 5.09352 8.46706C5.09127 8.36903 5.08564 8.17072 5.08338 8.07156Z" fill="#5D67AB"/>
<path fill-rule="evenodd" clip-rule="evenodd" d="M8.58197 8.55945C8.97746 8.52677 9.20056 8.87044 9.44056 9.12058C9.67493 9.39438 10.0231 9.63551 9.99943 10.0389C9.91267 10.04 9.73915 10.0411 9.65239 10.0411C9.31662 9.65691 8.92563 9.31776 8.63042 8.90086C8.61803 8.81635 8.59436 8.64508 8.58197 8.55945Z" fill="#5D67AB"/>
<path fill-rule="evenodd" clip-rule="evenodd" d="M11.2749 8.58876C11.3662 8.58651 11.5487 8.58425 11.64 8.582C11.8451 9.05524 12.1392 9.50482 12.1876 10.0299C12.0637 10.0333 11.9408 10.0355 11.8169 10.0378C11.6197 9.56228 11.3256 9.1127 11.2749 8.58876Z" fill="#5D67AB"/>
<path fill-rule="evenodd" clip-rule="evenodd" d="M5.0924 11.1713C5.93747 11.293 6.74874 11.5758 7.57803 11.7764C7.57578 11.8744 7.57352 12.0693 7.57127 12.1674C6.71944 12.0626 5.90366 11.7752 5.07324 11.5668C5.07775 11.4676 5.08789 11.2705 5.0924 11.1713Z" fill="#5D67AB"/>
<path fill-rule="evenodd" clip-rule="evenodd" d="M8.58535 11.1735C9.09352 11.2546 9.50817 11.5758 9.96113 11.7944C9.96676 11.8901 9.97915 12.0817 9.98592 12.1775C9.44845 12.1324 9.02141 11.7797 8.5538 11.551C8.56169 11.4563 8.57746 11.2682 8.58535 11.1735Z" fill="#5D67AB"/>
<path fill-rule="evenodd" clip-rule="evenodd" d="M11.6862 11.6434C11.853 11.6468 12.0197 11.6502 12.1865 11.6502C12.1876 11.8135 12.1887 11.9758 12.1899 12.1392C12.0231 12.1313 11.8575 12.1392 11.693 12.164C11.6952 11.9904 11.693 11.8169 11.6862 11.6434Z" fill="#5D67AB"/>
<path fill-rule="evenodd" clip-rule="evenodd" d="M13.7718 7.6265C13.8868 6.76453 14.1392 5.92735 14.3375 5.08228C14.4344 5.08566 14.6293 5.09354 14.7273 5.09805C14.6056 5.95777 14.3499 6.79157 14.1606 7.63777C14.0625 7.63439 13.8687 7.62875 13.7718 7.6265Z" fill="#D129C5"/>
<path fill-rule="evenodd" clip-rule="evenodd" d="M17.5251 5.09015C17.6231 5.0924 17.8192 5.09578 17.9172 5.09691C17.889 5.50254 17.5927 5.79663 17.3831 6.12001C17.0293 6.60564 16.7138 7.11944 16.3442 7.59268C16.253 7.60846 16.0716 7.63888 15.9814 7.65466C16.0051 7.46987 16.0085 7.27043 16.1324 7.11832C16.5921 6.43888 17.0687 5.77184 17.5251 5.09015Z" fill="#D129C5"/>
<path fill-rule="evenodd" clip-rule="evenodd" d="M20.4299 5.22085C20.5437 5.07775 20.7352 5.0924 20.8986 5.06085C20.8975 5.15437 20.8975 5.34029 20.8963 5.43381C20.1639 6.15381 19.4563 6.89973 18.7352 7.63099C18.6507 7.63212 18.4828 7.63437 18.3983 7.63437C18.4006 7.54761 18.4039 7.37296 18.4051 7.2862C19.0913 6.60902 19.7516 5.90592 20.4299 5.22085Z" fill="#D129C5"/>
<path fill-rule="evenodd" clip-rule="evenodd" d="M20.4118 8.23494C20.5459 8.11212 20.7296 8.10649 20.8975 8.06931C20.8975 8.16846 20.8963 8.36677 20.8963 8.46593C20.2327 8.94367 19.5724 9.42367 18.9121 9.90367C18.7769 10.0152 18.5989 10.031 18.4355 10.0727C18.4231 9.98367 18.3983 9.80677 18.3848 9.71888C19.0563 9.21747 19.738 8.73184 20.4118 8.23494Z" fill="#D129C5"/>
<path fill-rule="evenodd" clip-rule="evenodd" d="M13.8023 10.0344C13.8372 9.50481 14.1437 9.05523 14.3397 8.57748C14.4276 8.58199 14.6023 8.58988 14.689 8.59439C14.6575 9.11382 14.3499 9.55213 14.1606 10.022C14.0411 10.0265 13.9217 10.0299 13.8023 10.0344Z" fill="#D129C5"/>
<path fill-rule="evenodd" clip-rule="evenodd" d="M15.9882 9.73013C16.3352 9.34028 16.6935 8.96281 17.0473 8.57971C17.1341 8.58197 17.3087 8.5876 17.3955 8.58985C17.3685 8.74309 17.382 8.91887 17.2558 9.0338C16.9572 9.37295 16.6361 9.6907 16.3363 10.0299C16.2552 10.0321 16.093 10.0377 16.013 10.0411C16.0062 9.96337 15.9949 9.80788 15.9882 9.73013Z" fill="#D129C5"/>
<path fill-rule="evenodd" clip-rule="evenodd" d="M16.0389 11.8C16.4727 11.5634 16.8918 11.2411 17.4 11.1949C17.4045 11.284 17.4135 11.4609 17.4192 11.5499C16.947 11.7707 16.5223 12.1459 15.9803 12.1662C15.9949 12.0749 16.0242 11.8913 16.0389 11.8Z" fill="#D129C5"/>
<path fill-rule="evenodd" clip-rule="evenodd" d="M18.4017 11.773C19.2389 11.5837 20.0524 11.2716 20.9076 11.1769C20.8975 11.3144 20.8862 11.4518 20.8749 11.5893C20.0456 11.7572 19.2479 12.0749 18.4028 12.1651C18.4028 12.0671 18.4017 11.871 18.4017 11.773Z" fill="#D129C5"/>
<path fill-rule="evenodd" clip-rule="evenodd" d="M13.7932 11.6524C13.9578 11.6558 14.1223 11.6569 14.2868 11.6569C14.2845 11.8192 14.2834 11.9814 14.2834 12.1425C14.1223 12.1425 13.96 12.1437 13.7978 12.1459C13.7978 11.9814 13.7966 11.8169 13.7932 11.6524Z" fill="#D129C5"/>
<path fill-rule="evenodd" clip-rule="evenodd" d="M5.07888 14.4479C5.90592 14.2417 6.71944 13.9657 7.56564 13.8485C7.56902 13.9443 7.57466 14.1369 7.57691 14.2338C6.74761 14.431 5.9386 14.7274 5.08902 14.8254C5.08677 14.7307 5.08226 14.5414 5.07888 14.4479Z" fill="#D08F53"/>
<path fill-rule="evenodd" clip-rule="evenodd" d="M8.56169 14.4626C9.02366 14.2327 9.45071 13.8969 9.97916 13.8417C9.9769 13.933 9.97352 14.1178 9.97127 14.2102C9.5093 14.4276 9.09127 14.769 8.57071 14.831C8.56845 14.7386 8.56394 14.5549 8.56169 14.4626Z" fill="#D08F53"/>
<path fill-rule="evenodd" clip-rule="evenodd" d="M11.693 13.8654C11.8552 13.8699 12.0175 13.8732 12.1797 13.8744C12.1786 14.0378 12.1786 14.2011 12.1797 14.3634C12.0175 14.3645 11.8552 14.3656 11.693 14.369C11.6963 14.2011 11.6963 14.0332 11.693 13.8654Z" fill="#D08F53"/>
<path fill-rule="evenodd" clip-rule="evenodd" d="M6.95156 16.1888C7.1262 16.0366 7.34705 15.9792 7.57015 15.9476C7.57015 16.0727 7.56902 16.1978 7.56789 16.3228C6.89972 16.7893 6.24958 17.2806 5.59043 17.7583C5.4462 17.8755 5.26254 17.9127 5.08564 17.9521C5.11381 17.8023 5.03494 17.5871 5.18479 17.489C5.76282 17.0417 6.37015 16.6316 6.95156 16.1888Z" fill="#D08F53"/>
<path fill-rule="evenodd" clip-rule="evenodd" d="M9.16789 16.4919C9.39099 16.2676 9.58029 15.9488 9.93634 15.9488C9.95212 16.0288 9.9848 16.1888 10.0006 16.2688C9.65015 16.6597 9.29296 17.044 8.93353 17.4271C8.84451 17.4271 8.66649 17.4282 8.57747 17.4282C8.56508 17.0147 8.93015 16.7758 9.16789 16.4919Z" fill="#D08F53"/>
<path fill-rule="evenodd" clip-rule="evenodd" d="M11.2749 17.4237C11.3527 16.9076 11.5769 16.413 11.8654 15.9837C11.9431 15.9825 12.0997 15.9814 12.1775 15.9803C12.1448 16.5076 11.8372 16.9549 11.6423 17.4304C11.5499 17.4293 11.3662 17.4259 11.2749 17.4237Z" fill="#D08F53"/>
<path fill-rule="evenodd" clip-rule="evenodd" d="M7.12958 18.5042C7.24902 18.3566 7.44845 18.3871 7.61522 18.3634C7.62874 18.7792 7.26029 19.0169 7.0124 19.293C6.47381 19.8181 5.97465 20.3848 5.42141 20.8941C5.3324 20.9076 5.15324 20.9358 5.0631 20.9493C5.09578 20.7724 5.06986 20.5628 5.22986 20.44C5.86536 19.7966 6.4862 19.1386 7.12958 18.5042Z" fill="#D08F53"/>
<path fill-rule="evenodd" clip-rule="evenodd" d="M9.63888 18.3803C9.73014 18.3814 9.91155 18.3837 10.0028 18.3848C9.98028 18.8141 9.67268 19.133 9.44845 19.4733C9.10817 19.942 8.80958 20.44 8.4569 20.8986C8.31944 20.9178 8.18197 20.9268 8.04451 20.9257C8.07944 20.5369 8.35662 20.2507 8.56057 19.942C8.92113 19.4214 9.27944 18.9009 9.63888 18.3803Z" fill="#D08F53"/>
<path fill-rule="evenodd" clip-rule="evenodd" d="M11.8 18.3916C11.9341 18.3949 12.0693 18.3893 12.2034 18.3747C12.1054 19.2411 11.8282 20.0749 11.6535 20.9279C11.551 20.9268 11.3448 20.9223 11.2411 20.92C11.3583 20.0637 11.6287 19.2378 11.8 18.3916Z" fill="#D08F53"/>
<path fill-rule="evenodd" clip-rule="evenodd" d="M13.7899 13.8687C13.9555 13.871 14.1223 13.871 14.289 13.8687C14.2868 14.0344 14.2868 14.2 14.2901 14.3668C14.1234 14.3645 13.9578 14.3645 13.791 14.3668C13.7932 14.2 13.7932 14.0344 13.7899 13.8687Z" fill="#EB5853"/>
<path fill-rule="evenodd" clip-rule="evenodd" d="M16.0096 13.8304C16.529 13.9037 16.9549 14.2282 17.4124 14.4592C17.409 14.5527 17.4045 14.7409 17.4023 14.8344C16.8851 14.7668 16.467 14.4333 16.0085 14.2158C16.0085 14.1189 16.0096 13.9262 16.0096 13.8304Z" fill="#EB5853"/>
<path fill-rule="evenodd" clip-rule="evenodd" d="M18.4062 13.8428C19.2592 13.9566 20.0783 14.2372 20.9099 14.4479C20.9054 14.5459 20.8975 14.7409 20.893 14.8389C20.0445 14.7262 19.2299 14.4434 18.3994 14.2406C18.4017 14.1414 18.4051 13.9431 18.4062 13.8428Z" fill="#EB5853"/>
<path fill-rule="evenodd" clip-rule="evenodd" d="M13.7955 15.9724C13.9172 15.978 14.0377 15.9826 14.1594 15.9882C14.36 16.4558 14.6473 16.9009 14.6992 17.4169C14.6079 17.4214 14.4254 17.4293 14.3341 17.4327C14.1346 16.9538 13.8304 16.5031 13.7955 15.9724Z" fill="#EB5853"/>
<path fill-rule="evenodd" clip-rule="evenodd" d="M18.4096 15.9476C18.6079 15.9792 18.8118 16.0186 18.9696 16.1516C19.5803 16.6023 20.2023 17.0372 20.8073 17.4958C20.947 17.5916 20.8603 17.8 20.8806 17.9431C20.2259 17.8158 19.782 17.2479 19.2276 16.9155C18.9211 16.6259 18.3003 16.475 18.4096 15.9476Z" fill="#EB5853"/>
<path fill-rule="evenodd" clip-rule="evenodd" d="M15.9769 15.9623C16.1606 15.995 16.3859 15.9623 16.493 16.1516C16.8051 16.5662 17.3493 16.8637 17.4135 17.4158C17.3223 17.4203 17.142 17.4293 17.0507 17.435C16.7161 17.071 16.3566 16.7285 16.0524 16.3397C16.0344 16.2451 15.9961 16.0569 15.9769 15.9623Z" fill="#EB5853"/>
<path fill-rule="evenodd" clip-rule="evenodd" d="M13.7685 18.3882C13.8654 18.3837 14.0603 18.3758 14.1572 18.3713C14.3578 19.2186 14.6124 20.0558 14.7285 20.9189C14.6282 20.9223 14.4276 20.9268 14.3285 20.929C14.1414 20.0828 13.88 19.2502 13.7685 18.3882Z" fill="#EB5853"/>
<path fill-rule="evenodd" clip-rule="evenodd" d="M15.9713 18.3792C16.067 18.3826 16.2575 18.3893 16.3521 18.3927C16.6676 18.8783 17.0045 19.3482 17.3324 19.8259C17.56 20.1696 17.8642 20.4873 17.9161 20.9144C17.8169 20.9166 17.6197 20.92 17.5206 20.9223C17.1825 20.4186 16.8389 19.9206 16.4941 19.4226C16.2778 19.0969 15.9814 18.7927 15.9713 18.3792Z" fill="#EB5853"/>
<path fill-rule="evenodd" clip-rule="evenodd" d="M18.3758 18.3814C18.4659 18.3814 18.6439 18.3837 18.7341 18.3837C19.4034 19.0778 20.0862 19.7583 20.7544 20.4536C20.8941 20.5696 20.8907 20.7578 20.9268 20.92C20.8355 20.92 20.653 20.92 20.5617 20.92C19.8845 20.2316 19.2085 19.5409 18.5358 18.8468C18.3961 18.7307 18.4073 18.5426 18.3758 18.3814Z" fill="#EB5853"/>
</svg>
