<svg width="26" height="26" viewBox="0 0 26 26" fill="none" xmlns="http://www.w3.org/2000/svg">
<path opacity="0.2" d="M13 26C20.1797 26 26 20.1797 26 13C26 5.8203 20.1797 0 13 0C5.8203 0 0 5.8203 0 13C0 20.1797 5.8203 26 13 26Z" fill="#57BEEA"/>
<path fill-rule="evenodd" clip-rule="evenodd" d="M13.1158 14.9771C14.3534 14.9771 15.3566 13.9804 15.3566 12.7509C15.3566 11.5215 14.3534 10.5248 13.1158 10.5248C11.8783 10.5248 10.8751 11.5215 10.8751 12.7509C10.8751 13.9804 11.8783 14.9771 13.1158 14.9771Z" fill="#57BEEA"/>
<path fill-rule="evenodd" clip-rule="evenodd" d="M13.1158 20.5785C17.4671 20.5785 20.9946 17.074 20.9946 12.7509C20.9946 8.4279 17.4671 4.92338 13.1158 4.92338C8.76454 4.92338 5.23711 8.4279 5.23711 12.7509C5.23711 17.074 8.76454 20.5785 13.1158 20.5785Z" stroke="#57BEEA" stroke-width="0.5"/>
<path fill-rule="evenodd" clip-rule="evenodd" d="M17.067 8.44695C18.303 8.44695 19.305 7.45147 19.305 6.22348C19.305 4.99548 18.303 4 17.067 4C15.8309 4 14.829 4.99548 14.829 6.22348C14.829 7.45147 15.8309 8.44695 17.067 8.44695Z" fill="#57BEEA"/>
<path fill-rule="evenodd" clip-rule="evenodd" d="M16.9873 21.9955C18.2233 21.9955 19.2253 21 19.2253 19.772C19.2253 18.544 18.2233 17.5486 16.9873 17.5486C15.7513 17.5486 14.7493 18.544 14.7493 19.772C14.7493 21 15.7513 21.9955 16.9873 21.9955Z" fill="#57BEEA"/>
<path fill-rule="evenodd" clip-rule="evenodd" d="M5.23801 15.4743C6.47403 15.4743 7.47602 14.4788 7.47602 13.2508C7.47602 12.0229 6.47403 11.0274 5.23801 11.0274C4.00199 11.0274 3 12.0229 3 13.2508C3 14.4788 4.00199 15.4743 5.23801 15.4743Z" fill="#57BEEA"/>
</svg>
