<svg width="26" height="26" viewBox="0 0 26 26" fill="none" xmlns="http://www.w3.org/2000/svg">
<path opacity="0.2" d="M13 26C20.1797 26 26 20.1797 26 13C26 5.8203 20.1797 0 13 0C5.8203 0 0 5.8203 0 13C0 20.1797 5.8203 26 13 26Z" fill="#326464"/>
<path fill-rule="evenodd" clip-rule="evenodd" d="M7.21538 18.3187L7.61978 18.7231C9.4044 19.4703 11.189 20.2264 12.9824 20.9648V17.7121L9.64176 16.3319L8.26154 12.9912L9.64176 9.65054L7.21538 7.64615L5 12.9824L7.21538 18.3187Z" fill="#598282"/>
<path fill-rule="evenodd" clip-rule="evenodd" d="M12.9824 5C11.1978 5.73846 9.40439 6.49451 7.61977 7.24176L7.21538 7.64615L9.64175 9.64176L12.9824 8.26154V5Z" fill="#FBBB31"/>
<path fill-rule="evenodd" clip-rule="evenodd" d="M12.9824 9.64175L10.6176 10.6264L9.64175 12.9824L10.6176 15.3472L12.9824 16.3231V9.64175Z" fill="#598282"/>
<path fill-rule="evenodd" clip-rule="evenodd" d="M12.9824 20.9648C14.767 20.2264 16.5517 19.4703 18.3363 18.7231L18.7407 18.3187L20.9561 12.9824L18.7407 7.64615L16.3143 9.64175L17.6945 12.9824L16.3143 16.3231L12.9736 17.7033V20.9648H12.9824Z" fill="#326464"/>
<path fill-rule="evenodd" clip-rule="evenodd" d="M18.7495 7.64615L18.3451 7.23297C16.5517 6.49451 14.767 5.74725 12.9824 5V8.25275L16.3231 9.63297L18.7495 7.64615Z" fill="#FAAA00"/>
<path fill-rule="evenodd" clip-rule="evenodd" d="M12.9824 16.3231L15.3473 15.3472L16.3231 12.9824L15.3473 10.6264L12.9824 9.64175V16.3231Z" fill="#326464"/>
</svg>
