<svg width="26" height="26" viewBox="0 0 26 26" fill="none" xmlns="http://www.w3.org/2000/svg">
<path opacity="0.2" d="M13 26C20.1797 26 26 20.1797 26 13C26 5.8203 20.1797 0 13 0C5.8203 0 0 5.8203 0 13C0 20.1797 5.8203 26 13 26Z" fill="#F0A444"/>
<path fill-rule="evenodd" clip-rule="evenodd" d="M13.3689 20.8718C17.7872 20.8718 21.3689 17.2901 21.3689 12.8718C21.3689 8.45352 17.7872 4.8718 13.3689 4.8718C8.95067 4.8718 5.36894 8.45352 5.36894 12.8718C5.36894 17.2901 8.95067 20.8718 13.3689 20.8718Z" stroke="#F0A444"/>
<path fill-rule="evenodd" clip-rule="evenodd" d="M11.0854 8.87225C11.5903 8.8718 12.0956 8.87225 12.6005 8.8718C12.6009 9.65228 12.6 10.4328 12.6009 11.2133C13.1895 11.2137 13.7775 11.2133 14.3661 11.2137C14.3665 11.5418 14.3665 11.8703 14.3661 12.1988C13.7775 12.1993 13.1895 12.1988 12.6009 12.1993C12.6009 12.5274 12.6 12.8559 12.6014 13.1844C13.1899 13.1844 13.778 13.184 14.3661 13.1844C14.3665 13.513 14.3665 13.841 14.3661 14.1696C13.7775 14.17 13.189 14.1696 12.6009 14.17C12.6009 14.5353 12.6005 14.9005 12.6009 15.2657C13.8562 15.2662 15.1116 15.2657 16.3669 15.2662C16.3673 15.7021 16.3673 16.1384 16.3669 16.5748C14.6062 16.5748 12.846 16.5753 11.0854 16.5743C11.0849 15.7727 11.0854 14.9716 11.0849 14.17C10.8466 14.1696 10.6078 14.17 10.3689 14.1696C10.3689 13.841 10.3689 13.5125 10.3689 13.1844C10.6078 13.1844 10.8461 13.1844 11.0849 13.1844C11.0854 12.8559 11.0854 12.5274 11.0849 12.1993C10.8461 12.1988 10.6078 12.1988 10.3689 12.1993C10.3689 11.8703 10.3689 11.5418 10.3689 11.2133C10.6078 11.2133 10.8461 11.2137 11.0849 11.2133C11.0854 10.4328 11.0845 9.65274 11.0854 8.87225Z" fill="#F0A444"/>
</svg>
