<svg width="26" height="26" viewBox="0 0 26 26" fill="none" xmlns="http://www.w3.org/2000/svg">
<path opacity="0.2" d="M13 26C20.1797 26 26 20.1797 26 13C26 5.8203 20.1797 0 13 0C5.8203 0 0 5.8203 0 13C0 20.1797 5.8203 26 13 26Z" fill="#505050"/>
<path fill-rule="evenodd" clip-rule="evenodd" d="M15.4615 12.6923C15.4615 14.2217 14.2217 15.4615 12.6923 15.4615C11.1629 15.4615 9.92308 14.2217 9.92308 12.6923C9.92308 11.1629 11.1629 9.92308 12.6923 9.92308C14.2217 9.92308 15.4615 11.1629 15.4615 12.6923ZM12.3846 11.7692C12.3846 12.1091 12.1091 12.3846 11.7692 12.3846C11.4294 12.3846 11.1538 12.1091 11.1538 11.7692C11.1538 11.4294 11.4294 11.1538 11.7692 11.1538C12.1091 11.1538 12.3846 11.4294 12.3846 11.7692Z" fill="url(#paint0_linear_1_3093)"/>
<path fill-rule="evenodd" clip-rule="evenodd" d="M13 20.6923C8.75166 20.6923 5.30769 17.2483 5.30769 13C5.30769 8.75166 8.75166 5.30769 13 5.30769C17.2483 5.30769 20.6923 8.75166 20.6923 13C20.6923 17.2483 17.2483 20.6923 13 20.6923ZM13 18.8462C16.2287 18.8462 18.8462 16.2287 18.8462 13C18.8462 9.77126 16.2287 7.15385 13 7.15385C9.77126 7.15385 7.15385 9.77126 7.15385 13C7.15385 16.2287 9.77126 18.8462 13 18.8462Z" fill="url(#paint1_linear_1_3093)"/>
<defs>
<linearGradient id="paint0_linear_1_3093" x1="8.88179" y1="12.9901" x2="12.9424" y2="16.7596" gradientUnits="userSpaceOnUse">
<stop stop-color="#0073CB"/>
<stop offset="1" stop-color="#4C9EE5"/>
</linearGradient>
<linearGradient id="paint1_linear_1_3093" x1="2.41521" y1="13.8271" x2="13.6946" y2="24.298" gradientUnits="userSpaceOnUse">
<stop stop-color="#0073CB"/>
<stop offset="1" stop-color="#4C9EE5"/>
</linearGradient>
</defs>
</svg>
