<svg width="26" height="26" viewBox="0 0 26 26" fill="none" xmlns="http://www.w3.org/2000/svg">
<path opacity="0.2" d="M13 26C20.1797 26 26 20.1797 26 13C26 5.8203 20.1797 0 13 0C5.8203 0 0 5.8203 0 13C0 20.1797 5.8203 26 13 26Z" fill="#001A3E"/>
<path fill-rule="evenodd" clip-rule="evenodd" d="M12.0086 6.26872C11.9971 6.25771 11.9971 6.23568 12.0086 6.21366L13.3378 4.03304C13.3607 3.98899 13.418 3.98899 13.4295 4.03304L19.9953 14.826C20.0067 14.848 19.9953 14.87 19.9838 14.8921L16.2024 18.978C16.191 18.989 16.1681 19 16.1566 19H13.0857C13.0284 19 13.0055 18.9449 13.0399 18.9119L15.091 16.6872L17.016 14.6167C17.0389 14.5947 17.0389 14.5727 17.0275 14.5507L13.3836 8.53745L12.0086 6.26872ZM13.9843 17.7595L12.0071 19.9669C12.0015 19.9724 11.9932 19.9779 11.9848 19.9834C11.9765 19.989 11.9682 19.9945 11.9626 20H10.7185C10.6963 20 10.6852 19.989 10.6741 19.9779L7.00833 15.8832C6.99722 15.8611 6.99722 15.839 7.00833 15.817L11.5738 8.02483C11.5961 7.99172 11.6516 7.99172 11.6738 8.02483L12.9513 10.2102C12.9624 10.2212 12.9624 10.2433 12.9513 10.2653L9.86316 15.53C9.85206 15.5521 9.86316 15.5742 9.87427 15.5962L11.7182 17.6491C11.7294 17.6602 11.7516 17.6712 11.7627 17.6712H13.9399C13.9955 17.6712 14.0177 17.7264 13.9843 17.7595Z" fill="#001A3E"/>
</svg>
