<svg width="26" height="26" viewBox="0 0 26 26" fill="none" xmlns="http://www.w3.org/2000/svg">
<path opacity="0.2" d="M13 26C20.1797 26 26 20.1797 26 13C26 5.8203 20.1797 0 13 0C5.8203 0 0 5.8203 0 13C0 20.1797 5.8203 26 13 26Z" fill="#22844A"/>
<path fill-rule="evenodd" clip-rule="evenodd" d="M6.15601 10.842C8.24301 8.767 10.322 6.683 12.401 4.6C12.961 5.163 13.526 5.721 14.085 6.285C12.558 7.814 11.029 9.339 9.50701 10.872C10.903 12.25 12.272 13.654 13.661 15.04C13.739 15.101 13.839 15.243 13.722 15.322C13.246 15.784 12.777 16.252 12.308 16.72C12.233 16.812 12.071 16.796 12.015 16.689C10.063 14.74 8.09801 12.802 6.15601 10.842Z" fill="#22844A"/>
<path fill-rule="evenodd" clip-rule="evenodd" d="M12.142 10.797C12.69 10.23 13.26 9.685 13.808 9.119C15.818 11.132 17.841 13.133 19.839 15.159C18.07 16.917 16.309 18.683 14.537 20.437C14.262 20.715 13.968 20.973 13.715 21.272C13.584 21.267 13.436 21.27 13.353 21.147C12.913 20.683 12.428 20.259 12.007 19.778C12.001 19.596 12.171 19.498 12.279 19.38C13.681 17.96 15.093 16.551 16.494 15.129C15.031 13.697 13.602 12.231 12.142 10.797Z" fill="#22844A"/>
</svg>
