<svg width="26" height="26" viewBox="0 0 26 26" fill="none" xmlns="http://www.w3.org/2000/svg">
<path opacity="0.2" d="M13 26C20.1797 26 26 20.1797 26 13C26 5.8203 20.1797 0 13 0C5.8203 0 0 5.8203 0 13C0 20.1797 5.8203 26 13 26Z" fill="#505050"/>
<path fill-rule="evenodd" clip-rule="evenodd" d="M17.2968 11.9459C16.9794 11.3142 16.662 10.6824 16.329 10.0576C15.7623 11.1976 15.1856 12.3337 14.6089 13.4699C14.3581 13.964 14.1072 14.4582 13.8572 14.9527C14.0895 14.9483 14.3217 14.9467 14.5539 14.9521C14.595 14.8711 14.6362 14.7902 14.6774 14.7093C14.8011 14.4666 14.9247 14.2238 15.0444 13.9793C15.2601 13.9793 15.4757 13.9793 15.6914 13.9794C16.3382 13.9795 16.9848 13.9796 17.6314 13.9787C17.685 14.0847 17.7382 14.191 17.7915 14.2972C17.9012 14.5162 18.011 14.7353 18.1248 14.9527C18.3511 14.9478 18.578 14.9494 18.8049 14.951H18.8049C18.6502 14.6108 18.4791 14.2772 18.3079 13.9434C18.1926 13.7187 18.0773 13.4939 17.967 13.267C17.7401 12.8282 17.5184 12.3871 17.2968 11.9459ZM15.3386 13.39C15.679 12.7394 16.0135 12.0851 16.3296 11.4242C16.5148 11.7695 16.6901 12.1189 16.8655 12.4682C17.0202 12.7766 17.175 13.085 17.3365 13.3905C16.6705 13.3921 16.0046 13.3927 15.3386 13.39Z" fill="#FEFEFE"/>
<path fill-rule="evenodd" clip-rule="evenodd" d="M3.53109 10.4005C4.343 11.1415 5.149 11.889 5.96268 12.6284C6.01054 12.7037 6.07732 12.6062 6.12045 12.5807C6.91109 11.8565 7.70054 11.1312 8.49 10.4059C8.48704 11.9215 8.49532 13.4371 8.48586 14.9527C8.27432 14.9472 8.06218 14.9472 7.85064 14.9516C7.84532 13.9062 7.85477 12.8607 7.84532 11.8153C7.23963 12.3846 6.63159 12.9539 6.00109 13.5005C5.39482 12.9404 4.78854 12.3808 4.17459 11.8289C4.16336 12.8694 4.17873 13.9105 4.16691 14.951C3.95595 14.9472 3.74441 14.9472 3.53345 14.9505C3.52932 13.4338 3.53464 11.9172 3.53109 10.4005Z" fill="#FEFEFE"/>
<path fill-rule="evenodd" clip-rule="evenodd" d="M13.0843 10.862C12.533 10.4812 11.8015 10.3209 11.1237 10.4503C10.5198 10.557 9.96077 10.8766 9.60091 11.3349C9.18727 11.8505 9.02359 12.5314 9.17841 13.157C9.34268 13.898 9.95013 14.5377 10.7219 14.8004C11.691 15.1558 12.8828 14.8546 13.5245 14.1022C13.9346 13.644 14.129 13.0324 14.0552 12.4442C14.005 11.8191 13.622 11.2395 13.0843 10.862ZM9.75986 12.6636C9.74745 11.8933 10.3915 11.181 11.2111 11.0277C11.8038 10.9107 12.4503 11.0808 12.8828 11.4708C13.4359 11.954 13.5966 12.7681 13.2598 13.3964C13.0323 13.8471 12.5738 14.19 12.0508 14.3129C11.61 14.4121 11.1278 14.366 10.729 14.1629C10.1357 13.8785 9.74686 13.2773 9.75986 12.6636Z" fill="#FEFEFE"/>
<path fill-rule="evenodd" clip-rule="evenodd" d="M19.199 11.1908C19.7173 10.6367 20.5363 10.3371 21.3281 10.4184C22.013 10.4828 22.6417 10.8262 23.063 11.3202C22.8916 11.4405 22.7155 11.5548 22.5359 11.6647C22.1873 11.245 21.62 10.9763 21.0409 10.9942C20.4063 10.9909 19.7947 11.3273 19.4785 11.8278C19.0803 12.4328 19.1671 13.2659 19.6842 13.7908C20.0334 14.1597 20.5652 14.3736 21.097 14.3628C21.659 14.3601 22.2074 14.0957 22.5412 13.683C22.7191 13.7908 22.8899 13.9072 23.0654 14.0188C22.683 14.4982 22.0904 14.8346 21.448 14.9191C20.7975 15.0204 20.1067 14.8584 19.5825 14.4922C19.03 14.1142 18.6566 13.5162 18.6075 12.883C18.5425 12.2757 18.7559 11.6474 19.199 11.1908Z" fill="#FEFEFE"/>
<path fill-rule="evenodd" clip-rule="evenodd" d="M11.6585 11.2417C11.6342 11.2401 11.5858 11.2357 11.5621 11.2336C11.5373 11.2731 11.5125 11.3127 11.4889 11.3527C11.3622 11.389 11.241 11.438 11.1199 11.487C11.0004 11.5354 10.8809 11.5837 10.7561 11.6198C10.7222 11.6163 10.6862 11.6031 10.65 11.5898C10.5723 11.5612 10.4933 11.5321 10.43 11.5987C10.3088 11.6886 10.4075 11.8213 10.4932 11.895C10.5128 12.1912 10.5104 12.4883 10.508 12.7853C10.5066 12.9635 10.5052 13.1416 10.5085 13.3195C10.5217 13.3909 10.4816 13.4486 10.4419 13.5059C10.4014 13.5642 10.3613 13.622 10.378 13.6933C10.4412 13.8265 10.6291 13.8027 10.7219 13.7101L10.8336 13.7527C11.1116 13.8584 11.3904 13.9644 11.6384 14.1201L11.7093 14.0015L11.835 13.9553C12.0457 13.878 12.2566 13.8007 12.4621 13.7117C12.5501 13.7632 12.6748 13.8309 12.7688 13.7496C12.8604 13.6586 12.7883 13.5438 12.7209 13.4636C12.778 13.3676 12.8239 13.2661 12.8698 13.1647L12.8698 13.1647C12.9537 12.9794 13.0375 12.7945 13.1883 12.6446C13.1605 12.6282 13.1113 12.5996 13.0729 12.5773L13.0729 12.5773L13.0406 12.5585C12.9774 12.4063 12.9017 12.2595 12.8255 12.1127C12.8131 12.0185 12.8001 11.9242 12.7611 11.8359C12.9224 11.6767 12.6725 11.4383 12.5035 11.6171C12.3509 11.6066 12.2156 11.5483 12.0799 11.4899C11.956 11.4366 11.8318 11.3831 11.6939 11.3657C11.685 11.3349 11.6673 11.2731 11.6585 11.2417ZM10.911 11.6946C10.8499 11.6889 10.7894 11.6833 10.7301 11.6799C10.9624 11.5564 11.2147 11.4638 11.467 11.3831L11.6059 11.3874L11.6017 11.5133L11.5976 11.6393C11.386 11.7389 11.1443 11.7163 10.911 11.6946ZM11.626 11.3695C11.6212 11.4654 11.6171 11.5618 11.6141 11.6577C11.8584 11.7332 12.1188 11.7117 12.3714 11.6908L12.4184 11.687C12.182 11.5315 11.9096 11.4248 11.626 11.3695ZM10.6985 11.7742L10.7343 11.6962C10.9942 11.7323 11.2575 11.7249 11.5198 11.7175L11.5468 11.7167C11.4693 11.9668 11.3303 12.195 11.1921 12.4218C11.1522 12.4873 11.1123 12.5528 11.074 12.6186C10.9929 12.4562 10.9052 12.2966 10.8175 12.137L10.8175 12.137L10.8175 12.137L10.8175 12.137L10.8175 12.137L10.8175 12.137L10.8175 12.137L10.8175 12.137L10.8175 12.137C10.7655 12.0422 10.7134 11.9474 10.6628 11.8522L10.6985 11.7742ZM11.6602 11.7054C11.6837 11.8903 11.782 12.053 11.8809 12.2165C11.9514 12.333 12.0222 12.45 12.0662 12.5758C11.9808 12.4501 11.9096 12.3173 11.8385 12.1845C11.7601 12.0381 11.6816 11.8916 11.584 11.7547C11.4673 11.9839 11.3399 12.2084 11.2127 12.4328L11.2127 12.4328C11.173 12.5027 11.1334 12.5725 11.0941 12.6425C11.1454 12.7341 11.1948 12.8268 11.2442 12.9194C11.3518 13.1213 11.4594 13.3231 11.587 13.5151C11.7588 13.3017 11.8796 13.0586 11.9996 12.8169L11.9996 12.8169L11.9996 12.8169L11.9996 12.8168L11.9996 12.8168C12.0356 12.7444 12.0715 12.6721 12.1087 12.6007C12.2083 12.4487 12.2935 12.2896 12.3786 12.1307C12.4278 12.0388 12.4769 11.947 12.5289 11.8565C12.5082 11.817 12.4662 11.7373 12.445 11.6972C12.185 11.7319 11.9214 11.7325 11.6602 11.7054ZM12.6846 13.0877V13.0877V13.0877V13.0877V13.0877V13.0877V13.0877C12.6789 12.6748 12.6731 12.2613 12.7008 11.8495C12.7448 12.0097 12.8212 12.1577 12.8977 12.3059L12.8977 12.3059C12.9456 12.3986 12.9935 12.4913 13.0335 12.5872C12.9898 12.6479 13.0081 12.7134 13.0353 12.7757C12.9755 12.889 12.9218 13.0047 12.8681 13.1204C12.8109 13.2437 12.7536 13.367 12.689 13.4875C12.6883 13.3543 12.6864 13.2211 12.6846 13.0877L12.6846 13.0877ZM10.5777 11.8792C10.5682 12.4236 10.5623 12.9685 10.5812 13.5124C10.6769 13.3753 10.7553 13.2296 10.8336 13.084L10.8336 13.084L10.8336 13.084C10.9014 12.958 10.9691 12.8321 11.048 12.7118C11.0145 12.649 10.9815 12.5858 10.9486 12.5226L10.9486 12.5226L10.9486 12.5226L10.9486 12.5226L10.9486 12.5226L10.9486 12.5226L10.9486 12.5226C10.8343 12.3034 10.7199 12.084 10.5777 11.8792ZM12.3315 13.0443C12.2728 12.9331 12.2141 12.8218 12.143 12.7167C12.2274 12.5502 12.3176 12.3861 12.4077 12.2221L12.4077 12.2221L12.4078 12.2221L12.4078 12.2221L12.4078 12.2221L12.4078 12.2221C12.476 12.098 12.5442 11.974 12.6098 11.8489C12.6096 12.0311 12.6099 12.2133 12.6103 12.3955V12.3956C12.6109 12.7602 12.6116 13.1249 12.608 13.4896C12.4941 13.3524 12.4128 13.1984 12.3315 13.0443L12.3315 13.0443L12.3315 13.0443L12.3315 13.0443L12.3315 13.0443ZM10.6575 13.4615L10.6643 13.4883L10.6643 13.4883C10.6736 13.525 10.6861 13.5741 10.6935 13.6012C10.7945 13.6003 10.8956 13.602 10.9967 13.6038H10.9967H10.9967L10.9967 13.6038C11.1376 13.6062 11.2784 13.6086 11.4191 13.6039L11.4965 13.4875C11.3741 13.312 11.2749 13.1246 11.1758 12.9373L11.1758 12.9373C11.1372 12.8644 11.0986 12.7915 11.0587 12.7194C11.0055 12.8219 10.9483 12.9228 10.8912 13.0237C10.8095 13.1681 10.7277 13.3125 10.6575 13.4615ZM11.932 13.0923C11.9989 12.973 12.0659 12.8537 12.1229 12.7302C12.2011 12.838 12.262 12.9546 12.3229 13.0712L12.3229 13.0712L12.3229 13.0712L12.3229 13.0712C12.3962 13.2118 12.4695 13.3522 12.5732 13.4772C12.5442 13.508 12.4875 13.5709 12.4591 13.6023C12.3375 13.6 12.2159 13.6027 12.0945 13.6053C11.9842 13.6077 11.8739 13.6101 11.7636 13.6088C11.7586 13.5947 11.7508 13.5736 11.743 13.5525C11.7351 13.5313 11.7273 13.5102 11.7223 13.4961C11.783 13.3577 11.8575 13.225 11.932 13.0923ZM10.6787 13.6294C10.876 13.7791 11.123 13.8522 11.366 13.9241C11.4316 13.9435 11.497 13.9629 11.561 13.9836L11.5778 13.9164C11.5882 13.8753 11.5996 13.8301 11.6065 13.8022C11.5887 13.7957 11.5619 13.7861 11.5351 13.7765L11.535 13.7764L11.5348 13.7764C11.508 13.7668 11.4812 13.7572 11.4635 13.7507L11.4507 13.7168C11.4386 13.6849 11.424 13.6461 11.4156 13.6234C11.3434 13.6234 11.2713 13.6222 11.1991 13.6209C11.0255 13.6179 10.852 13.6148 10.6787 13.6294ZM11.6147 13.8092C11.6939 13.7599 11.7601 13.6965 11.8168 13.6267C11.8406 13.626 11.8643 13.6254 11.8881 13.6247C12.0913 13.6192 12.295 13.6137 12.4981 13.6229L12.3912 13.7231C12.355 13.7372 12.3189 13.7515 12.2827 13.7657C12.0636 13.8521 11.8439 13.9387 11.6141 13.9982C11.6147 13.9511 11.6147 13.8563 11.6147 13.8092Z" fill="#FEFEFE"/>
<path fill-rule="evenodd" clip-rule="evenodd" d="M10.0317 12.7253C9.97791 12.6284 10.1185 12.5937 10.1835 12.5596C10.1883 12.6273 10.1924 12.6955 10.196 12.7638C10.1404 12.7524 10.086 12.7399 10.0317 12.7253Z" fill="#FEFEFE"/>
</svg>
