<svg width="26" height="26" viewBox="0 0 26 26" fill="none" xmlns="http://www.w3.org/2000/svg">
<path opacity="0.2" d="M13 26C20.1797 26 26 20.1797 26 13C26 5.8203 20.1797 0 13 0C5.8203 0 0 5.8203 0 13C0 20.1797 5.8203 26 13 26Z" fill="#01A64F"/>
<mask id="mask0_1_815" style="mask-type:luminance" maskUnits="userSpaceOnUse" x="0" y="0" width="26" height="26">
<path d="M13 26C20.1797 26 26 20.1797 26 13C26 5.8203 20.1797 0 13 0C5.8203 0 0 5.8203 0 13C0 20.1797 5.8203 26 13 26Z" fill="white"/>
</mask>
<g mask="url(#mask0_1_815)">
<path fill-rule="evenodd" clip-rule="evenodd" d="M13.4105 6.89999C14.845 6.89999 16.0301 7.34533 16.9867 8.29418C17.922 9.20425 18.4002 10.3467 18.4 11.6828C18.4 13.0383 17.922 14.1808 16.9864 15.0908C16.238 15.8072 15.344 16.2333 14.3045 16.3882V17.1822H16.4248V18.0535H14.2834V18.5182H16.4248V19.3315H14.3045V20.9H12.4957V19.3315H10.3959V18.5182H12.5163V18.0535H10.3959V17.1822H12.4957V16.3689C11.477 16.214 10.583 15.788 9.83455 15.0715C8.87821 14.1614 8.4 13.019 8.4 11.6635C8.4 10.2886 8.85738 9.14622 9.81357 8.25547C10.7701 7.34533 11.9552 6.89999 13.4105 6.89999ZM13.4105 14.1614C14.0758 14.1614 14.6371 13.929 15.0322 13.4643C15.4272 12.9996 15.6351 12.3993 15.6351 11.6636C15.6351 10.9471 15.4272 10.3469 14.9906 9.88213C14.5747 9.39808 14.0346 9.16568 13.4105 9.16568C12.766 9.16568 12.2258 9.39808 11.8096 9.86281C11.3935 10.3275 11.1856 10.9085 11.1856 11.6443C11.1856 12.3993 11.3938 12.9995 11.8096 13.4643C12.2254 13.9291 12.766 14.1614 13.4105 14.1614Z" fill="#01A64F"/>
</g>
</svg>
