<svg width="26" height="26" viewBox="0 0 26 26" fill="none" xmlns="http://www.w3.org/2000/svg">
<path opacity="0.2" d="M13 26C20.1797 26 26 20.1797 26 13C26 5.8203 20.1797 0 13 0C5.8203 0 0 5.8203 0 13C0 20.1797 5.8203 26 13 26Z" fill="#B4A98E"/>
<path fill-rule="evenodd" clip-rule="evenodd" d="M7.83592 14.2983C8.24663 12.078 8.6479 9.85646 9.06026 7.6365C9.71822 7.64232 10.377 7.62525 11.0345 7.64504C11.8432 9.96042 12.661 12.2731 13.475 14.5869C14.296 12.27 15.1187 9.95383 15.9426 7.63767C16.5981 7.63495 17.254 7.63689 17.9099 7.63689C18.505 10.9686 19.0944 14.301 19.6862 17.6331C19.034 17.6362 18.3814 17.6354 17.7292 17.6331C17.3517 15.5381 16.9763 13.443 16.5985 11.3479C15.8506 13.443 15.1043 15.5381 14.3593 17.6339C13.7654 17.6351 13.1711 17.6362 12.5776 17.6331C11.8383 15.5365 11.0978 13.4407 10.3581 11.3445C10.1762 12.3289 9.99298 13.3138 9.81556 14.2991C10.1265 14.2983 10.4374 14.2976 10.7487 14.2995C10.7487 14.6253 10.7491 14.9516 10.7483 15.2778C10.3774 15.2789 10.0065 15.2782 9.63566 15.2782C9.5987 15.4516 9.56954 15.6269 9.53709 15.8014C9.94082 15.8026 10.3446 15.8007 10.7483 15.8022C10.7499 16.1277 10.7475 16.4535 10.7495 16.7793C10.285 16.7863 9.82007 16.7762 9.35515 16.784C9.30299 17.0676 9.25329 17.3515 9.19867 17.6343C8.54112 17.6351 7.88357 17.6347 7.22602 17.6347C7.2753 17.3499 7.3328 17.0664 7.37962 16.7813C6.81571 16.7813 6.2514 16.7821 5.68708 16.7809C5.68626 16.4547 5.68543 16.1281 5.68749 15.8018C6.31177 15.8011 6.93605 15.8026 7.56034 15.8014C7.59483 15.6273 7.62523 15.4531 7.65726 15.2789C7.00053 15.2774 6.34422 15.2789 5.68749 15.2782C5.68543 14.9519 5.68626 14.6253 5.68708 14.2991C6.40336 14.2975 7.11964 14.2995 7.83592 14.2983Z" fill="white"/>
</svg>
