<svg width="26" height="26" viewBox="0 0 26 26" fill="none" xmlns="http://www.w3.org/2000/svg">
<path opacity="0.2" d="M13 26C20.1797 26 26 20.1797 26 13C26 5.8203 20.1797 0 13 0C5.8203 0 0 5.8203 0 13C0 20.1797 5.8203 26 13 26Z" fill="#FF9616"/>
<path fill-rule="evenodd" clip-rule="evenodd" d="M12.9976 5C8.58045 5 5 8.58045 5 12.9976C5 17.4147 8.58045 20.9952 12.9976 20.9952C17.4147 20.9952 20.9952 17.4147 20.9952 12.9976C20.9944 8.58045 17.4139 5 12.9976 5ZM11.379 9.20594C11.5824 9.08016 12.0391 9.63198 12.39 10.0559C12.59 10.2975 12.7556 10.4975 12.8203 10.5069C12.9587 10.5269 13.265 10.2564 13.5321 10.0206L13.5321 10.0206C13.6102 9.95157 13.685 9.88554 13.7512 9.83063C14.0438 9.58801 15.3271 8.78438 15.3835 8.86741C15.4176 8.91697 15.0904 9.13487 14.7085 9.38923C14.4506 9.56095 14.1678 9.74928 13.9544 9.91365C13.765 10.0595 13.5956 10.2328 13.4368 10.3952C13.1516 10.687 12.9006 10.9438 12.6292 10.9438C12.2732 10.9438 11.6744 10.1008 11.4303 9.75727C11.3848 9.69323 11.3517 9.64654 11.3347 9.62589C11.2291 9.51305 11.2356 9.33572 11.3484 9.23013C11.3581 9.22126 11.3686 9.2132 11.379 9.20594ZM14.708 12.6727L15.5076 15.9888L16.9706 15.9856L15.4729 9.6267L12.996 12.7372L10.4561 9.6267L8.94559 15.9872H10.4553L11.2549 12.6711L12.996 14.7306L14.708 12.6727Z" fill="#FF9616"/>
</svg>
