<svg width="26" height="26" viewBox="0 0 26 26" fill="none" xmlns="http://www.w3.org/2000/svg">
<path opacity="0.2" d="M13 26C20.1797 26 26 20.1797 26 13C26 5.8203 20.1797 0 13 0C5.8203 0 0 5.8203 0 13C0 20.1797 5.8203 26 13 26Z" fill="#6093C3"/>
<path fill-rule="evenodd" clip-rule="evenodd" d="M17.0967 8.99798C17.2207 8.61108 17.4554 8.26851 17.7708 8.01159C18.2736 7.62972 19.4494 7.72645 19.4494 7.72645C19.4494 7.72645 17.0947 16.4307 16.9547 16.9607C16.8146 17.4897 16.4519 17.9552 16.0287 18.1466C15.6751 18.3068 14.6191 18.2756 14.6191 18.2756L10.2222 12.2312C10.2222 12.2312 9.0937 16.4469 8.9466 16.9597C8.733 17.7083 8.37935 17.9229 8.02569 18.1184C7.67305 18.3139 6.5466 18.2746 6.5466 18.2746C6.5466 18.2746 8.866 9.79698 9.06549 9.04232C9.26499 8.28766 9.73552 7.93703 10.0912 7.80705C10.4469 7.67708 11.4242 7.73249 11.4242 7.73249L15.8071 13.7395L17.0967 8.99798ZM10.6544 10.6564L14.994 16.6252L15.3819 15.4091L10.9768 9.34156L10.6544 10.6564Z" fill="#6093C3"/>
</svg>
