<svg width="26" height="26" viewBox="0 0 26 26" fill="none" xmlns="http://www.w3.org/2000/svg">
<path opacity="0.2" d="M13 26C20.1797 26 26 20.1797 26 13C26 5.8203 20.1797 0 13 0C5.8203 0 0 5.8203 0 13C0 20.1797 5.8203 26 13 26Z" fill="#505050"/>
<path fill-rule="evenodd" clip-rule="evenodd" d="M8.01196 12.0049C7.35276 12.3291 6.69571 12.6554 6 13.0011C6.02128 13.0093 6.04021 13.0166 6.05745 13.0233C6.10803 13.043 6.14408 13.057 6.18252 13.0698L6.18257 13.0698C7.47948 13.512 8.7764 13.9543 10.0755 14.3901C10.2172 14.4374 10.2988 14.5168 10.3632 14.6478C11.0511 16.0558 11.744 17.4604 12.4376 18.8661C12.5234 19.0401 12.6092 19.2141 12.6951 19.3881C12.7896 19.5814 12.8862 19.7746 13 20C13.0171 19.9539 13.0294 19.9232 13.0393 19.8984C13.0455 19.8827 13.0508 19.8694 13.0558 19.8562C13.1399 19.6094 13.224 19.3627 13.3081 19.116C13.6645 18.0708 14.0208 17.0262 14.3699 15.9788C14.4279 15.8049 14.5181 15.7019 14.6834 15.6203C15.8658 15.0428 17.0461 14.46 18.2264 13.8772C18.7181 13.6344 19.2097 13.3916 19.7015 13.1492C19.7556 13.1235 19.8088 13.0962 19.8687 13.0656C19.9088 13.045 19.9518 13.023 20 12.9989C19.9712 12.9886 19.9467 12.9799 19.9252 12.9721C19.8794 12.9557 19.8468 12.9441 19.8132 12.9324C19.3809 12.7849 18.9483 12.638 18.5158 12.4911C17.6507 12.1972 16.7856 11.9033 15.9224 11.6056C15.8279 11.5734 15.7163 11.5025 15.6755 11.4188C14.9695 9.99999 14.2692 8.57974 13.5688 7.15923C13.4129 6.84296 13.2569 6.52668 13.1009 6.2104C13.0709 6.14814 13.0387 6.08588 12.9936 6C12.9799 6.03597 12.9685 6.06534 12.9585 6.0911C12.9464 6.12222 12.9364 6.14806 12.927 6.1739C12.8472 6.40903 12.7673 6.64423 12.6874 6.87948C12.3245 7.94811 11.9612 9.01791 11.6021 10.0877C11.5592 10.2165 11.4905 10.2938 11.3702 10.3518C10.2494 10.9014 9.13067 11.4532 8.01196 12.0049ZM15.231 11.6271C14.7237 10.5976 14.2208 9.5788 13.713 8.55036L13.073 7.2538C12.4884 8.98201 11.9144 10.677 11.3344 12.39L10.8613 13.7868C11.6253 13.4088 12.3779 13.037 13.1273 12.6668L13.1275 12.6667L13.1302 12.6654C13.831 12.3192 14.529 11.9744 15.231 11.6271ZM8.91433 13.4876L8.91716 13.4886L8.91806 13.4889C9.37583 13.6442 9.83145 13.7988 10.2902 13.9543C10.4531 13.4729 10.615 12.9953 10.7778 12.5152C10.9562 11.989 11.1357 11.4596 11.3187 10.9186C10.4162 11.3662 9.53409 11.8018 8.64799 12.2394L8.64749 12.2396L8.64706 12.2399L8.64221 12.2422L8.64073 12.243C8.18213 12.4694 7.72245 12.6964 7.25828 12.9259C7.81935 13.116 8.36839 13.3023 8.91433 13.4876ZM10.9193 14.6885L11.4902 15.8461L11.4908 15.8474L11.491 15.8477L11.494 15.8539C11.9701 16.8193 12.4404 17.7728 12.9206 18.7484C13.0654 18.321 13.2077 17.9003 13.349 17.4822L13.3491 17.4821L13.3491 17.482L13.3499 17.4795C13.5499 16.8883 13.748 16.3023 13.9491 15.7105C12.9485 15.3734 11.9607 15.0406 10.9193 14.6885ZM11.1402 14.2398C11.1283 14.2327 11.114 14.2242 11.0954 14.2141C11.2989 14.114 11.4889 14.0187 11.6748 13.9256L11.8577 13.8341C12.1742 13.6781 12.4905 13.522 12.8066 13.3659C13.6785 12.9355 14.5496 12.5055 15.4242 12.08C15.508 12.0371 15.6368 12.0307 15.727 12.0607C16.412 12.2864 17.0936 12.5177 17.7751 12.7489L17.7753 12.749L17.7755 12.7491C18.0403 12.8389 18.305 12.9288 18.5699 13.0182C18.6034 13.0288 18.6369 13.0423 18.6895 13.0634L18.7267 13.0784C18.381 13.2523 18.0632 13.4111 17.7454 13.5679L17.2696 13.8026L17.2695 13.8026L17.2685 13.8031C16.3092 14.2764 15.3508 14.7492 14.3893 15.2188C14.312 15.2575 14.1982 15.2789 14.1187 15.2532C13.1396 14.929 12.1626 14.5962 11.1856 14.2635C11.1713 14.2583 11.1585 14.2507 11.1402 14.2398Z" fill="white"/>
</svg>
