<svg width="26" height="26" viewBox="0 0 26 26" fill="none" xmlns="http://www.w3.org/2000/svg">
<path opacity="0.2" d="M13 26C20.1797 26 26 20.1797 26 13C26 5.8203 20.1797 0 13 0C5.8203 0 0 5.8203 0 13C0 20.1797 5.8203 26 13 26Z" fill="#82BD39"/>
<path fill-rule="evenodd" clip-rule="evenodd" d="M12.3023 16.356L13.5 18.1443V22L9 19.7364V9.7763C8.99969 9.629 9.05773 9.48873 9.15923 9.39148L9.67154 8.89348C9.77021 8.79601 9.90247 8.7493 10.0348 8.76517C10.1672 8.78104 10.287 8.85797 10.3638 8.97648L14.4623 15.0657L16.7262 16.6352V8.23702L14.7254 7.10519L14.6285 12.3719L13.5692 10.7798L13.5208 5L18 7.36174V17.2765L16.9823 18.2273L13.7769 16.1975L10.2185 10.9081L10.17 18.9441L12.2885 20.174L12.3023 16.356Z" fill="#82BD39"/>
</svg>
