<svg width="26" height="26" viewBox="0 0 26 26" fill="none" xmlns="http://www.w3.org/2000/svg">
<path opacity="0.2" d="M13 26C20.1797 26 26 20.1797 26 13C26 5.8203 20.1797 0 13 0C5.8203 0 0 5.8203 0 13C0 20.1797 5.8203 26 13 26Z" fill="#F6EB17"/>
<path fill-rule="evenodd" clip-rule="evenodd" d="M9.3256 7.5204C9.321 7.4678 9.3638 7.41 9.4196 7.4148C10.4864 7.4138 11.5532 7.4146 12.62 7.4142C12.893 7.4152 13.1658 7.4118 13.4386 7.4174C14.2846 7.4542 15.1408 7.6542 15.8634 8.1092C15.1742 8.5132 14.4798 8.9082 13.789 9.3096C13.6688 9.376 13.5522 9.449 13.431 9.5134C13.0074 9.5158 12.5834 9.5134 12.1598 9.5146C12.1008 9.5084 12.047 9.5608 12.051 9.6194C12.0508 9.8512 12.0508 10.0828 12.0512 10.3146C11.1422 10.8386 10.2342 11.3644 9.324 11.8864C9.3272 10.431 9.3242 8.9756 9.3256 7.5204Z" fill="#F6EB17"/>
<path fill-rule="evenodd" clip-rule="evenodd" d="M13.9164 9.5958C15.1708 8.8728 16.4248 8.149 17.6784 7.425C18.2302 7.9734 18.7792 8.5248 19.3294 9.0748C17.865 9.922 16.4 10.7678 14.9342 11.6126C14.97 11.4438 14.9576 11.27 14.958 11.0988C14.9402 10.7296 14.829 10.3552 14.5942 10.0646C14.423 9.8436 14.1814 9.682 13.9164 9.5958Z" fill="#F6EB17"/>
<path fill-rule="evenodd" clip-rule="evenodd" d="M14.7994 12.0574C15.6976 11.5344 16.6006 11.0184 17.4986 10.495C17.6212 11.2648 17.5764 12.0834 17.2394 12.7964C16.9366 13.4418 16.4042 13.9634 15.7818 14.3028C15.0792 14.6894 14.2734 14.843 13.4792 14.8816C13.033 14.89 12.5868 14.8828 12.1406 14.8862C12.0862 14.8912 12.0444 14.9454 12.0508 14.9994C12.051 15.6722 12.0508 16.3448 12.051 17.0174C11.1416 17.5412 10.2328 18.0656 9.324 18.5902C9.3264 17.4664 9.3254 16.3426 9.3246 15.2188C10.731 14.4064 12.1376 13.5944 13.5442 12.7824C13.619 12.7584 13.7008 12.764 13.7772 12.7444C14.0962 12.6932 14.4108 12.5522 14.623 12.3024C14.6952 12.2308 14.7366 12.135 14.7994 12.0574Z" fill="#F6EB17"/>
<path fill-rule="evenodd" clip-rule="evenodd" d="M6.6662 13.7866C8.461 12.7492 10.2566 11.7128 12.0512 10.6754C12.0506 11.3438 12.0508 12.012 12.0512 12.6804C12.0486 12.7274 12.0912 12.778 12.1394 12.7774C12.3984 12.7798 12.6574 12.7748 12.9164 12.7798C11.3828 13.6654 9.8486 14.5502 8.3146 15.4352C7.7654 14.8854 7.2158 14.336 6.6662 13.7866Z" fill="#F6EB17"/>
</svg>
