<svg width="26" height="26" viewBox="0 0 26 26" fill="none" xmlns="http://www.w3.org/2000/svg">
<path opacity="0.2" d="M13 26C20.1797 26 26 20.1797 26 13C26 5.8203 20.1797 0 13 0C5.8203 0 0 5.8203 0 13C0 20.1797 5.8203 26 13 26Z" fill="#03E8B0"/>
<path fill-rule="evenodd" clip-rule="evenodd" d="M16.9732 6.33454C17.2323 6.22719 17.4013 5.97424 17.4013 5.69365H17.4016C17.4016 5.50968 17.3286 5.33323 17.1986 5.20314C17.0685 5.07305 16.8922 4.99998 16.7083 5C16.4278 4.99987 16.1749 5.16879 16.0675 5.42798C15.9601 5.68717 16.0194 5.98558 16.2176 6.18403C16.4159 6.38248 16.7141 6.44188 16.9732 6.33454ZM9.78721 5.74867C9.78724 6.02927 9.61832 6.28226 9.35921 6.38966C9.1001 6.49705 8.80184 6.43771 8.60352 6.23929C8.40521 6.04087 8.34589 5.74247 8.45323 5.48323C8.56058 5.22399 8.81344 5.05498 9.0939 5.05501C9.47681 5.05501 9.78721 5.36557 9.78721 5.74867ZM13.6325 5.59739C13.339 5.29301 12.9977 4.93894 12.5393 5.13849V5.13825C12.0518 5.326 11.9705 6.03236 12.3683 6.35748C12.7881 6.7275 13.1862 7.12156 13.5842 7.51556C13.7943 7.72361 14.0044 7.93164 14.2177 8.13611C14.4529 8.36928 14.8277 8.49545 15.1345 8.32802C15.5335 8.14971 15.6524 7.56368 15.3589 7.24344C14.8474 6.70258 14.3069 6.18984 13.7399 5.70749C13.7048 5.67233 13.669 5.63525 13.6325 5.59739ZM19.1668 7.15964C19.0697 6.74353 18.5107 6.59064 18.1614 6.77871H18.1615C17.6704 7.19307 17.24 7.67021 16.8097 8.14722L16.8097 8.14722C16.5685 8.41461 16.3274 8.68196 16.0756 8.93819C15.7639 9.25243 15.8754 9.87356 16.2889 10.0447C16.5751 10.1769 16.9317 10.1114 17.1342 9.86629C17.6894 9.28634 18.2451 8.70647 18.8163 8.14235C19.077 7.89599 19.3147 7.5297 19.1668 7.15964ZM6.998 6.89401C7.36188 6.67444 7.81175 6.81997 8.081 7.11846C8.4622 7.50338 8.85095 7.88019 9.2394 8.25671L9.23941 8.25671L9.23941 8.25672L9.23942 8.25673L9.23943 8.25673L9.23943 8.25674L9.23944 8.25674L9.23944 8.25675L9.23945 8.25675L9.23945 8.25676L9.23946 8.25677L9.23947 8.25677L9.23947 8.25678L9.23948 8.25678L9.23948 8.25679L9.23949 8.25679L9.23949 8.2568L9.23954 8.25684C9.46802 8.4783 9.69639 8.69967 9.92307 8.92252C10.3281 9.29737 10.0456 10.0908 9.48048 10.0933C9.13356 10.1467 8.90605 9.90896 8.6845 9.67743C8.604 9.5933 8.52429 9.50999 8.43992 9.44178C7.88511 8.98201 7.37674 8.47026 6.8734 7.95436C6.58841 7.66075 6.6736 7.12214 6.99832 6.89401H6.998ZM8.2927 11.5721C8.67312 11.042 8.07764 10.2728 7.46769 10.5082L7.46841 10.5081C6.931 10.8726 6.49801 11.3653 6.06506 11.8579C5.81212 12.1456 5.55919 12.4334 5.28547 12.6956C4.87436 13.0769 5.15816 13.8627 5.72327 13.8845C6.1126 13.9315 6.3638 13.6423 6.5985 13.372L6.59852 13.372C6.65481 13.3072 6.71016 13.2435 6.76623 13.1857C6.96953 12.956 7.18913 12.7405 7.40861 12.5251L7.40862 12.5251L7.40862 12.5251C7.71899 12.2205 8.02914 11.916 8.2927 11.5721ZM19.8362 12.209C20.2558 11.9349 20.8888 12.2466 20.9023 12.7528C20.9474 13.1002 20.7077 13.3279 20.4741 13.5498C20.388 13.6316 20.3027 13.7126 20.2328 13.7986C19.7756 14.3493 19.2737 14.8626 18.7557 15.3563C18.3773 15.7142 17.6703 15.463 17.6024 14.9451C17.5312 14.515 17.8416 14.2159 18.1305 13.9374C18.201 13.8694 18.2703 13.8027 18.3324 13.7356C18.5705 13.5145 18.7917 13.2754 19.0127 13.0366L19.0127 13.0366L19.0127 13.0366L19.0127 13.0366L19.0127 13.0365L19.0127 13.0365L19.0127 13.0365L19.0128 13.0365L19.0128 13.0365L19.0128 13.0365L19.0128 13.0365L19.0128 13.0364L19.0128 13.0364L19.0128 13.0364L19.0129 13.0364L19.0129 13.0364L19.0129 13.0364L19.0129 13.0364C19.2782 12.7497 19.5431 12.4634 19.8361 12.2093L19.8362 12.209ZM10.0944 16.5122C10.0848 16.0173 9.46633 15.7274 9.05874 15.9712V15.9716C8.72388 16.2641 8.41796 16.5876 8.11176 16.9113L8.11176 16.9113L8.11175 16.9114C7.86665 17.1705 7.62136 17.4299 7.36092 17.6737L7.34965 17.6846C7.04923 17.9763 6.66433 18.3501 6.82369 18.8113C6.91832 19.2953 7.62897 19.458 7.96247 19.1207C8.4754 18.6208 8.98353 18.1146 9.43956 17.5629C9.50802 17.4784 9.59149 17.3984 9.67579 17.3176C9.90953 17.0937 10.1497 16.8635 10.0944 16.5122ZM16.3012 15.953C16.5268 15.8754 16.8127 15.8694 17.0033 16.0319C17.2428 16.2596 17.4874 16.4818 17.7321 16.704L17.7321 16.704C18.2085 17.1367 18.6849 17.5693 19.1232 18.0422C19.3281 18.2497 19.3463 18.5978 19.2105 18.8477C19.0187 19.2966 18.3615 19.3075 18.0426 18.9896C17.7363 18.7006 17.4358 18.4047 17.1351 18.1087L17.1351 18.1087L17.1351 18.1087L17.135 18.1086L17.135 18.1086L17.135 18.1086L17.1349 18.1085L17.1349 18.1085L17.1349 18.1085L17.1348 18.1084L17.1348 18.1084L17.1348 18.1084L17.1347 18.1083L17.1347 18.1083C16.8033 17.782 16.4718 17.4556 16.1325 17.1383C15.7409 16.8338 15.8329 16.1288 16.3011 15.9529L16.3012 15.953ZM11.8384 17.9147C11.597 17.6588 11.2026 17.4865 10.8669 17.6685L10.8668 17.6681C10.4642 17.8441 10.343 18.4373 10.6413 18.7564C11.1362 19.2747 11.6483 19.7782 12.1998 20.2357C12.2866 20.306 12.3681 20.3921 12.4503 20.4791L12.4503 20.4791C12.669 20.7103 12.893 20.9472 13.2366 20.9065C13.8224 20.9005 14.1034 20.0985 13.6878 19.703C13.0559 19.1231 12.4471 18.5189 11.8384 17.9147ZM11.1149 8.28724C11.4978 8.28722 11.8082 7.97667 11.8082 7.59358C11.8082 7.4096 11.7352 7.23316 11.6051 7.10307C11.4751 6.97298 11.2987 6.89991 11.1148 6.89993C10.7319 6.89997 10.4216 7.21055 10.4216 7.59364C10.4216 7.97672 10.7321 8.28725 11.1149 8.28724ZM6.39468 9.28842C6.39475 9.56902 6.22585 9.82203 5.96675 9.92946C5.70766 10.0369 5.40939 9.97757 5.21105 9.77918C5.01271 9.58078 4.95336 9.28238 5.06067 9.02313C5.16799 8.76388 5.42083 8.59484 5.7013 8.59484C5.88517 8.59482 6.06153 8.66788 6.19156 8.79795C6.3216 8.92802 6.39466 9.10445 6.39468 9.28842ZM20.992 9.11442C20.992 9.49752 20.6816 9.80808 20.2987 9.80808C19.9158 9.80808 19.6054 9.49752 19.6054 9.11442C19.6054 8.73133 19.9158 8.42077 20.2987 8.42077C20.6816 8.42077 20.992 8.73133 20.992 9.11442ZM18.4039 11.8012C18.7868 11.8012 19.0971 11.4906 19.0971 11.1075C19.0971 10.9235 19.024 10.7471 18.894 10.617C18.7639 10.487 18.5876 10.4139 18.4037 10.4139C18.0208 10.414 17.7104 10.7246 17.7105 11.1077C17.7105 11.4908 18.021 11.8013 18.4039 11.8012ZM20.9888 16.7096C20.9888 17.0927 20.6784 17.4032 20.2955 17.4032C19.9126 17.4033 19.6022 17.0927 19.6022 16.7096C19.6022 16.3266 19.9125 16.016 20.2954 16.0159C20.4793 16.0159 20.6557 16.089 20.7857 16.2191C20.9158 16.3492 20.9888 16.5256 20.9888 16.7096ZM15.1534 19.0423C15.4125 18.9349 15.5814 18.6819 15.5814 18.4013C15.5814 18.2173 15.5084 18.0409 15.3783 17.9108C15.2483 17.7807 15.0719 17.7076 14.888 17.7076C14.6076 17.7076 14.3547 17.8767 14.2474 18.1359C14.1401 18.3952 14.1994 18.6936 14.3978 18.892C14.5961 19.0904 14.8943 19.1497 15.1534 19.0423ZM17.5762 20.2984C17.5763 20.579 17.4074 20.832 17.1483 20.9394C16.8892 21.0468 16.5909 20.9875 16.3926 20.7891C16.1943 20.5907 16.1349 20.2923 16.2422 20.0331C16.3495 19.7738 16.6024 19.6048 16.8828 19.6048C17.0667 19.6048 17.2431 19.6778 17.3731 19.8079C17.5031 19.938 17.5762 20.1144 17.5762 20.2984ZM9.55517 20.9393C9.81428 20.8319 9.98321 20.579 9.98317 20.2984C9.98317 19.9153 9.67277 19.6047 9.28987 19.6047C9.0094 19.6047 8.75654 19.7737 8.6492 20.0329C8.54185 20.2922 8.60117 20.5906 8.79949 20.789C8.99781 20.9874 9.29606 21.0467 9.55517 20.9393ZM8.29214 14.8655C8.29218 15.1462 8.12325 15.3991 7.86414 15.5065C7.60503 15.6139 7.30678 15.5546 7.10846 15.3562C6.91014 15.1578 6.85082 14.8593 6.95817 14.6001C7.06551 14.3409 7.31837 14.1719 7.59884 14.1719C7.98174 14.1719 8.29214 14.4825 8.29214 14.8655ZM5.9667 17.5225C6.2258 17.4151 6.39471 17.1621 6.39468 16.8815C6.39468 16.6975 6.32163 16.5211 6.19159 16.391C6.06155 16.2609 5.88519 16.1878 5.7013 16.1878C5.42084 16.1878 5.168 16.3569 5.06068 16.6161C4.95336 16.8754 5.0127 17.1738 5.21103 17.3722C5.40935 17.5706 5.7076 17.6299 5.9667 17.5225Z" fill="#03E8B0"/>
</svg>
