<svg width="26" height="26" viewBox="0 0 26 26" fill="none" xmlns="http://www.w3.org/2000/svg">
<path opacity="0.2" d="M13 26C20.1797 26 26 20.1797 26 13C26 5.8203 20.1797 0 13 0C5.8203 0 0 5.8203 0 13C0 20.1797 5.8203 26 13 26Z" fill="#F89D4C"/>
<path fill-rule="evenodd" clip-rule="evenodd" d="M8.61492 8.37815L7.4339 9.93323H16.5579V11.5533C16.515 11.8764 16.2688 12.1367 15.9452 12.2012H11.6562L11.9625 10.7325H9.94946L8.54933 17.5578H10.5184L11.3061 13.7129H12.4002L12.3067 14.0641C12.2768 14.1764 12.3013 14.296 12.3731 14.388C12.4448 14.4799 12.5557 14.5339 12.6733 14.534H12.7779C12.9435 14.534 13.09 14.428 13.1397 14.272L13.3186 13.7131H14.2376L14.1476 14.0505C14.1169 14.166 14.142 14.289 14.2158 14.3836C14.2896 14.4782 14.4036 14.5337 14.5245 14.534H14.5632C14.7336 14.5341 14.8844 14.425 14.9356 14.2646L15.1115 13.7131H16.4026C16.6409 13.7139 16.8783 13.6831 17.1084 13.6216C17.5989 13.4891 18.3279 13.1771 18.5251 12.4746C18.5551 12.3632 18.5696 12.2483 18.5684 12.133V10.1622C18.5711 9.63397 18.3015 9.14065 17.8527 8.85294C17.5647 8.67086 17.1619 8.52575 16.5993 8.48606H16.1634L16.2639 8.08693C16.2922 7.9752 16.2668 7.8568 16.195 7.76603C16.1231 7.67525 16.0129 7.62224 15.8962 7.62232H15.7402C15.5749 7.62221 15.4287 7.72794 15.3789 7.88353L15.2 8.4429H14.3255L14.426 8.04377C14.4543 7.93205 14.4289 7.81369 14.3572 7.72289C14.2854 7.63209 14.1753 7.57898 14.0586 7.57891H13.9606C13.7886 7.57894 13.6381 7.69345 13.5943 7.85773L13.4498 8.39974L8.61492 8.37815Z" fill="#FBB466"/>
</svg>
