<svg width="26" height="26" viewBox="0 0 26 26" fill="none" xmlns="http://www.w3.org/2000/svg">
<path fill-rule="evenodd" clip-rule="evenodd" d="M11.626 2.13703C12.0291 2.04212 12.4433 2.0172 12.8563 2.035C13.2564 2.02669 13.6236 2.2011 13.9956 2.32449C14.3053 2.4378 14.577 2.63356 14.8861 2.74864C14.9014 2.77059 14.9313 2.81568 14.946 2.83822C15.2628 3.00788 15.5438 3.23746 15.8524 3.42195C16.0759 3.50381 16.2789 3.63017 16.496 3.72864C17.671 4.23644 18.9424 4.43991 20.192 4.6683C20.8696 4.79703 21.5912 4.82195 22.2013 5.18263C22.7481 5.4472 23.0918 5.99415 23.3095 6.54585C23.553 7.4511 23.4738 8.40559 23.3066 9.31619C23.2344 9.53093 23.157 9.74627 23.1353 9.97407C23.1036 9.97941 23.0731 9.98475 23.0426 9.99008C23.0203 10.1046 23.0977 10.2938 22.9346 10.3175C21.7384 8.35932 19.9725 6.7861 17.9708 5.70822C17.9022 5.64119 17.816 5.59729 17.7192 5.59907C17.2657 5.43 16.8122 5.24669 16.3311 5.17729C16.2132 5.15119 16.097 5.11619 15.982 5.08178C15.156 4.59297 14.2279 4.32483 13.3104 4.0739C11.9915 3.75593 10.6398 3.57322 9.28465 3.54237C8.97254 3.53169 8.65985 3.56017 8.34833 3.52814C8.36006 3.52102 8.38411 3.50619 8.39585 3.49907C8.69094 3.50025 8.98721 3.48127 9.28113 3.52339C9.94113 2.88508 10.7437 2.38797 11.626 2.13703Z" fill="#ECE638"/>
<path fill-rule="evenodd" clip-rule="evenodd" d="M6.81302 3.79805C7.30758 3.63017 7.83088 3.57263 8.34832 3.52814C8.65984 3.56017 8.97254 3.5317 9.28464 3.54237C8.6487 4.10831 8.10955 4.77331 7.55926 5.4217C7.12102 5.97932 6.74262 6.58144 6.35835 7.17763C6.10198 7.55136 5.92246 7.96958 5.71067 8.36881C5.22843 9.35831 4.85472 10.4036 4.61947 11.4814C4.57254 11.7822 4.51094 12.0806 4.45638 12.3802C4.32907 13.4183 4.30619 14.4825 4.53206 15.5094C4.65115 16.213 4.92747 16.8797 5.26422 17.5038C5.38566 17.7352 5.53819 17.947 5.70187 18.1486C6.03568 18.9258 6.46688 19.6584 6.99371 20.3169C6.19056 20.2546 5.41851 19.9894 4.67168 19.6975C4.20294 19.4781 3.72715 19.2437 3.34758 18.8819C2.46875 18.2133 2.0176 17.0933 2.02347 15.9982C2.01643 15.4394 2.08507 14.8794 2.22998 14.3396C2.48576 13.1603 3.1176 12.1108 3.4256 10.9475C3.76646 9.82695 3.94304 8.66543 4.18123 7.51992C4.32379 6.76593 4.52854 6.01432 4.89168 5.33568C5.29883 4.59178 6.0087 4.03534 6.81302 3.79805Z" fill="#BAD047"/>
<path fill-rule="evenodd" clip-rule="evenodd" d="M9.28464 3.54236C10.6398 3.57321 11.9915 3.75592 13.3103 4.07388C14.2279 4.32482 15.156 4.59295 15.982 5.08177C13.1297 4.63685 10.0983 5.52846 7.95114 7.48312C6.8529 8.46846 6.00576 9.73558 5.51472 11.1356C4.7145 13.3904 4.80544 15.9371 5.70186 18.1486C5.53818 17.9469 5.38565 17.7352 5.26421 17.5038C4.92746 16.8797 4.65114 16.213 4.53205 15.5094C4.30618 14.4825 4.32906 13.4183 4.45637 12.3802C4.51093 12.0806 4.57253 11.7822 4.61946 11.4814C4.85472 10.4035 5.22842 9.35829 5.71066 8.3688C5.92245 7.96956 6.10197 7.55134 6.35834 7.17761C6.74261 6.58143 7.12101 5.97931 7.55925 5.42168C8.10954 4.77329 8.64869 4.10829 9.28464 3.54236Z" fill="#79B553"/>
<path fill-rule="evenodd" clip-rule="evenodd" d="M17.7191 5.59905C17.8159 5.59727 17.9022 5.64117 17.9708 5.7082C17.8693 5.76397 17.7502 5.7088 17.7191 5.59905Z" fill="#79B553"/>
<path fill-rule="evenodd" clip-rule="evenodd" d="M15.982 5.08177C13.1297 4.63685 10.0983 5.52846 7.95115 7.48312C6.85291 8.46846 6.00576 9.73558 5.51472 11.1356C4.71451 13.3904 4.80544 15.9371 5.70187 18.1486C6.03568 18.9257 6.46688 19.6584 6.99371 20.3169C7.02598 20.3519 7.06118 20.3898 7.10459 20.4106C7.39313 20.3873 7.6783 20.4243 7.96354 20.4613C8.10748 20.48 8.25143 20.4987 8.39584 20.5096C8.56849 20.5296 8.74216 20.5326 8.91584 20.5356C9.11339 20.539 9.31094 20.5423 9.50699 20.5707C10.7666 20.6467 12.0379 20.5405 13.2634 20.2302C14.117 19.9912 14.9471 19.6536 15.7157 19.2063C16.0548 18.9358 16.4156 18.6902 16.794 18.4808C16.9291 18.3363 17.0756 18.2038 17.2221 18.0713C17.4032 17.9075 17.5842 17.7438 17.7438 17.5572C19.3372 15.8612 20.1597 13.4598 19.9561 11.1314C19.874 9.92304 19.5583 8.70871 18.9048 7.68304C18.3645 6.79083 17.5883 6.06592 16.7247 5.4988C16.7173 5.4944 16.7098 5.49001 16.7024 5.48561C16.5626 5.40335 16.4196 5.31917 16.3311 5.17727C16.2161 5.15183 16.1028 5.11792 15.9907 5.08435L15.982 5.08177ZM7.51819 9.83643C8.45568 8.05261 10.2743 6.74931 12.2667 6.51617C13.3807 6.38388 14.5394 6.61643 15.5004 7.20609C16.1093 7.58041 16.6315 8.09592 17.0222 8.69744C17.4029 9.30075 17.6617 9.97465 17.85 10.6622C18.1779 11.8552 18.2266 13.1407 17.8963 14.339C17.586 15.4524 16.909 16.4609 15.9814 17.1431C14.9084 17.9541 13.5468 18.3646 12.2098 18.2774C10.8727 18.1967 9.56214 17.6325 8.59766 16.6893C7.68304 15.8274 7.06939 14.6457 6.88459 13.3957C6.70742 12.1796 6.94736 10.9179 7.51819 9.83643Z" fill="#075229"/>
<path fill-rule="evenodd" clip-rule="evenodd" d="M16.3311 5.17728C16.8122 5.24668 17.2657 5.42999 17.7192 5.59906C17.7502 5.7088 17.8693 5.76397 17.9708 5.70821C19.9725 6.78609 21.7384 8.35931 22.9346 10.3175C22.951 10.3442 22.9833 10.3976 22.9997 10.4249C22.805 10.7743 22.6595 11.148 22.5087 11.5176C22.2576 11.9803 22.0534 12.4674 21.7877 12.9218C21.5026 13.3673 21.2239 13.8169 20.9306 14.2565C20.7487 14.5187 20.5346 14.7554 20.3457 15.0117C19.7801 15.8363 19.0726 16.5475 18.3627 17.244C17.8582 17.6776 17.3883 18.173 16.794 18.4808C17.0961 18.1575 17.4552 17.8947 17.7438 17.5572C19.3372 15.8612 20.1597 13.4598 19.9561 11.1314C19.874 9.92304 19.5584 8.70872 18.9048 7.68304C18.3645 6.79084 17.5883 6.06592 16.7248 5.4988C16.5781 5.41219 16.4244 5.32677 16.3311 5.17728Z" fill="#2E8260"/>
<path fill-rule="evenodd" clip-rule="evenodd" d="M15.7157 19.2063C16.0548 18.9358 16.4156 18.6902 16.794 18.4808C16.6714 18.6914 16.4156 18.7502 16.2484 18.9151C16.0999 19.0604 15.9028 19.1292 15.7157 19.2063Z" fill="#2E8260"/>
<path fill-rule="evenodd" clip-rule="evenodd" d="M22.5087 11.5176C22.6595 11.1481 22.805 10.7743 22.9997 10.4249C23.5723 11.4298 24.0047 12.5694 23.9513 13.747C23.9149 14.5846 23.5829 15.4104 23.0044 16.0148C22.487 16.5873 21.8129 16.9913 21.1124 17.2926C20.0517 17.7595 19.0538 18.3664 18.1398 19.0818C17.2703 19.7598 16.4707 20.5221 15.6558 21.2637C14.8181 22.0099 13.8777 22.752 12.7378 22.911C11.9686 23.0528 11.1895 22.8742 10.4562 22.6429C9.42192 22.2798 8.42341 21.7584 7.62965 20.9842C7.45072 20.7968 7.24362 20.6325 7.10458 20.4106C7.53872 20.3756 7.96522 20.477 8.39584 20.5097C8.76485 20.5524 9.13856 20.5174 9.50698 20.5708C10.7666 20.6467 12.0379 20.5405 13.2634 20.2303C14.117 19.9912 14.9471 19.6537 15.7157 19.2064C15.9028 19.1292 16.0999 19.0604 16.2484 18.9151C16.4156 18.7502 16.6714 18.6915 16.794 18.4809C17.3883 18.173 17.8582 17.6776 18.3627 17.244C19.0726 16.5476 19.7801 15.8363 20.3457 15.0117C20.5346 14.7554 20.7487 14.5187 20.9306 14.2565C21.2239 13.817 21.5026 13.3673 21.7877 12.9218C22.0534 12.4674 22.2576 11.9804 22.5087 11.5176Z" fill="#0193D6"/>
</svg>
