<svg width="26" height="26" viewBox="0 0 26 26" fill="none" xmlns="http://www.w3.org/2000/svg">
<path opacity="0.2" d="M13 26C20.1797 26 26 20.1797 26 13C26 5.8203 20.1797 0 13 0C5.8203 0 0 5.8203 0 13C0 20.1797 5.8203 26 13 26Z" fill="#35B14F"/>
<path fill-rule="evenodd" clip-rule="evenodd" d="M9 8V13.8287C9 13.8287 8.96877 19.2858 14.8193 18.9883C14.8193 18.9883 18.2516 14.2004 10.9814 9.70994C10.9814 9.70994 18.0176 11.7258 16.754 19C16.754 19 20.8727 16.3565 17.9553 11.5835C17.9553 11.5835 15.9582 8.16359 9 8Z" fill="#35B14F"/>
</svg>
