<svg width="26" height="26" viewBox="0 0 26 26" fill="none" xmlns="http://www.w3.org/2000/svg">
<path opacity="0.2" d="M13 26C20.1797 26 26 20.1797 26 13C26 5.8203 20.1797 0 13 0C5.8203 0 0 5.8203 0 13C0 20.1797 5.8203 26 13 26Z" fill="#5BB7E7"/>
<path fill-rule="evenodd" clip-rule="evenodd" d="M12.9849 4.01265C13.0511 3.99587 13.1188 4.01678 13.1732 4.05552C14.048 4.56737 14.9235 5.07741 15.7987 5.58823C15.8703 5.63162 15.9553 5.66674 15.9959 5.74551C16.0614 5.85914 16.0179 6.02054 15.9037 6.08381C14.9817 6.62304 14.0587 7.16071 13.1364 7.69942C13.0565 7.74797 12.9517 7.741 12.8746 7.69064C11.9628 7.15607 11.0482 6.62665 10.1372 6.0913C9.98208 6.00092 9.98923 5.74551 10.1471 5.66235C11.0162 5.15412 11.8864 4.64795 12.7555 4.13945C12.8322 4.09813 12.9037 4.04545 12.9849 4.01265Z" fill="#4875BA"/>
<path fill-rule="evenodd" clip-rule="evenodd" d="M9.32678 6.09853C9.39755 6.07142 9.47675 6.08975 9.54011 6.12797C10.458 6.6641 11.377 7.19868 12.2941 7.73609C12.4535 7.82157 12.4535 8.08034 12.2946 8.16634C11.3826 8.70066 10.469 9.23213 9.5562 9.7649C9.47649 9.81629 9.3697 9.81526 9.29025 9.76361C8.37182 9.228 7.45339 8.69265 6.53573 8.15575C6.37222 8.07053 6.37222 7.80479 6.53624 7.72008C7.38901 7.22114 8.24306 6.72375 9.0966 6.22559C9.1735 6.18375 9.24529 6.13159 9.32678 6.09853Z" fill="#4875BA"/>
<path fill-rule="evenodd" clip-rule="evenodd" d="M16.4854 6.10861C16.5598 6.07039 16.65 6.0833 16.7197 6.12617C17.6282 6.65532 18.5361 7.18577 19.4443 7.71569C19.5583 7.77432 19.6101 7.92746 19.5529 8.04367C19.5225 8.1214 19.4456 8.16066 19.3782 8.19965C18.4807 8.72184 17.585 9.24686 16.6875 9.76852C16.6006 9.82327 16.4877 9.80881 16.4062 9.75122C15.4998 9.22103 14.5913 8.69369 13.6857 8.16221C13.5291 8.0713 13.5383 7.81176 13.7 7.73145C14.6286 7.19067 15.5545 6.64473 16.4854 6.10861Z" fill="#4875BA"/>
<path fill-rule="evenodd" clip-rule="evenodd" d="M12.9068 12.3231C12.9788 12.2883 13.0664 12.2976 13.1341 12.3386C14.0145 12.8515 14.8943 13.3654 15.7742 13.8791C15.8503 13.924 15.942 13.9646 15.9745 14.0547C16.0292 14.1709 15.973 14.3194 15.8613 14.377C14.948 14.9113 14.0337 15.4438 13.1201 15.9771C13.0391 16.0303 12.9308 16.0326 12.849 15.9799C11.9367 15.4467 11.0229 14.9162 10.1116 14.3811C9.95219 14.2936 9.95449 14.0325 10.1167 13.9491C11.0461 13.4065 11.9745 12.8608 12.9068 12.3231Z" fill="#4875BA"/>
<path fill-rule="evenodd" clip-rule="evenodd" d="M6.16734 8.40883C6.24091 8.38043 6.32752 8.38843 6.39394 8.43156C7.31186 8.96743 8.23029 9.50226 9.1477 10.0392C9.2292 10.0841 9.27416 10.1791 9.27288 10.2713C9.27237 11.3333 9.27442 12.3957 9.27186 13.4576C9.27774 13.6423 9.05394 13.7724 8.89938 13.6748C7.99142 13.1459 7.08423 12.6157 6.17653 12.0863C6.12339 12.0564 6.06975 12.0205 6.04011 11.9649C5.99642 11.8913 6.01099 11.8025 6.00869 11.7211C6.0092 10.6967 6.00869 9.67219 6.00894 8.64772C6.00434 8.54416 6.0723 8.44551 6.16734 8.40883Z" fill="#5BB7E7"/>
<path fill-rule="evenodd" clip-rule="evenodd" d="M13.3388 8.39825C13.4014 8.38585 13.4691 8.39231 13.524 8.42717C14.4424 8.96227 15.3603 9.49839 16.2785 10.0345C16.3552 10.0769 16.4093 10.1605 16.4088 10.2502C16.4096 11.318 16.4091 12.3856 16.4091 13.4535C16.4139 13.5852 16.2989 13.7076 16.1679 13.7063C16.0844 13.7141 16.0149 13.6609 15.9461 13.6219C15.0563 13.102 14.1655 12.5837 13.2762 12.0633C13.1919 12.0179 13.1415 11.9208 13.1464 11.8252C13.1472 10.7659 13.1464 9.70654 13.1469 8.6472C13.1428 8.53177 13.2284 8.42356 13.3388 8.39825Z" fill="#5BB7E7"/>
<path fill-rule="evenodd" clip-rule="evenodd" d="M6.21485 12.5336C6.27488 12.5225 6.33799 12.5349 6.3901 12.5677C7.30777 13.1033 8.22569 13.6389 9.14335 14.1748C9.22536 14.2192 9.27415 14.3119 9.27288 14.4054C9.27288 15.4655 9.27364 16.5259 9.27237 17.586C9.28386 17.7678 9.06799 17.9129 8.90959 17.8189C7.99065 17.2846 7.0735 16.7475 6.15481 16.2124C6.06923 16.1703 6.00715 16.0799 6.00919 15.982C6.00868 14.9147 6.00894 13.8473 6.00919 12.78C6.00587 12.6609 6.09988 12.5527 6.21485 12.5336Z" fill="#5BB7E7"/>
<path fill-rule="evenodd" clip-rule="evenodd" d="M9.73886 14.6295C9.80861 14.6001 9.88806 14.6094 9.9527 14.6474C10.8706 15.183 11.7888 15.7181 12.7062 16.2545C12.7936 16.3007 12.8472 16.4001 12.8396 16.499C12.838 17.5656 12.8411 18.6324 12.838 19.6987C12.8334 19.8733 12.6186 19.989 12.4717 19.8978C11.553 19.3643 10.6363 18.8269 9.71817 18.292C9.63054 18.2476 9.57153 18.1523 9.57868 18.0524C9.57919 16.991 9.57868 15.9298 9.57894 14.8687C9.57357 14.7644 9.64306 14.6649 9.73886 14.6295Z" fill="#5BB7E7"/>
<path fill-rule="evenodd" clip-rule="evenodd" d="M6.14077 16.6981C6.21537 16.6545 6.31219 16.6578 6.38526 16.7036C7.29807 17.2355 8.21011 17.7696 9.12369 18.3008C9.22153 18.3476 9.28004 18.4537 9.27314 18.5624C9.27288 19.6145 9.27339 20.6672 9.27288 21.7195C9.28591 21.8936 9.08077 22.0573 8.92237 21.9659C7.99372 21.4233 7.06405 20.8818 6.1354 20.3389C6.05672 20.2953 6.00562 20.2062 6.00894 20.1155C6.0092 19.0487 6.00843 17.9821 6.0092 16.9153C6.00792 16.8252 6.06285 16.7402 6.14077 16.6981Z" fill="#5BB7E7"/>
<path fill-rule="evenodd" clip-rule="evenodd" d="M12.5228 8.40057C12.675 8.35279 12.8495 8.48321 12.8391 8.64617C12.8396 9.70628 12.8388 10.7667 12.8396 11.8268C12.8462 11.9257 12.7897 12.0223 12.7034 12.0677C11.8131 12.5883 10.9215 13.1074 10.0309 13.6278C9.9688 13.6632 9.90646 13.7102 9.83135 13.7066C9.69595 13.7143 9.57153 13.5896 9.57894 13.4524C9.57894 12.3843 9.57818 11.3165 9.57945 10.2483C9.57818 10.1567 9.63515 10.0717 9.71486 10.0304C10.6228 9.50097 11.5303 8.97079 12.4382 8.44137C12.4653 8.42588 12.4926 8.40987 12.5228 8.40057Z" fill="#3C4C9F"/>
<path fill-rule="evenodd" clip-rule="evenodd" d="M19.6035 8.42588C19.6853 8.37655 19.7967 8.3812 19.873 8.43879C19.9277 8.47572 19.9538 8.53899 19.9885 8.5927C19.9944 9.31735 19.9893 10.0423 19.9911 10.7669C19.9875 11.1463 19.9982 11.5264 19.9857 11.9055C19.9415 11.9582 19.9188 12.0303 19.8523 12.0613C18.962 12.5827 18.0702 13.1012 17.1793 13.6216C17.1111 13.6601 17.0429 13.7133 16.9604 13.7063C16.8288 13.7089 16.7108 13.588 16.7161 13.4548C16.7156 12.3877 16.7156 11.3203 16.7161 10.253C16.7144 10.1618 16.7706 10.0769 16.8482 10.0337C17.7664 9.49735 18.6848 8.96097 19.6035 8.42588Z" fill="#3C4C9F"/>
<path fill-rule="evenodd" clip-rule="evenodd" d="M19.5892 12.5723C19.6778 12.5116 19.8038 12.516 19.8861 12.5868C19.9338 12.6206 19.9507 12.6803 19.9875 12.7242C19.9959 13.5346 19.9885 14.3455 19.9911 15.1561C19.9885 15.4503 19.9962 15.7447 19.9872 16.0388C19.9446 16.0928 19.9218 16.1648 19.8564 16.1971C18.9661 16.719 18.0735 17.2371 17.1829 17.7585C17.1068 17.8027 17.0263 17.8621 16.9333 17.8455C16.8104 17.829 16.7077 17.7138 16.7161 17.5865C16.7159 16.5264 16.7161 15.4663 16.7159 14.4062C16.7108 14.316 16.7578 14.2259 16.8349 14.1805C17.7523 13.6433 18.6713 13.1085 19.5892 12.5723Z" fill="#3C4C9F"/>
<path fill-rule="evenodd" clip-rule="evenodd" d="M16.0741 14.6288C16.2208 14.5655 16.4037 14.6856 16.408 14.846C16.4108 15.9133 16.408 16.9809 16.4096 18.0483C16.4157 18.1456 16.3626 18.2412 16.2775 18.2869C15.358 18.823 14.4396 19.3607 13.5196 19.8953C13.3651 19.996 13.139 19.8627 13.1469 19.6778C13.1461 18.6182 13.1474 17.5584 13.1464 16.4988C13.1395 16.3955 13.1983 16.2945 13.2897 16.249C14.2012 15.7163 15.1138 15.1848 16.0253 14.6523C16.0376 14.6463 16.0619 14.6347 16.0741 14.6288Z" fill="#3C4C9F"/>
<path fill-rule="evenodd" clip-rule="evenodd" d="M9.57588 18.5668C10.607 19.1662 11.637 19.7677 12.6666 20.3699C11.75 20.8973 10.8395 21.4355 9.92486 21.9664C9.7772 22.0519 9.57588 21.9081 9.57946 21.7433C9.57614 20.6845 9.58329 19.6254 9.57588 18.5668Z" fill="#3C4C9F"/>
</svg>
