<svg width="26" height="26" viewBox="0 0 26 26" fill="none" xmlns="http://www.w3.org/2000/svg">
<path opacity="0.2" d="M13 26C20.1797 26 26 20.1797 26 13C26 5.8203 20.1797 0 13 0C5.8203 0 0 5.8203 0 13C0 20.1797 5.8203 26 13 26Z" fill="#00D188"/>
<path fill-rule="evenodd" clip-rule="evenodd" d="M19.9484 7H9.5104C9.10767 7.03861 8.67763 7.14602 8.39607 7.4577C8.06899 7.80098 7.98634 8.30081 8.00175 8.75851C8.00432 11.0601 8.00401 13.3619 8.0037 15.6639C8.0035 17.1288 8.00331 18.5937 8.00385 20.0586C8.00369 20.0943 8.00349 20.1299 8.00328 20.1656C8.00169 20.4437 8.0001 20.7219 8.01996 21C8.64982 20.8582 9.27752 20.7058 9.90531 20.5534C10.3498 20.4455 10.7943 20.3376 11.2397 20.2334C11.2382 20.0734 11.2389 19.9133 11.2397 19.7533C11.2411 19.4716 11.2424 19.1899 11.2313 18.9087C11.5382 18.8048 11.8547 18.7305 12.1711 18.6563C12.374 18.6087 12.5768 18.5612 12.777 18.5058C13.3801 18.3584 13.9832 18.2111 14.5862 18.0639C15.9933 17.7204 17.4004 17.3768 18.8074 17.0309C19.1983 16.9221 19.5744 16.6925 19.7852 16.3352C19.9361 16.1067 19.9427 15.8265 19.9489 15.5602C19.9494 15.5386 19.9499 15.517 19.9505 15.4956C19.9594 14.1689 19.9626 12.8422 19.9659 11.5157C19.9675 10.8524 19.9692 10.189 19.9715 9.5258C19.9729 9.29153 19.9792 9.05672 19.9856 8.82175C20.0021 8.21323 20.0186 7.60369 19.9484 7ZM11.2388 14.5193C11.2396 13.0965 11.2404 11.6735 11.2376 10.251C13.0852 10.2432 14.9329 10.2461 16.7805 10.2496C16.7896 11.5883 16.7868 12.9277 16.7812 14.2671C16.7217 14.2836 16.6616 14.2983 16.6017 14.3129C16.4987 14.338 16.3959 14.3631 16.2958 14.3977C15.5415 14.5632 14.7917 14.7484 14.042 14.9336C13.1099 15.1638 12.1781 15.394 11.2383 15.5862C11.2384 15.2306 11.2386 14.8749 11.2388 14.5193Z" fill="#00D188"/>
</svg>
