<svg width="26" height="26" viewBox="0 0 26 26" fill="none" xmlns="http://www.w3.org/2000/svg">
<path opacity="0.2" d="M13 26C20.1797 26 26 20.1797 26 13C26 5.8203 20.1797 0 13 0C5.8203 0 0 5.8203 0 13C0 20.1797 5.8203 26 13 26Z" fill="#45525B"/>
<path fill-rule="evenodd" clip-rule="evenodd" d="M26 13C26 20.1807 20.1807 26 13 26C5.81931 26 0 20.1807 0 13C0 5.81931 5.81931 0 13 0C20.1807 0 26 5.81931 26 13Z" fill="#393534"/>
<path fill-rule="evenodd" clip-rule="evenodd" d="M24.488 13.1116C24.488 19.394 19.394 24.488 13.1116 24.488C6.82919 24.488 1.7352 19.394 1.7352 13.1116C1.7352 6.82919 6.82919 1.7352 13.1116 1.7352C19.394 1.7352 24.488 6.82919 24.488 13.1116Z" fill="#F2F2F2"/>
<path fill-rule="evenodd" clip-rule="evenodd" d="M17.4155 9.83558L9.2473 18.1879L9.06876 14.8236L13.9954 9.83558L16.0374 7.71541L17.3597 7.28021L18.3194 7.53129L19.2177 8.27892L18.1353 9.52313L17.4155 9.83558Z" fill="white"/>
<path fill-rule="evenodd" clip-rule="evenodd" d="M18.1571 10.0692L16.5223 11.7542H18.9996L19.2786 11.4697C19.4738 11.2688 19.6301 11.0233 19.7361 10.7611C19.8421 10.4933 19.8923 10.2087 19.8923 9.92418C19.8923 9.35508 19.6803 8.81388 19.3009 8.401L18.1738 9.57267C18.2352 9.63963 18.2631 9.73448 18.2631 9.82375C18.2575 9.91302 18.2185 10.0023 18.1571 10.0692Z" fill="#E1DED9"/>
<path fill-rule="evenodd" clip-rule="evenodd" d="M11.4399 17.1603L10.1064 18.544H12.5837L13.9283 17.1603H11.4399Z" fill="#E1DED9"/>
<path fill-rule="evenodd" clip-rule="evenodd" d="M12.1098 16.4586H14.587L16.0656 14.9243H13.5883L12.1098 16.4586Z" fill="#E1DED9"/>
<path fill-rule="evenodd" clip-rule="evenodd" d="M18.3244 12.5809H15.8471L14.2626 14.2157H16.7398L18.3244 12.5809Z" fill="#E1DED9"/>
<path fill-rule="evenodd" clip-rule="evenodd" d="M18.2446 7.16953C18.5794 7.3146 18.8863 7.52661 19.1429 7.79442C19.3996 8.06224 19.606 8.37468 19.7343 8.73734C19.8738 9.08327 19.9464 9.45709 19.9408 9.83648C19.9464 10.5953 19.6562 11.3262 19.1373 11.8674L19.1262 11.8785L12.7489 18.4846C12.721 18.518 12.682 18.5515 12.6429 18.5682C12.5983 18.5906 12.5536 18.5961 12.509 18.5961H9.22832L7.91717 19.9519H6.94635L8.71502 18.1052V14.6906C8.70944 14.5957 8.7485 14.5009 8.80987 14.4283L15.2262 7.8C15.4828 7.53219 15.7897 7.3146 16.1245 7.16953C16.4592 7.02447 16.8219 6.95193 17.1845 6.95193C17.5472 6.95193 17.9099 7.02447 18.2446 7.16953ZM15.6948 8.27983L15.4159 8.56438V11.17L17.0618 9.46266C17.1232 9.40129 17.2124 9.36224 17.3017 9.36224C17.391 9.36224 17.4803 9.39571 17.5416 9.46266C17.5416 9.46741 17.5416 9.47013 17.5425 9.47256C17.5436 9.47584 17.5464 9.47857 17.5528 9.48498C17.6142 9.55193 17.6421 9.64121 17.6421 9.73048C17.6421 9.81975 17.603 9.90902 17.5416 9.97039L15.918 11.6554H18.3953L18.6742 11.3708C19.0648 10.9635 19.2824 10.4167 19.288 9.84206C19.288 9.26739 19.076 8.71502 18.6966 8.30215C18.6897 8.30215 18.687 8.29789 18.6834 8.292C18.6811 8.28836 18.6785 8.28409 18.6742 8.27983C18.2781 7.87254 17.7425 7.64378 17.1845 7.64378C16.6266 7.64378 16.091 7.87254 15.6948 8.27983ZM9.90343 17.8876L11.2369 16.5039H13.7142L12.3807 17.8876H9.90343ZM15.3768 12.2077L13.7923 13.8537H16.2695L17.8541 12.2077H15.3768ZM15.7283 14.4116L14.2498 15.9459H11.7725L13.2511 14.4116H15.7283ZM14.8747 9.11674L13.2901 10.7627V13.3682L14.8747 11.7223V9.11674ZM11.2704 12.8549L12.7489 11.3206V13.9262L11.2704 15.4605V12.8549ZM10.7403 13.4185L9.38455 14.8133V17.4189L10.7403 16.024V13.4185Z" fill="#393534"/>
</svg>
