<svg width="26" height="26" viewBox="0 0 26 26" fill="none" xmlns="http://www.w3.org/2000/svg">
<path opacity="0.2" d="M13 26C20.1797 26 26 20.1797 26 13C26 5.8203 20.1797 0 13 0C5.8203 0 0 5.8203 0 13C0 20.1797 5.8203 26 13 26Z" fill="#5332A0"/>
<path fill-rule="evenodd" clip-rule="evenodd" d="M7.39486 13.9935H7.11384V14.7328C7.11111 14.8724 6.98507 14.9837 6.8321 14.9815H4.58103C4.50747 14.9824 4.43652 14.9567 4.3838 14.9098C4.33109 14.863 4.30094 14.799 4.3 14.7318V10.2597H4.30178C4.30178 10.2571 4.30178 10.2549 4.30178 10.2523C4.30354 10.113 4.4284 10.0012 4.58103 10.0023H7.39486C8.63743 10.0023 9.64486 10.8955 9.64486 11.9974C9.64486 13.0994 8.63637 13.9935 7.39486 13.9935Z" fill="#5332A0"/>
<path fill-rule="evenodd" clip-rule="evenodd" d="M13.019 10.0023C14.5721 10.0023 15.8292 11.1166 15.8292 12.4916C15.8292 13.8666 14.5703 14.9805 13.019 14.9805C11.4676 14.9805 10.2051 13.8662 10.2051 12.4916C10.2051 11.1169 11.4655 10.0023 13.019 10.0023Z" fill="#5332A0"/>
<path fill-rule="evenodd" clip-rule="evenodd" d="M22.3 14.8231C22.2993 14.8645 22.2805 14.9039 22.2479 14.9327C22.2153 14.9615 22.1714 14.9773 22.1261 14.9766H15.7471C15.7397 14.9785 15.7322 14.9798 15.7247 14.9805C15.6789 14.981 15.6348 14.9649 15.602 14.9358C15.5693 14.9066 15.5506 14.8668 15.55 14.825C15.551 14.7927 15.5635 14.7616 15.5856 14.7364L15.5824 14.7308L18.7498 10.1227H18.7566C18.774 10.0513 18.8434 10.0005 18.9236 10.0005C19.0037 10.0005 19.0732 10.0513 19.0906 10.1227H19.0977L22.2993 14.7617L22.2883 14.775C22.2951 14.7903 22.299 14.8066 22.3 14.8231Z" fill="#5332A0"/>
</svg>
