<svg width="26" height="26" viewBox="0 0 26 26" fill="none" xmlns="http://www.w3.org/2000/svg">
<path opacity="0.2" d="M13 26C20.1797 26 26 20.1797 26 13C26 5.8203 20.1797 0 13 0C5.8203 0 0 5.8203 0 13C0 20.1797 5.8203 26 13 26Z" fill="#FFD512"/>
<path d="M17.67 12.9768C17.67 15.5683 15.671 16.4489 13.9834 16.4489V17.1239H15.2851V18.0388H13.9854V19.0907H11.9531V18.0388H10.7088V17.1239H11.9542V16.4398C11.4151 16.4398 8.32796 16.3108 8.32796 12.7874V8.54559H10.3421V12.9526C10.3421 14.7904 11.9582 14.7743 11.9582 14.7743V8.54559H13.9854V14.7713C13.9854 14.7713 15.6519 14.866 15.6519 12.9244V8.54559H17.67V12.9768Z" fill="#FFD512"/>
</svg>
