<svg width="26" height="26" viewBox="0 0 26 26" fill="none" xmlns="http://www.w3.org/2000/svg">
<path opacity="0.2" d="M13 26C20.1797 26 26 20.1797 26 13C26 5.8203 20.1797 0 13 0C5.8203 0 0 5.8203 0 13C0 20.1797 5.8203 26 13 26Z" fill="#505050"/>
<path fill-rule="evenodd" clip-rule="evenodd" d="M8.18699 17.5968C8.13633 17.6861 8 17.6502 8 17.5474L8 8.2988C8 8.19612 8.13624 8.16013 8.18695 8.24941L13.3017 17.2546C13.3405 17.323 13.4395 17.3218 13.4767 17.2525L18.4119 8.05275C18.461 7.96112 18.6 7.99605 18.6 8.10002V17.5359C18.6 17.6394 18.462 17.6747 18.4123 17.5839L13.4773 8.57449C13.4397 8.50578 13.3413 8.50506 13.3026 8.57321L8.18699 17.5968Z" stroke="#F5F5F6" stroke-width="1.1"/>
</svg>
