<svg width="26" height="26" viewBox="0 0 26 26" fill="none" xmlns="http://www.w3.org/2000/svg">
<path opacity="0.2" d="M13 26C20.1797 26 26 20.1797 26 13C26 5.8203 20.1797 0 13 0C5.8203 0 0 5.8203 0 13C0 20.1797 5.8203 26 13 26Z" fill="#45525B"/>
<path fill-rule="evenodd" clip-rule="evenodd" d="M5.4378 6.58523C5.22812 6.5782 4.99874 6.57051 4.83925 6.7249C4.6371 6.88805 4.58705 7.163 4.59615 7.4087C4.59949 8.70828 4.60001 10.0079 4.60053 11.3074C4.60152 13.8011 4.60251 16.2946 4.62345 18.7876C4.59745 19.2244 5.07585 19.4863 5.4639 19.4213C5.82766 19.4307 6.03562 19.1232 6.21907 18.8519C6.24017 18.8207 6.26095 18.79 6.2816 18.7603C7.54379 17.1478 8.81182 15.5398 10.0799 13.9319L10.0802 13.9314C10.1796 14.04 10.2791 14.1498 10.3688 14.2675C10.7692 14.7875 11.1744 15.3035 11.5797 15.8195L11.5798 15.8196C11.8219 16.1279 12.064 16.4361 12.3051 16.7453C12.6132 17.2016 13.379 17.1971 13.6936 16.7492C13.9791 16.3795 14.2668 16.0112 14.5545 15.6428L14.5545 15.6428L14.5546 15.6427L14.5546 15.6426C14.9225 15.1717 15.2904 14.7006 15.6539 14.2265C15.728 14.1212 15.8223 14.0341 15.9211 13.9529C16.4634 14.6458 17.009 15.3364 17.5545 16.0269L17.5546 16.027L17.5546 16.027C18.2854 16.952 19.0161 17.877 19.7392 18.8077C19.7685 18.8471 19.7971 18.8881 19.8259 18.9294C19.9569 19.1172 20.0923 19.3114 20.3177 19.3875C20.6355 19.4655 21.0255 19.4402 21.2491 19.1704C21.388 19.0024 21.3836 18.785 21.3793 18.575C21.378 18.5137 21.3768 18.453 21.3792 18.3943C21.3889 17.8314 21.3974 17.2685 21.3934 16.705C21.3934 15.2362 21.3958 13.7675 21.3981 12.2989V12.2988V12.2988C21.4006 10.6465 21.4032 8.99423 21.4025 7.34175C21.4032 7.1188 21.3479 6.864 21.1497 6.7327C20.9157 6.539 20.59 6.5676 20.3092 6.60725C20.0984 6.68421 19.9626 6.86646 19.8317 7.0421L19.8317 7.04215L19.8317 7.04219C19.8056 7.07717 19.7797 7.11188 19.7535 7.14545C19.2696 7.76031 18.7879 8.37687 18.3063 8.9934L18.3061 8.99364C17.6762 9.79984 17.0464 10.606 16.4118 11.4081C16.3632 11.4681 16.3162 11.5297 16.2692 11.5913C16.1461 11.7529 16.0228 11.9146 15.8684 12.0477C15.6044 11.7145 15.3446 11.3779 15.0848 11.0412L15.0847 11.0412C14.774 10.6385 14.4632 10.2359 14.1453 9.83905C14.088 9.76687 14.0329 9.69258 13.9778 9.61825L13.9777 9.61824C13.8303 9.41946 13.6827 9.22043 13.492 9.061C13.2749 8.8816 12.9668 8.9115 12.7075 8.9518C12.4267 9.05752 12.2514 9.29997 12.0789 9.53856C12.0139 9.62857 11.9492 9.71803 11.8794 9.7994C11.6283 10.1068 11.3874 10.4227 11.1465 10.7385L11.1465 10.7385C10.8033 11.1885 10.4601 11.6385 10.0873 12.064C9.77932 11.6719 9.47089 11.2801 9.16247 10.8883L9.16246 10.8883L9.16245 10.8883C8.1074 9.54802 7.05243 8.20788 6.0138 6.8549C5.89095 6.71255 5.7265 6.5793 5.5276 6.58775C5.49826 6.58726 5.46824 6.58625 5.4378 6.58523ZM6.15095 16.7076C6.1529 14.2584 6.1542 11.8092 6.15225 9.36C6.15333 9.33914 6.15355 9.31766 6.15376 9.29596C6.15473 9.19999 6.15574 9.09965 6.23155 9.02915C6.41723 9.21309 6.57486 9.42071 6.73245 9.62828L6.73245 9.62828L6.73246 9.62829C6.80987 9.73026 6.88728 9.83222 6.968 9.93135C7.40579 10.484 7.84034 11.0395 8.27481 11.5949L8.27484 11.595C8.61962 12.0357 8.96435 12.4764 9.3106 12.9155C9.3845 13.0266 9.29904 13.1248 9.22064 13.2148C9.19354 13.2459 9.16728 13.2761 9.14875 13.3055C8.86219 13.6729 8.57518 14.0399 8.28819 14.4069L8.28784 14.4074L8.28779 14.4075C7.80416 15.0259 7.32058 15.6443 6.8393 16.2643C6.79991 16.3145 6.76079 16.3649 6.72167 16.4153C6.56262 16.6204 6.40346 16.8256 6.22505 17.0144C6.17435 16.9195 6.14315 16.8155 6.15095 16.7076ZM17.0007 12.516L17.0006 12.5161L16.6888 12.9142C16.6096 13.0124 16.6877 13.1102 16.754 13.1933C16.7666 13.2092 16.7789 13.2245 16.7895 13.2392C17.0087 13.4962 17.2133 13.7649 17.4179 14.0335C17.5688 14.2316 17.7196 14.4297 17.8763 14.623C18.1429 14.9513 18.4011 15.2865 18.6593 15.6216L18.6593 15.6216C19.0217 16.092 19.3841 16.5624 19.7697 17.0137C19.8263 16.9429 19.853 16.8623 19.8497 16.7719C19.8453 14.6817 19.846 12.5914 19.8467 10.5008V10.5006L19.8471 9.35935C19.8497 9.243 19.8432 9.1247 19.771 9.0272C19.5437 9.25673 19.3492 9.51387 19.1547 9.77103L19.1547 9.77107C19.0583 9.89841 18.962 10.0258 18.8617 10.1497C18.2384 10.9361 17.6195 11.7262 17.0007 12.516ZM12.4046 10.9682C12.5257 10.8087 12.647 10.6491 12.7985 10.5183C13.0208 10.3928 13.2613 10.5365 13.3881 10.7269C13.7052 11.1405 14.0292 11.5492 14.3532 11.9579C14.5949 12.2628 14.8366 12.5677 15.0754 12.8745C15.1918 12.9887 15.0874 13.1107 15.0017 13.2107C14.9854 13.2298 14.9698 13.248 14.9565 13.2652C14.4306 13.9321 13.9061 14.601 13.3848 15.2711C13.372 15.2857 13.3591 15.3011 13.3459 15.3167C13.2554 15.4244 13.1551 15.5437 13.0006 15.5233C12.8069 15.548 12.6795 15.3855 12.5749 15.2503C12.3071 14.8984 12.0334 14.551 11.7598 14.2036C11.4451 13.8041 11.1304 13.4045 10.8244 12.998C11.0788 12.6442 11.3513 12.3038 11.624 11.9632C11.8286 11.7076 12.0333 11.4518 12.2304 11.1904C12.2906 11.1184 12.3476 11.0433 12.4046 10.9682Z" fill="#FCFDFD"/>
<path opacity="0.2" fill-rule="evenodd" clip-rule="evenodd" d="M13.6097 0H12.3286C12.1516 0.0226885 11.9744 0.0423466 11.7971 0.0620059C11.5478 0.0896567 11.2985 0.11731 11.05 0.1534C9.42695 0.38805 7.86695 0.96655 6.44215 1.7706C5.2533 2.46155 4.2029 3.36505 3.26755 4.36865C2.26655 5.5341 1.43455 6.85165 0.88205 8.2888C0.35165 9.63495 0.0728 11.0728 0 12.5164V13.6747C0.11635 15.4135 0.53235 17.1398 1.30975 18.7044C2.38615 20.9332 4.12815 22.8293 6.23805 24.1189C8.1055 25.257 10.2641 25.9135 12.4501 26H13.5506C15.9244 25.9051 18.2682 25.1413 20.2384 23.8127C23.0847 21.9121 25.1401 18.8507 25.7654 15.4804C25.796 15.3301 25.8184 15.178 25.8407 15.0261C25.8794 14.7629 25.918 14.4999 26 14.246V12.2629C25.987 12.1531 25.9747 12.0431 25.9624 11.9332C25.9328 11.6683 25.9032 11.4033 25.8641 11.1397C25.5593 8.96415 24.6786 6.8705 23.3402 5.12915C21.5846 2.76965 18.9696 1.0868 16.1187 0.38675C15.2978 0.17355 14.4528 0.0806 13.6097 0ZM4.59615 7.4087C4.58705 7.163 4.6371 6.88805 4.83925 6.7249C4.99874 6.57051 5.22812 6.5782 5.4378 6.58523C5.46824 6.58625 5.49826 6.58726 5.5276 6.58775C5.7265 6.5793 5.89095 6.71255 6.0138 6.8549C7.05243 8.20789 8.10741 9.54804 9.16248 10.8883C9.4709 11.2801 9.77932 11.6719 10.0874 12.064C10.4601 11.6385 10.8033 11.1885 11.1465 10.7385C11.3874 10.4227 11.6283 10.1068 11.8794 9.7994C11.9492 9.71803 12.0139 9.62857 12.0789 9.53857C12.2514 9.29997 12.4267 9.05752 12.7075 8.9518C12.9669 8.9115 13.275 8.8816 13.4921 9.061C13.6827 9.22043 13.8303 9.41947 13.9778 9.61825C14.0329 9.69258 14.088 9.76687 14.1453 9.83905C14.4632 10.2359 14.774 10.6385 15.0847 11.0412C15.3446 11.3778 15.6044 11.7145 15.8685 12.0478C16.0228 11.9146 16.1461 11.7529 16.2692 11.5913C16.3162 11.5297 16.3632 11.4681 16.4118 11.4081C17.0465 10.6059 17.6764 9.79962 18.3063 8.9933C18.788 8.37681 19.2696 7.76027 19.7535 7.14545C19.7798 7.11185 19.8056 7.07711 19.8317 7.0421C19.9626 6.86646 20.0984 6.68421 20.3092 6.60725C20.59 6.5676 20.9157 6.539 21.1497 6.7327C21.3479 6.864 21.4032 7.1188 21.4025 7.34175C21.4032 8.99424 21.4006 10.6466 21.3981 12.2989C21.3958 13.7675 21.3934 15.2362 21.3934 16.705C21.3974 17.2686 21.3889 17.8314 21.3792 18.3944C21.3768 18.453 21.378 18.5137 21.3793 18.575C21.3836 18.785 21.388 19.0024 21.2491 19.1705C21.0255 19.4402 20.6355 19.4655 20.3177 19.3876C20.0923 19.3114 19.9569 19.1172 19.8259 18.9294C19.7971 18.8881 19.7685 18.8471 19.7392 18.8078C19.0161 17.877 18.2853 16.952 17.5546 16.027C17.009 15.3364 16.4635 14.6458 15.9211 13.9529C15.8223 14.0342 15.7281 14.1213 15.6539 14.2266C15.2903 14.7007 14.9224 15.1717 14.5546 15.6427C14.2668 16.0111 13.9791 16.3795 13.6936 16.7492C13.379 17.1971 12.6132 17.2016 12.3052 16.7453C12.064 16.4361 11.8219 16.1279 11.5798 15.8196C11.1745 15.3036 10.7692 14.7876 10.3688 14.2675C10.2791 14.1498 10.1797 14.04 10.0802 13.9314C8.81205 15.5395 7.5439 17.1476 6.2816 18.7603C6.26095 18.79 6.24017 18.8207 6.21907 18.8519C6.03562 19.1232 5.82766 19.4307 5.4639 19.4214C5.07585 19.4863 4.59745 19.2244 4.62345 18.7876C4.60251 16.2946 4.60152 13.8011 4.60053 11.3074C4.60001 10.0079 4.59949 8.70829 4.59615 7.4087Z" fill="#2573B2"/>
<path opacity="0.2" fill-rule="evenodd" clip-rule="evenodd" d="M6.15225 9.36C6.1581 9.2469 6.1386 9.1156 6.23155 9.02915C6.50845 9.30345 6.72295 9.6304 6.968 9.93135C7.7532 10.9226 8.528 11.9229 9.3106 12.9155C9.41005 13.065 9.2209 13.1911 9.14875 13.3055C8.37915 14.2922 7.6063 15.2763 6.8393 16.2643C6.63975 16.5184 6.44735 16.7791 6.22505 17.0144C6.17435 16.9195 6.14315 16.8155 6.15095 16.7076C6.1529 14.2584 6.1542 11.8092 6.15225 9.36Z" fill="#2573B2"/>
<path opacity="0.2" fill-rule="evenodd" clip-rule="evenodd" d="M18.8617 10.1497C19.1646 9.77535 19.4311 9.3704 19.771 9.0272C19.8432 9.1247 19.8497 9.243 19.8471 9.35935C19.8464 11.8306 19.8445 14.3013 19.8497 16.7719C19.8529 16.8623 19.8263 16.9429 19.7697 17.0137C19.1093 16.2409 18.5172 15.4121 17.8763 14.623C17.5071 14.1674 17.1704 13.6857 16.7895 13.2392C16.7232 13.1475 16.5945 13.0312 16.6887 12.9142C17.4115 11.9918 18.1337 11.0682 18.8617 10.1497Z" fill="#2573B2"/>
<path opacity="0.2" fill-rule="evenodd" clip-rule="evenodd" d="M12.7985 10.5183C13.0208 10.3928 13.2613 10.5365 13.388 10.7269C13.9418 11.4491 14.5164 12.1563 15.0754 12.8745C15.2139 13.0104 15.0397 13.1573 14.9565 13.2652C14.4306 13.9321 13.9061 14.601 13.3848 15.2711C13.2834 15.3868 13.1774 15.5467 13.0006 15.5233C12.8069 15.548 12.6795 15.3855 12.5749 15.2503C11.999 14.4937 11.3964 13.7579 10.8244 12.998C11.2697 12.3786 11.7708 11.8001 12.2304 11.1904C12.4182 10.9655 12.5755 10.7107 12.7985 10.5183Z" fill="#2573B2"/>
</svg>
