<svg width="26" height="26" viewBox="0 0 26 26" fill="none" xmlns="http://www.w3.org/2000/svg">
<path opacity="0.2" d="M13 26C20.1797 26 26 20.1797 26 13C26 5.8203 20.1797 0 13 0C5.8203 0 0 5.8203 0 13C0 20.1797 5.8203 26 13 26Z" fill="#B166EE"/>
<path fill-rule="evenodd" clip-rule="evenodd" d="M15.2653 15.8393C15.5823 15.8393 15.8393 15.5823 15.8393 15.2653C15.8393 14.9483 15.5823 14.6913 15.2653 14.6913C14.9483 14.6913 14.6913 14.9483 14.6913 15.2653C14.6913 15.5823 14.9483 15.8393 15.2653 15.8393Z" fill="#A566EB"/>
<path fill-rule="evenodd" clip-rule="evenodd" d="M10.7347 15.8393C11.0517 15.8393 11.3087 15.5823 11.3087 15.2653C11.3087 14.9483 11.0517 14.6913 10.7347 14.6913C10.4177 14.6913 10.1607 14.9483 10.1607 15.2653C10.1607 15.5823 10.4177 15.8393 10.7347 15.8393Z" fill="#A566EB"/>
<path fill-rule="evenodd" clip-rule="evenodd" d="M5 13C5 8.584 8.584 5 13 5C17.416 5 21 8.584 21 13C21 17.416 17.416 21 13 21C8.584 21 5 17.416 5 13ZM12.6387 10.7347C12.6387 9.6832 11.7863 8.83072 10.7347 8.83072C9.6832 8.83072 8.83072 9.6832 8.83072 10.7347C8.83072 11.7862 9.6832 12.6387 10.7347 12.6387C11.7862 12.6387 12.6387 11.7862 12.6387 10.7347ZM12.6387 15.2653C12.6387 16.3169 11.7862 17.1693 10.7347 17.1693C9.6832 17.1693 8.83072 16.3168 8.83072 15.2653C8.83072 14.2138 9.6832 13.3613 10.7347 13.3613C12.1852 13.3613 13.3611 12.1853 13.3611 10.7349C13.3611 9.68328 14.2136 8.83088 15.2651 8.83088C16.3166 8.83088 17.1691 9.68336 17.1691 10.7349C17.1691 11.7864 16.3166 12.6389 15.2651 12.6389C13.8147 12.6389 12.6389 13.8147 12.6389 15.2653H12.6387ZM13.3611 15.2653C13.3611 16.3168 14.2135 17.1693 15.2651 17.1693H15.2653C16.3168 17.1693 17.1691 16.3168 17.1691 15.2653C17.1691 14.2138 16.3166 13.3613 15.2651 13.3613C14.2136 13.3613 13.3611 14.2138 13.3611 15.2653Z" fill="url(#paint0_linear_1_1292)"/>
<path fill-rule="evenodd" clip-rule="evenodd" d="M15.2653 11.3087C15.5823 11.3087 15.8393 11.0517 15.8393 10.7347C15.8393 10.4177 15.5823 10.1607 15.2653 10.1607C14.9483 10.1607 14.6913 10.4177 14.6913 10.7347C14.6913 11.0517 14.9483 11.3087 15.2653 11.3087Z" fill="#A566EB"/>
<path fill-rule="evenodd" clip-rule="evenodd" d="M10.7347 11.3087C11.0517 11.3087 11.3087 11.0517 11.3087 10.7347C11.3087 10.4177 11.0517 10.1607 10.7347 10.1607C10.4177 10.1607 10.1607 10.4177 10.1607 10.7347C10.1607 11.0517 10.4177 11.3087 10.7347 11.3087Z" fill="#A566EB"/>
<defs>
<linearGradient id="paint0_linear_1_1292" x1="11.127" y1="3.346" x2="3.3664" y2="14.8747" gradientUnits="userSpaceOnUse">
<stop stop-color="#C764F5"/>
<stop offset="1" stop-color="#7C6CDF"/>
</linearGradient>
</defs>
</svg>
