<svg width="26" height="26" viewBox="0 0 26 26" fill="none" xmlns="http://www.w3.org/2000/svg">
<path opacity="0.2" d="M13 26C20.1797 26 26 20.1797 26 13C26 5.8203 20.1797 0 13 0C5.8203 0 0 5.8203 0 13C0 20.1797 5.8203 26 13 26Z" fill="#2C5F93"/>
<path fill-rule="evenodd" clip-rule="evenodd" d="M11.4702 19.8038L10.3252 17.4248L8.27392 20.6559C8.45248 20.7668 8.63481 20.8715 8.82058 20.9699C9.05515 21.0939 9.29521 21.2073 9.54004 21.3097C10.3227 21.6354 11.1475 21.8485 11.99 21.9424C12.1655 21.9618 12.3425 21.9762 12.5205 21.986L11.4702 19.8038Z" fill="#7CC245"/>
<path fill-rule="evenodd" clip-rule="evenodd" d="M21.6724 10.5947C21.6151 10.3907 21.5505 10.1889 21.4787 9.98969L15.1506 15.5787L14.2773 16.3496L14.3491 17.0622L14.8288 21.8117C15.1417 21.7472 15.4509 21.666 15.7551 21.5685C19.3778 20.405 22 17.0091 22 13C22 12.1666 21.8843 11.3607 21.6724 10.5947Z" fill="#FCCB32"/>
<path fill-rule="evenodd" clip-rule="evenodd" d="M9.2299 17.7988L10.6262 20.6999L15.4752 16.4175L14.5966 7.71646L9.2299 17.7988Z" fill="#EE3F26"/>
<path fill-rule="evenodd" clip-rule="evenodd" d="M9.8428 17.4811L14.4657 8.79647L14.4989 9.12677L14.9937 8.19707L14.9933 8.19257L6.28708 10.9224L9.73264 18.0812L9.94216 17.6874L9.8428 17.4811Z" fill="#CF3627"/>
<path fill-rule="evenodd" clip-rule="evenodd" d="M11.0456 19.9799L11.99 21.9419C12.3218 21.9793 12.6584 22 13 22C13.9612 22 14.8864 21.8477 15.7553 21.5687L15.2223 16.2917L11.0456 19.9799Z" fill="#F05048"/>
<path fill-rule="evenodd" clip-rule="evenodd" d="M15.2223 16.2913L15.7553 21.5685C19.3778 20.405 22 17.0091 22 13C22 12.1666 21.8843 11.3607 21.6724 10.5947L15.2223 16.2913Z" fill="#FCCB32"/>
<path fill-rule="evenodd" clip-rule="evenodd" d="M13.9864 4.0549C13.6588 4.01866 13.3296 4.00033 13 4C9.78988 4 6.97414 5.6821 5.38096 8.21146C4.97646 8.85547 4.65541 9.54825 4.42552 10.2732L6.8152 11.191L14.4652 8.7925L14.4681 8.7916L15.2892 4.29628C14.8615 4.18384 14.426 4.10316 13.9864 4.0549Z" fill="#2591D4"/>
<path fill-rule="evenodd" clip-rule="evenodd" d="M19.8081 7.11742C18.9322 6.10364 17.8414 5.29766 16.6151 4.75798C16.1858 4.56971 15.7425 4.41539 15.2891 4.29646L14.4679 8.79178L14.4654 8.79646L15.2223 16.2913L21.6724 10.5947C21.3166 9.31165 20.6798 8.12387 19.8081 7.11742Z" fill="#F47F22"/>
<path fill-rule="evenodd" clip-rule="evenodd" d="M9.8428 17.4811L6.8152 11.191L4.4257 10.2732C4.14318 11.1545 3.99956 12.0745 4 13C4 16.1979 5.66914 19.0039 8.1823 20.6005C8.39002 20.7323 8.60296 20.8557 8.82058 20.9704L10.3572 18.5501L9.8428 17.4811Z" fill="#4CAA4C"/>
<path fill-rule="evenodd" clip-rule="evenodd" d="M11.0456 19.9799L10.3572 18.5498L8.82058 20.9699C9.05514 21.0939 9.29521 21.2073 9.54004 21.3097C10.3227 21.6354 11.1475 21.8485 11.99 21.9424L11.0456 19.9799Z" fill="#7CC245"/>
<path fill-rule="evenodd" clip-rule="evenodd" d="M16.6151 4.75798C17.8414 5.29766 18.9322 6.10364 19.8081 7.11742L14.4677 8.79178L16.6151 4.75798ZM15.2223 16.2913L14.4657 8.79646L14.4683 8.79178L19.8085 7.11742C20.6799 8.12398 21.3166 9.31173 21.6724 10.5947L15.2223 16.2913Z" fill="#F47F22"/>
<path fill-rule="evenodd" clip-rule="evenodd" d="M9.8428 17.4811L11.0456 19.9799L15.2223 16.2913L14.4657 8.79646L9.8428 17.4811Z" fill="#EE3F26"/>
<path fill-rule="evenodd" clip-rule="evenodd" d="M14.4654 8.7925L13.9869 4.0549C13.6592 4.01867 13.3297 4.00035 13 4C9.78988 4 6.97414 5.6821 5.38096 8.21146L6.8152 11.191L14.4654 8.7925Z" fill="#1E85CA"/>
<path fill-rule="evenodd" clip-rule="evenodd" d="M14.4654 8.7925L6.8152 11.191L9.8428 17.4811L14.4657 8.79646L14.4654 8.7925Z" fill="#CF3627"/>
<path fill-rule="evenodd" clip-rule="evenodd" d="M14.4677 8.79178L16.6151 4.7578C15.7799 4.39074 14.8934 4.1537 13.9864 4.0549L14.4648 8.7925L14.4677 8.79178Z" fill="#35A9E1"/>
<path fill-rule="evenodd" clip-rule="evenodd" d="M11.0456 19.9799L11.99 21.9419C12.3218 21.9793 12.6584 22 13 22C13.9612 22 14.8864 21.8477 15.7553 21.5687L15.2223 16.2917L11.0456 19.9799Z" fill="#F05048"/>
<path fill-rule="evenodd" clip-rule="evenodd" d="M15.2223 16.2913L15.7553 21.5685C19.3778 20.405 22 17.0091 22 13C22 12.1666 21.8843 11.3607 21.6724 10.5947L15.2223 16.2913Z" fill="#FCCB32"/>
<path fill-rule="evenodd" clip-rule="evenodd" d="M9.54004 21.3097C10.3227 21.6355 11.1475 21.8485 11.99 21.9424L11.0456 19.9804L9.54004 21.3097H9.54004Z" fill="#7CC245"/>
<path fill-rule="evenodd" clip-rule="evenodd" d="M5.38096 8.21146C4.6472 9.37428 4.19146 10.6906 4.04914 12.0582L6.8152 11.191L5.38096 8.21146Z" fill="#0161AD"/>
<path fill-rule="evenodd" clip-rule="evenodd" d="M6.8152 11.191L4.04914 12.0582C4.01657 12.3711 4.00017 12.6854 4 13C4 16.1979 5.66914 19.0039 8.1823 20.6005L9.8428 17.4811L6.8152 11.191Z" fill="#4CAA4C"/>
<path fill-rule="evenodd" clip-rule="evenodd" d="M9.8428 17.4811L8.1823 20.6005C8.61369 20.8753 9.06787 21.1126 9.53986 21.3097L11.0454 19.9799L9.8428 17.4811Z" fill="#51B34B"/>
<path fill-rule="evenodd" clip-rule="evenodd" d="M14.6551 5.97893L14.44 6.61001C16.3149 7.62557 18.1322 9.43169 19.1189 11.0054L19.7649 10.8108C18.7091 9.09041 16.7147 7.09385 14.6551 5.97893V5.97893Z" fill="#444344"/>
<path fill-rule="evenodd" clip-rule="evenodd" d="M17.7819 4.51678C16.575 4.51678 15.5249 5.17792 14.9676 6.15676C14.8943 6.2847 14.8298 6.41749 14.7746 6.5542C14.7608 6.58948 14.7496 6.62584 14.7374 6.66202C14.7262 6.69478 14.7134 6.72682 14.7033 6.75976C16.3916 7.74256 18.0013 9.33016 18.9657 10.7711C18.9801 10.7655 18.9949 10.7613 19.0091 10.7556C19.1157 10.7112 19.2197 10.6608 19.3207 10.6047C19.3976 10.5626 19.4733 10.5189 19.5464 10.4714C20.4342 9.89356 21.0222 8.89528 21.0222 7.75714C21.0222 5.96758 19.5718 4.51678 17.7819 4.51678Z" fill="#EE3F26"/>
<path fill-rule="evenodd" clip-rule="evenodd" d="M14.7374 6.66202C14.7262 6.69478 14.7134 6.72682 14.7033 6.75976C16.3916 7.74256 18.0013 9.33016 18.9657 10.7711C18.9801 10.7655 18.9949 10.7613 19.0091 10.7556C19.1157 10.7112 19.2197 10.6608 19.3207 10.6047C18.2961 9.1714 16.5413 7.58614 14.7374 6.66202V6.66202Z" fill="#C03225"/>
</svg>
