<svg width="26" height="26" viewBox="0 0 26 26" fill="none" xmlns="http://www.w3.org/2000/svg">
<path opacity="0.2" d="M13 26C20.1797 26 26 20.1797 26 13C26 5.8203 20.1797 0 13 0C5.8203 0 0 5.8203 0 13C0 20.1797 5.8203 26 13 26Z" fill="#505050"/>
<path fill-rule="evenodd" clip-rule="evenodd" d="M12.8763 5H13.1372C14.472 5.03911 15.8011 5.38471 16.9588 6.05529C18.8567 7.12978 20.2718 9.01636 20.7682 11.1404C20.9032 11.6492 20.9411 12.1728 20.979 12.6957L20.979 12.6957C20.9858 12.7896 20.9926 12.8835 21 12.9772V13.197C20.9488 14.4059 20.6636 15.6105 20.0926 16.6814C19.1177 18.578 17.3492 20.0457 15.3054 20.6537C14.6 20.877 13.8619 20.9652 13.1259 21H12.9218C11.1547 20.9758 9.39751 20.3685 8.01867 19.2571C6.50969 18.0596 5.4544 16.3024 5.128 14.4023C5.07492 14.1325 5.05299 13.8588 5.03106 13.5852L5.03106 13.5852C5.02155 13.4666 5.01204 13.348 5 13.2297V12.5826L5.01558 12.4301C5.05778 12.0141 5.10002 11.5978 5.20267 11.1916C5.69973 9.01138 7.16604 7.07858 9.12516 6.00409C10.2679 5.36338 11.5692 5.03627 12.8763 5ZM11.0708 8.51858C9.85262 9.02418 8.85636 10.0389 8.37351 11.2663C7.99022 12.2156 7.92622 13.2837 8.17013 14.2764C8.44107 15.4292 9.15289 16.4674 10.1172 17.1522C11.0309 17.8078 12.173 18.1321 13.2951 18.0652C13.6706 17.9024 14.0453 17.6926 14.2985 17.362C14.7394 16.803 14.9762 16.0606 14.8468 15.3516C14.75 14.8318 14.4187 14.3739 13.9778 14.088C13.5555 13.8097 13.0855 13.6302 12.6153 13.4506L12.6153 13.4506C12.3285 13.3411 12.0416 13.2316 11.7655 13.0996C11.2613 12.8834 10.7991 12.5428 10.5033 12.0748C10.1399 11.496 10.0304 10.7856 10.1136 10.1136C10.2082 9.48142 10.5787 8.9168 11.0708 8.51858ZM11.1582 10.7301C10.962 10.2402 11.0359 9.67342 11.277 9.21333C11.5365 8.73973 12.0862 8.48942 12.6117 8.48729C13.182 8.45884 13.7844 8.62453 14.2018 9.02844C14.6469 9.46933 14.9108 10.0546 15.1063 10.6412C15.1832 10.6177 15.2596 10.5937 15.3364 10.5696C15.3547 10.5639 15.3731 10.5581 15.3915 10.5524C15.3538 10.2348 15.3255 9.91627 15.2972 9.59769C15.269 9.27911 15.2407 8.96053 15.203 8.64302C16.3152 9.19484 17.2062 10.1762 17.64 11.3396C18.1086 12.5854 18.0688 14.0233 17.4892 15.2258C16.8542 16.5847 15.57 17.618 14.1065 17.9458C14.6619 17.6891 15.1888 17.3157 15.4775 16.7604C15.9077 15.9618 15.9355 14.9932 15.7292 14.1257C15.5287 13.3257 14.8567 12.7454 14.1122 12.4532C13.8156 12.3144 13.5 12.2255 13.1848 12.1368C12.7668 12.0191 12.3495 11.9016 11.9781 11.6681C11.6219 11.4448 11.3111 11.1276 11.1582 10.7301Z" fill="#F9F9F9"/>
</svg>
