<svg width="26" height="26" viewBox="0 0 26 26" fill="none" xmlns="http://www.w3.org/2000/svg">
<path opacity="0.2" d="M13 26C20.1797 26 26 20.1797 26 13C26 5.8203 20.1797 0 13 0C5.8203 0 0 5.8203 0 13C0 20.1797 5.8203 26 13 26Z" fill="#DE5A1A"/>
<path fill-rule="evenodd" clip-rule="evenodd" d="M9.56727 6.61138C10.6182 6.18116 11.6393 5.68551 12.6953 5.26809C13.2509 5.06898 13.7898 5.38756 14.2873 5.59591C15.1745 5.98134 16.056 6.38169 16.9498 6.75289C17.5425 7.05227 18.1767 7.26631 18.7767 7.55289C19.0124 7.66951 19.2945 7.74134 19.4458 7.97245C19.4829 7.98169 19.5571 8.0016 19.5935 8.01085C19.8378 8.50365 19.7527 9.05618 19.7644 9.58382C19.7636 10.285 19.7709 10.9854 19.7578 11.6866C19.6429 11.6859 19.528 11.6852 19.4138 11.6844C19.3775 11.656 19.3062 11.5991 19.2698 11.5707C18.5353 11.2955 17.8356 10.9364 17.104 10.654C17.0771 10.6334 17.0225 10.5936 16.9956 10.5737C16.5309 10.413 16.0938 10.1883 15.6422 9.99698C13.7876 9.21405 11.9571 8.3792 10.0975 7.60978C10.0698 7.58845 10.0145 7.5472 9.98691 7.52658C9.62254 7.39076 9.25818 7.24782 8.91054 7.07645C8.896 7.03165 8.86618 6.94276 8.85091 6.89796C9.10691 6.84676 9.33382 6.71947 9.56727 6.61138Z" fill="#FDB52B"/>
<path fill-rule="evenodd" clip-rule="evenodd" d="M6.46836 8.03645C7.28145 8.32232 8.04363 8.72908 8.85382 9.02276C8.85963 9.0377 8.872 9.06685 8.87854 9.08108C8.91054 9.09885 8.97454 9.13441 9.00654 9.15219C9.15564 9.14721 9.28727 9.23681 9.42182 9.28872C9.86109 9.50134 10.3316 9.64996 10.7593 9.88534C10.9498 10.0062 11.1484 10.1143 11.3615 10.1925C11.7265 10.322 12.0596 10.531 12.4422 10.6157C14.4938 11.4533 16.5098 12.3799 18.5644 13.2155C18.9142 13.3449 19.2415 13.5291 19.5171 13.7765C19.6015 13.9422 19.6829 14.1093 19.7571 14.2786C19.7505 15.3374 19.7651 16.397 19.7462 17.4551C19.632 17.4331 19.5156 17.416 19.4065 17.3755C15.3215 15.6034 11.2262 13.8526 7.13891 12.0841C6.75345 11.9326 6.43345 11.5757 6.448 11.1525C6.46618 10.1136 6.42182 9.07468 6.46836 8.03645Z" fill="#DE5A1A"/>
<path fill-rule="evenodd" clip-rule="evenodd" d="M8.87854 9.08107C8.91108 9.08507 8.97771 9.09307 9.01025 9.09707L9.0149 9.2144C8.98081 9.18107 8.91263 9.1144 8.87854 9.08107Z" fill="#EC6853"/>
<path fill-rule="evenodd" clip-rule="evenodd" d="M10.7593 9.88533C11.336 10.088 11.9033 10.3291 12.4422 10.6156C12.0596 10.531 11.7265 10.322 11.3615 10.1925C11.1484 10.1143 10.9498 10.0062 10.7593 9.88533Z" fill="#EC6853"/>
<path fill-rule="evenodd" clip-rule="evenodd" d="M6.22618 13.7822C6.49963 13.8491 6.75636 13.9643 7.00945 14.0816C10.3651 15.5436 13.7207 17.0064 17.0815 18.4571C17.0764 18.5132 17.072 18.5687 17.0684 18.6249C15.8327 19.1248 14.6225 19.6809 13.3993 20.2071C13.0087 20.3671 12.5556 20.3287 12.1775 20.1538C10.4036 19.3694 8.62472 18.5964 6.84436 17.8284C6.38472 17.6535 6.11927 17.1671 6.17163 16.6949C6.176 15.8892 6.17454 15.0828 6.16872 14.2772C6.16727 14.11 6.19563 13.9458 6.22618 13.7822Z" fill="#EC6853"/>
</svg>
