<svg width="26" height="26" viewBox="0 0 26 26" fill="none" xmlns="http://www.w3.org/2000/svg">
<path opacity="0.2" d="M13 26C20.1797 26 26 20.1797 26 13C26 5.8203 20.1797 0 13 0C5.8203 0 0 5.8203 0 13C0 20.1797 5.8203 26 13 26Z" fill="#5B6BDC"/>
<path fill-rule="evenodd" clip-rule="evenodd" d="M13.2819 19.995C17.3037 19.995 20.5639 16.8559 20.5639 12.9835C20.5639 9.1111 17.3037 5.97191 13.2819 5.97191C9.26024 5.97191 6 9.1111 6 12.9835C6 16.8559 9.26024 19.995 13.2819 19.995Z" stroke="white" stroke-width="0.821904"/>
<path fill-rule="evenodd" clip-rule="evenodd" d="M13.282 19.0827C16.7803 19.0827 19.6163 16.352 19.6163 12.9835C19.6163 9.615 16.7803 6.88431 13.282 6.88431C9.7836 6.88431 6.94763 9.615 6.94763 12.9835C6.94763 16.352 9.7836 19.0827 13.282 19.0827Z" stroke="white" stroke-width="0.5"/>
<path fill-rule="evenodd" clip-rule="evenodd" d="M12.1318 7.59505C12.0659 6.70248 13.4493 5.11571 13.4493 5.11571C13.4493 5.11571 14.2727 3.66116 13.8445 5.08265C13.4163 6.50414 14.4374 7.42976 14.4374 7.42976C14.4374 7.42976 12.1976 8.48761 12.1318 7.59505ZM14.5033 18.6694C14.6051 19.5587 13.2516 20.9174 13.2516 20.9174C13.2516 20.9174 12.4964 22.3759 12.8669 20.9382C13.2375 19.5005 12.2306 18.5703 12.2306 18.5703C12.2306 18.5703 14.4015 17.7802 14.5033 18.6694Z" fill="#2E3E5E"/>
<path fill-rule="evenodd" clip-rule="evenodd" d="M15.7879 9.31405C13.3834 7.79339 13.3834 5.87604 13.3834 5.87604C10.8142 8.42149 14.7668 10.8347 14.7668 10.8347L15.7879 9.31405ZM10.8686 16.7851C13.2731 18.3058 13.2731 20.2231 13.2731 20.2231C15.8422 17.6777 11.8897 15.2645 11.8897 15.2645L10.8686 16.7851Z" fill="white"/>
<path fill-rule="evenodd" clip-rule="evenodd" d="M14.5511 11.3537C12.0758 9.76695 12.0372 7.75604 12.0372 7.75604C9.3386 10.2817 13.4601 13.0063 13.4674 13.0122C15.9937 14.605 16.0326 16.643 16.0326 16.643C18.416 13.5488 14.5586 11.3587 14.5511 11.3537Z" fill="white"/>
<path fill-rule="evenodd" clip-rule="evenodd" d="M13.1831 13.3045C10.7128 11.7765 10.6756 9.83934 10.6756 9.83934C7.97925 12.2747 12.0919 14.8972 12.1001 14.9022C14.6219 16.435 14.6594 18.399 14.6594 18.399C17.0412 15.4169 13.1907 13.3094 13.1831 13.3045Z" fill="white"/>
</svg>
