<svg width="26" height="26" viewBox="0 0 26 26" fill="none" xmlns="http://www.w3.org/2000/svg">
<path opacity="0.2" d="M13 26C20.1797 26 26 20.1797 26 13C26 5.8203 20.1797 0 13 0C5.8203 0 0 5.8203 0 13C0 20.1797 5.8203 26 13 26Z" fill="#7310C1"/>
<path fill-rule="evenodd" clip-rule="evenodd" d="M13.6704 5.16326C13.2016 4.95183 12.644 4.96816 12.1776 5.17796C11.5189 5.45095 10.8564 5.71382 10.194 5.97666C9.68175 6.17991 9.16956 6.38313 8.6592 6.59102C8.56176 6.63158 8.46192 6.66918 8.36172 6.70692C8.00615 6.84084 7.64599 6.97649 7.372 7.25224C7.10795 7.53586 6.96543 7.89993 6.82489 8.25895C6.79553 8.33393 6.76627 8.40868 6.736 8.48245C6.35971 9.37269 5.98704 10.2645 5.61425 11.1567C5.52419 11.3722 5.43413 11.5877 5.344 11.8033C5.31643 11.8679 5.28755 11.9322 5.25864 11.9966C5.15164 12.2349 5.04409 12.4744 5 12.7347V13.2392C5.004 13.2718 5.00964 13.3191 5.01544 13.3676C5.02241 13.426 5.0296 13.4861 5.0344 13.5249L5.0896 13.5355C5.18274 13.801 5.2938 14.0593 5.4048 14.3173C5.45111 14.425 5.49741 14.5327 5.5424 14.6408C5.63177 14.8405 5.71502 15.043 5.79828 15.2455C5.86855 15.4165 5.93883 15.5875 6.0128 15.7567C6.116 15.9932 6.21416 16.232 6.31234 16.4709C6.37551 16.6246 6.43868 16.7783 6.5032 16.9314C6.6256 17.1967 6.7408 17.4653 6.8456 17.738C7.0288 18.2808 7.3424 18.7984 7.8656 19.058C8.276 19.2057 8.6848 19.3592 9.0784 19.551L9.2744 19.5706L9.2824 19.6302C10.052 19.9012 10.8064 20.2147 11.5568 20.5347C11.5968 20.5445 11.6776 20.5633 11.7176 20.5722C11.8812 20.6453 12.0462 20.7135 12.2114 20.7817C12.3395 20.8347 12.4677 20.8876 12.5952 20.9429C13.1648 21.0465 13.7056 20.8343 14.2152 20.5984C14.4304 20.4951 14.6545 20.4144 14.8786 20.3338C15.0901 20.2577 15.3016 20.1817 15.5056 20.0865C15.5224 20.0811 15.5467 20.0728 15.5718 20.0643C15.603 20.0537 15.6355 20.0427 15.6568 20.0359C16.4728 19.6955 17.296 19.3706 18.1232 19.0563C18.4296 18.8726 18.732 18.6424 18.8784 18.2996C19.1661 17.6576 19.4361 17.0072 19.7061 16.3568C19.813 16.0992 19.92 15.8416 20.028 15.5845C20.1458 15.2758 20.2797 14.9734 20.4135 14.671C20.6323 14.1768 20.8511 13.6825 21 13.1608V12.8963C20.8073 12.2393 20.5352 11.6132 20.2631 10.987C20.1025 10.6174 19.9419 10.2478 19.7976 9.87183C19.6583 9.56265 19.5302 9.24824 19.4021 8.93386C19.2141 8.47217 19.0261 8.01056 18.8024 7.56571C18.5573 7.09997 18.0549 6.90612 17.5948 6.7286C17.5654 6.71725 17.5362 6.70597 17.5072 6.69469C16.8134 6.41374 16.1175 6.13762 15.4216 5.86147C14.8375 5.62971 14.2534 5.39793 13.6704 5.16326ZM11.0344 8.94775C11.4072 8.65959 11.86 8.49714 12.316 8.40898C13.4168 8.23836 14.5912 8.42285 15.5576 9.00326C15.772 9.12653 15.9984 9.26938 16.1072 9.50612C16.3152 9.94285 15.9688 10.5347 15.4848 10.5257C15.2518 10.5578 15.0554 10.4358 14.8633 10.3165C14.8061 10.2809 14.7493 10.2456 14.692 10.2147C14.0272 9.81306 13.224 9.65877 12.464 9.80734C12.088 9.89632 11.7536 10.1649 11.6192 10.5396C11.568 10.8269 11.5568 11.1682 11.76 11.4008C12.008 11.7182 12.3958 11.8497 12.764 11.9745C12.8163 11.9922 12.8682 12.0098 12.9192 12.0278C13.122 12.0872 13.3285 12.1408 13.5358 12.1946C14.2993 12.3929 15.0724 12.5936 15.7016 13.0963C16.2448 13.498 16.5128 14.1975 16.4832 14.8702C16.508 15.6278 16.1784 16.3918 15.5888 16.858C14.9496 17.3706 14.1184 17.56 13.3184 17.5396C12.2 17.56 11.0976 17.169 10.1864 16.5192C9.972 16.3665 9.7512 16.1461 9.756 15.8596C9.7256 15.4433 10.1184 15.0629 10.5216 15.0898C10.7479 15.0886 10.9245 15.2253 11.098 15.3596C11.1576 15.4057 11.2168 15.4516 11.2776 15.4914C12.0272 16.0294 12.9784 16.2547 13.8832 16.1159C14.1808 16.0539 14.4808 15.9347 14.6856 15.6971C15.06 15.3233 15.0544 14.6147 14.6312 14.2808C14.179 13.9377 13.6192 13.8007 13.0787 13.6684C13.0521 13.662 13.0256 13.6555 12.9992 13.649C12.9651 13.64 12.931 13.631 12.8968 13.622C12.0859 13.4087 11.2323 13.1841 10.6136 12.5747C10.1944 12.1551 10.024 11.5437 10.0528 10.9567C10.0152 10.1731 10.4088 9.39592 11.0344 8.94775Z" fill="#7310C1"/>
<path fill-rule="evenodd" clip-rule="evenodd" d="M12.316 8.40898C13.4168 8.23837 14.5912 8.42286 15.5576 9.00326C15.772 9.12653 15.9984 9.26939 16.1072 9.50612C16.3152 9.94286 15.9688 10.5347 15.4848 10.5257C15.1824 10.5673 14.9416 10.3494 14.692 10.2147C14.0272 9.81306 13.224 9.65877 12.464 9.80735C12.088 9.89632 11.7536 10.1649 11.6192 10.5396C11.568 10.8269 11.5568 11.1682 11.76 11.4008C12.0432 11.7633 12.5088 11.8833 12.9192 12.0278C13.8688 12.3061 14.9016 12.4571 15.7016 13.0963C16.2448 13.498 16.5128 14.1975 16.4832 14.8702C16.508 15.6278 16.1784 16.3918 15.5888 16.858C14.9496 17.3706 14.1184 17.56 13.3184 17.5396C12.2 17.56 11.0976 17.169 10.1864 16.5192C9.972 16.3665 9.7512 16.1461 9.756 15.8596C9.7256 15.4433 10.1184 15.0629 10.5216 15.0898C10.8256 15.0882 11.04 15.3355 11.2776 15.4914C12.0272 16.0294 12.9784 16.2547 13.8832 16.1159C14.1808 16.0539 14.4808 15.9347 14.6856 15.6971C15.06 15.3233 15.0544 14.6147 14.6312 14.2808C14.1568 13.9208 13.564 13.7878 12.9992 13.649C12.1584 13.4269 11.2584 13.2098 10.6136 12.5747C10.1944 12.1551 10.024 11.5437 10.0528 10.9567C10.0152 10.1731 10.4088 9.39592 11.0344 8.94775C11.4072 8.65959 11.86 8.49714 12.316 8.40898Z" fill="#FEFEFE"/>
</svg>
