<svg width="26" height="26" viewBox="0 0 26 26" fill="none" xmlns="http://www.w3.org/2000/svg">
<path opacity="0.2" d="M13 26C20.1797 26 26 20.1797 26 13C26 5.8203 20.1797 0 13 0C5.8203 0 0 5.8203 0 13C0 20.1797 5.8203 26 13 26Z" fill="#1382C6"/>
<path fill-rule="evenodd" clip-rule="evenodd" d="M16.8774 8.5228C15.7317 7.83105 14.586 7.1393 13.4409 6.44673C13.24 6.30631 12.9801 6.30565 12.7792 6.44541C12.4172 6.66301 12.0551 6.88063 11.6931 7.09826C9.82733 8.21968 7.96146 9.34118 6.0947 10.4608C5.88368 10.569 5.64661 10.6988 5.60911 10.9685V13.078C5.65296 13.4657 5.84618 13.8441 6.17606 14.0464C7.23437 14.6876 8.29313 15.3279 9.35183 15.9682C10.502 16.6639 11.6521 17.3594 12.8015 18.0559C12.9686 18.1726 13.1936 18.1819 13.364 18.0658C14.3646 17.4644 15.3644 16.8613 16.3643 16.2581C17.5683 15.5319 18.7724 14.8056 19.978 14.082C19.9755 14.2591 19.9764 14.4364 19.9773 14.6135C19.9784 14.8413 19.9796 15.0691 19.9735 15.2964C19.9773 15.5225 19.8064 15.6939 19.6265 15.7915C18.5935 16.4117 17.5623 17.035 16.531 17.6584C15.3832 18.3522 14.2353 19.046 13.085 19.7357C11.7327 18.9165 10.3786 18.1006 9.02454 17.2847C8.01607 16.6771 7.00763 16.0695 6 15.4605C5.89512 15.624 5.79216 15.7888 5.69046 15.9543C6.96763 16.7279 8.24555 17.5002 9.52351 18.2724C10.5847 18.9137 11.6459 19.555 12.7068 20.1971C12.8911 20.3059 13.1263 20.4167 13.3227 20.2716C14.2387 19.7217 15.1543 19.1708 16.0698 18.6199C17.3698 17.8377 18.6697 17.0555 19.971 16.276C20.3015 16.0993 20.5417 15.7644 20.6091 15.3854V13.6371C20.5239 13.3364 20.1566 13.202 19.9074 13.3753C19.0577 13.8868 18.2078 14.3977 17.3579 14.9086C15.9412 15.7602 14.5245 16.6118 13.1091 17.4659C11.4809 16.4776 9.8513 15.4918 8.22186 14.5061C7.66891 14.1716 7.11598 13.8371 6.56313 13.5026C6.37627 13.3958 6.22118 13.2053 6.21419 12.9758C6.20488 12.7284 6.2067 12.4809 6.20852 12.2334C6.20968 12.0755 6.21084 11.9175 6.20911 11.7595C7.48669 12.5252 8.76072 13.2972 10.0347 14.0692C10.8503 14.5634 11.6659 15.0576 12.4824 15.5502C12.5382 15.5814 12.5927 15.6163 12.6471 15.6512C12.7732 15.7321 12.8996 15.8131 13.0443 15.8495C13.2148 15.8744 13.3619 15.7816 13.5038 15.6922C13.5418 15.6682 13.5794 15.6445 13.6169 15.6233C15.8536 14.2712 18.0903 12.9205 20.3275 11.5703C20.4877 11.4906 20.5691 11.3211 20.6091 11.1497V11.0436C20.578 10.8577 20.482 10.683 20.3136 10.5986C19.1686 9.90613 18.023 9.21446 16.8774 8.5228ZM6.67322 10.8692C6.7428 10.8282 6.81241 10.7872 6.88093 10.7443C7.5702 10.3293 8.25947 9.91435 8.94874 9.4994C10.3277 8.66926 11.7066 7.83913 13.0856 7.0084C14.2176 7.6917 15.3503 8.37351 16.4831 9.05532C17.6159 9.73714 18.7487 10.419 19.8807 11.1023C18.4315 11.9851 16.9771 12.8593 15.5226 13.7335C14.7094 14.2223 13.8961 14.7111 13.0837 15.2014C12.0637 14.5857 11.0429 13.9714 10.0221 13.3571C8.77851 12.6088 7.53499 11.8604 6.29301 11.1095C6.41488 11.0213 6.544 10.9452 6.67322 10.8692Z" fill="#1382C6"/>
</svg>
