<svg width="26" height="26" viewBox="0 0 26 26" fill="none" xmlns="http://www.w3.org/2000/svg">
<path opacity="0.2" d="M13 26C20.1797 26 26 20.1797 26 13C26 5.8203 20.1797 0 13 0C5.8203 0 0 5.8203 0 13C0 20.1797 5.8203 26 13 26Z" fill="#FF435A"/>
<path d="M9.5053 7.00705C10.8991 7.0398 12.2954 7.77255 12.975 9.00471C14.0645 7.0529 16.8843 6.42004 18.7705 7.58015C20.5898 8.65922 21.4237 11.0875 20.6781 13.0516C20.2319 14.2478 19.441 15.281 18.5725 16.2069C16.8703 17.9631 14.9404 19.4851 12.9742 20.9383C12.0241 20.226 11.0632 19.5252 10.1643 18.7482C8.85376 17.6569 7.54902 16.5336 6.49994 15.1835C5.80634 14.2789 5.2018 13.2538 5.03685 12.1109C4.85953 10.7347 5.32881 9.2839 6.30036 8.28179C7.12098 7.42705 8.31685 6.95302 9.5053 7.00705Z" fill="#FF435A"/>
<path d="M8.13402 13.7122H10.3922L10.9208 14.9366C10.9513 15.0074 11.0535 15.0013 11.0755 14.9275L11.7205 12.7648C11.7434 12.6878 11.8516 12.6857 11.8776 12.7617L12.9782 15.989C13.005 16.0677 13.1185 16.0616 13.1367 15.9804L14.4254 10.2473C14.4439 10.165 14.5594 10.1602 14.5846 10.2407L15.6524 13.6543C15.6632 13.6887 15.6951 13.7122 15.7311 13.7122H17.739" stroke="white" stroke-width="0.5"/>
<path fill-rule="evenodd" clip-rule="evenodd" d="M17.7835 14.2865C18.1023 14.2865 18.3608 14.03 18.3608 13.7134C18.3608 13.3969 18.1023 13.1404 17.7835 13.1404C17.4647 13.1404 17.2062 13.3969 17.2062 13.7134C17.2062 14.03 17.4647 14.2865 17.7835 14.2865Z" fill="white"/>
</svg>
