<svg width="26" height="26" viewBox="0 0 26 26" fill="none" xmlns="http://www.w3.org/2000/svg">
<path opacity="0.2" d="M13 26C20.1797 26 26 20.1797 26 13C26 5.8203 20.1797 0 13 0C5.8203 0 0 5.8203 0 13C0 20.1797 5.8203 26 13 26Z" fill="#418BCA"/>
<path fill-rule="evenodd" clip-rule="evenodd" d="M5 13C5 8.58152 8.58168 5 13 5C17.4185 5 21 8.58152 21 13C21 17.4185 17.4183 21 13 21C8.58168 21 5 17.4185 5 13ZM13.7688 11.3788C13.7688 10.9543 13.4246 10.6101 13 10.6101C12.5754 10.6102 12.2312 10.9544 12.2312 11.379C12.2313 11.8036 12.5755 12.1477 13.0001 12.1477C13.4247 12.1476 13.7688 11.8034 13.7688 11.3788ZM16.4837 15.8062C16.1727 15.8062 15.8923 15.6189 15.7732 15.3316C15.6542 15.0443 15.7199 14.7136 15.9398 14.4936C16.1597 14.2737 16.4904 14.2079 16.7778 14.3269C17.0651 14.446 17.2524 14.7264 17.2524 15.0374C17.2523 15.4619 16.9082 15.8061 16.4837 15.8062V15.8062ZM8.15024 9.5456L13 18.992L17.8502 9.5456H15.2982L13.0169 14.328L10.685 9.5456H8.15024Z" fill="#418BCA"/>
</svg>
