<svg width="26" height="26" viewBox="0 0 26 26" fill="none" xmlns="http://www.w3.org/2000/svg">
<path fill-rule="evenodd" clip-rule="evenodd" d="M13 21C17.4183 21 21 17.4183 21 13C21 8.58172 17.4183 5 13 5C8.58172 5 5 8.58172 5 13C5 17.4183 8.58172 21 13 21Z" fill="white"/>
<path opacity="0.2" d="M13 26C20.1797 26 26 20.1797 26 13C26 5.8203 20.1797 0 13 0C5.8203 0 0 5.8203 0 13C0 20.1797 5.8203 26 13 26Z" fill="#1B5C2E"/>
<path fill-rule="evenodd" clip-rule="evenodd" d="M19.8287 8.84178L13.3835 17.9671C13.2955 18.0874 13.155 18.1576 13.0065 18.1576C12.8458 18.1504 12.694 18.0777 12.5883 17.9566L11.4759 16.4817L18.1738 6.90272C14.8083 4.04339 9.76206 4.45348 6.90272 7.81897C4.04339 11.1845 4.45348 16.2307 7.81897 19.09C11.1845 21.9493 16.2307 21.5393 19.09 18.1738C21.3213 15.5477 21.6192 11.7875 19.8295 8.84339V8.84178H19.8287ZM7.01413 12.799L7.71645 12.0184L8.30575 12.7998L7.01413 12.799ZM7.93683 11.7649L7.92069 11.7835L11.2829 16.2218L12.8248 14.0147L11.0981 11.7649H7.93683Z" fill="#03976D"/>
</svg>
