<svg width="26" height="26" viewBox="0 0 26 26" fill="none" xmlns="http://www.w3.org/2000/svg">
<path opacity="0.2" d="M13 26C20.1797 26 26 20.1797 26 13C26 5.8203 20.1797 0 13 0C5.8203 0 0 5.8203 0 13C0 20.1797 5.8203 26 13 26Z" fill="#505050"/>
<path fill-rule="evenodd" clip-rule="evenodd" d="M10.5059 13.1859H8.92031V12.3107H10.1723L9.21178 9.79062L10.0046 9.47137L11.804 14.1894L14.1361 14.2046L15.9411 9.47145L16.7344 9.79062L15.7733 12.3107H17.0254V13.1864H15.4398L15.049 14.2097L17.0278 14.2224L17.0228 15.0975L14.7165 15.0829L12.9728 19.6534L11.2211 15.061L8.91786 15.0457L8.92284 14.1711L10.8865 14.1838L10.5059 13.186V13.1859ZM12.138 15.0665L12.9728 17.2547L13.8031 15.0772L12.138 15.0664V15.0665Z" fill="white"/>
</svg>
