<svg width="26" height="26" viewBox="0 0 26 26" fill="none" xmlns="http://www.w3.org/2000/svg">
<path opacity="0.2" d="M13 26C20.1797 26 26 20.1797 26 13C26 5.8203 20.1797 0 13 0C5.8203 0 0 5.8203 0 13C0 20.1797 5.8203 26 13 26Z" fill="#4BAFE3"/>
<path fill-rule="evenodd" clip-rule="evenodd" d="M9.8648 8.10837C10.4032 8.00329 10.944 8.13464 11.4784 8.20113C11.7472 8.24546 12.0808 8.27829 12.2128 8.56479C12.2 8.52703 12.1736 8.45232 12.1608 8.41456C12.3832 8.49994 12.6024 8.59516 12.8192 8.69531C12.7536 8.76016 12.6848 8.82255 12.6136 8.88083C12.6552 8.87262 12.7392 8.85703 12.7808 8.84882C12.5168 9.12546 12.1912 9.3274 11.924 9.59994C11.5264 9.99232 11.196 10.452 10.9416 10.9536C10.9552 10.9068 10.9816 10.8124 10.9952 10.7656C10.488 10.7689 9.9608 10.6835 9.4752 10.8797C8.3344 11.2647 7.5096 12.4993 7.652 13.7364C7.7104 14.0451 7.756 14.3628 7.876 14.6542C8.1704 15.251 8.6656 15.7402 9.2568 16.0226C9.8944 16.3075 10.6336 16.3017 11.2896 16.0867C11.9408 15.8346 12.5024 15.3273 12.8024 14.6813C12.9576 14.3201 13.04 13.9293 13.0616 13.537C13.9312 13.5312 14.8016 13.5386 15.6712 13.5345C15.6136 14.0336 15.6048 14.545 15.444 15.0252C15.3432 15.4135 15.156 15.769 15.0088 16.1392C14.5016 16.9691 13.8568 17.7555 12.984 18.1922C12.5664 18.4024 12.156 18.6487 11.6904 18.7324C11.2232 18.8186 10.7544 18.9294 10.2776 18.9294C9.4864 18.8473 8.68 18.725 7.9664 18.3425C7.4072 18.033 6.86 17.6669 6.4504 17.1604C6.144 16.7984 5.8472 16.4232 5.6264 15.998C5.6904 15.8847 5.668 15.764 5.5944 15.6631C5.5696 15.6852 5.5192 15.7304 5.4944 15.7525C5.3448 15.3708 5.2536 14.9702 5.152 14.5737C4.916 13.5796 5.048 12.5355 5.3808 11.5816L5.412 11.5684C6.0552 9.64344 7.9032 8.26188 9.8648 8.10837Z" fill="#4BAFE3"/>
<path fill-rule="evenodd" clip-rule="evenodd" d="M13.8928 8.35053C14.9816 7.97127 16.1752 7.97374 17.2792 8.28486C18.7992 8.79709 20.0896 10.0055 20.652 11.5512C20.8336 12.0125 20.8936 12.5084 21 12.9902V13.9466C20.8472 15.3027 20.2496 16.6194 19.2424 17.5281C18.2592 18.4771 16.9008 18.9532 15.5608 18.9384C14.6576 18.9155 13.7688 18.6511 12.984 18.1922C13.8568 17.7555 14.5016 16.9691 15.0088 16.1392C15.9856 16.4249 17.092 16.044 17.7272 15.2354C18.2912 14.5729 18.4944 13.5993 18.248 12.7579C18.032 11.8919 17.3504 11.1843 16.5304 10.9019C15.7816 10.6425 14.9216 10.7311 14.2528 11.1703C13.456 11.6325 13.0192 12.5568 12.9528 13.4705C12.0768 13.4614 11.2008 13.468 10.3256 13.4672C10.3376 12.5946 10.5496 11.7285 10.9416 10.9536C11.196 10.452 11.5264 9.99232 11.924 9.59993C12.1912 9.32739 12.5168 9.12545 12.7808 8.84881C12.7912 8.83896 12.8128 8.81844 12.8232 8.80859C13.1992 8.7068 13.5264 8.48023 13.8928 8.35053Z" fill="#A5E0FE"/>
</svg>
