<svg width="26" height="26" viewBox="0 0 26 26" fill="none" xmlns="http://www.w3.org/2000/svg">
<path opacity="0.2" d="M13 26C20.1797 26 26 20.1797 26 13C26 5.8203 20.1797 0 13 0C5.8203 0 0 5.8203 0 13C0 20.1797 5.8203 26 13 26Z" fill="#FEC001"/>
<path fill-rule="evenodd" clip-rule="evenodd" d="M12.4854 5.02657C13.3566 4.97 14.2386 5.04714 15.0811 5.278C16.6169 5.686 18.0163 6.57486 19.0526 7.77714C19.148 7.90686 19.2743 8.01171 19.3543 8.15314C19.538 8.38486 19.6989 8.63257 19.8506 8.886C19.8837 8.946 19.9297 8.99714 19.9751 9.048C20.004 9.20971 20.1263 9.33371 20.1623 9.49371C20.0974 9.34486 20.0274 9.19771 19.9377 9.062C19.7351 8.69743 19.5154 8.33686 19.2311 8.02943C19.0497 7.75 18.8057 7.52028 18.574 7.28371C18.4846 7.19143 18.3831 7.11228 18.2891 7.02514C17.9817 6.73257 17.6249 6.5 17.2774 6.25914C16.9869 6.70514 16.7123 7.16228 16.4029 7.596C16.3446 7.58971 16.286 7.58714 16.2277 7.58657C15.6477 7.58914 15.0677 7.58743 14.488 7.58914C14.4157 7.59 14.344 7.59971 14.2729 7.61086C14.2269 7.77057 14.1834 7.93228 14.1763 8.09943C14.3357 8.10114 14.4971 8.09628 14.6537 8.132C14.8457 8.19086 15.0423 8.32086 15.0854 8.53057C15.148 8.86257 14.9923 9.17914 14.8369 9.46171C14.6066 9.83971 14.3623 10.2089 14.1237 10.5814C13.9611 10.8029 13.8314 11.046 13.6703 11.2686C13.3554 11.7843 13.0129 12.2823 12.6889 12.7923C12.674 12.7929 12.6443 12.794 12.6294 12.7946C12.6246 12.8994 12.5606 12.9829 12.504 13.066C12.0586 13.7934 11.576 14.4966 11.1211 15.2183C11.034 15.3571 10.9363 15.4889 10.8511 15.6291C10.7349 15.8271 10.5906 16.0069 10.4737 16.2049C10.4663 15.8794 10.4786 15.5534 10.4474 15.2291C10.4443 14.648 10.44 14.0669 10.4397 13.4857C10.4349 13.3331 10.4003 13.1826 10.4074 13.0294C10.4017 12.5906 10.4191 12.1511 10.3926 11.7129C10.3871 11.2726 10.3877 10.832 10.3783 10.3917C10.3606 10.5486 10.3663 10.7063 10.3586 10.8637C10.3554 10.4049 10.3629 9.94543 10.356 9.48628C10.36 9.17457 10.3277 8.85371 10.4234 8.55171C10.5183 8.37 10.6694 8.21057 10.858 8.12743C11.208 8.08 11.5631 8.108 11.9151 8.09571C11.946 7.934 11.988 7.77486 12.0434 7.62C11.9629 7.60343 11.8814 7.58914 11.7989 7.58914C10.3797 7.58686 8.96057 7.58828 7.54143 7.58857C7.49514 7.58771 7.43571 7.59314 7.42114 7.64657C7.36257 7.79143 7.332 7.94686 7.31857 8.102C7.57457 8.09171 7.83114 8.09971 8.08657 8.118C8.26257 8.12686 8.43514 8.19971 8.56686 8.31628C8.76286 8.52943 8.85514 8.82686 8.84429 9.11371C8.83543 9.65743 8.84886 10.2009 8.846 10.7443C8.846 10.82 8.84914 10.896 8.85714 10.9717C8.88314 11.2186 8.86457 11.4671 8.874 11.7146C8.92371 12.1606 8.88857 12.6106 8.90886 13.058C8.92914 13.2549 8.93286 13.4534 8.91486 13.6506C8.952 13.9563 8.908 14.2663 8.95257 14.5714C8.97629 15.0094 8.93857 15.4497 8.98143 15.8869C8.99486 16.1431 8.96686 16.4017 9.00971 16.6563C9.03486 17.208 9.00114 17.7617 9.04029 18.3129C9.05629 18.4831 9.00114 18.6714 9.094 18.826C8.94486 19.0934 8.76686 19.3429 8.59743 19.5977C7.95057 19.1789 7.37743 18.6497 6.88771 18.0551C6.42 17.4951 6.03257 16.8686 5.74143 16.1997C5.34771 15.3389 5.13771 14.4003 5.07514 13.4577C5.04886 12.7909 5.07429 12.1186 5.20514 11.4629C5.38714 10.5109 5.74343 9.592 6.25771 8.77028C7.17143 7.30514 8.56486 6.13828 10.1826 5.52771C10.9183 5.24314 11.6983 5.07086 12.4854 5.02657Z" fill="#FDE498"/>
<path fill-rule="evenodd" clip-rule="evenodd" d="M12.0537 4.50086L12.0857 4.49321C12.1516 4.47733 12.2176 4.46143 12.2857 4.45971C12.8089 4.442 13.3334 4.43657 13.856 4.46971C13.9403 4.48672 14.0258 4.49645 14.1113 4.50618C14.2312 4.51982 14.351 4.53345 14.4674 4.56714C14.5715 4.57156 14.6721 4.59491 14.7728 4.61831C14.8286 4.63126 14.8844 4.64423 14.9409 4.654C14.9881 4.68069 15.0405 4.68846 15.0931 4.69626C15.1256 4.70107 15.1581 4.70588 15.1894 4.71514C15.434 4.784 15.6771 4.86 15.9163 4.94543C16.9 5.29028 17.8051 5.83971 18.5971 6.51457C18.653 6.57184 18.7132 6.62433 18.7735 6.67682L18.7735 6.67683C18.8355 6.73091 18.8976 6.78499 18.9549 6.84428C19.2377 7.11857 19.5026 7.41257 19.7406 7.72714C19.7746 7.77711 19.813 7.82399 19.8514 7.87086C19.9107 7.94326 19.97 8.01566 20.0131 8.09943C20.3149 8.50828 20.5523 8.95971 20.774 9.41571C21.0589 10.0694 21.2914 10.7517 21.4031 11.458C21.4114 11.5103 21.4201 11.5625 21.4288 11.6148L21.4288 11.6149L21.4288 11.6149C21.4626 11.8185 21.4966 12.0223 21.5031 12.2291C21.5042 12.2893 21.5115 12.3489 21.5189 12.4085L21.5189 12.4086C21.5279 12.4816 21.537 12.5546 21.5343 12.6286C21.5332 12.729 21.5341 12.8295 21.535 12.9301C21.5377 13.2283 21.5403 13.5267 21.4914 13.8217C21.4817 14.062 21.4409 14.2983 21.3954 14.534C21.3554 14.7989 21.298 15.0617 21.2166 15.3171C20.8489 16.6386 20.1457 17.8623 19.2009 18.8551C18.6646 19.4334 18.032 19.9149 17.3649 20.332L17.3162 20.3585L17.3162 20.3585C16.9432 20.5622 16.5686 20.7667 16.1686 20.9131C16.1238 20.9295 16.0791 20.9461 16.0343 20.9627C15.8404 21.0348 15.6462 21.1069 15.4454 21.1569C15.2744 21.2222 15.096 21.2611 14.9176 21.3L14.9176 21.3L14.9174 21.3C14.8331 21.3184 14.7487 21.3368 14.6651 21.358C14.5996 21.3669 14.5344 21.3774 14.4692 21.3879L14.469 21.3879C14.3418 21.4083 14.2147 21.4287 14.0857 21.4374C13.9578 21.4695 13.8272 21.4747 13.6965 21.4798C13.6074 21.4833 13.5183 21.4868 13.43 21.4989C13.1057 21.5126 12.7806 21.5066 12.4563 21.4949C12.3886 21.4853 12.32 21.4827 12.2515 21.48C12.1348 21.4755 12.0184 21.4709 11.9066 21.4326C11.8019 21.4278 11.6989 21.4111 11.5959 21.3944L11.5959 21.3944C11.5143 21.3811 11.4326 21.3679 11.35 21.3606L11.3523 21.3123C11.2815 21.3492 11.2006 21.328 11.1281 21.3089L11.1269 21.3086C11.0415 21.2813 10.9547 21.2596 10.8679 21.2379C10.7675 21.2128 10.6671 21.1877 10.5691 21.154C10.4209 21.1184 10.2789 21.0643 10.1368 21.0102L10.1367 21.0102L10.1367 21.0102C10.035 20.9715 9.93334 20.9328 9.82943 20.9009C9.38714 20.7211 8.95857 20.5071 8.55429 20.2529C8.48076 20.2134 8.41216 20.1663 8.3436 20.1193C8.27416 20.0716 8.20476 20.024 8.13029 19.9843C7.53771 19.548 6.97314 19.0643 6.50943 18.49C6.42229 18.3954 6.33943 18.2969 6.27143 18.1874C5.916 17.764 5.64086 17.2791 5.38371 16.7917C5.25914 16.5448 5.15453 16.2891 5.04997 16.0335L5.00171 15.9157C4.96237 15.825 4.93611 15.7299 4.90984 15.6347C4.89376 15.5764 4.87767 15.5181 4.85857 15.4609C4.73514 15.068 4.65257 14.6634 4.58514 14.2577C4.5779 14.1382 4.56157 14.0197 4.54525 13.9012C4.5223 13.7346 4.49938 13.5682 4.50171 13.3994C4.50171 13.3053 4.50072 13.2111 4.49973 13.1169C4.49621 12.7816 4.49268 12.4458 4.53371 12.1129C4.55229 12.0094 4.56086 11.9049 4.56543 11.8003C4.5675 11.7296 4.58488 11.6618 4.60227 11.594C4.61604 11.5403 4.62981 11.4866 4.636 11.4314C4.65401 11.2984 4.6839 11.1678 4.7138 11.0372L4.7138 11.0372C4.72564 10.9855 4.73747 10.9339 4.74857 10.882C4.76278 10.7969 4.7902 10.7154 4.81762 10.634C4.84091 10.5647 4.86421 10.4955 4.87943 10.424C4.96714 10.1434 5.066 9.86514 5.18343 9.59486C5.47914 8.93057 5.83686 8.28971 6.29714 7.72514C7.268 6.44543 8.63229 5.48486 10.136 4.93371C10.4957 4.81343 10.858 4.69857 11.23 4.62286C11.3469 4.60665 11.4623 4.58245 11.5775 4.55827L11.5776 4.55827C11.6148 4.55047 11.6519 4.54267 11.6891 4.53514C11.7469 4.52307 11.8057 4.52134 11.8644 4.51961C11.9281 4.51773 11.9916 4.51586 12.0537 4.50086ZM12.4854 5.02657C11.6983 5.07086 10.9183 5.24314 10.1826 5.52771C8.56486 6.13828 7.17143 7.30514 6.25771 8.77028C5.74343 9.592 5.38714 10.5109 5.20514 11.4629C5.07429 12.1186 5.04886 12.7909 5.07514 13.4577C5.13771 14.4003 5.34771 15.3389 5.74143 16.1997C6.03257 16.8686 6.42 17.4951 6.88771 18.0551C7.37743 18.6497 7.95057 19.1789 8.59743 19.5977C8.68547 19.6665 8.78183 19.7219 8.87825 19.7772C8.93235 19.8083 8.98647 19.8394 9.03914 19.8729C9.94343 20.3966 10.952 20.7414 11.9891 20.874C12.9143 20.9894 13.8609 20.9523 14.7697 20.74C16.5026 20.3554 18.0991 19.3686 19.2054 17.9791C19.3213 17.8448 19.4209 17.6981 19.5205 17.5514L19.5205 17.5514C19.5785 17.4659 19.6365 17.3804 19.6977 17.2974C20.2634 16.4217 20.6546 15.4337 20.8417 14.408C20.8518 14.3313 20.8653 14.255 20.8788 14.1787L20.8788 14.1785C20.9048 14.0318 20.9308 13.885 20.9323 13.7354C20.7676 13.7556 20.6021 13.7661 20.4365 13.7766C20.2801 13.7866 20.1237 13.7965 19.968 13.8146C19.7682 13.8295 19.5685 13.8459 19.3688 13.8623L19.3687 13.8623L19.3683 13.8624C19.1792 13.8779 18.9901 13.8934 18.8009 13.9077C18.6677 13.9134 18.5349 13.9229 18.4034 13.9431C18.3142 14.3725 18.2178 14.8003 18.1214 15.2281L18.1214 15.2281C18.0333 15.6191 17.9452 16.0101 17.8626 16.4023C17.7904 16.2454 17.7225 16.0866 17.6547 15.9278L17.6547 15.9278C17.606 15.8139 17.5574 15.7 17.5071 15.5869C17.3989 15.3717 17.2991 15.1526 17.2103 14.9289C17.1367 14.7791 17.0746 14.6246 17.0124 14.47C16.9617 14.3441 16.9111 14.2182 16.8543 14.0949C16.7403 14.0969 16.6266 14.1063 16.5131 14.1166C16.2496 14.1579 15.9841 14.1835 15.7187 14.2091C15.6223 14.2184 15.526 14.2277 15.4297 14.2377C15.2225 14.2398 15.0168 14.263 14.8112 14.2862L14.8111 14.2862C14.6478 14.3046 14.4846 14.323 14.3206 14.3309L14.3431 14.3136L14.3432 14.3136C14.37 14.2931 14.3968 14.2726 14.4231 14.2514C14.7403 13.9712 15.0555 13.6887 15.3707 13.4062L15.3708 13.4061C15.6504 13.1555 15.9299 12.905 16.2109 12.656C16.0588 12.3174 15.9043 11.9797 15.7498 11.6421L15.7497 11.6418C15.5579 11.2225 15.3661 10.8032 15.1789 10.382C15.6391 10.6297 16.0891 10.8958 16.5391 11.1619C16.8011 11.3169 17.0631 11.4718 17.3271 11.6231C17.3623 11.6497 17.4054 11.6409 17.4337 11.6086C17.6874 11.3786 17.9418 11.1495 18.1962 10.9202C18.558 10.5943 18.9198 10.2684 19.2794 9.94028C19.1778 10.3527 19.085 10.7672 18.9921 11.1817C18.9048 11.5714 18.8174 11.9612 18.7229 12.3491C18.7219 12.3556 18.7204 12.3625 18.7189 12.3695C18.7116 12.4031 18.7035 12.4407 18.7431 12.4563C18.9299 12.5638 19.1155 12.6732 19.3011 12.7825L19.3012 12.7826C19.5357 12.9207 19.7701 13.0587 20.0066 13.1931C20.0787 13.2357 20.1506 13.2788 20.2225 13.3219L20.2226 13.3219L20.2226 13.3219C20.4613 13.4649 20.7003 13.6081 20.9486 13.7326C20.9502 13.6172 20.9545 13.5018 20.9587 13.3864V13.3863C20.9684 13.1244 20.9781 12.8624 20.9574 12.6009C20.9094 11.5246 20.6234 10.4654 20.1623 9.49371C20.1449 9.41665 20.1076 9.34794 20.0703 9.27935C20.0302 9.20552 19.9901 9.13183 19.9751 9.048L19.9731 9.04571C19.9283 8.9956 19.8832 8.9451 19.8506 8.886C19.6989 8.63257 19.538 8.38486 19.3543 8.15314C19.3064 8.06856 19.242 7.99706 19.1776 7.92549L19.1776 7.92549C19.1343 7.8774 19.0909 7.82928 19.0526 7.77714C18.0163 6.57486 16.6169 5.686 15.0811 5.278C14.2386 5.04714 13.3566 4.97 12.4854 5.02657ZM17.8076 11.8854C17.909 11.7984 18.0105 11.7113 18.1123 11.6246C18.1471 11.5955 18.1809 11.5652 18.2147 11.5349C18.2901 11.4673 18.3656 11.3996 18.452 11.346C18.447 11.4348 18.4279 11.5214 18.4087 11.6079C18.3993 11.6508 18.3898 11.6937 18.382 11.7369C18.3505 11.9067 18.3166 12.076 18.2828 12.2452C18.254 12.3889 18.2253 12.5326 18.198 12.6766C18.3653 12.7655 18.5284 12.8622 18.6916 12.9588C18.8186 13.0341 18.9457 13.1094 19.0749 13.1811C19.1151 13.2061 19.1565 13.2291 19.1979 13.2521C19.2765 13.2959 19.3551 13.3396 19.4254 13.3963C19.3032 13.424 19.1788 13.4282 19.0543 13.4325C18.9695 13.4354 18.8847 13.4383 18.8006 13.4486C18.5549 13.4666 18.3093 13.4808 18.0636 13.4951L18.0634 13.4951C18.0083 13.7021 17.9569 13.9101 17.9054 14.1181C17.8447 14.3637 17.784 14.6093 17.7171 14.8531C17.6002 14.6297 17.4995 14.3981 17.3988 14.1665C17.3159 13.9759 17.233 13.7853 17.1411 13.5994C16.9542 13.5913 16.7679 13.6101 16.5815 13.6289C16.4722 13.6399 16.3629 13.651 16.2534 13.6566C16.185 13.6583 16.1168 13.6651 16.0486 13.6718C15.9402 13.6826 15.8319 13.6933 15.7229 13.684C15.8301 13.5866 15.9378 13.4896 16.0454 13.3925C16.2864 13.1752 16.5275 12.9579 16.7649 12.7363C16.6907 12.5837 16.6187 12.4301 16.5468 12.2765C16.4713 12.1155 16.3959 11.9545 16.318 11.7949C16.312 11.7827 16.3059 11.7705 16.2998 11.7584C16.2577 11.6746 16.2155 11.5906 16.1903 11.5C16.4108 11.6186 16.6261 11.7467 16.8415 11.8749C17.0345 11.9898 17.2276 12.1048 17.4246 12.2129C17.5526 12.1042 17.6801 11.9948 17.8076 11.8854Z" fill="#FEC001"/>
<path fill-rule="evenodd" clip-rule="evenodd" d="M7.42114 7.64656C7.43572 7.59313 7.49514 7.58771 7.54143 7.58856C8.96057 7.58828 10.3797 7.58685 11.7989 7.58913C11.8814 7.58913 11.9629 7.60342 12.0434 7.61999C11.988 7.77485 11.946 7.93399 11.9151 8.09571C11.5631 8.10799 11.208 8.07999 10.858 8.12742C10.6694 8.21056 10.5183 8.36999 10.4234 8.55171C10.3277 8.85371 10.36 9.17456 10.356 9.48628C10.3629 9.94542 10.3554 10.4048 10.3586 10.8637C10.3663 10.7063 10.3606 10.5486 10.3783 10.3917C10.3877 10.832 10.3871 11.2726 10.3926 11.7128C10.4191 12.1511 10.4017 12.5906 10.4074 13.0294C10.4003 13.1826 10.4349 13.3331 10.4397 13.4857C10.44 14.0668 10.4443 14.648 10.4474 15.2291C10.4786 15.5534 10.4663 15.8794 10.4737 16.2048C10.5906 16.0068 10.7349 15.8271 10.8511 15.6291C10.9363 15.4888 11.034 15.3571 11.1211 15.2183C11.576 14.4966 12.0586 13.7934 12.504 13.066C12.5606 12.9828 12.6246 12.8994 12.6294 12.7946C12.6443 12.794 12.674 12.7928 12.6889 12.7923C13.0129 12.2823 13.3554 11.7843 13.6703 11.2686C13.8314 11.046 13.9611 10.8028 14.1237 10.5814C14.3623 10.2088 14.6066 9.83971 14.8369 9.46171C14.9923 9.17913 15.148 8.86256 15.0854 8.53056C15.0423 8.32085 14.8457 8.19085 14.6537 8.13199C14.4971 8.09628 14.3357 8.10113 14.1763 8.09942C14.1834 7.93228 14.2269 7.77056 14.2729 7.61085C14.344 7.59971 14.4157 7.58999 14.488 7.58913C15.0677 7.58742 15.6477 7.58913 16.2277 7.58656C16.286 7.58713 16.3446 7.58971 16.4029 7.59599C16.7971 7.63371 17.1949 7.60028 17.5903 7.61228C17.5371 7.76542 17.4886 7.92028 17.4417 8.07571C17.246 8.09885 17.038 8.09942 16.864 8.20342C16.6397 8.33342 16.4497 8.51371 16.266 8.69456C15.9686 8.98828 15.7526 9.34828 15.5157 9.68971C13.8157 12.3308 12.1123 14.97 10.4103 17.6103C10.1557 18.0114 9.88829 18.4048 9.644 18.8123C9.46057 18.8188 9.27686 18.8091 9.094 18.826C9.00114 18.6714 9.05629 18.4831 9.04029 18.3128C9.00114 17.7617 9.03486 17.208 9.00972 16.6563C8.96686 16.4017 8.99486 16.1431 8.98143 15.8868C8.93857 15.4497 8.97629 15.0094 8.95257 14.5714C8.908 14.2663 8.952 13.9563 8.91486 13.6506C8.93286 13.4534 8.92914 13.2548 8.90886 13.058C8.88857 12.6106 8.92372 12.1606 8.874 11.7146C8.86457 11.4671 8.88314 11.2186 8.85714 10.9717C8.84914 10.896 8.846 10.82 8.846 10.7443C8.84886 10.2008 8.83543 9.65742 8.84429 9.11371C8.85514 8.82685 8.76286 8.52942 8.56686 8.31628C8.43514 8.19971 8.26257 8.12685 8.08657 8.11799C7.83114 8.09971 7.57457 8.09171 7.31857 8.10199C7.332 7.94685 7.36257 7.79142 7.42114 7.64656Z" fill="#FEC001"/>
<path fill-rule="evenodd" clip-rule="evenodd" d="M15.2794 14.3634C15.6074 14.3851 15.9329 14.2814 16.262 14.2969C16.2177 14.414 16.1463 14.5174 16.0749 14.6194C15.2003 15.9649 14.3291 17.3123 13.4537 18.6571C13.4194 18.7106 13.388 18.7654 13.3571 18.8209C13.0174 18.8303 12.6774 18.8277 12.3377 18.8209C12.3951 18.71 12.4674 18.6077 12.5371 18.5046C13.3397 17.2703 14.1397 16.0346 14.9434 14.8011C15.0434 14.6469 15.1331 14.4797 15.2794 14.3634Z" fill="#FEC001"/>
<path fill-rule="evenodd" clip-rule="evenodd" d="M16.9314 14.6554C16.9926 14.7577 17.062 14.86 17.0803 14.9806C17.1097 15.1629 17.2491 15.3037 17.2774 15.4869C17.3066 15.5114 17.3414 15.5323 17.3589 15.5683C17.3497 15.6531 17.2957 15.7251 17.2554 15.7983C16.686 16.6857 16.1166 17.5734 15.5477 18.4611C15.4666 18.5917 15.3774 18.7169 15.3026 18.8509C14.9511 18.8597 14.5991 18.8549 14.2474 18.8526C14.866 17.8714 15.4974 16.8983 16.1177 15.918C16.3917 15.4991 16.6494 15.0691 16.9314 14.6554Z" fill="#FEC001"/>
<path fill-rule="evenodd" clip-rule="evenodd" d="M16.4029 7.596C16.6142 7.29974 16.8093 6.99255 17.0044 6.68544C17.0949 6.54296 17.1853 6.40049 17.2774 6.25914C17.3246 6.29185 17.372 6.3244 17.4193 6.35698C17.7209 6.56427 18.0235 6.7723 18.2891 7.02514C18.3249 7.05826 18.3617 7.09022 18.3985 7.12219L18.3985 7.12221C18.4585 7.17435 18.5186 7.22651 18.574 7.28371C18.6078 7.31819 18.6418 7.35253 18.6759 7.38689C18.8755 7.5883 19.0762 7.79072 19.2311 8.02943C19.5154 8.33685 19.7351 8.69743 19.9377 9.062C20.0274 9.19771 20.0974 9.34485 20.1623 9.49371C20.6234 10.4654 20.9094 11.5246 20.9574 12.6009C20.9781 12.8624 20.9684 13.1244 20.9587 13.3863V13.3863L20.9587 13.3864C20.9545 13.5018 20.9502 13.6172 20.9486 13.7326C20.7003 13.6081 20.4612 13.4649 20.2226 13.3219L20.2226 13.3219L20.2225 13.3218C20.1506 13.2788 20.0787 13.2357 20.0066 13.1931C19.7701 13.0587 19.5357 12.9206 19.3012 12.7826L19.3012 12.7825C19.1155 12.6732 18.9299 12.5638 18.7431 12.4563C18.7035 12.4407 18.7116 12.4031 18.7189 12.3695C18.7204 12.3625 18.7219 12.3556 18.7229 12.3491C18.8174 11.9612 18.9047 11.5715 18.992 11.1819L18.9921 11.1817C19.0849 10.7672 19.1778 10.3527 19.2794 9.94028C18.9198 10.2684 18.558 10.5943 18.1963 10.9202C17.9418 11.1494 17.6874 11.3786 17.4337 11.6086C17.4054 11.6409 17.3623 11.6497 17.3271 11.6231C17.0631 11.4718 16.8011 11.3169 16.5391 11.1619C16.0891 10.8958 15.6391 10.6297 15.1789 10.382C15.3661 10.8033 15.558 11.2227 15.7499 11.6421L15.7499 11.6422C15.9044 11.9798 16.0588 12.3174 16.2109 12.656C15.9299 12.905 15.6503 13.1556 15.3707 13.4062L15.3706 13.4063C15.0554 13.6887 14.7403 13.9712 14.4231 14.2514C14.3968 14.2726 14.37 14.2931 14.3431 14.3136L14.3206 14.3309C14.4846 14.323 14.6478 14.3046 14.8111 14.2862C15.0168 14.263 15.2225 14.2398 15.4297 14.2377C15.526 14.2277 15.6223 14.2184 15.7187 14.2091H15.7187C15.9842 14.1835 16.2497 14.1579 16.5131 14.1166C16.6266 14.1063 16.7403 14.0969 16.8543 14.0949C16.9111 14.2182 16.9617 14.3441 17.0124 14.47L17.0124 14.47L17.0124 14.47C17.0746 14.6246 17.1367 14.7791 17.2103 14.9289C17.2991 15.1526 17.3989 15.3717 17.5071 15.5869C17.5574 15.6999 17.606 15.8138 17.6546 15.9276L17.6547 15.9278L17.6547 15.9278C17.7225 16.0866 17.7904 16.2454 17.8626 16.4023C17.9452 16.0101 18.0333 15.6191 18.1214 15.2281L18.1214 15.2281C18.2178 14.8003 18.3142 14.3725 18.4034 13.9431C18.5349 13.9229 18.6677 13.9134 18.8009 13.9077C18.9902 13.8934 19.1795 13.8779 19.3687 13.8623C19.5685 13.8459 19.7682 13.8295 19.968 13.8146C20.1237 13.7965 20.2801 13.7866 20.4365 13.7766L20.4365 13.7766C20.6021 13.7661 20.7676 13.7556 20.9323 13.7354C20.9308 13.885 20.9048 14.0318 20.8788 14.1785L20.8788 14.1786C20.8653 14.2549 20.8518 14.3313 20.8417 14.408C20.6546 15.4337 20.2634 16.4217 19.6977 17.2974C19.6365 17.3804 19.5785 17.4659 19.5205 17.5514L19.5205 17.5514C19.4209 17.6981 19.3213 17.8448 19.2054 17.9791C18.0991 19.3686 16.5026 20.3554 14.7697 20.74C13.8609 20.9523 12.9143 20.9894 11.9891 20.874C10.952 20.7414 9.94343 20.3966 9.03914 19.8729C8.98648 19.8394 8.93237 19.8083 8.87829 19.7773L8.87825 19.7772C8.78182 19.7219 8.68546 19.6665 8.59743 19.5977C8.63636 19.5391 8.67575 19.4809 8.71514 19.4226C8.84714 19.2273 8.97913 19.032 9.094 18.826C9.20737 18.8155 9.32107 18.8153 9.43483 18.8151H9.43492C9.50461 18.8149 9.57433 18.8148 9.644 18.8123C9.80117 18.5501 9.96792 18.2938 10.1347 18.0375L10.1347 18.0375C10.2271 17.8954 10.3195 17.7533 10.4103 17.6103C10.9456 16.7798 11.4811 15.9494 12.0166 15.1191C13.1835 13.3096 14.3504 11.5001 15.5157 9.68971C15.5653 9.61826 15.6139 9.546 15.6626 9.4737C15.8465 9.20051 16.0308 8.92682 16.266 8.69457C16.4497 8.51371 16.6397 8.33343 16.864 8.20343C17.0063 8.11836 17.1714 8.10249 17.3339 8.08687C17.37 8.08339 17.4061 8.07993 17.4417 8.07571C17.4886 7.92028 17.5371 7.76543 17.5903 7.61228C17.4362 7.60761 17.2817 7.60983 17.1273 7.61205C16.8854 7.61553 16.6435 7.61901 16.4029 7.596ZM15.2794 14.3634C15.1583 14.4597 15.0759 14.5909 14.9944 14.7208C14.9775 14.7477 14.9606 14.7746 14.9434 14.8011C14.4632 15.5382 13.9843 16.276 13.5053 17.0138L13.505 17.0143L13.5037 17.0163C13.1817 17.5124 12.8596 18.0086 12.5371 18.5046L12.5094 18.5455C12.4486 18.6349 12.3875 18.7247 12.3377 18.8209C12.6774 18.8277 13.0174 18.8303 13.3571 18.8209C13.388 18.7654 13.4194 18.7106 13.4537 18.6571C13.9418 17.9074 14.4285 17.1569 14.9152 16.4063C15.3015 15.8105 15.6878 15.2148 16.0749 14.6194C16.1463 14.5174 16.2177 14.414 16.262 14.2969C16.1015 14.2893 15.942 14.3101 15.7826 14.3309C15.615 14.3527 15.4475 14.3746 15.2794 14.3634ZM16.4436 15.4081C16.6033 15.1553 16.763 14.9025 16.9314 14.6554C16.9386 14.6674 16.9459 14.6795 16.9532 14.6915C17.0082 14.782 17.0641 14.8742 17.0803 14.9806C17.0949 15.0712 17.1367 15.1515 17.1785 15.2319C17.2209 15.3133 17.2632 15.3947 17.2774 15.4869C17.2839 15.4923 17.2906 15.4976 17.2974 15.5028C17.3212 15.5214 17.3453 15.5403 17.3589 15.5683C17.3517 15.6349 17.3169 15.6936 17.2828 15.7511C17.2734 15.7669 17.2641 15.7825 17.2554 15.7983C16.686 16.6857 16.1166 17.5734 15.5477 18.4611C15.5181 18.5088 15.4874 18.5558 15.4567 18.6027C15.4034 18.6843 15.3501 18.7658 15.3026 18.8509C15.0066 18.8583 14.7103 18.856 14.414 18.8538C14.3585 18.8534 14.3029 18.8529 14.2474 18.8526C14.5775 18.329 14.9112 17.8078 15.2449 17.2865C15.5367 16.8309 15.8284 16.3752 16.1177 15.918C16.2281 15.7493 16.3358 15.5787 16.4436 15.4081Z" fill="#BD8F00"/>
<path fill-rule="evenodd" clip-rule="evenodd" d="M18.1123 11.6246C18.2246 11.5309 18.3269 11.4237 18.452 11.346C18.4446 11.4789 18.4054 11.6066 18.382 11.7369C18.3237 12.0509 18.2574 12.3631 18.198 12.6766C18.4957 12.8349 18.78 13.0174 19.0749 13.1811C19.1914 13.2534 19.318 13.3097 19.4254 13.3963C19.22 13.4429 19.0083 13.4231 18.8006 13.4486C18.5549 13.4666 18.3091 13.4808 18.0634 13.4951C17.9431 13.9466 17.8406 14.4029 17.7171 14.8531C17.504 14.4457 17.3446 14.0111 17.1411 13.5994C16.8446 13.5866 16.5494 13.6414 16.2534 13.6566C16.0763 13.6611 15.9006 13.6991 15.7229 13.684C16.0703 13.3686 16.4214 13.0569 16.7649 12.7363C16.6129 12.4237 16.4703 12.1069 16.318 11.7949C16.2703 11.6989 16.2191 11.6037 16.1903 11.5C16.6086 11.7249 17.008 11.9843 17.4246 12.2129C17.6546 12.0177 17.8826 11.8203 18.1123 11.6246Z" fill="#BD8F00"/>
</svg>
