<svg width="26" height="26" viewBox="0 0 26 26" fill="none" xmlns="http://www.w3.org/2000/svg">
<path opacity="0.2" d="M13 26C20.1797 26 26 20.1797 26 13C26 5.8203 20.1797 0 13 0C5.8203 0 0 5.8203 0 13C0 20.1797 5.8203 26 13 26Z" fill="#47A348"/>
<path d="M7.23939 6.71204C7.59754 7.46817 7.83652 8.28123 7.9385 9.11082C8.05522 10.1896 7.91946 11.3161 8.31263 12.3514C8.76478 13.5514 10.0758 14.3327 11.3487 14.2237C11.8186 16.0084 12.1829 17.8206 12.4416 19.6469C12.4545 19.7761 12.5657 19.8502 12.6719 19.9022C12.9263 19.3684 12.9982 18.7696 13.1818 18.2106C13.6967 16.6243 14.4246 15.0986 15.3947 13.7369C15.8843 14.0027 16.4673 14.1331 17.0171 13.9929C17.7427 13.8122 18.33 13.2655 18.698 12.6325C19.0107 12.0649 19.3418 11.4961 19.8038 11.0345C19.9426 10.8925 20.1109 10.7829 20.2909 10.7002C19.2011 10.3622 18.0191 10.189 16.8955 10.4614C16.1337 10.6402 15.4272 11.1263 15.0771 11.8359C14.8762 12.2265 14.8553 12.6986 15.0298 13.1027C15.5464 12.4298 16.1386 11.7973 16.8672 11.3492C17.4754 10.9782 18.1942 10.7094 18.9167 10.8067C18.5008 10.8471 18.1272 11.0467 17.7365 11.1784C16.5871 11.7159 15.7092 12.682 14.9739 13.6892C14.2747 14.6627 13.7077 15.7243 13.2199 16.8165C12.7315 15.1218 12.0975 13.4657 11.2946 11.8941C10.9334 11.1888 10.5574 10.4878 10.0856 9.84857C9.71331 9.32327 9.27713 8.84939 8.83297 8.38531C9.11987 8.59347 9.37604 8.83959 9.62731 9.08817C10.9524 10.4125 11.9569 12.0398 12.6246 13.7841C12.9281 13.6365 13.239 13.4786 13.4681 13.2251C13.8152 12.8443 13.9719 12.3269 14.0001 11.8218C14.0358 11.1098 13.8871 10.3696 13.4841 9.77143C12.9066 8.87755 12.006 8.24511 11.0587 7.78715C9.8583 7.21715 8.55529 6.88041 7.23939 6.71204Z" fill="#47A348"/>
<path fill-rule="evenodd" clip-rule="evenodd" d="M7.23939 6.71204C8.55529 6.88041 9.8583 7.21715 11.0587 7.78715C12.006 8.24511 12.9066 8.87755 13.4841 9.77143C13.8871 10.3696 14.0358 11.1098 14.0001 11.8218C13.9719 12.3269 13.8152 12.8443 13.4681 13.2251C13.239 13.4786 12.9281 13.6365 12.6246 13.7841C11.9569 12.0398 10.9524 10.4125 9.62731 9.08817C9.37604 8.83959 9.11987 8.59347 8.83297 8.38531C9.27713 8.84939 9.71331 9.32327 10.0856 9.84857C10.5574 10.4878 10.9334 11.1888 11.2946 11.8941C12.0975 13.4657 12.7315 15.1218 13.2199 16.8165C13.7077 15.7243 14.2747 14.6627 14.9739 13.6892C15.7092 12.682 16.5871 11.7159 17.7365 11.1784C18.1272 11.0467 18.5008 10.8471 18.9167 10.8067C18.1942 10.7094 17.4754 10.9782 16.8672 11.3492C16.1386 11.7973 15.5464 12.4298 15.0298 13.1027C14.8553 12.6986 14.8762 12.2265 15.0771 11.8359C15.4272 11.1263 16.1337 10.6402 16.8955 10.4614C18.0191 10.189 19.2011 10.3622 20.2909 10.7002C20.1109 10.7829 19.9426 10.8925 19.8038 11.0345C19.3418 11.4961 19.0107 12.0649 18.698 12.6325C18.33 13.2655 17.7427 13.8122 17.0171 13.9929C16.4673 14.1331 15.8843 14.0027 15.3947 13.7369C14.4246 15.0986 13.6967 16.6243 13.1818 18.2106C12.9982 18.7696 12.9263 19.3684 12.6719 19.9022C12.5657 19.8502 12.4545 19.7761 12.4416 19.6469C12.1829 17.8206 11.8186 16.0084 11.3487 14.2237C10.0758 14.3327 8.76478 13.5514 8.31263 12.3514C7.91946 11.3161 8.05522 10.1896 7.9385 9.11082C7.83652 8.28123 7.59754 7.46817 7.23939 6.71204Z" fill="#47A348"/>
</svg>
