<svg width="26" height="26" viewBox="0 0 26 26" fill="none" xmlns="http://www.w3.org/2000/svg">
<path opacity="0.2" d="M13 26C20.1797 26 26 20.1797 26 13C26 5.8203 20.1797 0 13 0C5.8203 0 0 5.8203 0 13C0 20.1797 5.8203 26 13 26Z" fill="#2C5F93"/>
<path fill-rule="evenodd" clip-rule="evenodd" d="M13.4997 12.2116L7 15.7705V17.7265L13.4997 14.1676L19.9993 17.7265V15.7705L13.4997 12.2116Z" fill="#1269AB"/>
<path fill-rule="evenodd" clip-rule="evenodd" d="M8.89894 10.053L13.4997 7.57602L18.1003 10.053L19.8179 9.40175L13.4997 6L7.18143 9.40175L8.89894 10.053Z" fill="#3FBCED"/>
<path fill-rule="evenodd" clip-rule="evenodd" d="M18.1003 10.4671V15.9446L17.417 16.3125L18.8683 17.1071L19.9993 16.4981V9.74715L18.1003 10.4671ZM9.58234 16.3125L8.89339 15.9416V10.465L7 9.7471V16.4981L8.13105 17.1071L9.58234 16.3125Z" fill="#1269AB"/>
<path fill-rule="evenodd" clip-rule="evenodd" d="M17.0119 16.5306L13.4997 18.4216L9.98743 16.5306L8.53615 17.3252L13.4997 19.9976L18.4632 17.3252L17.0119 16.5306Z" fill="#3FBCED"/>
</svg>
