<svg width="26" height="26" viewBox="0 0 26 26" fill="none" xmlns="http://www.w3.org/2000/svg">
<path opacity="0.2" d="M13 26C20.1797 26 26 20.1797 26 13C26 5.8203 20.1797 0 13 0C5.8203 0 0 5.8203 0 13C0 20.1797 5.8203 26 13 26Z" fill="#8E4BDC"/>
<path fill-rule="evenodd" clip-rule="evenodd" d="M12.6406 5.0812C14.5534 4.98552 16.4903 5.61105 17.9817 6.81226C19.3067 7.85427 20.2691 9.33688 20.717 10.9594C21.1672 12.6929 21.0466 14.5839 20.3174 16.2257C19.5407 18.0227 18.0693 19.5061 16.2804 20.3013C14.7978 20.9863 13.1037 21.1471 11.5037 20.8649C9.67216 20.5288 7.97488 19.515 6.80261 18.0685C5.66251 16.6888 5.0193 14.9095 5.01126 13.1198C4.98955 11.4515 5.50975 9.7799 6.48663 8.42593C7.8792 6.44402 10.2189 5.17125 12.6406 5.0812ZM12.483 6.36603C10.5108 6.48904 8.639 7.57125 7.50533 9.18412C6.55096 10.5172 6.12322 12.2153 6.32905 13.8418C6.4794 15.2022 7.08322 16.5023 8.0006 17.5154C9.11739 18.7648 10.7182 19.5785 12.3922 19.7103C13.6062 19.8285 14.8557 19.5978 15.9516 19.0615C17.4679 18.3218 18.6909 16.9936 19.2818 15.4113C19.7658 14.1554 19.839 12.7532 19.5238 11.4474C19.1419 9.86512 18.1489 8.44522 16.8078 7.52623C15.5576 6.65628 14.0002 6.2398 12.483 6.36603ZM9.85911 10.4216C9.48389 10.4195 9.10888 10.4173 8.73387 10.4312C8.83466 10.6924 8.90933 10.9622 8.98403 11.2321C9.03508 11.4165 9.08613 11.6009 9.14553 11.7827C8.82623 11.7845 8.50666 11.7843 8.18698 11.784C7.94721 11.7838 7.70737 11.7836 7.46754 11.7843C7.41206 12.0987 7.36382 12.4147 7.35337 12.7339C7.65212 12.7328 7.95072 12.7331 8.2493 12.7334C8.64741 12.7338 9.04549 12.7342 9.44382 12.7315C9.51538 12.9357 9.57648 13.1431 9.63758 13.3505L9.63759 13.3505C9.21459 13.3483 8.79135 13.3486 8.36813 13.3488C8.02955 13.349 7.69098 13.3492 7.35256 13.3481C7.3621 13.6635 7.41401 13.9749 7.46566 14.2848L7.46754 14.2961C7.72159 14.2958 7.97572 14.2965 8.22987 14.2972C8.80179 14.2987 9.37385 14.3002 9.94553 14.2913C10.0185 14.4851 10.0892 14.6798 10.16 14.8745C10.3265 15.3324 10.493 15.7904 10.6876 16.2378C10.8225 16.2373 10.9575 16.2388 11.0924 16.2403C11.3935 16.2437 11.6946 16.247 11.995 16.2281C12.0963 15.8854 12.2031 15.544 12.3099 15.2026C12.5479 14.4417 12.7859 13.6805 12.9646 12.9035C13.2504 13.9426 13.5859 14.9671 13.9211 15.9913C13.948 16.0734 13.9749 16.1556 14.0018 16.2378C14.4344 16.245 14.8669 16.2442 15.2995 16.2378C15.4485 15.8886 15.5817 15.5332 15.7149 15.1778C15.8261 14.881 15.9373 14.5843 16.0577 14.2913C16.5743 14.3028 17.0909 14.3012 17.6075 14.2995C17.915 14.2985 18.2225 14.2975 18.5301 14.2993C18.5823 13.9841 18.6241 13.6665 18.649 13.3481C17.8844 13.3481 17.119 13.3481 16.3536 13.3473C16.3658 13.3097 16.3781 13.272 16.3904 13.2343C16.4444 13.0691 16.4985 12.9034 16.5489 12.7371C16.9691 12.7318 17.3893 12.7325 17.8095 12.7333C18.0896 12.7338 18.3697 12.7343 18.6499 12.7331C18.6249 12.4147 18.5839 12.0979 18.5301 11.7827C18.3163 11.7821 18.1025 11.7824 17.8887 11.7827C17.5412 11.7833 17.1936 11.7838 16.8456 11.7803C16.9235 11.5407 16.9938 11.2991 17.0642 11.0575C17.126 10.8451 17.1879 10.6326 17.2549 10.4215C17.0478 10.4227 16.8408 10.4218 16.6338 10.4208C16.2612 10.4192 15.8887 10.4176 15.5166 10.4279C15.2392 11.7047 14.9578 12.9847 14.5751 14.235C14.2374 12.9727 13.9053 11.7071 13.6247 10.4303C13.4067 10.4242 13.1886 10.4248 12.9705 10.4254C12.7914 10.4259 12.6123 10.4264 12.4332 10.4231C12.1164 11.6983 11.794 12.9727 11.4281 14.2358C11.0663 12.9783 10.7769 11.7007 10.5027 10.4223C10.2881 10.4241 10.0736 10.4228 9.85911 10.4216Z" fill="url(#paint0_linear_1_623)"/>
<defs>
<linearGradient id="paint0_linear_1_623" x1="13.038" y1="1.52146" x2="1.73282" y2="14.0462" gradientUnits="userSpaceOnUse">
<stop stop-color="#BB57F7"/>
<stop offset="1" stop-color="#664BDF"/>
</linearGradient>
</defs>
</svg>
