<svg width="26" height="26" viewBox="0 0 26 26" fill="none" xmlns="http://www.w3.org/2000/svg">
<path opacity="0.2" d="M13 26C20.1797 26 26 20.1797 26 13C26 5.8203 20.1797 0 13 0C5.8203 0 0 5.8203 0 13C0 20.1797 5.8203 26 13 26Z" fill="#C87035"/>
<path fill-rule="evenodd" clip-rule="evenodd" d="M12.9915 20.9915C8.57465 20.9887 5 17.4078 5 12.9859C5 8.57249 8.58592 4.99718 13.0085 5C17.4169 5.00283 21 8.5866 20.9944 12.9972C20.9859 17.3598 17.4789 20.9859 12.9915 20.9915ZM9.73239 16.6515L9.75059 16.617C9.76466 16.5902 9.7767 16.5672 9.78873 16.5471C10.1465 15.9164 10.5049 15.2865 10.8633 14.6566C11.2218 14.0265 11.5803 13.3965 11.938 12.7658C12.399 11.9562 12.8584 11.145 13.3174 10.3345L13.318 10.3335L13.8169 9.45291C13.8423 9.40494 13.8704 9.38801 13.9268 9.38801C14.6563 9.39083 15.3887 9.39083 16.1183 9.39083H16.2225L15.6726 10.3611C14.8441 11.8228 14.0193 13.2782 13.1887 14.7411C13.2253 14.7439 13.2451 14.7439 13.2648 14.7439H13.2648C15.0958 14.7439 16.9239 14.7439 18.7549 14.7467C18.8169 14.7467 18.8366 14.7242 18.8507 14.6706C19.1268 13.6773 19.1549 12.6755 18.9268 11.6709C18.6535 10.4716 18.0535 9.45856 17.169 8.612C16.7718 8.23104 16.3239 7.92064 15.831 7.66949C14.6141 7.04868 13.3324 6.85115 11.9887 7.08819C10.6507 7.32522 9.52394 7.95732 8.6 8.95626C8.51925 9.0428 8.44351 9.13436 8.36776 9.22591L8.36772 9.22596C8.32986 9.27172 8.29201 9.31748 8.25352 9.36261C8.25493 9.36685 8.25704 9.37037 8.25915 9.3739C8.26127 9.37743 8.26338 9.38096 8.26479 9.38519H13.4845L13.4683 9.41628L13.4682 9.4163C13.4482 9.45479 13.432 9.48578 13.4141 9.51499C13.2934 9.72895 13.1723 9.94251 13.0513 10.156C12.8531 10.5056 12.655 10.8549 12.4592 11.2053C12.4225 11.2702 12.3831 11.2899 12.3127 11.2899C10.6676 11.2871 9.02535 11.2871 7.38028 11.2871H7.28169C6.44789 13.9058 7.62535 17.1905 10.5775 18.5055C13.4366 19.781 16.4338 18.6071 17.8394 16.6459C15.138 16.6515 12.4394 16.6515 9.73239 16.6515ZM20.7831 12.825C20.8394 15.0515 19.938 16.9055 18.9239 18.0314L17.8761 16.9647C19.7972 14.5887 19.7183 11.2787 17.8563 9.04092C18.0352 8.86032 18.2148 8.67972 18.3958 8.49767C18.574 8.31847 18.7536 8.13787 18.9352 7.9545C20.1099 9.37954 20.738 10.9908 20.7831 12.825Z" fill="#C87035"/>
</svg>
